<svg width="22" height="22" viewBox="0 0 22 22" fill="none" xmlns="http://www.w3.org/2000/svg">
<path d="M3.42202 3.42202H18.578V14.789H4.52802L3.42202 15.897V3.42202ZM3.42202 1.52802C2.92109 1.52987 2.44135 1.7303 2.08799 2.08535C1.73462 2.4404 1.53648 2.92109 1.53702 3.42202L1.52802 20.472L5.31702 16.683H18.578C19.0798 16.6814 19.5607 16.4814 19.9155 16.1265C20.2704 15.7717 20.4704 15.2908 20.472 14.789V3.42202C20.4704 2.92018 20.2704 2.43935 19.9155 2.0845C19.5607 1.72965 19.0798 1.5296 18.578 1.52802H3.42202ZM5.31602 11H12.894V12.894H5.31702L5.31602 11ZM5.31602 8.15802H16.684V10.052H5.31702L5.31602 8.15802ZM5.31602 5.31602H16.684V7.21102H5.31702L5.31602 5.31602Z" fill="#0074D3"/>
</svg>
