<svg id="chat_black_24dp_1_" data-name="chat_black_24dp (1)" xmlns="http://www.w3.org/2000/svg" width="22" height="22" viewBox="0 0 22 22">
  <path id="Path_347" data-name="Path 347" d="M0,0H22V22H0Z" fill="none"/>
  <path id="Path_348" data-name="Path 348" d="M3.894,3.894H19.05V15.261H5L3.894,16.369V3.894M3.894,2A1.892,1.892,0,0,0,2.009,3.894L2,20.944l3.789-3.789H19.05a1.9,1.9,0,0,0,1.894-1.894V3.894A1.9,1.9,0,0,0,19.05,2Zm1.894,9.472h7.578v1.894H5.789Zm0-2.842H17.156v1.894H5.789Zm0-2.842H17.156V7.683H5.789Z" transform="translate(-0.472 -0.472)" fill="#5f6368"/>
</svg>
