<svg width="22" height="22" viewBox="0 0 22 22" fill="none" xmlns="http://www.w3.org/2000/svg">
<path d="M7.33399 14.666H14.667V16.499H7.33399V14.666ZM7.33399 10.999H14.667V12.833H7.33399V10.999ZM12.834 1.83301H5.49999C5.01434 1.83459 4.54903 2.02822 4.20561 2.37163C3.8622 2.71504 3.66858 3.18035 3.66699 3.66601V18.333C3.66646 18.8178 3.85817 19.2829 4.2001 19.6265C4.54202 19.9702 5.00625 20.1642 5.49099 20.166H16.5C16.9858 20.1647 17.4514 19.9712 17.795 19.6277C18.1386 19.2843 18.3324 18.8188 18.334 18.333V7.33301L12.834 1.83301ZM16.501 18.333H5.50099V3.66601H11.917V8.25001H16.5L16.501 18.333Z" fill="#5F6368"/>
</svg>
