<svg width="22" height="22" viewBox="0 0 22 22" fill="none" xmlns="http://www.w3.org/2000/svg">
<path d="M17.671 12.905V5.27999C17.6694 4.77498 17.4681 4.2911 17.111 3.934C16.7539 3.57689 16.27 3.37558 15.765 3.37399H2.42101C1.916 3.37558 1.43212 3.57689 1.07502 3.934C0.717915 4.2911 0.516597 4.77498 0.515015 5.27999V12.905C0.516597 13.41 0.717915 13.8939 1.07502 14.251C1.43212 14.6081 1.916 14.8094 2.42101 14.811H15.765C16.27 14.8094 16.7539 14.6081 17.111 14.251C17.4681 13.8939 17.6694 13.41 17.671 12.905V12.905ZM15.765 12.905H2.42101V5.27999H15.765V12.905ZM9.09301 6.23299C8.52756 6.23299 7.9748 6.40067 7.50464 6.71482C7.03448 7.02897 6.66803 7.47549 6.45164 7.9979C6.23525 8.52031 6.17863 9.09516 6.28895 9.64976C6.39926 10.2043 6.67156 10.7138 7.0714 11.1136C7.47123 11.5134 7.98066 11.7857 8.53525 11.8961C9.08984 12.0064 9.66469 11.9498 10.1871 11.7334C10.7095 11.517 11.156 11.1505 11.4702 10.6804C11.7843 10.2102 11.952 9.65745 11.952 9.09199C11.9524 8.71643 11.8787 8.34448 11.7352 7.99743C11.5917 7.65039 11.3811 7.33506 11.1155 7.06949C10.85 6.80393 10.5346 6.59336 10.1876 6.44982C9.84053 6.30628 9.46857 6.2326 9.09301 6.23299V6.23299ZM21.484 6.23299V16.718C21.4824 17.223 21.2811 17.7069 20.924 18.064C20.5669 18.4211 20.083 18.6224 19.578 18.624H3.37401V16.718H19.574V6.23299H21.484Z" fill="#0074D3"/>
</svg>
