<svg xmlns="http://www.w3.org/2000/svg" width="22" height="22" viewBox="0 0 22 22">
  <g id="payments_black_24dp" transform="translate(-0.438 -0.438)">
    <rect id="Rectangle_728" data-name="Rectangle 728" width="22" height="22" transform="translate(0.438 0.438)" fill="none"/>
    <path id="Path_412" data-name="Path 412" d="M18.156,13.531V5.906A1.912,1.912,0,0,0,16.25,4H2.906A1.912,1.912,0,0,0,1,5.906v7.625a1.912,1.912,0,0,0,1.906,1.906H16.25A1.912,1.912,0,0,0,18.156,13.531Zm-1.906,0H2.906V5.906H16.25ZM9.578,6.859a2.859,2.859,0,1,0,2.859,2.859A2.856,2.856,0,0,0,9.578,6.859Zm12.391,0V17.344a1.912,1.912,0,0,1-1.906,1.906H3.859V17.344h16.2V6.859Z" transform="translate(-0.047 -0.188)" fill="#5f6368"/>
  </g>
</svg>
