<svg width="22" height="22" viewBox="0 0 22 22" fill="none" xmlns="http://www.w3.org/2000/svg">
<path d="M13.814 0.925995H8.31401V2.75899H13.814V0.925995ZM10.144 12.843H11.977V7.34299H10.144V12.843ZM17.505 6.77499L18.805 5.47499C18.4142 5.00593 17.9818 4.57317 17.513 4.18199L16.213 5.48199C14.5655 4.16604 12.4767 3.53092 10.3755 3.7071C8.27432 3.88328 6.32039 4.85738 4.91505 6.42931C3.50971 8.00125 2.75967 10.0517 2.819 12.1594C2.87834 14.2671 3.74253 16.272 5.23407 17.7624C6.72561 19.2528 8.73125 20.1155 10.839 20.1732C12.9468 20.2309 14.9966 19.4792 16.5674 18.0727C18.1383 16.6661 19.1109 14.7114 19.2854 12.6101C19.46 10.5088 18.8232 8.42046 17.506 6.77399L17.505 6.77499ZM11.064 18.343C9.79485 18.343 8.55418 17.9666 7.49891 17.2615C6.44364 16.5564 5.62116 15.5542 5.13547 14.3817C4.64979 13.2091 4.52271 11.9189 4.77031 10.6741C5.01791 9.42932 5.62907 8.28592 6.5265 7.38849C7.42394 6.49106 8.56734 5.8799 9.81211 5.6323C11.0569 5.38469 12.3471 5.51177 13.5197 5.99746C14.6922 6.48315 15.6944 7.30563 16.3995 8.3609C17.1047 9.41617 17.481 10.6568 17.481 11.926C17.4817 12.7689 17.3161 13.6036 16.9939 14.3825C16.6716 15.1613 16.199 15.869 15.603 16.465C15.007 17.061 14.2993 17.5336 13.5205 17.8559C12.7416 18.1781 11.9069 18.3437 11.064 18.343V18.343Z" fill="#0074D3"/>
</svg>
