<?xml version="1.0" encoding="UTF-8"?>
<svg id="Layer_1" data-name="Layer 1" xmlns="http://www.w3.org/2000/svg" xmlns:xlink="http://www.w3.org/1999/xlink" viewBox="0 0 41.09 40.98">
  <defs>
    <style>
      .cls-1 {
        fill: url(#linear-gradient);
      }

      .cls-1, .cls-2, .cls-3 {
        stroke-width: 0px;
      }

      .cls-2 {
        fill: url(#linear-gradient-2);
      }

      .cls-3 {
        fill: url(#linear-gradient-3);
      }
    </style>
    <linearGradient id="linear-gradient" x1=".84" y1="5.16" x2="35.3" y2="39.62" gradientUnits="userSpaceOnUse">
      <stop offset="0" stop-color="#0673f7"/>
      <stop offset=".22" stop-color="#056ff1"/>
      <stop offset=".5" stop-color="#0465e0"/>
      <stop offset=".82" stop-color="#0154c5"/>
      <stop offset="1" stop-color="#004ab3"/>
    </linearGradient>
    <linearGradient id="linear-gradient-2" x1="-2.96" y1="9.18" x2="31.5" y2="43.63" xlink:href="#linear-gradient"/>
    <linearGradient id="linear-gradient-3" x1="11.94" y1="-5.42" x2="45.91" y2="28.56" xlink:href="#linear-gradient"/>
  </defs>
  <path class="cls-1" d="m12.34,23.12l-9.3,5.34c-.61.35-1.39.08-1.65-.57-.9-2.31-1.4-4.82-1.4-7.46C0,10.14,7.57,1.62,17.44.13c.7-.11,1.34.43,1.34,1.14v10.71c0,.17-.12.31-.28.36-3.62.91-6.3,4.2-6.3,8.1,0,.78.11,1.54.31,2.26.05.16-.02.34-.17.42Z"/>
  <path class="cls-2" d="m26.72,26.06l9.51,5.54c.6.35.77,1.16.33,1.71-3.76,4.68-9.54,7.67-16.01,7.67-6.85,0-12.91-3.35-16.64-8.5-.13-.18-.07-.43.12-.54l10.07-5.78c.15-.08.33-.05.45.07,1.52,1.57,3.65,2.55,6.01,2.55s4.65-1.05,6.17-2.73Z"/>
  <path class="cls-3" d="m41.09,20.44c0,2.66-.51,5.21-1.43,7.54-.26.66-1.04.94-1.66.58l-9.26-5.39c-.15-.09-.21-.26-.16-.42.21-.73.33-1.51.33-2.32,0-3.91-2.69-7.2-6.33-8.11-.17-.04-.28-.19-.28-.36V.37c0-.22.19-.39.4-.37,10.34,1.07,18.39,9.81,18.39,20.43Z"/>
</svg>