<svg width="24" height="21" viewBox="0 0 24 21" fill="none" xmlns="http://www.w3.org/2000/svg">
<path d="M11.5 21C11.1757 20.7448 10.8635 20.5642 10.5685 20.3478C8.72863 19.0026 6.58701 18.2576 4.25172 17.9473C3.26761 17.8166 2.26773 17.7697 1.27236 17.7125C0.463906 17.6676 0 17.2757 0 16.5674C0 11.5255 0 6.48356 0 1.44369C0 0.74762 0.488677 0.298542 1.24084 0.312831C2.90729 0.34345 4.54898 0.52104 6.13662 1.00482C8.2377 1.64577 9.98298 2.70315 11.199 4.37494C11.3544 4.58927 11.4693 4.87301 11.4715 5.12612C11.4873 10.3905 11.4977 15.5927 11.4977 20.8571C11.4977 20.8857 11.4977 20.9224 11.4977 21.002L11.5 21Z" fill="url(#paint0_linear_1178_62)"/>
<path d="M12.5151 20.9965V20.5943C12.5151 15.5197 12.5309 10.4472 12.4971 5.37468C12.4926 4.61533 12.7786 4.03765 13.2831 3.48039C14.8752 1.7249 16.9785 0.757343 19.4017 0.33072C20.4871 0.138841 21.6041 0.0837266 22.7121 0.00411736C23.4575 -0.0489555 23.9777 0.416453 23.9777 1.08803C23.9822 6.22793 23.9822 11.3678 23.9777 16.5057C23.9777 17.1691 23.4912 17.5896 22.7098 17.6018C21.1402 17.6243 19.5931 17.7856 18.0775 18.1611C16.0507 18.6633 14.2356 19.5063 12.7291 20.8434C12.6795 20.8862 12.621 20.9209 12.5151 20.9985V20.9965Z" fill="url(#paint1_linear_1178_62)"/>
<path d="M14.5 9.5C14.5 9.5 15.2881 9.5 16.5 9.5C18.8542 9.5 22 9.5 22 9.5" stroke="white" stroke-miterlimit="10" stroke-linecap="round"/>
<path d="M14.5 14.5C14.5 14.5 15.4269 14.5 16.5 14.5C18.5845 14.5 20.5 14.5 20.5 14.5" stroke="white" stroke-miterlimit="10" stroke-linecap="round"/>
<path d="M5 7C5 7 5.42923 7 6.07309 7C7.32382 7 9.5 7 9.5 7" stroke="white" stroke-miterlimit="10" stroke-linecap="round"/>
<path d="M3 12C3 12 3.607 12 4.5175 12C6.2862 12 9.5 12 9.5 12" stroke="white" stroke-miterlimit="10" stroke-linecap="round"/>
<defs>
<linearGradient id="paint0_linear_1178_62" x1="9.91509" y1="2.82582" x2="-5.48879" y2="7.80378" gradientUnits="userSpaceOnUse">
<stop stop-color="#0673F7"/>
<stop offset="1" stop-color="#0151BE"/>
</linearGradient>
<linearGradient id="paint1_linear_1178_62" x1="21.8946" y1="2.73673" x2="6.45778" y2="7.66626" gradientUnits="userSpaceOnUse">
<stop stop-color="#0673F7"/>
<stop offset="1" stop-color="#0151BE"/>
</linearGradient>
</defs>
</svg>
