<?xml version="1.0" encoding="UTF-8"?>
<svg id="Layer_1" data-name="Layer 1" xmlns="http://www.w3.org/2000/svg" xmlns:xlink="http://www.w3.org/1999/xlink" viewBox="0 0 38.16 36.45">
  <defs>
    <style>
      .cls-1 {
        fill: url(#linear-gradient);
      }

      .cls-1, .cls-2, .cls-3 {
        stroke-width: 0px;
      }

      .cls-2 {
        fill: url(#linear-gradient-2);
      }

      .cls-3 {
        fill: url(#linear-gradient-3);
      }
    </style>
    <linearGradient id="linear-gradient" x1="11.86" y1="24.29" x2="17.5" y2="20.65" gradientUnits="userSpaceOnUse">
      <stop offset="0" stop-color="#0673f7"/>
      <stop offset="1" stop-color="#004ab3"/>
    </linearGradient>
    <linearGradient id="linear-gradient-2" x1="19.11" y1="11.78" x2="18.92" y2="18.46" xlink:href="#linear-gradient"/>
    <linearGradient id="linear-gradient-3" x1="26.39" y1="24.3" x2="18.65" y2="19.72" xlink:href="#linear-gradient"/>
  </defs>
  <path class="cls-1" d="m25.41,23.72v.03c0,4.69-2.54,8.79-6.33,10.99-1.87,1.09-4.05,1.72-6.38,1.72-7.02,0-12.7-5.69-12.7-12.71,0-4.71,2.57-8.83,6.38-11.02.01,4.7,2.57,8.8,6.38,10.99,1.86,1.07,4.02,1.68,6.32,1.68s4.47-.61,6.33-1.69Z"/>
  <path class="cls-2" d="m31.79,12.7v.03c-1.86-1.07-4.02-1.69-6.33-1.69s-4.51.62-6.38,1.71c-3.77,2.2-6.31,6.28-6.32,10.96-3.8-2.19-6.37-6.29-6.38-10.99v-.03C6.38,5.69,12.06,0,19.08,0s12.71,5.69,12.71,12.7Z"/>
  <path class="cls-3" d="m38.16,23.75c0,7.02-5.69,12.71-12.71,12.71-2.33,0-4.51-.62-6.38-1.72,3.78-2.2,6.33-6.3,6.33-10.99v-.03c-.01-4.68-2.55-8.76-6.33-10.96,1.87-1.09,4.05-1.71,6.38-1.71s4.47.61,6.33,1.69c3.81,2.19,6.38,6.3,6.38,11.02Z"/>
</svg>