<?xml version="1.0" encoding="UTF-8"?>
<svg id="Layer_1" data-name="Layer 1" xmlns="http://www.w3.org/2000/svg" xmlns:xlink="http://www.w3.org/1999/xlink" viewBox="0 0 40.01 39.82">
  <defs>
    <style>
      .cls-1 {
        fill: url(#linear-gradient);
      }

      .cls-1, .cls-2 {
        stroke-width: 0px;
      }

      .cls-2 {
        fill: #0673f7;
      }
    </style>
    <linearGradient id="linear-gradient" x1="11.61" y1="28.56" x2="24.54" y2="14.41" gradientUnits="userSpaceOnUse">
      <stop offset="0" stop-color="#0673f7"/>
      <stop offset="1" stop-color="#004ab3"/>
    </linearGradient>
  </defs>
  <path class="cls-1" d="m20.39,20.77v8.74h-10.08v-10.08h8.74v-10.31H0v30.69h30.69v-19.05h-10.31Z"/>
  <path class="cls-2" d="m39.88,9.72c-5.15,2.19-7.04,4.08-9.23,9.23-.07.16-.3.16-.37,0-2.19-5.15-4.08-7.04-9.23-9.23-.16-.07-.16-.3,0-.37C26.21,7.16,28.1,5.27,30.29.12c.07-.16.3-.16.37,0,2.19,5.15,4.08,7.04,9.23,9.23.16.07.16.3,0,.37Z"/>
</svg>