<svg xmlns="http://www.w3.org/2000/svg" xmlns:xlink="http://www.w3.org/1999/xlink" width="98.75" height="27.391" viewBox="0 0 98.75 27.391">
  <defs>
    <linearGradient id="linear-gradient" x1="0.056" y1="0.08" x2="0.898" y2="0.907" gradientUnits="objectBoundingBox">
      <stop offset="0" stop-color="#0cc6ed"/>
      <stop offset="1" stop-color="#1d8bdb"/>
    </linearGradient>
    <linearGradient id="linear-gradient-2" x1="0.017" y1="-0.037" x2="0.994" y2="1.015" xlink:href="#linear-gradient"/>
    <linearGradient id="linear-gradient-3" x1="-0.859" y1="0.184" x2="1.879" y2="0.805" xlink:href="#linear-gradient"/>
  </defs>
  <g id="Group_1" data-name="Group 1" transform="translate(-42.648 -78)">
    <g id="Group_298" data-name="Group 298" transform="translate(76.94 84.416)">
      <path id="Path_889" data-name="Path 889" d="M912.054,1581.065l-.641-1.684h-5.456l-.641,1.721a6.03,6.03,0,0,1-.641,1.36,1.02,1.02,0,0,1-.87.352,1.275,1.275,0,0,1-.906-.375,1.15,1.15,0,0,1-.394-.851,1.9,1.9,0,0,1,.091-.568q.091-.293.3-.815l3.433-8.715.353-.9a4.565,4.565,0,0,1,.439-.874,1.786,1.786,0,0,1,.613-.563,1.879,1.879,0,0,1,.938-.215,1.9,1.9,0,0,1,.947.215,1.824,1.824,0,0,1,.613.554,3.89,3.89,0,0,1,.394.728q.16.389.407,1.039l3.506,8.66a4.354,4.354,0,0,1,.412,1.438,1.19,1.19,0,0,1-.389.856,1.28,1.28,0,0,1-.938.389,1.218,1.218,0,0,1-.549-.115,1.125,1.125,0,0,1-.385-.311,2.855,2.855,0,0,1-.334-.6Q912.183,1581.376,912.054,1581.065Zm-5.383-3.726h4.01l-2.023-5.539Z" transform="translate(-902.506 -1568.935)" fill="#5c5c5c"/>
      <path id="Path_890" data-name="Path 890" d="M1026.72,1572.325a1.317,1.317,0,0,1-.893-.32,1.243,1.243,0,0,1,.009-1.78,1.276,1.276,0,0,1,.884-.343,1.31,1.31,0,0,1,.86.311,1.109,1.109,0,0,1,.375.906,1.144,1.144,0,0,1-.366.9A1.267,1.267,0,0,1,1026.72,1572.325Zm1.236,2.582v7.223a1.615,1.615,0,0,1-.357,1.135,1.184,1.184,0,0,1-.906.384,1.129,1.129,0,0,1-.893-.393,1.662,1.662,0,0,1-.343-1.126v-7.15a1.6,1.6,0,0,1,.343-1.117,1.154,1.154,0,0,1,.893-.375,1.2,1.2,0,0,1,.906.375A1.455,1.455,0,0,1,1027.956,1574.906Z" transform="translate(-1011.185 -1569.771)" fill="#5c5c5c"/>
      <path id="Path_891" data-name="Path 891" d="M1069.227,1581.294v-10.839a1.689,1.689,0,0,1,.334-1.135,1.134,1.134,0,0,1,.9-.384,1.183,1.183,0,0,1,.916.38,1.638,1.638,0,0,1,.348,1.14v10.839a1.625,1.625,0,0,1-.353,1.14,1.186,1.186,0,0,1-.911.38,1.129,1.129,0,0,1-.892-.394A1.661,1.661,0,0,1,1069.227,1581.294Z" transform="translate(-1049.874 -1568.935)" fill="#5c5c5c"/>
      <path id="Path_892" data-name="Path 892" d="M1115.2,1609.566a7.731,7.731,0,0,1-1.753,1.057,4.9,4.9,0,0,1-1.9.352,3.6,3.6,0,0,1-1.689-.38,2.78,2.78,0,0,1-1.122-1.03,2.673,2.673,0,0,1-.394-1.41,2.524,2.524,0,0,1,.65-1.749,3.251,3.251,0,0,1,1.785-.97q.238-.055,1.181-.247t1.616-.352q.673-.16,1.46-.389a2.61,2.61,0,0,0-.4-1.451,1.781,1.781,0,0,0-1.46-.462,3.044,3.044,0,0,0-1.433.265,2.327,2.327,0,0,0-.824.8,8.452,8.452,0,0,1-.485.7.8.8,0,0,1-.609.169,1.065,1.065,0,0,1-.728-.27.88.88,0,0,1-.307-.691,2.115,2.115,0,0,1,.467-1.282,3.337,3.337,0,0,1,1.456-1.025,6.555,6.555,0,0,1,2.463-.4,6.967,6.967,0,0,1,2.59.389,2.41,2.41,0,0,1,1.332,1.231,5.384,5.384,0,0,1,.389,2.234q0,.879,0,1.492t-.014,1.364a5.025,5.025,0,0,0,.234,1.469,4.623,4.623,0,0,1,.233.984.922.922,0,0,1-.361.7,1.213,1.213,0,0,1-.819.316,1.1,1.1,0,0,1-.76-.362A5.35,5.35,0,0,1,1115.2,1609.566Zm-.165-3.616a12.551,12.551,0,0,1-1.6.426q-1.048.224-1.451.329a1.976,1.976,0,0,0-.769.412,1.055,1.055,0,0,0-.366.856,1.268,1.268,0,0,0,.43.966,1.593,1.593,0,0,0,1.126.4,2.927,2.927,0,0,0,1.369-.325,2.165,2.165,0,0,0,.92-.838,3.826,3.826,0,0,0,.339-1.868Z" transform="translate(-1084.45 -1597.097)" fill="#5c5c5c"/>
      <path id="Path_893" data-name="Path 893" d="M1200.718,1611.427l.229-.558-3.076-7.745a2.891,2.891,0,0,1-.284-.97,1.137,1.137,0,0,1,.165-.6,1.229,1.229,0,0,1,.453-.439,1.191,1.191,0,0,1,.6-.165.982.982,0,0,1,.815.343,3.174,3.174,0,0,1,.485.984l2.115,6.152,2-5.722a9.833,9.833,0,0,1,.43-1.089,1.281,1.281,0,0,1,.407-.531,1.131,1.131,0,0,1,.609-.137,1.069,1.069,0,0,1,.544.151,1.052,1.052,0,0,1,.4.407,1.1,1.1,0,0,1,.142.54q-.037.174-.119.494t-.2.65l-3.259,8.532a9.971,9.971,0,0,1-.824,1.767,2.715,2.715,0,0,1-1.066.984,3.928,3.928,0,0,1-1.79.343,4.351,4.351,0,0,1-1.648-.238.869.869,0,0,1-.549-.87.845.845,0,0,1,.261-.664,1.128,1.128,0,0,1,.774-.234,1.439,1.439,0,0,1,.394.055,1.856,1.856,0,0,0,.412.055,1.486,1.486,0,0,0,.677-.128,1.189,1.189,0,0,0,.444-.444A6.809,6.809,0,0,0,1200.718,1611.427Z" transform="translate(-1163.084 -1597.237)" fill="#5c5c5c"/>
      <path id="Path_894" data-name="Path 894" d="M1296.332,1607.848a2.9,2.9,0,0,1-1.991,2.888,6.667,6.667,0,0,1-2.394.38,5.839,5.839,0,0,1-2.307-.412,3.362,3.362,0,0,1-1.419-1.03,2.074,2.074,0,0,1-.458-1.241.961.961,0,0,1,.293-.7,1.006,1.006,0,0,1,.741-.293.864.864,0,0,1,.6.192,2.1,2.1,0,0,1,.4.54,2.736,2.736,0,0,0,.92,1,2.778,2.778,0,0,0,1.46.33,2.11,2.11,0,0,0,1.231-.334.939.939,0,0,0,.48-.764,1.04,1.04,0,0,0-.5-.961,6.177,6.177,0,0,0-1.643-.577,13.566,13.566,0,0,1-2.1-.673,3.462,3.462,0,0,1-1.3-.929,2.128,2.128,0,0,1-.485-1.419,2.5,2.5,0,0,1,.448-1.419,3.075,3.075,0,0,1,1.323-1.067,5.065,5.065,0,0,1,2.11-.4,6.942,6.942,0,0,1,1.744.2,4.361,4.361,0,0,1,1.291.54,2.668,2.668,0,0,1,.787.751,1.473,1.473,0,0,1,.27.805.931.931,0,0,1-.288.705,1.143,1.143,0,0,1-.819.275,1,1,0,0,1-.655-.22,4.315,4.315,0,0,1-.618-.659,2.258,2.258,0,0,0-.668-.586,2.107,2.107,0,0,0-1.043-.22,2.046,2.046,0,0,0-1.126.288.842.842,0,0,0-.448.719.777.777,0,0,0,.33.645,2.737,2.737,0,0,0,.888.417q.558.165,1.538.4a8.229,8.229,0,0,1,1.9.677,3.161,3.161,0,0,1,1.117.929A2.059,2.059,0,0,1,1296.332,1607.848Z" transform="translate(-1243.042 -1597.237)" fill="#5c5c5c"/>
      <path id="Path_895" data-name="Path 895" d="M1382,1609.566a7.741,7.741,0,0,1-1.753,1.057,4.9,4.9,0,0,1-1.9.352,3.6,3.6,0,0,1-1.689-.38,2.777,2.777,0,0,1-1.121-1.03,2.671,2.671,0,0,1-.394-1.41,2.525,2.525,0,0,1,.65-1.749,3.252,3.252,0,0,1,1.785-.97q.237-.055,1.181-.247t1.616-.352q.673-.16,1.46-.389a2.607,2.607,0,0,0-.4-1.451,1.781,1.781,0,0,0-1.46-.462,3.045,3.045,0,0,0-1.433.265,2.329,2.329,0,0,0-.824.8,8.329,8.329,0,0,1-.485.7.8.8,0,0,1-.609.169,1.064,1.064,0,0,1-.728-.27.88.88,0,0,1-.307-.691,2.114,2.114,0,0,1,.467-1.282,3.338,3.338,0,0,1,1.456-1.025,6.556,6.556,0,0,1,2.462-.4,6.969,6.969,0,0,1,2.591.389,2.411,2.411,0,0,1,1.332,1.231,5.385,5.385,0,0,1,.389,2.234q0,.879,0,1.492t-.014,1.364a5.029,5.029,0,0,0,.233,1.469,4.614,4.614,0,0,1,.234.984.922.922,0,0,1-.362.7,1.213,1.213,0,0,1-.82.316,1.105,1.105,0,0,1-.76-.362A5.341,5.341,0,0,1,1382,1609.566Zm-.165-3.616a12.554,12.554,0,0,1-1.6.426q-1.048.224-1.451.329a1.978,1.978,0,0,0-.769.412,1.056,1.056,0,0,0-.366.856,1.268,1.268,0,0,0,.43.966,1.592,1.592,0,0,0,1.126.4,2.926,2.926,0,0,0,1.368-.325,2.168,2.168,0,0,0,.92-.838,3.828,3.828,0,0,0,.339-1.868Z" transform="translate(-1320.281 -1597.097)" fill="#5c5c5c"/>
    </g>
    <g id="Group_305" data-name="Group 305" transform="translate(42.648 78)">
      <g id="Group_299" data-name="Group 299" transform="translate(0 0)">
        <path id="Path_896" data-name="Path 896" d="M627.782,1513.5H612.62a6.141,6.141,0,0,0-6.126,6.12v15.15a6.141,6.141,0,0,0,6.126,6.12h15.161a6.14,6.14,0,0,0,6.124-6.12v-15.15A6.14,6.14,0,0,0,627.782,1513.5Zm-3.7,15.066c0,3.431-1.767,5.1-5.4,5.1H616.76c-3.632,0-5.4-1.22-5.4-3.729s1.766-3.727,5.4-3.727h5.2v-.384c0-2.045-1.133-3.126-3.276-3.126H615.2a2.069,2.069,0,0,1-1.9-1.972h5.379c3.631,0,5.4,1.667,5.4,5.1Zm4.441,5.1a2.467,2.467,0,0,1-2.123-2.628v-6.713h.151a2.2,2.2,0,0,1,1.972,2.361Zm0-10.964h-.753a1.539,1.539,0,0,1-1.37-1.661v-.311h.86a1.421,1.421,0,0,1,1.263,1.536Z" transform="translate(-606.495 -1513.497)" fill="#0078d4"/>
      </g>
      <g id="Group_300" data-name="Group 300" transform="translate(4.867 7.222)">
        <path id="Path_897" data-name="Path 897" d="M655.751,1575.8h-5.379a2.07,2.07,0,0,0,1.9,1.973h3.484c2.143,0,3.276,1.082,3.276,3.128v.384h-5.2c-3.632,0-5.4,1.22-5.4,3.729s1.766,3.732,5.4,3.732h1.928c3.631,0,5.4-1.669,5.4-5.1V1580.9C661.149,1577.466,659.382,1575.8,655.751,1575.8Zm3.276,7.844c0,2.047-1.133,3.128-3.276,3.128h-1.928c-2.173,0-3.275-.59-3.275-1.757s1.1-1.755,3.275-1.755h5.2Z" transform="translate(-648.425 -1575.798)" fill="url(#linear-gradient)"/>
      </g>
      <path id="Path_898" data-name="Path 898" d="M780.128,1577.335v.436h-.753a1.54,1.54,0,0,1-1.37-1.662v-.311h.86A1.422,1.422,0,0,1,780.128,1577.335Z" transform="translate(-758.096 -1568.571)" fill="url(#linear-gradient-2)"/>
      <path id="Path_899" data-name="Path 899" d="M780.128,1609.15v6.986a2.468,2.468,0,0,1-2.123-2.63v-6.718h.151A2.2,2.2,0,0,1,780.128,1609.15Z" transform="translate(-758.096 -1595.97)" fill="url(#linear-gradient-3)"/>
      <g id="Group_304" data-name="Group 304" transform="translate(4.867 7.222)">
        <g id="Group_301" data-name="Group 301" transform="translate(15.042)">
          <path id="Path_900" data-name="Path 900" d="M780.128,1577.335v.436h-.753a1.54,1.54,0,0,1-1.37-1.662v-.311h.86A1.422,1.422,0,0,1,780.128,1577.335Z" transform="translate(-778.005 -1575.798)" fill="#fff"/>
        </g>
        <g id="Group_302" data-name="Group 302" transform="translate(15.042 3.597)">
          <path id="Path_901" data-name="Path 901" d="M780.128,1609.15v6.986a2.468,2.468,0,0,1-2.123-2.63v-6.718h.151A2.2,2.2,0,0,1,780.128,1609.15Z" transform="translate(-778.005 -1606.788)" fill="#fff"/>
        </g>
        <g id="Group_303" data-name="Group 303">
          <path id="Path_902" data-name="Path 902" d="M655.751,1575.8h-5.379a2.07,2.07,0,0,0,1.9,1.973h3.484c2.143,0,3.276,1.082,3.276,3.128v.384h-5.2c-3.632,0-5.4,1.22-5.4,3.729s1.766,3.732,5.4,3.732h1.928c3.631,0,5.4-1.669,5.4-5.1V1580.9C661.149,1577.466,659.382,1575.8,655.751,1575.8Zm3.276,7.844c0,2.047-1.133,3.128-3.276,3.128h-1.928c-2.173,0-3.275-.59-3.275-1.757s1.1-1.755,3.275-1.755h5.2Z" transform="translate(-648.425 -1575.798)" fill="#fff"/>
          <path id="Path_903" data-name="Path 903" d="M675.194,1640.068v.384c0,2.047-1.133,3.127-3.276,3.127H669.99c-2.173,0-3.275-.59-3.275-1.756s1.1-1.755,3.275-1.755Z" transform="translate(-664.592 -1632.608)" fill="#0078d4"/>
        </g>
      </g>
    </g>
  </g>
</svg>
