<svg id="Group_103" data-name="Group 103" xmlns="http://www.w3.org/2000/svg" width="38.865" height="38.865" viewBox="0 0 38.865 38.865">
  <g id="Group_1046" data-name="Group 1046">
    <path id="Path_2674" data-name="Path 2674" d="M30.181,38.865H8.684A8.71,8.71,0,0,1,0,30.181V8.685A8.71,8.71,0,0,1,8.684,0h21.5a8.71,8.71,0,0,1,8.684,8.685v21.5a8.71,8.71,0,0,1-8.684,8.684" fill="#0078d4"/>
    <path id="Path_2675" data-name="Path 2675" d="M200.087,74.866v.619h1.068a2.183,2.183,0,0,0,1.941-2.357v-.441h-1.219a2.016,2.016,0,0,0-1.791,2.179" transform="translate(-171.859 -62.432)" fill="#fff"/>
    <path id="Path_2676" data-name="Path 2676" d="M200.087,112.186v9.9a3.5,3.5,0,0,0,3.009-3.728v-9.526h-.214a3.114,3.114,0,0,0-2.8,3.351" transform="translate(-171.859 -93.481)" fill="#fff"/>
    <path id="Path_2677" data-name="Path 2677" d="M59.3,72.687H51.677a2.937,2.937,0,0,0,2.688,2.8H59.3c3.038,0,4.644,1.533,4.644,4.435v.545H56.571c-5.151,0-7.653,1.729-7.653,5.289s2.5,5.29,7.653,5.29H59.3c5.149,0,7.653-2.366,7.653-7.235V79.921c0-4.869-2.5-7.234-7.653-7.234m4.644,11.122c0,2.9-1.605,4.435-4.644,4.435H56.571c-3.082,0-4.644-.837-4.644-2.49s1.562-2.49,4.644-2.49h7.377Z" transform="translate(-42.017 -62.432)" fill="#fff"/>
  </g>
</svg>
