<svg width="225" height="30" viewBox="0 0 225 30" fill="none" xmlns="http://www.w3.org/2000/svg">
<rect width="30" height="30" rx="8" fill="white"/>
<path d="M26.5 6.00243C26.5 9.51739 23.6457 12.3738 20.1286 12.3738L4 12.3738C4 8.85886 6.85433 6.00243 10.3714 6.00243L26.5 6.00243Z" fill="#0673F7"/>
<path d="M14.9078 12.3714L17.8129 6H11.8544H10.188C4.74615 7.50339 4.00293 12.3714 4.00293 12.3714H9.74757H14.9078Z" fill="url(#paint0_radial_1498_563)"/>
<path d="M17.7588 24.4854H12.7447C12.3699 24.4854 12.0671 24.1826 12.0671 23.8078L12.0671 12.3715C12.0671 8.8565 14.9214 6.00006 18.4385 6.00006L18.4385 23.8078C18.4385 24.1826 18.1357 24.4854 17.7609 24.4854H17.7588Z" fill="#0673F7"/>
<path d="M129.904 7.28125V21.5H128.049V7.28125H129.904ZM134.475 7.28125V8.82422H123.488V7.28125H134.475ZM137.375 12.5938V21.5H135.568V10.9336H137.326L137.375 12.5938ZM140.676 10.875L140.666 12.5547C140.516 12.5221 140.373 12.5026 140.236 12.4961C140.106 12.4831 139.956 12.4766 139.787 12.4766C139.37 12.4766 139.003 12.5417 138.684 12.6719C138.365 12.8021 138.094 12.9844 137.873 13.2188C137.652 13.4531 137.476 13.7331 137.346 14.0586C137.222 14.3776 137.141 14.7292 137.102 15.1133L136.594 15.4062C136.594 14.7682 136.656 14.1693 136.779 13.6094C136.91 13.0495 137.108 12.5547 137.375 12.125C137.642 11.6888 137.98 11.3503 138.391 11.1094C138.807 10.862 139.302 10.7383 139.875 10.7383C140.005 10.7383 140.155 10.7546 140.324 10.7871C140.493 10.8132 140.611 10.8424 140.676 10.875ZM148.186 19.6934V14.2539C148.186 13.8372 148.101 13.4759 147.932 13.1699C147.769 12.8574 147.521 12.6165 147.189 12.4473C146.857 12.278 146.447 12.1934 145.959 12.1934C145.503 12.1934 145.103 12.2715 144.758 12.4277C144.419 12.584 144.152 12.7891 143.957 13.043C143.768 13.2969 143.674 13.5703 143.674 13.8633H141.867C141.867 13.4857 141.965 13.1113 142.16 12.7402C142.355 12.3691 142.635 12.0339 143 11.7344C143.371 11.4284 143.814 11.1875 144.328 11.0117C144.849 10.8294 145.428 10.7383 146.066 10.7383C146.835 10.7383 147.512 10.8685 148.098 11.1289C148.69 11.3893 149.152 11.7832 149.484 12.3105C149.823 12.8314 149.992 13.4857 149.992 14.2734V19.1953C149.992 19.5469 150.021 19.9212 150.08 20.3184C150.145 20.7155 150.24 21.0573 150.363 21.3438V21.5H148.479C148.387 21.2917 148.316 21.015 148.264 20.6699C148.212 20.3184 148.186 19.9928 148.186 19.6934ZM148.498 15.0938L148.518 16.3633H146.691C146.177 16.3633 145.718 16.4056 145.314 16.4902C144.911 16.5684 144.572 16.6888 144.299 16.8516C144.025 17.0143 143.817 17.2194 143.674 17.4668C143.531 17.7077 143.459 17.9909 143.459 18.3164C143.459 18.6484 143.534 18.9512 143.684 19.2246C143.833 19.498 144.058 19.7161 144.357 19.8789C144.663 20.0352 145.038 20.1133 145.48 20.1133C146.034 20.1133 146.522 19.9961 146.945 19.7617C147.368 19.5273 147.704 19.2409 147.951 18.9023C148.205 18.5638 148.342 18.235 148.361 17.916L149.133 18.7852C149.087 19.0586 148.964 19.3613 148.762 19.6934C148.56 20.0254 148.29 20.3444 147.951 20.6504C147.619 20.9499 147.222 21.2005 146.76 21.4023C146.304 21.5977 145.79 21.6953 145.217 21.6953C144.501 21.6953 143.872 21.5553 143.332 21.2754C142.798 20.9954 142.382 20.6211 142.082 20.1523C141.789 19.6771 141.643 19.1465 141.643 18.5605C141.643 17.9941 141.753 17.4961 141.975 17.0664C142.196 16.6302 142.515 16.2689 142.932 15.9824C143.348 15.6895 143.85 15.4681 144.436 15.3184C145.021 15.1686 145.676 15.0938 146.398 15.0938H148.498ZM154.641 13.1895V21.5H152.834V10.9336H154.543L154.641 13.1895ZM154.211 15.8164L153.459 15.7871C153.465 15.0645 153.573 14.3971 153.781 13.7852C153.99 13.1667 154.283 12.6296 154.66 12.1738C155.038 11.7181 155.487 11.3665 156.008 11.1191C156.535 10.8652 157.118 10.7383 157.756 10.7383C158.277 10.7383 158.745 10.8099 159.162 10.9531C159.579 11.0898 159.934 11.3112 160.227 11.6172C160.526 11.9232 160.754 12.3203 160.91 12.8086C161.066 13.2904 161.145 13.8796 161.145 14.5762V21.5H159.328V14.5566C159.328 14.0033 159.247 13.5605 159.084 13.2285C158.921 12.89 158.684 12.6458 158.371 12.4961C158.059 12.3398 157.674 12.2617 157.219 12.2617C156.77 12.2617 156.359 12.3561 155.988 12.5449C155.624 12.7337 155.308 12.9941 155.041 13.3262C154.781 13.6582 154.576 14.0391 154.426 14.4688C154.283 14.8919 154.211 15.3411 154.211 15.8164ZM170.041 18.6973C170.041 18.4368 169.982 18.196 169.865 17.9746C169.755 17.7467 169.523 17.5417 169.172 17.3594C168.827 17.1706 168.306 17.0078 167.609 16.8711C167.023 16.7474 166.493 16.6009 166.018 16.4316C165.549 16.2624 165.148 16.0573 164.816 15.8164C164.491 15.5755 164.24 15.2923 164.064 14.9668C163.889 14.6413 163.801 14.2604 163.801 13.8242C163.801 13.4076 163.892 13.0137 164.074 12.6426C164.263 12.2715 164.527 11.9427 164.865 11.6562C165.21 11.3698 165.624 11.1452 166.105 10.9824C166.587 10.8197 167.124 10.7383 167.717 10.7383C168.563 10.7383 169.286 10.888 169.885 11.1875C170.484 11.487 170.943 11.8874 171.262 12.3887C171.581 12.8835 171.74 13.4336 171.74 14.0391H169.934C169.934 13.7461 169.846 13.4629 169.67 13.1895C169.501 12.9095 169.25 12.6784 168.918 12.4961C168.592 12.3138 168.192 12.2227 167.717 12.2227C167.215 12.2227 166.809 12.3008 166.496 12.457C166.19 12.6068 165.965 12.7988 165.822 13.0332C165.686 13.2676 165.617 13.515 165.617 13.7754C165.617 13.9707 165.65 14.1465 165.715 14.3027C165.786 14.4525 165.91 14.5924 166.086 14.7227C166.262 14.8464 166.509 14.9635 166.828 15.0742C167.147 15.1849 167.554 15.2956 168.049 15.4062C168.915 15.6016 169.628 15.8359 170.188 16.1094C170.747 16.3828 171.164 16.7181 171.438 17.1152C171.711 17.5124 171.848 17.9941 171.848 18.5605C171.848 19.0228 171.75 19.446 171.555 19.8301C171.366 20.2142 171.089 20.5462 170.725 20.8262C170.367 21.0996 169.937 21.3145 169.436 21.4707C168.941 21.6204 168.384 21.6953 167.766 21.6953C166.835 21.6953 166.047 21.5293 165.402 21.1973C164.758 20.8652 164.27 20.4355 163.938 19.9082C163.605 19.3809 163.439 18.8242 163.439 18.2383H165.256C165.282 18.7331 165.425 19.127 165.686 19.4199C165.946 19.7064 166.265 19.9115 166.643 20.0352C167.02 20.1523 167.395 20.2109 167.766 20.2109C168.26 20.2109 168.674 20.1458 169.006 20.0156C169.344 19.8854 169.602 19.7064 169.777 19.4785C169.953 19.2507 170.041 18.9902 170.041 18.6973ZM178.605 21.6953C177.87 21.6953 177.202 21.5716 176.604 21.3242C176.011 21.0703 175.5 20.7155 175.07 20.2598C174.647 19.804 174.322 19.2637 174.094 18.6387C173.866 18.0137 173.752 17.3301 173.752 16.5879V16.1777C173.752 15.3184 173.879 14.5534 174.133 13.8828C174.387 13.2057 174.732 12.6328 175.168 12.1641C175.604 11.6953 176.099 11.3405 176.652 11.0996C177.206 10.8587 177.779 10.7383 178.371 10.7383C179.126 10.7383 179.777 10.8685 180.324 11.1289C180.878 11.3893 181.33 11.7539 181.682 12.2227C182.033 12.6849 182.294 13.2318 182.463 13.8633C182.632 14.4883 182.717 15.1719 182.717 15.9141V16.7246H174.826V15.25H180.91V15.1133C180.884 14.6445 180.786 14.1888 180.617 13.7461C180.454 13.3034 180.194 12.9388 179.836 12.6523C179.478 12.3659 178.99 12.2227 178.371 12.2227C177.961 12.2227 177.583 12.3105 177.238 12.4863C176.893 12.6556 176.597 12.9095 176.35 13.248C176.102 13.5866 175.91 14 175.773 14.4883C175.637 14.9766 175.568 15.5397 175.568 16.1777V16.5879C175.568 17.0892 175.637 17.5612 175.773 18.0039C175.917 18.4401 176.122 18.8242 176.389 19.1562C176.662 19.4883 176.991 19.7487 177.375 19.9375C177.766 20.1263 178.208 20.2207 178.703 20.2207C179.341 20.2207 179.882 20.0905 180.324 19.8301C180.767 19.5697 181.154 19.2214 181.486 18.7852L182.58 19.6543C182.352 19.9993 182.062 20.3281 181.711 20.6406C181.359 20.9531 180.926 21.207 180.412 21.4023C179.904 21.5977 179.302 21.6953 178.605 21.6953ZM191.486 19.4492V6.5H193.303V21.5H191.643L191.486 19.4492ZM184.377 16.334V16.1289C184.377 15.3216 184.475 14.5892 184.67 13.9316C184.872 13.2676 185.155 12.6979 185.52 12.2227C185.891 11.7474 186.33 11.3828 186.838 11.1289C187.352 10.8685 187.925 10.7383 188.557 10.7383C189.221 10.7383 189.8 10.8555 190.295 11.0898C190.796 11.3177 191.219 11.653 191.564 12.0957C191.916 12.5319 192.193 13.0592 192.395 13.6777C192.596 14.2962 192.736 14.9961 192.814 15.7773V16.6758C192.743 17.4505 192.603 18.1471 192.395 18.7656C192.193 19.3841 191.916 19.9115 191.564 20.3477C191.219 20.7839 190.796 21.1191 190.295 21.3535C189.794 21.5814 189.208 21.6953 188.537 21.6953C187.919 21.6953 187.352 21.5618 186.838 21.2949C186.33 21.028 185.891 20.6536 185.52 20.1719C185.155 19.6901 184.872 19.1237 184.67 18.4727C184.475 17.8151 184.377 17.1022 184.377 16.334ZM186.193 16.1289V16.334C186.193 16.8613 186.245 17.3561 186.35 17.8184C186.46 18.2806 186.63 18.6875 186.857 19.0391C187.085 19.3906 187.375 19.6673 187.727 19.8691C188.078 20.0645 188.498 20.1621 188.986 20.1621C189.585 20.1621 190.077 20.0352 190.461 19.7812C190.852 19.5273 191.164 19.1921 191.398 18.7754C191.633 18.3587 191.815 17.9062 191.945 17.418V15.0645C191.867 14.7064 191.753 14.3613 191.604 14.0293C191.46 13.6908 191.271 13.3913 191.037 13.1309C190.809 12.8639 190.526 12.6523 190.188 12.4961C189.855 12.3398 189.462 12.2617 189.006 12.2617C188.511 12.2617 188.085 12.3659 187.727 12.5742C187.375 12.776 187.085 13.056 186.857 13.4141C186.63 13.7656 186.46 14.1758 186.35 14.6445C186.245 15.1068 186.193 15.6016 186.193 16.1289ZM198.078 10.9336V21.5H196.262V10.9336H198.078ZM196.125 8.13086C196.125 7.83789 196.213 7.59049 196.389 7.38867C196.571 7.18685 196.838 7.08594 197.189 7.08594C197.535 7.08594 197.798 7.18685 197.98 7.38867C198.169 7.59049 198.264 7.83789 198.264 8.13086C198.264 8.41081 198.169 8.65169 197.98 8.85352C197.798 9.04883 197.535 9.14648 197.189 9.14648C196.838 9.14648 196.571 9.04883 196.389 8.85352C196.213 8.65169 196.125 8.41081 196.125 8.13086ZM205.402 10.9336V12.3203H199.689V10.9336H205.402ZM201.623 8.36523H203.43V18.8828C203.43 19.2409 203.485 19.5111 203.596 19.6934C203.706 19.8757 203.85 19.9961 204.025 20.0547C204.201 20.1133 204.39 20.1426 204.592 20.1426C204.742 20.1426 204.898 20.1296 205.061 20.1035C205.23 20.071 205.357 20.0449 205.441 20.0254L205.451 21.5C205.308 21.5456 205.119 21.5879 204.885 21.627C204.657 21.6725 204.38 21.6953 204.055 21.6953C203.612 21.6953 203.205 21.6074 202.834 21.4316C202.463 21.2559 202.167 20.9629 201.945 20.5527C201.73 20.1361 201.623 19.5762 201.623 18.873V8.36523ZM206.848 16.334V16.1094C206.848 15.3477 206.958 14.6413 207.18 13.9902C207.401 13.3327 207.72 12.763 208.137 12.2812C208.553 11.793 209.058 11.4154 209.65 11.1484C210.243 10.875 210.907 10.7383 211.643 10.7383C212.385 10.7383 213.052 10.875 213.645 11.1484C214.243 11.4154 214.751 11.793 215.168 12.2812C215.591 12.763 215.913 13.3327 216.135 13.9902C216.356 14.6413 216.467 15.3477 216.467 16.1094V16.334C216.467 17.0957 216.356 17.8021 216.135 18.4531C215.913 19.1042 215.591 19.6738 215.168 20.1621C214.751 20.6439 214.247 21.0215 213.654 21.2949C213.068 21.5618 212.404 21.6953 211.662 21.6953C210.92 21.6953 210.253 21.5618 209.66 21.2949C209.068 21.0215 208.56 20.6439 208.137 20.1621C207.72 19.6738 207.401 19.1042 207.18 18.4531C206.958 17.8021 206.848 17.0957 206.848 16.334ZM208.654 16.1094V16.334C208.654 16.8613 208.716 17.3594 208.84 17.8281C208.964 18.2904 209.149 18.7005 209.396 19.0586C209.65 19.4167 209.966 19.6999 210.344 19.9082C210.721 20.11 211.161 20.2109 211.662 20.2109C212.157 20.2109 212.59 20.11 212.961 19.9082C213.339 19.6999 213.651 19.4167 213.898 19.0586C214.146 18.7005 214.331 18.2904 214.455 17.8281C214.585 17.3594 214.65 16.8613 214.65 16.334V16.1094C214.65 15.5885 214.585 15.097 214.455 14.6348C214.331 14.166 214.143 13.7526 213.889 13.3945C213.641 13.0299 213.329 12.7435 212.951 12.5352C212.58 12.3268 212.144 12.2227 211.643 12.2227C211.148 12.2227 210.712 12.3268 210.334 12.5352C209.963 12.7435 209.65 13.0299 209.396 13.3945C209.149 13.7526 208.964 14.166 208.84 14.6348C208.716 15.097 208.654 15.5885 208.654 16.1094ZM220.539 12.5938V21.5H218.732V10.9336H220.49L220.539 12.5938ZM223.84 10.875L223.83 12.5547C223.68 12.5221 223.537 12.5026 223.4 12.4961C223.27 12.4831 223.12 12.4766 222.951 12.4766C222.535 12.4766 222.167 12.5417 221.848 12.6719C221.529 12.8021 221.258 12.9844 221.037 13.2188C220.816 13.4531 220.64 13.7331 220.51 14.0586C220.386 14.3776 220.305 14.7292 220.266 15.1133L219.758 15.4062C219.758 14.7682 219.82 14.1693 219.943 13.6094C220.074 13.0495 220.272 12.5547 220.539 12.125C220.806 11.6888 221.145 11.3503 221.555 11.1094C221.971 10.862 222.466 10.7383 223.039 10.7383C223.169 10.7383 223.319 10.7546 223.488 10.7871C223.658 10.8132 223.775 10.8424 223.84 10.875Z" fill="white"/>
<path d="M50.8459 19.3288L50.1182 17.4088H43.9204L43.1928 19.3703C43.0157 19.9152 42.7714 20.4356 42.4652 20.9194C42.3447 21.0609 42.1921 21.1712 42.0202 21.2411C41.8484 21.3111 41.6623 21.3384 41.4777 21.3211C41.2863 21.3216 41.0968 21.2842 40.92 21.2107C40.7432 21.1372 40.5827 21.0293 40.4477 20.8933C40.3089 20.7725 40.1973 20.6235 40.12 20.4562C40.0429 20.2888 40.002 20.107 40 19.9226C40.0017 19.7029 40.0367 19.4847 40.1039 19.2755C40.1733 19.0535 40.2879 18.7438 40.4477 18.3463L44.3457 8.41333L44.7461 7.38577C44.8765 7.0365 45.044 6.70231 45.2457 6.38903C45.4243 6.12279 45.6632 5.90269 45.9427 5.74666C46.2699 5.57393 46.6361 5.48939 47.0057 5.50132C47.3796 5.4882 47.7504 5.57274 48.0818 5.74666C48.3593 5.90092 48.5977 6.11708 48.7787 6.37839C48.957 6.63817 49.107 6.91626 49.2264 7.20799C49.3477 7.50351 49.502 7.89856 49.6894 8.39318L53.6725 18.2634C53.9229 18.778 54.0828 19.332 54.145 19.9013C54.1412 20.0855 54.1001 20.2669 54.0241 20.4346C53.9482 20.6023 53.839 20.7527 53.7032 20.8767C53.5655 21.0194 53.4001 21.1323 53.2172 21.2085C53.0345 21.2848 52.8381 21.3227 52.6401 21.32C52.4249 21.3259 52.2113 21.2812 52.0164 21.1896C51.8462 21.1052 51.6969 20.9837 51.5794 20.834C51.4257 20.6207 51.2984 20.3896 51.2002 20.1456C51.0617 19.8381 50.9435 19.5659 50.8459 19.3288ZM44.7307 15.0823H49.2855L46.9868 8.77007L44.7307 15.0823Z" fill="#CDE3FE"/>
<path d="M57.6472 8.41416C57.2759 8.42286 56.9148 8.29274 56.6338 8.04912C56.5002 7.91603 56.3942 7.75757 56.3224 7.58301C56.2505 7.40844 56.214 7.22125 56.2149 7.03237C56.216 6.84349 56.2544 6.65669 56.3282 6.48289C56.4019 6.30909 56.5094 6.15174 56.6444 6.02007C56.9166 5.76524 57.2761 5.62522 57.6485 5.62898C58.006 5.62589 58.3528 5.75208 58.6253 5.98452C58.7705 6.11249 58.8845 6.27226 58.9584 6.45146C59.0324 6.63065 59.0643 6.82448 59.0517 7.01801C59.062 7.20942 59.03 7.40076 58.9582 7.57837C58.8862 7.75598 58.7763 7.9155 58.6359 8.04557C58.3647 8.28958 58.0114 8.42131 57.6472 8.41416ZM59.0504 11.357V19.5893C59.0847 20.0567 58.9399 20.5196 58.6454 20.8835C58.5151 21.0265 58.3558 21.1397 58.178 21.2153C58.0002 21.2911 57.8084 21.3275 57.6154 21.322C57.4237 21.3279 57.2331 21.2906 57.0577 21.2128C56.8823 21.1351 56.7265 21.019 56.6018 20.8728C56.3203 20.507 56.1817 20.0505 56.2121 19.5893V11.4399C56.178 10.9816 56.3171 10.5271 56.6018 10.167C56.7298 10.0264 56.8867 9.91531 57.0617 9.84135C57.2367 9.76752 57.4256 9.73267 57.6154 9.73919C57.8074 9.7335 57.9984 9.7687 58.176 9.84242C58.3535 9.91614 58.5136 10.0268 58.6454 10.167C58.9308 10.495 59.0763 10.9224 59.0504 11.357Z" fill="#CDE3FE"/>
<path d="M61.9836 19.5902V7.23592C61.95 6.77272 62.0848 6.31297 62.3628 5.94169C62.4899 5.79642 62.648 5.6816 62.8253 5.60571C63.0025 5.52982 63.1943 5.49479 63.3868 5.50317C63.581 5.49563 63.7744 5.53038 63.9539 5.60506C64.1334 5.67974 64.2945 5.79257 64.4263 5.93575C64.7172 6.30474 64.8586 6.77038 64.822 7.23946V19.5939C64.8589 20.0637 64.7157 20.5299 64.4217 20.8976C64.2902 21.0399 64.1298 21.1523 63.9512 21.227C63.7726 21.3015 63.5802 21.3367 63.3868 21.3302C63.1954 21.3362 63.0048 21.299 62.8295 21.2215C62.6541 21.144 62.4982 21.0281 62.3734 20.8822C62.09 20.5141 61.9512 20.0543 61.9836 19.5902Z" fill="#CDE3FE"/>
<path d="M74.9302 19.7121C74.3225 20.2005 73.6529 20.606 72.9387 20.9174C72.253 21.1937 71.5195 21.3302 70.7806 21.3192C70.1156 21.3337 69.4572 21.1852 68.8624 20.8866C68.3373 20.6222 67.8963 20.2157 67.589 19.7132C67.2936 19.2298 67.1385 18.6733 67.1413 18.1062C67.1249 17.3718 67.389 16.6589 67.8796 16.1139C68.4205 15.5372 69.1313 15.1496 69.9077 15.0081C70.0881 14.9661 70.5354 14.8722 71.2496 14.726C71.9639 14.5799 72.5757 14.4458 73.0852 14.3242C73.5948 14.2025 74.1459 14.0549 74.7389 13.881C74.7541 13.2953 74.5968 12.7181 74.2865 12.2217C74.0671 12.0162 73.8049 11.8623 73.5188 11.7711C73.2328 11.6799 72.9301 11.6537 72.6328 11.6943C72.0738 11.6613 71.5152 11.765 71.0051 11.9965C70.6227 12.2162 70.3012 12.5282 70.0696 12.9044C69.8991 13.1794 69.715 13.4456 69.5179 13.702C69.4219 13.78 69.3109 13.8374 69.1918 13.8706C69.0727 13.9037 68.9482 13.9122 68.8257 13.8952C68.5214 13.9007 68.226 13.7906 67.9989 13.5869C67.886 13.49 67.7961 13.3689 67.7358 13.2326C67.6756 13.0962 67.6464 12.948 67.6504 12.7989C67.6617 12.2668 67.8482 11.7533 68.1808 11.3388C68.6164 10.8061 69.188 10.4024 69.8345 10.1702C70.729 9.83903 71.6786 9.68342 72.6316 9.71151C73.632 9.67109 74.6308 9.82149 75.5752 10.1548C76.2424 10.407 76.7853 10.9104 77.0883 11.558C77.414 12.3655 77.5646 13.2333 77.5301 14.1038C77.5301 14.7714 77.5301 15.3383 77.5301 15.8045C77.5301 16.2707 77.525 16.7891 77.5147 17.3595C77.5197 17.9278 77.6089 18.4922 77.7793 19.0341C77.9081 19.3971 77.9968 19.773 78.0439 20.1554C78.0386 20.3107 77.999 20.4629 77.9279 20.6011C77.8568 20.7393 77.756 20.8598 77.6328 20.9541C77.3777 21.1849 77.0457 21.3119 76.702 21.3097C76.3713 21.2919 76.061 21.1437 75.8386 20.8973C75.4887 20.5409 75.1836 20.1429 74.9302 19.7121ZM74.7436 15.5899C74.15 15.7912 73.544 15.9532 72.9293 16.0748C72.1355 16.2454 71.5842 16.3706 71.2756 16.4505C70.953 16.5411 70.6547 16.7032 70.4027 16.9245C70.2636 17.0444 70.1539 17.1946 70.0818 17.3638C70.0098 17.5329 69.9773 17.7162 69.9869 17.9C69.9845 18.108 70.0269 18.3141 70.1114 18.504C70.1958 18.6941 70.3201 18.8636 70.4759 19.001C70.8274 19.3132 71.2862 19.4759 71.7551 19.4549C72.2957 19.4598 72.8292 19.3324 73.3096 19.0838C73.7435 18.8752 74.1069 18.5435 74.355 18.1298C74.6602 17.4626 74.7927 16.7288 74.7401 15.9965L74.7436 15.5899Z" fill="#CDE3FE"/>
<path d="M82.7512 21.678L83.011 21.0416L79.5171 12.2144C79.3458 11.8676 79.2367 11.4932 79.1946 11.1085C79.1935 10.8696 79.2586 10.6349 79.3824 10.4307C79.5075 10.2213 79.6851 10.0485 79.8974 9.92935C80.1039 9.80704 80.3392 9.74197 80.579 9.74091C80.7529 9.72894 80.9272 9.75798 81.0879 9.826C81.2485 9.89392 81.391 9.99869 81.5038 10.132C81.7513 10.4706 81.938 10.8501 82.0555 11.2532L84.4581 18.2646L86.7354 11.7461C86.8739 11.3228 87.0371 10.9081 87.2245 10.5042C87.3226 10.2646 87.4824 10.0556 87.6875 9.89842C87.8987 9.78239 88.138 9.72823 88.3785 9.74209C88.5963 9.74269 88.8102 9.80206 88.9975 9.91383C89.1896 10.0235 89.3478 10.1843 89.4546 10.3784C89.5603 10.5662 89.6161 10.7781 89.6164 10.9936C89.5881 11.1256 89.5428 11.3132 89.4806 11.5566C89.4183 11.7999 89.3419 12.0468 89.2514 12.2974L85.5495 22.0218C85.3039 22.7224 84.9906 23.3972 84.6139 24.0365C84.3193 24.5135 83.9008 24.9012 83.4033 25.1578C82.7655 25.4463 82.0692 25.5802 81.3704 25.5488C80.7347 25.5801 80.099 25.488 79.4981 25.2774C79.3026 25.2005 79.1366 25.0629 79.0244 24.8846C78.9123 24.7064 78.8597 24.4968 78.8745 24.2866C78.866 24.1465 78.888 24.0063 78.9392 23.8757C78.9905 23.7451 79.0695 23.6271 79.171 23.5304C79.4209 23.3356 79.7341 23.2406 80.0498 23.2639C80.2012 23.2636 80.3518 23.2847 80.4975 23.3266C80.6521 23.3652 80.8106 23.3864 80.97 23.3895C81.2341 23.4019 81.4975 23.352 81.7389 23.2436C81.9493 23.1234 82.1235 22.9486 82.2433 22.7375C82.4389 22.3977 82.6088 22.0436 82.7512 21.678Z" fill="#CDE3FE"/>
<path d="M100.535 17.596C100.568 18.3174 100.365 19.0299 99.9563 19.6245C99.5478 20.2192 98.9564 20.6631 98.2726 20.8884C97.4009 21.1978 96.4801 21.3445 95.5558 21.3211C94.6592 21.3425 93.7675 21.1812 92.9347 20.8469C92.3036 20.6059 91.7476 20.2009 91.3236 19.6736C91.0016 19.2716 90.8191 18.7752 90.8038 18.2597C90.8016 18.1101 90.8302 17.9615 90.8875 17.8233C90.9448 17.6851 91.0297 17.5601 91.1369 17.4561C91.2471 17.3458 91.3787 17.2592 91.5235 17.2017C91.6684 17.1442 91.8234 17.117 91.979 17.1219C92.2272 17.1053 92.4724 17.1837 92.6653 17.3412C92.8497 17.5207 93.0041 17.7288 93.1225 17.9575C93.3704 18.4187 93.7298 18.81 94.1679 19.0952C94.6745 19.3696 95.2465 19.4996 95.8215 19.4709C96.314 19.4923 96.8013 19.3607 97.2166 19.0941C97.3734 19.0068 97.5056 18.8812 97.6011 18.7289C97.6964 18.5766 97.7519 18.4026 97.7622 18.2229C97.7771 18.0058 97.7321 17.7887 97.632 17.5955C97.532 17.4023 97.3809 17.2405 97.1953 17.1278C96.6073 16.8212 95.9789 16.5998 95.3289 16.4701C94.5142 16.2797 93.7163 16.0232 92.943 15.7032C92.377 15.4702 91.8729 15.1079 91.4712 14.645C91.0977 14.1907 90.9016 13.6157 90.9196 13.0271C90.9221 12.4484 91.1001 11.8841 91.4299 11.4093C91.8069 10.8705 92.3276 10.4491 92.9324 10.1933C93.6898 9.87201 94.5069 9.71723 95.3289 9.73939C95.9963 9.73157 96.6619 9.80884 97.3098 9.96932C97.8288 10.094 98.3242 10.3021 98.777 10.5856C99.1304 10.8062 99.4348 11.0975 99.6712 11.4414C99.8615 11.7106 99.9682 12.03 99.9783 12.3598C99.9829 12.5093 99.9562 12.6581 99.8998 12.7966C99.8435 12.935 99.7587 13.06 99.651 13.1635C99.3935 13.3858 99.0594 13.4982 98.7203 13.4763C98.451 13.4837 98.1877 13.3951 97.9773 13.2262C97.7177 13.0011 97.4826 12.7493 97.2757 12.4748C97.069 12.2041 96.8109 11.9773 96.5162 11.8075C96.1501 11.6242 95.7434 11.5381 95.3349 11.5575C94.8859 11.5404 94.4414 11.6545 94.0556 11.8859C93.9062 11.9649 93.7804 12.0825 93.6909 12.2263C93.6015 12.3701 93.5517 12.5352 93.5466 12.7047C93.5446 12.8487 93.5777 12.9911 93.643 13.1193C93.7082 13.2475 93.8036 13.3579 93.921 13.4407C94.226 13.6586 94.5677 13.8193 94.9298 13.9148C95.3527 14.0404 95.935 14.1934 96.6768 14.3736C97.425 14.5413 98.1498 14.8008 98.8349 15.1462C99.3338 15.3956 99.768 15.7579 100.103 16.2046C100.39 16.6109 100.541 17.0981 100.535 17.596Z" fill="#CDE3FE"/>
<path d="M110.113 19.712C109.505 20.2007 108.835 20.606 108.121 20.9175C107.436 21.1938 106.702 21.3303 105.963 21.3193C105.298 21.3337 104.64 21.1852 104.045 20.8867C103.52 20.6221 103.079 20.2156 102.772 19.7132C102.476 19.2298 102.321 18.6732 102.324 18.1062C102.308 17.3719 102.572 16.659 103.062 16.1138C103.603 15.5371 104.314 15.1495 105.09 15.008C105.271 14.9662 105.718 14.8722 106.432 14.7261C107.146 14.5798 107.758 14.4459 108.268 14.3242C108.777 14.2025 109.329 14.0548 109.921 13.881C109.937 13.2952 109.78 12.7179 109.469 12.2217C109.25 12.0163 108.987 11.8623 108.701 11.7711C108.415 11.6799 108.113 11.6536 107.815 11.6943C107.256 11.6613 106.698 11.765 106.188 11.9965C105.805 12.2163 105.484 12.5284 105.252 12.9043C105.082 13.1794 104.898 13.4456 104.7 13.7021C104.605 13.7798 104.494 13.8371 104.375 13.8704C104.256 13.9036 104.132 13.912 104.01 13.8951C103.705 13.9005 103.41 13.7905 103.183 13.587C103.07 13.4899 102.98 13.3689 102.92 13.2325C102.859 13.0962 102.83 12.9479 102.834 12.7988C102.845 12.2668 103.032 11.7534 103.365 11.3387C103.8 10.8063 104.372 10.4024 105.018 10.1701C105.913 9.83908 106.862 9.68335 107.815 9.71144C108.815 9.67126 109.814 9.82166 110.758 10.1547C111.425 10.407 111.968 10.9104 112.271 11.558C112.596 12.3655 112.747 13.2333 112.713 14.1037C112.713 14.7715 112.713 15.3383 112.713 15.8045C112.713 16.2707 112.707 16.789 112.697 17.3594C112.703 17.9279 112.792 18.4922 112.963 19.0341C113.092 19.397 113.18 19.7731 113.228 20.1554C113.222 20.3108 113.183 20.463 113.112 20.6012C113.041 20.7392 112.94 20.8598 112.817 20.9541C112.561 21.185 112.229 21.3119 111.886 21.3098C111.555 21.2919 111.245 21.1436 111.022 20.8972C110.672 20.5411 110.366 20.143 110.113 19.712ZM109.926 15.59C109.333 15.7912 108.727 15.9532 108.112 16.0748C107.318 16.2455 106.767 16.3706 106.458 16.4504C106.135 16.541 105.837 16.703 105.584 16.9245C105.445 17.0444 105.335 17.1947 105.263 17.3638C105.191 17.5328 105.159 17.7163 105.168 17.8999C105.166 18.108 105.208 18.3141 105.293 18.5041C105.377 18.6942 105.502 18.8637 105.657 19.001C106.009 19.3131 106.468 19.4758 106.936 19.455C107.477 19.4597 108.011 19.3323 108.491 19.0839C108.925 18.8752 109.288 18.5434 109.536 18.1298C109.842 17.4626 109.974 16.7288 109.921 15.9965L109.926 15.59Z" fill="#CDE3FE"/>
<defs>
<radialGradient id="paint0_radial_1498_563" cx="0" cy="0" r="1" gradientUnits="userSpaceOnUse" gradientTransform="translate(17.453 12.3036) rotate(180) scale(11.6311 11.6311)">
<stop offset="0.33" stop-color="#004AB3"/>
<stop offset="0.78" stop-color="#0673F7"/>
</radialGradient>
</defs>
</svg>
