<svg width="250" height="30" viewBox="0 0 250 30" fill="none" xmlns="http://www.w3.org/2000/svg">
<path d="M22 0H8C3.58172 0 0 3.58172 0 8V22C0 26.4183 3.58172 30 8 30H22C26.4183 30 30 26.4183 30 22V8C30 3.58172 26.4183 0 22 0Z" fill="white"/>
<path d="M133.234 17.4785H135.109C135.012 18.377 134.755 19.181 134.338 19.8906C133.921 20.6003 133.332 21.1634 132.57 21.5801C131.809 21.9902 130.858 22.1953 129.719 22.1953C128.885 22.1953 128.127 22.0391 127.443 21.7266C126.766 21.4141 126.184 20.9714 125.695 20.3984C125.207 19.819 124.829 19.1257 124.562 18.3184C124.302 17.5046 124.172 16.5996 124.172 15.6035V14.1875C124.172 13.1914 124.302 12.2897 124.562 11.4824C124.829 10.6686 125.21 9.97201 125.705 9.39258C126.206 8.81315 126.809 8.36719 127.512 8.05469C128.215 7.74219 129.006 7.58594 129.885 7.58594C130.959 7.58594 131.867 7.78776 132.609 8.19141C133.352 8.59505 133.928 9.15495 134.338 9.87109C134.755 10.5807 135.012 11.4043 135.109 12.3418H133.234C133.143 11.6777 132.974 11.1081 132.727 10.6328C132.479 10.151 132.128 9.77995 131.672 9.51953C131.216 9.25911 130.62 9.12891 129.885 9.12891C129.253 9.12891 128.697 9.24935 128.215 9.49023C127.74 9.73112 127.339 10.0729 127.014 10.5156C126.695 10.9583 126.454 11.4889 126.291 12.1074C126.128 12.7259 126.047 13.4128 126.047 14.168V15.6035C126.047 16.3001 126.118 16.9544 126.262 17.5664C126.411 18.1784 126.636 18.7155 126.936 19.1777C127.235 19.64 127.616 20.0046 128.078 20.2715C128.54 20.5319 129.087 20.6621 129.719 20.6621C130.52 20.6621 131.158 20.5352 131.633 20.2812C132.108 20.0273 132.466 19.6628 132.707 19.1875C132.954 18.7122 133.13 18.1426 133.234 17.4785ZM139.211 7V22H137.404V7H139.211ZM138.781 16.3164L138.029 16.2871C138.036 15.5645 138.143 14.8971 138.352 14.2852C138.56 13.6667 138.853 13.1296 139.23 12.6738C139.608 12.2181 140.057 11.8665 140.578 11.6191C141.105 11.3652 141.688 11.2383 142.326 11.2383C142.847 11.2383 143.316 11.3099 143.732 11.4531C144.149 11.5898 144.504 11.8112 144.797 12.1172C145.096 12.4232 145.324 12.8203 145.48 13.3086C145.637 13.7904 145.715 14.3796 145.715 15.0762V22H143.898V15.0566C143.898 14.5033 143.817 14.0605 143.654 13.7285C143.492 13.39 143.254 13.1458 142.941 12.9961C142.629 12.8398 142.245 12.7617 141.789 12.7617C141.34 12.7617 140.93 12.8561 140.559 13.0449C140.194 13.2337 139.878 13.4941 139.611 13.8262C139.351 14.1582 139.146 14.5391 138.996 14.9688C138.853 15.3919 138.781 15.8411 138.781 16.3164ZM154.65 20.1934V14.7539C154.65 14.3372 154.566 13.9759 154.396 13.6699C154.234 13.3574 153.986 13.1165 153.654 12.9473C153.322 12.778 152.912 12.6934 152.424 12.6934C151.968 12.6934 151.568 12.7715 151.223 12.9277C150.884 13.084 150.617 13.2891 150.422 13.543C150.233 13.7969 150.139 14.0703 150.139 14.3633H148.332C148.332 13.9857 148.43 13.6113 148.625 13.2402C148.82 12.8691 149.1 12.5339 149.465 12.2344C149.836 11.9284 150.279 11.6875 150.793 11.5117C151.314 11.3294 151.893 11.2383 152.531 11.2383C153.299 11.2383 153.977 11.3685 154.562 11.6289C155.155 11.8893 155.617 12.2832 155.949 12.8105C156.288 13.3314 156.457 13.9857 156.457 14.7734V19.6953C156.457 20.0469 156.486 20.4212 156.545 20.8184C156.61 21.2155 156.704 21.5573 156.828 21.8438V22H154.943C154.852 21.7917 154.781 21.515 154.729 21.1699C154.676 20.8184 154.65 20.4928 154.65 20.1934ZM154.963 15.5938L154.982 16.8633H153.156C152.642 16.8633 152.183 16.9056 151.779 16.9902C151.376 17.0684 151.037 17.1888 150.764 17.3516C150.49 17.5143 150.282 17.7194 150.139 17.9668C149.995 18.2077 149.924 18.4909 149.924 18.8164C149.924 19.1484 149.999 19.4512 150.148 19.7246C150.298 19.998 150.523 20.2161 150.822 20.3789C151.128 20.5352 151.503 20.6133 151.945 20.6133C152.499 20.6133 152.987 20.4961 153.41 20.2617C153.833 20.0273 154.169 19.7409 154.416 19.4023C154.67 19.0638 154.807 18.735 154.826 18.416L155.598 19.2852C155.552 19.5586 155.428 19.8613 155.227 20.1934C155.025 20.5254 154.755 20.8444 154.416 21.1504C154.084 21.4499 153.687 21.7005 153.225 21.9023C152.769 22.0977 152.255 22.1953 151.682 22.1953C150.965 22.1953 150.337 22.0553 149.797 21.7754C149.263 21.4954 148.846 21.1211 148.547 20.6523C148.254 20.1771 148.107 19.6465 148.107 19.0605C148.107 18.4941 148.218 17.9961 148.439 17.5664C148.661 17.1302 148.98 16.7689 149.396 16.4824C149.813 16.1895 150.314 15.9681 150.9 15.8184C151.486 15.6686 152.141 15.5938 152.863 15.5938H154.963ZM163.723 11.4336V12.8203H158.01V11.4336H163.723ZM159.943 8.86523H161.75V19.3828C161.75 19.7409 161.805 20.0111 161.916 20.1934C162.027 20.3757 162.17 20.4961 162.346 20.5547C162.521 20.6133 162.71 20.6426 162.912 20.6426C163.062 20.6426 163.218 20.6296 163.381 20.6035C163.55 20.571 163.677 20.5449 163.762 20.5254L163.771 22C163.628 22.0456 163.439 22.0879 163.205 22.127C162.977 22.1725 162.701 22.1953 162.375 22.1953C161.932 22.1953 161.525 22.1074 161.154 21.9316C160.783 21.7559 160.487 21.4629 160.266 21.0527C160.051 20.6361 159.943 20.0762 159.943 19.373V8.86523ZM165.832 7H167.648V19.9492L167.492 22H165.832V7ZM174.787 16.6289V16.834C174.787 17.6022 174.696 18.3151 174.514 18.9727C174.331 19.6237 174.064 20.1901 173.713 20.6719C173.361 21.1536 172.932 21.528 172.424 21.7949C171.916 22.0618 171.333 22.1953 170.676 22.1953C170.005 22.1953 169.416 22.0814 168.908 21.8535C168.407 21.6191 167.984 21.2839 167.639 20.8477C167.294 20.4115 167.017 19.8841 166.809 19.2656C166.607 18.6471 166.467 17.9505 166.389 17.1758V16.2773C166.467 15.4961 166.607 14.7962 166.809 14.1777C167.017 13.5592 167.294 13.0319 167.639 12.5957C167.984 12.153 168.407 11.8177 168.908 11.5898C169.41 11.3555 169.992 11.2383 170.656 11.2383C171.32 11.2383 171.91 11.3685 172.424 11.6289C172.938 11.8828 173.368 12.2474 173.713 12.7227C174.064 13.1979 174.331 13.7676 174.514 14.4316C174.696 15.0892 174.787 15.8216 174.787 16.6289ZM172.971 16.834V16.6289C172.971 16.1016 172.922 15.6068 172.824 15.1445C172.727 14.6758 172.57 14.2656 172.355 13.9141C172.141 13.556 171.857 13.276 171.506 13.0742C171.154 12.8659 170.721 12.7617 170.207 12.7617C169.751 12.7617 169.354 12.8398 169.016 12.9961C168.684 13.1523 168.4 13.3639 168.166 13.6309C167.932 13.8913 167.74 14.1908 167.59 14.5293C167.447 14.8613 167.339 15.2064 167.268 15.5645V17.918C167.372 18.3737 167.541 18.8132 167.775 19.2363C168.016 19.653 168.335 19.9948 168.732 20.2617C169.136 20.5286 169.634 20.6621 170.227 20.6621C170.715 20.6621 171.132 20.5645 171.477 20.3691C171.828 20.1673 172.111 19.8906 172.326 19.5391C172.548 19.1875 172.71 18.7806 172.814 18.3184C172.919 17.8561 172.971 17.3613 172.971 16.834ZM176.594 16.834V16.6094C176.594 15.8477 176.704 15.1413 176.926 14.4902C177.147 13.8327 177.466 13.263 177.883 12.7812C178.299 12.293 178.804 11.9154 179.396 11.6484C179.989 11.375 180.653 11.2383 181.389 11.2383C182.131 11.2383 182.798 11.375 183.391 11.6484C183.99 11.9154 184.497 12.293 184.914 12.7812C185.337 13.263 185.66 13.8327 185.881 14.4902C186.102 15.1413 186.213 15.8477 186.213 16.6094V16.834C186.213 17.5957 186.102 18.3021 185.881 18.9531C185.66 19.6042 185.337 20.1738 184.914 20.6621C184.497 21.1439 183.993 21.5215 183.4 21.7949C182.814 22.0618 182.15 22.1953 181.408 22.1953C180.666 22.1953 179.999 22.0618 179.406 21.7949C178.814 21.5215 178.306 21.1439 177.883 20.6621C177.466 20.1738 177.147 19.6042 176.926 18.9531C176.704 18.3021 176.594 17.5957 176.594 16.834ZM178.4 16.6094V16.834C178.4 17.3613 178.462 17.8594 178.586 18.3281C178.71 18.7904 178.895 19.2005 179.143 19.5586C179.396 19.9167 179.712 20.1999 180.09 20.4082C180.467 20.61 180.907 20.7109 181.408 20.7109C181.903 20.7109 182.336 20.61 182.707 20.4082C183.085 20.1999 183.397 19.9167 183.645 19.5586C183.892 19.2005 184.077 18.7904 184.201 18.3281C184.331 17.8594 184.396 17.3613 184.396 16.834V16.6094C184.396 16.0885 184.331 15.597 184.201 15.1348C184.077 14.666 183.889 14.2526 183.635 13.8945C183.387 13.5299 183.075 13.2435 182.697 13.0352C182.326 12.8268 181.89 12.7227 181.389 12.7227C180.894 12.7227 180.458 12.8268 180.08 13.0352C179.709 13.2435 179.396 13.5299 179.143 13.8945C178.895 14.2526 178.71 14.666 178.586 15.1348C178.462 15.597 178.4 16.0885 178.4 16.6094ZM188 16.834V16.6094C188 15.8477 188.111 15.1413 188.332 14.4902C188.553 13.8327 188.872 13.263 189.289 12.7812C189.706 12.293 190.21 11.9154 190.803 11.6484C191.395 11.375 192.059 11.2383 192.795 11.2383C193.537 11.2383 194.204 11.375 194.797 11.6484C195.396 11.9154 195.904 12.293 196.32 12.7812C196.743 13.263 197.066 13.8327 197.287 14.4902C197.508 15.1413 197.619 15.8477 197.619 16.6094V16.834C197.619 17.5957 197.508 18.3021 197.287 18.9531C197.066 19.6042 196.743 20.1738 196.32 20.6621C195.904 21.1439 195.399 21.5215 194.807 21.7949C194.221 22.0618 193.557 22.1953 192.814 22.1953C192.072 22.1953 191.405 22.0618 190.812 21.7949C190.22 21.5215 189.712 21.1439 189.289 20.6621C188.872 20.1738 188.553 19.6042 188.332 18.9531C188.111 18.3021 188 17.5957 188 16.834ZM189.807 16.6094V16.834C189.807 17.3613 189.868 17.8594 189.992 18.3281C190.116 18.7904 190.301 19.2005 190.549 19.5586C190.803 19.9167 191.118 20.1999 191.496 20.4082C191.874 20.61 192.313 20.7109 192.814 20.7109C193.309 20.7109 193.742 20.61 194.113 20.4082C194.491 20.1999 194.803 19.9167 195.051 19.5586C195.298 19.2005 195.484 18.7904 195.607 18.3281C195.738 17.8594 195.803 17.3613 195.803 16.834V16.6094C195.803 16.0885 195.738 15.597 195.607 15.1348C195.484 14.666 195.295 14.2526 195.041 13.8945C194.794 13.5299 194.481 13.2435 194.104 13.0352C193.732 12.8268 193.296 12.7227 192.795 12.7227C192.3 12.7227 191.864 12.8268 191.486 13.0352C191.115 13.2435 190.803 13.5299 190.549 13.8945C190.301 14.2526 190.116 14.666 189.992 15.1348C189.868 15.597 189.807 16.0885 189.807 16.6094ZM201.701 7V22H199.885V7H201.701ZM208.156 11.4336L203.547 16.3652L200.969 19.041L200.822 17.1172L202.668 14.9102L205.949 11.4336H208.156ZM206.506 22L202.736 16.9609L203.674 15.3496L208.635 22H206.506ZM216.174 19.1973C216.174 18.9368 216.115 18.696 215.998 18.4746C215.887 18.2467 215.656 18.0417 215.305 17.8594C214.96 17.6706 214.439 17.5078 213.742 17.3711C213.156 17.2474 212.626 17.1009 212.15 16.9316C211.682 16.7624 211.281 16.5573 210.949 16.3164C210.624 16.0755 210.373 15.7923 210.197 15.4668C210.021 15.1413 209.934 14.7604 209.934 14.3242C209.934 13.9076 210.025 13.5137 210.207 13.1426C210.396 12.7715 210.66 12.4427 210.998 12.1562C211.343 11.8698 211.757 11.6452 212.238 11.4824C212.72 11.3197 213.257 11.2383 213.85 11.2383C214.696 11.2383 215.419 11.388 216.018 11.6875C216.617 11.987 217.076 12.3874 217.395 12.8887C217.714 13.3835 217.873 13.9336 217.873 14.5391H216.066C216.066 14.2461 215.979 13.9629 215.803 13.6895C215.633 13.4095 215.383 13.1784 215.051 12.9961C214.725 12.8138 214.325 12.7227 213.85 12.7227C213.348 12.7227 212.941 12.8008 212.629 12.957C212.323 13.1068 212.098 13.2988 211.955 13.5332C211.818 13.7676 211.75 14.015 211.75 14.2754C211.75 14.4707 211.783 14.6465 211.848 14.8027C211.919 14.9525 212.043 15.0924 212.219 15.2227C212.395 15.3464 212.642 15.4635 212.961 15.5742C213.28 15.6849 213.687 15.7956 214.182 15.9062C215.048 16.1016 215.76 16.3359 216.32 16.6094C216.88 16.8828 217.297 17.2181 217.57 17.6152C217.844 18.0124 217.98 18.4941 217.98 19.0605C217.98 19.5228 217.883 19.946 217.688 20.3301C217.499 20.7142 217.222 21.0462 216.857 21.3262C216.499 21.5996 216.07 21.8145 215.568 21.9707C215.074 22.1204 214.517 22.1953 213.898 22.1953C212.967 22.1953 212.18 22.0293 211.535 21.6973C210.891 21.3652 210.402 20.9355 210.07 20.4082C209.738 19.8809 209.572 19.3242 209.572 18.7383H211.389C211.415 19.2331 211.558 19.627 211.818 19.9199C212.079 20.2064 212.398 20.4115 212.775 20.5352C213.153 20.6523 213.527 20.7109 213.898 20.7109C214.393 20.7109 214.807 20.6458 215.139 20.5156C215.477 20.3854 215.734 20.2064 215.91 19.9785C216.086 19.7507 216.174 19.4902 216.174 19.1973Z" fill="white"/>
<path d="M50.8459 19.8288L50.1182 17.9088H43.9204L43.1928 19.8703C43.0157 20.4152 42.7714 20.9356 42.4652 21.4194C42.3447 21.5609 42.1921 21.6712 42.0202 21.7411C41.8484 21.8111 41.6623 21.8384 41.4777 21.8211C41.2863 21.8216 41.0968 21.7842 40.92 21.7107C40.7432 21.6372 40.5827 21.5293 40.4477 21.3933C40.3089 21.2725 40.1973 21.1235 40.12 20.9562C40.0429 20.7888 40.002 20.607 40 20.4226C40.0017 20.2029 40.0367 19.9847 40.1039 19.7755C40.1733 19.5535 40.2879 19.2438 40.4477 18.8463L44.3457 8.91333L44.7461 7.88577C44.8765 7.5365 45.044 7.20231 45.2457 6.88903C45.4243 6.62279 45.6632 6.40269 45.9427 6.24666C46.2699 6.07393 46.6361 5.98939 47.0057 6.00132C47.3796 5.9882 47.7504 6.07274 48.0818 6.24666C48.3593 6.40092 48.5977 6.61708 48.7787 6.87839C48.957 7.13817 49.107 7.41626 49.2264 7.70799C49.3477 8.00351 49.502 8.39856 49.6894 8.89318L53.6725 18.7634C53.9229 19.278 54.0828 19.832 54.145 20.4013C54.1412 20.5855 54.1001 20.7669 54.0241 20.9346C53.9482 21.1023 53.839 21.2527 53.7032 21.3767C53.5655 21.5194 53.4001 21.6323 53.2172 21.7085C53.0345 21.7848 52.8381 21.8227 52.6401 21.82C52.4249 21.8259 52.2113 21.7812 52.0164 21.6896C51.8462 21.6052 51.6969 21.4837 51.5794 21.334C51.4257 21.1207 51.2984 20.8896 51.2002 20.6456C51.0617 20.3381 50.9435 20.0659 50.8459 19.8288ZM44.7307 15.5823H49.2855L46.9868 9.27007L44.7307 15.5823Z" fill="white"/>
<path d="M57.6472 8.91416C57.2759 8.92286 56.9148 8.79274 56.6338 8.54912C56.5002 8.41603 56.3942 8.25757 56.3224 8.08301C56.2505 7.90844 56.214 7.72125 56.2149 7.53237C56.216 7.34349 56.2544 7.15669 56.3282 6.98289C56.4019 6.80909 56.5094 6.65174 56.6444 6.52007C56.9166 6.26524 57.2761 6.12522 57.6485 6.12898C58.006 6.12589 58.3528 6.25208 58.6253 6.48452C58.7705 6.61249 58.8845 6.77226 58.9584 6.95146C59.0324 7.13065 59.0643 7.32448 59.0517 7.51801C59.062 7.70942 59.03 7.90076 58.9582 8.07837C58.8862 8.25598 58.7763 8.4155 58.6359 8.54557C58.3647 8.78958 58.0114 8.92131 57.6472 8.91416ZM59.0504 11.857V20.0893C59.0847 20.5567 58.9399 21.0196 58.6454 21.3835C58.5151 21.5265 58.3558 21.6397 58.178 21.7153C58.0002 21.7911 57.8084 21.8275 57.6154 21.822C57.4237 21.8279 57.2331 21.7906 57.0577 21.7128C56.8823 21.6351 56.7265 21.519 56.6018 21.3728C56.3203 21.007 56.1817 20.5505 56.2121 20.0893V11.9399C56.178 11.4816 56.3171 11.0271 56.6018 10.667C56.7298 10.5264 56.8867 10.4153 57.0617 10.3414C57.2367 10.2675 57.4256 10.2327 57.6154 10.2392C57.8074 10.2335 57.9984 10.2687 58.176 10.3424C58.3535 10.4161 58.5136 10.5268 58.6454 10.667C58.9308 10.995 59.0763 11.4224 59.0504 11.857Z" fill="white"/>
<path d="M61.9836 20.0902V7.73592C61.95 7.27271 62.0848 6.81297 62.3628 6.44169C62.4899 6.29642 62.648 6.1816 62.8253 6.10571C63.0025 6.02982 63.1943 5.99479 63.3868 6.00317C63.581 5.99563 63.7744 6.03038 63.9539 6.10506C64.1334 6.17974 64.2945 6.29257 64.4263 6.43575C64.7172 6.80474 64.8586 7.27038 64.822 7.73946V20.0939C64.8589 20.5637 64.7157 21.0299 64.4217 21.3976C64.2902 21.5399 64.1298 21.6523 63.9512 21.727C63.7726 21.8015 63.5802 21.8367 63.3868 21.8302C63.1954 21.8362 63.0048 21.799 62.8295 21.7215C62.6541 21.644 62.4982 21.5281 62.3734 21.3822C62.09 21.0141 61.9512 20.5543 61.9836 20.0902Z" fill="white"/>
<path d="M74.9302 20.2121C74.3225 20.7005 73.6529 21.106 72.9387 21.4174C72.253 21.6937 71.5195 21.8302 70.7806 21.8192C70.1156 21.8337 69.4572 21.6852 68.8624 21.3866C68.3373 21.1222 67.8963 20.7157 67.589 20.2132C67.2936 19.7298 67.1385 19.1733 67.1413 18.6062C67.1249 17.8718 67.389 17.1589 67.8796 16.6139C68.4205 16.0372 69.1313 15.6496 69.9077 15.5081C70.0881 15.4661 70.5354 15.3722 71.2496 15.226C71.9639 15.0799 72.5757 14.9458 73.0852 14.8242C73.5948 14.7025 74.1459 14.5549 74.7389 14.381C74.7541 13.7953 74.5968 13.2181 74.2865 12.7217C74.0671 12.5162 73.8049 12.3623 73.5188 12.2711C73.2328 12.1799 72.9301 12.1537 72.6328 12.1943C72.0738 12.1613 71.5152 12.265 71.0051 12.4965C70.6227 12.7162 70.3012 13.0282 70.0696 13.4044C69.8991 13.6794 69.715 13.9456 69.5179 14.202C69.4219 14.28 69.3109 14.3374 69.1918 14.3706C69.0727 14.4037 68.9482 14.4122 68.8257 14.3952C68.5214 14.4007 68.226 14.2906 67.9989 14.0869C67.886 13.99 67.7961 13.8689 67.7358 13.7326C67.6756 13.5962 67.6464 13.448 67.6504 13.2989C67.6617 12.7668 67.8482 12.2533 68.1808 11.8388C68.6164 11.3061 69.188 10.9024 69.8345 10.6702C70.729 10.339 71.6786 10.1834 72.6316 10.2115C73.632 10.1711 74.6308 10.3215 75.5752 10.6548C76.2424 10.907 76.7853 11.4104 77.0883 12.058C77.414 12.8655 77.5646 13.7333 77.5301 14.6038C77.5301 15.2714 77.5301 15.8383 77.5301 16.3045C77.5301 16.7707 77.525 17.2891 77.5147 17.8595C77.5197 18.4278 77.6089 18.9922 77.7793 19.5341C77.9081 19.8971 77.9968 20.273 78.0439 20.6554C78.0386 20.8107 77.999 20.9629 77.9279 21.1011C77.8568 21.2393 77.756 21.3598 77.6328 21.4541C77.3777 21.6849 77.0457 21.8119 76.702 21.8097C76.3713 21.7919 76.061 21.6437 75.8386 21.3973C75.4887 21.0409 75.1836 20.6429 74.9302 20.2121ZM74.7436 16.0899C74.15 16.2912 73.544 16.4532 72.9293 16.5748C72.1355 16.7454 71.5842 16.8706 71.2756 16.9505C70.953 17.0411 70.6547 17.2032 70.4027 17.4245C70.2636 17.5444 70.1539 17.6946 70.0818 17.8638C70.0098 18.0329 69.9773 18.2162 69.9869 18.4C69.9845 18.608 70.0269 18.8141 70.1114 19.004C70.1958 19.1941 70.3201 19.3636 70.4759 19.501C70.8274 19.8132 71.2862 19.9759 71.7551 19.9549C72.2957 19.9598 72.8292 19.8324 73.3096 19.5838C73.7435 19.3752 74.1069 19.0435 74.355 18.6298C74.6602 17.9626 74.7927 17.2288 74.7401 16.4965L74.7436 16.0899Z" fill="white"/>
<path d="M82.7512 22.178L83.011 21.5416L79.5171 12.7144C79.3458 12.3676 79.2367 11.9932 79.1946 11.6085C79.1935 11.3696 79.2586 11.1349 79.3824 10.9307C79.5075 10.7213 79.6851 10.5485 79.8974 10.4294C80.1039 10.307 80.3392 10.242 80.579 10.2409C80.7529 10.2289 80.9272 10.258 81.0879 10.326C81.2485 10.3939 81.391 10.4987 81.5038 10.632C81.7513 10.9706 81.938 11.3501 82.0555 11.7532L84.4581 18.7646L86.7354 12.2461C86.8739 11.8228 87.0371 11.4081 87.2245 11.0042C87.3226 10.7646 87.4824 10.5556 87.6875 10.3984C87.8987 10.2824 88.138 10.2282 88.3785 10.2421C88.5963 10.2427 88.8102 10.3021 88.9975 10.4138C89.1896 10.5235 89.3478 10.6843 89.4546 10.8784C89.5603 11.0662 89.6161 11.2781 89.6164 11.4936C89.5881 11.6256 89.5428 11.8132 89.4806 12.0566C89.4183 12.2999 89.3419 12.5468 89.2514 12.7974L85.5495 22.5218C85.3039 23.2224 84.9906 23.8972 84.6139 24.5365C84.3193 25.0135 83.9008 25.4012 83.4033 25.6578C82.7655 25.9463 82.0692 26.0802 81.3704 26.0488C80.7347 26.0801 80.099 25.988 79.4981 25.7774C79.3026 25.7005 79.1366 25.5629 79.0244 25.3846C78.9123 25.2064 78.8597 24.9968 78.8745 24.7866C78.866 24.6465 78.888 24.5063 78.9392 24.3757C78.9905 24.2451 79.0695 24.1271 79.171 24.0304C79.4209 23.8356 79.7341 23.7406 80.0498 23.7639C80.2012 23.7636 80.3518 23.7847 80.4975 23.8266C80.6521 23.8652 80.8106 23.8864 80.97 23.8895C81.2341 23.9019 81.4975 23.852 81.7389 23.7436C81.9493 23.6234 82.1235 23.4486 82.2433 23.2375C82.4389 22.8977 82.6088 22.5436 82.7512 22.178Z" fill="white"/>
<path d="M100.535 18.096C100.568 18.8174 100.365 19.5299 99.9563 20.1245C99.5478 20.7192 98.9564 21.1631 98.2726 21.3884C97.4009 21.6978 96.4801 21.8445 95.5558 21.8211C94.6592 21.8425 93.7675 21.6812 92.9347 21.3469C92.3036 21.1059 91.7476 20.7009 91.3236 20.1736C91.0016 19.7716 90.8191 19.2752 90.8038 18.7597C90.8016 18.6101 90.8302 18.4615 90.8875 18.3233C90.9448 18.1851 91.0297 18.0601 91.1369 17.9561C91.2471 17.8458 91.3787 17.7592 91.5235 17.7017C91.6684 17.6442 91.8234 17.617 91.979 17.6219C92.2272 17.6053 92.4724 17.6837 92.6653 17.8412C92.8497 18.0207 93.0041 18.2288 93.1225 18.4575C93.3704 18.9187 93.7298 19.31 94.1679 19.5952C94.6745 19.8696 95.2465 19.9996 95.8215 19.9709C96.314 19.9923 96.8013 19.8607 97.2166 19.5941C97.3734 19.5068 97.5056 19.3812 97.6011 19.2289C97.6964 19.0766 97.7519 18.9026 97.7622 18.7229C97.7771 18.5058 97.7321 18.2887 97.632 18.0955C97.532 17.9023 97.3809 17.7405 97.1953 17.6278C96.6073 17.3212 95.9789 17.0998 95.3289 16.9701C94.5142 16.7797 93.7163 16.5232 92.943 16.2032C92.377 15.9702 91.8729 15.6079 91.4712 15.145C91.0977 14.6907 90.9016 14.1157 90.9196 13.5271C90.9221 12.9484 91.1001 12.3841 91.4299 11.9093C91.8069 11.3705 92.3276 10.9491 92.9324 10.6933C93.6898 10.372 94.5069 10.2172 95.3289 10.2394C95.9963 10.2316 96.6619 10.3088 97.3098 10.4693C97.8288 10.594 98.3242 10.8021 98.777 11.0856C99.1304 11.3062 99.4348 11.5975 99.6712 11.9414C99.8615 12.2106 99.9682 12.53 99.9783 12.8598C99.9829 13.0093 99.9562 13.1581 99.8998 13.2966C99.8435 13.435 99.7587 13.56 99.651 13.6635C99.3935 13.8858 99.0594 13.9982 98.7203 13.9763C98.451 13.9837 98.1877 13.8951 97.9773 13.7262C97.7177 13.5011 97.4826 13.2493 97.2757 12.9748C97.069 12.7041 96.8109 12.4773 96.5162 12.3075C96.1501 12.1242 95.7434 12.0381 95.3349 12.0575C94.8859 12.0404 94.4414 12.1545 94.0556 12.3859C93.9062 12.4649 93.7804 12.5825 93.6909 12.7263C93.6015 12.8701 93.5517 13.0352 93.5466 13.2047C93.5446 13.3487 93.5777 13.4911 93.643 13.6193C93.7082 13.7475 93.8036 13.8579 93.921 13.9407C94.226 14.1586 94.5677 14.3193 94.9298 14.4148C95.3527 14.5404 95.935 14.6934 96.6768 14.8736C97.425 15.0413 98.1498 15.3008 98.8349 15.6462C99.3338 15.8956 99.768 16.2579 100.103 16.7046C100.39 17.1109 100.541 17.5981 100.535 18.096Z" fill="white"/>
<path d="M110.113 20.212C109.505 20.7007 108.835 21.106 108.121 21.4175C107.436 21.6938 106.702 21.8303 105.963 21.8193C105.298 21.8337 104.64 21.6852 104.045 21.3867C103.52 21.1221 103.079 20.7156 102.772 20.2132C102.476 19.7298 102.321 19.1732 102.324 18.6062C102.308 17.8719 102.572 17.159 103.062 16.6138C103.603 16.0371 104.314 15.6495 105.09 15.508C105.271 15.4662 105.718 15.3722 106.432 15.2261C107.146 15.0798 107.758 14.9459 108.268 14.8242C108.777 14.7025 109.329 14.5548 109.921 14.381C109.937 13.7952 109.78 13.2179 109.469 12.7217C109.25 12.5163 108.987 12.3623 108.701 12.2711C108.415 12.1799 108.113 12.1536 107.815 12.1943C107.256 12.1613 106.698 12.265 106.188 12.4965C105.805 12.7163 105.484 13.0284 105.252 13.4043C105.082 13.6794 104.898 13.9456 104.7 14.2021C104.605 14.2798 104.494 14.3371 104.375 14.3704C104.256 14.4036 104.132 14.412 104.01 14.3951C103.705 14.4005 103.41 14.2905 103.183 14.087C103.07 13.9899 102.98 13.8689 102.92 13.7325C102.859 13.5962 102.83 13.4479 102.834 13.2988C102.845 12.7668 103.032 12.2534 103.365 11.8387C103.8 11.3063 104.372 10.9024 105.018 10.6701C105.913 10.3391 106.862 10.1834 107.815 10.2114C108.815 10.1713 109.814 10.3217 110.758 10.6547C111.425 10.907 111.968 11.4104 112.271 12.058C112.596 12.8655 112.747 13.7333 112.713 14.6037C112.713 15.2715 112.713 15.8383 112.713 16.3045C112.713 16.7707 112.707 17.289 112.697 17.8594C112.703 18.4279 112.792 18.9922 112.963 19.5341C113.092 19.897 113.18 20.2731 113.228 20.6554C113.222 20.8108 113.183 20.963 113.112 21.1012C113.041 21.2392 112.94 21.3598 112.817 21.4541C112.561 21.685 112.229 21.8119 111.886 21.8098C111.555 21.7919 111.245 21.6436 111.022 21.3972C110.672 21.0411 110.366 20.643 110.113 20.212ZM109.926 16.09C109.333 16.2912 108.727 16.4532 108.112 16.5748C107.318 16.7455 106.767 16.8706 106.458 16.9504C106.135 17.041 105.837 17.203 105.584 17.4245C105.445 17.5444 105.335 17.6947 105.263 17.8638C105.191 18.0328 105.159 18.2163 105.168 18.3999C105.166 18.608 105.208 18.8141 105.293 19.0041C105.377 19.1942 105.502 19.3637 105.657 19.501C106.009 19.8131 106.468 19.9758 106.936 19.955C107.477 19.9597 108.011 19.8323 108.491 19.5839C108.925 19.3752 109.288 19.0434 109.536 18.6298C109.842 17.9626 109.974 17.2288 109.921 16.4965L109.926 16.09Z" fill="white"/>
<path d="M227.367 7.67725H225.025L225.012 6.69336H227.139C227.49 6.69336 227.797 6.63411 228.059 6.51562C228.321 6.39714 228.525 6.22786 228.668 6.00781C228.817 5.78353 228.891 5.51693 228.891 5.20801C228.891 4.86947 228.825 4.5944 228.694 4.38281C228.567 4.16699 228.37 4.01042 228.104 3.91309C227.841 3.81152 227.507 3.76074 227.101 3.76074H225.298V12H224.073V2.75781H227.101C227.575 2.75781 227.998 2.80648 228.37 2.90381C228.743 2.99691 229.058 3.14502 229.316 3.34814C229.578 3.54704 229.777 3.80094 229.913 4.10986C230.048 4.41878 230.116 4.78906 230.116 5.2207C230.116 5.60156 230.018 5.94645 229.824 6.25537C229.629 6.56006 229.358 6.80973 229.011 7.00439C228.668 7.19906 228.266 7.32389 227.805 7.37891L227.367 7.67725ZM227.31 12H224.542L225.234 11.0034H227.31C227.699 11.0034 228.029 10.9357 228.3 10.8003C228.575 10.6649 228.785 10.4744 228.929 10.229C229.073 9.97933 229.145 9.68522 229.145 9.34668C229.145 9.00391 229.083 8.70768 228.96 8.45801C228.838 8.20833 228.645 8.01579 228.383 7.88037C228.12 7.74495 227.782 7.67725 227.367 7.67725H225.622L225.634 6.69336H228.021L228.281 7.04883C228.726 7.08691 229.102 7.21387 229.411 7.42969C229.72 7.64128 229.955 7.91211 230.116 8.24219C230.281 8.57227 230.363 8.9362 230.363 9.33398C230.363 9.90951 230.236 10.3962 229.982 10.7939C229.733 11.1875 229.379 11.488 228.922 11.6953C228.465 11.8984 227.928 12 227.31 12ZM234.845 12.127C234.367 12.127 233.933 12.0465 233.543 11.8857C233.158 11.7207 232.826 11.4901 232.547 11.1938C232.272 10.8976 232.06 10.5464 231.912 10.1401C231.764 9.73389 231.69 9.28955 231.69 8.80713V8.54053C231.69 7.98193 231.772 7.4847 231.938 7.04883C232.103 6.60872 232.327 6.23633 232.61 5.93164C232.894 5.62695 233.215 5.39632 233.575 5.23975C233.935 5.08317 234.307 5.00488 234.692 5.00488C235.183 5.00488 235.606 5.08952 235.962 5.25879C236.322 5.42806 236.616 5.66504 236.844 5.96973C237.073 6.27018 237.242 6.62565 237.352 7.03613C237.462 7.44238 237.517 7.88672 237.517 8.36914V8.896H232.388V7.9375H236.343V7.84863C236.326 7.54395 236.262 7.24772 236.152 6.95996C236.047 6.6722 235.877 6.43522 235.645 6.24902C235.412 6.06283 235.094 5.96973 234.692 5.96973C234.426 5.96973 234.18 6.02686 233.956 6.14111C233.732 6.25114 233.539 6.41618 233.378 6.63623C233.218 6.85628 233.093 7.125 233.004 7.44238C232.915 7.75977 232.871 8.12581 232.871 8.54053V8.80713C232.871 9.13298 232.915 9.43978 233.004 9.72754C233.097 10.0111 233.23 10.2607 233.404 10.4766C233.582 10.6924 233.795 10.8617 234.045 10.9844C234.299 11.1071 234.587 11.1685 234.908 11.1685C235.323 11.1685 235.674 11.0838 235.962 10.9146C236.25 10.7453 236.501 10.5189 236.717 10.2354L237.428 10.8003C237.28 11.0246 237.092 11.2383 236.863 11.4414C236.635 11.6445 236.353 11.8096 236.019 11.9365C235.689 12.0635 235.298 12.127 234.845 12.127ZM241.764 5.13184V6.0332H238.05V5.13184H241.764ZM239.307 3.4624H240.481V10.2988C240.481 10.5316 240.517 10.7072 240.589 10.8257C240.661 10.9442 240.754 11.0225 240.869 11.0605C240.983 11.0986 241.106 11.1177 241.237 11.1177C241.334 11.1177 241.436 11.1092 241.542 11.0923C241.652 11.0711 241.734 11.0542 241.789 11.0415L241.795 12C241.702 12.0296 241.58 12.0571 241.427 12.0825C241.279 12.1121 241.099 12.127 240.888 12.127C240.6 12.127 240.335 12.0698 240.094 11.9556C239.853 11.8413 239.66 11.6509 239.517 11.3843C239.377 11.1134 239.307 10.7495 239.307 10.2925V3.4624ZM247.191 10.8257V7.29004C247.191 7.01921 247.136 6.78434 247.026 6.58545C246.92 6.38232 246.759 6.22575 246.543 6.11572C246.328 6.0057 246.061 5.95068 245.744 5.95068C245.447 5.95068 245.187 6.00146 244.963 6.10303C244.743 6.20459 244.569 6.33789 244.442 6.50293C244.32 6.66797 244.258 6.8457 244.258 7.03613H243.084C243.084 6.79069 243.147 6.54736 243.274 6.30615C243.401 6.06494 243.583 5.84701 243.82 5.65234C244.062 5.45345 244.349 5.29688 244.684 5.18262C245.022 5.06413 245.399 5.00488 245.813 5.00488C246.313 5.00488 246.753 5.08952 247.134 5.25879C247.519 5.42806 247.819 5.68408 248.035 6.02686C248.255 6.3654 248.365 6.79069 248.365 7.30273V10.502C248.365 10.7305 248.384 10.9738 248.422 11.2319C248.465 11.4901 248.526 11.7122 248.606 11.8984V12H247.381C247.322 11.8646 247.276 11.6847 247.242 11.4604C247.208 11.2319 247.191 11.0203 247.191 10.8257ZM247.394 7.83594L247.407 8.66113H246.22C245.885 8.66113 245.587 8.68864 245.325 8.74365C245.062 8.79443 244.842 8.87272 244.665 8.97852C244.487 9.08431 244.351 9.21761 244.258 9.37842C244.165 9.53499 244.119 9.71908 244.119 9.93066C244.119 10.1465 244.167 10.3433 244.265 10.521C244.362 10.6987 244.508 10.8405 244.703 10.9463C244.902 11.0479 245.145 11.0986 245.433 11.0986C245.792 11.0986 246.11 11.0225 246.385 10.8701C246.66 10.7178 246.878 10.5316 247.039 10.3115C247.204 10.0915 247.292 9.87777 247.305 9.67041L247.807 10.2354C247.777 10.4131 247.697 10.6099 247.565 10.8257C247.434 11.0415 247.259 11.2489 247.039 11.4478C246.823 11.6424 246.565 11.8053 246.264 11.9365C245.968 12.0635 245.634 12.127 245.261 12.127C244.796 12.127 244.387 12.036 244.036 11.854C243.689 11.672 243.418 11.4287 243.224 11.124C243.033 10.8151 242.938 10.4702 242.938 10.0894C242.938 9.72119 243.01 9.39746 243.154 9.11816C243.298 8.83464 243.505 8.59977 243.776 8.41357C244.047 8.22314 244.373 8.07926 244.753 7.98193C245.134 7.8846 245.56 7.83594 246.029 7.83594H247.394Z" fill="white"/>
<path d="M14.5 26C14.1757 25.7448 13.8635 25.5642 13.5685 25.3478C11.7286 24.0026 9.58701 23.2576 7.25172 22.9473C6.26761 22.8166 5.26773 22.7697 4.27236 22.7125C3.46391 22.6676 3 22.2757 3 21.5674C3 16.5255 3 11.4836 3 6.44369C3 5.74762 3.48868 5.29854 4.24084 5.31283C5.90729 5.34345 7.54898 5.52104 9.13662 6.00482C11.2377 6.64577 12.983 7.70315 14.199 9.37494C14.3544 9.58927 14.4693 9.87301 14.4715 10.1261C14.4873 15.3905 14.4977 20.5927 14.4977 25.8571C14.4977 25.8857 14.4977 25.9224 14.4977 26.002L14.5 26Z" fill="url(#paint0_linear_82_2)"/>
<path d="M15.5151 25.9965V25.5943C15.5151 20.5197 15.5309 15.4472 15.4971 10.3747C15.4926 9.61533 15.7786 9.03765 16.2831 8.48039C17.8752 6.7249 19.9785 5.75734 22.4017 5.33072C23.4871 5.13884 24.6041 5.08373 25.7121 5.00412C26.4575 4.95104 26.9777 5.41645 26.9777 6.08803C26.9822 11.2279 26.9822 16.3678 26.9777 21.5057C26.9777 22.1691 26.4912 22.5896 25.7098 22.6018C24.1402 22.6243 22.5931 22.7856 21.0775 23.1611C19.0507 23.6633 17.2356 24.5063 15.7291 25.8434C15.6795 25.8862 15.621 25.9209 15.5151 25.9985V25.9965Z" fill="url(#paint1_linear_82_2)"/>
<path d="M17.5 14.5C17.5 14.5 18.2881 14.5 19.5 14.5C21.8542 14.5 25 14.5 25 14.5" stroke="white" stroke-miterlimit="10" stroke-linecap="round"/>
<path d="M17.5 19.5C17.5 19.5 18.4269 19.5 19.5 19.5C21.5845 19.5 23.5 19.5 23.5 19.5" stroke="white" stroke-miterlimit="10" stroke-linecap="round"/>
<path d="M8 12C8 12 8.42923 12 9.07309 12C10.3238 12 12.5 12 12.5 12" stroke="white" stroke-miterlimit="10" stroke-linecap="round"/>
<path d="M6 17C6 17 6.607 17 7.5175 17C9.2862 17 12.5 17 12.5 17" stroke="white" stroke-miterlimit="10" stroke-linecap="round"/>
<defs>
<linearGradient id="paint0_linear_82_2" x1="12.9151" y1="7.82582" x2="-2.48879" y2="12.8038" gradientUnits="userSpaceOnUse">
<stop stop-color="#0673F7"/>
<stop offset="1" stop-color="#0151BE"/>
</linearGradient>
<linearGradient id="paint1_linear_82_2" x1="24.8946" y1="7.73673" x2="9.4578" y2="12.6663" gradientUnits="userSpaceOnUse">
<stop stop-color="#0673F7"/>
<stop offset="1" stop-color="#0151BE"/>
</linearGradient>
</defs>
</svg>
