<svg width="237" height="34" viewBox="0 0 237 34" fill="none" xmlns="http://www.w3.org/2000/svg">
<path d="M129.904 10.7812V25H128.049V10.7812H129.904ZM134.475 10.7812V12.3242H123.488V10.7812H134.475ZM137.375 16.0938V25H135.568V14.4336H137.326L137.375 16.0938ZM140.676 14.375L140.666 16.0547C140.516 16.0221 140.373 16.0026 140.236 15.9961C140.106 15.9831 139.956 15.9766 139.787 15.9766C139.37 15.9766 139.003 16.0417 138.684 16.1719C138.365 16.3021 138.094 16.4844 137.873 16.7188C137.652 16.9531 137.476 17.2331 137.346 17.5586C137.222 17.8776 137.141 18.2292 137.102 18.6133L136.594 18.9062C136.594 18.2682 136.656 17.6693 136.779 17.1094C136.91 16.5495 137.108 16.0547 137.375 15.625C137.642 15.1888 137.98 14.8503 138.391 14.6094C138.807 14.362 139.302 14.2383 139.875 14.2383C140.005 14.2383 140.155 14.2546 140.324 14.2871C140.493 14.3132 140.611 14.3424 140.676 14.375ZM148.186 23.1934V17.7539C148.186 17.3372 148.101 16.9759 147.932 16.6699C147.769 16.3574 147.521 16.1165 147.189 15.9473C146.857 15.778 146.447 15.6934 145.959 15.6934C145.503 15.6934 145.103 15.7715 144.758 15.9277C144.419 16.084 144.152 16.2891 143.957 16.543C143.768 16.7969 143.674 17.0703 143.674 17.3633H141.867C141.867 16.9857 141.965 16.6113 142.16 16.2402C142.355 15.8691 142.635 15.5339 143 15.2344C143.371 14.9284 143.814 14.6875 144.328 14.5117C144.849 14.3294 145.428 14.2383 146.066 14.2383C146.835 14.2383 147.512 14.3685 148.098 14.6289C148.69 14.8893 149.152 15.2832 149.484 15.8105C149.823 16.3314 149.992 16.9857 149.992 17.7734V22.6953C149.992 23.0469 150.021 23.4212 150.08 23.8184C150.145 24.2155 150.24 24.5573 150.363 24.8438V25H148.479C148.387 24.7917 148.316 24.515 148.264 24.1699C148.212 23.8184 148.186 23.4928 148.186 23.1934ZM148.498 18.5938L148.518 19.8633H146.691C146.177 19.8633 145.718 19.9056 145.314 19.9902C144.911 20.0684 144.572 20.1888 144.299 20.3516C144.025 20.5143 143.817 20.7194 143.674 20.9668C143.531 21.2077 143.459 21.4909 143.459 21.8164C143.459 22.1484 143.534 22.4512 143.684 22.7246C143.833 22.998 144.058 23.2161 144.357 23.3789C144.663 23.5352 145.038 23.6133 145.48 23.6133C146.034 23.6133 146.522 23.4961 146.945 23.2617C147.368 23.0273 147.704 22.7409 147.951 22.4023C148.205 22.0638 148.342 21.735 148.361 21.416L149.133 22.2852C149.087 22.5586 148.964 22.8613 148.762 23.1934C148.56 23.5254 148.29 23.8444 147.951 24.1504C147.619 24.4499 147.222 24.7005 146.76 24.9023C146.304 25.0977 145.79 25.1953 145.217 25.1953C144.501 25.1953 143.872 25.0553 143.332 24.7754C142.798 24.4954 142.382 24.1211 142.082 23.6523C141.789 23.1771 141.643 22.6465 141.643 22.0605C141.643 21.4941 141.753 20.9961 141.975 20.5664C142.196 20.1302 142.515 19.7689 142.932 19.4824C143.348 19.1895 143.85 18.9681 144.436 18.8184C145.021 18.6686 145.676 18.5938 146.398 18.5938H148.498ZM154.641 16.6895V25H152.834V14.4336H154.543L154.641 16.6895ZM154.211 19.3164L153.459 19.2871C153.465 18.5645 153.573 17.8971 153.781 17.2852C153.99 16.6667 154.283 16.1296 154.66 15.6738C155.038 15.2181 155.487 14.8665 156.008 14.6191C156.535 14.3652 157.118 14.2383 157.756 14.2383C158.277 14.2383 158.745 14.3099 159.162 14.4531C159.579 14.5898 159.934 14.8112 160.227 15.1172C160.526 15.4232 160.754 15.8203 160.91 16.3086C161.066 16.7904 161.145 17.3796 161.145 18.0762V25H159.328V18.0566C159.328 17.5033 159.247 17.0605 159.084 16.7285C158.921 16.39 158.684 16.1458 158.371 15.9961C158.059 15.8398 157.674 15.7617 157.219 15.7617C156.77 15.7617 156.359 15.8561 155.988 16.0449C155.624 16.2337 155.308 16.4941 155.041 16.8262C154.781 17.1582 154.576 17.5391 154.426 17.9688C154.283 18.3919 154.211 18.8411 154.211 19.3164ZM170.041 22.1973C170.041 21.9368 169.982 21.696 169.865 21.4746C169.755 21.2467 169.523 21.0417 169.172 20.8594C168.827 20.6706 168.306 20.5078 167.609 20.3711C167.023 20.2474 166.493 20.1009 166.018 19.9316C165.549 19.7624 165.148 19.5573 164.816 19.3164C164.491 19.0755 164.24 18.7923 164.064 18.4668C163.889 18.1413 163.801 17.7604 163.801 17.3242C163.801 16.9076 163.892 16.5137 164.074 16.1426C164.263 15.7715 164.527 15.4427 164.865 15.1562C165.21 14.8698 165.624 14.6452 166.105 14.4824C166.587 14.3197 167.124 14.2383 167.717 14.2383C168.563 14.2383 169.286 14.388 169.885 14.6875C170.484 14.987 170.943 15.3874 171.262 15.8887C171.581 16.3835 171.74 16.9336 171.74 17.5391H169.934C169.934 17.2461 169.846 16.9629 169.67 16.6895C169.501 16.4095 169.25 16.1784 168.918 15.9961C168.592 15.8138 168.192 15.7227 167.717 15.7227C167.215 15.7227 166.809 15.8008 166.496 15.957C166.19 16.1068 165.965 16.2988 165.822 16.5332C165.686 16.7676 165.617 17.015 165.617 17.2754C165.617 17.4707 165.65 17.6465 165.715 17.8027C165.786 17.9525 165.91 18.0924 166.086 18.2227C166.262 18.3464 166.509 18.4635 166.828 18.5742C167.147 18.6849 167.554 18.7956 168.049 18.9062C168.915 19.1016 169.628 19.3359 170.188 19.6094C170.747 19.8828 171.164 20.2181 171.438 20.6152C171.711 21.0124 171.848 21.4941 171.848 22.0605C171.848 22.5228 171.75 22.946 171.555 23.3301C171.366 23.7142 171.089 24.0462 170.725 24.3262C170.367 24.5996 169.937 24.8145 169.436 24.9707C168.941 25.1204 168.384 25.1953 167.766 25.1953C166.835 25.1953 166.047 25.0293 165.402 24.6973C164.758 24.3652 164.27 23.9355 163.938 23.4082C163.605 22.8809 163.439 22.3242 163.439 21.7383H165.256C165.282 22.2331 165.425 22.627 165.686 22.9199C165.946 23.2064 166.265 23.4115 166.643 23.5352C167.02 23.6523 167.395 23.7109 167.766 23.7109C168.26 23.7109 168.674 23.6458 169.006 23.5156C169.344 23.3854 169.602 23.2064 169.777 22.9785C169.953 22.7507 170.041 22.4902 170.041 22.1973ZM176.184 10V25H174.367V10H176.184ZM185.314 23.1934V17.7539C185.314 17.3372 185.23 16.9759 185.061 16.6699C184.898 16.3574 184.65 16.1165 184.318 15.9473C183.986 15.778 183.576 15.6934 183.088 15.6934C182.632 15.6934 182.232 15.7715 181.887 15.9277C181.548 16.084 181.281 16.2891 181.086 16.543C180.897 16.7969 180.803 17.0703 180.803 17.3633H178.996C178.996 16.9857 179.094 16.6113 179.289 16.2402C179.484 15.8691 179.764 15.5339 180.129 15.2344C180.5 14.9284 180.943 14.6875 181.457 14.5117C181.978 14.3294 182.557 14.2383 183.195 14.2383C183.964 14.2383 184.641 14.3685 185.227 14.6289C185.819 14.8893 186.281 15.2832 186.613 15.8105C186.952 16.3314 187.121 16.9857 187.121 17.7734V22.6953C187.121 23.0469 187.15 23.4212 187.209 23.8184C187.274 24.2155 187.368 24.5573 187.492 24.8438V25H185.607C185.516 24.7917 185.445 24.515 185.393 24.1699C185.34 23.8184 185.314 23.4928 185.314 23.1934ZM185.627 18.5938L185.646 19.8633H183.82C183.306 19.8633 182.847 19.9056 182.443 19.9902C182.04 20.0684 181.701 20.1888 181.428 20.3516C181.154 20.5143 180.946 20.7194 180.803 20.9668C180.66 21.2077 180.588 21.4909 180.588 21.8164C180.588 22.1484 180.663 22.4512 180.812 22.7246C180.962 22.998 181.187 23.2161 181.486 23.3789C181.792 23.5352 182.167 23.6133 182.609 23.6133C183.163 23.6133 183.651 23.4961 184.074 23.2617C184.497 23.0273 184.833 22.7409 185.08 22.4023C185.334 22.0638 185.471 21.735 185.49 21.416L186.262 22.2852C186.216 22.5586 186.092 22.8613 185.891 23.1934C185.689 23.5254 185.419 23.8444 185.08 24.1504C184.748 24.4499 184.351 24.7005 183.889 24.9023C183.433 25.0977 182.919 25.1953 182.346 25.1953C181.63 25.1953 181.001 25.0553 180.461 24.7754C179.927 24.4954 179.51 24.1211 179.211 23.6523C178.918 23.1771 178.771 22.6465 178.771 22.0605C178.771 21.4941 178.882 20.9961 179.104 20.5664C179.325 20.1302 179.644 19.7689 180.061 19.4824C180.477 19.1895 180.979 18.9681 181.564 18.8184C182.15 18.6686 182.805 18.5938 183.527 18.5938H185.627ZM194.387 14.4336V15.8203H188.674V14.4336H194.387ZM190.607 11.8652H192.414V22.3828C192.414 22.7409 192.469 23.0111 192.58 23.1934C192.691 23.3757 192.834 23.4961 193.01 23.5547C193.186 23.6133 193.374 23.6426 193.576 23.6426C193.726 23.6426 193.882 23.6296 194.045 23.6035C194.214 23.571 194.341 23.5449 194.426 23.5254L194.436 25C194.292 25.0456 194.104 25.0879 193.869 25.127C193.641 25.1725 193.365 25.1953 193.039 25.1953C192.596 25.1953 192.189 25.1074 191.818 24.9316C191.447 24.7559 191.151 24.4629 190.93 24.0527C190.715 23.6361 190.607 23.0762 190.607 22.373V11.8652ZM200.891 25.1953C200.155 25.1953 199.488 25.0716 198.889 24.8242C198.296 24.5703 197.785 24.2155 197.355 23.7598C196.932 23.304 196.607 22.7637 196.379 22.1387C196.151 21.5137 196.037 20.8301 196.037 20.0879V19.6777C196.037 18.8184 196.164 18.0534 196.418 17.3828C196.672 16.7057 197.017 16.1328 197.453 15.6641C197.889 15.1953 198.384 14.8405 198.938 14.5996C199.491 14.3587 200.064 14.2383 200.656 14.2383C201.411 14.2383 202.062 14.3685 202.609 14.6289C203.163 14.8893 203.615 15.2539 203.967 15.7227C204.318 16.1849 204.579 16.7318 204.748 17.3633C204.917 17.9883 205.002 18.6719 205.002 19.4141V20.2246H197.111V18.75H203.195V18.6133C203.169 18.1445 203.072 17.6888 202.902 17.2461C202.74 16.8034 202.479 16.4388 202.121 16.1523C201.763 15.8659 201.275 15.7227 200.656 15.7227C200.246 15.7227 199.868 15.8105 199.523 15.9863C199.178 16.1556 198.882 16.4095 198.635 16.748C198.387 17.0866 198.195 17.5 198.059 17.9883C197.922 18.4766 197.854 19.0397 197.854 19.6777V20.0879C197.854 20.5892 197.922 21.0612 198.059 21.5039C198.202 21.9401 198.407 22.3242 198.674 22.6562C198.947 22.9883 199.276 23.2487 199.66 23.4375C200.051 23.6263 200.493 23.7207 200.988 23.7207C201.626 23.7207 202.167 23.5905 202.609 23.3301C203.052 23.0697 203.439 22.7214 203.771 22.2852L204.865 23.1543C204.637 23.4993 204.348 23.8281 203.996 24.1406C203.645 24.4531 203.212 24.707 202.697 24.9023C202.189 25.0977 201.587 25.1953 200.891 25.1953Z" fill="white"/>
<path d="M214.084 10.1973H211.904L211.893 9.06055H213.762C214.082 9.06055 214.35 9.01562 214.564 8.92578C214.779 8.83594 214.941 8.70508 215.051 8.5332C215.164 8.36133 215.221 8.15234 215.221 7.90625C215.221 7.63281 215.168 7.41016 215.062 7.23828C214.961 7.06641 214.801 6.94141 214.582 6.86328C214.363 6.78125 214.086 6.74023 213.75 6.74023H212.426V14H210.814V5.46875H213.75C214.234 5.46875 214.666 5.51562 215.045 5.60938C215.428 5.69922 215.752 5.83984 216.018 6.03125C216.283 6.22266 216.484 6.46289 216.621 6.75195C216.762 7.04102 216.832 7.38477 216.832 7.7832C216.832 8.13477 216.75 8.45898 216.586 8.75586C216.426 9.04883 216.178 9.28711 215.842 9.4707C215.51 9.6543 215.088 9.75977 214.576 9.78711L214.084 10.1973ZM214.014 14H211.43L212.104 12.7344H214.014C214.334 12.7344 214.598 12.6816 214.805 12.5762C215.016 12.4707 215.172 12.3262 215.273 12.1426C215.379 11.9551 215.432 11.7402 215.432 11.498C215.432 11.2324 215.385 11.002 215.291 10.8066C215.201 10.6113 215.057 10.4609 214.857 10.3555C214.662 10.25 214.404 10.1973 214.084 10.1973H212.408L212.42 9.06055H214.553L214.922 9.5C215.414 9.50391 215.814 9.60156 216.123 9.79297C216.436 9.98438 216.666 10.2305 216.814 10.5312C216.963 10.832 217.037 11.1562 217.037 11.5039C217.037 12.0508 216.918 12.5098 216.68 12.8809C216.445 13.252 216.102 13.5312 215.648 13.7188C215.199 13.9062 214.654 14 214.014 14ZM221.162 14.1172C220.682 14.1172 220.25 14.0391 219.867 13.8828C219.484 13.7266 219.158 13.5098 218.889 13.2324C218.623 12.9512 218.418 12.625 218.273 12.2539C218.133 11.8789 218.062 11.4766 218.062 11.0469V10.8125C218.062 10.3242 218.133 9.88086 218.273 9.48242C218.414 9.08008 218.613 8.73438 218.871 8.44531C219.129 8.15625 219.438 7.93359 219.797 7.77734C220.156 7.62109 220.553 7.54297 220.986 7.54297C221.436 7.54297 221.832 7.61914 222.176 7.77148C222.52 7.91992 222.807 8.13086 223.037 8.4043C223.268 8.67773 223.441 9.00586 223.559 9.38867C223.676 9.76758 223.734 10.1875 223.734 10.6484V11.2988H218.766V10.2324H222.211V10.1152C222.203 9.86914 222.156 9.64453 222.07 9.44141C221.984 9.23438 221.852 9.07031 221.672 8.94922C221.492 8.82422 221.26 8.76172 220.975 8.76172C220.744 8.76172 220.543 8.8125 220.371 8.91406C220.203 9.01172 220.062 9.15234 219.949 9.33594C219.84 9.51562 219.758 9.73047 219.703 9.98047C219.648 10.2305 219.621 10.5078 219.621 10.8125V11.0469C219.621 11.3125 219.656 11.5586 219.727 11.7852C219.801 12.0117 219.908 12.209 220.049 12.377C220.193 12.541 220.365 12.6699 220.564 12.7637C220.768 12.8535 220.998 12.8984 221.256 12.8984C221.58 12.8984 221.873 12.8359 222.135 12.7109C222.4 12.582 222.631 12.3926 222.826 12.1426L223.605 12.9512C223.473 13.1465 223.293 13.334 223.066 13.5137C222.844 13.6934 222.574 13.8398 222.258 13.9531C221.941 14.0625 221.576 14.1172 221.162 14.1172ZM227.771 7.66016V8.77344H224.139V7.66016H227.771ZM225.111 6.10156H226.664V12.1719C226.664 12.3594 226.689 12.5039 226.74 12.6055C226.791 12.707 226.867 12.7754 226.969 12.8105C227.07 12.8457 227.191 12.8633 227.332 12.8633C227.434 12.8633 227.527 12.8574 227.613 12.8457C227.699 12.834 227.771 12.8223 227.83 12.8105L227.836 13.9707C227.707 14.0137 227.561 14.0488 227.396 14.0762C227.236 14.1035 227.055 14.1172 226.852 14.1172C226.504 14.1172 226.199 14.0586 225.938 13.9414C225.676 13.8203 225.473 13.627 225.328 13.3613C225.184 13.0918 225.111 12.7363 225.111 12.2949V6.10156ZM232.295 12.6523V9.72852C232.295 9.51367 232.258 9.32812 232.184 9.17188C232.109 9.01562 231.996 8.89453 231.844 8.80859C231.691 8.72266 231.498 8.67969 231.264 8.67969C231.057 8.67969 230.875 8.71484 230.719 8.78516C230.566 8.85547 230.449 8.95508 230.367 9.08398C230.285 9.20898 230.244 9.35352 230.244 9.51758H228.691C228.691 9.25586 228.754 9.00781 228.879 8.77344C229.004 8.53516 229.182 8.32422 229.412 8.14062C229.646 7.95312 229.926 7.80664 230.25 7.70117C230.578 7.5957 230.945 7.54297 231.352 7.54297C231.832 7.54297 232.26 7.625 232.635 7.78906C233.014 7.94922 233.311 8.19141 233.525 8.51562C233.744 8.83984 233.854 9.24805 233.854 9.74023V12.5059C233.854 12.8223 233.873 13.0938 233.912 13.3203C233.955 13.543 234.018 13.7363 234.1 13.9004V14H232.523C232.449 13.8398 232.393 13.6367 232.354 13.3906C232.314 13.1406 232.295 12.8945 232.295 12.6523ZM232.512 10.1387L232.523 11.0586H231.545C231.303 11.0586 231.09 11.084 230.906 11.1348C230.723 11.1816 230.572 11.252 230.455 11.3457C230.338 11.4355 230.25 11.5449 230.191 11.6738C230.133 11.7988 230.104 11.9414 230.104 12.1016C230.104 12.2578 230.139 12.3984 230.209 12.5234C230.283 12.6484 230.389 12.748 230.525 12.8223C230.666 12.8926 230.83 12.9277 231.018 12.9277C231.291 12.9277 231.529 12.873 231.732 12.7637C231.936 12.6504 232.094 12.5137 232.207 12.3535C232.32 12.1934 232.381 12.041 232.389 11.8965L232.834 12.5645C232.779 12.7246 232.697 12.8945 232.588 13.0742C232.479 13.2539 232.338 13.4219 232.166 13.5781C231.994 13.7344 231.787 13.8633 231.545 13.9648C231.303 14.0664 231.021 14.1172 230.701 14.1172C230.291 14.1172 229.924 14.0352 229.6 13.8711C229.275 13.707 229.02 13.4824 228.832 13.1973C228.645 12.9121 228.551 12.5879 228.551 12.2246C228.551 11.8887 228.613 11.5918 228.738 11.334C228.863 11.0762 229.049 10.8594 229.295 10.6836C229.541 10.5039 229.846 10.3691 230.209 10.2793C230.576 10.1855 230.996 10.1387 231.469 10.1387H232.512Z" fill="white"/>
<path d="M50.6212 23.4508L49.8817 21.5064H43.5843L42.8445 23.493C42.5555 24.2682 42.3083 24.7911 42.1047 25.0621C41.9002 25.3333 41.5657 25.469 41.1006 25.469C40.7061 25.469 40.3576 25.3246 40.0546 25.0358C39.752 24.747 39.5996 24.4195 39.5996 24.0531C39.5996 23.8418 39.6357 23.6235 39.7063 23.3979C39.7767 23.1726 39.8919 22.859 40.0546 22.4574L44.0169 12.3979C44.1301 12.109 44.2656 11.7621 44.4235 11.357C44.5829 10.952 44.7511 10.6156 44.9314 10.3479C45.1113 10.0802 45.3469 9.86358 45.6394 9.69809C45.9315 9.5326 46.2927 9.44971 46.7228 9.44971C47.1591 9.44971 47.5238 9.5326 47.8159 9.69809C48.1085 9.86358 48.3446 10.0767 48.5234 10.3373C48.704 10.5981 48.8551 10.8781 48.9779 11.1774C49.1018 11.4769 49.2582 11.8766 49.4483 12.3767L53.4951 22.3729C53.8129 23.1338 53.9713 23.6869 53.9713 24.0319C53.9713 24.3912 53.822 24.7206 53.5216 25.0199C53.2229 25.3194 52.8617 25.469 52.4392 25.469C52.1918 25.469 51.981 25.425 51.8054 25.337C51.6283 25.2487 51.4808 25.1293 51.3617 24.9776C51.2417 24.8262 51.1138 24.5938 50.9751 24.2803C50.8379 23.967 50.7198 23.6904 50.6212 23.4508ZM44.4083 19.1502H49.0367L46.7011 12.7571L44.4083 19.1502Z" fill="white"/>
<path d="M57.5311 12.3982C57.1296 12.3982 56.7865 12.275 56.501 12.0283C56.216 11.7819 56.0732 11.4331 56.0732 10.9823C56.0732 10.5737 56.22 10.2373 56.5121 9.97311C56.8037 9.70902 57.1437 9.5769 57.5311 9.5769C57.9049 9.5769 58.2363 9.6967 58.5239 9.93614C58.8139 10.1757 58.9577 10.5245 58.9577 10.9823C58.9577 11.4261 58.8165 11.7731 58.535 12.0231C58.253 12.2732 57.919 12.3982 57.5311 12.3982ZM58.9577 15.378V23.7154C58.9577 24.293 58.8205 24.7297 58.5461 25.0257C58.2706 25.3215 57.9231 25.4694 57.5003 25.4694C57.0776 25.4694 56.7336 25.3177 56.4697 25.015C56.2054 24.7123 56.0732 24.279 56.0732 23.7154V15.4625C56.0732 14.892 56.2054 14.4623 56.4697 14.1735C56.7336 13.8847 57.0776 13.7403 57.5003 13.7403C57.9231 13.7403 58.2706 13.8847 58.5461 14.1735C58.8205 14.4623 58.9577 14.8638 58.9577 15.378Z" fill="white"/>
<path d="M61.939 23.715V11.2038C61.939 10.6262 62.0681 10.1894 62.3264 9.89344C62.5819 9.59758 62.9297 9.44971 63.3663 9.44971C63.8032 9.44971 64.1553 9.59599 64.4237 9.8882C64.6908 10.1807 64.8252 10.6191 64.8252 11.2038V23.715C64.8252 24.2997 64.6882 24.7383 64.4184 25.0305C64.1465 25.3228 63.7964 25.469 63.3663 25.469C62.9431 25.469 62.6006 25.3174 62.336 25.0147C62.0719 24.7118 61.939 24.2786 61.939 23.715Z" fill="white"/>
<path d="M75.0931 23.8415C74.3969 24.3841 73.7215 24.7908 73.0695 25.0619C72.4187 25.3331 71.6883 25.4688 70.8779 25.4688C70.1373 25.4688 69.4871 25.3225 68.9286 25.0303C68.3672 24.738 67.9366 24.3417 67.634 23.8415C67.3298 23.3413 67.1792 22.799 67.1792 22.2142C67.1792 21.4254 67.4289 20.7525 67.9293 20.196C68.429 19.6395 69.1161 19.266 69.9893 19.0758C70.1731 19.0336 70.6274 18.9384 71.3528 18.7905C72.0785 18.6426 72.7002 18.507 73.219 18.3838C73.7361 18.2606 74.2966 18.1108 74.9037 17.9346C74.8676 17.1738 74.714 16.6155 74.4439 16.2599C74.172 15.9042 73.6105 15.7261 72.7595 15.7261C72.0263 15.7261 71.4746 15.8284 71.1039 16.0326C70.7346 16.237 70.4178 16.5435 70.1537 16.952C69.8889 17.3606 69.7025 17.63 69.5938 17.7604C69.4848 17.8907 69.2502 17.9558 68.8911 17.9558C68.5675 17.9558 68.2875 17.852 68.0506 17.644C67.8136 17.4364 67.6978 17.1704 67.6978 16.8463C67.6978 16.339 67.8769 15.8461 68.236 15.3669C68.5947 14.8879 69.1551 14.4935 69.9169 14.1834C70.6761 13.8735 71.6247 13.7185 72.7595 13.7185C74.0267 13.7185 75.0235 13.8683 75.7486 14.1676C76.474 14.4671 76.9868 14.9407 77.2865 15.5888C77.5864 16.237 77.7359 17.0964 77.7359 18.1671C77.7359 18.8433 77.7334 19.4176 77.7301 19.8895C77.7271 20.3615 77.7218 20.8865 77.7137 21.4639C77.7137 22.0065 77.804 22.5718 77.9831 23.16C78.1632 23.7482 78.253 24.1268 78.253 24.2959C78.253 24.5917 78.1148 24.8613 77.8358 25.1042C77.5568 25.3473 77.2426 25.4688 76.8902 25.4688C76.5938 25.4688 76.3008 25.3296 76.0135 25.0515C75.7244 24.7733 75.4169 24.3698 75.0931 23.8415ZM74.9037 19.6676C74.4814 19.8226 73.866 19.9863 73.0589 20.1589C72.2533 20.3316 71.6941 20.4584 71.3848 20.5394C71.0738 20.6204 70.7785 20.7791 70.4975 21.015C70.2155 21.251 70.075 21.5803 70.075 22.0028C70.075 22.4397 70.2397 22.8112 70.5719 23.1177C70.9031 23.4241 71.3359 23.5774 71.8709 23.5774C72.4414 23.5774 72.9686 23.4523 73.4498 23.2022C73.9331 22.9521 74.286 22.6299 74.5127 22.2353C74.773 21.7987 74.9037 21.0801 74.9037 20.0797V19.6676Z" fill="white"/>
<path d="M83.0415 25.8281L83.305 25.1836L79.7532 16.2441C79.5355 15.7298 79.4263 15.3564 79.4263 15.124C79.4263 14.8774 79.4896 14.6485 79.6165 14.4371C79.7431 14.2257 79.9181 14.0566 80.1393 13.9299C80.3618 13.8031 80.5926 13.7397 80.8314 13.7397C81.2476 13.7397 81.5609 13.8717 81.7717 14.1359C81.9839 14.4 82.1705 14.7789 82.3322 15.2719L84.774 22.3727L87.0872 15.7686C87.2705 15.2331 87.4365 14.814 87.5838 14.5111C87.7316 14.2083 87.8885 14.0038 88.0545 13.8982C88.2199 13.7925 88.4537 13.7397 88.7577 13.7397C88.9751 13.7397 89.1845 13.7978 89.3857 13.9141C89.587 14.0302 89.7401 14.1871 89.8506 14.3843C89.9588 14.5816 90.0143 14.7894 90.0143 15.0076C89.9858 15.1417 89.9404 15.3318 89.8763 15.5783C89.813 15.8249 89.7358 16.0751 89.6435 16.3287L85.8818 26.1768C85.5592 27.0433 85.2411 27.7231 84.9327 28.2163C84.6214 28.7092 84.2115 29.088 83.7003 29.3522C83.1895 29.6165 82.5012 29.7484 81.6348 29.7484C80.7886 29.7484 80.1557 29.6567 79.732 29.4737C79.3105 29.2905 79.0986 28.956 79.0986 28.4698C79.0986 28.1387 79.199 27.8833 79.3998 27.7038C79.6006 27.5241 79.8979 27.4343 80.2927 27.4343C80.4478 27.4343 80.5999 27.4555 80.7464 27.4977C80.9306 27.5401 81.0882 27.5613 81.2234 27.5613C81.5536 27.5613 81.8144 27.5118 82.0035 27.4132C82.1947 27.3144 82.3647 27.1437 82.5163 26.9006C82.6692 26.6577 82.8435 26.3 83.0415 25.8281Z" fill="white"/>
<path d="M101.11 21.6965C101.11 22.4927 100.916 23.1742 100.528 23.7413C100.141 24.3083 99.5692 24.7381 98.8118 25.0304C98.0543 25.3226 97.1337 25.4689 96.0486 25.4689C95.013 25.4689 94.1254 25.3104 93.3856 24.9934C92.6461 24.6763 92.0982 24.2801 91.7476 23.8046C91.395 23.3292 91.2195 22.852 91.2195 22.3727C91.2195 22.0559 91.3317 21.7847 91.5577 21.5592C91.7827 21.3337 92.0687 21.2211 92.4138 21.2211C92.7172 21.2211 92.9485 21.295 93.1117 21.4429C93.2739 21.5908 93.429 21.7988 93.5763 22.0663C93.8719 22.5807 94.2255 22.9646 94.6374 23.2182C95.0506 23.4717 95.612 23.5986 96.3241 23.5986C96.9009 23.5986 97.3748 23.4701 97.7441 23.2128C98.1151 22.9558 98.2998 22.6617 98.2998 22.3306C98.2998 21.8234 98.1078 21.4535 97.7234 21.2211C97.3393 20.9885 96.7072 20.7666 95.8264 20.5553C94.8331 20.3088 94.026 20.0499 93.4018 19.7786C92.7785 19.5076 92.2793 19.15 91.9063 18.7062C91.533 18.2623 91.3458 17.7164 91.3458 17.0683C91.3458 16.4906 91.5194 15.9447 91.8642 15.4304C92.208 14.9162 92.7177 14.5057 93.3912 14.1993C94.0639 13.8929 94.8755 13.7397 95.8264 13.7397C96.5733 13.7397 97.2454 13.8173 97.8387 13.9721C98.4355 14.1272 98.9318 14.335 99.3296 14.5957C99.7274 14.8563 100.031 15.1451 100.238 15.462C100.446 15.779 100.55 16.0892 100.55 16.392C100.55 16.7233 100.439 16.9943 100.218 17.2056C99.996 17.417 99.6805 17.5226 99.2718 17.5226C98.976 17.5226 98.7243 17.4382 98.5152 17.2689C98.3088 17.1 98.07 16.8464 97.8029 16.5082C97.5849 16.2265 97.3269 16.0009 97.0318 15.8319C96.7362 15.6628 96.3339 15.5783 95.8264 15.5783C95.3051 15.5783 94.872 15.6892 94.5269 15.9112C94.1814 16.133 94.0096 16.4095 94.0096 16.7406C94.0096 17.0436 94.136 17.292 94.39 17.4856C94.6437 17.6795 94.9852 17.8396 95.4143 17.9663C95.8436 18.0933 96.4355 18.2483 97.1895 18.4313C98.0844 18.6498 98.8161 18.9106 99.3831 19.2134C99.9503 19.5163 100.379 19.8738 100.67 20.2858C100.963 20.6979 101.11 21.1682 101.11 21.6965Z" fill="white"/>
<path d="M110.843 23.8415C110.145 24.3841 109.47 24.7908 108.818 25.0619C108.167 25.3331 107.437 25.4688 106.625 25.4688C105.887 25.4688 105.235 25.3225 104.677 25.0303C104.115 24.738 103.684 24.3417 103.382 23.8415C103.079 23.3413 102.927 22.799 102.927 22.2142C102.927 21.4254 103.178 20.7525 103.677 20.196C104.178 19.6395 104.864 19.266 105.737 19.0758C105.921 19.0336 106.375 18.9384 107.101 18.7905C107.828 18.6426 108.448 18.507 108.967 18.3838C109.485 18.2606 110.045 18.1108 110.651 17.9346C110.617 17.1738 110.463 16.6155 110.192 16.2599C109.921 15.9042 109.359 15.7261 108.507 15.7261C107.774 15.7261 107.224 15.8284 106.852 16.0326C106.483 16.237 106.166 16.5435 105.902 16.952C105.639 17.3606 105.45 17.63 105.342 17.7604C105.232 17.8907 104.998 17.9558 104.639 17.9558C104.314 17.9558 104.036 17.852 103.798 17.644C103.563 17.4364 103.445 17.1704 103.445 16.8463C103.445 16.339 103.625 15.8461 103.985 15.3669C104.343 14.8879 104.903 14.4935 105.663 14.1834C106.425 13.8735 107.372 13.7185 108.507 13.7185C109.775 13.7185 110.772 13.8683 111.497 14.1676C112.221 14.4671 112.735 14.9407 113.035 15.5888C113.333 16.237 113.483 17.0964 113.483 18.1671C113.483 18.8433 113.482 19.4176 113.479 19.8895C113.475 20.3615 113.469 20.8865 113.462 21.4639C113.462 22.0065 113.551 22.5718 113.732 23.16C113.912 23.7482 114 24.1268 114 24.2959C114 24.5917 113.863 24.8613 113.584 25.1042C113.304 25.3473 112.99 25.4688 112.638 25.4688C112.341 25.4688 112.05 25.3296 111.761 25.0515C111.473 24.7733 111.166 24.3698 110.843 23.8415ZM110.651 19.6676C110.23 19.8226 109.615 19.9863 108.807 20.1589C108.001 20.3316 107.443 20.4584 107.132 20.5394C106.824 20.6204 106.527 20.7791 106.245 21.015C105.963 21.251 105.822 21.5803 105.822 22.0028C105.822 22.4397 105.988 22.8112 106.319 23.1177C106.651 23.4241 107.082 23.5774 107.619 23.5774C108.189 23.5774 108.715 23.4523 109.198 23.2022C109.681 22.9521 110.035 22.6299 110.261 22.2353C110.522 21.7987 110.651 21.0801 110.651 20.0797V19.6676Z" fill="white"/>
<g opacity="0.3">
<path d="M24.5146 33.5687H7.05398C3.17433 33.5687 0 30.3943 0 26.5147V9.05409C0 5.17433 3.17433 2 7.05398 2H24.5146C28.3943 2 31.5685 5.17433 31.5685 9.05409V26.5147C31.5685 30.3943 28.3943 33.5687 24.5146 33.5687Z" fill="white"/>
</g>
<path d="M22.9285 12.0989V12.6019H23.7958C24.6648 12.6019 25.3728 11.7434 25.3728 10.6872V10.3286H24.383C23.5805 10.3286 22.9285 11.1223 22.9285 12.0989Z" fill="white"/>
<path d="M22.9285 17.1938V25.2379C24.2841 25.1819 25.3728 23.8439 25.3728 22.2095V14.4722H25.1988C23.9462 14.4722 22.9285 15.6936 22.9285 17.1938Z" fill="white"/>
<path d="M14.0419 10.3286H7.84621C7.99816 11.612 8.91868 12.6019 10.0294 12.6019H14.0419C16.5099 12.6019 17.8139 13.847 17.8139 16.2042V16.6468H11.8218C7.63823 16.6468 5.60547 18.0512 5.60547 20.9425C5.60547 23.8338 7.63823 25.2396 11.8218 25.2396H14.0419C18.2241 25.2396 20.2583 23.3176 20.2583 19.3626V16.2042C20.2583 12.2493 18.2241 10.3286 14.0419 10.3286ZM17.8139 19.3626C17.8139 21.7199 16.5099 22.965 14.0419 22.965H11.8218C9.31838 22.965 8.04984 22.2849 8.04984 20.9425C8.04984 19.6016 9.31838 18.9201 11.8218 18.9201H17.8139V19.3626Z" fill="white"/>
</svg>
