<svg xmlns="http://www.w3.org/2000/svg" width="19.944" height="20" viewBox="0 0 19.944 20">
  <path id="auto_fix_FILL0_wght700_GRAD0_opsz48" d="M19.237,7.062l-.97-2.139-2.161-.992,2.161-.97L19.237.8l.97,2.161,2.161.97-2.161.992Zm-11.885,0L6.4,4.923,4.222,3.931,6.4,2.961,7.353.8l.992,2.161,2.161.97-2.161.992ZM19.237,18.969l-.97-2.161-2.161-.992,2.161-.948.97-2.183.97,2.183,2.161.948-2.161.992ZM5.456,20.4,2.81,17.734a1.14,1.14,0,0,1-.386-.827,1.17,1.17,0,0,1,.386-.871l9.966-9.944a1.307,1.307,0,0,1,1.786,0l2.58,2.536a1.3,1.3,0,0,1,0,1.83L7.154,20.446a1.043,1.043,0,0,1-.838.353,1.269,1.269,0,0,1-.86-.4Zm.772-2.073,6.637-6.615L11.476,10.3,4.861,16.962Z" transform="translate(-2.424 -0.8)" fill="#fff"/>
</svg>
