<svg xmlns="http://www.w3.org/2000/svg" width="17.088" height="18.001" viewBox="0 0 17.088 18.001">
  <g id="Group_2308" data-name="Group 2308" transform="translate(19718.365 -24160.566)">
    <path id="mark_unread_chat_alt_FILL0_wght600_GRAD0_opsz48" d="M69.459-927.818h6.453v-1.237H69.459Zm0-2.68h9.9v-1.237h-9.9Zm0-2.68h8.572v.023a4.855,4.855,0,0,1-.666-.577,4.341,4.341,0,0,1-.536-.683h-7.37Zm-3.59,12.229v-15.443a1.588,1.588,0,0,1,.482-1.16,1.566,1.566,0,0,1,1.152-.485h8.951a3.683,3.683,0,0,0-.24.806,2.959,2.959,0,0,0-.032.839H67.5v11.764l1.129-1.253h12.68v-6.9a3.185,3.185,0,0,0,.886-.36,3.944,3.944,0,0,0,.759-.588v7.852a1.566,1.566,0,0,1-.485,1.152,1.589,1.589,0,0,1-1.16.482H69.168ZM67.5-936.393v0Z" transform="translate(-19784.234 25099.518)" fill="#474848"/>
    <path id="mark_unread_chat_alt_FILL0_wght600_GRAD0_opsz48-2" data-name="mark_unread_chat_alt_FILL0_wght600_GRAD0_opsz48" d="M80.819-934.289a2.258,2.258,0,0,1-1.667-.689,2.288,2.288,0,0,1-.683-1.673,2.267,2.267,0,0,1,.686-1.66A2.264,2.264,0,0,1,80.821-939a2.271,2.271,0,0,1,1.669.69,2.272,2.272,0,0,1,.689,1.667,2.269,2.269,0,0,1-.689,1.665A2.276,2.276,0,0,1,80.819-934.289Z" transform="translate(-19784.873 25099.566)" fill="#e74c3c"/>
  </g>
</svg>
