<svg xmlns="http://www.w3.org/2000/svg" width="26" height="26" viewBox="0 0 26 26">
  <g id="chicelist" transform="translate(-230.695 -318.5)">
    <rect id="Rectangle_3377" data-name="Rectangle 3377" width="26" height="26" rx="3" transform="translate(230.695 318.5)" fill="#6555c0"/>
    <path id="list_alt_FILL0_wght400_GRAD0_opsz48" d="M123.875-828.074a.619.619,0,0,0,.452-.194.619.619,0,0,0,.194-.452.619.619,0,0,0-.194-.452.619.619,0,0,0-.452-.194.619.619,0,0,0-.452.194.619.619,0,0,0-.194.452.619.619,0,0,0,.194.452A.619.619,0,0,0,123.875-828.074Zm0-3.531a.62.62,0,0,0,.452-.194.619.619,0,0,0,.194-.452.62.62,0,0,0-.194-.452.62.62,0,0,0-.452-.194.62.62,0,0,0-.452.194.62.62,0,0,0-.194.452.619.619,0,0,0,.194.452A.62.62,0,0,0,123.875-831.6Zm0-3.531a.62.62,0,0,0,.452-.194.62.62,0,0,0,.194-.452.62.62,0,0,0-.194-.452.62.62,0,0,0-.452-.194.62.62,0,0,0-.452.194.62.62,0,0,0-.194.452.62.62,0,0,0,.194.452A.62.62,0,0,0,123.875-835.135Zm2.842,7.061h5.253v-1.292h-5.253Zm0-3.531h5.253V-832.9h-5.253Zm0-3.531h5.253v-1.292h-5.253ZM121.292-824.5a1.239,1.239,0,0,1-.9-.387,1.239,1.239,0,0,1-.388-.9v-12.917a1.239,1.239,0,0,1,.388-.9,1.239,1.239,0,0,1,.9-.387h12.917a1.239,1.239,0,0,1,.9.387,1.24,1.24,0,0,1,.387.9v12.917a1.24,1.24,0,0,1-.387.9,1.239,1.239,0,0,1-.9.387Zm0-1.292h12.917v-12.917H121.292Zm0-12.917v0Z" transform="translate(115.945 1163.75)" fill="#fff"/>
  </g>
</svg>
