<svg width="20" height="15" viewBox="0 0 20 15" fill="none" xmlns="http://www.w3.org/2000/svg">
<path d="M10.0114 14.5952C8.01976 14.5952 6.30559 13.8769 4.86887 12.4401C3.43215 11.0034 2.7138 9.28924 2.7138 7.29761V6.27138L0.889396 8.09578L0 7.20638L3.39795 3.80844L6.79589 7.20638L5.9065 8.09578L4.0821 6.27138V7.29761C4.0821 8.92436 4.66363 10.3193 5.82668 11.4823C6.98974 12.6454 8.38464 13.2269 10.0114 13.2269C10.4523 13.2269 10.8704 13.1889 11.2657 13.1129C11.661 13.0369 12.0334 12.9228 12.3831 12.7708L13.3637 13.7514C12.8164 14.0555 12.2653 14.2721 11.7104 14.4014C11.1555 14.5306 10.5891 14.5952 10.0114 14.5952V14.5952ZM16.6021 10.7412L13.2041 7.34322L14.1163 6.43101L15.9179 8.23261V7.29761C15.9179 5.67085 15.3364 4.27594 14.1733 3.11288C13.0103 1.94983 11.6154 1.3683 9.9886 1.3683C9.5477 1.3683 9.12961 1.41011 8.73432 1.49373C8.33903 1.57735 7.96655 1.67997 7.61687 1.8016L6.63626 0.82098C7.18358 0.516913 7.7347 0.304067 8.28962 0.18244C8.84454 0.0608132 9.41087 0 9.9886 0C11.9802 0 13.6944 0.718358 15.1311 2.15507C16.5678 3.59179 17.2862 5.30597 17.2862 7.29761V8.27822L19.1106 6.45382L20 7.34322L16.6021 10.7412Z" fill="#3C4043"/>
</svg>
