<svg id="convert" xmlns="http://www.w3.org/2000/svg" xmlns:xlink="http://www.w3.org/1999/xlink" width="25.89" height="19" viewBox="0 0 25.89 19">
  <defs>
    <clipPath id="clip-path">
      <rect id="Rectangle_1880" data-name="Rectangle 1880" width="25.89" height="19" fill="#3c4043"/>
    </clipPath>
  </defs>
  <g id="Group_1144" data-name="Group 1144" transform="translate(0 0)" clip-path="url(#clip-path)">
    <path id="Path_2889" data-name="Path 2889" d="M12.96,19a9.18,9.18,0,0,1-6.685-2.785A9.037,9.037,0,0,1,3.46,9.559V8.239L1.2,10.5,0,9.295,4.457,4.838,8.914,9.295l-1.2,1.2L5.454,8.239v1.29a7.173,7.173,0,0,0,2.214,5.278,7.247,7.247,0,0,0,5.292,2.2,8,8,0,0,0,1.627-.161,7.411,7.411,0,0,0,1.451-.454L17.475,17.8a8.153,8.153,0,0,1-2.214.924,9.562,9.562,0,0,1-2.3.279m8.474-4.9L16.977,9.647l1.231-1.231,2.228,2.258v-1.2a7.173,7.173,0,0,0-2.214-5.278,7.247,7.247,0,0,0-5.292-2.2A7.347,7.347,0,0,0,11.3,2.17a13.466,13.466,0,0,0-1.451.41L8.415,1.173A7.8,7.8,0,0,1,10.629.264,10.078,10.078,0,0,1,12.931,0a9.157,9.157,0,0,1,6.685,2.8,9.051,9.051,0,0,1,2.815,6.641v1.29l2.258-2.287,1.2,1.2Z" transform="translate(0 0)" fill="#3c4043"/>
  </g>
</svg>
