<svg width="17" height="13" viewBox="0 0 17 13" fill="none" xmlns="http://www.w3.org/2000/svg">
<path d="M8.50969 12.4059C6.8168 12.4059 5.35975 11.7953 4.13854 10.5741C2.91733 9.35291 2.30673 7.89586 2.30673 6.20296V5.33067L0.755986 6.88141L0 6.12543L2.88826 3.23717L5.77651 6.12543L5.02052 6.88141L3.46978 5.33067V6.20296C3.46978 7.58571 3.96408 8.77138 4.95268 9.75998C5.94128 10.7486 7.12695 11.2429 8.50969 11.2429C8.88445 11.2429 9.23983 11.2106 9.57583 11.146C9.91182 11.0813 10.2284 10.9844 10.5257 10.8552L11.3592 11.6887C10.894 11.9472 10.4255 12.1313 9.95382 12.2412C9.48214 12.351 9.00076 12.4059 8.50969 12.4059ZM14.1117 9.12999L11.2235 6.24173L11.9989 5.46636L13.5302 6.99772V6.20296C13.5302 4.82022 13.0359 3.63455 12.0473 2.64595C11.0587 1.65735 9.87305 1.16306 8.49031 1.16306C8.11554 1.16306 7.76017 1.19859 7.42417 1.26967C7.08818 1.34074 6.77157 1.42797 6.47434 1.53136L5.64082 0.697833C6.10604 0.439376 6.5745 0.258457 7.04618 0.155074C7.51786 0.0516912 7.99924 0 8.49031 0C10.1832 0 11.6403 0.610604 12.8615 1.83181C14.0827 3.05302 14.6933 4.51007 14.6933 6.20296V7.03649L16.244 5.48575L17 6.24173L14.1117 9.12999Z" fill="#636363"/>
</svg>
