<svg width="14" height="14" viewBox="0 0 14 14" fill="none" xmlns="http://www.w3.org/2000/svg">
<path d="M7 12.3594C7.22652 12.3594 7.41016 12.1757 7.41016 11.9492V5.33203C7.41016 5.10552 7.22652 4.92188 7 4.92188C6.77348 4.92188 6.58984 5.10552 6.58984 5.33203V11.9492C6.58984 12.1757 6.77348 12.3594 7 12.3594Z" fill="#7E7E7E"/>
<path d="M9.46094 12.3594C9.68745 12.3594 9.87109 12.1757 9.87109 11.9492V5.33203C9.87109 5.10552 9.68745 4.92188 9.46094 4.92188C9.23442 4.92188 9.05078 5.10552 9.05078 5.33203V11.9492C9.05078 12.1757 9.23442 12.3594 9.46094 12.3594Z" fill="#7E7E7E"/>
<path d="M4.53906 12.3594C4.76558 12.3594 4.94922 12.1757 4.94922 11.9492V5.33203C4.94922 5.10552 4.76558 4.92188 4.53906 4.92188C4.31255 4.92188 4.12891 5.10552 4.12891 5.33203V11.9492C4.12891 12.1757 4.31255 12.3594 4.53906 12.3594Z" fill="#7E7E7E"/>
<path d="M1.25781 4.10156H2.48828V13.5898C2.48828 13.8164 2.67192 14 2.89844 14H11.1016C11.3281 14 11.5117 13.8164 11.5117 13.5898V4.10156H12.7422C12.9687 4.10156 13.1523 3.91792 13.1523 3.69141C13.1523 3.46489 12.9687 3.28125 12.7422 3.28125H12.332V2.05078C12.332 1.82427 12.1484 1.64062 11.9219 1.64062H9.05078V0.410156C9.05078 0.183641 8.86714 0 8.64062 0H5.35938C5.13286 0 4.94922 0.183641 4.94922 0.410156V1.64062H2.07812C1.85161 1.64062 1.66797 1.82427 1.66797 2.05078V3.28125H1.25781C1.0313 3.28125 0.847656 3.46489 0.847656 3.69141C0.847656 3.91792 1.0313 4.10156 1.25781 4.10156ZM10.6914 13.1797H3.30859V4.10156H10.6914V13.1797ZM5.76953 0.820312H8.23047V1.64062H5.76953V0.820312ZM2.48828 2.46094H11.5117V3.28125H2.48828V2.46094Z" fill="#7E7E7E"/>
</svg>
