<svg width="20" height="26" viewBox="0 0 20 26" fill="none" xmlns="http://www.w3.org/2000/svg">
<g clip-path="url(#clip0)">
<path d="M20 24.05C20 25.129 19.1067 26 18 26H2C0.893333 26 0 25.129 0 24.05V1.95C0 0.871 0.893333 0 2 0H12L20 7.15V24.05Z" fill="#DBDADA"/>
<path d="M20.0002 7.15V7.8H12.6668C12.3002 7.8 11.9668 7.657 11.7268 7.4165C11.4802 7.1825 11.3335 6.8575 11.3335 6.5V0H12.0002L20.0002 7.15Z" fill="#A4A3A3"/>
<path d="M16 13H6.66667C6.3 13 6 12.7075 6 12.35C6 11.9925 6.3 11.7 6.66667 11.7H16C16.3667 11.7 16.6667 11.9925 16.6667 12.35C16.6667 12.7075 16.3667 13 16 13Z" fill="#525252"/>
<path d="M16.0002 16.9H4.00016C3.6335 16.9 3.3335 16.6075 3.3335 16.25C3.3335 15.8925 3.6335 15.6 4.00016 15.6H16.0002C16.3668 15.6 16.6668 15.8925 16.6668 16.25C16.6668 16.6075 16.3668 16.9 16.0002 16.9Z" fill="#525252"/>
<path d="M12.0002 20.8H4.00016C3.6335 20.8 3.3335 20.5075 3.3335 20.15C3.3335 19.7925 3.6335 19.5 4.00016 19.5H12.0002C12.3668 19.5 12.6668 19.7925 12.6668 20.15C12.6668 20.5075 12.3668 20.8 12.0002 20.8Z" fill="#525252"/>
<path d="M16 20.8H14.6667C14.3 20.8 14 20.5075 14 20.15C14 19.7925 14.3 19.5 14.6667 19.5H16C16.3667 19.5 16.6667 19.7925 16.6667 20.15C16.6667 20.5075 16.3667 20.8 16 20.8Z" fill="#525252"/>
</g>
<defs>
<clipPath id="clip0">
<rect width="20" height="26" fill="white"/>
</clipPath>
</defs>
</svg>
