<svg width="25" height="25" viewBox="0 0 25 25" fill="none" xmlns="http://www.w3.org/2000/svg">
<path d="M6.67146 10.5187C6.38799 10.5187 6.1582 10.2889 6.1582 10.0054C6.1582 9.02021 6.49726 8.05375 7.11301 7.28412C7.64582 6.61807 8.36715 6.11975 9.17076 5.85676C9.34167 5.00717 9.75715 4.24016 10.3847 3.62194C11.206 2.8128 12.2932 2.36719 13.4462 2.36719C15.8519 2.36719 17.8091 4.32423 17.8091 6.72976C17.8091 7.01323 17.5793 7.24301 17.2958 7.24301C17.0123 7.24301 16.7825 7.01323 16.7825 6.72976C16.7825 4.89025 15.2858 3.3937 13.4462 3.3937C12.5646 3.3937 11.7331 3.73445 11.1051 4.35318C10.5614 4.88881 10.2259 5.5699 10.1348 6.32285C10.109 6.5359 9.95332 6.71041 9.74463 6.76034C8.2374 7.12091 7.18476 8.45532 7.18476 10.0055C7.18471 10.2888 6.95493 10.5187 6.67146 10.5187Z" fill="#0074D3"/>
<path d="M4.54158 10.2227C4.2581 10.2227 4.02832 9.99288 4.02832 9.70941C4.02832 8.82861 4.20195 7.97147 4.54445 7.16176C4.87406 6.38243 5.34497 5.68358 5.94399 5.08446C6.36861 4.65985 6.84645 4.29759 7.36653 4.0057C7.70041 3.20995 8.18497 2.49601 8.80873 1.88144C10.0401 0.668207 11.6702 0 13.3987 0C14.2789 0 15.136 0.173686 15.9462 0.516284C16.7256 0.845999 17.4244 1.31681 18.0235 1.91557C18.6225 2.51485 19.0933 3.2137 19.423 3.99287C19.7655 4.80258 19.9393 5.65962 19.9393 6.5401C19.9393 6.82358 19.7095 7.05336 19.426 7.05336C19.1426 7.05336 18.9128 6.82358 18.9128 6.5401C18.9128 5.79778 18.7663 5.07533 18.4776 4.39285C18.1997 3.73588 17.8027 3.14667 17.2977 2.64142C16.7927 2.13663 16.2035 1.73968 15.5464 1.4617C14.8634 1.17294 14.1408 1.02651 13.3987 1.02651C11.9415 1.02651 10.5672 1.58981 9.52913 2.61267C8.96373 3.16976 8.53419 3.82278 8.25246 4.5535C8.2076 4.66985 8.12189 4.76588 8.01139 4.82368C7.51774 5.08179 7.06638 5.41377 6.66984 5.81031C6.16475 6.31545 5.76774 6.90467 5.48987 7.56164C5.20121 8.24411 5.05483 8.96672 5.05483 9.70941C5.05483 9.99288 4.82505 10.2227 4.54158 10.2227Z" fill="#0074D3"/>
<path d="M13.4613 5.7726C14.0997 5.7726 14.6174 6.29022 14.6174 6.92871L14.6183 15.7732C14.6183 15.8757 14.7013 15.9587 14.8037 15.9587C14.906 15.9587 14.989 15.8757 14.989 15.7732L14.9886 15.7253C14.9886 15.144 15.5535 14.7383 16.1345 14.7383C16.7731 14.7383 17.2882 15.2559 17.2882 15.8944L17.2905 16.7417C17.2905 16.8413 17.3713 16.9221 17.471 16.9221C17.5706 16.9221 17.6514 16.8413 17.6514 16.7417L17.6507 16.6772C17.6507 16.1485 18.2228 15.7432 18.7853 15.7432C19.4237 15.7432 19.9414 16.2608 19.9414 16.8993L19.9451 19.0232C19.9451 20.9986 19.1768 23.9737 14.4476 23.9737C8.81131 23.9737 8.0598 21.1166 8.14639 18.0381C8.16728 17.2956 8.80561 16.8571 9.32739 16.8571V18.2187C9.32739 18.39 9.44616 18.4099 9.48157 18.4099C9.51699 18.4099 9.6318 18.3905 9.6318 18.2191C9.6318 18.0538 9.6318 9.61504 9.6318 9.61504C9.6318 8.9766 10.1494 8.45898 10.7879 8.45898C11.3737 8.45898 11.9332 8.81729 11.9332 9.45988C11.9336 9.46204 11.929 14.9733 11.929 14.9733C11.929 15.0773 12.0133 15.1616 12.1172 15.1616C12.2212 15.1616 12.3055 15.0773 12.3055 14.9733V6.90957C12.3159 6.27996 12.8292 5.7726 13.4613 5.7726ZM13.4613 4.74609C12.8846 4.74609 12.3406 4.969 11.9299 5.37375C11.5197 5.77784 11.2886 6.31732 11.2792 6.89284L11.2791 6.9012V6.90957V7.48216C11.1197 7.44936 10.955 7.43247 10.788 7.43247C9.58453 7.43247 8.60545 8.41156 8.60545 9.61504V15.9617C7.82591 16.2458 7.14944 16.9766 7.12039 18.0092C7.07512 19.6199 7.20806 21.6588 8.6502 23.1421C9.86585 24.3924 11.7622 25.0002 14.4477 25.0002C16.8683 25.0002 18.6607 24.2855 19.7751 22.8759C20.5579 21.8857 20.9717 20.5536 20.9717 19.0233L20.968 16.8975C20.968 15.6958 19.9889 14.7167 18.7854 14.7167C18.5323 14.7167 18.2813 14.7594 18.0436 14.8409C17.6718 14.1682 16.9554 13.7117 16.1346 13.7117C15.9662 13.7117 15.8022 13.7296 15.6447 13.7634L15.6439 6.92861C15.6439 5.72523 14.6648 4.74609 13.4613 4.74609Z" fill="black"/>
</svg>
