<svg xmlns="http://www.w3.org/2000/svg" xmlns:xlink="http://www.w3.org/1999/xlink" width="66.902" height="46.885" viewBox="0 0 66.902 46.885"><defs><style>.a{fill:url(#a);}.b{fill:url(#b);}</style><linearGradient id="a" x1="0.462" y1="-0.01" x2="0.511" y2="0.716" gradientUnits="objectBoundingBox"><stop offset="0" stop-color="#45c5ff"/><stop offset="1" stop-color="#007adf"/></linearGradient><linearGradient id="b" x1="0.5" y1="0.062" x2="0.5" y2="1.109" gradientUnits="objectBoundingBox"><stop offset="0" stop-color="#85e9ff"/><stop offset="1" stop-color="#12b4fd"/></linearGradient></defs><g transform="translate(-50.554 -40.229)"><path class="a" d="M100.548,44.122a4.118,4.118,0,0,0-4.112-3.893h-42.3a3.24,3.24,0,0,0-2.627,1.56,6.038,6.038,0,0,0-.948,3.683l2.283,41.642H102.9Z"/><path class="b" d="M111.853,102.682H57.132l8.117-29.1H96.612s.428-1.534.938-3.362a7.934,7.934,0,0,1,7.66-6.036H119.2a2.5,2.5,0,0,1,2,1.1,2.777,2.777,0,0,1,.437,2.326C119.007,77.035,111.853,102.682,111.853,102.682Z" transform="translate(-4.275 -15.568)"/></g></svg>