<svg width="77" height="77" viewBox="0 0 77 77" fill="none" xmlns="http://www.w3.org/2000/svg">
<path opacity="0.2" d="M38.254 76.508C59.3811 76.508 76.508 59.3811 76.508 38.254C76.508 17.1269 59.3811 0 38.254 0C17.1269 0 0 17.1269 0 38.254C0 59.3811 17.1269 76.508 38.254 76.508Z" fill="url(#paint0_linear)"/>
<path opacity="0.2" d="M38.2536 69.7396C55.6428 69.7396 69.7396 55.6428 69.7396 38.2536C69.7396 20.8643 55.6428 6.76758 38.2536 6.76758C20.8643 6.76758 6.76758 20.8643 6.76758 38.2536C6.76758 55.6428 20.8643 69.7396 38.2536 69.7396Z" fill="url(#paint1_linear)"/>
<path d="M38.2533 62.6864C51.7479 62.6864 62.6873 51.7469 62.6873 38.2524C62.6873 24.7578 51.7479 13.8184 38.2533 13.8184C24.7588 13.8184 13.8193 24.7578 13.8193 38.2524C13.8193 51.7469 24.7588 62.6864 38.2533 62.6864Z" fill="url(#paint2_linear)"/>
<path fill-rule="evenodd" clip-rule="evenodd" d="M50.8172 30.1988C52.0316 29.0716 52.1022 27.1734 50.975 25.9591C49.8478 24.7447 47.9497 24.6741 46.7353 25.8013L38.3881 33.5494L30.041 25.8013C28.8266 24.6741 26.9285 24.7447 25.8013 25.9591C24.6741 27.1734 24.7447 29.0716 25.9591 30.1988L33.9784 37.6426L25.9591 45.0865C24.7447 46.2137 24.6741 48.1119 25.8013 49.3262C26.9285 50.5406 28.8266 50.6112 30.041 49.484L38.3881 41.7359L46.7353 49.484C47.9497 50.6112 49.8478 50.5406 50.975 49.3262C52.1022 48.1119 52.0316 46.2137 50.8172 45.0865L42.7978 37.6426L50.8172 30.1988Z" fill="white"/>
<defs>
<linearGradient id="paint0_linear" x1="0" y1="38.254" x2="76.508" y2="38.254" gradientUnits="userSpaceOnUse">
<stop stop-color="#0078D4"/>
<stop offset="1" stop-color="#00B1FF"/>
</linearGradient>
<linearGradient id="paint1_linear" x1="6.76758" y1="38.2536" x2="69.7396" y2="38.2536" gradientUnits="userSpaceOnUse">
<stop stop-color="#0078D4"/>
<stop offset="1" stop-color="#00B1FF"/>
</linearGradient>
<linearGradient id="paint2_linear" x1="38.2533" y1="62.6864" x2="38.2533" y2="13.8184" gradientUnits="userSpaceOnUse">
<stop stop-color="#0078D4"/>
<stop offset="1" stop-color="#00B1FF"/>
</linearGradient>
</defs>
</svg>
