<svg width="58" height="43" viewBox="0 0 58 43" fill="none" xmlns="http://www.w3.org/2000/svg">
<path d="M52.9788 7.34083C52.9788 5.41169 51.4348 3.84564 49.5328 3.84564H22.6465V7.34083H52.9788Z" fill="#3C9BFA"/>
<path fill-rule="evenodd" clip-rule="evenodd" d="M19.6926 0H7.97552C5.563 0 4.87504 1.04824 4.87504 3.14472V6.25787C4.87504 6.85461 4.39877 7.34085 3.80731 7.34085C1.4695 7.34085 -0.314202 9.45627 0.0468975 11.799L4.36764 39.7385C4.65714 41.6171 6.25407 43 8.12805 43H49.8724C51.7463 43 53.3402 41.6171 53.6328 39.7385L57.9535 11.799C58.3146 9.45627 56.5309 7.34085 54.1931 7.34085H28.8881C27.6585 7.34085 26.5068 6.73779 25.7908 5.72428L23.3689 2.28277C23.2818 2.15647 23.2008 2.02702 23.1168 1.90073C22.7681 1.38292 21.6537 0 19.6926 0Z" fill="#74B9FF"/>
<path d="M37.7037 22.9382C36.8601 18.5715 33.0966 15.2753 28.5766 15.2753C24.9905 15.2753 21.8807 17.3591 20.3243 20.3997C16.595 20.8133 13.6844 24.0432 13.6844 27.9741C13.6844 32.1829 17.0183 35.5928 21.1305 35.5928H37.2679C40.6921 35.5928 43.472 32.7481 43.472 29.2434C43.4688 25.8903 40.9194 23.175 37.7037 22.9382ZM31.0576 26.7049V31.7851H26.0956V26.7049H22.3726L28.5766 20.3555L34.7807 26.7049H31.0576Z" fill="#CFE9FF"/>
</svg>
