<svg id="Instant_translate-_menu" data-name="Instant translate- menu" xmlns="http://www.w3.org/2000/svg" width="22.904" height="19.473" viewBox="0 0 22.904 19.473">
  <path id="Path_4398" data-name="Path 4398" d="M45.139,36.018H39.164a.922.922,0,0,1-.667-.281.9.9,0,0,1-.286-.662V30.043a.977.977,0,0,1,.952-.952H45.8a.892.892,0,0,1,.667.286.929.929,0,0,1,.276.667v7.579Z" transform="translate(-23.839 -18.149)" fill="#ffd243"/>
  <path id="Path_4399" data-name="Path 4399" d="M16.568,15.4H2.233A2.233,2.233,0,0,1,0,13.167V2.233A2.232,2.232,0,0,1,2.233,0H16.568A2.233,2.233,0,0,1,18.8,2.233V13.167A2.233,2.233,0,0,1,16.568,15.4" fill="#ff5556"/>
  <path id="Path_4400" data-name="Path 4400" d="M24.152,12.992,19.566,19.35a.4.4,0,0,1-.326.156.4.4,0,0,1-.169-.039.388.388,0,0,1-.208-.456L19.97,14.92H18a.376.376,0,0,1-.339-.209.406.406,0,0,1,.013-.4l4.065-6.345a.4.4,0,0,1,.469-.156.4.4,0,0,1,.248.43L21.82,12.38h2.019a.4.4,0,0,1,.352.208A.409.409,0,0,1,24.152,12.992Z" transform="translate(-11.55 -5.848)" fill="#fff"/>
  <path id="Path_4401" data-name="Path 4401" d="M42.643,29.094v2.223a2.235,2.235,0,0,1-2.234,2.234H38.216V30.046a.977.977,0,0,1,.952-.952Z" transform="translate(-23.841 -18.151)" fill="#ff2e0f"/>
</svg>
