<svg width="179" height="63" viewBox="0 0 179 63" fill="none" xmlns="http://www.w3.org/2000/svg">
<g clip-path="url(#clip0_2594_236)">
<g filter="url(#filter0_d_2594_236)">
<path d="M80.3685 39.167L79.3275 36.429H70.4606L69.4185 39.2291C69.165 40.0059 68.8154 40.748 68.3776 41.438C68.2052 41.6398 67.9868 41.7971 67.7409 41.8968C67.495 41.9965 67.2287 42.0357 66.9645 42.011C66.6909 42.0116 66.4199 41.958 66.1671 41.8533C65.9142 41.7486 65.6846 41.5949 65.4915 41.4011C65.2935 41.2284 65.1342 41.0158 65.0239 40.7773C64.9136 40.5388 64.8549 40.2797 64.8516 40.017C64.8541 39.7036 64.9043 39.3924 65.0005 39.094C65.0999 38.7767 65.2635 38.3353 65.4915 37.77L71.0706 23.606L71.6436 22.141C71.8299 21.6432 72.0693 21.1667 72.3575 20.72C72.6139 20.3403 72.9566 20.0267 73.3575 19.805C73.8269 19.558 74.3525 19.4374 74.8826 19.455C75.4176 19.4363 75.9482 19.5569 76.4225 19.805C76.8205 20.0244 77.1626 20.3323 77.4225 20.705C77.6773 21.0755 77.8919 21.472 78.0626 21.888C78.2359 22.31 78.4565 22.873 78.7245 23.577L84.4246 37.652C84.7805 38.3863 85.0069 39.1766 85.0936 39.988C85.0881 40.2507 85.0292 40.5095 84.9203 40.7487C84.8115 40.9879 84.6551 41.2023 84.4606 41.379C84.263 41.5829 84.0258 41.7443 83.7635 41.853C83.5012 41.9617 83.2194 42.0155 82.9355 42.011C82.6275 42.0195 82.3217 41.9557 82.0425 41.825C81.7992 41.7049 81.5856 41.5321 81.4175 41.319C81.1975 41.0148 81.0152 40.685 80.8746 40.337C80.6759 39.8943 80.5072 39.5044 80.3685 39.167ZM71.6205 33.112H78.1376L74.8495 24.112L71.6205 33.112Z" fill="white"/>
</g>
<path d="M90.0914 23.6059C89.5599 23.6184 89.0426 23.4327 88.6404 23.0849C88.4483 22.8957 88.296 22.6698 88.1925 22.4208C88.089 22.1717 88.0364 21.9045 88.0378 21.6348C88.0392 21.3651 88.0946 21.0984 88.2007 20.8505C88.3068 20.6025 88.4613 20.3782 88.6554 20.1909C89.0447 19.8275 89.5589 19.6278 90.0914 19.6329C90.6038 19.6277 91.1008 19.8073 91.4915 20.1389C91.6994 20.3211 91.8626 20.5487 91.9684 20.8042C92.0742 21.0596 92.1197 21.336 92.1014 21.6119C92.1156 21.8854 92.0691 22.1587 91.9653 22.4121C91.8616 22.6655 91.7033 22.8929 91.5015 23.078C91.115 23.4257 90.6112 23.6143 90.0914 23.6059V23.6059ZM92.1005 27.8059V39.5449C92.1492 40.2113 91.9417 40.8712 91.5204 41.3899C91.3341 41.5937 91.1062 41.7551 90.8521 41.8629C90.5979 41.9708 90.3234 42.0226 90.0474 42.0149C89.773 42.0235 89.5004 41.9705 89.2493 41.8597C88.9982 41.749 88.775 41.5834 88.5964 41.375C88.1933 40.8535 87.9949 40.2026 88.0385 39.5449V27.9249C87.9898 27.2713 88.189 26.6234 88.5964 26.11C88.7796 25.9092 89.0042 25.7506 89.2548 25.6453C89.5053 25.5399 89.7758 25.4904 90.0474 25.5C90.322 25.4919 90.5954 25.5421 90.8492 25.6472C91.1031 25.7523 91.3319 25.9101 91.5204 26.11C91.9277 26.5759 92.136 27.183 92.1005 27.8009V27.8059Z" fill="white"/>
<g filter="url(#filter1_d_2594_236)">
<path d="M96.304 39.538V21.9171C96.2562 21.2567 96.4491 20.6013 96.847 20.0721C97.029 19.8649 97.2553 19.701 97.509 19.5929C97.7627 19.4847 98.0374 19.4349 98.3129 19.4471C98.5908 19.4362 98.8678 19.4857 99.1247 19.5922C99.3816 19.6988 99.6123 19.8597 99.801 20.0641C100.215 20.5886 100.417 21.2497 100.366 21.9161V39.5321C100.417 40.1997 100.212 40.8617 99.7929 41.384C99.6049 41.587 99.3756 41.7473 99.1202 41.8537C98.8648 41.9602 98.5895 42.0104 98.3129 42.0011C98.0386 42.0096 97.7659 41.9565 97.5148 41.8458C97.2637 41.735 97.0407 41.5694 96.862 41.361C96.4605 40.8415 96.2622 40.1934 96.304 39.538V39.538Z" fill="white"/>
</g>
<g filter="url(#filter2_d_2594_236)">
<path d="M114.824 39.7131C113.955 40.4099 112.997 40.988 111.975 41.4321C110.994 41.826 109.945 42.0208 108.888 42.0051C107.936 42.0257 106.994 41.814 106.143 41.3882C105.391 41.0108 104.76 40.431 104.321 39.7142C103.898 39.0251 103.677 38.2316 103.681 37.4232C103.657 36.3758 104.035 35.3588 104.737 34.5812C105.51 33.7592 106.527 33.2065 107.637 33.0041C107.895 32.9448 108.534 32.8115 109.556 32.6041C110.577 32.3968 111.452 32.2058 112.182 32.0311C112.911 31.8578 113.702 31.6472 114.555 31.3992C114.575 30.5667 114.35 29.7465 113.908 29.0411C113.593 28.7473 113.217 28.5275 112.806 28.3976C112.396 28.2677 111.961 28.2309 111.535 28.2902C110.735 28.2433 109.936 28.3912 109.207 28.7212C108.66 29.0342 108.199 29.4789 107.868 30.0151C107.624 30.4075 107.361 30.7874 107.079 31.1532C106.941 31.2643 106.783 31.3459 106.612 31.3932C106.442 31.4405 106.264 31.4525 106.089 31.4282C105.653 31.436 105.231 31.2792 104.906 30.9891C104.744 30.851 104.615 30.6785 104.529 30.4842C104.442 30.29 104.4 30.0788 104.406 29.8662C104.422 29.1071 104.689 28.3746 105.165 27.7832C105.788 27.0239 106.606 26.4481 107.531 26.1172C108.81 25.6449 110.168 25.4225 111.531 25.4622C112.961 25.405 114.39 25.6195 115.741 26.0942C116.695 26.4535 117.472 27.1711 117.906 28.0942C118.372 29.2457 118.587 30.4831 118.538 31.7242C118.538 32.6762 118.535 33.4845 118.531 34.1492C118.526 34.8138 118.519 35.5529 118.509 36.3662C118.516 37.1766 118.644 37.9814 118.888 38.7541C119.072 39.272 119.199 39.8086 119.267 40.3541C119.259 40.5755 119.202 40.7924 119.1 40.9891C118.999 41.1859 118.855 41.3577 118.679 41.4922C118.315 41.8236 117.839 42.0065 117.347 42.0051C116.874 41.9793 116.43 41.7681 116.112 41.4172C115.614 40.9043 115.182 40.3318 114.824 39.7131V39.7131ZM114.556 33.8362C113.705 34.1236 112.837 34.3548 111.956 34.5282C110.822 34.7715 110.036 34.9502 109.598 35.0642C109.136 35.1915 108.709 35.4203 108.348 35.7341C108.148 35.9046 107.99 36.1187 107.886 36.3599C107.782 36.601 107.735 36.8629 107.748 37.1252C107.744 37.4219 107.805 37.7157 107.926 37.9867C108.047 38.2577 108.225 38.4994 108.448 38.6952C108.951 39.1402 109.607 39.3722 110.278 39.3422C111.051 39.3494 111.814 39.1682 112.502 38.8142C113.124 38.5171 113.646 38.0438 114.002 37.4531C114.437 36.5038 114.627 35.4601 114.553 34.4182L114.556 33.8362Z" fill="white"/>
</g>
<g filter="url(#filter3_d_2594_236)">
<path d="M126.011 42.5248L126.383 41.6168L121.383 29.0298C121.138 28.5352 120.982 28.0014 120.922 27.4527C120.92 27.1118 121.013 26.7772 121.19 26.4858C121.369 26.1877 121.622 25.9416 121.926 25.7718C122.221 25.5978 122.557 25.5053 122.9 25.5038C123.149 25.4866 123.398 25.5282 123.628 25.6251C123.858 25.722 124.062 25.8716 124.224 26.0617C124.578 26.5451 124.845 27.0867 125.013 27.6618L128.45 37.6618L131.708 28.3618C131.906 27.7582 132.14 27.1668 132.408 26.5908C132.548 26.2496 132.776 25.9518 133.07 25.7278C133.372 25.5621 133.715 25.4848 134.059 25.5047C134.37 25.5057 134.676 25.5903 134.944 25.7497C135.219 25.9058 135.446 26.135 135.599 26.4118C135.75 26.6797 135.83 26.9821 135.83 27.2898C135.79 27.4784 135.725 27.7452 135.636 28.0898C135.546 28.4345 135.437 28.7864 135.309 29.1457L130.009 43.0128C129.657 44.0111 129.208 44.9727 128.67 45.8838C128.248 46.5646 127.649 47.1177 126.937 47.4837C126.024 47.8954 125.028 48.0865 124.028 48.0417C123.118 48.0863 122.209 47.9549 121.35 47.6548C121.07 47.5451 120.832 47.3489 120.671 47.0947C120.511 46.8405 120.435 46.5417 120.457 46.2418C120.444 46.0419 120.476 45.8418 120.549 45.6554C120.622 45.469 120.736 45.3009 120.881 45.1628C121.239 44.8856 121.686 44.7506 122.138 44.7838C122.354 44.7835 122.57 44.8135 122.778 44.8728C122.997 44.9272 123.221 44.9571 123.447 44.9618C123.824 44.9794 124.201 44.9082 124.547 44.7538C124.848 44.5823 125.097 44.333 125.269 44.0318C125.554 43.549 125.802 43.0452 126.011 42.5248V42.5248Z" fill="white"/>
</g>
<g filter="url(#filter4_d_2594_236)">
<path d="M151.457 36.703C151.505 37.7315 151.214 38.7473 150.63 39.5949C150.046 40.4426 149.2 41.0755 148.221 41.3969C146.973 41.839 145.654 42.0485 144.33 42.015C143.048 42.0474 141.773 41.8194 140.581 41.3449C139.678 41.0009 138.882 40.4232 138.275 39.671C137.814 39.0981 137.553 38.3902 137.531 37.655C137.528 37.4416 137.569 37.2298 137.651 37.0327C137.733 36.8356 137.854 36.6574 138.007 36.509C138.165 36.3517 138.354 36.2283 138.561 36.1465C138.768 36.0646 138.99 36.026 139.212 36.0331C139.568 36.0095 139.918 36.1213 140.195 36.346C140.458 36.6017 140.68 36.8981 140.85 37.224C141.204 37.8815 141.718 38.4394 142.345 38.846C143.072 39.2387 143.892 39.4241 144.717 39.382C145.424 39.4117 146.123 39.222 146.717 38.839C146.941 38.7142 147.13 38.535 147.267 38.318C147.403 38.1009 147.483 37.853 147.498 37.597C147.52 37.2873 147.455 36.9776 147.312 36.7021C147.169 36.4266 146.953 36.1958 146.687 36.035C145.846 35.5981 144.947 35.2826 144.017 35.098C142.851 34.8266 141.708 34.4611 140.601 34.005C139.792 33.6723 139.071 33.1553 138.497 32.495C137.963 31.8474 137.682 31.0279 137.707 30.1889C137.711 29.3641 137.965 28.56 138.436 27.883C138.976 27.115 139.721 26.5144 140.586 26.15C141.67 25.6917 142.84 25.4712 144.017 25.503C144.971 25.4916 145.923 25.6015 146.851 25.83C147.593 26.0075 148.302 26.3039 148.95 26.708C149.456 27.0224 149.892 27.4377 150.231 27.9279C150.502 28.3116 150.655 28.767 150.669 29.237C150.677 29.4503 150.639 29.6627 150.558 29.8602C150.477 30.0577 150.355 30.2359 150.2 30.383C149.832 30.7004 149.354 30.8604 148.868 30.8289C148.483 30.8396 148.106 30.7131 147.804 30.472C147.435 30.151 147.099 29.792 146.804 29.401C146.509 29.0149 146.14 28.6913 145.718 28.4489C145.192 28.1858 144.606 28.0629 144.018 28.092C143.376 28.0679 142.74 28.2308 142.189 28.561C141.975 28.6738 141.794 28.8413 141.666 29.0465C141.538 29.2517 141.467 29.4872 141.46 29.729C141.457 29.9342 141.504 30.137 141.598 30.3198C141.691 30.5026 141.828 30.6599 141.996 30.778C142.432 31.0887 142.921 31.3181 143.439 31.455C144.043 31.6337 144.877 31.852 145.939 32.11C147.009 32.3487 148.045 32.7182 149.025 33.2099C149.74 33.5654 150.361 34.0824 150.841 34.7199C151.251 35.2989 151.467 35.9933 151.457 36.703V36.703Z" fill="white"/>
</g>
<g filter="url(#filter5_d_2594_236)">
<path d="M165.153 39.7131C164.284 40.41 163.326 40.988 162.304 41.4321C161.323 41.826 160.274 42.0208 159.217 42.0051C158.265 42.0258 157.323 41.8141 156.472 41.3882C155.72 41.0109 155.089 40.4311 154.649 39.7142C154.226 39.0251 154.005 38.2316 154.009 37.4232C153.985 36.3758 154.363 35.3588 155.065 34.5812C155.838 33.7591 156.854 33.2064 157.965 33.0041C158.223 32.9448 158.863 32.8115 159.884 32.6041C160.905 32.3968 161.781 32.2058 162.51 32.0311C163.239 31.8578 164.03 31.6472 164.883 31.3992C164.904 30.5667 164.678 29.7465 164.236 29.0411C163.921 28.7473 163.545 28.5275 163.134 28.3976C162.724 28.2677 162.289 28.2309 161.863 28.2902C161.063 28.2433 160.265 28.3912 159.535 28.7212C158.988 29.0342 158.527 29.479 158.196 30.0151C157.952 30.4076 157.689 30.7874 157.407 31.1532C157.27 31.2642 157.111 31.3458 156.941 31.3931C156.771 31.4404 156.593 31.4524 156.418 31.4282C155.982 31.436 155.56 31.2792 155.235 30.9891C155.073 30.851 154.944 30.6785 154.858 30.4842C154.771 30.29 154.729 30.0788 154.735 29.8662C154.751 29.1071 155.018 28.3746 155.494 27.7832C156.117 27.024 156.935 26.4481 157.86 26.1172C159.139 25.6449 160.497 25.4226 161.86 25.4622C163.291 25.405 164.719 25.6195 166.07 26.0942C167.024 26.4536 167.801 27.1711 168.235 28.0942C168.701 29.2457 168.916 30.4831 168.867 31.7242C168.867 32.6762 168.865 33.4845 168.86 34.1492C168.855 34.8138 168.848 35.5529 168.838 36.3662C168.845 37.1766 168.973 37.9814 169.217 38.7541C169.401 39.2721 169.528 39.8086 169.596 40.3541C169.588 40.5755 169.531 40.7924 169.429 40.9891C169.328 41.1859 169.184 41.3577 169.008 41.4922C168.644 41.8234 168.169 42.0064 167.677 42.0051C167.204 41.9793 166.76 41.7681 166.442 41.4172C165.944 40.9043 165.511 40.3319 165.153 39.7131V39.7131ZM164.885 33.8362C164.034 34.1237 163.166 34.3549 162.285 34.5282C161.152 34.7715 160.366 34.9502 159.927 35.0642C159.465 35.1915 159.038 35.4203 158.677 35.7341C158.478 35.905 158.321 36.1193 158.218 36.3605C158.115 36.6016 158.068 36.8633 158.082 37.1252C158.079 37.4219 158.139 37.7157 158.26 37.9867C158.381 38.2577 158.559 38.4994 158.782 38.6952C159.285 39.1402 159.941 39.3722 160.612 39.3422C161.385 39.3494 162.148 39.1682 162.836 38.8142C163.458 38.517 163.98 38.0438 164.336 37.4531C164.771 36.5037 164.96 35.46 164.886 34.4182L164.885 33.8362Z" fill="white"/>
</g>
<g filter="url(#filter6_d_2594_236)">
<path d="M43.6028 9H18.9628C16.3253 9.00765 13.798 10.0586 11.9327 11.9235C10.0675 13.7883 9.01599 16.3155 9.00781 18.953V43.593C9.01599 46.2305 10.0675 48.7577 11.9327 50.6226C13.798 52.4874 16.3253 53.5384 18.9628 53.546H43.6028C46.2402 53.5384 48.7673 52.4873 50.6322 50.6224C52.4971 48.7575 53.5482 46.2304 53.5558 43.593V18.953C53.5482 16.3157 52.4971 13.7885 50.6322 11.9236C48.7673 10.0587 46.2402 9.00765 43.6028 9ZM37.5958 33.5C37.5958 39.08 34.7248 41.793 28.8238 41.793H25.6908C19.7908 41.793 16.9188 39.808 16.9188 35.728C16.9188 31.648 19.7878 29.667 25.6908 29.667H34.1478V29.042C34.1478 25.716 32.3068 23.958 28.8238 23.958H23.1628C22.347 23.8899 21.584 23.5267 21.0168 22.9363C20.4496 22.3459 20.1172 21.5689 20.0818 20.751H28.8238C34.7238 20.751 37.5958 23.462 37.5958 29.042V33.5ZM44.8138 41.79C42.9008 41.711 41.3638 39.822 41.3638 37.515V26.6H41.6088C43.3768 26.6 44.8138 28.322 44.8138 30.439V41.79ZM44.8138 23.959H43.5898C42.9393 23.8897 42.3418 23.5681 41.9257 23.0634C41.5095 22.5586 41.3078 21.9108 41.3638 21.259V20.754H42.7638C43.3651 20.8192 43.9168 21.1174 44.3007 21.5848C44.6845 22.0522 44.8698 22.6516 44.8168 23.254L44.8138 23.959Z" fill="url(#paint0_linear_2594_236)"/>
</g>
<path d="M28.8171 20.7578H20.0751C20.1104 21.5757 20.4429 22.3526 21.0101 22.943C21.5773 23.5334 22.3402 23.8966 23.1561 23.9647H28.8171C32.3001 23.9647 34.1411 25.7227 34.1411 29.0487V29.6737H25.6861C19.7861 29.6737 16.9141 31.6567 16.9141 35.7347C16.9141 39.8127 19.7831 41.7998 25.6861 41.7998H28.8191C34.7191 41.7998 37.5911 39.0867 37.5911 33.5067V29.0487C37.5861 23.4667 34.7181 20.7578 28.8171 20.7578ZM34.1411 33.5067C34.1411 36.8327 32.3001 38.5897 28.8171 38.5897H25.6861C22.1541 38.5897 20.3641 37.6317 20.3641 35.7347C20.3641 33.8377 22.1541 32.8828 25.6861 32.8828H34.1431L34.1411 33.5067Z" fill="url(#paint1_linear_2594_236)"/>
<path d="M44.8108 23.2539V23.9629H43.5868C42.9362 23.8936 42.3387 23.572 41.9226 23.0673C41.5064 22.5625 41.3047 21.9146 41.3608 21.2628V20.7578H42.7608C43.3608 20.8237 43.9111 21.1218 44.2942 21.5883C44.6773 22.0547 44.8627 22.6526 44.8108 23.2539V23.2539Z" fill="url(#paint2_linear_2594_236)"/>
<path d="M44.8094 30.4406V41.7936C42.8964 41.7146 41.3594 39.8256 41.3594 37.5186V26.6016H41.6044C43.3724 26.6016 44.8094 28.3236 44.8094 30.4406Z" fill="url(#paint3_linear_2594_236)"/>
<path d="M44.8108 23.2617V23.9707H43.5868C42.9362 23.9014 42.3387 23.5799 41.9226 23.0751C41.5064 22.5703 41.3047 21.9224 41.3608 21.2706V20.7656H42.7608C43.3608 20.8316 43.9111 21.1296 44.2942 21.5961C44.6773 22.0625 44.8627 22.6604 44.8108 23.2617V23.2617Z" fill="white"/>
<path d="M44.8094 30.4406V41.7936C42.8964 41.7146 41.3594 39.8256 41.3594 37.5186V26.6016H41.6044C43.3724 26.6016 44.8094 28.3236 44.8094 30.4406Z" fill="white"/>
<path d="M28.8171 20.7578H20.0751C20.1104 21.5757 20.4429 22.3526 21.0101 22.943C21.5773 23.5334 22.3402 23.8966 23.1561 23.9647H28.8171C32.3001 23.9647 34.1411 25.7227 34.1411 29.0487V29.6737H25.6861C19.7861 29.6737 16.9141 31.6567 16.9141 35.7347C16.9141 39.8127 19.7831 41.7998 25.6861 41.7998H28.8191C34.7191 41.7998 37.5911 39.0867 37.5911 33.5067V29.0487C37.5861 23.4667 34.7181 20.7578 28.8171 20.7578ZM34.1411 33.5067C34.1411 36.8327 32.3001 38.5897 28.8171 38.5897H25.6861C22.1541 38.5897 20.3641 37.6317 20.3641 35.7347C20.3641 33.8377 22.1541 32.8828 25.6861 32.8828H34.1431L34.1411 33.5067Z" fill="white"/>
<path d="M34.1384 32.8828V33.5068C34.1384 36.8328 32.2973 38.5889 28.8143 38.5889H25.6813C22.1493 38.5889 20.3594 37.6309 20.3594 35.7349C20.3594 33.8389 22.1493 32.8828 25.6813 32.8828H34.1384Z" fill="url(#paint4_linear_2594_236)"/>
<path d="M43.595 53.55H18.955C16.3173 53.5425 13.7898 52.4914 11.9245 50.6264C10.0592 48.7613 9.00784 46.2339 9 43.5962L9 18.955C9.00751 16.3171 10.0588 13.7894 11.9241 11.9241C13.7894 10.0588 16.3171 9.00751 18.955 9H43.595C46.2329 9.00751 48.7606 10.0588 50.6259 11.9241C52.4912 13.7894 53.5425 16.3171 53.55 18.955V43.595C53.5425 46.2329 52.4912 48.7606 50.6259 50.6259C48.7606 52.4912 46.2329 53.5425 43.595 53.55" fill="#0078D4"/>
<path d="M41.3567 23.2408V23.9503H42.5812C43.2323 23.8811 43.8304 23.5595 44.247 23.0544C44.6637 22.5493 44.8658 21.901 44.81 21.2486V20.7422H43.4133C42.8122 20.8073 42.2606 21.1054 41.8768 21.5725C41.493 22.0396 41.3076 22.6386 41.3604 23.2408" fill="white"/>
<path d="M41.3655 30.4358V41.7876C42.3764 41.6477 43.296 41.1278 43.9369 40.3337C44.5778 39.5395 44.8919 38.5309 44.8151 37.5133V26.5938H44.5675C43.6371 26.6864 42.7802 27.1404 42.181 27.8582C41.5818 28.5759 41.2881 29.5001 41.3631 30.4321" fill="white"/>
<path d="M28.8151 20.7537H20.0723C20.1079 21.5716 20.4404 22.3485 21.0074 22.9389C21.5744 23.5294 22.3372 23.8931 23.1529 23.9619H28.8151C32.2982 23.9619 34.1393 25.7189 34.1393 29.0459V29.665H25.6788C19.7751 29.665 16.9062 31.6461 16.9062 35.7321C16.9062 39.8181 19.7751 41.7992 25.6788 41.7992H28.8114C34.7139 41.7992 37.584 39.0863 37.584 33.5033V29.0459C37.584 23.4641 34.7126 20.75 28.8114 20.75L28.8151 20.7537ZM34.1356 33.5033C34.1356 36.8304 32.2957 38.5873 28.8114 38.5873H25.6788C22.1463 38.5873 20.3546 37.6277 20.3546 35.7333C20.3546 33.8389 22.145 32.8793 25.6788 32.8793H34.1356V33.5033Z" fill="white"/>
</g>
<defs>
<filter id="filter0_d_2594_236" x="58.8516" y="16.4531" width="32.2422" height="34.5625" filterUnits="userSpaceOnUse" color-interpolation-filters="sRGB">
<feFlood flood-opacity="0" result="BackgroundImageFix"/>
<feColorMatrix in="SourceAlpha" type="matrix" values="0 0 0 0 0 0 0 0 0 0 0 0 0 0 0 0 0 0 127 0" result="hardAlpha"/>
<feOffset dy="3"/>
<feGaussianBlur stdDeviation="3"/>
<feColorMatrix type="matrix" values="0 0 0 0 0 0 0 0 0 0 0 0 0 0 0 0 0 0 0.161 0"/>
<feBlend mode="normal" in2="BackgroundImageFix" result="effect1_dropShadow_2594_236"/>
<feBlend mode="normal" in="SourceGraphic" in2="effect1_dropShadow_2594_236" result="shape"/>
</filter>
<filter id="filter1_d_2594_236" x="90.2969" y="16.4453" width="16.0781" height="34.5547" filterUnits="userSpaceOnUse" color-interpolation-filters="sRGB">
<feFlood flood-opacity="0" result="BackgroundImageFix"/>
<feColorMatrix in="SourceAlpha" type="matrix" values="0 0 0 0 0 0 0 0 0 0 0 0 0 0 0 0 0 0 127 0" result="hardAlpha"/>
<feOffset dy="3"/>
<feGaussianBlur stdDeviation="3"/>
<feColorMatrix type="matrix" values="0 0 0 0 0 0 0 0 0 0 0 0 0 0 0 0 0 0 0.161 0"/>
<feBlend mode="normal" in2="BackgroundImageFix" result="effect1_dropShadow_2594_236"/>
<feBlend mode="normal" in="SourceGraphic" in2="effect1_dropShadow_2594_236" result="shape"/>
</filter>
<filter id="filter2_d_2594_236" x="97.6797" y="22.4531" width="27.5859" height="28.5547" filterUnits="userSpaceOnUse" color-interpolation-filters="sRGB">
<feFlood flood-opacity="0" result="BackgroundImageFix"/>
<feColorMatrix in="SourceAlpha" type="matrix" values="0 0 0 0 0 0 0 0 0 0 0 0 0 0 0 0 0 0 127 0" result="hardAlpha"/>
<feOffset dy="3"/>
<feGaussianBlur stdDeviation="3"/>
<feColorMatrix type="matrix" values="0 0 0 0 0 0 0 0 0 0 0 0 0 0 0 0 0 0 0.161 0"/>
<feBlend mode="normal" in2="BackgroundImageFix" result="effect1_dropShadow_2594_236"/>
<feBlend mode="normal" in="SourceGraphic" in2="effect1_dropShadow_2594_236" result="shape"/>
</filter>
<filter id="filter3_d_2594_236" x="114.453" y="22.5" width="27.375" height="34.5469" filterUnits="userSpaceOnUse" color-interpolation-filters="sRGB">
<feFlood flood-opacity="0" result="BackgroundImageFix"/>
<feColorMatrix in="SourceAlpha" type="matrix" values="0 0 0 0 0 0 0 0 0 0 0 0 0 0 0 0 0 0 127 0" result="hardAlpha"/>
<feOffset dy="3"/>
<feGaussianBlur stdDeviation="3"/>
<feColorMatrix type="matrix" values="0 0 0 0 0 0 0 0 0 0 0 0 0 0 0 0 0 0 0.161 0"/>
<feBlend mode="normal" in2="BackgroundImageFix" result="effect1_dropShadow_2594_236"/>
<feBlend mode="normal" in="SourceGraphic" in2="effect1_dropShadow_2594_236" result="shape"/>
</filter>
<filter id="filter4_d_2594_236" x="131.531" y="22.5" width="25.9297" height="28.5156" filterUnits="userSpaceOnUse" color-interpolation-filters="sRGB">
<feFlood flood-opacity="0" result="BackgroundImageFix"/>
<feColorMatrix in="SourceAlpha" type="matrix" values="0 0 0 0 0 0 0 0 0 0 0 0 0 0 0 0 0 0 127 0" result="hardAlpha"/>
<feOffset dy="3"/>
<feGaussianBlur stdDeviation="3"/>
<feColorMatrix type="matrix" values="0 0 0 0 0 0 0 0 0 0 0 0 0 0 0 0 0 0 0.161 0"/>
<feBlend mode="normal" in2="BackgroundImageFix" result="effect1_dropShadow_2594_236"/>
<feBlend mode="normal" in="SourceGraphic" in2="effect1_dropShadow_2594_236" result="shape"/>
</filter>
<filter id="filter5_d_2594_236" x="148.008" y="22.4531" width="27.5859" height="28.5547" filterUnits="userSpaceOnUse" color-interpolation-filters="sRGB">
<feFlood flood-opacity="0" result="BackgroundImageFix"/>
<feColorMatrix in="SourceAlpha" type="matrix" values="0 0 0 0 0 0 0 0 0 0 0 0 0 0 0 0 0 0 127 0" result="hardAlpha"/>
<feOffset dy="3"/>
<feGaussianBlur stdDeviation="3"/>
<feColorMatrix type="matrix" values="0 0 0 0 0 0 0 0 0 0 0 0 0 0 0 0 0 0 0.161 0"/>
<feBlend mode="normal" in2="BackgroundImageFix" result="effect1_dropShadow_2594_236"/>
<feBlend mode="normal" in="SourceGraphic" in2="effect1_dropShadow_2594_236" result="shape"/>
</filter>
<filter id="filter6_d_2594_236" x="3.00781" y="6" width="56.5469" height="56.5469" filterUnits="userSpaceOnUse" color-interpolation-filters="sRGB">
<feFlood flood-opacity="0" result="BackgroundImageFix"/>
<feColorMatrix in="SourceAlpha" type="matrix" values="0 0 0 0 0 0 0 0 0 0 0 0 0 0 0 0 0 0 127 0" result="hardAlpha"/>
<feOffset dy="3"/>
<feGaussianBlur stdDeviation="3"/>
<feColorMatrix type="matrix" values="0 0 0 0 0 0 0 0 0 0 0 0 0 0 0 0 0 0 0.161 0"/>
<feBlend mode="normal" in2="BackgroundImageFix" result="effect1_dropShadow_2594_236"/>
<feBlend mode="normal" in="SourceGraphic" in2="effect1_dropShadow_2594_236" result="shape"/>
</filter>
<linearGradient id="paint0_linear_2594_236" x1="11.9925" y1="11.9846" x2="49.6785" y2="49.6722" gradientUnits="userSpaceOnUse">
<stop stop-color="#0CC6ED"/>
<stop offset="1" stop-color="#1D8BDB"/>
</linearGradient>
<linearGradient id="paint1_linear_2594_236" x1="18.072" y1="22.4412" x2="35.7811" y2="39.5331" gradientUnits="userSpaceOnUse">
<stop stop-color="#0CC6ED"/>
<stop offset="1" stop-color="#1D8BDB"/>
</linearGradient>
<linearGradient id="paint2_linear_2594_236" x1="41.4105" y1="20.6392" x2="44.5142" y2="24.255" gradientUnits="userSpaceOnUse">
<stop stop-color="#0CC6ED"/>
<stop offset="1" stop-color="#1D8BDB"/>
</linearGradient>
<linearGradient id="paint3_linear_2594_236" x1="38.3958" y1="29.3969" x2="48.3016" y2="29.9071" gradientUnits="userSpaceOnUse">
<stop stop-color="#0CC6ED"/>
<stop offset="1" stop-color="#1D8BDB"/>
</linearGradient>
<linearGradient id="paint4_linear_2594_236" x1="8.2063" y1="15.7646" x2="15.5636" y2="58.6678" gradientUnits="userSpaceOnUse">
<stop stop-color="#0CC6ED"/>
<stop offset="1" stop-color="#1D8BDB"/>
</linearGradient>
<clipPath id="clip0_2594_236">
<rect width="178.601" height="62.547" fill="white"/>
</clipPath>
</defs>
</svg>
