<svg xmlns="http://www.w3.org/2000/svg" xmlns:xlink="http://www.w3.org/1999/xlink" width="21.659" height="18" viewBox="0 0 21.659 18">
  <defs>
    <clipPath id="clip-path">
      <rect id="Rectangle_2346" data-name="Rectangle 2346" width="21.659" height="18" fill="#5f6368"/>
    </clipPath>
  </defs>
  <g id="Group_1084" data-name="Group 1084" transform="translate(0 0)">
    <g id="Group_1083" data-name="Group 1083" transform="translate(0 0)" clip-path="url(#clip-path)">
      <path id="Path_2680" data-name="Path 2680" d="M18.723.686a2.231,2.231,0,0,1,.662,1.6V7.269H17.123V2.286H2.286V14.363H8.943v2.262H2.286a2.212,2.212,0,0,1-1.6-.674A2.153,2.153,0,0,1,0,14.363V2.286A2.193,2.193,0,0,1,.686.686,2.193,2.193,0,0,1,2.286,0H17.123a2.142,2.142,0,0,1,1.6.686" transform="translate(0 0)" fill="#5f6368" />
      <path id="Path_2681" data-name="Path 2681" d="M13.506,10.847l2.961,1.348-2.961,1.336L12.17,16.48l-1.348-2.949L7.873,12.195l2.949-1.348L12.17,7.9ZM17.64,7.86l1.474.655L17.64,9.2l-.668,1.474L16.3,9.2l-1.487-.68L16.3,7.86l.668-1.487Z" transform="translate(-4.085 -3.306)" fill="#5f6368" />
      <path id="Path_2682" data-name="Path 2682" d="M33.574,20.654l-2.286-2.286.7-.7a1.164,1.164,0,0,1,1.588,0l.7.7a1.058,1.058,0,0,1,.325.806,1.1,1.1,0,0,1-.325.782Zm-8.637,6.352V24.72L30.254,19.4l2.286,2.286-5.317,5.317Z" transform="translate(-12.938 -9.006)" fill="#5f6368" />
    </g>
  </g>
</svg>
