<svg xmlns="http://www.w3.org/2000/svg" width="18" height="18" viewBox="0 0 18 18">
  <path id="history_FILL0_wght600_GRAD0_opsz48" d="M14.166,23.25a8.542,8.542,0,0,1-6.32-2.632,8.75,8.75,0,0,1-2.6-6.381H7.173A6.94,6.94,0,0,0,9.2,19.273a6.672,6.672,0,0,0,4.963,2.079,6.874,6.874,0,0,0,5.083-2.1,6.994,6.994,0,0,0,2.079-5.107,6.6,6.6,0,0,0-2.1-4.951,7.043,7.043,0,0,0-5.059-2.019,6.4,6.4,0,0,0-2.86.661A8.15,8.15,0,0,0,8.927,9.6h2.259v1.61H5.875V5.947H7.461v2.4a9.647,9.647,0,0,1,3.028-2.271,8.4,8.4,0,0,1,3.677-.829,8.805,8.805,0,0,1,3.521.709,9.522,9.522,0,0,1,2.9,1.923,8.856,8.856,0,0,1,1.959,2.836,8.635,8.635,0,0,1,.709,3.5,8.805,8.805,0,0,1-.709,3.521,8.922,8.922,0,0,1-1.959,2.872,9.412,9.412,0,0,1-2.9,1.935A8.805,8.805,0,0,1,14.166,23.25Zm3.028-5-3.7-3.653V9.384h1.586v4.542L18.347,17.1Z" transform="translate(-5.25 -5.25)" fill="#5f6368"/>
</svg>
