<svg width="197" height="30" viewBox="0 0 197 30" fill="none" xmlns="http://www.w3.org/2000/svg">
<path d="M22 0H8C3.58172 0 0 3.58172 0 8V22C0 26.4183 3.58172 30 8 30H22C26.4183 30 30 26.4183 30 22V8C30 3.58172 26.4183 0 22 0Z" fill="white"/>
<path d="M18.7292 17.982V17.9993C18.7292 20.7656 17.2302 23.1809 14.9991 24.4784C13.8965 25.1218 12.6119 25.4901 11.2385 25.4901C7.10111 25.4901 3.75 22.1368 3.75 17.9993C3.75 15.2201 5.26417 12.7961 7.51052 11.5029C7.51702 14.2757 9.02902 16.6931 11.271 17.9842C12.3693 18.6145 13.6409 18.9763 14.9991 18.9763C16.3573 18.9763 17.631 18.6145 18.7292 17.982Z" fill="url(#paint0_linear_76_142)"/>
<path d="M22.49 11.4885V11.5059C21.3917 10.8755 20.118 10.5116 18.7598 10.5116C17.4016 10.5116 16.1019 10.8798 14.9993 11.521C12.7746 12.8164 11.2778 15.2252 11.2713 17.985C9.02925 16.6939 7.51724 14.2764 7.51074 11.5037V11.4885C7.51074 7.35111 10.8618 4 14.9993 4C19.1367 4 22.49 7.35111 22.49 11.4885Z" fill="url(#paint1_linear_76_142)"/>
<path d="M26.2493 17.9993C26.2493 22.1367 22.896 25.49 18.7586 25.49C17.3852 25.49 16.1006 25.1217 14.998 24.4784C17.2292 23.1808 18.7282 20.7655 18.7282 17.9993V17.9819C18.7217 15.2244 17.2249 12.8156 14.998 11.5202C16.1006 10.879 17.3852 10.5107 18.7586 10.5107C20.1319 10.5107 21.3905 10.8725 22.4888 11.505C24.7351 12.7982 26.2493 15.2222 26.2493 17.9993Z" fill="url(#paint2_linear_76_142)"/>
<path d="M129.895 16.4238H126.096V14.8906H129.895C130.63 14.8906 131.226 14.7734 131.682 14.5391C132.137 14.3047 132.469 13.9792 132.678 13.5625C132.893 13.1458 133 12.6706 133 12.1367C133 11.6484 132.893 11.1895 132.678 10.7598C132.469 10.3301 132.137 9.98503 131.682 9.72461C131.226 9.45768 130.63 9.32422 129.895 9.32422H126.535V22H124.65V7.78125H129.895C130.969 7.78125 131.877 7.9668 132.619 8.33789C133.361 8.70898 133.924 9.22331 134.309 9.88086C134.693 10.5319 134.885 11.2773 134.885 12.1172C134.885 13.0286 134.693 13.8066 134.309 14.4512C133.924 15.0957 133.361 15.5872 132.619 15.9258C131.877 16.2578 130.969 16.4238 129.895 16.4238ZM138.801 13.0938V22H136.994V11.4336H138.752L138.801 13.0938ZM142.102 11.375L142.092 13.0547C141.942 13.0221 141.799 13.0026 141.662 12.9961C141.532 12.9831 141.382 12.9766 141.213 12.9766C140.796 12.9766 140.428 13.0417 140.109 13.1719C139.79 13.3021 139.52 13.4844 139.299 13.7188C139.077 13.9531 138.902 14.2331 138.771 14.5586C138.648 14.8776 138.566 15.2292 138.527 15.6133L138.02 15.9062C138.02 15.2682 138.081 14.6693 138.205 14.1094C138.335 13.5495 138.534 13.0547 138.801 12.625C139.068 12.1888 139.406 11.8503 139.816 11.6094C140.233 11.362 140.728 11.2383 141.301 11.2383C141.431 11.2383 141.581 11.2546 141.75 11.2871C141.919 11.3132 142.036 11.3424 142.102 11.375ZM143.098 16.834V16.6094C143.098 15.8477 143.208 15.1413 143.43 14.4902C143.651 13.8327 143.97 13.263 144.387 12.7812C144.803 12.293 145.308 11.9154 145.9 11.6484C146.493 11.375 147.157 11.2383 147.893 11.2383C148.635 11.2383 149.302 11.375 149.895 11.6484C150.493 11.9154 151.001 12.293 151.418 12.7812C151.841 13.263 152.163 13.8327 152.385 14.4902C152.606 15.1413 152.717 15.8477 152.717 16.6094V16.834C152.717 17.5957 152.606 18.3021 152.385 18.9531C152.163 19.6042 151.841 20.1738 151.418 20.6621C151.001 21.1439 150.497 21.5215 149.904 21.7949C149.318 22.0618 148.654 22.1953 147.912 22.1953C147.17 22.1953 146.503 22.0618 145.91 21.7949C145.318 21.5215 144.81 21.1439 144.387 20.6621C143.97 20.1738 143.651 19.6042 143.43 18.9531C143.208 18.3021 143.098 17.5957 143.098 16.834ZM144.904 16.6094V16.834C144.904 17.3613 144.966 17.8594 145.09 18.3281C145.214 18.7904 145.399 19.2005 145.646 19.5586C145.9 19.9167 146.216 20.1999 146.594 20.4082C146.971 20.61 147.411 20.7109 147.912 20.7109C148.407 20.7109 148.84 20.61 149.211 20.4082C149.589 20.1999 149.901 19.9167 150.148 19.5586C150.396 19.2005 150.581 18.7904 150.705 18.3281C150.835 17.8594 150.9 17.3613 150.9 16.834V16.6094C150.9 16.0885 150.835 15.597 150.705 15.1348C150.581 14.666 150.393 14.2526 150.139 13.8945C149.891 13.5299 149.579 13.2435 149.201 13.0352C148.83 12.8268 148.394 12.7227 147.893 12.7227C147.398 12.7227 146.962 12.8268 146.584 13.0352C146.213 13.2435 145.9 13.5299 145.646 13.8945C145.399 14.2526 145.214 14.666 145.09 15.1348C144.966 15.597 144.904 16.0885 144.904 16.6094ZM155.031 11.4336H156.848V23.2598C156.848 23.9043 156.743 24.4512 156.535 24.9004C156.333 25.3496 156.027 25.6882 155.617 25.916C155.214 26.1504 154.702 26.2676 154.084 26.2676C153.921 26.2676 153.732 26.2513 153.518 26.2188C153.296 26.1862 153.111 26.1471 152.961 26.1016L152.971 24.6465C153.094 24.6725 153.234 24.6921 153.391 24.7051C153.547 24.7246 153.684 24.7344 153.801 24.7344C154.068 24.7344 154.292 24.6855 154.475 24.5879C154.657 24.4902 154.794 24.334 154.885 24.1191C154.982 23.9043 155.031 23.6178 155.031 23.2598V11.4336ZM154.846 8.63086C154.846 8.33789 154.937 8.09049 155.119 7.88867C155.301 7.68685 155.565 7.58594 155.91 7.58594C156.262 7.58594 156.529 7.68685 156.711 7.88867C156.893 8.09049 156.984 8.33789 156.984 8.63086C156.984 8.91081 156.893 9.15169 156.711 9.35352C156.529 9.54883 156.262 9.64648 155.91 9.64648C155.565 9.64648 155.301 9.54883 155.119 9.35352C154.937 9.15169 154.846 8.91081 154.846 8.63086ZM164.152 22.1953C163.417 22.1953 162.749 22.0716 162.15 21.8242C161.558 21.5703 161.047 21.2155 160.617 20.7598C160.194 20.304 159.868 19.7637 159.641 19.1387C159.413 18.5137 159.299 17.8301 159.299 17.0879V16.6777C159.299 15.8184 159.426 15.0534 159.68 14.3828C159.934 13.7057 160.279 13.1328 160.715 12.6641C161.151 12.1953 161.646 11.8405 162.199 11.5996C162.753 11.3587 163.326 11.2383 163.918 11.2383C164.673 11.2383 165.324 11.3685 165.871 11.6289C166.424 11.8893 166.877 12.2539 167.229 12.7227C167.58 13.1849 167.84 13.7318 168.01 14.3633C168.179 14.9883 168.264 15.6719 168.264 16.4141V17.2246H160.373V15.75H166.457V15.6133C166.431 15.1445 166.333 14.6888 166.164 14.2461C166.001 13.8034 165.741 13.4388 165.383 13.1523C165.025 12.8659 164.536 12.7227 163.918 12.7227C163.508 12.7227 163.13 12.8105 162.785 12.9863C162.44 13.1556 162.144 13.4095 161.896 13.748C161.649 14.0866 161.457 14.5 161.32 14.9883C161.184 15.4766 161.115 16.0397 161.115 16.6777V17.0879C161.115 17.5892 161.184 18.0612 161.32 18.5039C161.464 18.9401 161.669 19.3242 161.936 19.6562C162.209 19.9883 162.538 20.2487 162.922 20.4375C163.312 20.6263 163.755 20.7207 164.25 20.7207C164.888 20.7207 165.428 20.5905 165.871 20.3301C166.314 20.0697 166.701 19.7214 167.033 19.2852L168.127 20.1543C167.899 20.4993 167.609 20.8281 167.258 21.1406C166.906 21.4531 166.473 21.707 165.959 21.9023C165.451 22.0977 164.849 22.1953 164.152 22.1953ZM174.602 20.7109C175.031 20.7109 175.428 20.623 175.793 20.4473C176.158 20.2715 176.457 20.0306 176.691 19.7246C176.926 19.4121 177.059 19.0573 177.092 18.6602H178.811C178.778 19.2852 178.566 19.8678 178.176 20.4082C177.792 20.9421 177.287 21.375 176.662 21.707C176.037 22.0326 175.35 22.1953 174.602 22.1953C173.807 22.1953 173.114 22.0553 172.521 21.7754C171.936 21.4954 171.447 21.1113 171.057 20.623C170.673 20.1348 170.383 19.5749 170.188 18.9434C169.999 18.3053 169.904 17.6315 169.904 16.9219V16.5117C169.904 15.8021 169.999 15.1315 170.188 14.5C170.383 13.862 170.673 13.2988 171.057 12.8105C171.447 12.3223 171.936 11.9382 172.521 11.6582C173.114 11.3783 173.807 11.2383 174.602 11.2383C175.428 11.2383 176.151 11.4076 176.77 11.7461C177.388 12.0781 177.873 12.5339 178.225 13.1133C178.583 13.6862 178.778 14.3372 178.811 15.0664H177.092C177.059 14.6302 176.936 14.2363 176.721 13.8848C176.512 13.5332 176.226 13.2533 175.861 13.0449C175.503 12.8301 175.083 12.7227 174.602 12.7227C174.048 12.7227 173.583 12.8333 173.205 13.0547C172.834 13.2695 172.538 13.5625 172.316 13.9336C172.102 14.2982 171.945 14.7051 171.848 15.1543C171.757 15.597 171.711 16.0495 171.711 16.5117V16.9219C171.711 17.3841 171.757 17.8398 171.848 18.2891C171.939 18.7383 172.092 19.1452 172.307 19.5098C172.528 19.8743 172.824 20.1673 173.195 20.3887C173.573 20.6035 174.042 20.7109 174.602 20.7109ZM185.266 11.4336V12.8203H179.553V11.4336H185.266ZM181.486 8.86523H183.293V19.3828C183.293 19.7409 183.348 20.0111 183.459 20.1934C183.57 20.3757 183.713 20.4961 183.889 20.5547C184.064 20.6133 184.253 20.6426 184.455 20.6426C184.605 20.6426 184.761 20.6296 184.924 20.6035C185.093 20.571 185.22 20.5449 185.305 20.5254L185.314 22C185.171 22.0456 184.982 22.0879 184.748 22.127C184.52 22.1725 184.243 22.1953 183.918 22.1953C183.475 22.1953 183.068 22.1074 182.697 21.9316C182.326 21.7559 182.03 21.4629 181.809 21.0527C181.594 20.6361 181.486 20.0762 181.486 19.373V8.86523ZM193.537 19.1973C193.537 18.9368 193.479 18.696 193.361 18.4746C193.251 18.2467 193.02 18.0417 192.668 17.8594C192.323 17.6706 191.802 17.5078 191.105 17.3711C190.52 17.2474 189.989 17.1009 189.514 16.9316C189.045 16.7624 188.645 16.5573 188.312 16.3164C187.987 16.0755 187.736 15.7923 187.561 15.4668C187.385 15.1413 187.297 14.7604 187.297 14.3242C187.297 13.9076 187.388 13.5137 187.57 13.1426C187.759 12.7715 188.023 12.4427 188.361 12.1562C188.706 11.8698 189.12 11.6452 189.602 11.4824C190.083 11.3197 190.62 11.2383 191.213 11.2383C192.059 11.2383 192.782 11.388 193.381 11.6875C193.98 11.987 194.439 12.3874 194.758 12.8887C195.077 13.3835 195.236 13.9336 195.236 14.5391H193.43C193.43 14.2461 193.342 13.9629 193.166 13.6895C192.997 13.4095 192.746 13.1784 192.414 12.9961C192.089 12.8138 191.688 12.7227 191.213 12.7227C190.712 12.7227 190.305 12.8008 189.992 12.957C189.686 13.1068 189.462 13.2988 189.318 13.5332C189.182 13.7676 189.113 14.015 189.113 14.2754C189.113 14.4707 189.146 14.6465 189.211 14.8027C189.283 14.9525 189.406 15.0924 189.582 15.2227C189.758 15.3464 190.005 15.4635 190.324 15.5742C190.643 15.6849 191.05 15.7956 191.545 15.9062C192.411 16.1016 193.124 16.3359 193.684 16.6094C194.243 16.8828 194.66 17.2181 194.934 17.6152C195.207 18.0124 195.344 18.4941 195.344 19.0605C195.344 19.5228 195.246 19.946 195.051 20.3301C194.862 20.7142 194.585 21.0462 194.221 21.3262C193.863 21.5996 193.433 21.8145 192.932 21.9707C192.437 22.1204 191.88 22.1953 191.262 22.1953C190.331 22.1953 189.543 22.0293 188.898 21.6973C188.254 21.3652 187.766 20.9355 187.434 20.4082C187.102 19.8809 186.936 19.3242 186.936 18.7383H188.752C188.778 19.2331 188.921 19.627 189.182 19.9199C189.442 20.2064 189.761 20.4115 190.139 20.5352C190.516 20.6523 190.891 20.7109 191.262 20.7109C191.757 20.7109 192.17 20.6458 192.502 20.5156C192.84 20.3854 193.098 20.2064 193.273 19.9785C193.449 19.7507 193.537 19.4902 193.537 19.1973Z" fill="white"/>
<path d="M50.8459 19.8288L50.1182 17.9088H43.9204L43.1928 19.8703C43.0157 20.4152 42.7714 20.9356 42.4652 21.4194C42.3447 21.5609 42.1921 21.6712 42.0202 21.7411C41.8484 21.8111 41.6623 21.8384 41.4777 21.8211C41.2863 21.8216 41.0968 21.7842 40.92 21.7107C40.7432 21.6372 40.5827 21.5293 40.4477 21.3933C40.3089 21.2725 40.1973 21.1235 40.12 20.9562C40.0429 20.7888 40.002 20.607 40 20.4226C40.0017 20.2029 40.0367 19.9847 40.1039 19.7755C40.1733 19.5535 40.2879 19.2438 40.4477 18.8463L44.3457 8.91333L44.7461 7.88577C44.8765 7.5365 45.044 7.20231 45.2457 6.88903C45.4243 6.62279 45.6632 6.40269 45.9427 6.24666C46.2699 6.07393 46.6361 5.98939 47.0057 6.00132C47.3796 5.9882 47.7504 6.07274 48.0818 6.24666C48.3593 6.40092 48.5977 6.61708 48.7787 6.87839C48.957 7.13817 49.107 7.41626 49.2264 7.70799C49.3477 8.00351 49.502 8.39856 49.6894 8.89318L53.6725 18.7634C53.9229 19.278 54.0828 19.832 54.145 20.4013C54.1412 20.5855 54.1001 20.7669 54.0241 20.9346C53.9482 21.1023 53.839 21.2527 53.7032 21.3767C53.5655 21.5194 53.4001 21.6323 53.2172 21.7085C53.0345 21.7848 52.8381 21.8227 52.6401 21.82C52.4249 21.8259 52.2113 21.7812 52.0164 21.6896C51.8462 21.6052 51.6969 21.4837 51.5794 21.334C51.4257 21.1207 51.2984 20.8896 51.2002 20.6456C51.0617 20.3381 50.9435 20.0659 50.8459 19.8288ZM44.7307 15.5823H49.2855L46.9868 9.27007L44.7307 15.5823Z" fill="white"/>
<path d="M57.6472 8.91416C57.2759 8.92286 56.9148 8.79274 56.6338 8.54912C56.5002 8.41603 56.3942 8.25757 56.3224 8.08301C56.2505 7.90844 56.214 7.72125 56.2149 7.53237C56.216 7.34349 56.2544 7.15669 56.3282 6.98289C56.4019 6.80909 56.5094 6.65174 56.6444 6.52007C56.9166 6.26524 57.2761 6.12522 57.6485 6.12898C58.006 6.12589 58.3528 6.25208 58.6253 6.48452C58.7705 6.61249 58.8845 6.77226 58.9584 6.95146C59.0324 7.13065 59.0643 7.32448 59.0517 7.51801C59.062 7.70942 59.03 7.90076 58.9582 8.07837C58.8862 8.25598 58.7763 8.4155 58.6359 8.54557C58.3647 8.78958 58.0114 8.92131 57.6472 8.91416ZM59.0504 11.857V20.0893C59.0847 20.5567 58.9399 21.0196 58.6454 21.3835C58.5151 21.5265 58.3558 21.6397 58.178 21.7153C58.0002 21.7911 57.8084 21.8275 57.6154 21.822C57.4237 21.8279 57.2331 21.7906 57.0577 21.7128C56.8823 21.6351 56.7265 21.519 56.6018 21.3728C56.3203 21.007 56.1817 20.5505 56.2121 20.0893V11.9399C56.178 11.4816 56.3171 11.0271 56.6018 10.667C56.7298 10.5264 56.8867 10.4153 57.0617 10.3414C57.2367 10.2675 57.4256 10.2327 57.6154 10.2392C57.8074 10.2335 57.9984 10.2687 58.176 10.3424C58.3535 10.4161 58.5136 10.5268 58.6454 10.667C58.9308 10.995 59.0763 11.4224 59.0504 11.857Z" fill="white"/>
<path d="M61.9836 20.0902V7.73592C61.95 7.27271 62.0848 6.81297 62.3628 6.44169C62.4899 6.29642 62.648 6.1816 62.8253 6.10571C63.0025 6.02982 63.1943 5.99479 63.3868 6.00317C63.581 5.99563 63.7744 6.03038 63.9539 6.10506C64.1334 6.17974 64.2945 6.29257 64.4263 6.43575C64.7172 6.80474 64.8586 7.27038 64.822 7.73946V20.0939C64.8589 20.5637 64.7157 21.0299 64.4217 21.3976C64.2902 21.5399 64.1298 21.6523 63.9512 21.727C63.7726 21.8015 63.5802 21.8367 63.3868 21.8302C63.1954 21.8362 63.0048 21.799 62.8295 21.7215C62.6541 21.644 62.4982 21.5281 62.3734 21.3822C62.09 21.0141 61.9512 20.5543 61.9836 20.0902Z" fill="white"/>
<path d="M74.9302 20.2121C74.3225 20.7005 73.6529 21.106 72.9387 21.4174C72.253 21.6937 71.5195 21.8302 70.7806 21.8192C70.1156 21.8337 69.4572 21.6852 68.8624 21.3866C68.3373 21.1222 67.8963 20.7157 67.589 20.2132C67.2936 19.7298 67.1385 19.1733 67.1413 18.6062C67.1249 17.8718 67.389 17.1589 67.8796 16.6139C68.4205 16.0372 69.1313 15.6496 69.9077 15.5081C70.0881 15.4661 70.5354 15.3722 71.2496 15.226C71.9639 15.0799 72.5757 14.9458 73.0852 14.8242C73.5948 14.7025 74.1459 14.5549 74.7389 14.381C74.7541 13.7953 74.5968 13.2181 74.2865 12.7217C74.0671 12.5162 73.8049 12.3623 73.5188 12.2711C73.2328 12.1799 72.9301 12.1537 72.6328 12.1943C72.0738 12.1613 71.5152 12.265 71.0051 12.4965C70.6227 12.7162 70.3012 13.0282 70.0696 13.4044C69.8991 13.6794 69.715 13.9456 69.5179 14.202C69.4219 14.28 69.3109 14.3374 69.1918 14.3706C69.0727 14.4037 68.9482 14.4122 68.8257 14.3952C68.5214 14.4007 68.226 14.2906 67.9989 14.0869C67.886 13.99 67.7961 13.8689 67.7358 13.7326C67.6756 13.5962 67.6464 13.448 67.6504 13.2989C67.6617 12.7668 67.8482 12.2533 68.1808 11.8388C68.6164 11.3061 69.188 10.9024 69.8345 10.6702C70.729 10.339 71.6786 10.1834 72.6316 10.2115C73.632 10.1711 74.6308 10.3215 75.5752 10.6548C76.2424 10.907 76.7853 11.4104 77.0883 12.058C77.414 12.8655 77.5646 13.7333 77.5301 14.6038C77.5301 15.2714 77.5301 15.8383 77.5301 16.3045C77.5301 16.7707 77.525 17.2891 77.5147 17.8595C77.5197 18.4278 77.6089 18.9922 77.7793 19.5341C77.9081 19.8971 77.9968 20.273 78.0439 20.6554C78.0386 20.8107 77.999 20.9629 77.9279 21.1011C77.8568 21.2393 77.756 21.3598 77.6328 21.4541C77.3777 21.6849 77.0457 21.8119 76.702 21.8097C76.3713 21.7919 76.061 21.6437 75.8386 21.3973C75.4887 21.0409 75.1836 20.6429 74.9302 20.2121ZM74.7436 16.0899C74.15 16.2912 73.544 16.4532 72.9293 16.5748C72.1355 16.7454 71.5842 16.8706 71.2756 16.9505C70.953 17.0411 70.6547 17.2032 70.4027 17.4245C70.2636 17.5444 70.1539 17.6946 70.0818 17.8638C70.0098 18.0329 69.9773 18.2162 69.9869 18.4C69.9845 18.608 70.0269 18.8141 70.1114 19.004C70.1958 19.1941 70.3201 19.3636 70.4759 19.501C70.8274 19.8132 71.2862 19.9759 71.7551 19.9549C72.2957 19.9598 72.8292 19.8324 73.3096 19.5838C73.7435 19.3752 74.1069 19.0435 74.355 18.6298C74.6602 17.9626 74.7927 17.2288 74.7401 16.4965L74.7436 16.0899Z" fill="white"/>
<path d="M82.7512 22.178L83.011 21.5416L79.5171 12.7144C79.3458 12.3676 79.2367 11.9932 79.1946 11.6085C79.1935 11.3696 79.2586 11.1349 79.3824 10.9307C79.5075 10.7213 79.6851 10.5485 79.8974 10.4294C80.1039 10.307 80.3392 10.242 80.579 10.2409C80.7529 10.2289 80.9272 10.258 81.0879 10.326C81.2485 10.3939 81.391 10.4987 81.5038 10.632C81.7513 10.9706 81.938 11.3501 82.0555 11.7532L84.4581 18.7646L86.7354 12.2461C86.8739 11.8228 87.0371 11.4081 87.2245 11.0042C87.3226 10.7646 87.4824 10.5556 87.6875 10.3984C87.8987 10.2824 88.138 10.2282 88.3785 10.2421C88.5963 10.2427 88.8102 10.3021 88.9975 10.4138C89.1896 10.5235 89.3478 10.6843 89.4546 10.8784C89.5603 11.0662 89.6161 11.2781 89.6164 11.4936C89.5881 11.6256 89.5428 11.8132 89.4806 12.0566C89.4183 12.2999 89.3419 12.5468 89.2514 12.7974L85.5495 22.5218C85.3039 23.2224 84.9906 23.8972 84.6139 24.5365C84.3193 25.0135 83.9008 25.4012 83.4033 25.6578C82.7655 25.9463 82.0692 26.0802 81.3704 26.0488C80.7347 26.0801 80.099 25.988 79.4981 25.7774C79.3026 25.7005 79.1366 25.5629 79.0244 25.3846C78.9123 25.2064 78.8597 24.9968 78.8745 24.7866C78.866 24.6465 78.888 24.5063 78.9392 24.3757C78.9905 24.2451 79.0695 24.1271 79.171 24.0304C79.4209 23.8356 79.7341 23.7406 80.0498 23.7639C80.2012 23.7636 80.3518 23.7847 80.4975 23.8266C80.6521 23.8652 80.8106 23.8864 80.97 23.8895C81.2341 23.9019 81.4975 23.852 81.7389 23.7436C81.9493 23.6234 82.1235 23.4486 82.2433 23.2375C82.4389 22.8977 82.6088 22.5436 82.7512 22.178Z" fill="white"/>
<path d="M100.535 18.096C100.568 18.8174 100.365 19.5299 99.9563 20.1245C99.5478 20.7192 98.9564 21.1631 98.2726 21.3884C97.4009 21.6978 96.4801 21.8445 95.5558 21.8211C94.6592 21.8425 93.7675 21.6812 92.9347 21.3469C92.3036 21.1059 91.7476 20.7009 91.3236 20.1736C91.0016 19.7716 90.8191 19.2752 90.8038 18.7597C90.8016 18.6101 90.8302 18.4615 90.8875 18.3233C90.9448 18.1851 91.0297 18.0601 91.1369 17.9561C91.2471 17.8458 91.3787 17.7592 91.5235 17.7017C91.6684 17.6442 91.8234 17.617 91.979 17.6219C92.2272 17.6053 92.4724 17.6837 92.6653 17.8412C92.8497 18.0207 93.0041 18.2288 93.1225 18.4575C93.3704 18.9187 93.7298 19.31 94.1679 19.5952C94.6745 19.8696 95.2465 19.9996 95.8215 19.9709C96.314 19.9923 96.8013 19.8607 97.2166 19.5941C97.3734 19.5068 97.5056 19.3812 97.6011 19.2289C97.6964 19.0766 97.7519 18.9026 97.7622 18.7229C97.7771 18.5058 97.7321 18.2887 97.632 18.0955C97.532 17.9023 97.3809 17.7405 97.1953 17.6278C96.6073 17.3212 95.9789 17.0998 95.3289 16.9701C94.5142 16.7797 93.7163 16.5232 92.943 16.2032C92.377 15.9702 91.8729 15.6079 91.4712 15.145C91.0977 14.6907 90.9016 14.1157 90.9196 13.5271C90.9221 12.9484 91.1001 12.3841 91.4299 11.9093C91.8069 11.3705 92.3276 10.9491 92.9324 10.6933C93.6898 10.372 94.5069 10.2172 95.3289 10.2394C95.9963 10.2316 96.6619 10.3088 97.3098 10.4693C97.8288 10.594 98.3242 10.8021 98.777 11.0856C99.1304 11.3062 99.4348 11.5975 99.6712 11.9414C99.8615 12.2106 99.9682 12.53 99.9783 12.8598C99.9829 13.0093 99.9562 13.1581 99.8998 13.2966C99.8435 13.435 99.7587 13.56 99.651 13.6635C99.3935 13.8858 99.0594 13.9982 98.7203 13.9763C98.451 13.9837 98.1877 13.8951 97.9773 13.7262C97.7177 13.5011 97.4826 13.2493 97.2757 12.9748C97.069 12.7041 96.8109 12.4773 96.5162 12.3075C96.1501 12.1242 95.7434 12.0381 95.3349 12.0575C94.8859 12.0404 94.4414 12.1545 94.0556 12.3859C93.9062 12.4649 93.7804 12.5825 93.6909 12.7263C93.6015 12.8701 93.5517 13.0352 93.5466 13.2047C93.5446 13.3487 93.5777 13.4911 93.643 13.6193C93.7082 13.7475 93.8036 13.8579 93.921 13.9407C94.226 14.1586 94.5677 14.3193 94.9298 14.4148C95.3527 14.5404 95.935 14.6934 96.6768 14.8736C97.425 15.0413 98.1498 15.3008 98.8349 15.6462C99.3338 15.8956 99.768 16.2579 100.103 16.7046C100.39 17.1109 100.541 17.5981 100.535 18.096Z" fill="white"/>
<path d="M110.113 20.212C109.505 20.7007 108.835 21.106 108.121 21.4175C107.436 21.6938 106.702 21.8303 105.963 21.8193C105.298 21.8337 104.64 21.6852 104.045 21.3867C103.52 21.1221 103.079 20.7156 102.772 20.2132C102.476 19.7298 102.321 19.1732 102.324 18.6062C102.308 17.8719 102.572 17.159 103.062 16.6138C103.603 16.0371 104.314 15.6495 105.09 15.508C105.271 15.4662 105.718 15.3722 106.432 15.2261C107.146 15.0798 107.758 14.9459 108.268 14.8242C108.777 14.7025 109.329 14.5548 109.921 14.381C109.937 13.7952 109.78 13.2179 109.469 12.7217C109.25 12.5163 108.987 12.3623 108.701 12.2711C108.415 12.1799 108.113 12.1536 107.815 12.1943C107.256 12.1613 106.698 12.265 106.188 12.4965C105.805 12.7163 105.484 13.0284 105.252 13.4043C105.082 13.6794 104.898 13.9456 104.7 14.2021C104.605 14.2798 104.494 14.3371 104.375 14.3704C104.256 14.4036 104.132 14.412 104.01 14.3951C103.705 14.4005 103.41 14.2905 103.183 14.087C103.07 13.9899 102.98 13.8689 102.92 13.7325C102.859 13.5962 102.83 13.4479 102.834 13.2988C102.845 12.7668 103.032 12.2534 103.365 11.8387C103.8 11.3063 104.372 10.9024 105.018 10.6701C105.913 10.3391 106.862 10.1834 107.815 10.2114C108.815 10.1713 109.814 10.3217 110.758 10.6547C111.425 10.907 111.968 11.4104 112.271 12.058C112.596 12.8655 112.747 13.7333 112.713 14.6037C112.713 15.2715 112.713 15.8383 112.713 16.3045C112.713 16.7707 112.707 17.289 112.697 17.8594C112.703 18.4279 112.792 18.9922 112.963 19.5341C113.092 19.897 113.18 20.2731 113.228 20.6554C113.222 20.8108 113.183 20.963 113.112 21.1012C113.041 21.2392 112.94 21.3598 112.817 21.4541C112.561 21.685 112.229 21.8119 111.886 21.8098C111.555 21.7919 111.245 21.6436 111.022 21.3972C110.672 21.0411 110.366 20.643 110.113 20.212ZM109.926 16.09C109.333 16.2912 108.727 16.4532 108.112 16.5748C107.318 16.7455 106.767 16.8706 106.458 16.9504C106.135 17.041 105.837 17.203 105.584 17.4245C105.445 17.5444 105.335 17.6947 105.263 17.8638C105.191 18.0328 105.159 18.2163 105.168 18.3999C105.166 18.608 105.208 18.8141 105.293 19.0041C105.377 19.1942 105.502 19.3637 105.657 19.501C106.009 19.8131 106.468 19.9758 106.936 19.955C107.477 19.9597 108.011 19.8323 108.491 19.5839C108.925 19.3752 109.288 19.0434 109.536 18.6298C109.842 17.9626 109.974 17.2288 109.921 16.4965L109.926 16.09Z" fill="white"/>
<defs>
<linearGradient id="paint0_linear_76_142" x1="10.7446" y1="18.3199" x2="14.0676" y2="16.1732" gradientUnits="userSpaceOnUse">
<stop stop-color="#0673F7"/>
<stop offset="1" stop-color="#004AB3"/>
</linearGradient>
<linearGradient id="paint1_linear_76_142" x1="15.0144" y1="10.9427" x2="14.904" y2="14.883" gradientUnits="userSpaceOnUse">
<stop stop-color="#0673F7"/>
<stop offset="1" stop-color="#004AB3"/>
</linearGradient>
<linearGradient id="paint2_linear_76_142" x1="19.3088" y1="18.3264" x2="14.7424" y2="15.6251" gradientUnits="userSpaceOnUse">
<stop stop-color="#0673F7"/>
<stop offset="1" stop-color="#004AB3"/>
</linearGradient>
</defs>
</svg>
