<svg width="189" height="47" viewBox="0 0 189 47" fill="none" xmlns="http://www.w3.org/2000/svg">
<g clip-path="url(#clip0_18_36)">
<g filter="url(#filter0_d_18_36)">
<path d="M30.315 41.175H10.86C8.77726 41.1689 6.78157 40.3389 5.30884 38.8662C3.83612 37.3934 3.00607 35.3977 3 33.315L3 13.86C3.00607 11.7773 3.83612 9.78157 5.30884 8.30884C6.78157 6.83612 8.77726 6.00607 10.86 6H30.315C32.3977 6.00607 34.3934 6.83612 35.8662 8.30884C37.3389 9.78157 38.1689 11.7773 38.175 13.86V33.315C38.1689 35.3977 37.3389 37.3934 35.8662 38.8662C34.3934 40.3389 32.3977 41.1689 30.315 41.175Z" fill="white"/>
</g>
<path d="M24.356 26.6427V26.6587C24.3553 28.0069 23.9997 29.3311 23.3247 30.4982C22.6498 31.6653 21.6794 32.6341 20.5112 33.3071C19.343 33.9802 18.0182 34.3337 16.67 34.3321C15.3218 34.3305 13.9978 33.9739 12.8312 33.2982C11.6645 32.6224 10.6964 31.6514 10.0242 30.4827C9.35203 29.3141 8.99945 27.989 9.00197 26.6408C9.00448 25.2926 9.36199 23.9688 10.0385 22.8026C10.7151 21.6365 11.6868 20.6691 12.856 19.9977C12.8607 21.3416 13.2179 22.6608 13.8919 23.8235C14.566 24.9862 15.5332 25.9517 16.6971 26.6236C17.861 27.2955 19.1809 27.6504 20.5248 27.6527C21.8687 27.655 23.1898 27.3046 24.356 26.6367V26.6427Z" fill="url(#paint0_linear_18_36)"/>
<path d="M28.1849 20.0077V20.0237C27.0197 19.3563 25.6996 19.0067 24.3568 19.0099C23.014 19.013 21.6956 19.3689 20.5336 20.0417C19.3715 20.7146 18.4066 21.6809 17.7354 22.8439C17.0642 24.007 16.7102 25.3259 16.7089 26.6687C15.541 25.9976 14.5702 25.0309 13.8944 23.8656C13.2186 22.7004 12.8614 21.3777 12.8589 20.0307V20.0127C12.8582 17.9803 13.6647 16.0309 15.1013 14.5932C16.5378 13.1556 18.4866 12.3475 20.5189 12.3467C22.5513 12.3459 24.5007 13.1525 25.9384 14.589C27.376 16.0255 28.1842 17.9753 28.1849 20.0077Z" fill="url(#paint1_linear_18_36)"/>
<path d="M32.039 26.6587C32.0394 28.0078 31.6841 29.3333 31.0091 30.5014C30.334 31.6695 29.3629 32.639 28.1937 33.3123C27.0245 33.9855 25.6985 34.3386 24.3494 34.3361C23.0002 34.3335 21.6756 33.9753 20.509 33.2977C21.6726 32.6235 22.6385 31.6553 23.3098 30.49C23.9812 29.3248 24.3344 28.0035 24.334 26.6587V26.6417C24.3304 25.2998 23.9754 23.9823 23.3043 22.8203C22.6332 21.6583 21.6694 20.6924 20.509 20.0187C21.6751 19.3399 22.9996 18.9807 24.3489 18.9774C25.6982 18.974 27.0245 19.3266 28.194 19.9996C29.3635 20.6726 30.3348 21.6421 31.0098 22.8104C31.6849 23.9787 32.0399 25.3044 32.039 26.6537V26.6587Z" fill="url(#paint2_linear_18_36)"/>
<path d="M55.182 28.6681L54.566 27.0481H49.319L48.703 28.7031C48.5531 29.1628 48.3462 29.6019 48.087 30.0101C47.985 30.1295 47.8558 30.2225 47.7103 30.2815C47.5648 30.3405 47.4073 30.3637 47.251 30.3491C47.089 30.3495 46.9285 30.3178 46.7789 30.2559C46.6292 30.1939 46.4933 30.1029 46.379 29.9881C46.2615 29.8862 46.167 29.7605 46.1017 29.6193C46.0363 29.4781 46.0017 29.3247 46 29.1691C46.0014 28.9837 46.0311 28.7996 46.088 28.6231C46.1467 28.4358 46.2437 28.1745 46.379 27.8391L49.679 19.4581L50.018 18.5911C50.1284 18.2964 50.2702 18.0144 50.441 17.7501C50.5922 17.5255 50.7944 17.3398 51.031 17.2081C51.308 17.0624 51.6181 16.991 51.931 17.0011C52.2475 16.99 52.5614 17.0614 52.842 17.2081C53.0769 17.3383 53.2787 17.5207 53.432 17.7411C53.5829 17.9603 53.7099 18.195 53.811 18.4411C53.9137 18.6905 54.0443 19.0238 54.203 19.4411L57.575 27.7691C57.787 28.2033 57.9224 28.6708 57.975 29.1511C57.9718 29.3065 57.937 29.4596 57.8727 29.6011C57.8084 29.7426 57.716 29.8695 57.601 29.9741C57.4844 30.0945 57.3444 30.1898 57.1896 30.2541C57.0349 30.3184 56.8686 30.3504 56.701 30.3481C56.5188 30.3531 56.338 30.3154 56.173 30.2381C56.0289 30.1669 55.9025 30.0644 55.803 29.9381C55.6729 29.7581 55.5651 29.5631 55.482 29.3571C55.3647 29.0978 55.2647 28.8681 55.182 28.6681ZM50.005 25.0851H53.861L51.915 19.7591L50.005 25.0851Z" fill="white"/>
<path d="M60.94 19.4591C60.6257 19.4665 60.3199 19.3567 60.082 19.1511C59.9689 19.0388 59.8793 18.9051 59.8184 18.7578C59.7576 18.6105 59.7267 18.4526 59.7275 18.2932C59.7283 18.1339 59.7609 17.9763 59.8233 17.8296C59.8857 17.683 59.9767 17.5502 60.091 17.4391C60.3215 17.2241 60.6259 17.106 60.9411 17.1091C61.2438 17.1065 61.5374 17.213 61.768 17.4091C61.891 17.5171 61.9875 17.6519 62.0501 17.8031C62.1127 17.9543 62.1397 18.1178 62.129 18.2811C62.1377 18.4426 62.1107 18.6041 62.0498 18.7539C61.989 18.9038 61.8959 19.0384 61.7771 19.1481C61.5475 19.354 61.2483 19.4652 60.94 19.4591ZM62.128 21.9421V28.8881C62.157 29.2825 62.0343 29.6731 61.7851 29.9801C61.6748 30.1008 61.5398 30.1963 61.3894 30.2602C61.2389 30.324 61.0764 30.3547 60.913 30.3501C60.7508 30.3551 60.5895 30.3236 60.441 30.258C60.2925 30.1924 60.1606 30.0944 60.055 29.9711C59.8167 29.6624 59.6994 29.2773 59.7251 28.8881V22.0121C59.6962 21.6254 59.8139 21.2419 60.055 20.9381C60.1634 20.8194 60.2962 20.7257 60.4444 20.6634C60.5925 20.601 60.7524 20.5716 60.913 20.5771C61.0756 20.5723 61.2374 20.602 61.3877 20.6642C61.538 20.7265 61.6734 20.8198 61.7851 20.9381C62.0267 21.2148 62.1498 21.5754 62.128 21.9421Z" fill="white"/>
<path d="M64.612 28.8881V18.4641C64.5836 18.0733 64.6977 17.6854 64.933 17.3721C65.0407 17.2495 65.1745 17.1527 65.3245 17.0886C65.4746 17.0246 65.637 16.9951 65.8 17.0021C65.9643 16.9958 66.1281 17.0251 66.28 17.0881C66.4319 17.1511 66.5684 17.2463 66.68 17.3671C66.9263 17.6785 67.046 18.0713 67.015 18.4671V28.8911C67.0462 29.2876 66.9249 29.681 66.676 29.9911C66.5648 30.1113 66.4289 30.2061 66.2778 30.269C66.1266 30.332 65.9636 30.3617 65.8 30.3561C65.6378 30.3612 65.4766 30.3299 65.3281 30.2645C65.1796 30.1991 65.0477 30.1012 64.942 29.9781C64.7021 29.6676 64.5846 29.2796 64.612 28.8881Z" fill="white"/>
<path d="M75.572 28.9911C75.0575 29.4033 74.4906 29.7453 73.886 30.0082C73.3055 30.2413 72.6845 30.3565 72.059 30.3472C71.496 30.3593 70.9386 30.2341 70.435 29.9822C69.9905 29.759 69.6171 29.4161 69.357 28.9921C69.1069 28.5842 68.9756 28.1146 68.978 27.6362C68.9641 27.0166 69.1877 26.4151 69.603 25.9551C70.0609 25.4686 70.6627 25.1416 71.32 25.0222C71.4727 24.9868 71.8514 24.9075 72.456 24.7842C73.0607 24.6608 73.5787 24.5478 74.01 24.4451C74.4414 24.3425 74.908 24.2178 75.41 24.0712C75.4229 23.577 75.2897 23.0899 75.027 22.6711C74.8413 22.4978 74.6192 22.3679 74.3771 22.291C74.135 22.214 73.8787 22.1918 73.627 22.2261C73.1538 22.1983 72.6809 22.2858 72.249 22.4811C71.9253 22.6665 71.6531 22.9298 71.457 23.2471C71.3127 23.4791 71.1568 23.7038 70.99 23.9202C70.9087 23.986 70.8147 24.0343 70.7139 24.0624C70.6131 24.0904 70.5077 24.0975 70.404 24.0831C70.1463 24.0878 69.8963 23.9949 69.704 23.8231C69.6084 23.7412 69.5323 23.6391 69.4813 23.524C69.4303 23.409 69.4056 23.284 69.409 23.1581C69.4185 22.7092 69.5764 22.276 69.858 21.9261C70.2268 21.4768 70.7107 21.136 71.258 20.9402C72.0153 20.6608 72.8192 20.5294 73.626 20.5532C74.4729 20.5191 75.3185 20.646 76.118 20.9272C76.6829 21.14 77.1425 21.5647 77.399 22.1111C77.6747 22.7925 77.8022 23.5247 77.773 24.2592C77.773 24.8225 77.773 25.3008 77.773 25.6942C77.773 26.0875 77.7687 26.5248 77.76 27.0062C77.7642 27.4857 77.8397 27.9619 77.984 28.4191C78.093 28.7253 78.1681 29.0426 78.208 29.3652C78.2035 29.4963 78.17 29.6247 78.1098 29.7413C78.0496 29.8578 77.9643 29.9595 77.86 30.0391C77.644 30.2339 77.3629 30.341 77.072 30.3392C76.792 30.3241 76.5293 30.199 76.341 29.9911C76.0448 29.6905 75.7865 29.3547 75.572 28.9911ZM75.414 25.5131C74.9115 25.6829 74.3984 25.8196 73.878 25.9222C73.206 26.0662 72.7393 26.1718 72.478 26.2391C72.2049 26.3156 71.9524 26.4523 71.739 26.6392C71.6213 26.7403 71.5284 26.8671 71.4674 27.0098C71.4064 27.1524 71.3789 27.3072 71.387 27.4622C71.385 27.6377 71.4209 27.8116 71.4924 27.9719C71.5639 28.1323 71.6691 28.2753 71.801 28.3912C72.0986 28.6546 72.487 28.7919 72.884 28.7742C73.3416 28.7783 73.7933 28.6708 74.2 28.4611C74.5673 28.285 74.875 28.0052 75.085 27.6561C75.3434 27.0931 75.4556 26.474 75.411 25.8561L75.414 25.5131Z" fill="white"/>
<path d="M82.193 30.6501L82.413 30.1132L79.455 22.6652C79.31 22.3726 79.2176 22.0567 79.182 21.7321C79.1812 21.5304 79.2362 21.3325 79.341 21.1601C79.447 20.9835 79.5972 20.8377 79.777 20.7371C79.9518 20.634 80.151 20.5791 80.354 20.5781C80.5012 20.568 80.6488 20.5926 80.7848 20.65C80.9208 20.7073 81.0414 20.7957 81.137 20.9082C81.3465 21.1939 81.5046 21.5141 81.604 21.8542L83.638 27.7701L85.566 22.2701C85.6832 21.9129 85.8214 21.563 85.98 21.2222C86.0631 21.0201 86.1984 20.8437 86.372 20.7111C86.5508 20.6132 86.7534 20.5675 86.957 20.5792C87.1415 20.5797 87.3225 20.6298 87.481 20.7241C87.6437 20.8166 87.7776 20.9523 87.868 21.1161C87.9575 21.2745 88.0047 21.4533 88.005 21.6352C87.981 21.7465 87.9427 21.9048 87.89 22.1102C87.8373 22.3155 87.7726 22.5238 87.696 22.7352L84.562 30.9402C84.3541 31.5313 84.0888 32.1007 83.7699 32.6401C83.5205 33.0426 83.1662 33.3697 82.745 33.5862C82.2051 33.8296 81.6156 33.9426 81.024 33.9161C80.4858 33.9425 79.9476 33.8648 79.439 33.6871C79.2734 33.6222 79.1329 33.5061 79.038 33.3557C78.943 33.2053 78.8985 33.0285 78.911 32.8511C78.9038 32.7329 78.9225 32.6146 78.9658 32.5044C79.0092 32.3942 79.0761 32.2947 79.162 32.2131C79.3736 32.0487 79.6387 31.9686 79.906 31.9882C80.0342 31.988 80.1617 32.0058 80.285 32.0411C80.4159 32.0737 80.5501 32.0915 80.685 32.0942C80.9086 32.1047 81.1316 32.0626 81.336 31.9711C81.5141 31.8697 81.6616 31.7222 81.763 31.5441C81.9286 31.2574 82.0724 30.9585 82.193 30.6501Z" fill="white"/>
<path d="M97.248 27.2061C97.2762 27.8148 97.1043 28.416 96.7584 28.9177C96.4126 29.4194 95.9119 29.794 95.333 29.9841C94.595 30.2451 93.8155 30.3689 93.033 30.3492C92.2739 30.3672 91.519 30.2311 90.814 29.9491C90.2797 29.7457 89.809 29.404 89.45 28.9591C89.1774 28.6199 89.0229 28.2011 89.01 27.7661C89.0081 27.6399 89.0323 27.5145 89.0808 27.3979C89.1293 27.2813 89.2012 27.1758 89.292 27.0881C89.3853 26.995 89.4967 26.9219 89.6193 26.8734C89.7419 26.825 89.8732 26.802 90.0049 26.8061C90.215 26.7921 90.4226 26.8582 90.5859 26.9911C90.742 27.1426 90.8727 27.3182 90.973 27.5111C91.1828 27.9003 91.4871 28.2304 91.858 28.4711C92.2869 28.7026 92.7711 28.8123 93.2579 28.7881C93.6749 28.8061 94.0874 28.6951 94.439 28.4701C94.5717 28.3965 94.6837 28.2905 94.7645 28.162C94.8452 28.0335 94.8922 27.8867 94.9009 27.7351C94.9135 27.5519 94.8754 27.3687 94.7907 27.2057C94.706 27.0427 94.5781 26.9062 94.421 26.8111C93.9232 26.5524 93.3912 26.3656 92.8409 26.2561C92.1512 26.0955 91.4757 25.8791 90.821 25.6091C90.3418 25.4125 89.9151 25.1068 89.575 24.7162C89.2588 24.3329 89.0928 23.8477 89.108 23.3511C89.1101 22.8628 89.2608 22.3867 89.54 21.9861C89.8592 21.5315 90.3 21.1759 90.812 20.9601C91.4532 20.689 92.145 20.5584 92.8409 20.5771C93.4059 20.5705 93.9694 20.6357 94.5179 20.7711C94.9573 20.8763 95.3767 21.0519 95.76 21.2911C96.0592 21.4772 96.3169 21.723 96.517 22.0132C96.6781 22.2403 96.7685 22.5098 96.777 22.7881C96.7809 22.9142 96.7583 23.0398 96.7106 23.1566C96.6629 23.2734 96.5911 23.3789 96.4999 23.4662C96.2819 23.6538 95.9991 23.7486 95.712 23.7301C95.484 23.7364 95.2611 23.6616 95.083 23.5191C94.8632 23.3292 94.6642 23.1167 94.489 22.8851C94.314 22.6567 94.0955 22.4653 93.846 22.3221C93.5361 22.1674 93.1918 22.0948 92.846 22.1111C92.4658 22.0967 92.0895 22.193 91.7629 22.3882C91.6364 22.4549 91.5299 22.5541 91.4542 22.6754C91.3785 22.7968 91.3363 22.9361 91.332 23.0791C91.3303 23.2006 91.3583 23.3207 91.4136 23.4289C91.4688 23.5371 91.5496 23.6302 91.649 23.7001C91.9072 23.8839 92.1965 24.0195 92.503 24.1001C92.861 24.2061 93.354 24.3352 93.982 24.4872C94.6154 24.6287 95.229 24.8477 95.809 25.1391C96.2314 25.3495 96.599 25.6552 96.8829 26.0321C97.1259 26.3749 97.2538 26.786 97.248 27.2061Z" fill="white"/>
<path d="M105.356 28.9911C104.842 29.4034 104.275 29.7454 103.67 30.0082C103.09 30.2413 102.468 30.3566 101.843 30.3472C101.28 30.3594 100.723 30.2341 100.219 29.9822C99.7745 29.759 99.4011 29.4161 99.141 28.9921C98.8908 28.5842 98.7596 28.1146 98.762 27.6362C98.7481 27.0166 98.9717 26.4151 99.387 25.9551C99.8449 25.4685 100.447 25.1415 101.104 25.0221C101.257 24.9868 101.635 24.9075 102.24 24.7842C102.845 24.6608 103.363 24.5478 103.794 24.4451C104.225 24.3425 104.692 24.2178 105.194 24.0712C105.207 23.5769 105.074 23.0899 104.811 22.6711C104.625 22.4978 104.403 22.3679 104.161 22.2909C103.919 22.214 103.663 22.1918 103.411 22.2261C102.938 22.1983 102.465 22.2858 102.033 22.4811C101.709 22.6666 101.437 22.9299 101.241 23.2471C101.097 23.4792 100.941 23.7038 100.774 23.9202C100.693 23.9858 100.599 24.0342 100.498 24.0622C100.398 24.0902 100.293 24.0973 100.189 24.0831C99.9313 24.0877 99.6813 23.9948 99.489 23.8231C99.3934 23.7412 99.3173 23.6391 99.2663 23.524C99.2153 23.409 99.1906 23.284 99.194 23.1581C99.2036 22.7092 99.3614 22.276 99.643 21.9261C100.012 21.4769 100.496 21.1361 101.043 20.9401C101.8 20.6608 102.604 20.5294 103.411 20.5532C104.258 20.5192 105.103 20.6461 105.902 20.9271C106.467 21.14 106.926 21.5647 107.183 22.1111C107.459 22.7925 107.586 23.5247 107.557 24.2591C107.557 24.8225 107.557 25.3008 107.557 25.6941C107.557 26.0875 107.553 26.5248 107.544 27.0062C107.549 27.4857 107.624 27.9619 107.769 28.4191C107.878 28.7253 107.953 29.0426 107.993 29.3652C107.989 29.4963 107.955 29.6247 107.895 29.7413C107.835 29.8578 107.749 29.9595 107.645 30.0391C107.429 30.2339 107.148 30.341 106.857 30.3392C106.577 30.3241 106.314 30.199 106.126 29.9911C105.829 29.6906 105.571 29.3547 105.356 28.9911ZM105.198 25.5131C104.696 25.6829 104.182 25.8196 103.662 25.9222C102.99 26.0662 102.523 26.1718 102.262 26.2391C101.989 26.3155 101.736 26.4522 101.522 26.6392C101.404 26.7403 101.311 26.8671 101.25 27.0098C101.189 27.1524 101.162 27.3072 101.17 27.4622C101.168 27.6377 101.204 27.8116 101.275 27.9719C101.347 28.1323 101.452 28.2753 101.584 28.3912C101.882 28.6545 102.27 28.7918 102.667 28.7742C103.125 28.7782 103.576 28.6707 103.983 28.4611C104.35 28.285 104.658 28.0051 104.868 27.6561C105.126 27.0931 105.239 26.474 105.194 25.8561L105.198 25.5131Z" fill="white"/>
<path d="M115 30.0003V16.3893H119.471C120.375 16.356 121.274 16.5358 122.096 16.9143C122.737 17.2214 123.269 17.7163 123.622 18.3333C123.946 18.9541 124.116 19.6438 124.118 20.3441C124.119 21.0444 123.953 21.7348 123.632 22.3573C123.284 22.9767 122.755 23.4752 122.116 23.7863C121.29 24.1727 120.383 24.3561 119.472 24.3213H116.634V30.0003H115ZM116.633 22.9433H119.433C120.268 23.0255 121.102 22.7779 121.756 22.2533C121.994 21.9999 122.178 21.7008 122.296 21.3742C122.415 21.0476 122.466 20.7002 122.446 20.3533C122.466 20.004 122.416 19.6543 122.297 19.3251C122.179 18.996 121.994 18.6943 121.756 18.4383C121.101 17.9138 120.268 17.6662 119.433 17.7483H116.633V22.9433Z" fill="white"/>
<path d="M126.159 29.9983V20.3553H127.637L127.773 22.2023C128.066 21.5732 128.54 21.0455 129.134 20.6863C129.818 20.2908 130.599 20.0954 131.389 20.1223V21.8333H130.942C130.403 21.8271 129.867 21.9291 129.368 22.1333C128.884 22.3383 128.481 22.6971 128.221 23.1543C127.904 23.7668 127.756 24.4526 127.792 25.1413V30.0013L126.159 29.9983Z" fill="white"/>
<path d="M137.241 30.2313C136.384 30.2442 135.538 30.0296 134.791 29.6093C134.065 29.1946 133.469 28.5854 133.07 27.8503C132.633 27.0284 132.416 26.1078 132.438 25.1773C132.416 24.2456 132.637 23.3242 133.08 22.5043C133.486 21.7682 134.088 21.1593 134.82 20.7453C135.571 20.3257 136.419 20.1112 137.279 20.1233C138.136 20.1104 138.982 20.325 139.729 20.7453C140.455 21.1605 141.05 21.7696 141.449 22.5043C141.886 23.3262 142.103 24.2468 142.081 25.1773C142.103 26.109 141.882 27.0304 141.439 27.8503C141.033 28.5863 140.431 29.1952 139.699 29.6093C138.948 30.0288 138.101 30.2434 137.241 30.2313ZM137.24 28.8313C137.785 28.8344 138.322 28.6937 138.795 28.4233C139.292 28.1332 139.696 27.7085 139.962 27.1983C140.279 26.5726 140.433 25.8772 140.409 25.1763C140.432 24.4766 140.282 23.7819 139.972 23.1543C139.712 22.6433 139.31 22.218 138.815 21.9293C138.348 21.6605 137.818 21.5198 137.279 21.5213C136.734 21.5182 136.197 21.6589 135.724 21.9293C135.227 22.2192 134.822 22.6439 134.557 23.1543C134.262 23.7877 134.11 24.4778 134.11 25.1763C134.11 25.8748 134.262 26.5649 134.557 27.1983C134.821 27.7067 135.222 28.131 135.714 28.4233C136.177 28.6928 136.704 28.8336 137.24 28.8313Z" fill="white"/>
<path d="M142.47 34.2753V32.8753H143.228C143.6 32.9093 143.971 32.8022 144.268 32.5753C144.388 32.4357 144.478 32.2732 144.533 32.0977C144.589 31.9222 144.607 31.7373 144.589 31.5543V20.3543H146.222V31.5943C146.255 31.9646 146.21 32.3377 146.089 32.6893C145.969 33.041 145.775 33.3633 145.522 33.6353C144.947 34.0999 144.217 34.3293 143.48 34.2773L142.47 34.2753ZM145.425 18.2173C145.277 18.2204 145.13 18.1936 144.992 18.1384C144.855 18.0832 144.73 18.0009 144.625 17.8963C144.517 17.7922 144.432 17.6666 144.375 17.5277C144.318 17.3887 144.291 17.2394 144.295 17.0893C144.291 16.9436 144.319 16.7988 144.376 16.6646C144.433 16.5304 144.518 16.41 144.625 16.3113C144.84 16.1058 145.128 15.9939 145.425 16.0003C145.57 15.997 145.715 16.0228 145.85 16.0762C145.985 16.1296 146.108 16.2095 146.212 16.3113C146.317 16.4114 146.4 16.5323 146.455 16.6663C146.51 16.8003 146.537 16.9444 146.533 17.0893C146.537 17.2386 146.511 17.3872 146.456 17.526C146.401 17.6648 146.318 17.7908 146.212 17.8963C146.11 18.0007 145.987 18.0831 145.852 18.1383C145.716 18.1935 145.571 18.2204 145.425 18.2173Z" fill="white"/>
<path d="M153.396 30.2313C152.537 30.2474 151.69 30.0289 150.946 29.5993C150.234 29.1793 149.652 28.5705 149.264 27.8403C148.839 27.0179 148.629 26.1016 148.652 25.1763C148.63 24.2557 148.836 23.344 149.252 22.5223C149.634 21.7853 150.217 21.1719 150.934 20.7533C151.695 20.321 152.559 20.1026 153.434 20.1213C154.284 20.0995 155.123 20.3186 155.854 20.7533C156.516 21.1556 157.057 21.73 157.419 22.4153C157.78 23.0977 157.967 23.859 157.963 24.6313C157.963 24.7739 157.96 24.9166 157.953 25.0593C157.946 25.2019 157.943 25.3639 157.943 25.5453H150.264C150.276 26.1915 150.453 26.8239 150.779 27.3823C151.05 27.8327 151.434 28.2048 151.892 28.4622C152.351 28.7196 152.868 28.8533 153.394 28.8503C153.992 28.8714 154.582 28.7084 155.085 28.3833C155.537 28.0736 155.883 27.6323 156.076 27.1193H157.69C157.435 28.05 156.87 28.8657 156.088 29.4313C155.306 29.9969 154.354 30.2784 153.39 30.2293M153.39 21.5003C152.639 21.4914 151.907 21.7422 151.319 22.2103C151.011 22.4638 150.759 22.779 150.58 23.1357C150.401 23.4924 150.298 23.8826 150.279 24.2813H156.344C156.345 23.8976 156.266 23.518 156.112 23.1666C155.958 22.8151 155.733 22.4997 155.45 22.2403C154.881 21.7431 154.145 21.4792 153.389 21.5013" fill="white"/>
<path d="M164.555 30.2313C163.687 30.2448 162.831 30.0266 162.076 29.5993C161.347 29.1811 160.748 28.5687 160.346 27.8303C159.931 27.0074 159.714 26.0985 159.714 25.1768C159.714 24.255 159.931 23.3462 160.346 22.5233C160.748 21.7849 161.347 21.1725 162.076 20.7543C162.831 20.327 163.687 20.1088 164.555 20.1223C165.59 20.0892 166.607 20.404 167.442 21.0163C168.218 21.6003 168.748 22.4529 168.929 23.4073H167.257C167.2 23.1232 167.087 22.8536 166.923 22.6147C166.759 22.3758 166.548 22.1726 166.304 22.0173C165.777 21.6789 165.161 21.5049 164.535 21.5173C163.978 21.5142 163.431 21.6651 162.955 21.9533C162.478 22.2414 162.091 22.6557 161.835 23.1503C161.54 23.7837 161.388 24.4738 161.388 25.1723C161.388 25.8708 161.54 26.5609 161.835 27.1943C162.102 27.7058 162.506 28.133 163.002 28.4283C163.467 28.7034 163.998 28.8478 164.538 28.8463C165.164 28.8587 165.78 28.6846 166.307 28.3463C166.553 28.1884 166.765 27.982 166.929 27.7395C167.093 27.4971 167.205 27.2238 167.26 26.9363H168.932C168.753 27.8838 168.226 28.73 167.454 29.3083C166.619 29.9329 165.596 30.2551 164.554 30.2223" fill="white"/>
<path d="M174.741 30.0023C173.993 30.0449 173.255 29.8171 172.661 29.3603C172.375 29.0521 172.16 28.6859 172.029 28.2867C171.898 27.8875 171.855 27.4647 171.903 27.0473V21.7353H170.226V20.3553H171.898L172.112 18.0413H173.531V20.3553H176.369V21.7353H173.536V27.0423C173.509 27.2623 173.527 27.4856 173.591 27.6981C173.654 27.9105 173.761 28.1074 173.905 28.2763C174.289 28.5284 174.748 28.6417 175.205 28.5973H176.216V29.9973L174.741 30.0023Z" fill="white"/>
<path d="M182.149 30.2313C181.119 30.2697 180.106 29.9616 179.272 29.3563C178.897 29.0745 178.585 28.7184 178.354 28.3102C178.123 27.9021 177.979 27.4507 177.93 26.9843H179.602C179.712 27.5014 179.997 27.9647 180.409 28.2963C180.909 28.6876 181.534 28.8844 182.168 28.8503C182.71 28.8954 183.25 28.7399 183.685 28.4133C183.837 28.2861 183.96 28.127 184.044 27.9473C184.128 27.7676 184.171 27.5716 184.171 27.3733C184.198 27.1375 184.152 26.8992 184.039 26.6905C183.926 26.4819 183.751 26.3132 183.539 26.2073C182.967 25.9672 182.371 25.7911 181.76 25.6823C181.23 25.5757 180.71 25.4262 180.205 25.2353C179.716 25.059 179.272 24.777 178.905 24.4093C178.727 24.2217 178.589 24.0002 178.499 23.7582C178.409 23.5161 178.368 23.2584 178.38 23.0003C178.37 22.6062 178.45 22.2149 178.613 21.8561C178.776 21.4973 179.019 21.1804 179.323 20.9293C180.049 20.3588 180.957 20.0719 181.879 20.1223C182.781 20.0841 183.67 20.3551 184.397 20.8903C184.727 21.1564 184.999 21.4881 185.195 21.8646C185.39 22.241 185.506 22.6539 185.534 23.0773H183.921C183.899 22.8518 183.832 22.6332 183.723 22.4344C183.614 22.2356 183.467 22.0607 183.289 21.9203C182.874 21.6235 182.37 21.4762 181.86 21.5023C181.381 21.4721 180.906 21.6019 180.509 21.8713C180.357 21.9831 180.235 22.1298 180.152 22.299C180.069 22.4682 180.028 22.6549 180.033 22.8433C180.036 23.0386 180.095 23.2289 180.204 23.3911C180.313 23.5533 180.466 23.6805 180.646 23.7573C181.172 24.0188 181.731 24.2085 182.308 24.3213C182.884 24.4455 183.451 24.6044 184.008 24.7973C184.511 24.963 184.965 25.2501 185.33 25.6333C185.7 26.0813 185.884 26.6538 185.845 27.2333C185.86 27.643 185.779 28.0506 185.608 28.4235C185.438 28.7964 185.183 29.1244 184.863 29.3813C184.09 29.9799 183.127 30.2802 182.151 30.2273" fill="white"/>
</g>
<defs>
<filter id="filter0_d_18_36" x="-1" y="3" width="43.175" height="43.175" filterUnits="userSpaceOnUse" color-interpolation-filters="sRGB">
<feFlood flood-opacity="0" result="BackgroundImageFix"/>
<feColorMatrix in="SourceAlpha" type="matrix" values="0 0 0 0 0 0 0 0 0 0 0 0 0 0 0 0 0 0 127 0" result="hardAlpha"/>
<feOffset dy="1"/>
<feGaussianBlur stdDeviation="2"/>
<feColorMatrix type="matrix" values="0 0 0 0 0 0 0 0 0 0 0 0 0 0 0 0 0 0 0.239 0"/>
<feBlend mode="normal" in2="BackgroundImageFix" result="effect1_dropShadow_18_36"/>
<feBlend mode="normal" in="SourceGraphic" in2="effect1_dropShadow_18_36" result="shape"/>
</filter>
<linearGradient id="paint0_linear_18_36" x1="16.1723" y1="26.9929" x2="19.4252" y2="24.5758" gradientUnits="userSpaceOnUse">
<stop stop-color="#0673F7"/>
<stop offset="1" stop-color="#004AB3"/>
</linearGradient>
<linearGradient id="paint1_linear_18_36" x1="20.5373" y1="19.4504" x2="20.4436" y2="23.4895" gradientUnits="userSpaceOnUse">
<stop stop-color="#0673F7"/>
<stop offset="1" stop-color="#004AB3"/>
</linearGradient>
<linearGradient id="paint2_linear_18_36" x1="24.9249" y1="26.9946" x2="19.8822" y2="25.3162" gradientUnits="userSpaceOnUse">
<stop stop-color="#0673F7"/>
<stop offset="1" stop-color="#004AB3"/>
</linearGradient>
<clipPath id="clip0_18_36">
<rect width="189" height="47" fill="white"/>
</clipPath>
</defs>
</svg>
