<svg xmlns="http://www.w3.org/2000/svg" xmlns:xlink="http://www.w3.org/1999/xlink" width="172.513" height="186.816" viewBox="0 0 172.513 186.816">
  <defs>
    <linearGradient id="linear-gradient" x1="0.164" y1="0.175" x2="0.856" y2="0.954" gradientUnits="objectBoundingBox">
      <stop offset="0" stop-color="#0078d4"/>
      <stop offset="1" stop-color="#00b1ff"/>
    </linearGradient>
    <linearGradient id="linear-gradient-2" x1="0.131" y1="0.076" x2="0.817" y2="0.884" xlink:href="#linear-gradient"/>
    <clipPath id="clip-path">
      <path id="Path_2540" data-name="Path 2540" d="M114.935,145.721l7.8,10.151,26.606,34.656,3.155,4.107a18.765,18.765,0,0,0,14.861,7.359h.143a18.74,18.74,0,0,0,12.525-4.841v-.005a18.74,18.74,0,0,0,6.216-13.935v-.08a18.742,18.742,0,0,0-5.88-13.619l-3.832-3.631L145.85,136.829l-10.27-9.724Z" transform="translate(-114.935 -127.105)" fill="url(#linear-gradient)"/>
    </clipPath>
    <clipPath id="clip-path-2">
      <rect id="Rectangle_1301" data-name="Rectangle 1301" width="172.513" height="186.816" fill="none"/>
    </clipPath>
    <clipPath id="clip-path-3">
      <path id="Path_2542" data-name="Path 2542" d="M21.114,72.937a51.822,51.822,0,1,1,51.819,51.82,51.821,51.821,0,0,1-51.819-51.82M72.933,0a72.934,72.934,0,0,0,0,145.868,71.51,71.51,0,0,0,7.875-.424A72.935,72.935,0,0,0,72.933,0Z" transform="translate(0)" fill="url(#linear-gradient-2)"/>
    </clipPath>
    <clipPath id="clip-path-5">
      <path id="Path_2547" data-name="Path 2547" d="M21.146,0a8.407,8.407,0,0,1-8.4,8.4A8.407,8.407,0,0,1,4.35,0H0A12.762,12.762,0,0,0,12.748,12.748,12.763,12.763,0,0,0,25.5,0Z" fill="#0078d4"/>
    </clipPath>
    <clipPath id="clip-path-6">
      <path id="Path_2548" data-name="Path 2548" d="M137.605,0a8.407,8.407,0,0,1-8.4,8.4,8.407,8.407,0,0,1-8.4-8.4h-4.35a12.762,12.762,0,0,0,12.748,12.748A12.762,12.762,0,0,0,141.956,0Z" transform="translate(-116.46)" fill="#0078d4"/>
    </clipPath>
    <clipPath id="clip-path-7">
      <rect id="Rectangle_1307" data-name="Rectangle 1307" width="67.717" height="37.829" fill="#0078d4"/>
    </clipPath>
  </defs>
  <g id="Group_793" data-name="Group 793" transform="translate(-963.259 -677.432)">
    <g id="Group_782" data-name="Group 782" transform="translate(963.259 677.432)">
      <g id="Group_775" data-name="Group 775" transform="translate(101.211 111.928)">
        <g id="Group_774" data-name="Group 774" clip-path="url(#clip-path)">
          <rect id="Rectangle_1300" data-name="Rectangle 1300" width="71.302" height="74.888" transform="translate(0)" fill="url(#linear-gradient)"/>
        </g>
      </g>
      <g id="Group_777" data-name="Group 777" transform="translate(0)">
        <g id="Group_776" data-name="Group 776" clip-path="url(#clip-path-2)">
          <path id="Path_2541" data-name="Path 2541" d="M145.849,136.829l-.158.2a73.2,73.2,0,0,1-22.962,18.846l-7.8-10.151L135.58,127.1Z" transform="translate(-13.724 -15.177)" fill="#0078d4"/>
        </g>
      </g>
      <g id="Group_779" data-name="Group 779" transform="translate(0)">
        <g id="Group_778" data-name="Group 778" clip-path="url(#clip-path-3)">
          <rect id="Rectangle_1302" data-name="Rectangle 1302" width="145.868" height="145.868" transform="translate(0 0)" fill="url(#linear-gradient-2)"/>
        </g>
      </g>
      <g id="Group_781" data-name="Group 781" transform="translate(0)">
        <g id="Group_780" data-name="Group 780" clip-path="url(#clip-path-2)">
          <path id="Path_2543" data-name="Path 2543" d="M82.824,141.674" transform="translate(-9.89 -16.917)" fill="#0078d4"/>
          <path id="Path_2544" data-name="Path 2544" d="M38.061,137.047c.009.238.012.476.021.714h0Z" transform="translate(-4.545 -16.364)" fill="#a53a30"/>
        </g>
      </g>
    </g>
    <g id="Group_792" data-name="Group 792" transform="translate(1001.917 743.947)">
      <g id="Group_787" data-name="Group 787">
        <g id="Group_786" data-name="Group 786" clip-path="url(#clip-path-5)">
          <rect id="Rectangle_1305" data-name="Rectangle 1305" width="25.496" height="12.748" transform="translate(0 0)" fill="#0078d4"/>
        </g>
      </g>
      <g id="Group_789" data-name="Group 789" transform="translate(42.221)">
        <g id="Group_788" data-name="Group 788" clip-path="url(#clip-path-6)">
          <rect id="Rectangle_1306" data-name="Rectangle 1306" width="25.496" height="12.748" transform="translate(0 0)" fill="#0078d4"/>
        </g>
      </g>
      <g id="Group_791" data-name="Group 791" transform="translate(0 0)">
        <g id="Group_790" data-name="Group 790" clip-path="url(#clip-path-7)">
          <path id="Path_2549" data-name="Path 2549" d="M71.655,67.868a8.076,8.076,0,1,1,8.076,8.076,8.076,8.076,0,0,1-8.076-8.076" transform="translate(-45.678 -38.115)" fill="#0078d4"/>
        </g>
      </g>
    </g>
  </g>
</svg>
