<svg xmlns="http://www.w3.org/2000/svg" xmlns:xlink="http://www.w3.org/1999/xlink" width="81" height="68" viewBox="0 0 81 68">
  <defs>
    <linearGradient id="linear-gradient" x1="0.5" x2="0.5" y2="0.978" gradientUnits="objectBoundingBox">
      <stop offset="0" stop-color="#32bdef"/>
      <stop offset="1" stop-color="#179adc"/>
    </linearGradient>
  </defs>
  <g id="Group_1350" data-name="Group 1350" transform="translate(-1134.001 -306)">
    <rect id="Rectangle_468" data-name="Rectangle 468" width="38" height="38" rx="4" transform="translate(1134.001 307)" fill="rgba(39,174,233,0.23)"/>
    <rect id="Rectangle_469" data-name="Rectangle 469" width="22" height="22" rx="3" transform="translate(1193.001 352)" fill="rgba(39,174,233,0.23)"/>
    <rect id="Rectangle_470" data-name="Rectangle 470" width="15" height="15" rx="3" transform="translate(1200.001 306)" fill="rgba(39,174,233,0.23)"/>
    <rect id="Rectangle_525" data-name="Rectangle 525" width="39" height="49" rx="4" transform="translate(1158 319)" fill="url(#linear-gradient)"/>
    <path id="Path_2904" data-name="Path 2904" d="M-12.1,0V-17.187h3.945a4.077,4.077,0,0,1,1.7.313,2.453,2.453,0,0,1,1.069.928,4.243,4.243,0,0,1,.557,1.519,11.638,11.638,0,0,1,.166,2.085v.361a11.96,11.96,0,0,1-.288,2.827,3.187,3.187,0,0,1-1.03,1.772,3.223,3.223,0,0,1-2.09.605H-9.482V0Zm2.617-8.936h.9a1.145,1.145,0,0,0,.859-.293,1.721,1.721,0,0,0,.376-.972,14,14,0,0,0,.093-1.812v-.332A7.39,7.39,0,0,0-7.5-14.458a1,1,0,0,0-1.064-.718h-.918ZM-2.891,0V-17.187H.967a3.756,3.756,0,0,1,2.1.522,2.943,2.943,0,0,1,1.147,1.509,7.039,7.039,0,0,1,.356,2.383L4.58-5.02a9.151,9.151,0,0,1-.366,2.808A3.08,3.08,0,0,1,3.037-.547,3.8,3.8,0,0,1,.879,0ZM-.273-2.031H.586a1.461,1.461,0,0,0,.767-.186,1.13,1.13,0,0,0,.459-.659,4.623,4.623,0,0,0,.151-1.343l-.01-8.486A4.105,4.105,0,0,0,1.631-14.6,1.186,1.186,0,0,0,.5-15.176H-.273ZM6.953,0V-17.187h5.9v2.275H9.57v4.57h3.047v2.285H9.57V0Z" transform="translate(1177 353)" fill="#fff"/>
  </g>
</svg>
