<svg xmlns="http://www.w3.org/2000/svg" xmlns:xlink="http://www.w3.org/1999/xlink" width="24" height="24.916" viewBox="0 0 24 24.916">
  <defs>
    <linearGradient id="linear-gradient" x1="0.964" y1="0.226" x2="0.243" y2="0.652" gradientUnits="objectBoundingBox">
      <stop offset="0.024" stop-color="#8f4700"/>
      <stop offset="1" stop-color="#703e2d"/>
    </linearGradient>
  </defs>
  <g id="Frame_11_" data-name="Frame (11)" transform="translate(-4.391 -6.145)">
    <path id="Path_4445" data-name="Path 4445" d="M5.6,56.8c.545.59,2.788-.439,4.558-1.264,1.327-.617,6.635-2.795,9.274-3.925a5.62,5.62,0,0,0,2.495-1.684c.662-.873,2.418-4.582-1.118-8.339-3.589-3.814-7.286-2.761-8.667-1.782a6.838,6.838,0,0,0-1.773,2.533c-1.257,2.788-3.049,7.895-3.778,9.9C6.052,53.719,5.057,56.212,5.6,56.8Z" transform="translate(-1.05 -25.911)" fill="#ffc107"/>
    <path id="Path_4446" data-name="Path 4446" d="M12.094,53.192a17.76,17.76,0,0,0,.405,2.4,15.234,15.234,0,0,0,.78,2.459,6,6,0,0,0,3,3.227A10.806,10.806,0,0,0,19.463,62.5l-1.545.631a10.318,10.318,0,0,1-2.212-.823,7.16,7.16,0,0,1-3.409-3.6,10.666,10.666,0,0,1-.768-2.358,10.162,10.162,0,0,1-.192-1.286Zm-1.9,4.865a9.2,9.2,0,0,0,1.478,3.522,6.029,6.029,0,0,0,3.61,2.675l-1.4.576a6.719,6.719,0,0,1-3.047-2.5,7.407,7.407,0,0,1-1.185-2.776Zm-1.331,3.69a7.573,7.573,0,0,0,1.118,2.346,4.545,4.545,0,0,0,2.077,1.545l-1.072.475a3.369,3.369,0,0,1-1.7-1.3,4.806,4.806,0,0,1-.868-1.84Z" transform="translate(-3.133 -35.926)" fill="#ff8f00"/>
    <path id="Path_4447" data-name="Path 4447" d="M7.885,62.727a.4.4,0,0,1,0-.336L14,49.72,15,53.5,8.573,62.785A.394.394,0,0,1,7.885,62.727Z" transform="translate(-2.736 -33.496)" fill="#fffde7" opacity="0.44"/>
    <path id="Path_4448" data-name="Path 4448" d="M29.354,49.269c2.855,3.339,6.105,2.922,7.187,2.077s1.941-3.757-.9-7.041c-2.979-3.44-6.352-2.459-7.132-1.715S26.734,46.205,29.354,49.269Z" transform="translate(-16.779 -27.812)" fill="url(#linear-gradient)"/>
    <path id="Path_4449" data-name="Path 4449" d="M48.32,52.307A1.4,1.4,0,0,0,46.557,52a4.708,4.708,0,0,1-3.4,0l.465-1.119A2.417,2.417,0,0,0,45.77,50.7a2.441,2.441,0,0,1,3.316.289c.655.55,1.325.915,1.817.749.358-.119.548-.653.644-1.078.009-.038.024-.146.034-.242a3.862,3.862,0,0,1,1.3-2.828,4.561,4.561,0,0,1,2.34-.783l.217,2.155a1.879,1.879,0,0,0-1.259.21c-1.219.678-.157,3.282-2.054,4.157C50.3,54.178,48.808,52.715,48.32,52.307Z" transform="translate(-27.243 -31.019)" fill="#03a9f4"/>
    <path id="Path_4450" data-name="Path 4450" d="M32.151,15.807l-.785-.7a3.221,3.221,0,0,0,.785-3.653c-.056-.174-.108-.338-.143-.5a4.783,4.783,0,0,1-.11-1.465,5.152,5.152,0,0,1-.814-1.459,3.4,3.4,0,0,1,.5-2.942,4.143,4.143,0,0,1,3.3-1.89l.709,1.9c-.539-.022-2.306.005-2.848.861a1.656,1.656,0,0,0-.2,1.819,3.055,3.055,0,0,1,.385-.416,2.773,2.773,0,0,1,2.1-.835A1.967,1.967,0,0,1,36.4,7.29a2.1,2.1,0,0,1,.418,1.7,1.992,1.992,0,0,1-1.054,1.34,2.892,2.892,0,0,1-2.347.273c0,.013.005.027.009.04.02.09.06.217.107.363C33.849,12,34.444,13.57,32.151,15.807ZM33.48,9.021a1.524,1.524,0,0,0,.329.184,1.446,1.446,0,0,0,1.264-.152c.277-.148.309-.307.32-.36a.657.657,0,0,0-.139-.508.515.515,0,0,0-.365-.215,1.51,1.51,0,0,0-1.005.476A1.585,1.585,0,0,0,33.48,9.021Z" transform="translate(-17.591 2.945)" fill="#f44336"/>
    <path id="Path_4451" data-name="Path 4451" d="M46.371,18.956l-1.123-.031s.533-3.012,2.26-3.519a7.857,7.857,0,0,1,1.034-.242,4.653,4.653,0,0,0,.711-.143,2.7,2.7,0,0,0-.215-1.056,6.469,6.469,0,0,1-.271-1,1.9,1.9,0,0,1,.524-1.74,2.656,2.656,0,0,1,2.439-.452,4.009,4.009,0,0,1,1.363.656c.53.353.839.532,1.486.1.783-.528-.24-2.595-.785-3.788l2.031-.846c.273.6,1.591,3.667.721,5.419a2.074,2.074,0,0,1-1.459,1.127,3.378,3.378,0,0,1-2.9-.647,3.032,3.032,0,0,0-.823-.425c-1.922-.548.761,2.28-.5,3.551a5.733,5.733,0,0,1-2.716.991C46.971,17.189,46.371,18.956,46.371,18.956Z" transform="translate(-28.865 0.091)" fill="#f48fb1"/>
    <path id="Path_4452" data-name="Path 4452" d="M35.1,31.032a3.364,3.364,0,0,0,.052,1.152,3.4,3.4,0,0,0,1.58.365c-.047-.146-.089-.273-.107-.363,0-.013-.005-.027-.009-.04A4.4,4.4,0,0,1,35.1,31.032Z" transform="translate(-20.778 -18.701)" fill="#c92b27"/>
    <path id="Path_4453" data-name="Path 4453" d="M18.822,31.166l-1.87-.917.931-1.345,1.466.971Z" transform="translate(-6.68 -17.05)" fill="#ffc107"/>
    <path id="Path_4454" data-name="Path 4454" d="M6.066,20.38a4.694,4.694,0,0,1-2.034-1.031l.938-1.1a3.289,3.289,0,0,0,1.289.7Z" transform="translate(3.414 -8.708)" fill="#fb8c00"/>
    <path id="Path_4455" data-name="Path 4455" d="M15.782,9.549,14.408,9.1a3.2,3.2,0,0,0,.118-1.5l1.429-.23A4.646,4.646,0,0,1,15.782,9.549Z" transform="translate(-4.699 -0.28)" fill="#03a9f4"/>
    <path id="Path_4456" data-name="Path 4456" d="M58.458,11.2l1.413-.309.408,1.865-1.413.309Z" transform="translate(-38.967 -3.009)" fill="#fb8c00"/>
    <path id="Path_4457" data-name="Path 4457" d="M70.563,6.693l-.995-1.051a2.3,2.3,0,0,0,.64-1.146l1.429.233A3.693,3.693,0,0,1,70.563,6.693Z" transform="translate(-47.612 1.943)" fill="#ffc107"/>
    <path id="Path_4458" data-name="Path 4458" d="M76.411,37.512l1.263-.395.431,1.381-1.263.395Z" transform="translate(-52.979 -23.435)" fill="#fb8c00"/>
    <path id="Path_4459" data-name="Path 4459" d="M71.662,82.492l-1.438-.17a2.19,2.19,0,0,0-.425-1.278l1.157-.868A3.576,3.576,0,0,1,71.662,82.492Z" transform="translate(-47.79 -56.937)" fill="#f44336"/>
    <path id="Path_4460" data-name="Path 4460" d="M90.513,77.016a8.891,8.891,0,0,0-1.64-.094l-.049-1.447a10.32,10.32,0,0,1,1.9.11Z" transform="translate(-62.592 -53.264)" fill="#fb8c00"/>
    <path id="Path_4461" data-name="Path 4461" d="M87.691,87.6l1.016-1.029,1.4,1.381L89.09,88.978Z" transform="translate(-61.715 -61.908)" fill="#f48fb1"/>
    <path id="Path_4462" data-name="Path 4462" d="M70.39,50.667l1.045,1.2-1.2,1.045-1.045-1.2Z" transform="translate(-47.324 -33.978)" fill="#f44336"/>
  </g>
</svg>
