<svg xmlns="http://www.w3.org/2000/svg" xmlns:xlink="http://www.w3.org/1999/xlink" width="120.002" height="47.175" viewBox="0 0 120.002 47.175"><defs><filter id="a" x="0" y="0" width="47.174" height="47.175" filterUnits="userSpaceOnUse"><feOffset dy="1" input="SourceAlpha"/><feGaussianBlur stdDeviation="2" result="b"/><feFlood flood-opacity="0.239"/><feComposite operator="in" in2="b"/><feComposite in="SourceGraphic"/></filter><linearGradient id="c" x1="0.467" y1="0.488" x2="0.689" y2="0.334" gradientUnits="objectBoundingBox"><stop offset="0" stop-color="#0673f7"/><stop offset="1" stop-color="#004ab3"/></linearGradient><linearGradient id="d" x1="0.501" y1="0.496" x2="0.494" y2="0.778" xlink:href="#c"/><linearGradient id="e" x1="0.383" y1="0.522" x2="-0.023" y2="0.342" xlink:href="#c"/></defs><g transform="translate(21441 14078.363)"><g transform="matrix(1, 0, 0, 1, -21441, -14078.36)" filter="url(#a)"><path d="M27.315,35.175H7.86A7.883,7.883,0,0,1,0,27.315V7.86A7.883,7.883,0,0,1,7.86,0H27.315a7.883,7.883,0,0,1,7.86,7.86V27.315a7.883,7.883,0,0,1-7.86,7.86" transform="translate(6 5)" fill="#fff"/></g><g transform="translate(-21513.102 -13987.378)"><path d="M147.383,26.6V12.989h4.471a5.767,5.767,0,0,1,2.625.525,3.5,3.5,0,0,1,1.526,1.419,4.37,4.37,0,0,1,.01,4.024,3.493,3.493,0,0,1-1.516,1.429,5.725,5.725,0,0,1-2.644.535h-2.838V26.6Zm1.633-7.057h2.8a3.211,3.211,0,0,0,2.323-.69,2.562,2.562,0,0,0,.69-1.9,2.589,2.589,0,0,0-.69-1.915,3.212,3.212,0,0,0-2.323-.69h-2.8Z" transform="translate(-26.123 -88.833)" fill="#fff"/><path d="M207.151,42.857V33.214h1.478l.136,1.847a3.5,3.5,0,0,1,1.361-1.516,4.219,4.219,0,0,1,2.255-.564v1.711h-.447a4.036,4.036,0,0,0-1.574.3,2.392,2.392,0,0,0-1.147,1.021A3.883,3.883,0,0,0,208.784,38v4.86Z" transform="translate(-74.732 -105.092)" fill="#fff"/><path d="M245.586,43.09a4.849,4.849,0,0,1-2.45-.622,4.492,4.492,0,0,1-1.721-1.759,5.418,5.418,0,0,1-.632-2.673,5.352,5.352,0,0,1,.642-2.673,4.541,4.541,0,0,1,1.74-1.759,4.9,4.9,0,0,1,2.459-.622,4.85,4.85,0,0,1,2.45.622,4.5,4.5,0,0,1,1.72,1.759,5.419,5.419,0,0,1,.632,2.673,5.351,5.351,0,0,1-.642,2.673,4.543,4.543,0,0,1-1.74,1.759,4.9,4.9,0,0,1-2.459.622m0-1.4a3.1,3.1,0,0,0,1.555-.408,3.05,3.05,0,0,0,1.167-1.225,4.166,4.166,0,0,0,.447-2.022,4.244,4.244,0,0,0-.437-2.022,2.985,2.985,0,0,0-1.157-1.225,3.063,3.063,0,0,0-1.536-.408,3.1,3.1,0,0,0-1.555.408,3.045,3.045,0,0,0-1.167,1.225,4.795,4.795,0,0,0,0,4.044,3.066,3.066,0,0,0,1.157,1.225,3.009,3.009,0,0,0,1.526.408" transform="translate(-102.085 -105.092)" fill="#fff"/><path d="M294.513,29.181v-1.4h.758a1.489,1.489,0,0,0,1.04-.3,1.358,1.358,0,0,0,.321-1.021v-11.2h1.633V26.5a2.647,2.647,0,0,1-.7,2.041,2.922,2.922,0,0,1-2.042.642Zm2.955-16.058a1.1,1.1,0,0,1-.8-.321,1.077,1.077,0,0,1-.33-.807,1.023,1.023,0,0,1,.33-.778,1.123,1.123,0,0,1,.8-.311,1.089,1.089,0,0,1,.787.311,1.039,1.039,0,0,1,.321.778,1.094,1.094,0,0,1-.321.807,1.07,1.07,0,0,1-.787.321" transform="translate(-145.783 -87.139)" fill="#fff"/><path d="M332.369,43.09a4.722,4.722,0,0,1-2.45-.632,4.483,4.483,0,0,1-1.682-1.759,5.5,5.5,0,0,1-.612-2.664,5.586,5.586,0,0,1,.6-2.654,4.385,4.385,0,0,1,1.682-1.769,4.853,4.853,0,0,1,2.5-.632,4.508,4.508,0,0,1,2.42.632,4.287,4.287,0,0,1,1.565,1.662,4.678,4.678,0,0,1,.544,2.216q0,.214-.01.428t-.01.486h-7.679a3.787,3.787,0,0,0,.515,1.837,3.032,3.032,0,0,0,2.615,1.468,2.923,2.923,0,0,0,1.691-.467,2.67,2.67,0,0,0,.991-1.264h1.614a4.235,4.235,0,0,1-4.3,3.11m0-8.729a3.263,3.263,0,0,0-2.071.71,2.859,2.859,0,0,0-1.04,2.071h6.065a2.76,2.76,0,0,0-.894-2.041,3,3,0,0,0-2.061-.739" transform="translate(-172.713 -105.092)" fill="#fff"/><path d="M391.712,43.09a4.881,4.881,0,0,1-2.479-.632,4.541,4.541,0,0,1-1.73-1.769,5.889,5.889,0,0,1,0-5.307,4.543,4.543,0,0,1,1.73-1.769,4.881,4.881,0,0,1,2.479-.632,4.633,4.633,0,0,1,2.887.894,3.9,3.9,0,0,1,1.487,2.391h-1.672a2.144,2.144,0,0,0-.953-1.39,3.159,3.159,0,0,0-1.769-.5,3.021,3.021,0,0,0-2.7,1.633,4.795,4.795,0,0,0,0,4.044,3.114,3.114,0,0,0,1.167,1.234,3,3,0,0,0,1.536.418,3.159,3.159,0,0,0,1.769-.5,2.151,2.151,0,0,0,.953-1.41h1.672a3.86,3.86,0,0,1-1.478,2.372,4.6,4.6,0,0,1-2.9.914" transform="translate(-220.897 -105.092)" fill="#fff"/><path d="M447.715,33.8a3.12,3.12,0,0,1-2.08-.642,2.915,2.915,0,0,1-.758-2.313V25.533H443.2v-1.38h1.672l.214-2.314h1.419v2.314h2.838v1.38H446.51V30.84a1.6,1.6,0,0,0,.369,1.234,2.014,2.014,0,0,0,1.3.321h1.011v1.4Z" transform="translate(-266.714 -96.031)" fill="#fff"/><path d="M488.657,43.09a4.606,4.606,0,0,1-2.877-.875,3.409,3.409,0,0,1-1.342-2.372h1.672a2.3,2.3,0,0,0,.807,1.312,2.625,2.625,0,0,0,1.759.554,2.22,2.22,0,0,0,1.517-.437,1.355,1.355,0,0,0,.486-1.04,1.155,1.155,0,0,0-.632-1.166,8.406,8.406,0,0,0-1.779-.525,9.972,9.972,0,0,1-1.555-.447,3.53,3.53,0,0,1-1.3-.826,1.925,1.925,0,0,1-.525-1.409,2.6,2.6,0,0,1,.943-2.071,3.8,3.8,0,0,1,2.556-.807,3.966,3.966,0,0,1,2.518.768,3.068,3.068,0,0,1,1.137,2.187h-1.613a1.684,1.684,0,0,0-.632-1.157,2.26,2.26,0,0,0-1.429-.418,2.164,2.164,0,0,0-1.351.369,1.171,1.171,0,0,0-.476.972,1.01,1.01,0,0,0,.613.914,6.566,6.566,0,0,0,1.662.564,14.581,14.581,0,0,1,1.7.476,3.218,3.218,0,0,1,1.322.836,2.274,2.274,0,0,1,.515,1.6,2.634,2.634,0,0,1-.982,2.148,4.07,4.07,0,0,1-2.712.846" transform="translate(-300.248 -105.092)" fill="#fff"/></g><g transform="translate(-21429 -14067.024)"><path d="M15.354,21.095v.016a7.677,7.677,0,1,1-11.5-6.661,7.682,7.682,0,0,0,11.5,6.639Z" transform="translate(0.001 -6.788)" fill="url(#c)"/><path d="M22.576,7.677v.016A7.666,7.666,0,0,0,11.1,14.338,7.672,7.672,0,0,1,7.25,7.7V7.682a7.663,7.663,0,1,1,15.326-.006Z" transform="translate(-3.392 -0.005)" fill="url(#d)"/><path d="M33.2,20.217A7.675,7.675,0,0,1,21.67,26.856a7.67,7.67,0,0,0,3.825-6.639V20.2a7.682,7.682,0,0,0-3.825-6.623A7.671,7.671,0,0,1,33.2,20.212Z" transform="translate(-10.162 -5.894)" fill="url(#e)"/></g></g></svg>