<svg xmlns="http://www.w3.org/2000/svg" width="13" height="12.942" viewBox="0 0 13 12.942">
  <path id="refresh_FILL0_wght600_GRAD0_opsz48" d="M13.661,20.192A6.239,6.239,0,0,1,9.1,18.306a6.214,6.214,0,0,1-1.9-4.575A6.255,6.255,0,0,1,9.1,9.156,6.207,6.207,0,0,1,13.661,7.25a6.281,6.281,0,0,1,3.018.7,7.058,7.058,0,0,1,2.244,1.915V7.25H20.2v5.32H14.88V11.293h3.211a6.168,6.168,0,0,0-1.847-1.809A4.753,4.753,0,0,0,13.661,8.8a4.888,4.888,0,0,0-4.933,4.933,4.888,4.888,0,0,0,4.933,4.933,5.007,5.007,0,0,0,2.863-.89,4.677,4.677,0,0,0,1.838-2.36h1.586a6.267,6.267,0,0,1-2.321,3.463,6.406,6.406,0,0,1-3.966,1.315Z" transform="translate(-7.2 -7.25)" fill="#3c4043"/>
</svg>
