<svg xmlns="http://www.w3.org/2000/svg" width="16" height="15.929" viewBox="0 0 16 15.929">
  <path id="refresh_FILL0_wght600_GRAD0_opsz48" d="M15.152,23.179a7.679,7.679,0,0,1-5.619-2.321A7.648,7.648,0,0,1,7.2,15.226,7.7,7.7,0,0,1,9.533,9.6,7.64,7.64,0,0,1,15.152,7.25a7.73,7.73,0,0,1,3.714.857,8.687,8.687,0,0,1,2.762,2.357V7.25H23.2V13.8H16.652V12.226H20.6A7.592,7.592,0,0,0,18.331,10a5.85,5.85,0,0,0-3.179-.845,6.016,6.016,0,0,0-6.071,6.071A6.016,6.016,0,0,0,15.152,21.3a6.163,6.163,0,0,0,3.524-1.1,5.756,5.756,0,0,0,2.262-2.9H22.89a7.713,7.713,0,0,1-2.857,4.262,7.884,7.884,0,0,1-4.881,1.619Z" transform="translate(-7.2 -7.25)" fill="#0078d4"/>
</svg>
