<svg id="rephrase" xmlns="http://www.w3.org/2000/svg" xmlns:xlink="http://www.w3.org/1999/xlink" width="16" height="17.338" viewBox="0 0 16 17.338">
  <defs>
    <clipPath id="clip-path">
      <rect id="Rectangle_1800" data-name="Rectangle 1800" width="16" height="17.338" fill="#222"/>
    </clipPath>
  </defs>
  <g id="Group_1199" data-name="Group 1199" transform="translate(0 0)" clip-path="url(#clip-path)">
    <path id="Path_2683" data-name="Path 2683" d="M23.967,6.579,22.349,4.962l.466-.478a.816.816,0,0,1,.6-.245.922.922,0,0,1,.638.257l.4.393a.745.745,0,0,1,.251.625.937.937,0,0,1-.276.6Zm-.5.5L15.886,14.66H14.268V13.042l7.566-7.566Z" transform="translate(-8.711 -2.588)" fill="#222"/>
    <path id="Path_2684" data-name="Path 2684" d="M15.083,9.8a7.542,7.542,0,1,1-7.54-7.544c.156,0,.308,0,.463.016L6.48.744,7.22,0,9.83,2.609l.534.534L7.232,6.274,6.488,5.53,8.171,3.848a5.587,5.587,0,0,0-.627-.035,5.984,5.984,0,1,0,5.974,6.309c0-.105.008-.214.008-.323a5.937,5.937,0,0,0-.179-1.453l1.238-1.238a7.174,7.174,0,0,1,.409,1.527,7.621,7.621,0,0,1,.09,1.164" transform="translate(0 0)" fill="#222"/>
  </g>
</svg>
