<svg width="15" height="10" viewBox="0 0 15 10" fill="none" xmlns="http://www.w3.org/2000/svg">
<g clip-path="url(#clip0_3_2)">
<path d="M14.122 6.122V8.383L14.104 8.401C13.6199 8.90975 13.0369 9.31413 12.3909 9.58928C11.7448 9.86443 11.0492 10.0045 10.347 10.001C9.16847 9.90805 8.02528 9.55454 7 8.966C6.04017 8.41091 4.96977 8.07426 3.865 7.98C3.15951 7.94889 2.45584 8.07382 1.80418 8.34589C1.15252 8.61796 0.568923 9.03047 0.095 9.554L0 9.644V7.383L0.018 7.366C0.505923 6.83903 1.10164 6.42336 1.76462 6.14726C2.42759 5.87117 3.14226 5.74113 3.86 5.766C5.10312 5.85237 6.31059 6.21885 7.392 6.838C8.30457 7.36826 9.32264 7.69123 10.374 7.784C11.0596 7.79926 11.7406 7.66717 12.3708 7.39667C13.001 7.12616 13.5658 6.72354 14.027 6.216L14.122 6.122Z" fill="#1A73E8"/>
<path d="M14.122 0.360001V2.617L14.104 2.635C13.6198 3.14352 13.0367 3.54774 12.3907 3.82287C11.7446 4.09801 11.0492 4.23825 10.347 4.235C9.16851 4.14182 8.02537 3.78833 7 3.2C6.0382 2.64642 4.96599 2.31213 3.86 2.221C3.15588 2.18976 2.45352 2.31396 1.80281 2.58478C1.15211 2.85561 0.569029 3.26641 0.095 3.788L0 3.878V1.617L0.018 1.6C0.505389 1.07235 1.10101 0.65621 1.76412 0.380061C2.42722 0.103911 3.14215 -0.0257322 3.86 9.34117e-07C5.10312 0.0863722 6.31059 0.452852 7.392 1.072C8.30457 1.60226 9.32264 1.92523 10.374 2.018C11.0596 2.03326 11.7406 1.90118 12.3708 1.63067C13.001 1.36016 13.5658 0.957539 14.027 0.450001L14.122 0.360001Z" fill="#1A73E8"/>
</g>
<defs>
<clipPath id="clip0_3_2">
<rect width="14.122" height="10" fill="white"/>
</clipPath>
</defs>
</svg>
