<svg xmlns="http://www.w3.org/2000/svg" xmlns:xlink="http://www.w3.org/1999/xlink" width="14.122" height="10" viewBox="0 0 14.122 10">
  <defs>
    <clipPath id="clip-path">
      <rect id="Rectangle_1798" data-name="Rectangle 1798" width="14.122" height="10" transform="translate(0 0)" fill="#5f6368"/>
    </clipPath>
  </defs>
  <g id="synonym" transform="translate(0 0)">
    <g id="Group_1195" data-name="Group 1195" transform="translate(0 0)" clip-path="url(#clip-path)">
      <path id="Path_2679" data-name="Path 2679" d="M14.122,13.156v2.261l-.018.018a5.15,5.15,0,0,1-3.757,1.6A7.984,7.984,0,0,1,7,16a7.543,7.543,0,0,0-3.135-.986A4.8,4.8,0,0,0,.095,16.588L0,16.678V14.417L.018,14.4A5,5,0,0,1,3.86,12.8a8.261,8.261,0,0,1,3.532,1.072,7.194,7.194,0,0,0,2.982.946,4.792,4.792,0,0,0,3.653-1.568Z" transform="translate(0 -7.034)" fill="#5f6368"/>
      <path id="Path_2680" data-name="Path 2680" d="M14.122.36V2.617l-.018.018a5.155,5.155,0,0,1-3.757,1.6A7.991,7.991,0,0,1,7,3.2,7.535,7.535,0,0,0,3.86,2.221,4.8,4.8,0,0,0,.095,3.788L0,3.878V1.617L.018,1.6A4.987,4.987,0,0,1,3.86,0,8.261,8.261,0,0,1,7.392,1.072a7.194,7.194,0,0,0,2.982.946A4.792,4.792,0,0,0,14.027.45Z" transform="translate(0 0)" fill="#5f6368"/>
    </g>
  </g>
</svg>
