<svg xmlns="http://www.w3.org/2000/svg" xmlns:xlink="http://www.w3.org/1999/xlink" width="165.36" height="27.36" viewBox="0 0 165.36 27.36">
  <defs>
    <clipPath id="clip-path">
      <rect id="Rectangle_1634" data-name="Rectangle 1634" width="26.359" height="26.359" fill="none"/>
    </clipPath>
  </defs>
  <g id="AI_projects_logo" data-name="AI projects logo" transform="translate(-24.5 -10.32)">
    <g id="Group_249" data-name="Group 249" transform="translate(58.042 17.008)">
      <path id="Path_815" data-name="Path 815" d="M470.492,490.373l-.616-1.62h-5.247l-.616,1.655a5.784,5.784,0,0,1-.616,1.307.98.98,0,0,1-.836.339,1.226,1.226,0,0,1-.872-.361,1.1,1.1,0,0,1-.379-.819,1.826,1.826,0,0,1,.088-.546q.088-.281.291-.784l3.3-8.381.339-.867a4.384,4.384,0,0,1,.423-.841,1.718,1.718,0,0,1,.59-.542,1.808,1.808,0,0,1,.9-.207,1.828,1.828,0,0,1,.911.207,1.754,1.754,0,0,1,.59.533,3.739,3.739,0,0,1,.379.7q.154.374.392,1l3.372,8.328a4.189,4.189,0,0,1,.4,1.382,1.144,1.144,0,0,1-.374.823,1.23,1.23,0,0,1-.9.374,1.17,1.17,0,0,1-.528-.11,1.08,1.08,0,0,1-.37-.3,2.75,2.75,0,0,1-.321-.581Q470.616,490.673,470.492,490.373Zm-5.177-3.583h3.856l-1.946-5.326Z" transform="translate(-461.31 -478.708)" fill="#fff"/>
      <path id="Path_816" data-name="Path 816" d="M585.477,482.005a1.267,1.267,0,0,1-.858-.308,1.2,1.2,0,0,1,.009-1.712,1.228,1.228,0,0,1,.85-.33,1.26,1.26,0,0,1,.827.3,1.068,1.068,0,0,1,.361.872,1.1,1.1,0,0,1-.352.867A1.218,1.218,0,0,1,585.477,482.005Zm1.188,2.483v6.946a1.552,1.552,0,0,1-.343,1.092,1.138,1.138,0,0,1-.872.37,1.086,1.086,0,0,1-.858-.379,1.6,1.6,0,0,1-.33-1.083v-6.876a1.543,1.543,0,0,1,.33-1.074,1.11,1.11,0,0,1,.858-.361,1.152,1.152,0,0,1,.872.361A1.4,1.4,0,0,1,586.665,484.488Z" transform="translate(-570.537 -479.549)" fill="#fff"/>
      <path id="Path_817" data-name="Path 817" d="M628.032,490.593V480.169a1.622,1.622,0,0,1,.321-1.092,1.091,1.091,0,0,1,.867-.37,1.138,1.138,0,0,1,.88.365,1.575,1.575,0,0,1,.335,1.1v10.424a1.562,1.562,0,0,1-.339,1.1,1.141,1.141,0,0,1-.876.365,1.086,1.086,0,0,1-.858-.378A1.6,1.6,0,0,1,628.032,490.593Z" transform="translate(-609.42 -478.708)" fill="#fff"/>
      <path id="Path_818" data-name="Path 818" d="M673.743,519a7.443,7.443,0,0,1-1.686,1.017,4.714,4.714,0,0,1-1.827.339,3.463,3.463,0,0,1-1.624-.365,2.67,2.67,0,0,1-1.078-.99,2.569,2.569,0,0,1-.379-1.356,2.427,2.427,0,0,1,.625-1.681,3.125,3.125,0,0,1,1.717-.933q.229-.053,1.136-.238t1.554-.339q.647-.154,1.4-.374a2.511,2.511,0,0,0-.383-1.4,1.713,1.713,0,0,0-1.4-.445,2.927,2.927,0,0,0-1.378.255,2.239,2.239,0,0,0-.792.766,8.172,8.172,0,0,1-.467.673.765.765,0,0,1-.586.163,1.023,1.023,0,0,1-.7-.26.845.845,0,0,1-.295-.665,2.033,2.033,0,0,1,.449-1.232,3.211,3.211,0,0,1,1.4-.986,6.307,6.307,0,0,1,2.368-.387,6.7,6.7,0,0,1,2.492.374,2.318,2.318,0,0,1,1.281,1.184,5.178,5.178,0,0,1,.374,2.148q0,.845,0,1.435t-.013,1.312a4.832,4.832,0,0,0,.224,1.413,4.452,4.452,0,0,1,.224.946.886.886,0,0,1-.348.674,1.166,1.166,0,0,1-.788.3,1.063,1.063,0,0,1-.731-.348A5.162,5.162,0,0,1,673.743,519Zm-.158-3.478a12.12,12.12,0,0,1-1.536.409q-1.008.216-1.4.317a1.9,1.9,0,0,0-.739.4,1.015,1.015,0,0,0-.352.823,1.218,1.218,0,0,0,.414.929,1.531,1.531,0,0,0,1.083.383,2.817,2.817,0,0,0,1.316-.313,2.084,2.084,0,0,0,.885-.805,3.68,3.68,0,0,0,.326-1.8Z" transform="translate(-644.171 -507.012)" fill="#fff"/>
      <path id="Path_819" data-name="Path 819" d="M759.393,520.8l.22-.537-2.958-7.448a2.786,2.786,0,0,1-.273-.933,1.092,1.092,0,0,1,.159-.572,1.181,1.181,0,0,1,.436-.423,1.146,1.146,0,0,1,.577-.159.943.943,0,0,1,.783.33,3.045,3.045,0,0,1,.467.946l2.034,5.916,1.928-5.5a9.523,9.523,0,0,1,.414-1.048,1.233,1.233,0,0,1,.392-.511,1.088,1.088,0,0,1,.585-.132,1.031,1.031,0,0,1,.524.145,1.015,1.015,0,0,1,.387.392,1.058,1.058,0,0,1,.137.519q-.036.167-.115.475t-.194.625l-3.134,8.205a9.6,9.6,0,0,1-.792,1.7,2.609,2.609,0,0,1-1.025.946,3.775,3.775,0,0,1-1.721.33,4.186,4.186,0,0,1-1.585-.229.835.835,0,0,1-.528-.836.812.812,0,0,1,.251-.638,1.084,1.084,0,0,1,.744-.225,1.368,1.368,0,0,1,.379.053,1.8,1.8,0,0,0,.4.053,1.429,1.429,0,0,0,.651-.123,1.141,1.141,0,0,0,.427-.427A6.571,6.571,0,0,0,759.393,520.8Z" transform="translate(-723.2 -507.153)" fill="#fff"/>
      <path id="Path_820" data-name="Path 820" d="M854.809,517.356a2.788,2.788,0,0,1-1.915,2.778,6.412,6.412,0,0,1-2.3.365,5.615,5.615,0,0,1-2.219-.4,3.23,3.23,0,0,1-1.364-.99,2,2,0,0,1-.44-1.193.924.924,0,0,1,.282-.678.967.967,0,0,1,.713-.282.833.833,0,0,1,.581.185,2.028,2.028,0,0,1,.387.52,2.636,2.636,0,0,0,.885.96,2.669,2.669,0,0,0,1.4.317A2.029,2.029,0,0,0,852,518.62a.9.9,0,0,0,.462-.735,1,1,0,0,0-.48-.924,5.939,5.939,0,0,0-1.58-.555,13.084,13.084,0,0,1-2.02-.647,3.327,3.327,0,0,1-1.246-.893,2.047,2.047,0,0,1-.467-1.365,2.406,2.406,0,0,1,.432-1.365,2.958,2.958,0,0,1,1.272-1.026,4.873,4.873,0,0,1,2.029-.383,6.674,6.674,0,0,1,1.677.194,4.185,4.185,0,0,1,1.242.52,2.565,2.565,0,0,1,.757.722,1.414,1.414,0,0,1,.26.775.9.9,0,0,1-.277.678,1.1,1.1,0,0,1-.788.264.965.965,0,0,1-.629-.211,4.136,4.136,0,0,1-.594-.634,2.171,2.171,0,0,0-.643-.563,2.025,2.025,0,0,0-1-.211,1.966,1.966,0,0,0-1.083.277.809.809,0,0,0-.431.691.747.747,0,0,0,.317.621,2.624,2.624,0,0,0,.854.4q.537.159,1.479.387a7.912,7.912,0,0,1,1.827.652,3.043,3.043,0,0,1,1.074.893A1.983,1.983,0,0,1,854.809,517.356Z" transform="translate(-803.561 -507.153)" fill="#fff"/>
      <path id="Path_821" data-name="Path 821" d="M940.544,519a7.436,7.436,0,0,1-1.686,1.017,4.712,4.712,0,0,1-1.827.339,3.462,3.462,0,0,1-1.624-.365,2.671,2.671,0,0,1-1.078-.99,2.569,2.569,0,0,1-.379-1.356,2.427,2.427,0,0,1,.625-1.681,3.124,3.124,0,0,1,1.717-.933q.229-.053,1.136-.238t1.554-.339q.647-.154,1.4-.374a2.508,2.508,0,0,0-.383-1.4,1.713,1.713,0,0,0-1.4-.445,2.928,2.928,0,0,0-1.378.255,2.241,2.241,0,0,0-.792.766,8.125,8.125,0,0,1-.467.673.765.765,0,0,1-.585.163,1.024,1.024,0,0,1-.7-.26.845.845,0,0,1-.295-.665,2.034,2.034,0,0,1,.449-1.232,3.213,3.213,0,0,1,1.4-.986,6.307,6.307,0,0,1,2.368-.387,6.7,6.7,0,0,1,2.491.374,2.318,2.318,0,0,1,1.281,1.184,5.181,5.181,0,0,1,.374,2.148q0,.845,0,1.435t-.013,1.312a4.834,4.834,0,0,0,.225,1.413,4.457,4.457,0,0,1,.224.946.886.886,0,0,1-.348.674,1.166,1.166,0,0,1-.788.3,1.063,1.063,0,0,1-.731-.348A5.157,5.157,0,0,1,940.544,519Zm-.158-3.478a12.107,12.107,0,0,1-1.536.409q-1.008.216-1.4.317a1.9,1.9,0,0,0-.74.4,1.015,1.015,0,0,0-.352.823,1.218,1.218,0,0,0,.414.929,1.532,1.532,0,0,0,1.083.383,2.818,2.818,0,0,0,1.316-.313,2.085,2.085,0,0,0,.885-.805,3.68,3.68,0,0,0,.326-1.8Z" transform="translate(-881.188 -507.012)" fill="#fff"/>
    </g>
    <g id="Group_270" data-name="Group 270" transform="translate(-140.302 -412.451)">
      <g id="Group_250" data-name="Group 250" transform="translate(165.302 423.271)">
        <path id="Path_822" data-name="Path 822" d="M185.771,423.271h-14.58a5.908,5.908,0,0,0-5.891,5.89v14.58a5.908,5.908,0,0,0,5.891,5.89h14.58a5.907,5.907,0,0,0,5.89-5.89v-14.58A5.907,5.907,0,0,0,185.771,423.271Z" transform="translate(-165.3 -423.271)" fill="#fff" stroke="rgba(0,0,0,0)" stroke-width="1"/>
      </g>
      <path id="Path_829" data-name="Path 829" d="M233.674,549.841v.37c0,1.968-1.09,3.007-3.15,3.007h-1.854c-2.09,0-3.149-.567-3.149-1.689s1.059-1.688,3.149-1.688Z" transform="translate(-53.496 -112.441)" fill="#fff" stroke="rgba(0,0,0,0)" stroke-width="1"/>
    </g>
    <g id="Group_1191" data-name="Group 1191" transform="translate(116.599 17.172)">
      <g id="Group_1190" data-name="Group 1190">
        <g id="Group_1192" data-name="Group 1192">
          <path id="Path_2618" data-name="Path 2618" d="M114.628,2.547A4.709,4.709,0,0,0,111.409,1.5h-4.465V14.456h1.4V9.313h3.045A4.837,4.837,0,0,0,114.671,8.3a3.635,3.635,0,0,0,1.154-2.868,3.672,3.672,0,0,0-1.2-2.89m-.961,4.839a3.274,3.274,0,0,1-2.257.7h-3.07V2.732h3.138a3.11,3.11,0,0,1,2.19.748,2.612,2.612,0,0,1,.76,1.97,2.488,2.488,0,0,1-.761,1.936" transform="translate(-95.193 -1.335)" fill="#a1ccee"/>
          <path id="Path_2619" data-name="Path 2619" d="M208.949,29.611l-.034,1.248-.189-.035a3.729,3.729,0,0,0-.672-.058,2.388,2.388,0,0,0-1.54.505,2.819,2.819,0,0,0-.9,1.469v6.585h-1.361V29.614H205.6l.012,1.066A2.872,2.872,0,0,1,208.1,29.44a1.866,1.866,0,0,1,.753.126Z" transform="translate(-181.812 -26.205)" fill="#a1ccee"/>
          <path id="Path_2620" data-name="Path 2620" d="M259.349,30.809a4.036,4.036,0,0,0-3.159-1.369,4.1,4.1,0,0,0-3.8,2.382,5.7,5.7,0,0,0-.542,2.509v.208a5.235,5.235,0,0,0,1.208,3.592,4.038,4.038,0,0,0,3.155,1.369,4.234,4.234,0,0,0,2.263-.614,4.094,4.094,0,0,0,1.54-1.747,5.77,5.77,0,0,0,.541-2.521V34.4a5.242,5.242,0,0,0-1.2-3.591m-3.141,7.485a2.617,2.617,0,0,1-2.157-1.019,4.119,4.119,0,0,1-.835-2.658v-.191a4.267,4.267,0,0,1,.839-2.746,2.593,2.593,0,0,1,2.135-1.026,2.7,2.7,0,0,1,1.555.461,3.048,3.048,0,0,1,1.061,1.314,4.635,4.635,0,0,1,.385,1.9v.2a4.26,4.26,0,0,1-.835,2.745,2.606,2.606,0,0,1-2.148,1.019" transform="translate(-224.173 -26.205)" fill="#a1ccee"/>
          <path id="Path_2621" data-name="Path 2621" d="M348.466.863a.845.845,0,0,1-.237.605.857.857,0,0,1-.647.249.836.836,0,0,1-.636-.251.849.849,0,0,1-.231-.6.863.863,0,0,1,.23-.607A.824.824,0,0,1,347.582,0a.839.839,0,0,1,.885.863" transform="translate(-308.619)" fill="#a1ccee"/>
          <path id="Path_2622" data-name="Path 2622" d="M330.74,31.02V41.686a3.023,3.023,0,0,1-.668,2.1,2.531,2.531,0,0,1-1.96.738,2.78,2.78,0,0,1-.967-.174l-.111-.041.024-1.184.208.062a2.581,2.581,0,0,0,.733.105c.942,0,1.379-.513,1.379-1.614V31.02Z" transform="translate(-291.1 -27.612)" fill="#a1ccee"/>
          <path id="Path_2623" data-name="Path 2623" d="M387.28,34.7v-.745a4.914,4.914,0,0,0-1.041-3.294A3.562,3.562,0,0,0,383.4,29.44a3.781,3.781,0,0,0-2.12.647,4.343,4.343,0,0,0-1.518,1.77,5.7,5.7,0,0,0-.542,2.509v.372a5.306,5.306,0,0,0,.556,2.438,4.192,4.192,0,0,0,1.566,1.709,4.247,4.247,0,0,0,2.249.614,3.958,3.958,0,0,0,3.457-1.727l.09-.13-.905-.688-.1.127a3.107,3.107,0,0,1-1.1.924,3.231,3.231,0,0,1-1.4.288,2.727,2.727,0,0,1-2.177-1.005,3.781,3.781,0,0,1-.876-2.55V34.7ZM383.4,30.654a2.217,2.217,0,0,1,1.783.792,3.274,3.274,0,0,1,.73,2.044h-5.272a3.717,3.717,0,0,1,.908-2.029,2.412,2.412,0,0,1,1.851-.806" transform="translate(-337.556 -26.205)" fill="#a1ccee"/>
          <path id="Path_2624" data-name="Path 2624" d="M469.671,36.1H471l-.009.174a3.1,3.1,0,0,1-.567,1.65,3.535,3.535,0,0,1-1.377,1.16,4.141,4.141,0,0,1-1.828.415,3.8,3.8,0,0,1-3.052-1.343,5.364,5.364,0,0,1-1.118-3.557v-.312a6.057,6.057,0,0,1,.5-2.523A3.928,3.928,0,0,1,465,30.047a4.026,4.026,0,0,1,2.208-.607,3.8,3.8,0,0,1,2.657.963,3.526,3.526,0,0,1,1.124,2.533l.009.173h-1.325l-.01-.154a2.536,2.536,0,0,0-4.5-1.35,4.45,4.45,0,0,0-.743,2.745v.3a4.354,4.354,0,0,0,.742,2.7,2.431,2.431,0,0,0,2.059.942,2.594,2.594,0,0,0,1.712-.574,1.974,1.974,0,0,0,.734-1.466Z" transform="translate(-412.166 -26.205)" fill="#a1ccee"/>
          <path id="Path_2625" data-name="Path 2625" d="M545.913,21.242l-.116.041a3.566,3.566,0,0,1-1.166.156,2.013,2.013,0,0,1-1.682-.683,3.089,3.089,0,0,1-.52-1.927v-6.1H540.7V11.553h1.726V9.15h1.37v2.4h1.943v1.179H543.8v6.095a1.812,1.812,0,0,0,.25,1.065.933.933,0,0,0,.809.315,6.411,6.411,0,0,0,.816-.085l.179-.026Z" transform="translate(-481.293 -8.145)" fill="#a1ccee"/>
          <path id="Path_2626" data-name="Path 2626" d="M606.26,36.724a2.413,2.413,0,0,1-1.025,2.032,4.27,4.27,0,0,1-2.6.744,4.381,4.381,0,0,1-2.759-.828,2.608,2.608,0,0,1-1.082-2.137v-.165h1.359l.011.154a1.63,1.63,0,0,0,.7,1.294,2.989,2.989,0,0,0,1.772.477,2.805,2.805,0,0,0,1.656-.446,1.265,1.265,0,0,0,.6-1.071,1.309,1.309,0,0,0-.555-1.109,4.633,4.633,0,0,0-1.8-.7,8.673,8.673,0,0,1-1.978-.621,2.754,2.754,0,0,1-1.086-.892,2.256,2.256,0,0,1-.363-1.289A2.4,2.4,0,0,1,600.1,30.2a3.922,3.922,0,0,1,2.478-.759,4.038,4.038,0,0,1,2.624.813,2.66,2.66,0,0,1,1.01,2.153v.165h-1.37v-.165a1.51,1.51,0,0,0-.627-1.241,2.95,2.95,0,0,0-3.182-.088,1.239,1.239,0,0,0-.553,1.05,1.116,1.116,0,0,0,.449.957,5.369,5.369,0,0,0,1.822.678,9.077,9.077,0,0,1,2.087.7,2.826,2.826,0,0,1,1.07.933,2.408,2.408,0,0,1,.356,1.328" transform="translate(-533 -26.205)" fill="#a1ccee"/>
        </g>
      </g>
    </g>
    <g id="Group_1045" data-name="Group 1045" transform="translate(25 10.82)">
      <g id="Group_1044" data-name="Group 1044" clip-path="url(#clip-path)">
        <g id="Group_1193" data-name="Group 1193">
          <path id="Path_2675" data-name="Path 2675" d="M200.087,74.165v.42h.724a1.48,1.48,0,0,0,1.317-1.6v-.3H201.3a1.367,1.367,0,0,0-1.215,1.478" transform="translate(-180.942 -65.732)" fill="#0074d3"/>
          <path id="Path_2676" data-name="Path 2676" d="M200.087,111.108v6.717a2.373,2.373,0,0,0,2.041-2.529v-6.461h-.145a2.112,2.112,0,0,0-1.9,2.273" transform="translate(-180.942 -98.422)" fill="#0074d3"/>
          <path id="Path_2677" data-name="Path 2677" d="M55.962,72.687H50.789a1.992,1.992,0,0,0,1.823,1.9h3.35c2.061,0,3.15,1.04,3.15,3.008v.37h-5c-3.493,0-5.191,1.173-5.191,3.587s1.7,3.588,5.191,3.588h1.854c3.492,0,5.191-1.6,5.191-4.907V77.593c0-3.3-1.7-4.906-5.191-4.906m3.15,7.543c0,1.968-1.089,3.008-3.15,3.008H54.109c-2.09,0-3.15-.568-3.15-1.689s1.059-1.689,3.15-1.689h5Z" transform="translate(-44.237 -65.732)" fill="#0074d3"/>
        </g>
      </g>
    </g>
  </g>
</svg>
