<svg width="40" height="40" viewBox="0 0 40 40" fill="none" xmlns="http://www.w3.org/2000/svg">
<g id="new_translate_blue_icon_1_0f5306b9ac 3" clip-path="url(#clip0_1006_931)">
<path id="Vector" d="M0 19.9472C0 30.9636 8.93064 39.8943 19.9472 39.8943C30.9636 39.8943 39.8943 30.9636 39.8943 19.9472C39.8943 8.93064 30.9636 0 19.9472 0C8.93064 0 0 8.93064 0 19.9472Z" fill="#0074D3" fill-opacity="0.9"/>
<path id="Vector_2" d="M19.8653 30.2086L24.3976 18.6837H26.4278L31.0783 30.2086H28.9065L27.8914 27.1686H23.0993L21.919 30.2086H19.8653ZM23.6422 25.4898H27.1832L25.4363 20.839H25.3891L23.6422 25.4898ZM11.9808 27.3274L10.6352 26.0116L15.7342 21.1113C15.0889 20.4155 14.5224 19.7084 14.0345 18.99C13.5467 18.2716 13.1217 17.5342 12.7598 16.778H14.9316C15.199 17.3074 15.5059 17.8065 15.8522 18.2754C16.1985 18.7443 16.584 19.2283 17.0089 19.7273C17.7643 18.9712 18.3938 18.1884 18.8974 17.3793C19.401 16.5701 19.8337 15.7269 20.1958 14.8497H9.00635V12.9213H15.9938V11.0156H18.0003V12.9213H24.9642V14.8497H22.1787C21.801 15.9538 21.3053 17.039 20.6915 18.1052C20.0777 19.1715 19.3301 20.1811 18.4489 21.134L20.904 23.516L20.1958 25.4444L16.9853 22.5179L11.9808 27.3274Z" fill="white"/>
</g>
<defs>
<clipPath id="clip0_1006_931">
<rect width="40" height="40" fill="white"/>
</clipPath>
</defs>
</svg>
