<svg width="160" height="27" viewBox="0 0 160 27" fill="none" xmlns="http://www.w3.org/2000/svg">
<path fill-rule="evenodd" clip-rule="evenodd" d="M5.91265 26.46H20.5472C22.114 26.4555 23.6153 25.8312 24.7231 24.7233C25.831 23.6154 26.4554 22.1141 26.4598 20.5473V5.91268C26.4554 4.34592 25.831 2.84459 24.7231 1.73672C23.6153 0.628838 22.114 0.00446293 20.5472 0H5.91265C4.34589 0.00446293 2.84458 0.628838 1.7367 1.73672C0.628834 2.84459 0.0044629 4.34592 0 5.91268V20.548C0.00465684 22.1147 0.629114 23.6158 1.73696 24.7235C2.84481 25.8313 4.34602 26.4555 5.91265 26.46ZM19.2218 8.88201V8.46062H19.224C19.1927 8.1029 19.3028 7.74716 19.5307 7.46971C19.7587 7.19226 20.0863 7.01522 20.4433 6.97656H21.2728V7.27735C21.306 7.66483 21.186 8.04987 20.9385 8.34986C20.691 8.64985 20.3358 8.8409 19.9491 8.88201H19.2218ZM19.2192 12.7351V19.4773C19.8196 19.3943 20.3658 19.0855 20.7464 18.6138C21.1271 18.1421 21.3136 17.5431 21.2681 16.9387V10.4531H21.121C20.5684 10.5082 20.0594 10.7778 19.7036 11.2041C19.3477 11.6304 19.1732 12.1793 19.2178 12.7329L19.2192 12.7351ZM6.57574 6.97877H11.7684L11.7662 6.97656C15.2712 6.97656 16.9766 8.58858 16.9766 11.9038V14.5513C16.9766 17.8672 15.2719 19.4785 11.7662 19.4785H9.90565C6.39924 19.4785 4.69531 18.3019 4.69531 15.875C4.69531 13.4482 6.39924 12.2715 9.90565 12.2715H14.9307V11.9038C14.9307 9.92776 13.8371 8.88421 11.7684 8.88421H8.40543C7.92092 8.84337 7.4679 8.62738 7.13113 8.27666C6.79435 7.92595 6.59691 7.46453 6.57574 6.97877ZM11.7662 17.5709C13.8356 17.5709 14.9285 16.5273 14.9285 14.5513V14.1806H9.90565C7.80681 14.1806 6.74341 14.7506 6.74341 15.8757C6.74341 17.0009 7.80754 17.5709 9.90565 17.5709H11.7662Z" fill="white"/>
<path d="M42.3816 17.9227L41.7631 16.2967H36.4962L35.8777 17.958C35.7271 18.4194 35.5193 18.8602 35.2592 19.27C35.1568 19.3899 35.027 19.4835 34.8809 19.5427C34.7347 19.602 34.5764 19.6252 34.4194 19.6105C34.2568 19.6109 34.0958 19.579 33.9455 19.5168C33.7953 19.4546 33.6589 19.3632 33.5443 19.2479C33.4266 19.1453 33.3319 19.0191 33.2664 18.8774C33.2009 18.7357 33.166 18.5818 33.1641 18.4257C33.1655 18.2397 33.1952 18.0549 33.2523 17.8779C33.3111 17.6896 33.4092 17.4273 33.5465 17.091L36.8602 8.67789L37.2007 7.80717C37.3115 7.51137 37.4538 7.22833 37.625 6.96292C37.7768 6.73769 37.9797 6.55148 38.217 6.41945C38.4959 6.27289 38.8082 6.20142 39.123 6.21207C39.4408 6.20093 39.756 6.27238 40.0379 6.41945C40.2734 6.55015 40.4759 6.73303 40.6299 6.95409C40.7812 7.17402 40.9087 7.40946 41.0101 7.65641C41.113 7.90694 41.2442 8.2413 41.4035 8.6595L44.7864 17.0189C44.998 17.4551 45.1327 17.9246 45.1842 18.4066C45.1811 18.5627 45.1461 18.7165 45.0815 18.8586C45.0169 19.0007 44.924 19.1282 44.8084 19.2332C44.6911 19.3545 44.5502 19.4504 44.3944 19.515C44.2385 19.5796 44.0711 19.6116 43.9024 19.609C43.7195 19.614 43.538 19.5762 43.3722 19.4987C43.2289 19.4268 43.1033 19.3241 43.0045 19.1979C42.8737 19.0173 42.7653 18.8214 42.6817 18.6147C42.5669 18.3529 42.4689 18.1218 42.3875 17.9212L42.3816 17.9227ZM37.1874 14.3273H41.0579L39.1047 8.98088L37.1874 14.3273Z" fill="white"/>
<path d="M48.1625 8.6803C47.8468 8.68759 47.5396 8.57724 47.3006 8.37069C47.1865 8.25829 47.0961 8.12419 47.0346 7.97628C46.9731 7.82838 46.9419 7.66967 46.9427 7.50951C46.9435 7.34934 46.9764 7.19096 47.0394 7.04369C47.1024 6.89643 47.1942 6.76326 47.3095 6.65204C47.5407 6.43609 47.8461 6.31733 48.1625 6.32037C48.4664 6.31763 48.7612 6.4244 48.9928 6.62115C49.1163 6.72948 49.2132 6.86474 49.276 7.01648C49.3389 7.16822 49.366 7.33239 49.3554 7.49629C49.3642 7.65852 49.337 7.82069 49.2759 7.97121C49.2147 8.12173 49.1211 8.25688 49.0016 8.36701C48.7717 8.57412 48.4719 8.68634 48.1625 8.68104V8.6803ZM49.3554 11.1733V18.1457C49.3842 18.5416 49.2608 18.9335 49.0105 19.2415C48.8995 19.362 48.7639 19.4571 48.6129 19.5206C48.4619 19.584 48.299 19.6142 48.1353 19.6092C47.9724 19.6143 47.8103 19.5828 47.6612 19.517C47.512 19.4512 47.3795 19.3528 47.2734 19.229C47.0339 18.9193 46.916 18.5327 46.9418 18.1421V11.2432C46.9129 10.8549 47.0314 10.47 47.2734 10.1651C47.3822 10.0458 47.5157 9.95161 47.6645 9.88901C47.8133 9.82641 47.974 9.7969 48.1353 9.80253C48.2985 9.79774 48.4609 9.82757 48.6117 9.89006C48.7626 9.95255 48.8985 10.0463 49.0105 10.1651C49.2534 10.4426 49.3772 10.8045 49.3554 11.1726" fill="white"/>
<path d="M51.8516 18.1446V7.68342C51.8233 7.29116 51.938 6.90191 52.1745 6.58766C52.2829 6.46519 52.4174 6.36859 52.5681 6.30495C52.7188 6.24132 52.8818 6.21228 53.0452 6.21996C53.2101 6.21384 53.3744 6.24355 53.5268 6.30703C53.6791 6.37051 53.8159 6.46625 53.9277 6.58766C54.1745 6.89998 54.2945 7.29388 54.2638 7.69077V18.1446C54.2948 18.5422 54.173 18.9367 53.9233 19.2477C53.8114 19.369 53.6745 19.4646 53.5222 19.5281C53.3699 19.5916 53.2057 19.6213 53.0408 19.6154C52.8778 19.6206 52.7158 19.5891 52.5667 19.5233C52.4175 19.4575 52.285 19.359 52.1789 19.2352C51.9394 18.9255 51.8214 18.5389 51.8472 18.1483" fill="white"/>
<path d="M62.8537 18.247C62.3376 18.6607 61.7688 19.0039 61.1623 19.2678C60.5796 19.5018 59.9561 19.6176 59.3282 19.6082C58.7629 19.6202 58.2033 19.4939 57.6978 19.2405C57.2514 19.0164 56.8765 18.672 56.6153 18.2463C56.3643 17.8368 56.2326 17.3653 56.2351 16.885C56.22 16.2617 56.4445 15.6563 56.8624 15.1936C57.3218 14.7051 57.9257 14.3768 58.5855 14.2567C58.7384 14.2214 59.1184 14.1417 59.7253 14.0177C60.3323 13.8936 60.8522 13.7804 61.2851 13.6779C61.718 13.575 62.1879 13.4497 62.6949 13.3021C62.7064 12.8087 62.5727 12.3228 62.3103 11.9048C62.1233 11.7302 61.8997 11.5996 61.6558 11.5223C61.4119 11.4451 61.1539 11.4233 60.9005 11.4584C60.4255 11.4304 59.9508 11.5182 59.5172 11.7144C59.1921 11.9002 58.9186 12.1644 58.7215 12.4829C58.5768 12.7159 58.4204 12.9414 58.2531 13.1587C58.1713 13.2247 58.077 13.2732 57.9758 13.3013C57.8746 13.3294 57.7688 13.3364 57.6647 13.322C57.4063 13.3265 57.1555 13.2335 56.9624 13.0616C56.8669 12.9793 56.7909 12.8767 56.7401 12.7613C56.6892 12.646 56.6647 12.5207 56.6683 12.3946C56.6778 11.9438 56.8363 11.5089 57.1191 11.1577C57.4893 10.7066 57.975 10.3645 58.5244 10.1678C59.2847 9.88711 60.0918 9.75504 60.902 9.77878C61.7517 9.7449 62.6001 9.87242 63.4024 10.1546C63.9693 10.3682 64.4304 10.7946 64.6878 11.343C64.9646 12.0269 65.0927 12.762 65.0636 13.4992C65.0636 14.065 65.0622 14.5452 65.0592 14.9399C65.0563 15.3345 65.0519 15.7733 65.046 16.2563C65.0502 16.7377 65.1261 17.2158 65.271 17.6749C65.3805 17.9824 65.4559 18.301 65.496 18.625C65.4914 18.7565 65.4576 18.8853 65.3972 19.0021C65.3368 19.119 65.2513 19.221 65.1467 19.3008C64.9304 19.498 64.6481 19.6069 64.3554 19.606C64.0737 19.5914 63.8093 19.4658 63.62 19.2567C63.3232 18.9523 63.0651 18.6124 62.8515 18.2448L62.8537 18.247ZM62.6927 14.7538C62.1875 14.9246 61.6716 15.062 61.1483 15.1649C60.4737 15.309 60.008 15.4149 59.7511 15.4826C59.4772 15.5583 59.2236 15.6942 59.0091 15.8805C58.8908 15.982 58.7974 16.1094 58.7361 16.2527C58.6748 16.396 58.6471 16.5514 58.6553 16.7071C58.6533 16.8833 58.6894 17.0578 58.7611 17.2187C58.8328 17.3797 58.9385 17.5232 59.0708 17.6396C59.3695 17.904 59.7593 18.0419 60.1578 18.0242C60.618 18.0288 61.0724 17.921 61.4815 17.7102C61.8503 17.5331 62.1591 17.2518 62.3699 16.9012C62.6285 16.3374 62.741 15.7175 62.6971 15.0987L62.6927 14.7538Z" fill="white"/>
<path d="M69.5006 19.9099L69.7212 19.3708L66.7517 11.8947C66.6063 11.6008 66.5137 11.2837 66.4781 10.9578C66.477 10.7553 66.5319 10.5565 66.6369 10.3834C66.7433 10.2062 66.8941 10.06 67.0745 9.95907C67.25 9.8559 67.4497 9.80109 67.6532 9.80022C67.8011 9.7901 67.9493 9.81483 68.0858 9.87244C68.2224 9.93005 68.3435 10.0189 68.4394 10.1319C68.6496 10.4189 68.8082 10.7405 68.9079 11.082L70.9494 17.0205L72.8849 11.4975C73.0025 11.1391 73.1412 10.7879 73.3004 10.4459C73.3836 10.2424 73.5194 10.0648 73.6939 9.93112C73.8737 9.83262 74.0775 9.78674 74.2822 9.79875C74.4675 9.79981 74.649 9.85061 74.808 9.94583C74.9715 10.0386 75.1061 10.1748 75.1971 10.3393C75.2867 10.4984 75.3338 10.678 75.3338 10.8607C75.3103 10.973 75.272 11.132 75.2191 11.338C75.1661 11.5439 75.1014 11.753 75.025 11.9653L71.8789 20.2018C71.6699 20.7949 71.4034 21.3661 71.0832 21.9073C70.8326 22.3116 70.4767 22.6401 70.0536 22.8574C69.5118 23.102 68.92 23.2156 68.3262 23.1891C67.7861 23.2157 67.246 23.1378 66.7355 22.9596C66.5691 22.8944 66.428 22.7778 66.3326 22.6267C66.2372 22.4756 66.1926 22.298 66.2052 22.1198C66.1979 22.0011 66.2166 21.8823 66.2601 21.7717C66.3035 21.661 66.3707 21.5612 66.4568 21.4792C66.6693 21.3146 66.9351 21.2345 67.2032 21.2542C67.3318 21.254 67.4598 21.2718 67.5834 21.3072C67.7136 21.3395 67.8471 21.3573 67.9813 21.3601C68.2059 21.3707 68.4298 21.3284 68.635 21.2366C68.8138 21.1347 68.9619 20.9866 69.0638 20.8078C69.2321 20.5203 69.3784 20.2203 69.5013 19.9106" fill="white"/>
<path d="M84.6071 16.4512C84.6354 17.0621 84.4628 17.6654 84.1156 18.1689C83.7684 18.6724 83.2658 19.0483 82.6848 19.2391C81.9435 19.5018 81.1604 19.6264 80.3742 19.6068C79.6126 19.626 78.8551 19.4907 78.1473 19.2089C77.6107 19.0046 77.138 18.6615 76.7773 18.2147C76.5037 17.8743 76.3487 17.4539 76.336 17.0174C76.3342 16.8907 76.3584 16.765 76.4071 16.648C76.4558 16.531 76.528 16.4252 76.6192 16.3372C76.7128 16.2437 76.8246 16.1703 76.9477 16.1216C77.0707 16.0729 77.2025 16.0499 77.3347 16.054C77.5456 16.0398 77.7539 16.1061 77.9179 16.2394C78.0747 16.3912 78.206 16.5672 78.3069 16.7608C78.5176 17.1513 78.8231 17.4825 79.1953 17.7242C79.6272 17.9574 80.1148 18.0676 80.605 18.0426C81.025 18.0602 81.4402 17.9474 81.7935 17.7197C81.9262 17.6458 82.0382 17.5397 82.1193 17.4112C82.2004 17.2827 82.2479 17.136 82.2575 16.9843C82.2702 16.8003 82.2319 16.6164 82.147 16.4527C82.062 16.289 81.9336 16.1518 81.7758 16.0562C81.276 15.7967 80.7419 15.6092 80.1895 15.4995C79.497 15.3383 78.8187 15.1211 78.1613 14.8502C77.6804 14.6525 77.2524 14.3453 76.9111 13.953C76.5939 13.5683 76.4274 13.0813 76.4427 12.5829C76.4447 12.0928 76.5958 11.615 76.8758 11.2128C77.1963 10.7566 77.6387 10.3998 78.1525 10.1833C78.7962 9.91096 79.4908 9.77981 80.1895 9.79865C80.7566 9.79184 81.3223 9.85707 81.8729 9.9928C82.3138 10.0983 82.7347 10.2743 83.1194 10.5142C83.4197 10.7009 83.6783 10.9475 83.8791 11.2386C84.0405 11.4664 84.131 11.7368 84.1394 12.0159C84.1436 12.1425 84.121 12.2685 84.0731 12.3857C84.0252 12.503 83.9531 12.6088 83.8614 12.6962C83.6425 12.8846 83.3584 12.9797 83.0702 12.9609C82.8412 12.9672 82.6174 12.8921 82.4384 12.7491C82.2179 12.5586 82.018 12.3453 81.842 12.113C81.6665 11.8837 81.4474 11.6914 81.1971 11.5475C80.885 11.3916 80.538 11.3186 80.1895 11.3357C79.8079 11.3214 79.4303 11.4182 79.1026 11.6144C78.9753 11.6811 78.8681 11.7805 78.792 11.9024C78.7159 12.0242 78.6736 12.1642 78.6695 12.3079C78.668 12.4297 78.6962 12.5501 78.7517 12.6587C78.8072 12.7672 78.8883 12.8606 78.9879 12.9308C79.2471 13.1155 79.5376 13.2518 79.8454 13.333C80.2048 13.4389 80.6997 13.5686 81.3302 13.7221C81.9658 13.864 82.5815 14.0836 83.1635 14.3758C83.5877 14.5871 83.9568 14.8943 84.2416 15.273C84.4859 15.6163 84.6147 16.0284 84.6093 16.4497" fill="white"/>
<path d="M92.7443 18.247C92.2282 18.6607 91.6595 19.0039 91.0529 19.2677C90.4702 19.5018 89.8467 19.6175 89.2188 19.6082C88.6535 19.6201 88.0939 19.4939 87.5884 19.2405C87.1421 19.0164 86.7671 18.672 86.5059 18.2463C86.2549 17.8368 86.1232 17.3653 86.1257 16.885C86.1107 16.2617 86.3352 15.6564 86.753 15.1936C87.2125 14.7051 87.8163 14.3768 88.476 14.2567C88.629 14.2214 89.009 14.1417 89.6159 14.0177C90.2229 13.8936 90.7428 13.7804 91.1757 13.6779C91.6086 13.575 92.0786 13.4497 92.5855 13.3021C92.597 12.8087 92.4633 12.3228 92.2009 11.9048C92.0139 11.7302 91.7903 11.5996 91.5464 11.5223C91.3026 11.4451 91.0445 11.4233 90.7911 11.4584C90.3161 11.4304 89.8414 11.5182 89.4078 11.7144C89.0827 11.9002 88.8091 12.1644 88.6121 12.4829C88.4674 12.7159 88.3111 12.9414 88.1437 13.1587C88.062 13.2247 87.9676 13.2732 87.8664 13.3013C87.7652 13.3294 87.6594 13.3364 87.5554 13.322C87.2969 13.3264 87.0461 13.2335 86.853 13.0616C86.7575 12.9793 86.6816 12.8767 86.6307 12.7613C86.5798 12.6459 86.5552 12.5207 86.5589 12.3946C86.5683 11.9438 86.7269 11.5089 87.0097 11.1577C87.3799 10.7066 87.8656 10.3645 88.415 10.1678C89.1751 9.88718 89.982 9.75511 90.7918 9.77877C91.6415 9.74492 92.49 9.87243 93.2922 10.1546C93.8591 10.3682 94.3203 10.7946 94.5777 11.343C94.8545 12.0269 94.9826 12.7619 94.9535 13.4992C94.9535 14.065 94.952 14.5452 94.9491 14.9399C94.9461 15.3345 94.9417 15.7733 94.9358 16.2562C94.9401 16.7377 95.0159 17.2158 95.1609 17.6749C95.2703 17.9824 95.3458 18.301 95.3859 18.625C95.3813 18.7565 95.3476 18.8853 95.2872 19.0022C95.2268 19.119 95.1412 19.221 95.0366 19.3008C94.8203 19.498 94.538 19.6068 94.2453 19.606C93.9636 19.5914 93.6992 19.4658 93.5099 19.2567C93.2128 18.9523 92.9545 18.6125 92.7407 18.2448L92.7443 18.247ZM92.5818 14.7538C92.0766 14.9246 91.5607 15.0619 91.0375 15.1649C90.3629 15.309 89.8971 15.4149 89.6402 15.4826C89.3663 15.5583 89.1128 15.6942 88.8982 15.8805C88.78 15.982 88.6866 16.1093 88.6252 16.2526C88.5639 16.3959 88.5363 16.5514 88.5445 16.7071C88.5424 16.8832 88.5785 17.0578 88.6502 17.2187C88.722 17.3797 88.8276 17.5232 88.96 17.6396C89.2586 17.9039 89.6484 18.0419 90.0469 18.0242C90.5071 18.0288 90.9615 17.921 91.3706 17.7102C91.7394 17.5331 92.0482 17.2518 92.259 16.9012C92.5176 16.3374 92.6301 15.7175 92.5862 15.0987L92.5818 14.7538Z" fill="white"/>
<path d="M103.321 20V9.09091H107.007C107.863 9.09091 108.563 9.24538 109.106 9.55433C109.653 9.85973 110.058 10.2734 110.32 10.7955C110.583 11.3175 110.714 11.8999 110.714 12.5426C110.714 13.1854 110.583 13.7695 110.32 14.2951C110.061 14.8207 109.66 15.2397 109.116 15.5522C108.573 15.8612 107.877 16.0156 107.028 16.0156H104.386V14.8438H106.986C107.572 14.8438 108.042 14.7425 108.397 14.5401C108.752 14.3377 109.01 14.0643 109.17 13.7198C109.333 13.3718 109.415 12.9794 109.415 12.5426C109.415 12.1058 109.333 11.7152 109.17 11.3707C109.01 11.0263 108.751 10.7564 108.392 10.5611C108.033 10.3622 107.558 10.2628 106.964 10.2628H104.642V20H103.321ZM112.672 20V11.8182H113.887V13.054H113.972C114.121 12.6491 114.391 12.3207 114.781 12.0685C115.172 11.8164 115.612 11.6903 116.102 11.6903C116.195 11.6903 116.31 11.6921 116.449 11.6957C116.587 11.6992 116.692 11.7045 116.763 11.7116V12.9901C116.72 12.9794 116.623 12.9634 116.47 12.9421C116.321 12.9173 116.163 12.9048 115.996 12.9048C115.598 12.9048 115.243 12.9883 114.931 13.1552C114.622 13.3185 114.377 13.5458 114.195 13.837C114.018 14.1246 113.929 14.4531 113.929 14.8224V20H112.672ZM121.328 20.1705C120.589 20.1705 119.941 19.9947 119.384 19.6431C118.83 19.2915 118.396 18.7997 118.084 18.1676C117.775 17.5355 117.621 16.7969 117.621 15.9517C117.621 15.0994 117.775 14.3555 118.084 13.7198C118.396 13.0842 118.83 12.5906 119.384 12.239C119.941 11.8874 120.589 11.7116 121.328 11.7116C122.067 11.7116 122.713 11.8874 123.267 12.239C123.824 12.5906 124.258 13.0842 124.567 13.7198C124.879 14.3555 125.035 15.0994 125.035 15.9517C125.035 16.7969 124.879 17.5355 124.567 18.1676C124.258 18.7997 123.824 19.2915 123.267 19.6431C122.713 19.9947 122.067 20.1705 121.328 20.1705ZM121.328 19.0412C121.889 19.0412 122.351 18.8974 122.713 18.6097C123.075 18.3221 123.343 17.9439 123.517 17.4751C123.691 17.0064 123.778 16.4986 123.778 15.9517C123.778 15.4048 123.691 14.8952 123.517 14.4229C123.343 13.9506 123.075 13.5689 122.713 13.2777C122.351 12.9865 121.889 12.8409 121.328 12.8409C120.767 12.8409 120.305 12.9865 119.943 13.2777C119.581 13.5689 119.313 13.9506 119.139 14.4229C118.965 14.8952 118.878 15.4048 118.878 15.9517C118.878 16.4986 118.965 17.0064 119.139 17.4751C119.313 17.9439 119.581 18.3221 119.943 18.6097C120.305 18.8974 120.767 19.0412 121.328 19.0412ZM126.954 11.8182H128.211V20.5966C128.211 21.1009 128.124 21.5376 127.95 21.907C127.78 22.2763 127.521 22.5621 127.173 22.7646C126.828 22.967 126.393 23.0682 125.868 23.0682C125.825 23.0682 125.782 23.0682 125.74 23.0682C125.697 23.0682 125.655 23.0682 125.612 23.0682V21.8963C125.655 21.8963 125.694 21.8963 125.729 21.8963C125.765 21.8963 125.804 21.8963 125.846 21.8963C126.23 21.8963 126.51 21.7827 126.688 21.5554C126.866 21.3317 126.954 21.0121 126.954 20.5966V11.8182ZM127.572 10.4545C127.327 10.4545 127.116 10.3711 126.938 10.2042C126.764 10.0373 126.677 9.83665 126.677 9.60227C126.677 9.3679 126.764 9.16726 126.938 9.00035C127.116 8.83345 127.327 8.75 127.572 8.75C127.817 8.75 128.027 8.83345 128.201 9.00035C128.378 9.16726 128.467 9.3679 128.467 9.60227C128.467 9.83665 128.378 10.0373 128.201 10.2042C128.027 10.3711 127.817 10.4545 127.572 10.4545ZM133.944 20.1705C133.156 20.1705 132.476 19.9964 131.904 19.6484C131.336 19.2969 130.897 18.8068 130.588 18.1783C130.283 17.5462 130.13 16.8111 130.13 15.973C130.13 15.1349 130.283 14.3963 130.588 13.7571C130.897 13.1143 131.327 12.6136 131.877 12.255C132.431 11.8928 133.078 11.7116 133.816 11.7116C134.243 11.7116 134.663 11.7827 135.079 11.9247C135.494 12.0668 135.873 12.2976 136.213 12.6172C136.554 12.9332 136.826 13.3523 137.028 13.8743C137.231 14.3963 137.332 15.0391 137.332 15.8026V16.3352H131.025V15.2486H136.054C136.054 14.7869 135.961 14.375 135.777 14.0128C135.596 13.6506 135.336 13.3647 134.999 13.1552C134.665 12.9457 134.271 12.8409 133.816 12.8409C133.316 12.8409 132.882 12.9652 132.517 13.2138C132.154 13.4588 131.876 13.7784 131.68 14.1726C131.485 14.5668 131.387 14.9893 131.387 15.4403V16.1648C131.387 16.7827 131.494 17.3065 131.707 17.7362C131.924 18.1623 132.224 18.4872 132.607 18.7109C132.991 18.9311 133.436 19.0412 133.944 19.0412C134.275 19.0412 134.573 18.995 134.839 18.9027C135.109 18.8068 135.342 18.6648 135.537 18.4766C135.732 18.2848 135.883 18.0469 135.99 17.7628L137.204 18.1037C137.076 18.5156 136.862 18.8778 136.56 19.1903C136.258 19.4993 135.885 19.7408 135.441 19.9148C134.997 20.0852 134.498 20.1705 133.944 20.1705ZM142.568 20.1705C141.801 20.1705 141.141 19.9893 140.587 19.6271C140.033 19.2649 139.607 18.766 139.308 18.1303C139.01 17.4947 138.861 16.7685 138.861 15.9517C138.861 15.1207 139.013 14.3874 139.319 13.7518C139.628 13.1126 140.058 12.6136 140.608 12.255C141.162 11.8928 141.808 11.7116 142.547 11.7116C143.122 11.7116 143.641 11.8182 144.102 12.0312C144.564 12.2443 144.942 12.5426 145.237 12.9261C145.532 13.3097 145.714 13.7571 145.786 14.2685H144.528C144.433 13.8956 144.219 13.5653 143.889 13.2777C143.563 12.9865 143.122 12.8409 142.568 12.8409C142.078 12.8409 141.648 12.9687 141.279 13.2244C140.913 13.4766 140.627 13.8335 140.422 14.2951C140.219 14.7532 140.118 15.2912 140.118 15.9091C140.118 16.5412 140.217 17.0916 140.416 17.5604C140.619 18.0291 140.903 18.3931 141.268 18.6523C141.638 18.9116 142.071 19.0412 142.568 19.0412C142.895 19.0412 143.191 18.9844 143.458 18.8707C143.724 18.7571 143.95 18.5938 144.134 18.3807C144.319 18.1676 144.45 17.9119 144.528 17.6136H145.786C145.714 18.0966 145.539 18.5316 145.258 18.9187C144.981 19.3022 144.614 19.6076 144.156 19.8349C143.701 20.0586 143.172 20.1705 142.568 20.1705ZM151.181 11.8182V12.8835H146.941V11.8182H151.181ZM148.177 9.85795H149.434V17.6562C149.434 18.0114 149.486 18.2777 149.589 18.4553C149.695 18.6293 149.83 18.7464 149.994 18.8068C150.161 18.8636 150.336 18.892 150.521 18.892C150.659 18.892 150.773 18.8849 150.862 18.8707C150.951 18.853 151.022 18.8388 151.075 18.8281L151.331 19.9574C151.245 19.9893 151.126 20.0213 150.974 20.0533C150.821 20.0888 150.627 20.1065 150.393 20.1065C150.038 20.1065 149.69 20.0302 149.349 19.8775C149.012 19.7248 148.731 19.4922 148.507 19.1797C148.287 18.8672 148.177 18.473 148.177 17.9972V9.85795ZM158.721 13.6506L157.592 13.9702C157.521 13.782 157.416 13.5991 157.278 13.4215C157.143 13.2404 156.958 13.0913 156.724 12.9741C156.49 12.8569 156.189 12.7983 155.824 12.7983C155.323 12.7983 154.906 12.9137 154.572 13.1445C154.242 13.3718 154.077 13.6612 154.077 14.0128C154.077 14.3253 154.19 14.5721 154.417 14.7532C154.645 14.9343 155 15.0852 155.483 15.206L156.697 15.5043C157.429 15.6818 157.974 15.9535 158.333 16.3192C158.691 16.6815 158.871 17.1484 158.871 17.7202C158.871 18.1889 158.736 18.608 158.466 18.9773C158.199 19.3466 157.827 19.6378 157.347 19.8509C156.868 20.0639 156.31 20.1705 155.675 20.1705C154.84 20.1705 154.149 19.9893 153.602 19.6271C153.056 19.2649 152.709 18.7358 152.564 18.0398L153.757 17.7415C153.871 18.1818 154.085 18.5121 154.401 18.7322C154.721 18.9524 155.138 19.0625 155.653 19.0625C156.239 19.0625 156.704 18.9382 157.049 18.6896C157.397 18.4375 157.571 18.1357 157.571 17.7841C157.571 17.5 157.471 17.2621 157.273 17.0703C157.074 16.875 156.768 16.7294 156.356 16.6335L154.993 16.3139C154.243 16.1364 153.693 15.8612 153.341 15.4883C152.993 15.1119 152.819 14.6413 152.819 14.0767C152.819 13.6151 152.949 13.2067 153.208 12.8516C153.471 12.4964 153.828 12.2177 154.279 12.0153C154.733 11.8129 155.248 11.7116 155.824 11.7116C156.633 11.7116 157.269 11.8892 157.731 12.2443C158.196 12.5994 158.526 13.0682 158.721 13.6506Z" fill="white"/>
</svg>
