<svg width="149" height="27" viewBox="0 0 149 27" fill="none" xmlns="http://www.w3.org/2000/svg">
<g clip-path="url(#clip0_14_37)">
<path d="M42.724 18.3529L42.108 16.7329H36.861L36.245 18.3879C36.0951 18.8476 35.8882 19.2867 35.629 19.6949C35.527 19.8143 35.3978 19.9074 35.2523 19.9664C35.1068 20.0254 34.9493 20.0485 34.793 20.0339C34.631 20.0343 34.4705 20.0027 34.3209 19.9407C34.1712 19.8787 34.0353 19.7877 33.921 19.6729C33.8035 19.571 33.709 19.4453 33.6436 19.3041C33.5783 19.1629 33.5437 19.0095 33.542 18.8539C33.5434 18.6685 33.5731 18.4844 33.63 18.3079C33.6887 18.1206 33.7857 17.8593 33.921 17.5239L37.221 9.14293L37.56 8.27593C37.6704 7.98123 37.8122 7.69926 37.983 7.43493C38.1342 7.21029 38.3364 7.02458 38.573 6.89293C38.85 6.74719 39.1601 6.67586 39.473 6.68593C39.7895 6.67486 40.1034 6.74619 40.384 6.89293C40.6189 7.02309 40.8207 7.20547 40.974 7.42595C41.1249 7.64514 41.2519 7.87978 41.353 8.12593C41.4557 8.37527 41.5863 8.7086 41.745 9.12593L45.117 17.4539C45.329 17.8881 45.4644 18.3556 45.517 18.8359C45.5138 18.9913 45.479 19.1444 45.4147 19.2859C45.3504 19.4274 45.258 19.5543 45.143 19.6589C45.0264 19.7793 44.8864 19.8746 44.7316 19.9389C44.5769 20.0032 44.4106 20.0352 44.243 20.0329C44.0608 20.0379 43.88 20.0002 43.715 19.9229C43.5709 19.8517 43.4445 19.7492 43.345 19.6229C43.2149 19.4429 43.1071 19.2479 43.024 19.042C42.9067 18.7826 42.8067 18.5529 42.724 18.3529ZM37.547 14.7699H41.403L39.457 9.44393L37.547 14.7699Z" fill="#5C5C5C"/>
<path d="M48.4819 9.14401C48.1676 9.15135 47.8619 9.04156 47.624 8.836C47.5109 8.72371 47.4212 8.59001 47.3604 8.44272C47.2995 8.29543 47.2686 8.13749 47.2694 7.97812C47.2703 7.81875 47.3028 7.66114 47.3653 7.5145C47.4277 7.36785 47.5187 7.23509 47.633 7.12399C47.8634 6.90898 48.1678 6.79084 48.483 6.79401C48.7857 6.7914 49.0793 6.89788 49.31 7.094C49.4329 7.20197 49.5294 7.33678 49.592 7.48798C49.6546 7.63917 49.6816 7.80271 49.671 7.966C49.6797 8.12751 49.6526 8.28895 49.5918 8.43881C49.5309 8.58867 49.4378 8.72326 49.319 8.83301C49.0894 9.03889 48.7903 9.15004 48.4819 9.14401ZM49.6699 11.627V18.573C49.6989 18.9674 49.5763 19.358 49.327 19.665C49.2167 19.7857 49.0818 19.8812 48.9313 19.945C48.7808 20.0089 48.6184 20.0396 48.455 20.035C48.2927 20.04 48.1314 20.0085 47.9829 19.9429C47.8344 19.8773 47.7025 19.7793 47.5969 19.656C47.3586 19.3473 47.2413 18.9622 47.267 18.573V11.697C47.2381 11.3103 47.3559 10.9268 47.5969 10.623C47.7053 10.5043 47.8381 10.4106 47.9863 10.3482C48.1344 10.2859 48.2943 10.2565 48.455 10.262C48.6176 10.2572 48.7793 10.2869 48.9296 10.3491C49.0799 10.4113 49.2154 10.5047 49.327 10.623C49.5686 10.8997 49.6918 11.2603 49.6699 11.627Z" fill="#5C5C5C"/>
<path d="M52.1539 18.573V8.14907C52.1255 7.75824 52.2396 7.37033 52.475 7.05706C52.5826 6.93449 52.7164 6.83761 52.8665 6.77358C53.0165 6.70955 53.1789 6.67999 53.3419 6.68706C53.5063 6.6807 53.67 6.71002 53.822 6.77303C53.9739 6.83604 54.1103 6.93124 54.2219 7.05205C54.4682 7.36339 54.5879 7.75627 54.5569 8.15206V18.5761C54.5881 18.9725 54.4669 19.3659 54.218 19.6761C54.1067 19.7962 53.9709 19.891 53.8197 19.954C53.6685 20.0169 53.5056 20.0466 53.3419 20.0411C53.1798 20.0462 53.0185 20.0148 52.8701 19.9494C52.7216 19.884 52.5896 19.7862 52.4839 19.6631C52.244 19.3525 52.1265 18.9646 52.1539 18.573Z" fill="#5C5C5C"/>
<path d="M63.1139 18.6761C62.5994 19.0882 62.0325 19.4303 61.4279 19.6931C60.8474 19.9262 60.2264 20.0414 59.6009 20.0321C59.0379 20.0443 58.4805 19.919 57.9769 19.6671C57.5324 19.444 57.159 19.101 56.8989 18.677C56.6488 18.2692 56.5175 17.7996 56.5199 17.3211C56.506 16.7015 56.7296 16.1 57.1449 15.6401C57.6028 15.1535 58.2046 14.8265 58.8619 14.7071C59.0146 14.6717 59.3933 14.5924 59.9979 14.4691C60.6026 14.3458 61.1206 14.2327 61.5519 14.1301C61.9833 14.0274 62.4499 13.9028 62.9519 13.7561C62.9648 13.2619 62.8316 12.7749 62.5689 12.3561C62.3832 12.1827 62.1612 12.0528 61.919 11.9759C61.6769 11.8989 61.4206 11.8768 61.1689 11.9111C60.6957 11.8832 60.2228 11.9707 59.7909 12.1661C59.4672 12.3514 59.195 12.6147 58.9989 12.9321C58.8546 13.1641 58.6987 13.3887 58.5319 13.6051C58.4506 13.6709 58.3566 13.7193 58.2558 13.7473C58.155 13.7753 58.0496 13.7824 57.9459 13.7681C57.6882 13.7727 57.4382 13.6798 57.2459 13.508C57.1503 13.4262 57.0742 13.324 57.0232 13.209C56.9722 13.0939 56.9475 12.9689 56.9509 12.8431C56.9604 12.3941 57.1183 11.9609 57.3999 11.6111C57.7687 11.1617 58.2526 10.821 58.7999 10.6251C59.5572 10.3457 60.3611 10.2144 61.1679 10.2381C62.0148 10.204 62.8604 10.3309 63.6599 10.6121C64.2248 10.8249 64.6844 11.2497 64.9409 11.7961C65.2166 12.4774 65.3441 13.2096 65.3149 13.9441C65.3149 14.5074 65.3149 14.9857 65.3149 15.3791C65.3149 15.7724 65.3106 16.2098 65.3019 16.6911C65.3061 17.1706 65.3816 17.6468 65.5259 18.104C65.6349 18.4103 65.71 18.7275 65.7499 19.0501C65.7454 19.1812 65.7119 19.3096 65.6517 19.4262C65.5915 19.5428 65.5062 19.6445 65.4019 19.724C65.1859 19.9188 64.9048 20.0259 64.6139 20.0241C64.3339 20.0091 64.0712 19.884 63.8829 19.6761C63.5867 19.3754 63.3284 19.0396 63.1139 18.6761ZM62.9559 15.198C62.4534 15.3678 61.9403 15.5045 61.4199 15.6071C60.7479 15.7511 60.2812 15.8567 60.0199 15.9241C59.7468 16.0006 59.4943 16.1373 59.2809 16.3241C59.1632 16.4252 59.0703 16.552 59.0093 16.6947C58.9483 16.8374 58.9208 16.9921 58.9289 17.1471C58.9269 17.3226 58.9628 17.4965 59.0343 17.6568C59.1058 17.8172 59.211 17.9602 59.3429 18.0761C59.6405 18.3395 60.0289 18.4768 60.4259 18.4591C60.8835 18.4632 61.3352 18.3557 61.7419 18.146C62.1092 17.97 62.4169 17.6901 62.6269 17.341C62.8853 16.7781 62.9975 16.1589 62.9529 15.5411L62.9559 15.198Z" fill="#5C5C5C"/>
<path d="M69.735 20.3349L69.9549 19.798L66.997 12.35C66.852 12.0574 66.7596 11.7415 66.724 11.4169C66.7231 11.2153 66.7782 11.0173 66.883 10.845C66.9889 10.6683 67.1392 10.5225 67.319 10.422C67.4938 10.3188 67.693 10.2639 67.896 10.263C68.0432 10.2529 68.1908 10.2774 68.3268 10.3348C68.4628 10.3921 68.5834 10.4805 68.6789 10.593C68.8885 10.8787 69.0465 11.1989 69.146 11.539L71.18 17.4549L73.108 11.9549C73.2252 11.5977 73.3634 11.2478 73.522 10.907C73.6051 10.7049 73.7404 10.5285 73.914 10.3959C74.0928 10.298 74.2954 10.2523 74.499 10.264C74.6834 10.2645 74.8645 10.3146 75.023 10.4089C75.1857 10.5014 75.3196 10.6371 75.41 10.8009C75.4995 10.9593 75.5467 11.1381 75.547 11.32C75.523 11.4313 75.4847 11.5896 75.432 11.795C75.3793 12.0003 75.3146 12.2086 75.238 12.42L72.104 20.625C71.8961 21.2161 71.6308 21.7855 71.3119 22.3249C71.0625 22.7274 70.7082 23.0545 70.287 23.271C69.7471 23.5144 69.1576 23.6274 68.566 23.6009C68.0278 23.6273 67.4896 23.5496 66.9809 23.3719C66.8154 23.307 66.6749 23.1909 66.5799 23.0405C66.485 22.8901 66.4405 22.7133 66.453 22.5359C66.4458 22.4177 66.4644 22.2994 66.5078 22.1892C66.5512 22.079 66.6181 21.9795 66.704 21.8979C66.9156 21.7335 67.1807 21.6534 67.448 21.673C67.5762 21.6728 67.7037 21.6906 67.827 21.7259C67.9579 21.7585 68.0921 21.7764 68.227 21.779C68.4506 21.7895 68.6736 21.7474 68.878 21.6559C69.0561 21.5545 69.2036 21.407 69.305 21.2289C69.4706 20.9422 69.6144 20.6434 69.735 20.3349Z" fill="#5C5C5C"/>
<path d="M84.7899 16.891C84.8181 17.4997 84.6462 18.1009 84.3003 18.6026C83.9545 19.1043 83.4538 19.4789 82.8749 19.669C82.1369 19.93 81.3574 20.0538 80.5749 20.0341C79.8158 20.0521 79.0609 19.916 78.3559 19.634C77.8216 19.4306 77.3509 19.0889 76.9919 18.644C76.7193 18.3048 76.5648 17.886 76.5519 17.451C76.55 17.3248 76.5742 17.1994 76.6227 17.0828C76.6712 16.9662 76.7431 16.8607 76.8339 16.773C76.9272 16.6799 77.0386 16.6068 77.1612 16.5583C77.2838 16.5098 77.4151 16.4869 77.5468 16.491C77.7569 16.477 77.9645 16.5431 78.1278 16.676C78.2839 16.8275 78.4146 17.0031 78.5149 17.196C78.7247 17.5852 79.029 17.9153 79.3999 18.156C79.8288 18.3875 80.313 18.4972 80.7998 18.473C81.2168 18.491 81.6293 18.38 81.9809 18.155C82.1136 18.0814 82.2256 17.9754 82.3064 17.8469C82.3871 17.7184 82.4341 17.5716 82.4428 17.42C82.4554 17.2368 82.4173 17.0536 82.3326 16.8906C82.2479 16.7276 82.12 16.5911 81.9629 16.496C81.4651 16.2373 80.9331 16.0505 80.3828 15.941C79.6931 15.7804 79.0176 15.564 78.3629 15.294C77.8837 15.0974 77.457 14.7917 77.1169 14.4011C76.8007 14.0178 76.6347 13.5326 76.6499 13.036C76.652 12.5477 76.8027 12.0716 77.0819 11.671C77.4011 11.2164 77.8419 10.8608 78.3539 10.645C78.9951 10.3739 79.6869 10.2433 80.3828 10.262C80.9478 10.2554 81.5113 10.3206 82.0598 10.456C82.4992 10.5612 82.9186 10.7368 83.3019 10.976C83.6011 11.1621 83.8588 11.4079 84.0589 11.6981C84.22 11.9252 84.3104 12.1947 84.3189 12.473C84.3228 12.5991 84.3002 12.7247 84.2525 12.8415C84.2048 12.9583 84.133 13.0638 84.0418 13.1511C83.8238 13.3387 83.541 13.4335 83.2539 13.415C83.0259 13.4213 82.803 13.3465 82.6249 13.204C82.4051 13.0141 82.2061 12.8016 82.0309 12.57C81.8559 12.3416 81.6374 12.1502 81.3879 12.007C81.078 11.8523 80.7337 11.7797 80.3879 11.796C80.0077 11.7816 79.6314 11.8779 79.3048 12.0731C79.1783 12.1398 79.0718 12.239 78.9961 12.3603C78.9204 12.4817 78.8782 12.621 78.8739 12.764C78.8722 12.8855 78.9002 13.0056 78.9555 13.1138C79.0107 13.222 79.0915 13.3151 79.1909 13.385C79.4491 13.5688 79.7384 13.7044 80.0449 13.785C80.4029 13.891 80.8959 14.0201 81.5239 14.1721C82.1573 14.3136 82.7709 14.5326 83.3509 14.824C83.7733 15.0344 84.1409 15.3401 84.4248 15.717C84.6678 16.0598 84.7957 16.4709 84.7899 16.891Z" fill="#5C5C5C"/>
<path d="M92.8981 18.676C92.3836 19.0883 91.8166 19.4303 91.212 19.6931C90.6316 19.9262 90.0105 20.0414 89.3851 20.0321C88.8221 20.0443 88.2646 19.919 87.7611 19.6671C87.3165 19.4439 86.9432 19.1009 86.683 18.677C86.4329 18.2691 86.3017 17.7995 86.3041 17.3211C86.2902 16.7015 86.5138 16.1 86.9291 15.64C87.3869 15.1534 87.9887 14.8264 88.6461 14.707C88.7987 14.6717 89.1774 14.5924 89.782 14.4691C90.3867 14.3457 90.9047 14.2327 91.3361 14.13C91.7674 14.0273 92.2341 13.9027 92.7361 13.7561C92.7492 13.2618 92.616 12.7747 92.3531 12.356C92.1673 12.1827 91.9453 12.0528 91.7032 11.9758C91.461 11.8989 91.2048 11.8767 90.9531 11.911C90.4799 11.8832 90.007 11.9707 89.5751 12.166C89.2514 12.3515 88.9792 12.6148 88.7831 12.932C88.6388 13.1641 88.4829 13.3887 88.316 13.6051C88.2348 13.6707 88.141 13.719 88.0404 13.7471C87.9398 13.7751 87.8346 13.7822 87.7311 13.768C87.4733 13.7725 87.2234 13.6797 87.0311 13.508C86.9355 13.4261 86.8594 13.324 86.8084 13.2089C86.7573 13.0939 86.7326 12.9688 86.7361 12.843C86.7456 12.3941 86.9035 11.9609 87.1851 11.611C87.5539 11.1618 88.0378 10.821 88.5851 10.625C89.3424 10.3457 90.1462 10.2143 90.9531 10.238C91.7996 10.2041 92.6449 10.331 93.4441 10.612C94.009 10.8249 94.4685 11.2496 94.725 11.796C95.0007 12.4774 95.1282 13.2096 95.0991 13.944C95.0991 14.5074 95.0991 14.9857 95.0991 15.379C95.0991 15.7724 95.0947 16.2097 95.0861 16.691C95.0906 17.1706 95.1664 17.6468 95.311 18.104C95.42 18.4102 95.4951 18.7275 95.5351 19.0501C95.5306 19.1812 95.497 19.3096 95.4368 19.4262C95.3767 19.5427 95.2914 19.6444 95.1871 19.724C94.971 19.9188 94.6899 20.0259 94.3991 20.0241C94.119 20.009 93.8563 19.8839 93.6681 19.676C93.3715 19.3755 93.1128 19.0396 92.8981 18.676ZM92.7401 15.198C92.2376 15.3678 91.7245 15.5045 91.204 15.6071C90.532 15.7511 90.0654 15.8567 89.8041 15.924C89.5306 16.0004 89.2778 16.1371 89.0641 16.324C88.9464 16.4252 88.8534 16.552 88.7924 16.6947C88.7314 16.8373 88.7039 16.9921 88.712 17.147C88.71 17.3226 88.746 17.4965 88.8174 17.6568C88.8889 17.8172 88.9942 17.9602 89.126 18.0761C89.4237 18.3394 89.812 18.4767 90.209 18.4591C90.6666 18.4631 91.1183 18.3556 91.5251 18.146C91.8924 17.9699 92.2001 17.69 92.4101 17.341C92.6685 16.778 92.7807 16.1589 92.7361 15.541L92.7401 15.198Z" fill="#5C5C5C"/>
<path d="M20.971 0.5H6.39099C4.83015 0.504484 3.33452 1.12645 2.23074 2.23004C1.12697 3.33363 0.504749 4.82918 0.5 6.39001V20.97C0.504749 22.5308 1.12697 24.0264 2.23074 25.13C3.33452 26.2336 4.83015 26.8555 6.39099 26.86H20.971C22.5317 26.8555 24.0273 26.2335 25.1309 25.1299C26.2345 24.0263 26.8565 22.5307 26.861 20.97V6.39001C26.8565 4.82927 26.2345 3.33372 25.1309 2.2301C24.0273 1.12648 22.5317 0.504485 20.971 0.5Z" fill="#0074D3"/>
<path d="M15.3759 14.6289V14.9989C15.3759 16.9669 14.2859 18.0059 12.2259 18.0059H10.3719C8.2819 18.0059 7.2229 17.4389 7.2229 16.3169C7.2229 15.1949 8.2819 14.6289 10.3719 14.6289H15.3759Z" fill="#0074D3"/>
<path d="M104.743 20L101.362 7.63636H102.884L105.467 17.706H105.588L108.22 7.63636H109.911L112.543 17.706H112.663L115.247 7.63636H116.769L113.388 20H111.842L109.114 10.1477H109.017L106.288 20H104.743Z" fill="#878787"/>
<path d="M117.86 20V10.7273H119.236V12.1278H119.333C119.502 11.669 119.808 11.2968 120.25 11.011C120.693 10.7253 121.192 10.5824 121.748 10.5824C121.852 10.5824 121.983 10.5844 122.14 10.5884C122.297 10.5924 122.416 10.5985 122.496 10.6065V12.0554C122.448 12.0433 122.337 12.0252 122.164 12.0011C121.995 11.9729 121.816 11.9588 121.627 11.9588C121.176 11.9588 120.774 12.0534 120.419 12.2425C120.069 12.4277 119.792 12.6853 119.586 13.0153C119.385 13.3413 119.284 13.7135 119.284 14.1321V20H117.86Z" fill="#878787"/>
<path d="M124.185 20V10.7273H125.61V20H124.185ZM124.909 9.18182C124.632 9.18182 124.392 9.08724 124.191 8.89808C123.994 8.70892 123.895 8.48153 123.895 8.21591C123.895 7.95028 123.994 7.72289 124.191 7.53374C124.392 7.34458 124.632 7.25 124.909 7.25C125.187 7.25 125.425 7.34458 125.622 7.53374C125.823 7.72289 125.924 7.95028 125.924 8.21591C125.924 8.48153 125.823 8.70892 125.622 8.89808C125.425 9.08724 125.187 9.18182 124.909 9.18182Z" fill="#878787"/>
<path d="M132.252 10.7273V11.9347H127.446V10.7273H132.252ZM128.847 8.50568H130.272V17.3438C130.272 17.7462 130.33 18.0481 130.447 18.2493C130.567 18.4465 130.72 18.5793 130.906 18.6477C131.095 18.7121 131.294 18.7443 131.503 18.7443C131.66 18.7443 131.789 18.7363 131.89 18.7202C131.99 18.7 132.071 18.6839 132.131 18.6719L132.421 19.9517C132.324 19.9879 132.189 20.0241 132.016 20.0604C131.843 20.1006 131.624 20.1207 131.358 20.1207C130.956 20.1207 130.561 20.0342 130.175 19.8612C129.793 19.6881 129.475 19.4245 129.221 19.0703C128.972 18.7161 128.847 18.2694 128.847 17.7301V8.50568Z" fill="#878787"/>
<path d="M138.183 20.1932C137.29 20.1932 136.519 19.996 135.871 19.6016C135.227 19.2031 134.73 18.6477 134.38 17.9354C134.034 17.219 133.861 16.3859 133.861 15.4361C133.861 14.4863 134.034 13.6491 134.38 12.9247C134.73 12.1963 135.217 11.6288 135.841 11.2223C136.469 10.8118 137.201 10.6065 138.038 10.6065C138.521 10.6065 138.998 10.687 139.469 10.848C139.94 11.009 140.368 11.2706 140.755 11.6328C141.141 11.991 141.449 12.4659 141.678 13.0575C141.908 13.6491 142.023 14.3776 142.023 15.2429V15.8466H134.875V14.6151H140.574C140.574 14.0919 140.469 13.625 140.26 13.2145C140.055 12.804 139.761 12.48 139.378 12.2425C139 12.0051 138.553 11.8864 138.038 11.8864C137.471 11.8864 136.98 12.0272 136.565 12.3089C136.155 12.5866 135.839 12.9489 135.617 13.3956C135.396 13.8423 135.285 14.3213 135.285 14.8324V15.6534C135.285 16.3537 135.406 16.9473 135.648 17.4343C135.893 17.9173 136.233 18.2855 136.668 18.5391C137.102 18.7886 137.608 18.9134 138.183 18.9134C138.557 18.9134 138.895 18.861 139.197 18.7564C139.503 18.6477 139.767 18.4867 139.988 18.2734C140.209 18.0561 140.381 17.7865 140.501 17.4645L141.878 17.8509C141.733 18.3177 141.489 18.7282 141.147 19.0824C140.805 19.4325 140.383 19.7062 139.879 19.9034C139.376 20.0966 138.811 20.1932 138.183 20.1932Z" fill="#878787"/>
<path d="M144.19 20V10.7273H145.566V12.1278H145.663C145.832 11.669 146.138 11.2968 146.58 11.011C147.023 10.7253 147.522 10.5824 148.078 10.5824C148.182 10.5824 148.313 10.5844 148.47 10.5884C148.627 10.5924 148.746 10.5985 148.826 10.6065V12.0554C148.778 12.0433 148.667 12.0252 148.494 12.0011C148.325 11.9729 148.146 11.9588 147.957 11.9588C147.506 11.9588 147.104 12.0534 146.749 12.2425C146.399 12.4277 146.122 12.6853 145.916 13.0153C145.715 13.3413 145.615 13.7135 145.615 14.1321V20H144.19Z" fill="#878787"/>
<mask id="mask0_14_37" style="mask-type:luminance" maskUnits="userSpaceOnUse" x="0" y="0" width="27" height="27">
<path d="M26.859 0.5H0.5V26.859H26.859V0.5Z" fill="white"/>
</mask>
<g mask="url(#mask0_14_37)">
<path d="M19.6451 8.93288V9.35288H20.3691C20.7544 9.31167 21.1081 9.12101 21.3544 8.82185C21.6006 8.52269 21.7197 8.13889 21.6861 7.75288V7.45288H20.8581C20.5025 7.4913 20.1761 7.66758 19.9489 7.94389C19.7218 8.22021 19.612 8.57455 19.6431 8.93089" fill="white"/>
<path d="M19.645 13.1858V19.9028C20.2431 19.8201 20.7871 19.5124 21.1663 19.0426C21.5455 18.5727 21.7314 17.9759 21.686 17.3738V10.9128H21.541C20.9894 10.9667 20.481 11.2351 20.1256 11.6603C19.7702 12.0856 19.5961 12.6335 19.641 13.1858" fill="white"/>
<path d="M12.2251 7.45483H7.05208C7.07276 7.93911 7.2693 8.39923 7.60489 8.74899C7.94047 9.09875 8.39207 9.31415 8.87508 9.35484H12.2251C14.2861 9.35484 15.3751 10.3948 15.3751 12.3628V12.7328H10.3751C6.88208 12.7328 5.18408 13.9058 5.18408 16.3198C5.18408 18.7338 6.88408 19.9078 10.3751 19.9078H12.2291C15.7211 19.9078 17.4201 18.3078 17.4201 15.0008V12.3608C17.4201 9.06084 15.7201 7.45483 12.2291 7.45483M15.3791 14.9978C15.3791 16.9658 14.2901 18.0058 12.2291 18.0058H10.3721C8.28208 18.0058 7.22208 17.4378 7.22208 16.3168C7.22208 15.1958 8.28108 14.6278 10.3721 14.6278H15.3721L15.3791 14.9978Z" fill="white"/>
</g>
</g>
<defs>
<clipPath id="clip0_14_37">
<rect width="149" height="27" fill="white"/>
</clipPath>
</defs>
</svg>
