<svg width="177" height="30" viewBox="0 0 177 30" fill="none" xmlns="http://www.w3.org/2000/svg">
<path d="M50.466 20.7517L49.7383 18.8317H43.5405L42.8129 20.7932C42.6359 21.338 42.3915 21.8584 42.0853 22.3422C41.9648 22.4837 41.8122 22.5941 41.6403 22.664C41.4685 22.7339 41.2824 22.7613 41.0978 22.744C40.9065 22.7445 40.7169 22.707 40.5402 22.6335C40.3633 22.5601 40.2028 22.4522 40.0678 22.3161C39.929 22.1954 39.8174 22.0464 39.7401 21.879C39.663 21.7117 39.6221 21.5299 39.6201 21.3455C39.6218 21.1257 39.6569 20.9075 39.7241 20.6984C39.7934 20.4764 39.908 20.1667 40.0678 19.7692L43.9658 9.83618L44.3662 8.80862C44.4966 8.45935 44.6641 8.12516 44.8659 7.81188C45.0445 7.54564 45.2833 7.32554 45.5628 7.16951C45.89 6.99678 46.2563 6.91224 46.6259 6.92418C46.9997 6.91106 47.3705 6.9956 47.7019 7.16951C47.9794 7.32377 48.2178 7.53993 48.3989 7.80124C48.5771 8.06102 48.7271 8.33911 48.8465 8.63084C48.9678 8.92636 49.1221 9.32141 49.3096 9.81603L53.2926 19.6862C53.543 20.2008 53.703 20.7549 53.7651 21.3241C53.7613 21.5083 53.7202 21.6898 53.6442 21.8575C53.5683 22.0252 53.4592 22.1756 53.3233 22.2995C53.1856 22.4422 53.0202 22.5552 52.8374 22.6314C52.6546 22.7076 52.4582 22.7455 52.2602 22.7428C52.045 22.7487 51.8314 22.7041 51.6365 22.6124C51.4663 22.5281 51.317 22.4066 51.1995 22.2569C51.0458 22.0435 50.9185 21.8124 50.8203 21.5684C50.6818 21.261 50.5637 20.9887 50.466 20.7517ZM44.3509 16.5052H48.9056L46.607 10.1929L44.3509 16.5052Z" fill="#5D626A"/>
<path d="M57.2673 9.83799C56.896 9.84669 56.5349 9.71657 56.2539 9.47294C56.1203 9.33986 56.0144 9.1814 55.9425 9.00684C55.8706 8.83227 55.8341 8.64508 55.8351 8.4562C55.8361 8.26731 55.8745 8.08052 55.9483 7.90672C56.022 7.73291 56.1295 7.57557 56.2645 7.4439C56.5367 7.18907 56.8963 7.04905 57.2686 7.05281C57.6261 7.04971 57.9729 7.17591 58.2454 7.40835C58.3906 7.53632 58.5046 7.69609 58.5785 7.87529C58.6525 8.05448 58.6844 8.2483 58.6718 8.44183C58.6821 8.63325 58.6501 8.82459 58.5783 9.0022C58.5064 9.17981 58.3964 9.33933 58.2561 9.4694C57.9849 9.71341 57.6316 9.84514 57.2673 9.83799ZM58.6705 12.7808V21.0131C58.7048 21.4805 58.56 21.9435 58.2655 22.3073C58.1352 22.4504 57.9759 22.5636 57.7981 22.6392C57.6203 22.7149 57.4285 22.7513 57.2355 22.7458C57.0438 22.7518 56.8533 22.7144 56.6778 22.6367C56.5024 22.5589 56.3466 22.4428 56.2219 22.2966C55.9404 21.9308 55.8019 21.4744 55.8322 21.0131V12.8638C55.7981 12.4054 55.9372 11.9509 56.2219 11.5909C56.3499 11.4502 56.5068 11.3391 56.6819 11.2652C56.8568 11.1913 57.0457 11.1565 57.2355 11.163C57.4276 11.1573 57.6186 11.1925 57.7961 11.2662C57.9736 11.34 58.1337 11.4507 58.2655 11.5909C58.5509 11.9188 58.6964 12.3462 58.6705 12.7808Z" fill="#5D626A"/>
<path d="M61.6037 21.0121V8.6578C61.5701 8.19459 61.7049 7.73484 61.983 7.36356C62.1101 7.21829 62.2681 7.10347 62.4454 7.02759C62.6226 6.9517 62.8144 6.91666 63.0069 6.92504C63.2011 6.91751 63.3945 6.95226 63.574 7.02693C63.7535 7.10161 63.9146 7.21444 64.0464 7.35762C64.3373 7.72662 64.4787 8.19225 64.4421 8.66134V21.0158C64.479 21.4856 64.3358 21.9518 64.0418 22.3195C63.9103 22.4618 63.7499 22.5742 63.5713 22.6488C63.3927 22.7234 63.2003 22.7586 63.0069 22.7521C62.8155 22.7581 62.6249 22.7209 62.4497 22.6434C62.2742 22.5659 62.1183 22.45 61.9935 22.3041C61.7101 21.9359 61.5713 21.4762 61.6037 21.0121Z" fill="#5D626A"/>
<path d="M74.5513 21.134C73.9436 21.6224 73.274 22.0278 72.5598 22.3393C71.8741 22.6156 71.1406 22.7521 70.4017 22.7411C69.7367 22.7555 69.0783 22.607 68.4835 22.3085C67.9584 22.0441 67.5173 21.6376 67.2101 21.135C66.9147 20.6517 66.7596 20.0952 66.7624 19.528C66.746 18.7937 67.0101 18.0808 67.5007 17.5358C68.0416 16.959 68.7524 16.5715 69.5288 16.43C69.7092 16.388 70.1565 16.294 70.8707 16.1479C71.585 16.0018 72.1968 15.8677 72.7063 15.7461C73.2158 15.6244 73.767 15.4767 74.36 15.3029C74.3752 14.7171 74.2179 14.14 73.9076 13.6436C73.6882 13.4381 73.426 13.2841 73.1399 13.193C72.8539 13.1017 72.5512 13.0755 72.2539 13.1162C71.6949 13.0831 71.1363 13.1868 70.6262 13.4184C70.2438 13.638 69.9223 13.9501 69.6907 14.3263C69.5202 14.6012 69.3361 14.8674 69.139 15.1239C69.043 15.2019 68.932 15.2592 68.8129 15.2924C68.6938 15.3256 68.5693 15.334 68.4468 15.3171C68.1424 15.3225 67.8471 15.2124 67.62 15.0088C67.5071 14.9119 67.4172 14.7907 67.3569 14.6544C67.2967 14.518 67.2675 14.3699 67.2715 14.2208C67.2828 13.6886 67.4693 13.1752 67.8019 12.7606C68.2375 12.228 68.8091 11.8242 69.4556 11.592C70.3501 11.2609 71.2997 11.1053 72.2527 11.1334C73.2531 11.093 74.2519 11.2434 75.1963 11.5766C75.8635 11.8288 76.4064 12.3323 76.7094 12.9799C77.0351 13.7874 77.1857 14.6552 77.1512 15.5257C77.1512 16.1933 77.1512 16.7602 77.1512 17.2264C77.1512 17.6926 77.1461 18.211 77.1358 18.7814C77.1408 19.3497 77.23 19.9141 77.4004 20.4559C77.5292 20.819 77.6179 21.1949 77.665 21.5772C77.6597 21.7326 77.6201 21.8848 77.549 22.023C77.4779 22.1612 77.3771 22.2817 77.2539 22.3759C76.9988 22.6068 76.6667 22.7337 76.3231 22.7316C75.9924 22.7138 75.6821 22.5656 75.4597 22.3192C75.1098 21.9628 74.8047 21.5648 74.5513 21.134ZM74.3647 17.0118C73.7711 17.213 73.1651 17.375 72.5504 17.4966C71.7566 17.6673 71.2053 17.7925 70.8967 17.8723C70.5741 17.963 70.2758 18.125 70.0238 18.3464C69.8847 18.4662 69.775 18.6165 69.7029 18.7856C69.6309 18.9548 69.5984 19.1381 69.608 19.3218C69.6056 19.5298 69.648 19.7359 69.7325 19.9259C69.8169 20.116 69.9412 20.2855 70.097 20.4229C70.4485 20.735 70.9073 20.8978 71.3762 20.8768C71.9168 20.8816 72.4503 20.7542 72.9307 20.5057C73.3646 20.2971 73.728 19.9654 73.9761 19.5516C74.2813 18.8845 74.4138 18.1506 74.3611 17.4184L74.3647 17.0118Z" fill="#5D626A"/>
<path d="M82.3713 23.1008L82.6311 22.4645L79.1372 13.6372C78.9659 13.2905 78.8568 12.9161 78.8147 12.5313C78.8137 12.2924 78.8788 12.0577 79.0025 11.8535C79.1276 11.6441 79.3052 11.4713 79.5175 11.3522C79.724 11.2299 79.9593 11.1648 80.1991 11.1638C80.373 11.1518 80.5473 11.1808 80.708 11.2489C80.8686 11.3168 81.0111 11.4215 81.1239 11.5549C81.3715 11.8935 81.5581 12.273 81.6756 12.6761L84.0782 19.6875L86.3556 13.169C86.494 12.7456 86.6572 12.3309 86.8446 11.927C86.9427 11.6875 87.1026 11.4784 87.3076 11.3213C87.5188 11.2052 87.7581 11.1511 87.9986 11.1649C88.2164 11.1655 88.4304 11.2249 88.6176 11.3367C88.8098 11.4463 88.9679 11.6071 89.0747 11.8013C89.1804 11.989 89.2362 12.2009 89.2365 12.4165C89.2082 12.5484 89.1629 12.736 89.1007 12.9795C89.0384 13.2228 88.962 13.4697 88.8715 13.7202L85.1696 23.4446C84.9241 24.1452 84.6107 24.8201 84.234 25.4593C83.9394 25.9364 83.5209 26.3241 83.0234 26.5806C82.3856 26.8691 81.6893 27.003 80.9905 26.9716C80.3548 27.0029 79.7191 26.9108 79.1182 26.7002C78.9227 26.6233 78.7567 26.4857 78.6445 26.3075C78.5324 26.1292 78.4799 25.9197 78.4946 25.7094C78.4861 25.5693 78.5081 25.4291 78.5593 25.2985C78.6106 25.1679 78.6896 25.05 78.7911 24.9533C79.0411 24.7584 79.3542 24.6635 79.6699 24.6867C79.8214 24.6865 79.972 24.7076 80.1176 24.7494C80.2722 24.7881 80.4307 24.8093 80.5901 24.8124C80.8542 24.8248 81.1176 24.7749 81.3591 24.6665C81.5694 24.5463 81.7437 24.3715 81.8634 24.1604C82.059 23.8206 82.2289 23.4665 82.3713 23.1008Z" fill="#5D626A"/>
<path d="M100.155 19.0188C100.188 19.7403 99.985 20.4528 99.5764 21.0474C99.168 21.642 98.5765 22.086 97.8927 22.3113C97.021 22.6206 96.1002 22.7673 95.1759 22.744C94.2793 22.7653 93.3876 22.604 92.5549 22.2698C91.9237 22.0287 91.3677 21.6238 90.9437 21.0965C90.6217 20.6944 90.4392 20.1981 90.424 19.6825C90.4217 19.533 90.4503 19.3843 90.5076 19.2462C90.5649 19.108 90.6498 18.9829 90.757 18.879C90.8673 18.7686 90.9988 18.682 91.1437 18.6245C91.2885 18.567 91.4436 18.5399 91.5991 18.5448C91.8473 18.5282 92.0925 18.6065 92.2854 18.764C92.4698 18.9436 92.6242 19.1517 92.7427 19.3803C92.9905 19.8416 93.3499 20.2328 93.788 20.5181C94.2947 20.7925 94.8666 20.9225 95.4416 20.8938C95.9342 20.9151 96.4214 20.7836 96.8367 20.5169C96.9935 20.4297 97.1258 20.304 97.2212 20.1518C97.3165 19.9995 97.3721 19.8255 97.3823 19.6458C97.3972 19.4287 97.3522 19.2115 97.2522 19.0184C97.1521 18.8252 97.001 18.6634 96.8155 18.5507C96.2275 18.2441 95.5991 18.0227 94.949 17.8929C94.1344 17.7026 93.3365 17.4461 92.5631 17.1261C91.9971 16.8931 91.4931 16.5308 91.0913 16.0678C90.7178 15.6136 90.5218 15.0385 90.5397 14.4499C90.5422 13.8712 90.7202 13.307 91.05 12.8322C91.427 12.2934 91.9477 11.8719 92.5525 11.6162C93.3099 11.2949 94.127 11.1401 94.949 11.1622C95.6164 11.1544 96.282 11.2317 96.9299 11.3922C97.4489 11.5168 97.9443 11.725 98.3971 12.0085C98.7505 12.229 99.0549 12.5203 99.2913 12.8643C99.4816 13.1334 99.5884 13.4528 99.5984 13.7827C99.603 13.9321 99.5763 14.081 99.52 14.2194C99.4636 14.3579 99.3788 14.4829 99.2711 14.5864C99.0136 14.8087 98.6795 14.9211 98.3404 14.8991C98.0711 14.9066 97.8078 14.8179 97.5974 14.6491C97.3378 14.424 97.1027 14.1721 96.8958 13.8976C96.6891 13.627 96.431 13.4001 96.1363 13.2304C95.7702 13.047 95.3635 12.961 94.9551 12.9803C94.506 12.9632 94.0615 13.0774 93.6757 13.3087C93.5263 13.3878 93.4005 13.5054 93.3111 13.6491C93.2216 13.793 93.1718 13.9581 93.1667 14.1276C93.1647 14.2716 93.1978 14.4139 93.2631 14.5422C93.3283 14.6704 93.4237 14.7807 93.5412 14.8636C93.8461 15.0814 94.1879 15.2421 94.5499 15.3376C94.9728 15.4633 95.5551 15.6163 96.2969 15.7964C97.0451 15.9641 97.7699 16.2237 98.455 16.5691C98.9539 16.8184 99.3881 17.1807 99.7235 17.6274C100.011 18.0337 100.162 18.5209 100.155 19.0188Z" fill="#5D626A"/>
<path d="M109.733 21.1339C109.125 21.6226 108.455 22.0279 107.741 22.3394C107.056 22.6156 106.322 22.7522 105.583 22.7411C104.918 22.7556 104.26 22.6071 103.665 22.3085C103.14 22.044 102.699 21.6375 102.392 21.1351C102.096 20.6517 101.941 20.0951 101.944 19.5281C101.928 18.7938 102.192 18.0809 102.682 17.5357C103.223 16.959 103.934 16.5714 104.71 16.4299C104.891 16.3881 105.338 16.2941 106.052 16.148C106.766 16.0017 107.378 15.8678 107.888 15.7461C108.397 15.6243 108.949 15.4767 109.542 15.3029C109.557 14.7171 109.4 14.1398 109.089 13.6435C108.87 13.4381 108.608 13.2842 108.322 13.1929C108.035 13.1018 107.733 13.0755 107.436 13.1161C106.877 13.0832 106.318 13.1869 105.808 13.4184C105.425 13.6382 105.104 13.9503 104.872 14.3262C104.702 14.6013 104.518 14.8675 104.321 15.124C104.225 15.2017 104.114 15.2589 103.995 15.2922C103.876 15.3254 103.752 15.3338 103.63 15.317C103.325 15.3224 103.03 15.2124 102.803 15.0089C102.69 14.9118 102.6 14.7908 102.54 14.6544C102.479 14.5181 102.45 14.3698 102.454 14.2207C102.466 13.6887 102.652 13.1753 102.985 12.7606C103.42 12.2282 103.992 11.8243 104.638 11.592C105.533 11.261 106.482 11.1052 107.436 11.1333C108.435 11.0931 109.434 11.2435 110.378 11.5766C111.045 11.8289 111.588 12.3322 111.891 12.9798C112.217 13.7874 112.367 14.6552 112.333 15.5256C112.333 16.1933 112.333 16.7602 112.333 17.2264C112.333 17.6926 112.328 18.2109 112.317 18.7813C112.323 19.3497 112.412 19.9141 112.583 20.456C112.712 20.8189 112.801 21.1949 112.848 21.5773C112.843 21.7327 112.803 21.8848 112.732 22.023C112.661 22.1611 112.56 22.2816 112.437 22.376C112.181 22.6069 111.849 22.7338 111.506 22.7317C111.175 22.7138 110.865 22.5655 110.642 22.3191C110.292 21.9629 109.987 21.5648 109.733 21.1339ZM109.546 17.0118C108.953 17.2131 108.347 17.3751 107.732 17.4967C106.938 17.6674 106.387 17.7925 106.078 17.8723C105.755 17.9628 105.457 18.1248 105.204 18.3464C105.065 18.4663 104.955 18.6166 104.883 18.7857C104.811 18.9547 104.779 19.1382 104.788 19.3218C104.786 19.5299 104.828 19.736 104.913 19.926C104.997 20.1161 105.122 20.2856 105.277 20.4229C105.629 20.735 106.088 20.8977 106.557 20.8768C107.097 20.8816 107.631 20.7542 108.111 20.5058C108.545 20.297 108.908 19.9653 109.157 19.5517C109.462 18.8844 109.594 18.1507 109.542 17.4184L109.546 17.0118Z" fill="#5D626A"/>
<path d="M24 15.7301V30H0V7H14.8952V14.7247H8.06049V22.2765H15.9445V15.7301H24Z" fill="url(#paint0_linear_76_131)"/>
<path d="M30.9055 7.64723C26.8577 9.36951 25.3729 10.8607 23.6447 14.9054C23.6322 14.9336 23.6119 14.9574 23.5861 14.9742C23.5603 14.9911 23.5301 15 23.4994 15C23.4686 15 23.4385 14.9911 23.4127 14.9742C23.3869 14.9574 23.3665 14.9336 23.354 14.9054C21.632 10.8569 20.1424 9.36702 16.0946 7.64475C16.0663 7.63226 16.0425 7.61187 16.0258 7.58606C16.0089 7.56026 16 7.53013 16 7.49936C16 7.46857 16.0089 7.43845 16.0258 7.41264C16.0425 7.38683 16.0663 7.36645 16.0946 7.35397C20.1424 5.63417 21.632 4.14426 23.354 0.0945472C23.3665 0.0664088 23.3869 0.0424981 23.4127 0.0257156C23.4385 0.00893308 23.4686 0 23.4994 0C23.5301 0 23.5603 0.00893308 23.5861 0.0257156C23.6119 0.0424981 23.6322 0.0664088 23.6447 0.0945472C25.3729 4.14426 26.8577 5.63417 30.9055 7.35645C30.9337 7.36894 30.9575 7.38932 30.9744 7.41512C30.9911 7.44093 31 7.47105 31 7.50184C31 7.53263 30.9911 7.56274 30.9744 7.58855C30.9575 7.61436 30.9337 7.63474 30.9055 7.64723Z" fill="#0673F7"/>
<path d="M128.391 18.7031L131.213 8.78125H132.58L131.789 12.6387L128.752 23H127.395L128.391 18.7031ZM125.471 8.78125L127.717 18.5078L128.391 23H127.043L123.596 8.78125H125.471ZM136.232 18.498L138.43 8.78125H140.314L136.877 23H135.529L136.232 18.498ZM132.785 8.78125L135.529 18.7031L136.525 23H135.168L132.238 12.6387L131.438 8.78125H132.785ZM143.723 14.0938V23H141.916V12.4336H143.674L143.723 14.0938ZM147.023 12.375L147.014 14.0547C146.864 14.0221 146.721 14.0026 146.584 13.9961C146.454 13.9831 146.304 13.9766 146.135 13.9766C145.718 13.9766 145.35 14.0417 145.031 14.1719C144.712 14.3021 144.442 14.4844 144.221 14.7188C143.999 14.9531 143.824 15.2331 143.693 15.5586C143.57 15.8776 143.488 16.2292 143.449 16.6133L142.941 16.9062C142.941 16.2682 143.003 15.6693 143.127 15.1094C143.257 14.5495 143.456 14.0547 143.723 13.625C143.99 13.1888 144.328 12.8503 144.738 12.6094C145.155 12.362 145.65 12.2383 146.223 12.2383C146.353 12.2383 146.503 12.2546 146.672 12.2871C146.841 12.3132 146.958 12.3424 147.023 12.375ZM150.656 12.4336V23H148.84V12.4336H150.656ZM148.703 9.63086C148.703 9.33789 148.791 9.09049 148.967 8.88867C149.149 8.68685 149.416 8.58594 149.768 8.58594C150.113 8.58594 150.376 8.68685 150.559 8.88867C150.747 9.09049 150.842 9.33789 150.842 9.63086C150.842 9.91081 150.747 10.1517 150.559 10.3535C150.376 10.5488 150.113 10.6465 149.768 10.6465C149.416 10.6465 149.149 10.5488 148.967 10.3535C148.791 10.1517 148.703 9.91081 148.703 9.63086ZM157.98 12.4336V13.8203H152.268V12.4336H157.98ZM154.201 9.86523H156.008V20.3828C156.008 20.7409 156.063 21.0111 156.174 21.1934C156.285 21.3757 156.428 21.4961 156.604 21.5547C156.779 21.6133 156.968 21.6426 157.17 21.6426C157.32 21.6426 157.476 21.6296 157.639 21.6035C157.808 21.571 157.935 21.5449 158.02 21.5254L158.029 23C157.886 23.0456 157.697 23.0879 157.463 23.127C157.235 23.1725 156.958 23.1953 156.633 23.1953C156.19 23.1953 155.783 23.1074 155.412 22.9316C155.041 22.7559 154.745 22.4629 154.523 22.0527C154.309 21.6361 154.201 21.0762 154.201 20.373V9.86523ZM164.484 23.1953C163.749 23.1953 163.081 23.0716 162.482 22.8242C161.89 22.5703 161.379 22.2155 160.949 21.7598C160.526 21.304 160.201 20.7637 159.973 20.1387C159.745 19.5137 159.631 18.8301 159.631 18.0879V17.6777C159.631 16.8184 159.758 16.0534 160.012 15.3828C160.266 14.7057 160.611 14.1328 161.047 13.6641C161.483 13.1953 161.978 12.8405 162.531 12.5996C163.085 12.3587 163.658 12.2383 164.25 12.2383C165.005 12.2383 165.656 12.3685 166.203 12.6289C166.757 12.8893 167.209 13.2539 167.561 13.7227C167.912 14.1849 168.173 14.7318 168.342 15.3633C168.511 15.9883 168.596 16.6719 168.596 17.4141V18.2246H160.705V16.75H166.789V16.6133C166.763 16.1445 166.665 15.6888 166.496 15.2461C166.333 14.8034 166.073 14.4388 165.715 14.1523C165.357 13.8659 164.868 13.7227 164.25 13.7227C163.84 13.7227 163.462 13.8105 163.117 13.9863C162.772 14.1556 162.476 14.4095 162.229 14.748C161.981 15.0866 161.789 15.5 161.652 15.9883C161.516 16.4766 161.447 17.0397 161.447 17.6777V18.0879C161.447 18.5892 161.516 19.0612 161.652 19.5039C161.796 19.9401 162.001 20.3242 162.268 20.6562C162.541 20.9883 162.87 21.2487 163.254 21.4375C163.645 21.6263 164.087 21.7207 164.582 21.7207C165.22 21.7207 165.76 21.5905 166.203 21.3301C166.646 21.0697 167.033 20.7214 167.365 20.2852L168.459 21.1543C168.231 21.4993 167.941 21.8281 167.59 22.1406C167.238 22.4531 166.805 22.707 166.291 22.9023C165.783 23.0977 165.181 23.1953 164.484 23.1953ZM172.512 14.0938V23H170.705V12.4336H172.463L172.512 14.0938ZM175.812 12.375L175.803 14.0547C175.653 14.0221 175.51 14.0026 175.373 13.9961C175.243 13.9831 175.093 13.9766 174.924 13.9766C174.507 13.9766 174.139 14.0417 173.82 14.1719C173.501 14.3021 173.231 14.4844 173.01 14.7188C172.788 14.9531 172.613 15.2331 172.482 15.5586C172.359 15.8776 172.277 16.2292 172.238 16.6133L171.73 16.9062C171.73 16.2682 171.792 15.6693 171.916 15.1094C172.046 14.5495 172.245 14.0547 172.512 13.625C172.779 13.1888 173.117 12.8503 173.527 12.6094C173.944 12.362 174.439 12.2383 175.012 12.2383C175.142 12.2383 175.292 12.2546 175.461 12.2871C175.63 12.3132 175.747 12.3424 175.812 12.375Z" fill="#2A343F"/>
<defs>
<linearGradient id="paint0_linear_76_131" x1="9.07201" y1="21.559" x2="18.7091" y2="10.5474" gradientUnits="userSpaceOnUse">
<stop stop-color="#0673F7"/>
<stop offset="1" stop-color="#004AB3"/>
</linearGradient>
</defs>
</svg>
