<svg xmlns="http://www.w3.org/2000/svg" xmlns:xlink="http://www.w3.org/1999/xlink" width="155.279" height="24.917" viewBox="0 0 155.279 24.917">
  <defs>
    <clipPath id="clip-path">
      <rect id="Rectangle_1753" data-name="Rectangle 1753" width="155.279" height="24.917" fill="none"/>
    </clipPath>
  </defs>
  <g id="Group_1129" data-name="Group 1129" transform="translate(0 0)">
    <g id="Group_1128" data-name="Group 1128" transform="translate(0 0)" clip-path="url(#clip-path)">
      <path id="Path_2849" data-name="Path 2849" d="M118.2,152.454a26.575,26.575,0,0,1-14.989,4.582A27.122,27.122,0,0,1,84.9,150.049c-.38-.343-.039-.811.416-.544a36.852,36.852,0,0,0,18.32,4.859,36.428,36.428,0,0,0,13.974-2.857c.686-.291,1.26.449.589.947" transform="translate(-74.921 -132.119)" fill="#f90"/>
      <path id="Path_2850" data-name="Path 2850" d="M349.507,144.96c-.516-.662-3.425-.313-4.731-.158-.4.049-.459-.3-.1-.547,2.317-1.631,6.119-1.16,6.562-.613s-.115,4.36-2.293,6.179c-.334.279-.653.131-.5-.24.489-1.221,1.585-3.957,1.066-4.622" transform="translate(-304.544 -126.553)" fill="#f90"/>
      <path id="Path_2851" data-name="Path 2851" d="M345.05,38.288V36.7a.391.391,0,0,1,.4-.4h7.1a.4.4,0,0,1,.41.4V38.06a2.233,2.233,0,0,1-.534,1l-3.677,5.25a7.836,7.836,0,0,1,4.048.868.723.723,0,0,1,.376.616v1.691c0,.231-.255.5-.522.361a8.175,8.175,0,0,0-7.5.012c-.246.134-.5-.134-.5-.364V45.886a1.917,1.917,0,0,1,.261-1.09l4.26-6.11H345.46a.393.393,0,0,1-.41-.4" transform="translate(-304.727 -32.097)" fill="#221f1f"/>
      <path id="Path_2852" data-name="Path 2852" d="M105.21,46.625h-2.159a.408.408,0,0,1-.386-.367V35.177a.405.405,0,0,1,.416-.4h2.013a.407.407,0,0,1,.392.371V36.6h.039a2.967,2.967,0,0,1,5.645,0,3.188,3.188,0,0,1,5.481-.841c.683.932.544,2.287.544,3.474l0,6.993a.408.408,0,0,1-.416.4H114.62a.41.41,0,0,1-.389-.4V40.351a13.874,13.874,0,0,0-.061-2.077,1.124,1.124,0,0,0-1.269-.953,1.434,1.434,0,0,0-1.291.908,6.708,6.708,0,0,0-.2,2.123v5.873a.408.408,0,0,1-.416.4h-2.156a.408.408,0,0,1-.389-.4l0-5.873c0-1.236.2-3.055-1.33-3.055-1.552,0-1.491,1.773-1.491,3.055v5.873a.408.408,0,0,1-.416.4" transform="translate(-90.774 -30.544)" fill="#221f1f"/>
      <path id="Path_2853" data-name="Path 2853" d="M432.063,34.545c3.2,0,4.937,2.751,4.937,6.249,0,3.38-1.916,6.061-4.937,6.061-3.146,0-4.859-2.751-4.859-6.18,0-3.45,1.734-6.131,4.859-6.131m.018,2.262c-1.591,0-1.691,2.168-1.691,3.519s-.021,4.245,1.673,4.245c1.673,0,1.752-2.332,1.752-3.753a10.245,10.245,0,0,0-.322-2.939,1.351,1.351,0,0,0-1.412-1.072" transform="translate(-377.723 -30.544)" fill="#221f1f"/>
      <path id="Path_2854" data-name="Path 2854" d="M528.243,46.625h-2.15a.41.41,0,0,1-.389-.4l0-11.083a.408.408,0,0,1,.416-.361h2a.413.413,0,0,1,.386.31v1.694h.04c.6-1.515,1.451-2.238,2.942-2.238a2.833,2.833,0,0,1,2.52,1.306,7.042,7.042,0,0,1,.565,3.45v6.975a.415.415,0,0,1-.416.349H531.99a.409.409,0,0,1-.383-.349V40.257c0-1.212.14-2.985-1.351-2.985a1.411,1.411,0,0,0-1.248.887,4.9,4.9,0,0,0-.343,2.1v5.967a.415.415,0,0,1-.422.4" transform="translate(-464.811 -30.544)" fill="#221f1f"/>
      <path id="Path_2855" data-name="Path 2855" d="M250.729,40.521v-.468c-1.561,0-3.21.334-3.21,2.174,0,.932.483,1.564,1.312,1.564a1.751,1.751,0,0,0,1.494-.981,4.224,4.224,0,0,0,.4-2.29m2.177,5.262a.451.451,0,0,1-.51.052,5.316,5.316,0,0,1-1.239-1.439,4.272,4.272,0,0,1-3.559,1.57,3.064,3.064,0,0,1-3.231-3.364,3.668,3.668,0,0,1,2.3-3.529,14.957,14.957,0,0,1,4.06-.75v-.279a2.778,2.778,0,0,0-.261-1.564,1.444,1.444,0,0,0-1.212-.562,1.646,1.646,0,0,0-1.737,1.3.451.451,0,0,1-.373.395l-2.1-.225a.382.382,0,0,1-.322-.452c.483-2.539,2.775-3.3,4.828-3.3a4.895,4.895,0,0,1,3.252,1.075c1.051.981.95,2.29.95,3.714v3.364a2.953,2.953,0,0,0,.814,2,.406.406,0,0,1-.006.574c-.44.367-1.224,1.051-1.655,1.433l-.006-.006" transform="translate(-216.063 -29.733)" fill="#221f1f"/>
      <path id="Path_2856" data-name="Path 2856" d="M6.362,40.521v-.468c-1.561,0-3.21.334-3.21,2.174,0,.932.483,1.564,1.312,1.564a1.751,1.751,0,0,0,1.494-.981,4.224,4.224,0,0,0,.4-2.29m2.177,5.262a.451.451,0,0,1-.51.052A5.316,5.316,0,0,1,6.79,44.4a4.272,4.272,0,0,1-3.559,1.57A3.064,3.064,0,0,1,0,42.6a3.668,3.668,0,0,1,2.3-3.529,14.957,14.957,0,0,1,4.06-.75v-.279A2.778,2.778,0,0,0,6.1,36.479a1.445,1.445,0,0,0-1.212-.562,1.646,1.646,0,0,0-1.737,1.3.451.451,0,0,1-.373.395l-2.1-.225a.382.382,0,0,1-.322-.452c.483-2.539,2.775-3.3,4.828-3.3A4.895,4.895,0,0,1,8.442,34.7c1.051.981.95,2.29.95,3.714v3.364a2.953,2.953,0,0,0,.814,2,.406.406,0,0,1-.006.574c-.44.367-1.224,1.051-1.655,1.433l-.006-.006" transform="translate(0 -29.733)" fill="#221f1f"/>
      <path id="Path_2857" data-name="Path 2857" d="M637.84,27.826a2.866,2.866,0,0,1-2.185-.8,3.1,3.1,0,0,1-.76-2.217V18.712h-1.117a.511.511,0,0,1-.362-.138.538.538,0,0,1-.149-.415V17.117l1.755-.287.553-2.978a.583.583,0,0,1,.2-.33.6.6,0,0,1,.383-.117h1.361V16.84h2.914v1.872h-2.914v5.913a1.176,1.176,0,0,0,.25.8.862.862,0,0,0,.686.287,1.235,1.235,0,0,0,.409-.058,2.218,2.218,0,0,0,.287-.122q.122-.064.218-.122a.365.365,0,0,1,.191-.059.3.3,0,0,1,.191.059.9.9,0,0,1,.16.175l.787,1.276a3.978,3.978,0,0,1-1.319.723,4.912,4.912,0,0,1-1.542.245" transform="translate(-559.919 -11.852)" fill="#f90"/>
      <path id="Path_2858" data-name="Path 2858" d="M712.136,42.587a4.706,4.706,0,0,1,1.212-1.537,2.585,2.585,0,0,1,1.659-.558,2.03,2.03,0,0,1,1.212.33l-.17,1.968a.509.509,0,0,1-.154.271.427.427,0,0,1-.271.08,3.072,3.072,0,0,1-.473-.053,3.669,3.669,0,0,0-.611-.053,2.2,2.2,0,0,0-.776.128,1.952,1.952,0,0,0-.611.367,2.5,2.5,0,0,0-.479.58,5.664,5.664,0,0,0-.388.776v6.721h-2.627V40.694H711.2a.635.635,0,0,1,.776.659Z" transform="translate(-627.462 -35.802)" fill="#f90"/>
      <path id="Path_2859" data-name="Path 2859" d="M770.78,42.215a6.474,6.474,0,0,1,4.531-1.723,4.429,4.429,0,0,1,1.712.314,3.619,3.619,0,0,1,1.276.872,3.736,3.736,0,0,1,.792,1.335,5.129,5.129,0,0,1,.271,1.7v6.891h-1.191a1.2,1.2,0,0,1-.574-.112.773.773,0,0,1-.319-.452l-.234-.787a9.467,9.467,0,0,1-.808.654,4.777,4.777,0,0,1-.819.473,4.413,4.413,0,0,1-.909.292,5.245,5.245,0,0,1-1.069.1,4.193,4.193,0,0,1-1.276-.186,2.8,2.8,0,0,1-1.01-.558,2.5,2.5,0,0,1-.659-.925,3.28,3.28,0,0,1-.234-1.287,2.562,2.562,0,0,1,.138-.824,2.409,2.409,0,0,1,.452-.782,3.763,3.763,0,0,1,.814-.7,5.291,5.291,0,0,1,1.229-.574,10.619,10.619,0,0,1,1.7-.4,16.964,16.964,0,0,1,2.212-.186v-.638a2.389,2.389,0,0,0-.468-1.622,1.713,1.713,0,0,0-1.351-.526,3.209,3.209,0,0,0-1.058.149,4.374,4.374,0,0,0-.739.335q-.319.186-.58.335a1.147,1.147,0,0,1-.58.149.758.758,0,0,1-.468-.144,1.2,1.2,0,0,1-.308-.335Zm6.019,4.733a14.508,14.508,0,0,0-1.914.2,5.11,5.11,0,0,0-1.244.367,1.636,1.636,0,0,0-.67.521,1.29,1.29,0,0,0,.207,1.638,1.774,1.774,0,0,0,1.069.3,3.116,3.116,0,0,0,1.4-.292,4.15,4.15,0,0,0,1.154-.888Z" transform="translate(-681.044 -35.802)" fill="#f90"/>
      <path id="Path_2860" data-name="Path 2860" d="M872.613,42.278a7.118,7.118,0,0,1,.7-.612,4.416,4.416,0,0,1,.776-.479,4.284,4.284,0,0,1,1.9-.42,3.912,3.912,0,0,1,1.585.3,3.133,3.133,0,0,1,1.154.851,3.745,3.745,0,0,1,.7,1.308,5.563,5.563,0,0,1,.239,1.675V51.85h-2.627V44.9a2.35,2.35,0,0,0-.457-1.547,1.712,1.712,0,0,0-1.393-.548,2.735,2.735,0,0,0-1.276.308,4.57,4.57,0,0,0-1.127.84V51.85h-2.627V40.938h1.606a.645.645,0,0,1,.67.479Z" transform="translate(-769.37 -36.046)" fill="#f90"/>
      <path id="Path_2861" data-name="Path 2861" d="M974.457,43.064a.7.7,0,0,1-.223.239.577.577,0,0,1-.3.069.937.937,0,0,1-.409-.106q-.218-.106-.505-.239a4.652,4.652,0,0,0-.654-.239,3.134,3.134,0,0,0-.867-.106,2,2,0,0,0-1.218.33,1.027,1.027,0,0,0-.441.862.821.821,0,0,0,.229.59,2.054,2.054,0,0,0,.606.42,5.907,5.907,0,0,0,.856.324q.479.144.973.314t.973.388a3.411,3.411,0,0,1,.856.553,2.434,2.434,0,0,1,.835,1.93,3.683,3.683,0,0,1-.282,1.452,3.138,3.138,0,0,1-.835,1.149,3.936,3.936,0,0,1-1.367.755,6.406,6.406,0,0,1-2.978.17,6.493,6.493,0,0,1-1.032-.282,5.7,5.7,0,0,1-.915-.425,4.441,4.441,0,0,1-.739-.532l.606-1a.857.857,0,0,1,.277-.276.774.774,0,0,1,.4-.1.851.851,0,0,1,.463.138q.218.138.505.3a4.494,4.494,0,0,0,.675.3,2.971,2.971,0,0,0,.984.138,2.555,2.555,0,0,0,.8-.112,1.7,1.7,0,0,0,.553-.292,1.1,1.1,0,0,0,.319-.42,1.261,1.261,0,0,0,.1-.494.882.882,0,0,0-.229-.628,2.011,2.011,0,0,0-.606-.425,5.857,5.857,0,0,0-.861-.324q-.484-.144-.989-.314a9.09,9.09,0,0,1-.989-.4,3.371,3.371,0,0,1-.862-.58,2.621,2.621,0,0,1-.606-.861,3.007,3.007,0,0,1-.229-1.234,3.144,3.144,0,0,1,.266-1.276,2.994,2.994,0,0,1,.782-1.058,3.881,3.881,0,0,1,1.287-.723,5.359,5.359,0,0,1,1.781-.271,5.455,5.455,0,0,1,2.053.372,4.639,4.639,0,0,1,1.542.978Z" transform="translate(-855.017 -36.045)" fill="#f90"/>
      <rect id="Rectangle_1752" data-name="Rectangle 1752" width="2.627" height="15.803" transform="translate(122.162)" fill="#f90"/>
      <path id="Path_2862" data-name="Path 2862" d="M1093.884,42.215a6.474,6.474,0,0,1,4.531-1.723,4.429,4.429,0,0,1,1.712.314,3.62,3.62,0,0,1,1.276.872,3.735,3.735,0,0,1,.792,1.335,5.129,5.129,0,0,1,.271,1.7v6.891h-1.191a1.2,1.2,0,0,1-.574-.112.774.774,0,0,1-.319-.452l-.234-.787a9.477,9.477,0,0,1-.808.654,4.779,4.779,0,0,1-.819.473,4.412,4.412,0,0,1-.909.292,5.245,5.245,0,0,1-1.069.1,4.193,4.193,0,0,1-1.276-.186,2.8,2.8,0,0,1-1.01-.558,2.5,2.5,0,0,1-.659-.925,3.279,3.279,0,0,1-.234-1.287,2.562,2.562,0,0,1,.138-.824,2.409,2.409,0,0,1,.452-.782,3.762,3.762,0,0,1,.814-.7,5.289,5.289,0,0,1,1.228-.574,10.627,10.627,0,0,1,1.7-.4,16.965,16.965,0,0,1,2.212-.186v-.638a2.389,2.389,0,0,0-.468-1.622,1.713,1.713,0,0,0-1.351-.526,3.208,3.208,0,0,0-1.058.149,4.365,4.365,0,0,0-.739.335q-.319.186-.58.335a1.147,1.147,0,0,1-.58.149.758.758,0,0,1-.468-.144,1.2,1.2,0,0,1-.308-.335Zm6.019,4.733a14.507,14.507,0,0,0-1.914.2,5.111,5.111,0,0,0-1.245.367,1.636,1.636,0,0,0-.67.521,1.289,1.289,0,0,0,.207,1.638,1.773,1.773,0,0,0,1.069.3,3.117,3.117,0,0,0,1.4-.292,4.151,4.151,0,0,0,1.154-.888Z" transform="translate(-966.724 -35.802)" fill="#f90"/>
      <path id="Path_2863" data-name="Path 2863" d="M1188.471,27.826a2.866,2.866,0,0,1-2.185-.8,3.1,3.1,0,0,1-.76-2.217V18.712h-1.117a.511.511,0,0,1-.362-.138.538.538,0,0,1-.149-.415V17.117l1.755-.287.553-2.978a.582.582,0,0,1,.2-.33.6.6,0,0,1,.383-.117h1.361V16.84h2.914v1.872h-2.914v5.913a1.175,1.175,0,0,0,.25.8.862.862,0,0,0,.686.287,1.234,1.234,0,0,0,.409-.058,2.229,2.229,0,0,0,.287-.122q.122-.064.218-.122a.365.365,0,0,1,.191-.059.3.3,0,0,1,.191.059.9.9,0,0,1,.16.175l.787,1.276a3.976,3.976,0,0,1-1.319.723,4.912,4.912,0,0,1-1.542.245" transform="translate(-1046.773 -11.852)" fill="#f90"/>
      <path id="Path_2864" data-name="Path 2864" d="M1257.029,46.724a5.161,5.161,0,0,0,.3,1.452,2.964,2.964,0,0,0,.617,1.01,2.416,2.416,0,0,0,.909.6,3.3,3.3,0,0,0,1.165.2,3.606,3.606,0,0,0,1.1-.149,5.157,5.157,0,0,0,.808-.33q.345-.181.606-.33a1.019,1.019,0,0,1,.505-.149.544.544,0,0,1,.489.245l.755.957a4.374,4.374,0,0,1-.978.856,5.487,5.487,0,0,1-1.133.553,6.2,6.2,0,0,1-1.2.292,8.617,8.617,0,0,1-1.186.085,5.83,5.83,0,0,1-2.116-.377,4.735,4.735,0,0,1-1.7-1.117,5.235,5.235,0,0,1-1.138-1.829,7.08,7.08,0,0,1-.415-2.526,6.04,6.04,0,0,1,.362-2.1,5.05,5.05,0,0,1,1.037-1.712,4.881,4.881,0,0,1,1.649-1.154,5.43,5.43,0,0,1,2.2-.425,5.342,5.342,0,0,1,1.9.33,4.154,4.154,0,0,1,1.5.962,4.466,4.466,0,0,1,.984,1.553,5.79,5.79,0,0,1,.356,2.1,1.706,1.706,0,0,1-.128.8.529.529,0,0,1-.489.207Zm5.009-1.585a3.163,3.163,0,0,0-.144-.963,2.289,2.289,0,0,0-.431-.792,2.007,2.007,0,0,0-.728-.537,2.5,2.5,0,0,0-1.026-.2,2.433,2.433,0,0,0-1.792.649,3.181,3.181,0,0,0-.835,1.84Z" transform="translate(-1109.12 -36.046)" fill="#f90"/>
    </g>
  </g>
</svg>
