<svg xmlns="http://www.w3.org/2000/svg" width="28" height="36" viewBox="0 0 28 36">
  <g id="Group_1153" data-name="Group 1153" transform="translate(-57.781 -0.08)">
    <g id="Group_1151" data-name="Group 1151">
      <path id="Path_2898" data-name="Path 2898" d="M77.231.08H60.5a2.736,2.736,0,0,0-2.72,2.75V33.37a2.734,2.734,0,0,0,2.75,2.71h22.54a2.727,2.727,0,0,0,2.71-2.75V8.63Zm7,33.25a1.282,1.282,0,0,1-1.2,1.2h-22.5a1.3,1.3,0,0,1-1.2-1.2V2.83a1.3,1.3,0,0,1,1.2-1.2h15.95V9.28h7.75Z" fill="#98a5af"/>
      <path id="Path_2899" data-name="Path 2899" d="M71.781,1.63" fill="#98a5af"/>
    </g>
    <g id="Group_1147" data-name="Group 1147">
      <g id="Rectangle_2015" data-name="Rectangle 2015">
        <rect id="Rectangle_2052" data-name="Rectangle 2052" width="1.5" height="3.421" transform="translate(62.06 19.87)" fill="#98a5af"/>
      </g>
      <g id="Rectangle_2016" data-name="Rectangle 2016">
        <rect id="Rectangle_2053" data-name="Rectangle 2053" width="1.5" height="3.421" transform="translate(79.005 19.87)" fill="#98a5af"/>
      </g>
      <g id="Rectangle_2017" data-name="Rectangle 2017">
        <rect id="Rectangle_2054" data-name="Rectangle 2054" width="1.5" height="8.6" transform="translate(65.448 17.325)" fill="#98a5af"/>
      </g>
      <g id="Rectangle_2018" data-name="Rectangle 2018">
        <rect id="Rectangle_2055" data-name="Rectangle 2055" width="1.5" height="8.6" transform="translate(75.615 17.325)" fill="#98a5af"/>
      </g>
      <g id="Rectangle_2019" data-name="Rectangle 2019">
        <rect id="Rectangle_2056" data-name="Rectangle 2056" width="1.5" height="14.965" transform="translate(68.838 13.17)" fill="#98a5af"/>
      </g>
      <g id="Rectangle_2020" data-name="Rectangle 2020">
        <rect id="Rectangle_2057" data-name="Rectangle 2057" width="1.5" height="15.103" transform="translate(72.227 14.791)" fill="#98a5af"/>
      </g>
    </g>
  </g>
</svg>
