<svg xmlns="http://www.w3.org/2000/svg" width="32.656" height="29.547" viewBox="0 0 32.656 29.547">
  <path id="translate_FILL0_wght700_GRAD0_opsz48" d="M16.816,32.4l6.706-17.742h3L33.406,32.4H30.192l-1.5-4.68H21.6L19.854,32.4ZM22.4,25.133h5.239l-2.585-7.16h-.07ZM5.151,27.962,3.16,25.936,10.7,18.392a27.543,27.543,0,0,1-2.515-3.266A26.458,26.458,0,0,1,6.3,11.721H9.516a16.216,16.216,0,0,0,1.362,2.305q.768,1.083,1.711,2.235a20.242,20.242,0,0,0,2.794-3.615A26.87,26.87,0,0,0,17.3,8.752H.75V5.784H11.088V2.85h2.969V5.784h10.3V8.752H20.239a29.159,29.159,0,0,1-2.2,5.012,25.837,25.837,0,0,1-3.318,4.663l3.632,3.667L17.3,25.063l-4.75-4.505Z" transform="translate(-0.75 -2.85)" fill="#666"/>
</svg>
