<svg xmlns="http://www.w3.org/2000/svg" xmlns:xlink="http://www.w3.org/1999/xlink" width="129.163" height="26.541" viewBox="0 0 129.163 26.541">
  <defs>
    <linearGradient id="linear-gradient" x1="-0.014" y1="0.495" x2="1.006" y2="0.508" gradientUnits="objectBoundingBox">
      <stop offset="0" stop-color="#3a5ff7"/>
      <stop offset="1" stop-color="#45b6ff"/>
    </linearGradient>
    <clipPath id="clip-path">
      <rect id="Rectangle_1755" data-name="Rectangle 1755" width="129.163" height="26.541" fill="none"/>
    </clipPath>
    <clipPath id="clip-path-2">
      <path id="Path_2868" data-name="Path 2868" d="M11.617,0A11.789,11.789,0,0,0,0,11.954,11.792,11.792,0,0,0,11.617,23.91H23.236V11.954A11.79,11.79,0,0,0,11.617,0Z" fill="url(#linear-gradient)"/>
    </clipPath>
  </defs>
  <g id="Group_1134" data-name="Group 1134" transform="translate(0 0)">
    <g id="Group_1131" data-name="Group 1131" transform="translate(0 0)">
      <g id="Group_1130" data-name="Group 1130" clip-path="url(#clip-path)">
        <path id="Path_2867" data-name="Path 2867" d="M31.426,4.765h2.8V18.35h6.689v2.606H31.427ZM41.64,9.979h2.669V20.956H41.641Zm-.377-3.728a1.582,1.582,0,0,1,.466-1.143,1.634,1.634,0,0,1,1.222-.5,1.675,1.675,0,0,1,1.223.482,1.493,1.493,0,0,1,.511,1.166,1.566,1.566,0,0,1-.511,1.189,1.718,1.718,0,0,1-1.223.457,1.62,1.62,0,0,1-1.688-1.646m5,3.728h2.534V11.74h.045a3.723,3.723,0,0,1,1.155-1.418A3.305,3.305,0,0,1,52.1,9.7a4.006,4.006,0,0,1,1.8.366,3.413,3.413,0,0,1,1.223.96,3.7,3.7,0,0,1,.667,1.373,6.524,6.524,0,0,1,.2,1.624v6.929H53.325V15.4c0-.306-.015-.641-.044-1.007a3.431,3.431,0,0,0-.245-1.052,1.8,1.8,0,0,0-.579-.823,1.615,1.615,0,0,0-1.088-.343,2.564,2.564,0,0,0-1.134.229,2.316,2.316,0,0,0-.755.618,2.583,2.583,0,0,0-.423.892,4.056,4.056,0,0,0-.133,1.051v5.992H46.258Zm22.63,0v9.994a9.3,9.3,0,0,1-.356,2.675,5.07,5.07,0,0,1-1.11,2.036,4.822,4.822,0,0,1-1.868,1.3,7.186,7.186,0,0,1-2.69.457,10.035,10.035,0,0,1-2.822-.389,6.251,6.251,0,0,1-2.467-1.419l1.6-2.241a6.508,6.508,0,0,0,1.667,1.167,4.63,4.63,0,0,0,2,.411,4.1,4.1,0,0,0,1.6-.275,2.515,2.515,0,0,0,1.044-.754,2.734,2.734,0,0,0,.555-1.167,5.748,5.748,0,0,0,.178-1.487v-.8h-.045a3.6,3.6,0,0,1-1.533,1.213,5.141,5.141,0,0,1-1.955.389,5.306,5.306,0,0,1-2.179-.435,5.514,5.514,0,0,1-1.688-1.212,5.338,5.338,0,0,1-1.068-1.783,6.343,6.343,0,0,1-.378-2.2,7.007,7.007,0,0,1,.356-2.264,5.27,5.27,0,0,1,1.044-1.829,4.858,4.858,0,0,1,1.645-1.213A5.193,5.193,0,0,1,62.644,9.7a4.929,4.929,0,0,1,2.111.457,3.474,3.474,0,0,1,1.557,1.464h.044V9.979Zm-5.69,2.2a3.2,3.2,0,0,0-1.289.251,2.827,2.827,0,0,0-1,.663,3.07,3.07,0,0,0-.644,1.029,3.763,3.763,0,0,0-.223,1.326,3.388,3.388,0,0,0,.223,1.236,3.3,3.3,0,0,0,.667,1.006,3.109,3.109,0,0,0,2.245.937,3.243,3.243,0,0,0,1.312-.251,2.862,2.862,0,0,0,1.645-1.692,3.637,3.637,0,0,0,.221-1.281,3.259,3.259,0,0,0-.844-2.333,3.033,3.033,0,0,0-2.312-.891m6.154-2.2h2.912l2.845,7.684h.044L78.02,9.979h2.735l-4.2,10.977H73.709Zm18.526,9.469h-.066a3.537,3.537,0,0,1-1.467,1.371,4.58,4.58,0,0,1-1.956.412,5.161,5.161,0,0,1-1.444-.205,3.98,3.98,0,0,1-1.244-.619,3.187,3.187,0,0,1-.867-1.028,2.987,2.987,0,0,1-.334-1.441,3.316,3.316,0,0,1,.311-1.51,3.009,3.009,0,0,1,.822-1.051,4.19,4.19,0,0,1,1.223-.687,7.451,7.451,0,0,1,1.423-.365,10.126,10.126,0,0,1,1.511-.16q.71-.044,1.423-.046h.666v-.3a1.769,1.769,0,0,0-.689-1.532,2.8,2.8,0,0,0-1.755-.526,3.9,3.9,0,0,0-1.578.319,3.857,3.857,0,0,0-1.268.823l-1.4-1.44a5.163,5.163,0,0,1,2.067-1.349A7.537,7.537,0,0,1,85.723,9.7a5.824,5.824,0,0,1,1.912.274,4.019,4.019,0,0,1,1.289.663,2.793,2.793,0,0,1,.778.962,3.779,3.779,0,0,1,.4,1.075,5.563,5.563,0,0,1,.156,1.075c.014.335.022.633.022.891v6.312h-2.4Zm-.154-3.408h-.556q-.556,0-1.244.046a6.017,6.017,0,0,0-1.312.229,2.7,2.7,0,0,0-1.023.5,1.079,1.079,0,0,0-.423.915,1.321,1.321,0,0,0,.156.663,1.728,1.728,0,0,0,.444.434,1.94,1.94,0,0,0,.6.275,3.328,3.328,0,0,0,.667.069,2.714,2.714,0,0,0,2.023-.663,2.543,2.543,0,0,0,.668-1.853ZM92.682,4.765h1.889l9.58,14.179h.044V4.766h1.467V20.957h-1.889L94.194,6.778H94.15V20.957H92.682Zm24.879,14.2a4.522,4.522,0,0,1-1.934,1.738,5.906,5.906,0,0,1-2.511.526,5.313,5.313,0,0,1-2.133-.412,4.862,4.862,0,0,1-1.645-1.142,5.412,5.412,0,0,1-1.068-1.762,6.9,6.9,0,0,1-.355-2.264,6.219,6.219,0,0,1,.378-2.2,5.147,5.147,0,0,1,1.068-1.738,4.982,4.982,0,0,1,3.689-1.6,4.655,4.655,0,0,1,2.068.435,4.227,4.227,0,0,1,1.511,1.121,4.581,4.581,0,0,1,.934,1.578,5.475,5.475,0,0,1,.31,1.806v.962h-8.623a5.193,5.193,0,0,0,.156,1.12,4.163,4.163,0,0,0,.622,1.3,3.945,3.945,0,0,0,1.178,1.1,3.683,3.683,0,0,0,1.933.457,4.2,4.2,0,0,0,1.979-.5,3.6,3.6,0,0,0,1.466-1.371Zm-1.023-4.185a3.1,3.1,0,0,0-.289-1.327,3.187,3.187,0,0,0-.756-1.075,3.325,3.325,0,0,0-1.133-.754,3.47,3.47,0,0,0-1.378-.274,3.386,3.386,0,0,0-1.823.456,4.047,4.047,0,0,0-1.133,1.053,4.162,4.162,0,0,0-.6,1.166,3,3,0,0,0-.178.754Zm5.815.457-3.667-4.849H120.4l2.845,4,2.822-4h1.667l-3.622,4.849,4.4,5.717h-1.734L123.2,16.177l-3.511,4.779h-1.6Z" transform="translate(0.652 0.095)" fill="#262c39"/>
      </g>
    </g>
    <g id="Group_1133" data-name="Group 1133" transform="translate(0 0)">
      <g id="Group_1132" data-name="Group 1132" clip-path="url(#clip-path-2)">
        <rect id="Rectangle_1756" data-name="Rectangle 1756" width="33.338" height="33.312" transform="translate(-11.937 12.617) rotate(-46.587)" fill="url(#linear-gradient)"/>
      </g>
    </g>
  </g>
</svg>
