<svg xmlns="http://www.w3.org/2000/svg" width="140.779" height="21.967" viewBox="0 0 140.779 21.967">
  <g id="Microsoft_Bing_logo" transform="translate(0 0)">
    <g id="Group_1126" data-name="Group 1126" transform="translate(0 0)">
      <path id="Path_2843" data-name="Path 2843" d="M10.388,0H0V10.388H10.388Z" fill="#f26522"/>
      <path id="Path_2844" data-name="Path 2844" d="M22.918,0H12.53V10.388H22.918Z" transform="translate(-1.062)" fill="#8dc63f"/>
      <path id="Path_2845" data-name="Path 2845" d="M10.388,12.53H0V22.918H10.388Z" transform="translate(0 -1.062)" fill="#00aeef"/>
      <path id="Path_2846" data-name="Path 2846" d="M22.918,12.53H12.53V22.918H22.918Z" transform="translate(-1.062 -1.062)" fill="#ffc20e"/>
    </g>
    <g id="Group_1127" data-name="Group 1127" transform="translate(28.408 3.391)">
      <path id="Path_2847" data-name="Path 2847" d="M45.235,4.68V17.795h-2.27V7.517H42.92L38.865,17.795h-1.51L33.172,7.517h-.027V17.795H31.04V4.68h3.267l3.762,9.72h.055l3.981-9.72Zm1.9,1.007a1.22,1.22,0,0,1,.4-.924,1.368,1.368,0,0,1,2.3.915,1.192,1.192,0,0,1-.394.915,1.381,1.381,0,0,1-.961.366,1.327,1.327,0,0,1-.952-.375,1.186,1.186,0,0,1-.394-.906ZM49.582,8.4v9.4H47.368V8.4ZM56.3,16.184a3.15,3.15,0,0,0,1.08-.22,4.556,4.556,0,0,0,1.1-.6v2.05a4.024,4.024,0,0,1-1.19.458,6.589,6.589,0,0,1-1.483.156,4.441,4.441,0,0,1-4.668-4.658,5.344,5.344,0,0,1,1.327-3.734,4.782,4.782,0,0,1,3.752-1.464,5.144,5.144,0,0,1,2.27.531v2.114a4.576,4.576,0,0,0-1.043-.577,3.038,3.038,0,0,0-1.1-.21,2.751,2.751,0,0,0-2.105.851,3.242,3.242,0,0,0-.815,2.3A3.074,3.074,0,0,0,54.2,15.4a2.788,2.788,0,0,0,2.105.787ZM64.784,8.24a2.325,2.325,0,0,1,.833.128V10.61a2.343,2.343,0,0,0-1.318-.366,1.7,1.7,0,0,0-1.373.7,3.341,3.341,0,0,0-.567,2.105V17.8H60.144V8.386h2.215V9.869H62.4a2.591,2.591,0,0,1,.915-1.2,2.454,2.454,0,0,1,1.464-.439Zm.952,5a5.091,5.091,0,0,1,1.318-3.7,4.874,4.874,0,0,1,3.661-1.364,4.538,4.538,0,0,1,3.441,1.309,4.923,4.923,0,0,1,1.236,3.551,4.978,4.978,0,0,1-1.318,3.633,4.777,4.777,0,0,1-3.588,1.355,4.714,4.714,0,0,1-3.469-1.281,4.732,4.732,0,0,1-1.281-3.505Zm2.306-.073a3.357,3.357,0,0,0,.668,2.251,2.369,2.369,0,0,0,1.913.769,2.236,2.236,0,0,0,1.83-.769,3.59,3.59,0,0,0,.641-2.306,3.447,3.447,0,0,0-.659-2.288,2.27,2.27,0,0,0-1.83-.778,2.331,2.331,0,0,0-1.885.805,3.511,3.511,0,0,0-.677,2.316Zm10.644-2.3a.929.929,0,0,0,.3.75,5,5,0,0,0,1.336.677,4.611,4.611,0,0,1,1.858,1.19,2.492,2.492,0,0,1,.531,1.611A2.6,2.6,0,0,1,81.7,17.227a4.309,4.309,0,0,1-2.755.805,6.635,6.635,0,0,1-2.5-.513V15.351a5.63,5.63,0,0,0,1.3.668,3.8,3.8,0,0,0,1.263.247,2.277,2.277,0,0,0,1.107-.21.759.759,0,0,0,.357-.7,1,1,0,0,0-.366-.778,5.749,5.749,0,0,0-1.409-.732,4.342,4.342,0,0,1-1.739-1.153,2.472,2.472,0,0,1-.513-1.62,2.583,2.583,0,0,1,1.007-2.1,4.062,4.062,0,0,1,2.627-.824,6.461,6.461,0,0,1,2.132.4v2.105a4.872,4.872,0,0,0-1.025-.513,3.423,3.423,0,0,0-1.162-.21,1.735,1.735,0,0,0-.979.247.787.787,0,0,0-.366.686Zm4.979,2.37a5.091,5.091,0,0,1,1.318-3.7,4.851,4.851,0,0,1,3.661-1.364,4.524,4.524,0,0,1,3.441,1.309,4.963,4.963,0,0,1,1.236,3.551A4.978,4.978,0,0,1,92,16.669a4.777,4.777,0,0,1-3.579,1.355,4.721,4.721,0,0,1-3.478-1.281,4.732,4.732,0,0,1-1.281-3.505Zm2.306-.073a3.357,3.357,0,0,0,.668,2.251,2.376,2.376,0,0,0,1.922.769,2.236,2.236,0,0,0,1.83-.769,3.59,3.59,0,0,0,.641-2.306,3.5,3.5,0,0,0-.659-2.288,2.27,2.27,0,0,0-1.83-.778,2.35,2.35,0,0,0-1.895.805,3.478,3.478,0,0,0-.677,2.316Zm14.7-2.956H97.375v7.6H95.133v-7.6H93.559V8.4h1.574V7.087A3.258,3.258,0,0,1,98.565,3.71a5.293,5.293,0,0,1,.714.046,2.7,2.7,0,0,1,.549.128V5.8a2.215,2.215,0,0,0-1.007-.247,1.379,1.379,0,0,0-1.08.43,1.928,1.928,0,0,0-.366,1.281V8.4h3.295V6.29l2.215-.677V8.4h2.251v1.8h-2.242V14.6a1.872,1.872,0,0,0,.32,1.236,1.254,1.254,0,0,0,.988.357,2.151,2.151,0,0,0,.934-.311v1.83a2.291,2.291,0,0,1-.7.22,4.974,4.974,0,0,1-.97.092,2.756,2.756,0,0,1-2.1-.732,3.234,3.234,0,0,1-.7-2.251V10.208Z" transform="translate(-31.04 -3.705)" fill="#737373"/>
      <path id="Path_2848" data-name="Path 2848" d="M117.5,17.981V5.012h4.118a4.871,4.871,0,0,1,2.984.824,2.558,2.558,0,0,1,1.1,2.142,3.118,3.118,0,0,1-.622,1.922,3.368,3.368,0,0,1-1.73,1.153v.037a3.3,3.3,0,0,1,2.132,1,2.972,2.972,0,0,1,.805,2.169,3.258,3.258,0,0,1-1.309,2.691,5.245,5.245,0,0,1-3.313,1.034Zm2.151-11.239V10.43h1.391a2.735,2.735,0,0,0,1.757-.522,1.856,1.856,0,0,0,.641-1.5c0-1.117-.741-1.666-2.224-1.666Zm0,5.418v4.1h1.83a2.8,2.8,0,0,0,1.858-.549A1.916,1.916,0,0,0,124,14.174c0-1.345-.924-2.013-2.791-2.013Zm9.262-5.381a1.271,1.271,0,0,1-.879-.339,1.083,1.083,0,0,1-.366-.851,1.115,1.115,0,0,1,.366-.86,1.252,1.252,0,0,1,.888-.339,1.274,1.274,0,0,1,.9.339,1.172,1.172,0,0,1,0,1.7,1.288,1.288,0,0,1-.906.348Zm1.043,11.2h-2.1V8.719h2.1Zm10.388,0h-2.1V12.764c0-1.739-.613-2.6-1.83-2.6a2.023,2.023,0,0,0-1.592.732,2.654,2.654,0,0,0-.622,1.8v5.281h-2.1V8.719h2.1v1.538h.037a3.3,3.3,0,0,1,3-1.757,2.788,2.788,0,0,1,2.306.988,4.386,4.386,0,0,1,.8,2.837Zm10.388-.741c0,3.4-1.7,5.1-5.125,5.1a7.642,7.642,0,0,1-3.158-.6V19.811a5.76,5.76,0,0,0,2.883.869c2.2,0,3.3-1.08,3.3-3.249V16.425H148.6a3.652,3.652,0,0,1-5.857.54,5.025,5.025,0,0,1-1.034-3.322,5.8,5.8,0,0,1,1.117-3.752A3.691,3.691,0,0,1,145.881,8.5,2.957,2.957,0,0,1,148.6,10h.037V8.719h2.1Zm-2.078-3.5V12.535A2.352,2.352,0,0,0,148,10.87a2.1,2.1,0,0,0-1.611-.7,2.227,2.227,0,0,0-1.867.888,3.972,3.972,0,0,0-.677,2.462,3.492,3.492,0,0,0,.641,2.187,2.083,2.083,0,0,0,1.721.815,2.237,2.237,0,0,0,1.766-.778,2.947,2.947,0,0,0,.677-2.013Z" transform="translate(-38.37 -3.763)" fill="#737373"/>
    </g>
  </g>
</svg>
