<svg xmlns="http://www.w3.org/2000/svg" width="199.281" height="23.321" viewBox="0 0 199.281 23.321">
  <g id="Group_1142" data-name="Group 1142" transform="translate(-1052.25 -576)">
    <g id="Microsoft_Bing_logo" transform="translate(1052.25 576.256)">
      <g id="Group_1127" data-name="Group 1127" transform="translate(29.417 3.511)">
        <path id="Path_2847" data-name="Path 2847" d="M45.739,4.714V18.295h-2.35V7.652h-.047l-4.2,10.643H37.579L33.248,7.652H33.22V18.295H31.04V4.714h3.383l3.9,10.065h.057L42.5,4.714ZM47.71,5.757a1.263,1.263,0,0,1,.417-.957,1.417,1.417,0,0,1,2.379.948,1.234,1.234,0,0,1-.408.948,1.43,1.43,0,0,1-1,.379,1.374,1.374,0,0,1-.986-.389,1.229,1.229,0,0,1-.408-.938Zm2.53,2.805v9.733H47.947V8.562ZM57.2,16.627a3.262,3.262,0,0,0,1.118-.227,4.718,4.718,0,0,0,1.137-.625V17.9a4.167,4.167,0,0,1-1.232.474,6.823,6.823,0,0,1-1.535.161,4.6,4.6,0,0,1-4.833-4.824,5.534,5.534,0,0,1,1.374-3.867,4.952,4.952,0,0,1,3.886-1.516,5.326,5.326,0,0,1,2.35.55v2.189a4.739,4.739,0,0,0-1.08-.6,3.146,3.146,0,0,0-1.137-.218,2.849,2.849,0,0,0-2.18.881,3.357,3.357,0,0,0-.843,2.379,3.183,3.183,0,0,0,.806,2.3,2.887,2.887,0,0,0,2.18.815ZM65.982,8.4a2.407,2.407,0,0,1,.862.133v2.322a2.426,2.426,0,0,0-1.365-.379,1.76,1.76,0,0,0-1.422.72,3.46,3.46,0,0,0-.588,2.18V18.3H61.177V8.552H63.47v1.535h.038a2.683,2.683,0,0,1,.948-1.241,2.541,2.541,0,0,1,1.516-.455Zm.986,5.174a5.271,5.271,0,0,1,1.365-3.829,5.047,5.047,0,0,1,3.791-1.412A4.7,4.7,0,0,1,75.686,9.69a5.1,5.1,0,0,1,1.279,3.677A5.154,5.154,0,0,1,75.6,17.129a4.947,4.947,0,0,1-3.715,1.4A4.881,4.881,0,0,1,68.294,17.2a4.9,4.9,0,0,1-1.327-3.63Zm2.388-.076a3.476,3.476,0,0,0,.692,2.331,2.453,2.453,0,0,0,1.981.8,2.316,2.316,0,0,0,1.9-.8,3.718,3.718,0,0,0,.663-2.388,3.569,3.569,0,0,0-.682-2.369,2.35,2.35,0,0,0-1.9-.806,2.414,2.414,0,0,0-1.952.834,3.635,3.635,0,0,0-.7,2.4Zm11.022-2.379a.962.962,0,0,0,.313.777,5.175,5.175,0,0,0,1.384.7A4.775,4.775,0,0,1,84,13.831a2.58,2.58,0,0,1,.55,1.668A2.691,2.691,0,0,1,83.5,17.707a4.462,4.462,0,0,1-2.853.834,6.871,6.871,0,0,1-2.587-.531V15.764a5.83,5.83,0,0,0,1.346.692,3.931,3.931,0,0,0,1.308.256,2.357,2.357,0,0,0,1.147-.218.786.786,0,0,0,.37-.73,1.038,1.038,0,0,0-.379-.806,5.953,5.953,0,0,0-1.459-.758,4.5,4.5,0,0,1-1.8-1.194,2.559,2.559,0,0,1-.531-1.677A2.675,2.675,0,0,1,79.1,9.159a4.206,4.206,0,0,1,2.72-.853,6.691,6.691,0,0,1,2.208.417V10.9a5.045,5.045,0,0,0-1.061-.531,3.544,3.544,0,0,0-1.2-.218,1.8,1.8,0,0,0-1.014.256.815.815,0,0,0-.379.711Zm5.155,2.455A5.271,5.271,0,0,1,86.9,9.747a5.023,5.023,0,0,1,3.791-1.412A4.685,4.685,0,0,1,94.251,9.69a5.139,5.139,0,0,1,1.279,3.677,5.154,5.154,0,0,1-1.365,3.762,4.947,4.947,0,0,1-3.706,1.4,4.889,4.889,0,0,1-3.6-1.327,4.9,4.9,0,0,1-1.327-3.63Zm2.388-.076a3.476,3.476,0,0,0,.692,2.331,2.46,2.46,0,0,0,1.99.8,2.316,2.316,0,0,0,1.9-.8,3.718,3.718,0,0,0,.663-2.388,3.622,3.622,0,0,0-.682-2.369,2.35,2.35,0,0,0-1.9-.806,2.433,2.433,0,0,0-1.962.834,3.6,3.6,0,0,0-.7,2.4Zm15.22-3.061H99.729V18.3H97.407V10.438h-1.63V8.562h1.63V7.207a3.374,3.374,0,0,1,3.554-3.5,5.48,5.48,0,0,1,.739.047,2.8,2.8,0,0,1,.569.133V5.87a2.293,2.293,0,0,0-1.042-.256,1.428,1.428,0,0,0-1.118.445,2,2,0,0,0-.379,1.327V8.571h3.412V6.382l2.293-.7v2.89h2.331v1.867h-2.322v4.549a1.938,1.938,0,0,0,.332,1.279,1.3,1.3,0,0,0,1.024.37,2.227,2.227,0,0,0,.967-.322v1.9a2.372,2.372,0,0,1-.72.227,5.151,5.151,0,0,1-1,.095,2.854,2.854,0,0,1-2.17-.758,3.349,3.349,0,0,1-.72-2.331v-5Z" transform="translate(-31.04 -3.705)" fill="#737373"/>
      </g>
    </g>
    <g id="icons8-microsoft-translator" transform="translate(1046.25 570)">
      <path id="Path_2881" data-name="Path 2881" d="M24.139,29.321H11.183A5.183,5.183,0,0,1,6,24.139V11.183A5.183,5.183,0,0,1,11.183,6H24.139a5.183,5.183,0,0,1,5.183,5.183V24.139A5.183,5.183,0,0,1,24.139,29.321Z" fill="#107c10"/>
      <path id="Path_2882" data-name="Path 2882" d="M26.519,17.3c.424-.034,2.5-.2,3.332-.146a.5.5,0,0,1,.67-.041,1.7,1.7,0,0,0,.481.3c.168.071.2.361-.1.387a3.621,3.621,0,0,0-1.666.785c.128.014.351.21.1.472a13.883,13.883,0,0,0,1.446-.017.438.438,0,0,1,.723-.06,2.22,2.22,0,0,0,.517.386c.14.056.154.314-.051.316a24.627,24.627,0,0,0-2.841.1A3.771,3.771,0,0,1,28.466,22a.47.47,0,0,1-.714.041c-.253-.244-.557-.371-.859-.626a.267.267,0,0,1,.262-.464,3.763,3.763,0,0,0,1.019.18,4.254,4.254,0,0,0,.043-1.265c-.466-.032-1.96.443-2.318.457s-.689-.4-.814-.542-.159-.38.2-.419,2.429-.2,2.834-.206a2.768,2.768,0,0,0-.064-.649c-.054-.223.206-.606.652-.249a1.9,1.9,0,0,1,.588-.529,6.357,6.357,0,0,0-1.735.258.731.731,0,0,1-.612-.019,4.018,4.018,0,0,0-.532-.33C26.27,17.568,26.235,17.322,26.519,17.3Z" transform="translate(-6.691 -3.874)" fill="#fff"/>
      <path id="Path_2883" data-name="Path 2883" d="M26.5,15.119a35.815,35.815,0,0,1,4.384-.047c-.067.188-.1.611.213.611.345,0,.475-.321.852-.49s.81-.076.828-.363c.016-.249-.254-.246-.493-.417-.279-.2-.258-.441-.529-.475a.4.4,0,0,0-.4.322,33.905,33.905,0,0,0-4.877.282c.014-.369-.137-.86-.474-.86s-.271.516-.459.967c-.2.49-.508.461-.535.832-.02.276.323.35.748.35C26.078,15.831,26.373,15.616,26.5,15.119Z" transform="translate(-6.691 -2.705)" fill="#fff"/>
      <path id="Path_2884" data-name="Path 2884" d="M29.349,11.726c.132-.26.609-.032,1.009.175s.693.286.7.667a.648.648,0,0,1-.731.562c-.325-.095-.246-.435-.511-.776C29.636,12.123,29.232,11.956,29.349,11.726Z" transform="translate(-8.216 -1.976)" fill="#fff"/>
      <path id="Path_2885" data-name="Path 2885" d="M20.126,13.6a5.032,5.032,0,0,0-5.289.233L13,12v5.83h5.83l-2.08-2.08A4.717,4.717,0,0,1,20.126,13.6Z" transform="translate(-2.465 -2.113)" fill="#fff"/>
      <path id="Path_2886" data-name="Path 2886" d="M24,31.226a5.032,5.032,0,0,0,5.289-.233l1.837,1.837V27H25.3l2.08,2.08A5.007,5.007,0,0,1,24,31.226Z" transform="translate(-6.339 -7.396)" fill="#fff"/>
      <path id="Path_2887" data-name="Path 2887" d="M18.83,31.126a28.222,28.222,0,0,1-.14-4.986,2.043,2.043,0,0,0-2.114-2.133,8.308,8.308,0,0,0-2.589.344l.119,1.055a4.307,4.307,0,0,1,1.293-.352c1.153-.067,2.144.257,2.094,1.251-.008.215-.007.439-.01.659l-.008-.016c-1.027-.43-4.423-.624-4.476,2.335-.019,1.907,1.466,2.076,2.376,2.056a3.51,3.51,0,0,0,2.216-.836c.014.24.027.375.042.621ZM14.27,29.254c0-1.878,2.5-1.8,3.253-1.454.009.643.032,1.307.067,1.994C15.474,30.947,14.27,30.14,14.27,29.254Z" transform="translate(-2.465 -6.339)" fill="#fff"/>
    </g>
    <path id="Path_2888" data-name="Path 2888" d="M10.477-12.094H6.545V-.337H4.274V-12.094H.352v-1.928H10.477ZM16.308-8a1.835,1.835,0,0,0-1.155-.315,1.977,1.977,0,0,0-1.641.888,3.969,3.969,0,0,0-.658,2.414V-.337H10.639V-10.11h2.214V-8.1h.038a3.4,3.4,0,0,1,1-1.608,2.251,2.251,0,0,1,1.5-.577,1.866,1.866,0,0,1,.916.181ZM25.373-.337H23.226V-1.864h-.038A3.233,3.233,0,0,1,20.22-.108a3.126,3.126,0,0,1-2.257-.783,2.737,2.737,0,0,1-.816-2.071q0-2.767,3.187-3.226l2.9-.41q0-2.09-1.985-2.09a4.715,4.715,0,0,0-3.149,1.2V-9.422a6.868,6.868,0,0,1,3.569-.916q3.7,0,3.7,3.645Zm-2.138-4.8-2.052.286a3.252,3.252,0,0,0-1.436.463A1.352,1.352,0,0,0,19.266-3.2a1.3,1.3,0,0,0,.444,1.016,1.718,1.718,0,0,0,1.188.4A2.192,2.192,0,0,0,22.573-2.5a2.521,2.521,0,0,0,.663-1.789Zm13.542,4.8H34.563V-5.844q0-2.739-1.937-2.739a2.115,2.115,0,0,0-1.67.759A2.814,2.814,0,0,0,30.3-5.911V-.337H28.074V-10.11H30.3v1.622h.038A3.483,3.483,0,0,1,33.5-10.339,2.951,2.951,0,0,1,35.938-9.3a4.649,4.649,0,0,1,.84,2.992Zm2.09-.305V-2.695a4.417,4.417,0,0,0,2.739.945q2,0,2-1.183a.933.933,0,0,0-.172-.568,1.64,1.64,0,0,0-.463-.415,3.639,3.639,0,0,0-.687-.324q-.4-.143-.883-.324a9.345,9.345,0,0,1-1.083-.506,3.272,3.272,0,0,1-.8-.606,2.287,2.287,0,0,1-.482-.768,2.829,2.829,0,0,1-.162-1,2.316,2.316,0,0,1,.334-1.245,2.9,2.9,0,0,1,.9-.907,4.3,4.3,0,0,1,1.279-.553,5.854,5.854,0,0,1,1.479-.186,6.724,6.724,0,0,1,2.424.41v1.937A4.086,4.086,0,0,0,42.923-8.7a3.091,3.091,0,0,0-.759.086,1.958,1.958,0,0,0-.577.239,1.174,1.174,0,0,0-.372.367.877.877,0,0,0-.134.472A1.009,1.009,0,0,0,41.215-7a1.213,1.213,0,0,0,.4.386,3.421,3.421,0,0,0,.63.305q.367.138.845.3a12.339,12.339,0,0,1,1.131.525,3.822,3.822,0,0,1,.854.606,2.376,2.376,0,0,1,.544.783,2.657,2.657,0,0,1,.191,1.055,2.41,2.41,0,0,1-.344,1.3,2.864,2.864,0,0,1-.916.916,4.288,4.288,0,0,1-1.322.539,6.866,6.866,0,0,1-1.579.177A6.654,6.654,0,0,1,38.867-.643Zm11.261.305H47.9V-14.8h2.224Zm10.383,0H58.364V-1.864h-.038A3.233,3.233,0,0,1,55.358-.108,3.126,3.126,0,0,1,53.1-.891a2.737,2.737,0,0,1-.816-2.071q0-2.767,3.187-3.226l2.9-.41q0-2.09-1.985-2.09a4.715,4.715,0,0,0-3.149,1.2V-9.422a6.868,6.868,0,0,1,3.569-.916q3.7,0,3.7,3.645Zm-2.138-4.8-2.052.286a3.252,3.252,0,0,0-1.436.463A1.352,1.352,0,0,0,54.4-3.2a1.3,1.3,0,0,0,.444,1.016,1.718,1.718,0,0,0,1.188.4A2.192,2.192,0,0,0,57.71-2.5a2.521,2.521,0,0,0,.663-1.789Zm9.992,4.7a3.837,3.837,0,0,1-1.708.324q-2.844,0-2.844-2.729V-8.373H62.181V-10.11h1.632v-2.262L66.027-13v2.892h2.338v1.737H66.027v4.886a1.925,1.925,0,0,0,.315,1.241,1.307,1.307,0,0,0,1.05.372,1.522,1.522,0,0,0,.973-.324Zm6.127.334a4.844,4.844,0,0,1-3.612-1.369,4.947,4.947,0,0,1-1.35-3.631,5.147,5.147,0,0,1,1.408-3.846,5.176,5.176,0,0,1,3.793-1.384A4.688,4.688,0,0,1,78.3-8.993a5.2,5.2,0,0,1,1.279,3.731A5.121,5.121,0,0,1,78.2-1.516,4.953,4.953,0,0,1,74.491-.108Zm.1-8.465a2.527,2.527,0,0,0-2.052.907,3.8,3.8,0,0,0-.754,2.5,3.575,3.575,0,0,0,.763,2.419,2.564,2.564,0,0,0,2.042.883,2.433,2.433,0,0,0,2.009-.868,3.844,3.844,0,0,0,.7-2.472,3.9,3.9,0,0,0-.7-2.491A2.421,2.421,0,0,0,74.6-8.573ZM87.5-8a1.835,1.835,0,0,0-1.155-.315,1.977,1.977,0,0,0-1.641.888,3.969,3.969,0,0,0-.658,2.414V-.337H81.83V-10.11h2.214V-8.1h.038a3.4,3.4,0,0,1,1-1.608,2.251,2.251,0,0,1,1.5-.577,1.866,1.866,0,0,1,.916.181Z" transform="translate(1164.033 594.712)" fill="#737373"/>
  </g>
</svg>
