<svg xmlns="http://www.w3.org/2000/svg" xmlns:xlink="http://www.w3.org/1999/xlink" width="85.594" height="49.785" viewBox="0 0 85.594 49.785">
  <defs>
    <linearGradient id="linear-gradient" x1="0.559" y1="1" x2="0.541" gradientUnits="objectBoundingBox">
      <stop offset="0" stop-color="#006cff"/>
      <stop offset="1" stop-color="#0cf"/>
    </linearGradient>
  </defs>
  <g id="Group_2307" data-name="Group 2307" transform="translate(-599 -462.215)">
    <rect id="Rectangle_3710" data-name="Rectangle 3710" width="84" height="45" rx="4" transform="translate(599 467)" fill="rgba(81,180,255,0.23)"/>
    <g id="person_black_24dp" transform="translate(603.465 475.5)">
      <path id="Path_358" data-name="Path 358" d="M0,0H28V28H0Z" fill="none"/>
      <path id="Path_359" data-name="Path 359" d="M13.333,13.333A4.667,4.667,0,1,0,8.667,8.667,4.665,4.665,0,0,0,13.333,13.333Zm0,2.333C10.218,15.667,4,17.23,4,20.333v2.333H22.667V20.333C22.667,17.23,16.448,15.667,13.333,15.667Z" transform="translate(0.667 0.667)" fill="url(#linear-gradient)"/>
    </g>
    <rect id="Rectangle_3713" data-name="Rectangle 3713" width="34" height="4" rx="2" transform="translate(633 483.5)" fill="#9acfea" opacity="0.6"/>
    <rect id="Rectangle_3714" data-name="Rectangle 3714" width="20" height="4" rx="2" transform="translate(633 492.5)" fill="#9acfea" opacity="0.6"/>
    <path id="check_circle_FILL1_wght600_GRAD0_opsz48" d="M74.319,175.75l6.9-6.9-1.368-1.358-5.536,5.536-2.743-2.743-1.344,1.358Zm1.437,5.339a9.647,9.647,0,0,1-3.843-.773,9.907,9.907,0,0,1-5.271-5.269,9.992,9.992,0,0,1,0-7.709,9.844,9.844,0,0,1,2.118-3.139,10.117,10.117,0,0,1,3.147-2.115,9.939,9.939,0,0,1,7.714,0,9.871,9.871,0,0,1,5.254,5.25,9.941,9.941,0,0,1,0,7.716,10.12,10.12,0,0,1-2.115,3.149,9.846,9.846,0,0,1-3.137,2.119A9.694,9.694,0,0,1,75.757,181.089Z" transform="translate(598.939 300.911)" fill="#20abff"/>
  </g>
</svg>
