<svg xmlns="http://www.w3.org/2000/svg" width="20" height="20" viewBox="0 0 20 20">
  <path id="language_FILL0_wght400_GRAD0_opsz48" d="M14,24a9.8,9.8,0,0,1-3.925-.788A10.1,10.1,0,0,1,6.9,21.075a9.891,9.891,0,0,1-2.125-3.187A10.027,10.027,0,0,1,4,13.95a9.846,9.846,0,0,1,.775-3.913A9.964,9.964,0,0,1,6.9,6.875a9.76,9.76,0,0,1,3.175-2.113A10.078,10.078,0,0,1,14,4a10.078,10.078,0,0,1,3.925.763A9.76,9.76,0,0,1,21.1,6.875a9.964,9.964,0,0,1,2.125,3.162A9.846,9.846,0,0,1,24,13.95a10.027,10.027,0,0,1-.775,3.938A9.891,9.891,0,0,1,21.1,21.075a10.1,10.1,0,0,1-3.175,2.137A9.8,9.8,0,0,1,14,24Zm3.95-13.75H21.7a8.1,8.1,0,0,0-2.263-2.875A8.621,8.621,0,0,0,16.125,5.75a10.9,10.9,0,0,1,1.063,2A16.26,16.26,0,0,1,17.95,10.25Zm-6.35,0h4.85a9.751,9.751,0,0,0-.925-2.562A10.227,10.227,0,0,0,14,5.5a5.5,5.5,0,0,0-1.35,1.775A16.142,16.142,0,0,0,11.6,10.25ZM5.8,16.225H9.775q-.075-.675-.087-1.213T9.675,13.95q0-.625.025-1.113t.1-1.087h-4a7.29,7.29,0,0,0-.237,1.075A8.761,8.761,0,0,0,5.5,13.95a9.686,9.686,0,0,0,.063,1.162A7.047,7.047,0,0,0,5.8,16.225Zm6.075,6.025A11.952,11.952,0,0,1,10.8,20.2a14.976,14.976,0,0,1-.75-2.475H6.3a8.966,8.966,0,0,0,2.2,2.788A10.985,10.985,0,0,0,11.875,22.25ZM6.3,10.25h3.775a14.072,14.072,0,0,1,.7-2.412A11.869,11.869,0,0,1,11.85,5.775,8.248,8.248,0,0,0,6.3,10.25ZM14,22.55a8.321,8.321,0,0,0,1.462-2.063,12.417,12.417,0,0,0,.962-2.762H11.6a12.679,12.679,0,0,0,.938,2.7A8.52,8.52,0,0,0,14,22.55Zm-2.675-6.325H16.7q.1-.775.125-1.263t.025-1.012q0-.5-.025-.962T16.7,11.75H11.325q-.1.775-.125,1.238t-.025.962q0,.525.025,1.012T11.325,16.225Zm4.825,6A10.009,10.009,0,0,0,19.388,20.5,8.954,8.954,0,0,0,21.7,17.725H17.975a18.11,18.11,0,0,1-.763,2.45A11.348,11.348,0,0,1,16.15,22.225Zm2.05-6h4a7.047,7.047,0,0,0,.237-1.113A9.687,9.687,0,0,0,22.5,13.95a8.761,8.761,0,0,0-.062-1.125A7.29,7.29,0,0,0,22.2,11.75H18.225q.075.875.1,1.337t.025.863q0,.55-.038,1.038T18.2,16.225Z" transform="translate(-4 -4)" fill="#3c4043"/>
</svg>
