<svg xmlns="http://www.w3.org/2000/svg" width="24" height="17.041" viewBox="0 0 24 17.041">
  <path id="laptop_mac_FILL0_wght400_GRAD0_opsz40" d="M1.625,22.041a1.544,1.544,0,0,1-1.15-.488A1.644,1.644,0,0,1,0,20.362H3.675a1.584,1.584,0,0,1-1.162-.489,1.591,1.591,0,0,1-.488-1.165V6.679A1.635,1.635,0,0,1,2.513,5.5,1.565,1.565,0,0,1,3.675,5h16.65a1.565,1.565,0,0,1,1.162.5,1.635,1.635,0,0,1,.488,1.178V18.708a1.668,1.668,0,0,1-1.65,1.654H24a1.666,1.666,0,0,1-1.675,1.679Zm18.7-3.333h0V6.679H3.675V18.708h16.65ZM12,21.34a.9.9,0,1,0-.637-.263A.865.865,0,0,0,12,21.34ZM3.675,18.708h0V6.679h0V18.708Z" transform="translate(0 -5)" fill="#3c4043"/>
</svg>
