<svg width="20" height="19" viewBox="0 0 20 19" fill="none" xmlns="http://www.w3.org/2000/svg">
<g clip-path="url(#clip0_2782_716)">
<path d="M9.858 18.13L13.966 7.252H15.836L20 18.13H18.1L17.137 15.33H12.748L11.757 18.13H9.858ZM13.286 13.739H16.515L14.929 9.291H14.872L13.286 13.739ZM2.72 15.411L1.42 14.111L6.038 9.522C5.49006 8.90361 4.98868 8.24548 4.538 7.553C4.10133 6.88074 3.72071 6.17369 3.4 5.439H5.3C5.56454 5.93721 5.85769 6.41968 6.178 6.884C6.51069 7.35729 6.86993 7.81135 7.254 8.244C7.89183 7.56333 8.45689 6.81796 8.94 6.02C9.39017 5.2604 9.76496 4.45858 10.059 3.626H0V1.813H6.346V0H8.159V1.813H14.5V3.626H11.87C11.5387 4.68921 11.1071 5.71851 10.581 6.7C10.0286 7.7305 9.34821 8.68707 8.556 9.547L10.737 11.785L10.057 13.626L7.257 10.878L2.72 15.411Z" fill="#3C4043"/>
</g>
<defs>
<clipPath id="clip0_2782_716">
<rect width="20" height="18.13" fill="white"/>
</clipPath>
</defs>
</svg>
