<svg xmlns="http://www.w3.org/2000/svg" width="22" height="17.175" viewBox="0 0 22 17.175">
  <path id="insights_FILL0_wght400_GRAD0_opsz48" d="M3.75,23.325a1.686,1.686,0,0,1-1.237-.513,1.75,1.75,0,0,1,0-2.475,1.686,1.686,0,0,1,1.237-.513q.125,0,.25.013a2.383,2.383,0,0,1,.325.062l5-5a2.384,2.384,0,0,1-.062-.325q-.012-.125-.012-.25a1.75,1.75,0,0,1,2.987-1.238,1.686,1.686,0,0,1,.513,1.238q0,.05-.075.575l2.75,2.75a2.384,2.384,0,0,1,.325-.062q.125-.012.25-.013t.25.013a2.384,2.384,0,0,1,.325.063l4-4a2.383,2.383,0,0,1-.062-.325q-.012-.125-.012-.25a1.75,1.75,0,1,1,1.75,1.75q-.125,0-.25-.012a2.384,2.384,0,0,1-.325-.063l-4,4a2.383,2.383,0,0,1,.063.325q.013.125.013.25a1.75,1.75,0,1,1-3.5,0q0-.125.012-.25a2.384,2.384,0,0,1,.063-.325L11.575,16a2.383,2.383,0,0,1-.325.062q-.125.013-.25.013-.05,0-.575-.075l-5,5a2.384,2.384,0,0,1,.062.325q.013.125.013.25a1.75,1.75,0,0,1-1.75,1.75ZM16,11l-.775-1.65-1.65-.775,1.65-.775L16,6.15l.775,1.65,1.65.775-1.65.775ZM5,12.275l-.5-1.1-1.1-.5,1.1-.5.5-1.1.5,1.1,1.1.5-1.1.5Z" transform="translate(-2 -6.15)" fill="#3c4043"/>
</svg>
