<svg width="16" height="20" viewBox="0 0 16 20" fill="none" xmlns="http://www.w3.org/2000/svg">
<path d="M8 12.0263C7.18095 12.0263 6.49524 11.7544 5.94286 11.2105C5.39048 10.6667 5.11429 10.0088 5.11429 9.23684V2.63158C5.11429 1.89474 5.39524 1.27193 5.95714 0.763158C6.51905 0.254386 7.2 0 8 0C8.8 0 9.48095 0.254386 10.0429 0.763158C10.6048 1.27193 10.8857 1.89474 10.8857 2.63158V9.23684C10.8857 10.0088 10.6095 10.6667 10.0571 11.2105C9.50476 11.7544 8.81905 12.0263 8 12.0263ZM7.14286 20V16.4211C5.12381 16.2281 3.42857 15.4474 2.05714 14.0789C0.685714 12.7105 0 11.0965 0 9.23684H1.71429C1.71429 10.8333 2.32857 12.1754 3.55714 13.2632C4.78571 14.3509 6.26667 14.8947 8 14.8947C9.73333 14.8947 11.2143 14.3509 12.4429 13.2632C13.6714 12.1754 14.2857 10.8333 14.2857 9.23684H16C16 11.0965 15.3143 12.7105 13.9429 14.0789C12.5714 15.4474 10.8762 16.2281 8.85714 16.4211V20H7.14286ZM8 10.4474C8.34286 10.4474 8.62381 10.3289 8.84286 10.0921C9.06191 9.85526 9.17143 9.57018 9.17143 9.23684V2.63158C9.17143 2.33333 9.05714 2.08333 8.82857 1.88158C8.6 1.67982 8.32381 1.57895 8 1.57895C7.67619 1.57895 7.4 1.67982 7.17143 1.88158C6.94286 2.08333 6.82857 2.33333 6.82857 2.63158V9.23684C6.82857 9.57018 6.9381 9.85526 7.15714 10.0921C7.37619 10.3289 7.65714 10.4474 8 10.4474Z" fill="#3C4043"/>
</svg>
