<svg xmlns="http://www.w3.org/2000/svg" width="35.51" height="32.3" viewBox="0 0 35.51 32.3">
  <g id="Group_1154" data-name="Group 1154" transform="translate(-99.8 -8.17)">
    <path id="Path_2900" data-name="Path 2900" d="M128.08,21.67h-2.41l-7.13,18.8h1.93l1.9-5.25h9.21l1.8,5.25h1.93Zm-5.29,12.1,3.48-9.8h1.06l.27.49,3.37,9.31Z" fill="#98a5af"/>
    <path id="Path_2901" data-name="Path 2901" d="M125.4,11.52v1.9h-4.7l-.17.53a31.639,31.639,0,0,1-2.37,5.59,27,27,0,0,1-3.67,5.18l-.47.52,4.26,4.36-.73,1.89-4.96-4.82-8.44,8.44-1.34-1.34,8.57-8.57-.47-.53a30.167,30.167,0,0,1-2.76-3.59,24.219,24.219,0,0,1-1.57-2.76h1.97a24.011,24.011,0,0,0,1.43,2.35,27.449,27.449,0,0,0,2.06,2.6l.55.62.56-.61A25.128,25.128,0,0,0,116.39,19a25.96,25.96,0,0,0,2.16-4.58l.37-1H99.8v-1.9h11.85V8.17h1.9v3.35Z" fill="#98a5af"/>
  </g>
</svg>
