<svg width="81" height="61" viewBox="0 0 81 61" fill="none" xmlns="http://www.w3.org/2000/svg">
<g id="Group 682">
<path id="Union" fill-rule="evenodd" clip-rule="evenodd" d="M34.284 0H9.10999C9.72399 5.215 13.467 9.23499 17.981 9.23499H34.281C44.309 9.23499 49.611 14.298 49.611 23.875V25.6749H25.261C8.26099 25.6749 0 31.3839 0 43.1279C0 54.8719 8.26299 60.594 25.261 60.594H34.284C51.276 60.594 59.545 52.7819 59.545 36.7119V23.876C59.545 7.79998 51.275 0 34.284 0ZM49.614 36.7109C49.614 46.2889 44.314 51.3479 34.284 51.3479H25.261C15.091 51.3479 9.93604 48.588 9.93604 43.127C9.93604 37.666 15.091 34.9149 25.261 34.9149H49.614V36.7109ZM80.3315 7.21338V9.25537H76.8065C73.2755 9.25537 70.3965 5.76746 70.3965 1.47546V0.0224609H74.4225C77.6805 0.0224609 80.3315 3.24838 80.3315 7.21338ZM80.3325 60.5732V27.8802C80.3325 21.7842 76.1915 16.8252 71.1025 16.8252H70.3965V48.2632C70.3965 54.9072 74.8245 60.3452 80.3325 60.5732Z" fill="#0078D4"/>
</g>
</svg>
