<svg xmlns="http://www.w3.org/2000/svg" width="14" height="14" viewBox="0 0 14 14">
  <path id="pause_FILL1_wght700_GRAD0_opsz48_1_" data-name="pause_FILL1_wght700_GRAD0_opsz48 (1)" d="M17.685,21.7a2.053,2.053,0,0,1-2.04-2.04V9.74a2.053,2.053,0,0,1,2.04-2.04H19.66A2.053,2.053,0,0,1,21.7,9.74v9.92a2.053,2.053,0,0,1-2.04,2.04Zm-7.945,0A2.053,2.053,0,0,1,7.7,19.66V9.74A2.053,2.053,0,0,1,9.74,7.7h1.975a2.053,2.053,0,0,1,2.04,2.04v9.92a2.053,2.053,0,0,1-2.04,2.04Z" transform="translate(-7.7 -7.7)"/>
</svg>
