<svg xmlns="http://www.w3.org/2000/svg" xmlns:xlink="http://www.w3.org/1999/xlink" width="86" height="73" viewBox="0 0 86 73">
  <defs>
    <linearGradient id="linear-gradient" x1="0.5" y1="0.023" x2="0.5" y2="0.972" gradientUnits="objectBoundingBox">
      <stop offset="0" stop-color="#0d61a9"/>
      <stop offset="1" stop-color="#16528c"/>
    </linearGradient>
    <linearGradient id="linear-gradient-2" x1="0.5" y1="0.009" x2="0.5" y2="1.019" gradientUnits="objectBoundingBox">
      <stop offset="0" stop-color="#199ae0"/>
      <stop offset="1" stop-color="#0782d8"/>
    </linearGradient>
    <linearGradient id="linear-gradient-3" x1="0.412" y1="-0.017" x2="0.581" y2="0.976" gradientUnits="objectBoundingBox">
      <stop offset="0" stop-color="#32bdef"/>
      <stop offset="1" stop-color="#1ea2e4"/>
    </linearGradient>
  </defs>
  <g id="Group_1341" data-name="Group 1341" transform="translate(-1022.76 -306.23)">
    <rect id="Rectangle_468" data-name="Rectangle 468" width="38" height="38" rx="4" transform="translate(1022.76 311.23)" fill="rgba(81,180,255,0.23)"/>
    <rect id="Rectangle_469" data-name="Rectangle 469" width="22" height="22" rx="3" transform="translate(1086.76 357.23)" fill="rgba(81,180,255,0.23)"/>
    <rect id="Rectangle_470" data-name="Rectangle 470" width="15" height="15" rx="3" transform="translate(1090.76 306.23)" fill="rgba(81,180,255,0.23)"/>
    <g id="music-library" transform="translate(1039.491 322.75)">
      <path id="Path_2869" data-name="Path 2869" d="M52.358,6H8.727A2.726,2.726,0,0,0,6,8.727v8.181H55.085V8.727A2.726,2.726,0,0,0,52.358,6Z" transform="translate(-3.273 -6)" fill="url(#linear-gradient)"/>
      <path id="Path_2870" data-name="Path 2870" d="M54.085,10H7.727A2.726,2.726,0,0,0,5,12.727v6.817H56.812V12.727A2.726,2.726,0,0,0,54.085,10Z" transform="translate(-3.637 -4.546)" fill="url(#linear-gradient-2)"/>
      <path id="Path_2871" data-name="Path 2871" d="M55.812,14H6.727A2.726,2.726,0,0,0,4,16.727V49.45a2.726,2.726,0,0,0,2.727,2.727H55.812a2.726,2.726,0,0,0,2.727-2.727V16.727A2.726,2.726,0,0,0,55.812,14Z" transform="translate(-4 -3.092)" fill="url(#linear-gradient-3)"/>
      <g id="Group_1342" data-name="Group 1342" transform="translate(89.026 -82.939)">
        <rect id="Rectangle_2015" data-name="Rectangle 2015" width="2.298" height="4.851" transform="translate(-74.918 110.454)" fill="#fff"/>
        <rect id="Rectangle_2016" data-name="Rectangle 2016" width="2.298" height="4.851" transform="translate(-50.573 110.454)" fill="#fff"/>
        <rect id="Rectangle_2017" data-name="Rectangle 2017" width="2.298" height="12.482" transform="translate(-70.049 106.7)" fill="#fff"/>
        <rect id="Rectangle_2018" data-name="Rectangle 2018" width="2.298" height="12.482" transform="translate(-55.442 106.7)" fill="#fff"/>
        <rect id="Rectangle_2019" data-name="Rectangle 2019" width="2.298" height="21.506" transform="translate(-65.18 100.809)" fill="#fff"/>
        <rect id="Rectangle_2020" data-name="Rectangle 2020" width="2.298" height="21.702" transform="translate(-60.311 103.107)" fill="#fff"/>
      </g>
    </g>
  </g>
</svg>
