<svg xmlns="http://www.w3.org/2000/svg" xmlns:xlink="http://www.w3.org/1999/xlink" width="110.405" height="30.646" viewBox="0 0 110.405 30.646">
  <defs>
    <clipPath id="clip-path">
      <rect id="Rectangle_1671" data-name="Rectangle 1671" width="30.557" height="30.557" fill="#0078d4"/>
    </clipPath>
  </defs>
  <g id="Group_731" data-name="Group 731" transform="translate(0 0.021)">
    <g id="Group_107" data-name="Group 107" transform="translate(38.39 7.191)">
      <path id="Path_223" data-name="Path 223" d="M1986.118,129.669l-.716-1.882h-6.1l-.716,1.923a6.762,6.762,0,0,1-.716,1.519,1.139,1.139,0,0,1-.972.394,1.424,1.424,0,0,1-1.012-.419,1.285,1.285,0,0,1-.44-.951,2.12,2.12,0,0,1,.1-.634c.068-.218.18-.522.337-.91l3.835-9.737q.164-.419.394-1.008a5.108,5.108,0,0,1,.492-.977,1.994,1.994,0,0,1,.685-.629,2.1,2.1,0,0,1,1.049-.24,2.122,2.122,0,0,1,1.058.24,2.024,2.024,0,0,1,.685.619,4.269,4.269,0,0,1,.44.813q.18.435.455,1.161l3.917,9.676a4.852,4.852,0,0,1,.461,1.606,1.326,1.326,0,0,1-.435.956,1.426,1.426,0,0,1-1.048.435,1.355,1.355,0,0,1-.614-.128,1.241,1.241,0,0,1-.429-.348,3.239,3.239,0,0,1-.374-.675Q1986.261,130.017,1986.118,129.669Zm-6.014-4.163h4.48l-2.261-6.188Z" transform="translate(-1975.45 -116.117)" fill="#5c5c5c"/>
      <path id="Path_224" data-name="Path 224" d="M2099.812,119.795a1.473,1.473,0,0,1-1-.358,1.389,1.389,0,0,1,.011-1.989,1.424,1.424,0,0,1,.986-.384,1.459,1.459,0,0,1,.961.348,1.237,1.237,0,0,1,.42,1.013,1.278,1.278,0,0,1-.409,1.007A1.414,1.414,0,0,1,2099.812,119.795Zm1.381,2.884v8.07a1.8,1.8,0,0,1-.4,1.268,1.322,1.322,0,0,1-1.012.43,1.262,1.262,0,0,1-1-.44,1.855,1.855,0,0,1-.384-1.258v-7.988a1.792,1.792,0,0,1,.384-1.248,1.289,1.289,0,0,1,1-.419,1.338,1.338,0,0,1,1.012.419A1.625,1.625,0,0,1,2101.193,122.679Z" transform="translate(-2082.456 -116.941)" fill="#5c5c5c"/>
      <path id="Path_225" data-name="Path 225" d="M2142.17,129.925v-12.11a1.879,1.879,0,0,1,.375-1.268,1.263,1.263,0,0,1,1.007-.43,1.324,1.324,0,0,1,1.023.424,1.833,1.833,0,0,1,.389,1.273v12.11a1.82,1.82,0,0,1-.394,1.273,1.327,1.327,0,0,1-1.018.424,1.262,1.262,0,0,1-1-.44A1.857,1.857,0,0,1,2142.17,129.925Z" transform="translate(-2120.547 -116.117)" fill="#5c5c5c"/>
      <path id="Path_226" data-name="Path 226" d="M2188.948,157.777a8.6,8.6,0,0,1-1.959,1.181,5.466,5.466,0,0,1-2.121.394,4.014,4.014,0,0,1-1.887-.424,3.1,3.1,0,0,1-1.253-1.151,2.975,2.975,0,0,1-.44-1.575,2.819,2.819,0,0,1,.726-1.954,3.629,3.629,0,0,1,1.994-1.084q.267-.061,1.32-.276t1.806-.394q.751-.179,1.631-.435a2.927,2.927,0,0,0-.445-1.621,1.99,1.99,0,0,0-1.63-.517,3.41,3.41,0,0,0-1.6.3,2.6,2.6,0,0,0-.92.89q-.385.593-.542.782a.889.889,0,0,1-.68.189,1.192,1.192,0,0,1-.813-.3.978.978,0,0,1-.342-.772,2.362,2.362,0,0,1,.521-1.432,3.724,3.724,0,0,1,1.627-1.146,7.321,7.321,0,0,1,2.751-.45,7.783,7.783,0,0,1,2.893.435,2.693,2.693,0,0,1,1.489,1.376,6.008,6.008,0,0,1,.435,2.5q0,.982-.006,1.667t-.016,1.524a5.632,5.632,0,0,0,.261,1.642,5.164,5.164,0,0,1,.261,1.1,1.026,1.026,0,0,1-.4.782,1.355,1.355,0,0,1-.915.353,1.231,1.231,0,0,1-.849-.4A5.978,5.978,0,0,1,2188.948,157.777Zm-.183-4.04a14.033,14.033,0,0,1-1.786.476c-.78.167-1.321.29-1.62.368a2.2,2.2,0,0,0-.859.46,1.178,1.178,0,0,0-.409.956,1.413,1.413,0,0,0,.481,1.079,1.778,1.778,0,0,0,1.257.445,3.266,3.266,0,0,0,1.528-.363,2.428,2.428,0,0,0,1.029-.936,4.278,4.278,0,0,0,.378-2.086Z" transform="translate(-2154.593 -143.847)" fill="#5c5c5c"/>
      <path id="Path_227" data-name="Path 227" d="M2274.064,159.838l.255-.624-3.438-8.653a3.252,3.252,0,0,1-.316-1.084,1.269,1.269,0,0,1,.184-.665,1.375,1.375,0,0,1,.506-.491,1.336,1.336,0,0,1,.67-.184,1.094,1.094,0,0,1,.91.383,3.52,3.52,0,0,1,.542,1.1l2.364,6.873,2.239-6.392a11.2,11.2,0,0,1,.481-1.217,1.429,1.429,0,0,1,.456-.593,1.263,1.263,0,0,1,.681-.153,1.2,1.2,0,0,1,.608.169,1.183,1.183,0,0,1,.45.455,1.239,1.239,0,0,1,.158.6c-.028.13-.072.314-.134.552s-.136.481-.225.726l-3.641,9.532a11.164,11.164,0,0,1-.919,1.974,3.039,3.039,0,0,1-1.193,1.1,4.381,4.381,0,0,1-2,.383,4.868,4.868,0,0,1-1.842-.266.971.971,0,0,1-.613-.972.943.943,0,0,1,.292-.741,1.259,1.259,0,0,1,.864-.261,1.583,1.583,0,0,1,.439.061,2.093,2.093,0,0,0,.462.062,1.653,1.653,0,0,0,.755-.143,1.32,1.32,0,0,0,.5-.5A7.51,7.51,0,0,0,2274.064,159.838Z" transform="translate(-2232.015 -143.984)" fill="#5c5c5c"/>
      <path id="Path_228" data-name="Path 228" d="M2370.281,155.839a3.241,3.241,0,0,1-2.225,3.227,7.45,7.45,0,0,1-2.675.425,6.524,6.524,0,0,1-2.578-.46,3.746,3.746,0,0,1-1.585-1.151,2.316,2.316,0,0,1-.511-1.386,1.072,1.072,0,0,1,.327-.787,1.122,1.122,0,0,1,.829-.327.969.969,0,0,1,.676.215,2.336,2.336,0,0,1,.45.6,3.058,3.058,0,0,0,1.027,1.115,3.107,3.107,0,0,0,1.633.368,2.353,2.353,0,0,0,1.375-.373,1.048,1.048,0,0,0,.538-.854,1.162,1.162,0,0,0-.558-1.074,6.9,6.9,0,0,0-1.836-.644,15.224,15.224,0,0,1-2.347-.752,3.864,3.864,0,0,1-1.448-1.038,2.38,2.38,0,0,1-.542-1.585,2.8,2.8,0,0,1,.5-1.585,3.427,3.427,0,0,1,1.478-1.192,5.659,5.659,0,0,1,2.357-.445,7.737,7.737,0,0,1,1.948.225,4.849,4.849,0,0,1,1.443.6,2.978,2.978,0,0,1,.879.839,1.639,1.639,0,0,1,.3.9,1.04,1.04,0,0,1-.321.788,1.275,1.275,0,0,1-.916.307,1.126,1.126,0,0,1-.732-.246,4.858,4.858,0,0,1-.689-.736,2.527,2.527,0,0,0-.746-.655,2.354,2.354,0,0,0-1.167-.245,2.282,2.282,0,0,0-1.258.322.938.938,0,0,0-.5.8.868.868,0,0,0,.368.721,3.057,3.057,0,0,0,.991.465q.623.184,1.718.45a9.193,9.193,0,0,1,2.123.757,3.514,3.514,0,0,1,1.246,1.038A2.3,2.3,0,0,1,2370.281,155.839Z" transform="translate(-2310.743 -143.984)" fill="#5c5c5c"/>
      <path id="Path_229" data-name="Path 229" d="M2455.751,157.777a8.646,8.646,0,0,1-1.96,1.181,5.469,5.469,0,0,1-2.122.394,4.017,4.017,0,0,1-1.886-.424,3.094,3.094,0,0,1-1.253-1.151,2.988,2.988,0,0,1-.44-1.575,2.824,2.824,0,0,1,.726-1.954,3.632,3.632,0,0,1,1.994-1.084q.266-.061,1.32-.276c.7-.143,1.3-.274,1.806-.394s1.044-.264,1.631-.435a2.911,2.911,0,0,0-.444-1.621,1.99,1.99,0,0,0-1.631-.517,3.407,3.407,0,0,0-1.6.3,2.6,2.6,0,0,0-.92.89c-.255.4-.438.656-.542.782a.893.893,0,0,1-.681.189,1.191,1.191,0,0,1-.813-.3.985.985,0,0,1-.342-.772,2.36,2.36,0,0,1,.523-1.432,3.72,3.72,0,0,1,1.625-1.146,7.335,7.335,0,0,1,2.752-.45,7.788,7.788,0,0,1,2.895.435,2.7,2.7,0,0,1,1.488,1.376,6.038,6.038,0,0,1,.434,2.5q0,.982,0,1.667t-.017,1.524a5.577,5.577,0,0,0,.261,1.642,5.158,5.158,0,0,1,.259,1.1,1.025,1.025,0,0,1-.4.782,1.358,1.358,0,0,1-.916.353,1.233,1.233,0,0,1-.849-.4A6,6,0,0,1,2455.751,157.777Zm-.185-4.04a13.941,13.941,0,0,1-1.785.476q-1.171.251-1.621.368a2.218,2.218,0,0,0-.859.46,1.177,1.177,0,0,0-.41.956,1.419,1.419,0,0,0,.481,1.079,1.78,1.78,0,0,0,1.259.445,3.271,3.271,0,0,0,1.528-.363,2.424,2.424,0,0,0,1.029-.936,4.274,4.274,0,0,0,.378-2.086Z" transform="translate(-2386.792 -143.847)" fill="#5c5c5c"/>
    </g>
    <g id="Group_113" data-name="Group 113" transform="translate(0 0.001)">
      <g id="Group_108" data-name="Group 108">
        <path id="Path_230" data-name="Path 230" d="M1703.223,60.678h-16.939a6.863,6.863,0,0,0-6.844,6.842V84.459a6.864,6.864,0,0,0,6.844,6.844h16.939a6.863,6.863,0,0,0,6.842-6.844V67.52A6.862,6.862,0,0,0,1703.223,60.678Zm-4.13,16.844c0,3.836-1.973,5.7-6.03,5.7h-2.154c-4.058,0-6.03-1.364-6.03-4.168s1.972-4.168,6.03-4.168h5.814v-.429c0-2.286-1.266-3.494-3.66-3.494h-3.892a2.315,2.315,0,0,1-2.118-2.206h6.01c4.057,0,6.03,1.864,6.03,5.7Zm4.962,5.7a2.758,2.758,0,0,1-2.371-2.939V72.777h.168a2.454,2.454,0,0,1,2.2,2.64Zm0-12.257h-.841a1.721,1.721,0,0,1-1.531-1.858v-.348h.961a1.589,1.589,0,0,1,1.41,1.717Z" transform="translate(-1679.44 -60.678)" fill="#0078d4"/>
      </g>
      <path id="Path_231" data-name="Path 231" d="M1735.586,128.678v3.065c0,3.836-1.975,5.7-6.031,5.7H1727.4c-4.058,0-6.031-1.364-6.031-4.168s1.972-4.168,6.031-4.168h5.814v-.429c0-2.286-1.266-3.494-3.659-3.494h-3.891a2.314,2.314,0,0,1-2.119-2.206h6.01C1733.611,122.978,1735.586,124.842,1735.586,128.678Z" transform="translate(-1715.932 -114.898)" fill="#0078d4"/>
      <path id="Path_232" data-name="Path 232" d="M1853.322,124.7v.489h-.841a1.721,1.721,0,0,1-1.531-1.858v-.348h.961A1.588,1.588,0,0,1,1853.322,124.7Z" transform="translate(-1828.707 -114.898)" fill="#0078d4"/>
      <path id="Path_233" data-name="Path 233" d="M1853.322,156.609v7.8a2.758,2.758,0,0,1-2.372-2.939v-7.505h.17A2.454,2.454,0,0,1,1853.322,156.609Z" transform="translate(-1828.707 -141.869)" fill="#0078d4"/>
      <g id="Group_112" data-name="Group 112" transform="translate(5.438 8.08)">
        <g id="Group_109" data-name="Group 109" transform="translate(16.805)">
          <path id="Path_234" data-name="Path 234" d="M1853.322,124.7v.489h-.841a1.721,1.721,0,0,1-1.531-1.858v-.348h.961A1.588,1.588,0,0,1,1853.322,124.7Z" transform="translate(-1850.95 -122.978)" fill="#fff"/>
        </g>
        <g id="Group_110" data-name="Group 110" transform="translate(16.805 4.019)">
          <path id="Path_235" data-name="Path 235" d="M1853.322,156.609v7.8a2.758,2.758,0,0,1-2.372-2.939v-7.505h.17A2.454,2.454,0,0,1,1853.322,156.609Z" transform="translate(-1850.95 -153.968)" fill="#fff"/>
        </g>
        <g id="Group_111" data-name="Group 111">
          <path id="Path_236" data-name="Path 236" d="M1729.555,122.978h-6.01a2.314,2.314,0,0,0,2.119,2.206h3.891c2.394,0,3.659,1.207,3.659,3.494v.429H1727.4c-4.058,0-6.031,1.363-6.031,4.168s1.972,4.168,6.031,4.168h2.154c4.056,0,6.031-1.865,6.031-5.7v-3.065C1735.586,124.842,1733.611,122.978,1729.555,122.978Zm3.659,8.764c0,2.286-1.266,3.494-3.659,3.494H1727.4c-2.428,0-3.659-.659-3.659-1.961s1.231-1.962,3.659-1.962h5.814Z" transform="translate(-1721.37 -122.978)" fill="#fff"/>
        </g>
      </g>
    </g>
    <g id="Group_1123" data-name="Group 1123" transform="translate(0.058 -0.021)">
      <g id="Group_1103" data-name="Group 1103">
        <g id="Group_1102" data-name="Group 1102">
          <g id="Group_1101" data-name="Group 1101" clip-path="url(#clip-path)">
            <path id="Path_2838" data-name="Path 2838" d="M23.729,30.557H6.828A6.848,6.848,0,0,1,0,23.729V6.828A6.848,6.848,0,0,1,6.828,0h16.9a6.848,6.848,0,0,1,6.828,6.828v16.9a6.848,6.848,0,0,1-6.828,6.828" fill="#0078d4"/>
          </g>
        </g>
      </g>
      <path id="Path_2839" data-name="Path 2839" d="M200.087,74.4v.487h.839a1.716,1.716,0,0,0,1.527-1.853v-.347h-.958a1.585,1.585,0,0,0-1.408,1.713" transform="translate(-177.894 -64.625)" fill="#fff"/>
      <path id="Path_2840" data-name="Path 2840" d="M200.087,111.469v7.786a2.75,2.75,0,0,0,2.366-2.931v-7.489h-.169a2.449,2.449,0,0,0-2.2,2.634" transform="translate(-177.894 -96.763)" fill="#fff"/>
      <path id="Path_2841" data-name="Path 2841" d="M57.084,72.687h-6a2.309,2.309,0,0,0,2.113,2.2h3.884c2.389,0,3.651,1.205,3.651,3.487V78.8h-5.8c-4.049,0-6.017,1.359-6.017,4.158s1.968,4.159,6.017,4.159h2.149c4.048,0,6.017-1.86,6.017-5.689V78.374c0-3.828-1.969-5.687-6.017-5.687m3.651,8.744c0,2.282-1.262,3.487-3.651,3.487H54.935c-2.423,0-3.651-.658-3.651-1.958S52.512,81,54.935,81h5.8Z" transform="translate(-43.492 -64.625)" fill="#fff"/>
    </g>
  </g>
</svg>
