<svg xmlns="http://www.w3.org/2000/svg" width="109.596" height="33.495" viewBox="0 0 109.596 33.495">
  <g id="logo_art" transform="translate(0 0)">
    <g id="Group_736" data-name="Group 736" transform="translate(0 0)">
      <g id="Group_734" data-name="Group 734" transform="translate(43.135 7.68)">
        <path id="path14_3_" d="M820.248,198.192H817.9l.011,17.5h9.511V213.53h-7.163l-.011-15.338Z" transform="translate(-786.291 -197.872)" fill="#8c929d"/>
        <g id="g24_3_" transform="translate(42.351 4.142)">
          <path id="path26_3_" d="M-51.869,101a4.007,4.007,0,0,1-2.908,1.228c-1.788,0-2.51-.883-2.51-2.036,0-1.734,1.206-2.564,3.77-2.564a11.274,11.274,0,0,1,1.659.129V101ZM-54.3,90.392a7.776,7.776,0,0,0-5,1.8l.829,1.443a7.186,7.186,0,0,1,3.824-1.12c1.928,0,2.779.991,2.779,2.65v.851a10.707,10.707,0,0,0-1.626-.129c-4.115,0-6.2,1.443-6.2,4.459,0,2.7,1.659,4.061,4.168,4.061a4.186,4.186,0,0,0,3.878-2.036l.431,1.713h1.659V95.121c-.011-2.833-1.239-4.729-4.739-4.729Z" transform="translate(59.7 -90.392)" fill="#8c929d"/>
        </g>
        <g id="g28_3_" transform="translate(55.517 0.323)">
          <path id="path30_3_" d="M-55.355,70.829a5.474,5.474,0,0,1-2.24-.377V62.363a4.629,4.629,0,0,1,3.048-1.153c2.273,0,3.145,1.6,3.145,4.2,0,3.684-1.411,5.418-3.953,5.418m.991-11.913a4.3,4.3,0,0,0-3.231,1.433V58.086l-.011-2.994H-59.9l.011,17.072a11.863,11.863,0,0,0,4.438.743c4.384,0,6.5-2.8,6.5-7.637-.011-3.824-1.96-6.355-5.407-6.355" transform="translate(59.9 -55.092)" fill="#8c929d"/>
        </g>
        <g id="g32_5_" transform="translate(0 0)">
          <path id="path34_5_" d="M-51.209,53.811a6.6,6.6,0,0,1,4.3,1.389l1.012-1.756a7.821,7.821,0,0,0-5.2-1.853c-5,0-8.5,3.048-8.5,9.2,0,6.441,3.781,8.951,8.1,8.951a13.765,13.765,0,0,0,5.213-1.012l-.054-6.883V59.681H-52.75v2.165h4.093l.054,5.224a6.39,6.39,0,0,1-2.725.485c-3.468,0-5.795-2.187-5.795-6.786-.011-4.685,2.391-6.958,5.913-6.958" transform="translate(59.6 -51.592)" fill="#8c929d"/>
        </g>
        <g id="g36_4_" transform="translate(22.633 0.317)">
          <path id="path38_4_" d="M-56.706,55.592H-59l.011,2.941V68.69c0,2.833,1.228,4.729,4.729,4.729a7.555,7.555,0,0,0,1.411-.129V71.232a6.717,6.717,0,0,1-1.066.075c-1.928,0-2.779-.991-2.779-2.65v-7h3.845V59.739h-3.845l-.011-4.147Z" transform="translate(59 -55.592)" fill="#8c929d"/>
        </g>
        <path id="path40_33_" d="M680.4,250.048h2.294V236.692H680.4v13.356Z" transform="translate(-663.602 -232.225)" fill="#8c929d"/>
        <path id="path42_3_" d="M680.4,200.586h2.294v-2.294H680.4v2.294Z" transform="translate(-663.602 -197.961)" fill="#8c929d"/>
      </g>
      <g id="Group_735" data-name="Group 735" transform="translate(0)">
        <path id="path50_5_" d="M237.359,264.178h0l6.7-20.608H230.669l6.69,20.608Z" transform="translate(-219.177 -230.683)" fill="#e24329"/>
        <path id="path66_12_" d="M126.085,243.57h0l-2.04,6.261a1.388,1.388,0,0,0,.5,1.55l17.612,12.8L126.085,243.57Z" transform="translate(-123.977 -230.683)" fill="#fca326"/>
        <path id="path74_5_" d="M143.549,136.812h9.384L148.894,124.4a.7.7,0,0,0-1.322,0l-4.024,12.411Z" transform="translate(-141.441 -123.925)" fill="#e24329"/>
        <path id="path82_12_" d="M308.861,243.57h0l2.033,6.261a1.387,1.387,0,0,1-.5,1.55l-17.614,12.8,16.083-20.608Z" transform="translate(-274.596 -230.683)" fill="#fca326"/>
        <path id="path86_5_" d="M364.361,136.812h-9.384l4.031-12.411a.7.7,0,0,1,1.322,0l4.031,12.411Z" transform="translate(-330.096 -123.925)" fill="#e24329"/>
        <path id="Path_2525" data-name="Path 2525" d="M292.778,264.178l6.7-20.608h9.384Z" transform="translate(-274.596 -230.683)" fill="#fc6d26"/>
        <path id="Path_2526" data-name="Path 2526" d="M159.623,264.178,143.549,243.57h9.384Z" transform="translate(-141.441 -230.683)" fill="#fc6d26"/>
      </g>
    </g>
  </g>
</svg>
