<svg id="Group_733" data-name="Group 733" xmlns="http://www.w3.org/2000/svg" xmlns:xlink="http://www.w3.org/1999/xlink" width="109.254" height="31.086" viewBox="0 0 109.254 31.086">
  <defs>
    <clipPath id="clip-path">
      <rect id="Rectangle_1157" data-name="Rectangle 1157" width="109.254" height="31.086" fill="none"/>
    </clipPath>
  </defs>
  <g id="Group_732" data-name="Group 732" clip-path="url(#clip-path)">
    <path id="Path_2510" data-name="Path 2510" d="M255.94,45.387h-6.073a.284.284,0,0,0-.284.284V48.64a.284.284,0,0,0,.284.284h2.369v3.689a7.175,7.175,0,0,1-2,.181c-1.735,0-4.159-.634-4.159-5.964S248.6,40.8,250.968,40.8a9.6,9.6,0,0,1,3.5.535.286.286,0,0,0,.34-.279l.677-2.869a.265.265,0,0,0-.109-.222c-.228-.163-1.621-.942-5.141-.942-4.055,0-8.214,1.725-8.214,10.017s4.762,9.528,8.774,9.528a9.879,9.879,0,0,0,5.338-1.42.244.244,0,0,0,.092-.215V45.671a.284.284,0,0,0-.284-.284" transform="translate(-205.041 -31.364)" fill="#0e0d0d"/>
    <path id="Path_2511" data-name="Path 2511" d="M464.236,41.941a.283.283,0,0,0-.282-.285h-3.42a.284.284,0,0,0-.283.285V48.55h-5.33V41.941a.283.283,0,0,0-.282-.285h-3.42a.284.284,0,0,0-.282.285V59.836a.285.285,0,0,0,.282.286h3.42a.284.284,0,0,0,.282-.286V52.182h5.33l-.009,7.654a.285.285,0,0,0,.283.286h3.428a.284.284,0,0,0,.282-.286Z" transform="translate(-382.037 -35.291)" fill="#0e0d0d"/>
    <path id="Path_2512" data-name="Path 2512" d="M350.906,46.547a2.205,2.205,0,1,0-2.205,2.228,2.215,2.215,0,0,0,2.205-2.228" transform="translate(-293.553 -37.549)" fill="#0e0d0d"/>
    <path id="Path_2513" data-name="Path 2513" d="M351.645,88.553v-8.26a.284.284,0,0,0-.283-.285h-3.409a.326.326,0,0,0-.3.318V92.16c0,.348.217.451.5.451h3.071c.337,0,.42-.165.42-.457Z" transform="translate(-294.537 -67.783)" fill="#0e0d0d"/>
    <path id="Path_2514" data-name="Path 2514" d="M560.269,80.183h-3.394a.285.285,0,0,0-.282.286v8.774a3.835,3.835,0,0,1-2.086.631c-1.224,0-1.548-.555-1.548-1.753V80.469a.284.284,0,0,0-.282-.286h-3.444a.285.285,0,0,0-.283.286V88.7c0,3.559,1.983,4.429,4.712,4.429a7.952,7.952,0,0,0,4.043-1.237,7.171,7.171,0,0,0,.125.729.3.3,0,0,0,.25.155l2.191-.01a.285.285,0,0,0,.283-.286V80.469a.285.285,0,0,0-.283-.286" transform="translate(-465.073 -67.931)" fill="#0e0d0d"/>
    <path id="Path_2515" data-name="Path 2515" d="M643.629,47.14a6.381,6.381,0,0,0-3.238.86V41.94a.284.284,0,0,0-.282-.285H636.68a.284.284,0,0,0-.283.285V59.835a.285.285,0,0,0,.283.286h2.379a.283.283,0,0,0,.248-.152,5.572,5.572,0,0,0,.145-.825,6.136,6.136,0,0,0,4.057,1.329c3.116,0,4.9-1.581,4.9-7.1s-2.854-6.237-4.783-6.237m-1.339,10.082a4.069,4.069,0,0,1-1.975-.57V50.985a4.522,4.522,0,0,1,1.754-.569c1.222-.109,2.4.26,2.4,3.175,0,3.074-.531,3.681-2.178,3.631" transform="translate(-539.159 -35.29)" fill="#0e0d0d"/>
    <path id="Path_2516" data-name="Path 2516" d="M390.6,60.14h-2.565l0-3.389c0-.128-.066-.192-.215-.192h-3.5c-.136,0-.209.06-.209.19v3.5s-1.752.423-1.87.457a.284.284,0,0,0-.2.273v2.2a.284.284,0,0,0,.283.286h1.792v5.294c0,3.932,2.758,4.318,4.619,4.318a7.805,7.805,0,0,0,2.036-.335.265.265,0,0,0,.161-.257l0-2.421a.289.289,0,0,0-.283-.286c-.149,0-.532.061-.926.061-1.26,0-1.687-.586-1.687-1.344s0-5.031,0-5.031H390.6a.284.284,0,0,0,.283-.286V60.425a.284.284,0,0,0-.283-.285" transform="translate(-323.665 -47.917)" fill="#0e0d0d"/>
    <path id="Path_2517" data-name="Path 2517" d="M15.937,0A15.938,15.938,0,0,0,10.9,31.059c.8.147,1.089-.346,1.089-.767,0-.38-.015-1.636-.022-2.967-4.434.964-5.369-1.88-5.369-1.88a4.221,4.221,0,0,0-1.769-2.332c-1.446-.989.109-.969.109-.969a3.349,3.349,0,0,1,2.443,1.642,3.393,3.393,0,0,0,4.638,1.325,3.4,3.4,0,0,1,1.012-2.131c-3.54-.4-7.261-1.77-7.261-7.876A6.167,6.167,0,0,1,7.41,10.827a5.727,5.727,0,0,1,.154-4.218S8.9,6.181,11.948,8.243a15.116,15.116,0,0,1,7.981,0c3.042-2.062,4.378-1.634,4.378-1.634a5.719,5.719,0,0,1,.156,4.218A6.155,6.155,0,0,1,26.1,15.1c0,6.121-3.728,7.469-7.277,7.863a3.809,3.809,0,0,1,1.081,2.951c0,2.132-.018,3.849-.018,4.374,0,.424.287.921,1.094.765A15.939,15.939,0,0,0,15.937,0" fill="#131212"/>
    <path id="Path_2518" data-name="Path 2518" d="M37.137,148.254c-.035.079-.16.1-.273.049s-.18-.16-.143-.239.159-.1.274-.05.182.161.142.241" transform="translate(-31.101 -125.373)" fill="#131212"/>
    <path id="Path_2519" data-name="Path 2519" d="M41.405,152.014c-.076.07-.225.038-.325-.074a.244.244,0,0,1-.047-.331c.078-.07.222-.037.327.074s.125.26.045.331" transform="translate(-34.724 -128.413)" fill="#131212"/>
    <path id="Path_2520" data-name="Path 2520" d="M45.463,157.448c-.1.068-.257,0-.356-.137s-.1-.312,0-.38.256-.007.356.134.1.314,0,.384" transform="translate(-38.153 -132.929)" fill="#131212"/>
    <path id="Path_2521" data-name="Path 2521" d="M50.443,163.358c-.087.1-.274.07-.409-.061a.307.307,0,0,1-.091-.407c.089-.1.276-.069.413.061s.18.312.087.407" transform="translate(-42.272 -137.952)" fill="#131212"/>
    <path id="Path_2522" data-name="Path 2522" d="M57.551,167.714c-.039.125-.218.181-.4.128s-.3-.2-.262-.327.218-.185.4-.128.3.2.261.327" transform="translate(-48.192 -141.793)" fill="#131212"/>
    <path id="Path_2523" data-name="Path 2523" d="M65.986,168.98c0,.131-.149.24-.338.243s-.345-.1-.347-.231.15-.241.34-.244.345.1.345.232" transform="translate(-55.323 -142.964)" fill="#131212"/>
    <path id="Path_2524" data-name="Path 2524" d="M73.958,167.906c.023.128-.109.26-.3.295s-.356-.045-.38-.173.111-.263.3-.3.357.044.381.175" transform="translate(-62.082 -142.097)" fill="#131212"/>
  </g>
</svg>
