<svg id="translate_black_24dp_2_" data-name="translate_black_24dp (2)" xmlns="http://www.w3.org/2000/svg" width="20" height="20" viewBox="0 0 20 20">
  <path id="Path_2562" data-name="Path 2562" d="M0,0H20V20H0Z" fill="none"/>
  <path id="Path_2563" data-name="Path 2563" d="M10.892,12.892,8.775,10.8l.025-.025a14.6,14.6,0,0,0,3.092-5.442h2.442V3.667H8.5V2H6.833V3.667H1V5.325h9.308A13.094,13.094,0,0,1,7.667,9.792,13.038,13.038,0,0,1,5.742,7H4.075a14.635,14.635,0,0,0,2.483,3.8L2.317,14.983,3.5,16.167,7.667,12l2.592,2.592.633-1.7Zm4.692-4.225H13.917l-3.75,10h1.667l.933-2.5h3.958l.942,2.5h1.667ZM13.4,14.5l1.35-3.608L16.1,14.5Z" transform="translate(-0.167 -0.333)" fill="#74788d"/>
</svg>
