<svg xmlns="http://www.w3.org/2000/svg" xmlns:xlink="http://www.w3.org/1999/xlink" width="19.829" height="17.999" viewBox="0 0 19.829 17.999">
  <defs>
    <radialGradient id="radial-gradient" cx="0.3" cy="0.43" r="0.72" gradientUnits="objectBoundingBox">
      <stop offset="0" stop-color="#fff"/>
      <stop offset="0.163" stop-color="#fcfcfc"/>
      <stop offset="0.307" stop-color="#f1f1f1"/>
      <stop offset="0.443" stop-color="#dfdfdf"/>
      <stop offset="0.613" stop-color="#c5c5c5"/>
      <stop offset="0.778" stop-color="#a5a5a5"/>
      <stop offset="1" stop-color="#636363"/>
      <stop offset="1" stop-color="#393939"/>
    </radialGradient>
    <linearGradient id="linear-gradient" x1="0.869" y1="0.978" x2="0.204" y2="-0.007" gradientUnits="objectBoundingBox">
      <stop offset="0" stop-color="#b8b8b8"/>
      <stop offset="0.01" stop-color="#b5b5b5"/>
      <stop offset="0.201" stop-color="#7e7e7e"/>
      <stop offset="0.386" stop-color="#515151"/>
      <stop offset="0.563" stop-color="#2e2e2e"/>
      <stop offset="0.729" stop-color="#151515"/>
      <stop offset="0.879" stop-color="#050505"/>
      <stop offset="1"/>
    </linearGradient>
    <linearGradient id="linear-gradient-2" x1="0.769" y1="-0.038" x2="0.386" y2="1.047" gradientUnits="objectBoundingBox">
      <stop offset="0" stop-color="#f0f0f0"/>
      <stop offset="0.002" stop-color="#ebebeb"/>
      <stop offset="0.02" stop-color="#c6c6c6"/>
      <stop offset="0.035" stop-color="#aeaeae"/>
      <stop offset="0.045" stop-color="#a6a6a6"/>
      <stop offset="0.092" stop-color="#d6d6d6"/>
      <stop offset="0.12" stop-color="#ededed"/>
      <stop offset="0.182" stop-color="#b3b3b3"/>
      <stop offset="0.199" stop-color="#b5b5b5"/>
      <stop offset="0.212" stop-color="#bfbfbf"/>
      <stop offset="0.223" stop-color="#cfcfcf"/>
      <stop offset="0.233" stop-color="#e5e5e5"/>
      <stop offset="0.234" stop-color="#e8e8e8"/>
      <stop offset="0.249" stop-color="#ebebeb"/>
      <stop offset="0.258" stop-color="#f3f3f3"/>
      <stop offset="0.265" stop-color="#fff"/>
      <stop offset="0.289" stop-color="#fdfdfd"/>
      <stop offset="0.36" stop-color="#dcdcdc"/>
      <stop offset="0.413" stop-color="#fff"/>
      <stop offset="0.432" stop-color="#d3d3d3"/>
      <stop offset="0.462" stop-color="#999"/>
      <stop offset="0.495" stop-color="#bcbcbc"/>
      <stop offset="0.522" stop-color="#e3e3e3"/>
      <stop offset="0.546" stop-color="#a9a9a9"/>
      <stop offset="0.645" stop-color="#c7c7c7"/>
      <stop offset="0.688" stop-color="#f2f2f2"/>
      <stop offset="0.713" stop-color="#8a8a8a"/>
      <stop offset="0.735" stop-color="#919191"/>
      <stop offset="0.751" stop-color="#c4c4c4"/>
      <stop offset="0.797" stop-color="#c4c4c4"/>
      <stop offset="0.845" stop-color="#767676"/>
      <stop offset="0.861" stop-color="#a8a8a8"/>
      <stop offset="0.872" stop-color="#ccc"/>
      <stop offset="0.874" stop-color="#b6b6b6"/>
      <stop offset="0.878" stop-color="#969696"/>
      <stop offset="0.882" stop-color="#7d7d7d"/>
      <stop offset="0.886" stop-color="#6c6c6c"/>
      <stop offset="0.89" stop-color="#616161"/>
      <stop offset="0.896" stop-color="#5e5e5e"/>
      <stop offset="0.952" stop-color="gray"/>
      <stop offset="1" stop-color="#737373"/>
    </linearGradient>
    <linearGradient id="linear-gradient-3" x1="0.058" y1="0.014" x2="0.817" y2="1.018" gradientUnits="objectBoundingBox">
      <stop offset="0" stop-color="#4d4d4d"/>
      <stop offset="0.139" stop-color="#c4c4c4"/>
      <stop offset="0.315" stop-color="#c7c7c7"/>
      <stop offset="0.338" stop-color="#c4c4c4"/>
      <stop offset="0.356" stop-color="#bababa"/>
      <stop offset="0.373" stop-color="#a9a9a9"/>
      <stop offset="0.388" stop-color="#919191"/>
      <stop offset="0.399" stop-color="#7d7d7d"/>
      <stop offset="0.601" stop-color="#a8a8a8"/>
      <stop offset="0.699" stop-color="#898989"/>
      <stop offset="0.802" stop-color="#4a4a4a"/>
      <stop offset="0.816" stop-color="#4f4f4f"/>
      <stop offset="0.833" stop-color="#5f5f5f"/>
      <stop offset="0.852" stop-color="#787878"/>
      <stop offset="0.858" stop-color="#828282"/>
      <stop offset="0.896" stop-color="#6f6f6f"/>
      <stop offset="0.962" stop-color="#525252"/>
      <stop offset="1" stop-color="#474747"/>
    </linearGradient>
    <linearGradient id="linear-gradient-4" x1="-6.838" y1="-25.34" x2="1.774" y2="4.993" gradientUnits="objectBoundingBox">
      <stop offset="0" stop-color="#fff"/>
      <stop offset="0.009" stop-color="#fcfcfc"/>
      <stop offset="0.066" stop-color="#eee"/>
      <stop offset="0.134" stop-color="#e5e5e5"/>
      <stop offset="0.252" stop-color="#e3e3e3"/>
      <stop offset="0.336" stop-color="#8a8a8a"/>
      <stop offset="0.442" stop-color="#b8b8b8"/>
      <stop offset="1" stop-color="#3b3b3b"/>
    </linearGradient>
    <linearGradient id="linear-gradient-5" x1="0.205" y1="-0.017" x2="1.189" y2="1.277" gradientUnits="objectBoundingBox">
      <stop offset="0.066" stop-color="#ccc"/>
      <stop offset="0.134" stop-color="#e5e5e5"/>
      <stop offset="0.252" stop-color="#e3e3e3"/>
      <stop offset="0.336" stop-color="#8a8a8a"/>
      <stop offset="0.412" stop-color="#b3b3b3"/>
      <stop offset="0.487" stop-color="#616161"/>
      <stop offset="0.569" stop-color="#adadad"/>
      <stop offset="1" stop-color="#3b3b3b"/>
    </linearGradient>
    <linearGradient id="linear-gradient-6" x1="-1.593" y1="-4.859" x2="1.037" y2="1.878" xlink:href="#linear-gradient-4"/>
    <linearGradient id="linear-gradient-7" x1="0.056" y1="0.013" x2="0.931" y2="1.013" gradientUnits="objectBoundingBox">
      <stop offset="0" stop-color="#fff"/>
      <stop offset="0.033" stop-color="#ededed"/>
      <stop offset="0.139" stop-color="#d6d6d6"/>
      <stop offset="0.263" stop-color="#d6d6d6"/>
      <stop offset="0.339" stop-color="#d4d4d4"/>
      <stop offset="0.381" stop-color="#d1d1d1"/>
      <stop offset="0.41" stop-color="#c4c4c4"/>
      <stop offset="0.477" stop-color="#dbdbdb"/>
      <stop offset="0.535" stop-color="#cecece"/>
      <stop offset="0.593" stop-color="#9e9e9e"/>
      <stop offset="0.607" stop-color="#a3a3a3"/>
      <stop offset="0.623" stop-color="#b0b0b0"/>
      <stop offset="0.635" stop-color="#bfbfbf"/>
      <stop offset="0.769" stop-color="#999"/>
      <stop offset="0.872" stop-color="#adadad"/>
      <stop offset="1" stop-color="#474747"/>
    </linearGradient>
    <linearGradient id="linear-gradient-8" x1="9.786" y1="-214.431" x2="-0.852" y2="31.811" gradientUnits="objectBoundingBox">
      <stop offset="0" stop-color="#4d4d4d"/>
      <stop offset="0.035" stop-color="#9c9c9c"/>
      <stop offset="0.05" stop-color="#ababab"/>
      <stop offset="0.069" stop-color="#616161"/>
      <stop offset="0.093" stop-color="#a8a8a8"/>
      <stop offset="0.194" stop-color="#474747"/>
      <stop offset="0.211" stop-color="#878787"/>
      <stop offset="0.234" stop-color="#4a4a4a"/>
      <stop offset="0.251" stop-color="gray"/>
      <stop offset="0.27" stop-color="#7d7d7d"/>
      <stop offset="0.283" stop-color="#747474"/>
      <stop offset="0.293" stop-color="#666"/>
      <stop offset="0.303" stop-color="#515151"/>
      <stop offset="0.304" stop-color="#4d4d4d"/>
      <stop offset="0.316" stop-color="#4e4e4e"/>
      <stop offset="0.32" stop-color="#555"/>
      <stop offset="0.324" stop-color="#616161"/>
      <stop offset="0.326" stop-color="#727272"/>
      <stop offset="0.328" stop-color="#888"/>
      <stop offset="0.33" stop-color="#a2a2a2"/>
      <stop offset="0.332" stop-color="#c2c2c2"/>
      <stop offset="0.332" stop-color="#c4c4c4"/>
      <stop offset="0.432" stop-color="#c5c5c5"/>
      <stop offset="0.445" stop-color="#8a8a8a"/>
      <stop offset="0.458" stop-color="#a6a6a6"/>
      <stop offset="0.474" stop-color="#c5c5c5"/>
      <stop offset="0.59" stop-color="#c6c6c6"/>
      <stop offset="0.61" stop-color="#a8a8a8"/>
      <stop offset="0.647" stop-color="#999"/>
      <stop offset="0.667" stop-color="#c7c7c7"/>
      <stop offset="1" stop-color="#4d4d4d"/>
    </linearGradient>
    <linearGradient id="linear-gradient-9" x1="1.217" y1="-0.248" x2="-0.07" y2="1.33" xlink:href="#linear-gradient-8"/>
    <linearGradient id="linear-gradient-10" x1="23.617" y1="-229.403" x2="-352.334" y2="3509.09" xlink:href="#linear-gradient-8"/>
    <linearGradient id="linear-gradient-11" x1="0.509" y1="0.243" x2="0.493" y2="0.771" xlink:href="#linear-gradient-8"/>
    <linearGradient id="linear-gradient-12" x1="0.592" y1="0.108" x2="-2.214" y2="13.701" xlink:href="#linear-gradient-8"/>
    <linearGradient id="linear-gradient-13" x1="0.992" y1="-0.501" x2="-3.244" y2="8.262" xlink:href="#linear-gradient-8"/>
    <linearGradient id="linear-gradient-14" x1="20.105" y1="-52.085" x2="-2.454" y2="8.464" xlink:href="#linear-gradient-8"/>
    <linearGradient id="linear-gradient-15" x1="6.437" y1="-16.161" x2="-0.975" y2="4.496" xlink:href="#linear-gradient-8"/>
    <linearGradient id="linear-gradient-16" x1="2.043" y1="-17.169" x2="0.226" y2="3.642" xlink:href="#linear-gradient-8"/>
    <linearGradient id="linear-gradient-17" x1="12.132" y1="-238.481" x2="-1.125" y2="34.002" xlink:href="#linear-gradient-8"/>
    <linearGradient id="linear-gradient-18" x1="6.083" y1="-208.962" x2="-0.282" y2="29.875" xlink:href="#linear-gradient-8"/>
    <linearGradient id="linear-gradient-19" y1="0.5" x2="1.006" y2="0.5" gradientUnits="objectBoundingBox">
      <stop offset="0" stop-color="gray"/>
      <stop offset="0.087" stop-color="#7a7a7a"/>
      <stop offset="0.36" stop-color="#6b6b6b"/>
      <stop offset="0.519" stop-color="#686868"/>
      <stop offset="0.638" stop-color="#5f5f5f"/>
      <stop offset="0.743" stop-color="#4e4e4e"/>
      <stop offset="0.841" stop-color="#383838"/>
      <stop offset="0.932" stop-color="#1b1b1b"/>
      <stop offset="1"/>
    </linearGradient>
    <linearGradient id="linear-gradient-20" y1="0.499" x2="1" y2="0.499" gradientUnits="objectBoundingBox">
      <stop offset="0" stop-color="gray"/>
      <stop offset="0.087" stop-color="#7a7a7a"/>
      <stop offset="0.382" stop-color="#828282"/>
      <stop offset="0.519" stop-color="gray"/>
      <stop offset="0.568" stop-color="#797979"/>
      <stop offset="0.603" stop-color="#6e6e6e"/>
      <stop offset="0.608" stop-color="#6b6b6b"/>
      <stop offset="1" stop-color="#4e4e4e"/>
    </linearGradient>
    <linearGradient id="linear-gradient-21" y1="0.5" x2="1" y2="0.5" gradientUnits="objectBoundingBox">
      <stop offset="0" stop-color="#5e5e5e"/>
      <stop offset="0.129" stop-color="#353535"/>
      <stop offset="0.267" stop-color="#0f0f0f"/>
      <stop offset="0.34"/>
      <stop offset="0.989" stop-color="#555"/>
      <stop offset="1" stop-color="#575757"/>
    </linearGradient>
    <linearGradient id="linear-gradient-22" y1="0.5" x2="1" y2="0.5" gradientUnits="objectBoundingBox">
      <stop offset="0" stop-color="#fff"/>
      <stop offset="0.722" stop-color="#828282"/>
      <stop offset="0.808" stop-color="#737373"/>
      <stop offset="0.894" stop-color="#d1d1d1"/>
      <stop offset="0.898" stop-color="#b5b5b5"/>
      <stop offset="0.905" stop-color="#878787"/>
      <stop offset="0.912" stop-color="#636363"/>
      <stop offset="0.919" stop-color="#494949"/>
      <stop offset="0.924" stop-color="#393939"/>
      <stop offset="0.929" stop-color="#343434"/>
      <stop offset="0.934" stop-color="#383838"/>
      <stop offset="0.939" stop-color="#454545"/>
      <stop offset="0.944" stop-color="#5b5b5b"/>
      <stop offset="0.95" stop-color="#797979"/>
      <stop offset="0.955" stop-color="#9f9f9f"/>
      <stop offset="0.955" stop-color="#a3a3a3"/>
      <stop offset="1"/>
    </linearGradient>
    <linearGradient id="linear-gradient-23" x1="-0.091" y1="0.56" x2="35.518" y2="-3.415" gradientUnits="objectBoundingBox">
      <stop offset="0" stop-color="#fff"/>
      <stop offset="0.078" stop-color="#f4f4f4"/>
      <stop offset="0.381" stop-color="#cecece"/>
      <stop offset="0.54" stop-color="#bfbfbf"/>
      <stop offset="0.836" stop-color="#7c7c7c"/>
      <stop offset="0.9" stop-color="#a8a8a8"/>
      <stop offset="0.909" stop-color="#9a9a9a"/>
      <stop offset="0.933" stop-color="#7d7d7d"/>
      <stop offset="0.956" stop-color="#686868"/>
      <stop offset="0.979" stop-color="#5b5b5b"/>
      <stop offset="1" stop-color="#575757"/>
    </linearGradient>
    <linearGradient id="linear-gradient-24" x1="-22.237" y1="0.9" x2="737.616" y2="-12.498" xlink:href="#linear-gradient-23"/>
    <linearGradient id="linear-gradient-25" x1="-0.029" y1="0.713" x2="1.09" y2="0.354" gradientUnits="objectBoundingBox">
      <stop offset="0" stop-color="#fff"/>
      <stop offset="0.078" stop-color="#dedede"/>
      <stop offset="0.381" stop-color="#cecece"/>
      <stop offset="0.54" stop-color="#bfbfbf"/>
      <stop offset="0.836" stop-color="#7c7c7c"/>
      <stop offset="0.896" stop-color="#787878"/>
      <stop offset="0.909" stop-color="#9a9a9a"/>
      <stop offset="0.933" stop-color="#4d4d4d"/>
      <stop offset="0.956" stop-color="#686868"/>
      <stop offset="0.979" stop-color="#5b5b5b"/>
      <stop offset="1" stop-color="#575757"/>
    </linearGradient>
    <linearGradient id="linear-gradient-26" x1="-31.847" y1="7.667" x2="649.708" y2="-142.885" gradientUnits="objectBoundingBox">
      <stop offset="0" stop-color="#fff"/>
      <stop offset="0.001" stop-color="#fff"/>
      <stop offset="0.057" stop-color="#f0f0f0"/>
      <stop offset="0.087" stop-color="#919191"/>
      <stop offset="0.164" stop-color="#e8e8e8"/>
      <stop offset="0.36" stop-color="#a8a8a8"/>
      <stop offset="0.494" stop-color="#a5a5a5"/>
      <stop offset="0.593" stop-color="#9b9b9b"/>
      <stop offset="0.682" stop-color="#8b8b8b"/>
      <stop offset="0.764" stop-color="#757575"/>
      <stop offset="0.841" stop-color="#575757"/>
      <stop offset="0.916" stop-color="#333"/>
      <stop offset="0.986" stop-color="#090909"/>
      <stop offset="1"/>
    </linearGradient>
    <linearGradient id="linear-gradient-27" x1="-0.071" y1="0.907" x2="1.188" y2="0.197" gradientUnits="objectBoundingBox">
      <stop offset="0" stop-color="#fff"/>
      <stop offset="0.001" stop-color="#fff"/>
      <stop offset="0.057" stop-color="#f0f0f0"/>
      <stop offset="0.087" stop-color="#919191"/>
      <stop offset="0.164" stop-color="#e8e8e8"/>
      <stop offset="0.345" stop-color="#bfbfbf"/>
      <stop offset="0.409" stop-color="#c7c7c7"/>
      <stop offset="0.494" stop-color="#ccc"/>
      <stop offset="0.531" stop-color="#c9c9c9"/>
      <stop offset="0.555" stop-color="silver"/>
      <stop offset="0.576" stop-color="#b2b2b2"/>
      <stop offset="0.592" stop-color="#a1a1a1"/>
      <stop offset="0.615" stop-color="#adadad"/>
      <stop offset="0.638" stop-color="#b3b3b3"/>
      <stop offset="0.771" stop-color="#8b8b8b"/>
      <stop offset="0.937" stop-color="#757575"/>
    </linearGradient>
    <linearGradient id="linear-gradient-28" x1="-17.522" y1="2.078" x2="2.789" y2="0.303" gradientUnits="objectBoundingBox">
      <stop offset="0" stop-color="#fff"/>
      <stop offset="0.001" stop-color="#fff"/>
      <stop offset="0.057" stop-color="#f0f0f0"/>
      <stop offset="0.087" stop-color="#919191"/>
      <stop offset="0.164" stop-color="#e8e8e8"/>
      <stop offset="0.36" stop-color="#a8a8a8"/>
      <stop offset="0.494" stop-color="#a5a5a5"/>
      <stop offset="0.593" stop-color="#9b9b9b"/>
      <stop offset="0.682" stop-color="#8b8b8b"/>
      <stop offset="0.914" stop-color="#757575"/>
    </linearGradient>
    <linearGradient id="linear-gradient-29" x1="-1.268" y1="0.846" x2="26.99" y2="-4.742" xlink:href="#linear-gradient-26"/>
    <linearGradient id="linear-gradient-30" x1="-24.49" y1="3.246" x2="316.654" y2="-34.202" xlink:href="#linear-gradient-26"/>
    <linearGradient id="linear-gradient-31" x1="-249.954" y1="8.333" x2="41.51" y2="-0.78" xlink:href="#linear-gradient-26"/>
    <linearGradient id="linear-gradient-32" x1="0.021" y1="0.894" x2="1.063" y2="0.078" gradientUnits="objectBoundingBox">
      <stop offset="0" stop-color="#fff"/>
      <stop offset="0.799" stop-color="#343434"/>
      <stop offset="0.876" stop-color="#a3a3a3"/>
      <stop offset="1"/>
    </linearGradient>
    <linearGradient id="linear-gradient-33" y1="0.501" x2="1" y2="0.501" gradientUnits="objectBoundingBox">
      <stop offset="0" stop-color="#696969"/>
      <stop offset="0.37" stop-color="#2e2e2e"/>
      <stop offset="0.455" stop-color="#424242"/>
      <stop offset="0.601" stop-color="#303030"/>
      <stop offset="0.695" stop-color="#4a4a4a"/>
      <stop offset="1" stop-color="#666"/>
    </linearGradient>
    <linearGradient id="linear-gradient-34" y1="0.501" x2="1" y2="0.501" gradientUnits="objectBoundingBox">
      <stop offset="0" stop-color="#525252"/>
      <stop offset="0.186" stop-color="#333"/>
      <stop offset="0.354" stop-color="#aeaeae"/>
      <stop offset="0.42" stop-color="#adadad"/>
      <stop offset="0.428" stop-color="#9d9d9d"/>
      <stop offset="0.443" stop-color="#818181"/>
      <stop offset="0.461" stop-color="#6a6a6a"/>
      <stop offset="0.481" stop-color="#585858"/>
      <stop offset="0.506" stop-color="#4c4c4c"/>
      <stop offset="0.539" stop-color="#444"/>
      <stop offset="0.617" stop-color="#424242"/>
      <stop offset="0.668" stop-color="#454545"/>
      <stop offset="1" stop-color="#bdbdbd"/>
    </linearGradient>
    <linearGradient id="linear-gradient-35" x1="0.539" y1="0.935" x2="0.286" y2="-0.003" gradientUnits="objectBoundingBox">
      <stop offset="0" stop-color="#969696"/>
      <stop offset="1"/>
    </linearGradient>
    <linearGradient id="linear-gradient-36" x1="0.164" y1="-0.042" x2="0.627" y2="1.126" gradientUnits="objectBoundingBox">
      <stop offset="0" stop-color="#333"/>
      <stop offset="0.431"/>
      <stop offset="1" stop-color="#2e2e2e"/>
    </linearGradient>
  </defs>
  <g id="Group_31538" transform="translate(0.001 0.001)">
    <path id="Path_36413" d="M9.619,3.2a.54.54,0,0,0-.076-.247V2.942A.535.535,0,0,0,9.29,2.7a.306.306,0,0,0-.29.07l-.083.1a.5.5,0,0,1-.233.183.446.446,0,0,1-.339.006.18.18,0,0,1-.089-.1l-.061-.2c-.017-.064-.06-.329-.06-.329l-.1-.643a4.045,4.045,0,0,0,.717-.151A2.223,2.223,0,0,0,9.344,1.4a.155.155,0,0,1-.094-.129l-.017-.232A.287.287,0,0,1,9.32.81.642.642,0,0,1,9.662.625,1.872,1.872,0,0,1,10.069.6a.72.72,0,0,1,.31.056.159.159,0,0,1,.069.119V1s-.007.078.051.1a.794.794,0,0,0,.427.026,3.637,3.637,0,0,0,.359-.09l.886-.261.32-.091q.227-.063.449-.142a4.057,4.057,0,0,1,.569-.158.931.931,0,0,1,.547.029.446.446,0,0,0,.1.129.446.446,0,0,0,.179.212A.544.544,0,0,0,14.7.807s0-.021-.077-.072L14.43.6a.281.281,0,0,1-.08-.087.1.1,0,0,1-.008-.059l.17-.271s0-.033.1-.046A2.352,2.352,0,0,0,14.95.074a.387.387,0,0,0,.15-.06l.113.035.9.694L16.16.7a.561.561,0,0,0,.161.033,1.218,1.218,0,0,1,.19.109,2.023,2.023,0,0,1,.4.428l.043.132-.02.031a5.882,5.882,0,0,0,.407.506l.329.407-.039-.165.065-.042.04-.028.12.05a10.073,10.073,0,0,1,1.583,3.175l-.023.094.077.1A9.934,9.934,0,0,1,19.829,8.1q0,.327-.021.649l-.059.1.044.108A9.917,9.917,0,0,1,1.43,13.226l-.02-.071-.04-.03A9.851,9.851,0,0,1,.088,9.41l.041-.1-.065-.1A10.036,10.036,0,0,1,.147,6.391L.2,6.282.178,6.218A9.845,9.845,0,0,1,1.437,2.951l.133-.075.016.006a.47.47,0,0,1,.069-.042H1.67s.23-.383.316-.506a1.023,1.023,0,0,1,.145-.079.042.042,0,0,1,.037.015,2.934,2.934,0,0,0,.33-.4.078.078,0,0,1-.023-.037.482.482,0,0,1,.034-.139.1.1,0,0,1,.021-.03,6.578,6.578,0,0,1,.613-.63A.283.283,0,0,1,3.274.981,2.59,2.59,0,0,0,3.908.556.468.468,0,0,1,4,.389a.867.867,0,0,1,.432-.26c.15-.029.176-.007.176-.007L4.62.134l.1.149A1.814,1.814,0,0,1,5,.165.632.632,0,0,1,5.19.114l.161.26-.2.389a1.269,1.269,0,0,1-.322.425.309.309,0,0,1-.218.025.223.223,0,0,0-.209.063L4.373,1.3a.424.424,0,0,0,.067-.02.137.137,0,0,1,.053.043l.178.229a1.153,1.153,0,0,1-.081.377,5.063,5.063,0,0,1-.285.562s-.143.277-.209.438a1.2,1.2,0,0,0-.1.44s.036.012.138-.039a.194.194,0,0,1,.21,0,1.914,1.914,0,0,1,.2.171.719.719,0,0,1,.041.627.862.862,0,0,1-.268.335s-.042.065-.3.034a.671.671,0,0,0-.266-.039.352.352,0,0,0-.24.159A2.1,2.1,0,0,0,3.3,5.1l-.011.032a.977.977,0,0,0-.057.341,3.35,3.35,0,0,0,.055.6s1.532-.27,1.922-.011l.113.1a.129.129,0,0,1-.006.073.564.564,0,0,1-.192.217c-.119.086-.238.308-.061.448.2.159.329.149.667.091a1.3,1.3,0,0,0,.564-.247s.189-.14.152-.317a.322.322,0,0,0-.2-.231.164.164,0,0,1-.028-.241s.028-.134.5-.256a18.5,18.5,0,0,1,2.05-.379s-.494-1.6-.143-1.807a.609.609,0,0,1,.238-.079L9,3.427a.762.762,0,0,1,.154.009A.416.416,0,0,0,9.48,3.35c.131-.1.136-.159.136-.159" transform="translate(-0.001 -0.01)" fill="url(#radial-gradient)"/>
    <path id="Path_36414" d="M43.1,16.972l.088.033-.02.035c-.168.306-.182.375-.265.438a.485.485,0,0,1-.281.135.791.791,0,0,0-.345.228s-.17.163-.094.169.229-.118.229-.118.1-.069.121-.05-.1.146-.1.146a2.948,2.948,0,0,1-.482.385l-.077.041a4.653,4.653,0,0,0,.537-.465s.035-.053-.036.011a.773.773,0,0,1-.339.16c-.08,0,0-.11,0-.11a2.394,2.394,0,0,1,.352-.341.683.683,0,0,1,.435-.179s.042.008.049-.052a.743.743,0,0,1,.06-.168,3.4,3.4,0,0,1,.325-.535,2.817,2.817,0,0,1,.344-.427,3.161,3.161,0,0,0,.471-.634s.113-.2-.072-.05a2,2,0,0,1-.669.391.192.192,0,0,1-.262-.163.866.866,0,0,1,.2-.65.955.955,0,0,1,.716-.275.786.786,0,0,0,.43-.306,1.572,1.572,0,0,0,.251-.738,1.083,1.083,0,0,0-.028-.548v-.126h-.072a.178.178,0,0,0-.026-.03,1.149,1.149,0,0,0-.119-.1.694.694,0,0,1-.207-.284,2.142,2.142,0,0,1-.154-1c.044-.592.537-.537.537-.537s.287.028.342-.058a.84.84,0,0,0,.127-.432A1.137,1.137,0,0,0,45,10.291a.225.225,0,0,0-.2-.138c-.168-.019-.2.033-.2.033s-.05.014-.14.212-.146.289-.311.331a.412.412,0,0,1-.5-.193,8.185,8.185,0,0,1-.457-1.123L43.2,9.27l-.063-.092q-.018-.12-.025-.24a2.556,2.556,0,0,0-.124-.622,4.625,4.625,0,0,0-.325-.661c-.063-.13-.121-.185-.2-.174a.5.5,0,0,1-.1.011c-.033,0-.052.041-.063.083a.668.668,0,0,1-.215.352.8.8,0,0,1-.474.165s-.289.019-.518-.408a1.115,1.115,0,0,1-.152-.8.347.347,0,0,1,.24-.27L41.4,6.58l.311-.014c.107-.014.055-.2.055-.2a1.643,1.643,0,0,0-.456-.84l-.01-.09-.147-.074c-.366-.4-.847-1.041-.847-1.041a.376.376,0,0,1-.033-.485.312.312,0,0,1,.339-.154l.16.039a.243.243,0,0,0,.287-.077A.343.343,0,0,0,41,3.291c-.138-.2-.179-.339-.347-.328a.19.19,0,0,0-.155.075.728.728,0,0,1-.391.151.766.766,0,0,1-.614-.4l-.169-.31.046-.066.14.015.188.352a.466.466,0,0,0,.267.245.419.419,0,0,0,.278-.055c.074-.041.149-.135.278-.143a.561.561,0,0,1,.449.154,1.063,1.063,0,0,1,.284.57c-.014.137-.022.273-.2.331a.531.531,0,0,1-.366-.017c-.113-.025-.168-.014-.215.041a.322.322,0,0,0-.08.226.961.961,0,0,0,.146.245c.11.157.675.827.784.927l-.03.136.188.034a3.177,3.177,0,0,1,.328.44,1.6,1.6,0,0,1,.152.584.243.243,0,0,1-.058.187s-.063.1-.391.1c-.295,0-.314.058-.314.058a.4.4,0,0,0-.072.314,1.124,1.124,0,0,0,.3.655c.152.165.438,0,.535-.057a.535.535,0,0,0,.16-.246.264.264,0,0,1,.278-.237.449.449,0,0,1,.383.256,3.227,3.227,0,0,1,.377.8,2.124,2.124,0,0,1,.111.444l.03.333-.1.173.142.06a2.721,2.721,0,0,0,.133.4l.281.639a.225.225,0,0,0,.245.157s.165.022.226-.055a1.171,1.171,0,0,0,.119-.212s.13-.352.416-.322.358.212.408.422a1.35,1.35,0,0,1-.094.884c-.156.256-.328.221-.328.221s-.355-.033-.433.041a.4.4,0,0,0-.132.314,1.78,1.78,0,0,0,.146.793c.123.3.223.265.278.336a.817.817,0,0,1,.215.637,2.335,2.335,0,0,1-.308,1.058,1.389,1.389,0,0,1-.388.4.592.592,0,0,1-.209.063,1.421,1.421,0,0,0-.493.1.555.555,0,0,0-.209.383c-.016.091-.022.3.179.275a1.352,1.352,0,0,0,.5-.273s.289-.215.328-.146-.124.347-.124.347a5.329,5.329,0,0,1-.369.491,4.731,4.731,0,0,0-.473.6Z" transform="translate(-27.14 -1.662)" opacity="0.1" fill="url(#linear-gradient)"/>
    <path id="Path_36416" d="M11.585,17.582h.032A.581.581,0,0,0,11.5,17.5c-.136-.072-.726-.462-.908-.585s-.5-.331-.641-.287c-.108.033-.092.077-.156.108s-.134.011-.292-.075a2.157,2.157,0,0,1-.587-.436c-.242-.23.31-.021.31-.021s.121.051.067-.075a3.925,3.925,0,0,0-.583-.718,3.914,3.914,0,0,1-.473-.577l-.11-.129v-.032l-.011-.015a2.516,2.516,0,0,1-.326-.9s.013-.161.241-.231c.159-.049.138.1.6.19,0,0,.4.108.508-.184a.925.925,0,0,0-.11-.66s-.282-.517-.631-.536c-.185-.011-.134.114-.413.179,0,0-.372.036-.49-.187a1.711,1.711,0,0,1-.2-.782,1.018,1.018,0,0,1,.023-.267,1.427,1.427,0,0,0,.05-.219l-.026-.13.042-.1V10.67L7.3,9.568c-.043-.29-.125-.739-.387-.751,0,0-.13-.01-.318.172-.172.166-.328-.138-.334-.324a1.247,1.247,0,0,1,.079-.544.257.257,0,0,1,.231-.108.651.651,0,0,1,.2.092.25.25,0,0,0,.3-.018.7.7,0,0,0,.229-.5,4.816,4.816,0,0,0,0-1.111l-.044-.094.261-.056a.113.113,0,0,0-.006-.037V6.132L7.5,6.072V5.717a.972.972,0,0,1,.057-.341l.011-.032A2.12,2.12,0,0,1,7.8,4.866.352.352,0,0,1,8,4.713a.671.671,0,0,1,.266.039h.277l.007-.007a.856.856,0,0,0,.157-.153l.008-.01.009-.012.009-.012.03-.058.006-.01.012-.021.009-.016V4.428l.021-.042a.717.717,0,0,0-.041-.627,1.8,1.8,0,0,0-.2-.172.193.193,0,0,0-.21,0c-.1.051-.138.039-.138.039a1.2,1.2,0,0,1,.1-.44c.066-.161.209-.438.209-.438a5.183,5.183,0,0,0,.285-.562,1.146,1.146,0,0,0,.09-.386l-.178-.228a.139.139,0,0,0-.053-.043.414.414,0,0,1-.067.02l.033-.027A.22.22,0,0,1,8.85,1.46a.308.308,0,0,0,.218-.024,1.269,1.269,0,0,0,.321-.425L9.581.622,9.42.362a.615.615,0,0,0-.19.051,2.88,2.88,0,0,1-.336.6s-.073.107-.129.081a.288.288,0,0,0-.177-.017.681.681,0,0,0-.379.275c-.154.207-.172.362-.089.408s.2-.015.276-.079.124-.094.147-.091.018.061.013.08a2.25,2.25,0,0,1-.316.761l-.208.4.118.087-.194.1a1.226,1.226,0,0,0-.092.507.238.238,0,0,0,.226.2.571.571,0,0,0,.261-.068c.141-.073.173.241.173.293a.6.6,0,0,1-.2.475.341.341,0,0,1-.192.061.493.493,0,0,1-.186-.033.479.479,0,0,0-.309.016,1.085,1.085,0,0,0-.369.422,2.026,2.026,0,0,0-.2.855,4.146,4.146,0,0,0,.056.56l.13.085-.1.109.03.8c0,.177-.03.553-.217.64,0,0-.063.033-.169-.046a.457.457,0,0,0-.266-.085.368.368,0,0,0-.329.255,1.8,1.8,0,0,0-.056.7c.017.177.17.48.364.48a.287.287,0,0,0,.205-.108c.111-.114.175-.124.225-.122s.146.053.209.554a9.127,9.127,0,0,1,.08,1.3l.118.076-.148.149-.028.122a1.251,1.251,0,0,0,0,.5,1.58,1.58,0,0,0,.341.851.756.756,0,0,0,.567.154.46.46,0,0,0,.277-.139.154.154,0,0,1,.133-.046.776.776,0,0,1,.4.405c.138.277.169.582-.062.636a1.208,1.208,0,0,1-.626-.164.4.4,0,0,0-.41.013c-.185.139-.188.351-.1.613a3.876,3.876,0,0,0,.294.62l.14.059-.037.107a2.667,2.667,0,0,0,.326.41l.746.867s.015.03-.031,0a.837.837,0,0,0-.354-.11c-.108.011-.088.077-.088.077s.046.244.78.654a1.2,1.2,0,0,0,.431.149s.054.007.121-.067.088-.066.134-.051a1.516,1.516,0,0,1,.339.215c.231.167.68.423.841.531s.154.128.121.2.116.121.116.121a1.918,1.918,0,0,0,.57.164,2.109,2.109,0,0,1,.408,0l.262.067c.013.011-.061.007-.061.007l-.485-.041c-.025.013,0,.035.192.084l.736.1a5.41,5.41,0,0,1-.743-.139s-.025-.015.033,0a2.773,2.773,0,0,0,.479.03c.087-.013-.018-.054-.018-.054a1.78,1.78,0,0,0-.561-.113,2.081,2.081,0,0,0-.292,0,.606.606,0,0,1-.274-.051s-.2-.062-.152-.126a.091.091,0,0,0,.012-.1Z" transform="translate(-4.234 -0.249)" opacity="0.54" fill="url(#linear-gradient-2)"/>
    <path id="Path_36417" d="M28.6,20.579l-.086.126a.253.253,0,0,1-.049.218c-.031.05-.115.115-.073.23s.328.078.493.028l.415-.135c.109-.039.14.017.14.017s.048.033-.112.118a1.971,1.971,0,0,1-.594.14.752.752,0,0,0-.308.065c-.21.073-.014.137-.014.137a1.654,1.654,0,0,0,.815.022l.064-.019.156-.048a1.744,1.744,0,0,1-.727.018c-.084-.011-.152-.028-.171-.07s.092-.039.092-.039a3.646,3.646,0,0,0,.631-.134c.3-.1.376-.191.364-.261s-.167-.063-.347-.006l-.518.16c-.063.014-.135.011-.157-.028a.136.136,0,0,1,.028-.177.272.272,0,0,0,.078-.135.465.465,0,0,0,0-.156l-.125-.073.106-.021a1.9,1.9,0,0,0-.249-.5c-.061-.1-.163-.154-.465-.1a3.453,3.453,0,0,0-.658.2,1.34,1.34,0,0,1-.641.157.4.4,0,0,1-.328-.4c0-.087.059-.163.2-.219a3.521,3.521,0,0,1,.97-.156.815.815,0,0,0,.673-.345.279.279,0,0,0-.1-.454,3.522,3.522,0,0,1-.412-.216.9.9,0,0,1-.33-.4l-.021-.057-.165-.108.08-.073-.135-.247a.732.732,0,0,1-.048-.72,1.048,1.048,0,0,1,.532-.457,1.494,1.494,0,0,1,.583,0,.515.515,0,0,0,.415-.042s.168-.073.218-.409,0-.961-.451-1.085a.716.716,0,0,0-.686.109,2.505,2.505,0,0,1-.319.306l-.2.109a1.28,1.28,0,0,1-.283.126c-.076.017-.348-.345-.375-.622a5.2,5.2,0,0,1-.059-.991l-.095-.122.1-.1a2.4,2.4,0,0,0-.231-1.257A1.253,1.253,0,0,0,25.694,12a.946.946,0,0,0-.616-.017.471.471,0,0,0-.314.258c-.073.126-.163.118-.163.118s-.278.008-.367-.415c-.125-.593.07-.785.07-.785a.377.377,0,0,1,.266-.12,1.15,1.15,0,0,1,.493.061.614.614,0,0,0,.47-.073.443.443,0,0,0,.241-.532,6.666,6.666,0,0,0-.288-1.16l-.17-.089.113-.113a6.245,6.245,0,0,1-.245-1.354c-.021-.188.01-.251.116-.3a.755.755,0,0,1,.376-.024.647.647,0,0,0,.359-.062.468.468,0,0,0,.292-.42.961.961,0,0,0-.38-.651.467.467,0,0,0-.5.025c-.118.087-.164.2-.236.236s-.174.118-.282.092-.113-.266-.159-.539l-.064-.385-.132-.05c.008.108.1.643.1.643l.06.329.061.2a.171.171,0,0,0,.089.1.461.461,0,0,0,.339-.006.493.493,0,0,0,.233-.183l.084-.1a.306.306,0,0,1,.288-.067.522.522,0,0,1,.25.239l.006.011a.546.546,0,0,1,.076.247v0s0,.059-.136.159a.417.417,0,0,1-.326.086.822.822,0,0,0-.155-.009l-.14.007a.6.6,0,0,0-.238.079c-.35.207.143,1.806.143,1.806l-.054.119.176.657a5.14,5.14,0,0,1,.121.566.211.211,0,0,1-.062.2.793.793,0,0,1-.277.109.5.5,0,0,1-.194-.039.759.759,0,0,0-.179-.036,1.083,1.083,0,0,0-.446.033.638.638,0,0,0-.417.6,1.3,1.3,0,0,0,.1.7.625.625,0,0,0,.479.412.448.448,0,0,0,.376-.2l.115-.146a.822.822,0,0,1,.516-.033,1,1,0,0,1,.53.521,2.39,2.39,0,0,1,.142,1.043l.113.087-.119.137v.148a2.854,2.854,0,0,0,.14,1.141,1.038,1.038,0,0,0,.339.451.425.425,0,0,0,.393,0l.378-.2c.146-.093.14-.132.317-.292a.506.506,0,0,1,.4-.117.42.42,0,0,1,.339.255,1.271,1.271,0,0,1,.067.734c-.031.129-.087.213-.207.191A3.7,3.7,0,0,0,28,16.242a1.7,1.7,0,0,0-.465.039,1.132,1.132,0,0,0-.664.561.788.788,0,0,0-.051.7c.033.09.123.215.2.369l.148.049-.068.128a1.237,1.237,0,0,0,.254.418,1.481,1.481,0,0,0,.56.333c.235.09.129.249.129.249-.135.292-.535.3-.653.317l-.594.087a1.008,1.008,0,0,0-.574.23c-.129.149-.078.3,0,.465a.544.544,0,0,0,.555.238,1.588,1.588,0,0,0,.625-.165,5.416,5.416,0,0,1,.546-.182c.087-.025.2-.076.292.051a1.978,1.978,0,0,1,.239.477Z" transform="translate(-16.548 -3.936)" opacity="0.3" fill="url(#linear-gradient-3)"/>
    <path id="Path_36418" d="M17.674,3.325l.064.08.054.1.553.835s.146.187.176.188-.016-.146-.016-.146-.052-.19.1.058a2.861,2.861,0,0,1,.257.529c.022.07.008.08.008.08a.068.068,0,0,0-.028.064,1.293,1.293,0,0,0,.1.323l.4,1.082c.1.319.22.85.22.85a2.015,2.015,0,0,1,.04.228c0,.072-.012.074-.044.036a.046.046,0,0,0-.064-.014s-.034.014-.034.15.017.456.042.7a.9.9,0,0,0,.12.415s.08.12.1-.112c.021-.2.036-.044.036-.044a7.114,7.114,0,0,1,.006.964l-.01.124.026-.043A8.49,8.49,0,0,0,19.8,8.73s-.028-.258-.059-.255-.041.136-.041.136-.013.091-.03.089-.072,0-.11-.275a3.984,3.984,0,0,1-.03-.574s-.009-.03.009-.037.037.02.037.02a.035.035,0,0,0,.056.006c.03-.031.037-.121-.059-.6a7.28,7.28,0,0,0-.2-.745l-.057-.063-.011-.14-.2-.532-.165-.48s-.009-.039.013-.046.017-.035.017-.035a.825.825,0,0,0-.054-.192,2.53,2.53,0,0,0-.264-.556c-.167-.286-.218-.3-.218-.3s-.082-.046-.022.115-.015.045-.015.045c-.179-.229-.552-.835-.552-.835l-.1-.073-.1-.245M.225,7.238.189,7.31a8.066,8.066,0,0,0-.12,1.033c0,.041-.007.041-.015.035S.06,8.346.045,8.346s-.021.041-.021.041l-.011.168c.013-.021.021-.006.021-.006s-.006.024.021.011A1.026,1.026,0,0,0,.1,8.29,5.663,5.663,0,0,1,.262,7.1l.249-.828s.03-.084.027-.016.038.07.038.07c.073-.011.16-.219.246-.485a3.335,3.335,0,0,0,.13-.525c0-.021-.011-.037-.03-.027s-.024,0-.024,0a1.159,1.159,0,0,1,.07-.219,5.3,5.3,0,0,1,.605-1.107l.018-.1-.082.129a.071.071,0,0,0,0,.062l-.092.089A4.323,4.323,0,0,0,.822,5.417c0,.042,0,.063.022.059s.049-.068.023.069c-.018.091-.1.334-.135.43s-.07.165-.1.161S.609,6.09.609,6.09.6,5.99.532,6.138a5.647,5.647,0,0,0-.277.9l-.018.074Zm.641,5.821c-.029-.078-.051-.14-.035-.113a.649.649,0,0,0,.09.141c.051.056.086-.042-.121-.6s-.263-.591-.273-.6-.042-.046-.033.033,0,.128-.1-.223A9.152,9.152,0,0,1,.2,10.7L.119,10a5.874,5.874,0,0,1-.04-.832A.262.262,0,0,0,.055,9c-.01-.006-.018.009-.025.055s0,.077-.013.075S0,9.043,0,9.043v.13l.007.078c.006.116.025.069.026.048L.04,9.235s.02-.172.016,0,.046.887.046.887l.013.142.012.018-.008.02.155.989a3.841,3.841,0,0,0,.254.827c.038.079.046.017.033-.053s.106.134.17.326l.108.353s.05.152.028.161S.81,12.848.81,12.848s-.092-.163-.053-.042c.077.24.313.743.313.743l.271.481-.474-.975Zm.474.975.039.07Zm2.614-12.6a.337.337,0,0,0-.047.1.223.223,0,0,0,.036-.046.106.106,0,0,0,.011-.054Zm-.682.525a.283.283,0,0,0-.131.049.444.444,0,0,0,.131-.045ZM16.261,1.83a.169.169,0,0,1,.067,0c.019.01.013-.031.013-.031a.566.566,0,0,1-.063-.108.583.583,0,0,0-.119-.02l-.006.007a.152.152,0,0,0,0,.058s.092.071.11.09Zm.677.578.018-.03-.043-.132V2.239c0,.013-.01.024-.033.022,0,0-.019-.006,0,.038a.617.617,0,0,0,.064.108Zm2.738,8.416.089-.854.009-.1-.021-.047-.182,1.5.006-.02.1-.48Z" transform="translate(0 -0.992)" fill="#232323" opacity="0.1"/>
    <path id="Path_36419" d="M48.092,52.351s.13-.127.1-.146-.121.05-.121.05l-.036.027.077-.049a.225.225,0,0,1-.069.108l-.05.048a5.75,5.75,0,0,1-.464.389l.077-.041a2.966,2.966,0,0,0,.482-.385Z" transform="translate(-32.804 -36.026)" opacity="0.5" fill="url(#linear-gradient-4)"/>
    <path id="Path_36420" d="M43.316,9.274l.1-.173-.024-.324a2.124,2.124,0,0,0-.11-.443,3.233,3.233,0,0,0-.377-.8.449.449,0,0,0-.383-.256.264.264,0,0,0-.278.237.528.528,0,0,1-.16.245c-.1.056-.383.223-.535.058a1.123,1.123,0,0,1-.3-.655.4.4,0,0,1,.071-.314s.02-.058.314-.058c.331,0,.391-.1.391-.1A.243.243,0,0,0,42.08,6.5a1.583,1.583,0,0,0-.152-.584,3.135,3.135,0,0,0-.327-.44l-.188-.035.03-.136c-.108-.1-.674-.77-.784-.927a.95.95,0,0,1-.146-.245.32.32,0,0,1,.08-.226c.047-.055.1-.066.215-.041a.534.534,0,0,0,.367.017c.179-.057.187-.193.2-.33a1.061,1.061,0,0,0-.284-.57.558.558,0,0,0-.449-.154c-.13.009-.2.1-.279.143a.42.42,0,0,1-.278.055.464.464,0,0,1-.267-.245l-.19-.354-.139-.015a2.222,2.222,0,0,0,.317.547.49.49,0,0,0,.438.179.563.563,0,0,0,.3-.15A.328.328,0,0,1,40.938,3a1.363,1.363,0,0,1,.287.414.33.33,0,0,1-.069.4.308.308,0,0,1-.329.017.294.294,0,0,0-.387.119.282.282,0,0,0,.015.337,12.732,12.732,0,0,0,.956,1.156,1.732,1.732,0,0,1,.521.844c.071.252.015.37-.1.393s-.223,0-.406.036-.262.071-.3.322a1.112,1.112,0,0,0,.325.848.48.48,0,0,0,.536.044.532.532,0,0,0,.327-.394.162.162,0,0,1,.165-.14.308.308,0,0,1,.165.023c.056.037.123.1.273.364a2.972,2.972,0,0,1,.335.922c.052.31.013.354.063.573a5.415,5.415,0,0,0,.285.792l.192.41c.04.087.1.152.281.156s.248-.044.3-.129a2.826,2.826,0,0,0,.139-.256.33.33,0,0,1,.223-.2.339.339,0,0,1,.41.233,1.119,1.119,0,0,1-.03.875c-.127.26-.22.167-.477.185a.44.44,0,0,0-.346.179,1.3,1.3,0,0,0-.056.754,1.26,1.26,0,0,0,.315.693.617.617,0,0,1,.21.244.978.978,0,0,1,.042.644,1.506,1.506,0,0,1-.363.879l-.014.012-.042.039c-.1.1-.072.106-.173.155a1.271,1.271,0,0,1-.381.071.684.684,0,0,0-.406.16.66.66,0,0,0-.19.62c.029.192.257.114.434.022a.536.536,0,0,1-.155.048c-.2.022-.193-.185-.179-.275a.538.538,0,0,1,.209-.383,1.4,1.4,0,0,1,.493-.1.55.55,0,0,0,.209-.063,1.384,1.384,0,0,0,.388-.4,2.339,2.339,0,0,0,.309-1.058.816.816,0,0,0-.215-.637c-.055-.072-.155-.04-.278-.336a1.794,1.794,0,0,1-.146-.793.392.392,0,0,1,.132-.314c.08-.074.432-.041.432-.041s.173.035.328-.22a1.36,1.36,0,0,0,.094-.884c-.05-.209-.121-.391-.407-.422s-.416.322-.416.322a1.2,1.2,0,0,1-.118.212c-.06.077-.226.055-.226.055a.225.225,0,0,1-.245-.157L43.6,9.728a2.757,2.757,0,0,1-.134-.4Z" transform="translate(-27.253 -1.666)" opacity="0.5" fill="url(#linear-gradient-5)"/>
    <path id="Path_36421" d="M49.162,45.962l.164-.092a4.821,4.821,0,0,1,.473-.6,5.254,5.254,0,0,0,.369-.491s.162-.278.124-.347c-.025-.045-.159.032-.247.09l.039-.021s.158-.094.125.013a1.7,1.7,0,0,1-.267.462,1.6,1.6,0,0,1-.151.186l-.123.137-.011.01-.324.4-.011.014-.147.218-.007.012-.005.007-.11.187-.007.017-.077.209c-.027.079-.021.106-.121.121a.543.543,0,0,0-.2.039,1.557,1.557,0,0,0-.182.111l-.016.012a2.775,2.775,0,0,0-.3.279l-.029.038s-.031.033.01.037a.452.452,0,0,0,.2-.033l.017-.011a.2.2,0,0,1-.1.031c-.077-.005.094-.168.094-.168a.789.789,0,0,1,.345-.228.488.488,0,0,0,.281-.135c.083-.063.1-.132.265-.438L49.249,46Z" transform="translate(-33.203 -30.653)" opacity="0.5" fill="url(#linear-gradient-6)"/>
    <path id="Path_36422" d="M27.437,17.965l.079-.073-.135-.246a.733.733,0,0,1-.048-.72,1.042,1.042,0,0,1,.535-.455,1.5,1.5,0,0,1,.583,0,.515.515,0,0,0,.415-.042s.169-.073.219-.409,0-.961-.451-1.085a.717.717,0,0,0-.686.109,2.5,2.5,0,0,1-.319.306l-.2.109a1.267,1.267,0,0,1-.283.126c-.076.017-.348-.345-.375-.622a5.19,5.19,0,0,1-.059-.989l-.095-.125.1-.1a2.415,2.415,0,0,0-.231-1.257,1.226,1.226,0,0,0-.538-.48A.961.961,0,0,0,25.337,12a.473.473,0,0,0-.314.258c-.073.126-.162.118-.162.118s-.278.008-.368-.415c-.125-.593.07-.785.07-.785a.378.378,0,0,1,.266-.12,1.143,1.143,0,0,1,.493.062.615.615,0,0,0,.471-.073.443.443,0,0,0,.241-.532,6.548,6.548,0,0,0-.288-1.16l-.17-.089.113-.113A6.3,6.3,0,0,1,25.445,7.8c-.02-.19.01-.251.116-.3a.748.748,0,0,1,.376-.024.646.646,0,0,0,.359-.062.468.468,0,0,0,.292-.42.961.961,0,0,0-.38-.651.466.466,0,0,0-.5.026c-.118.087-.164.2-.236.236s-.174.118-.282.092-.113-.267-.159-.539l-.066-.387-.131-.05c.008.108.1.643.1.643l.06.329.016.056a.206.206,0,0,0,.183.1.508.508,0,0,0,.394-.138c.05-.047.167-.178.167-.178A.226.226,0,0,1,26,6.43a.369.369,0,0,1,.273.2c.032.047.305.381.131.556l-.03.028a.673.673,0,0,1-.086.078.415.415,0,0,1-.326.086L25.8,7.37l-.14.007a.6.6,0,0,0-.238.079c-.35.207.143,1.806.143,1.806l.189.579a4.276,4.276,0,0,1,.154.635c.058.319-.045.407-.1.438a.813.813,0,0,1-.344.117c-.152.007-.2-.071-.461-.084a.59.59,0,0,0-.518.176.938.938,0,0,0-.131.661.886.886,0,0,0,.212.535.327.327,0,0,0,.385.136c.154-.052.148-.147.228-.226a.466.466,0,0,1,.4-.16.723.723,0,0,1,.5.152,1.2,1.2,0,0,1,.446.653,2.731,2.731,0,0,1,.082.715l-.012.852a2.3,2.3,0,0,0,.112.738,1.217,1.217,0,0,0,.272.424.232.232,0,0,0,.267.049,3.367,3.367,0,0,0,.459-.258c.166-.108.155-.193.306-.292a.659.659,0,0,1,.48-.1.535.535,0,0,1,.407.368,1.671,1.671,0,0,1,.07.521.72.72,0,0,1-.087.365.3.3,0,0,1-.316.107c-.068-.013-.213-.026-.213-.026a1.747,1.747,0,0,0-.5.018,1.021,1.021,0,0,0-.531.369.8.8,0,0,0-.192.417.847.847,0,0,0,.125.5,5.794,5.794,0,0,1,.274.55,1.134,1.134,0,0,0,.428.429,2.109,2.109,0,0,1,.368.185.2.2,0,0,1,.08.235.516.516,0,0,1-.312.312,2.245,2.245,0,0,1-.68.121,2.529,2.529,0,0,0-.719.162.3.3,0,0,0-.189.283.406.406,0,0,0,.26.386.915.915,0,0,0,.622-.046l.289-.114.535-.165c.187-.042.3-.063.426.162a1.321,1.321,0,0,1,.209.51.338.338,0,0,1-.09.278c-.049.055-.042.089-.042.089-.021.17.23.146.23.146h.022c-.051,0-.1,0-.115-.034a.136.136,0,0,1,.028-.176.276.276,0,0,0,.079-.135,1.224,1.224,0,0,0-.263-.751c-.062-.1-.163-.154-.465-.1a3.512,3.512,0,0,0-.658.2,1.343,1.343,0,0,1-.642.157.4.4,0,0,1-.328-.4c0-.087.059-.163.2-.218a3.522,3.522,0,0,1,.969-.157.815.815,0,0,0,.673-.345.279.279,0,0,0-.1-.455,3.776,3.776,0,0,1-.412-.215.879.879,0,0,1-.331-.4.21.21,0,0,0-.021-.057Z" transform="translate(-16.805 -3.943)" opacity="0.92" fill="url(#linear-gradient-7)"/>
    <path id="Path_36423" d="M57.313,7.855l.553.835.1.118a.416.416,0,0,0-.011-.121l-.018-.054c0-.071.085.021.119.056-.1-.147-.129-.158-.129-.158s-.082-.046-.021.115-.015.045-.015.045c-.179-.229-.552-.835-.552-.835l-.108-.074Zm1.855,7.388.007-.037v-.017Zm-.14-3.048c.017-.006.037.02.037.02a.036.036,0,0,0,.056.006c.021-.02.03-.068,0-.244a.27.27,0,0,1-.027.115c-.027.058-.061,0-.086-.015s-.033.014-.033.014v.031q.007.352.042.7a1.273,1.273,0,0,0,.056.274l.008.015c.017.029.037.067.06.05a.4.4,0,0,0,.054-.113l.025-.115c.037.022.056.1.066.187v-.011s-.028-.258-.059-.256-.041.136-.041.136-.013.091-.03.089-.072,0-.11-.275a3.984,3.984,0,0,1-.03-.574s-.008-.03.009-.037Zm-.219-1.383.058.066c.093.292.194.747.212.829l-.017-.084a7.282,7.282,0,0,0-.2-.745l-.057-.063-.01-.137-.2-.535-.167-.48s-.008-.039.013-.046.017-.035.017-.035A.825.825,0,0,0,58.4,9.39a2.516,2.516,0,0,0-.129-.312,2.127,2.127,0,0,1,.1.245l.006.013a.184.184,0,0,1,.013.107c-.006.078-.029.088-.029.088v.027a1.945,1.945,0,0,0,.081.231l.34.883Z" transform="translate(-39.497 -5.37)" fill="#232323" opacity="0.1"/>
    <path id="Path_36424" d="M26.715,57.083l.368.077a1.931,1.931,0,0,0-.368-.077Z" transform="translate(-18.437 -39.394)" fill="url(#linear-gradient-8)"/>
    <path id="Path_36425" d="M8.341,21.8v-.032l-.011-.015a2.514,2.514,0,0,1-.326-.9s.013-.161.241-.231c.159-.049.138.1.605.19,0,0,.4.108.508-.184a.925.925,0,0,0-.11-.66s-.282-.517-.631-.536c-.185-.011-.135.114-.413.179,0,0-.372.036-.49-.187a1.779,1.779,0,0,1-.2-.782.832.832,0,0,1,.024-.274,1.32,1.32,0,0,0,.048-.212l-.026-.131.042-.1v-.161l-.083-1.1c-.043-.29-.125-.739-.387-.751,0,0-.13-.01-.318.172-.172.166-.327-.138-.336-.324a1.247,1.247,0,0,1,.079-.544.257.257,0,0,1,.231-.108.647.647,0,0,1,.2.092.25.25,0,0,0,.3-.018.7.7,0,0,0,.228-.5,4.833,4.833,0,0,0,0-1.111L7.48,13.47l.261-.056a.122.122,0,0,0-.006-.038V12.81a.979.979,0,0,1,.056-.34l.011-.032a2.162,2.162,0,0,1,.224-.48.352.352,0,0,1,.24-.159.664.664,0,0,1,.266.039h.283a.837.837,0,0,0,.156-.152l.008-.01.009-.012L9,11.652l.021-.031.006-.01L9,11.574v-.011l.009-.016v-.034l.019-.04a.719.719,0,0,0-.041-.627,1.8,1.8,0,0,0-.2-.171.178.178,0,0,0-.146-.028.17.17,0,0,1,.188.108.761.761,0,0,1-.228.887c-.218.165-.374.021-.561.025a.433.433,0,0,0-.352.225,1.665,1.665,0,0,0-.257.985l.063,1.081a2.24,2.24,0,0,1-.124,1.027c-.158.253-.317.126-.428.06a.3.3,0,0,0-.339.025c-.1.073-.162.218-.167.646,0,.46.3.507.3.507s.057.029.184-.1c0,0,.127-.133.244-.117s.193.139.244.352a9.6,9.6,0,0,1,.139,1.686c-.007.247-.121.25-.07.7a1.867,1.867,0,0,0,.272.8.65.65,0,0,0,.526.146.39.39,0,0,0,.136-.051l.1-.073a.2.2,0,0,1,.2-.054,1.041,1.041,0,0,1,.5.5c.177.326.1.646-.051.685a.567.567,0,0,1-.383-.009,1.844,1.844,0,0,1-.381-.149.292.292,0,0,0-.3.023c-.1.073-.262.2-.067.646a3.141,3.141,0,0,0,.7,1.092,4.226,4.226,0,0,1-.278-.364Z" transform="translate(-4.453 -7.345)" fill="url(#linear-gradient-9)"/>
    <path id="Path_36426" d="M13.851,4.271h-.01Z" transform="translate(-9.552 -2.948)" fill="url(#linear-gradient-10)"/>
    <path id="Path_36427" d="M28.569,57.892l.076.008-.109-.015.033.007Z" transform="translate(-19.693 -39.948)" fill="url(#linear-gradient-11)"/>
    <path id="Path_36428" d="M13.514,1.189c-.126.07-.136,0-.222,0a.4.4,0,0,0-.31.2c-.111.162-.114.368.063.275a.611.611,0,0,1,.159-.113.415.415,0,0,1,.079-.034l.028-.023a.216.216,0,0,1,.209-.063.294.294,0,0,0,.218-.025A1.275,1.275,0,0,0,14.06.988L14.252.6,14.091.34a4.765,4.765,0,0,1-.269.492c-.133.2-.124.258-.307.359Z" transform="translate(-8.906 -0.235)" fill="url(#linear-gradient-12)"/>
    <path id="Path_36429" d="M12.2,5.891s-.082.368.225.31h-.017a1.2,1.2,0,0,1,.1-.44c.066-.161.209-.438.209-.438A5.093,5.093,0,0,0,13,4.761a1.157,1.157,0,0,0,.081-.377L12.9,4.155a.143.143,0,0,0-.053-.043l-.029.01a.058.058,0,0,1,.055.022c.041.06-.076.4-.076.4a5.974,5.974,0,0,1-.3.589,3.359,3.359,0,0,0-.3.764Z" transform="translate(-8.416 -2.836)" fill="url(#linear-gradient-13)"/>
    <path id="Path_36430" d="M23.569,55.787H23.6a.562.562,0,0,0-.1-.067c.036.022.1.07.06.13-.048.082-.009.089.1.168l.012.006c-.03-.021-.049-.046-.03-.07a.09.09,0,0,0,.012-.1Z" transform="translate(-16.221 -38.456)" fill="url(#linear-gradient-14)"/>
    <path id="Path_36431" d="M14.826,49.96c-.242-.23.31-.021.31-.021s.121.051.067-.075a3.5,3.5,0,0,0-.495-.626l.028.03s.456.529.425.577-.216-.063-.216-.063-.272-.1-.235.025a1.043,1.043,0,0,0,.3.321l-.184-.167Z" transform="translate(-10.149 -33.981)" fill="url(#linear-gradient-15)"/>
    <path id="Path_36432" d="M16.685,52.812a1.534,1.534,0,0,0,.266.131.309.309,0,0,0,.26-.022c.1-.079.1-.117.241-.047a3.653,3.653,0,0,1,.464.281c.191.143.692.454.855.543-.149-.081-.722-.46-.9-.581s-.5-.33-.641-.287c-.108.033-.092.077-.156.108s-.134.011-.292-.074l-.094-.051Z" transform="translate(-11.515 -36.447)" fill="url(#linear-gradient-16)"/>
    <path id="Path_36433" d="M24.476,56.9a.324.324,0,0,0,.153.007.63.63,0,0,1-.263-.052l-.032-.011A1.093,1.093,0,0,0,24.476,56.9Z" transform="translate(-16.794 -39.229)" fill="url(#linear-gradient-17)"/>
    <path id="Path_36434" d="M26.713,57.382l-.377-.032s-.007.012.042.031c0,0-.006-.009.037,0a2.773,2.773,0,0,0,.479.031c.087-.013-.018-.054-.018-.054a.447.447,0,0,0-.052-.02.165.165,0,0,1-.113.044Z" transform="translate(-18.175 -39.57)" fill="url(#linear-gradient-18)"/>
    <g id="Group_31534" transform="translate(0 0.101)">
      <path id="Path_36435" d="M.831,12.18a.654.654,0,0,0,.09.141c.029.031.052.015.031-.1a.917.917,0,0,1-.09-.072c-.022,0-.051-.058-.051-.058s-.092-.163-.053-.042c.077.24.313.743.313.743l.271.481L.868,12.3c-.029-.079-.051-.141-.035-.113Zm-.6-5.707.006-.125.017-.07.277-.9C.6,5.219.6,5.326.6,5.326s0,.041.027.046.063-.062.1-.161l.135-.43c.026-.137-.01-.07-.022-.069s-.026-.018-.024-.06a4.445,4.445,0,0,1,.6-1.276L1.5,3.288c-.011-.01-.006-.051,0-.062L1.586,3.1l-.017.1a5.347,5.347,0,0,0-.6,1.1,1.332,1.332,0,0,0-.07.213c0,.03-.02.144.03.113L.937,4.62a3.988,3.988,0,0,1-.118.452,2.22,2.22,0,0,1-.164.4c-.015.013-.021,0-.029-.041S.6,5.4.6,5.4c-.035,0-.063.039-.08.07a.219.219,0,0,0-.012.03,4.943,4.943,0,0,0-.249.829A5.737,5.737,0,0,0,.1,7.526a1.1,1.1,0,0,1-.041.268C.03,7.808.034,7.783.034,7.783s-.009-.011-.022.009l.008-.17s.008-.04.021-.04,0,.024.009.031.017.006.015-.035a8.02,8.02,0,0,1,.12-1.033ZM0,8.281a.3.3,0,0,0,.008.068c.015.069.036.069.036.069A.291.291,0,0,1,.08,8.329a.539.539,0,0,1,0,.073,5.557,5.557,0,0,0,.041.832l.077.7a9.2,9.2,0,0,0,.2.989L.49,11.2v.01a.2.2,0,0,0,.068.062.115.115,0,0,0,.022-.08l.011.021a.549.549,0,0,0-.02.083c-.008-.008-.012-.006-.009.009.013.069,0,.132-.033.053a3.849,3.849,0,0,1-.254-.827L.121,9.543l.009-.02L.117,9.506.1,9.364.058,8.477c0-.176-.017,0-.017,0l-.006.064c0,.021-.02.068-.026-.048C.015,8.539,0,8.333,0,8.281ZM4.723.5,4.62.351,4.607.339S4.581.312,4.433.346H4.412s.074-.018.033.037-.109.1-.228.224-.08.156,0,.13A4.408,4.408,0,0,0,4.721.5Z" transform="translate(-0.001 -0.328)" fill="#232323" opacity="0.1"/>
      <path id="Path_36436" d="M14.241.393h-.007Z" transform="translate(-9.824 -0.373)" fill="#232323" opacity="0.1"/>
      <path id="Path_36437" d="M13.74.464A.22.22,0,0,0,13.829.34s-.029-.03-.178,0h-.015c.018,0,.059-.006.026.038s-.109.1-.228.224-.08.156,0,.13l.078-.03a.963.963,0,0,1,.23-.244ZM25.379.912,25.34.958a.362.362,0,0,0,.041.027l-.01-.006a.165.165,0,0,1,0-.058l.006-.007h.028Z" transform="translate(-9.22 -0.327)" fill="#232323" opacity="0.1"/>
    </g>
    <path id="Path_36438" d="M38.542,55.326a3.679,3.679,0,0,0,.631-.134c.3-.1.376-.191.364-.261-.007-.046-.077-.059-.176-.046.053,0,.1.006.069.065a.345.345,0,0,1-.168.152.62.62,0,0,1-.173.072,2.8,2.8,0,0,1-.454.085.769.769,0,0,0-.285.056l-.013.008c-.056.046.208.1.208.1a2.066,2.066,0,0,0,.634.045h.013l.156-.048a1.737,1.737,0,0,1-.727.018c-.084-.011-.152-.028-.171-.07s.092-.039.092-.039Z" transform="translate(-26.452 -37.873)" fill="#454545"/>
    <path id="Path_36439" d="M30.114.746l.139.015L30.769.61l.369-.124a1.736,1.736,0,0,1,.322-.08,2.036,2.036,0,0,1,.332-.025A.173.173,0,0,1,31.9.4a.226.226,0,0,0,.048.052.648.648,0,0,0,.578.39c.432.022.439-.213.4-.285A.594.594,0,0,0,32.75.394,1.236,1.236,0,0,1,32.538.23c-.037-.053.007-.07.02-.073l.53-.118L32.983,0s-.021.026-.153.06a2.618,2.618,0,0,1-.339.061c-.1.013-.1.046-.1.046L32.222.44A.108.108,0,0,0,32.23.5a.276.276,0,0,0,.079.087L32.5.722c.081.053.077.073.077.073a.541.541,0,0,1-.365-.054A.444.444,0,0,1,32.035.53a.444.444,0,0,0-.1-.129.926.926,0,0,0-.547-.029,4.081,4.081,0,0,0-.569.158c-.052.02-.315.107-.449.142l-.32.091-.886.261-.359.09a.789.789,0,0,1-.427-.026c-.058-.024-.051-.1-.051-.1V.765a.157.157,0,0,0-.07-.119.733.733,0,0,0-.31-.056,1.819,1.819,0,0,0-.407.026A.643.643,0,0,0,27.2.8a.288.288,0,0,0-.094.222l.017.232a.157.157,0,0,0,.094.129c.053.023-.145.1-.592.235a4.023,4.023,0,0,1-.716.15l.131.05a3.915,3.915,0,0,0,1.39-.509s.121-.057,0-.171A1.145,1.145,0,0,0,27.256.99s-.08-.043,0-.15a.527.527,0,0,1,.263-.182A1.687,1.687,0,0,1,28.088.64s.1.008.089.079l-.015.2a.217.217,0,0,0,.078.164.52.52,0,0,0,.214.088,1.353,1.353,0,0,0,.553-.042L30.069.81Z" transform="translate(-17.88 -0.001)" fill="#232323" opacity="0.1"/>
    <path id="Path_36440" d="M29.9,3.45c.06.04.093.043.1.082.011.066-.108.125-.108.125a.156.156,0,0,1-.094-.129L29.772,3.3a.13.13,0,0,0,.009.051.384.384,0,0,0,.115.106Z" transform="translate(-20.546 -2.275)" fill="#616161"/>
    <path id="Path_36441" d="M27.436,46.074l.088.033.342-.187.576-.361s.148-.1.023.038l-.188.2s-.122.122-.091.152c0,0,.033.048.232-.133a4.514,4.514,0,0,0,.442-.475.181.181,0,0,0,.029-.057.351.351,0,0,1,.053-.076l.388-.412.158-.214-.483.522-.183.205a.174.174,0,0,0-.044.091.874.874,0,0,1-.076.1c-.053.063-.241.23-.241.23a.592.592,0,0,1-.146.093c-.034,0,.083-.1.083-.1l.188-.219c.074-.1.026-.091.026-.091s-.036-.009-.192.089l-.266.167-.548.315a10.56,10.56,0,0,1-.977.485c-.277.114-.42.139-.4.1a.582.582,0,0,1,.089-.089.271.271,0,0,0,.078-.156s.025-.114-.312-.043a2.686,2.686,0,0,0-.641.236s-.5.23-.382.367c0,0,.023.036.123.068S25,47.07,25,47.07a5.95,5.95,0,0,1-.728.18l-.859.185a5.461,5.461,0,0,0-.627.209,7.794,7.794,0,0,1-1.161.278,1.922,1.922,0,0,0-.54.122c-.046.065.034.1.034.1a.793.793,0,0,0,.325.055.4.4,0,0,1,.091.007c0,.007.009.013-.046.03a2.465,2.465,0,0,1-.54.108c-.376.048-.369-.013-.369-.013a.069.069,0,0,1,.015-.042c.017-.027,0-.072-.057-.1a.724.724,0,0,0-.356-.051c-.274,0-.819,0-1.329-.027l-1.186-.13a.1.1,0,0,1-.04-.023c-.017-.017-.126-.082-.226-.143a4.073,4.073,0,0,0-.4-.177s-.391-.152-.378-.1c0,.012.025.03.052.048l.206.108s-.144-.078-.1-.078a.238.238,0,0,1,.085.021,2.721,2.721,0,0,1,.382.133,2.057,2.057,0,0,1,.274.161,1.363,1.363,0,0,0,.451.143l.734.087.116-.053.084.069.5.029h.9c.143-.012.1.062.1.062a.068.068,0,0,0,.04.1,1.239,1.239,0,0,0,.65.03c.5-.055.61-.168.61-.168s.058-.054-.068-.078a1.619,1.619,0,0,0-.228-.021c-.129-.011-.194-.04-.108-.063a1.629,1.629,0,0,1,.228-.034s.438-.061.791-.152c0,0,.377-.089.751-.22l.367-.116.084-.125.125.073h.02l.637-.137a4.1,4.1,0,0,0,.795-.211c.181-.088.271-.156.293-.209s-.076-.083-.076-.083-.114-.027-.1-.066.057-.074.236-.154a3.821,3.821,0,0,1,.627-.222c.225-.055.143.038.143.038a1.042,1.042,0,0,0-.152.188c-.018.051.006.055.021.063a.574.574,0,0,0,.2-.013,7.138,7.138,0,0,0,1.038-.456l.027-.015Z" transform="translate(-11.478 -30.764)" fill="#232323" opacity="0.1"/>
    <path id="Path_36442" d="M4.418,42.308l.035.026L4.42,42.3Z" transform="translate(-3.049 -29.194)" opacity="0.68" fill="url(#linear-gradient-19)"/>
    <path id="Path_36443" d="M20.641,31h-.072l-.736.575a6.2,6.2,0,0,1-.669.427,1.618,1.618,0,0,1-.762.165s-.112-.012-.058-.092a1.608,1.608,0,0,0,.15-.377c.025-.1.081-.354-.125-.435a1.168,1.168,0,0,0-.587.038,3.2,3.2,0,0,0-1.239.628c-.349.383-.056.553-.056.553a1.363,1.363,0,0,0,.269.143c.125.044.1.084.069.108a3.71,3.71,0,0,1-.857.384,6.348,6.348,0,0,1-1.253.235l-.874.055-.078.073-.148-.049a9.925,9.925,0,0,0-1.088.191,4.576,4.576,0,0,0-1.342.447s-.259.172-.11.34a1.035,1.035,0,0,0,.3.239s.092.041.09.065,0,.06-.071.1a1.755,1.755,0,0,1-.8.168c-.527.009-.76,0-.915-.136-.128-.115.032-.359.032-.359a.355.355,0,0,0,0-.283c-.064-.164-.431-.166-.431-.166l-.509-.026L7.02,33.883v.032l-.14-.059a4.3,4.3,0,0,1-.792-.211c-.148-.074-.227-.061-.207-.214a.628.628,0,0,0-.147-.355,3.92,3.92,0,0,0-.439-.406c-.208-.155-.3-.11-.3-.11s-.094.05-.01.252a.779.779,0,0,0,.167.274s.041.042.017.054-.094-.042-.153-.092-.367-.339-.478-.443l.02.07.011.017a1.85,1.85,0,0,0,.419.444c.3.236.3.142.3.142a.226.226,0,0,0-.058-.163c-.07-.086-.182-.267-.154-.333s.06-.06.06-.06.026-.01.116.058a2.517,2.517,0,0,1,.391.331.363.363,0,0,1,.094.23.292.292,0,0,0,.088.23c.108.12.337.333,1.139.457h.011l.037-.107.112.13,1.08.11,1.164.032c.247,0,.2.13.2.13a.582.582,0,0,1-.042.126.474.474,0,0,0-.028.377s.114.278.852.3a2.85,2.85,0,0,0,1.1-.134c.451-.186.042-.443.042-.443l-.22-.144a.092.092,0,0,1-.024-.126.232.232,0,0,1,.11-.1,5.322,5.322,0,0,1,1.043-.335,6.739,6.739,0,0,1,1.281-.23H13.7l.066-.127.166.108.491-.033a8.311,8.311,0,0,0,1.143-.157,4.922,4.922,0,0,0,1.088-.379c.335-.174.351-.3.351-.3s.064-.092-.076-.194-.2-.074-.325-.2.108-.313.108-.313.119-.168.782-.423.774-.17.808-.142.038.12.024.182-.1.283-.14.4-.062.274.118.311a1.334,1.334,0,0,0,.666-.086,6.855,6.855,0,0,0,1.66-1.121h.006v-.128l.134.021a8.5,8.5,0,0,0,.752-.695,2.77,2.77,0,0,0,.368-.458c.116-.2.005.173.005.173s-.063.3.037.4c.079.087.3-.154.3-.154a.979.979,0,0,0,.187-.4c.079-.364.036-.437.036-.437a.208.208,0,0,1-.018-.165,3.413,3.413,0,0,1,.385-.78l.1-.11-.043-.114.059-.1a4.385,4.385,0,0,0-.273.423,2.032,2.032,0,0,0-.285.734.776.776,0,0,0-.011.2c.013.069.036.1.037.121a.877.877,0,0,1-.1.345.506.506,0,0,1-.159.2s-.147.107-.167.031a.438.438,0,0,1-.007-.188,2.691,2.691,0,0,0,.049-.4c-.007-.1-.093-.021-.093-.021l-.058.071-.332.413a5.492,5.492,0,0,1-.834.764Z" transform="translate(-3.134 -19.457)" opacity="0.43" fill="url(#linear-gradient-20)"/>
    <path id="Path_36444" d="M.332,21.123l.02.19.208.231c.209.218.278.081.278.081a.733.733,0,0,0-.011-.386c-.06-.249-.049-.4.063-.394a.619.619,0,0,1,.541.341.572.572,0,0,1,0,.288,1.01,1.01,0,0,0,0,.446.729.729,0,0,0,.285.383,1.939,1.939,0,0,0,.918.323,2.626,2.626,0,0,0,.506,0l.145-.149.026.13.7-.076a4.74,4.74,0,0,1,1.128-.06.521.521,0,0,1,.4.284.093.093,0,0,1-.049.106.588.588,0,0,0-.184.173.382.382,0,0,0,.031.4.735.735,0,0,0,.676.278,7.637,7.637,0,0,0,.877-.191c.25-.065.472-.188.5-.385s-.3-.446-.3-.446l-.177-.146c-.02-.027.019-.039.019-.039a2.122,2.122,0,0,0,.264-.08,6.209,6.209,0,0,1,.652-.237c.356-.112,1.091-.243,1.091-.243l.911-.106.121-.137.1.122.242-.012a6.518,6.518,0,0,0,1.408-.191,3.67,3.67,0,0,0,.966-.443.5.5,0,0,0,.271-.381c.033-.252-.265-.42-.265-.42A1.822,1.822,0,0,1,12.4,20.2a.082.082,0,0,1,0-.109,1.041,1.041,0,0,1,.564-.458,3.347,3.347,0,0,1,.9-.235c.181-.02.242.046.267.077a.188.188,0,0,1,0,.16,2.218,2.218,0,0,1-.125.271.458.458,0,0,0-.062.315c.038.079.164.116.323.087a5.767,5.767,0,0,0,.95-.3l.992-.458.017-.142.141.057a5.216,5.216,0,0,0,.78-.512l.81-.71a.414.414,0,0,1,.254-.142c.081,0,.143.062.192.279s.06.4.083.5.055.229.181.254a.526.526,0,0,0,.358-.139.625.625,0,0,0,.171-.464,1.3,1.3,0,0,0-.148-.608l-.093-.152c-.017-.021-.03-.046,0-.1a.535.535,0,0,1,.206-.225.928.928,0,0,1,.219-.077.538.538,0,0,0,.122-.051l-.024-.08.056.062a.1.1,0,0,1,.125.009l-.076-.1.023-.094a.218.218,0,0,0-.133-.017c-.074.015-.082.07-.2.089a.509.509,0,0,0-.379.256.482.482,0,0,0,0,.442l.1.174a.71.71,0,0,1,.007.7.586.586,0,0,1-.3.167c-.167.037-.124-.159-.142-.264a1.379,1.379,0,0,0-.241-.7c-.19-.223-.535.173-.706.3a6.863,6.863,0,0,1-1.3.958l-.1.173L16.15,19.3l-1.531.683a2.525,2.525,0,0,1-.513.152s-.033,0-.007-.035a1,1,0,0,0,.1-.143,1.016,1.016,0,0,0,.126-.453c0-.189-.218-.373-.521-.34a3.685,3.685,0,0,0-.943.251,1.1,1.1,0,0,0-.69.657c-.041.237.215.374.215.374s.288.146.325.225a.214.214,0,0,1,.01.152.317.317,0,0,1-.152.152l-.471.25a2.977,2.977,0,0,1-1.081.294l-.95.068-.1.1L9.848,21.6l-.689.07a12.011,12.011,0,0,0-1.6.354,2.611,2.611,0,0,0-.773.31.2.2,0,0,0-.021.283.942.942,0,0,0,.2.21c.134.1.241.2.226.257a.133.133,0,0,1-.056.074,2.155,2.155,0,0,1-.952.3s-.492.1-.644-.054-.085-.249-.085-.249.01-.033.121-.1a.307.307,0,0,0,.126-.336.872.872,0,0,0-.8-.493,15.076,15.076,0,0,0-1.594.148h.016l-.042.1L3.163,22.4l-.217.021a2.432,2.432,0,0,1-.836-.116A.918.918,0,0,1,1.5,21.89a.457.457,0,0,1,.007-.194,1.244,1.244,0,0,0,.025-.467.666.666,0,0,0-.317-.5.513.513,0,0,0-.319-.1S.715,20.6.722,20.91a1.9,1.9,0,0,0,.046.439s.036.109-.021.125S.6,21.407.6,21.407a3.283,3.283,0,0,1-.315-.328l.009.013-.042.1a.784.784,0,0,0,.052.073Z" transform="translate(-0.176 -11.796)" opacity="0.24" fill="url(#linear-gradient-21)"/>
    <path id="Path_36445" d="M17.956,6.829l.035.165a1.567,1.567,0,0,1-.326.119,2.944,2.944,0,0,0-.425.156s-.173.056-.107.2a.555.555,0,0,0,.163.209.333.333,0,0,1,.143.236c0,.1-.039.149-.148.209a.649.649,0,0,1-.209.073.529.529,0,0,1-.389-.075A.6.6,0,0,1,16.54,7.8a.3.3,0,0,0-.224-.244.676.676,0,0,0-.477.083l-.428.253a5.156,5.156,0,0,1-.9.411l-.03.136-.147-.074-.636.216a5,5,0,0,1-.81.224c-.322.044-.392,0-.436-.046s.007-.2.007-.2.131-.268.068-.407-.477-.175-.484-.175a1.584,1.584,0,0,0-.865.181c-.368.209-.417.319-.417.319a.325.325,0,0,0,.022.363.566.566,0,0,0,.366.223s.2.015.244.074a.12.12,0,0,1,.015.122s-.065.18-.433.255A13.926,13.926,0,0,1,9.2,9.857l-.113.113a18.65,18.65,0,0,0-2.053.387c-.469.121-.5.256-.5.256a.163.163,0,0,0,.027.24.323.323,0,0,1,.2.232c.037.177-.152.317-.152.317a1.3,1.3,0,0,1-.564.247c-.338.058-.466.068-.667-.091-.177-.14-.058-.362.06-.447a.565.565,0,0,0,.192-.216.129.129,0,0,0,.006-.073l-.113-.1c-.39-.259-1.922.012-1.922.012l-.261.056-.128-.09a4.106,4.106,0,0,1-.948.115c-.528,0-.247-.414-.247-.414a1.514,1.514,0,0,0,.146-.343s.044-.339-.276-.317a.411.411,0,0,0-.383.3,1.894,1.894,0,0,0-.017.271.679.679,0,0,1-.144.5.326.326,0,0,1-.3.1l-.31-.14a.175.175,0,0,0-.146-.013l-.011.006-.034.146V10.79a.4.4,0,0,0-.053.081l.017.064-.048.11a.051.051,0,0,0,0,.007A.321.321,0,0,1,.5,10.983L.544,10.9l-.01.047a.062.062,0,0,1,.033-.015.3.3,0,0,1,.122.031,1.845,1.845,0,0,0,.319.139.286.286,0,0,0,.234-.057.821.821,0,0,0,.272-.358,2.359,2.359,0,0,0,.054-.465v-.1A.172.172,0,0,1,1.61,9.97.291.291,0,0,1,1.832,9.9a.178.178,0,0,1,.173.074.251.251,0,0,1,.045.1.155.155,0,0,1-.013.066l-.1.182a.821.821,0,0,0-.1.423c.029.166.288.243.288.243a1.475,1.475,0,0,0,.5.005l.607-.1.106-.121.042.092.7-.1a6.538,6.538,0,0,1,1.132-.026s.094.012.079.046a.407.407,0,0,1-.082.081.844.844,0,0,0-.127.13.5.5,0,0,0-.135.323.542.542,0,0,0,.47.465,1.757,1.757,0,0,0,.793-.066,1.22,1.22,0,0,0,.542-.326.456.456,0,0,0,0-.6.267.267,0,0,0-.126-.086s-.036-.01-.015-.033a.419.419,0,0,1,.266-.176,14.153,14.153,0,0,1,2.152-.416L9.08,9.96l.17.089,1.522-.283s.592-.1.715-.322c.072-.126.2-.3-.009-.473,0,0-.025-.031-.154-.063a.861.861,0,0,1-.338-.127.222.222,0,0,1-.107-.169s-.009-.087.168-.186a1.83,1.83,0,0,1,.494-.225,1.943,1.943,0,0,1,.71-.058s.16.017.133.125a3.125,3.125,0,0,0-.121.381.246.246,0,0,0,.183.275,1.116,1.116,0,0,0,.441.052,3.059,3.059,0,0,0,.71-.156l.893-.306-.018-.094.188.034.445-.182a5.486,5.486,0,0,0,.677-.381,1.446,1.446,0,0,1,.561-.212s.049,0,.053.062a.845.845,0,0,0,.042.213.628.628,0,0,0,.531.4.571.571,0,0,0,.553-.218.363.363,0,0,0-.1-.447l-.192-.215s-.02-.03.032-.045l.837-.275-.053-.095.1.071a.29.29,0,0,0,.106-.077c.033-.053-.011-.155-.011-.155l-.061-.1-.119-.05-.011.006-.094.068" transform="translate(-0.32 -4.659)" opacity="0.2" fill="url(#linear-gradient-22)"/>
    <path id="Path_36446" d="M4.517,6.733l-.056.085a.112.112,0,0,0,.047-.011.572.572,0,0,1,.216.023.613.613,0,0,0,.4-.1.71.71,0,0,0,.248-.269l.07-.2a.414.414,0,0,1,.215-.249.372.372,0,0,1,.161-.034c.1,0,.076.069.076.069a.633.633,0,0,1-.114.178.742.742,0,0,0-.13.232s-.062.14.037.188c0,0,.046.028.183-.018a7.3,7.3,0,0,1,.863-.206l.193-.1-.117-.086a6.178,6.178,0,0,0-.929.238c-.118.045-.121.016-.121.016-.041-.048.085-.2.085-.2a1.478,1.478,0,0,0,.178-.334c.052-.16-.173-.137-.173-.137a.58.58,0,0,0-.375.24.985.985,0,0,0-.174.355.629.629,0,0,1-.037.1.182.182,0,0,1-.088.063,2.235,2.235,0,0,1-.239.077.4.4,0,0,1-.181-.029.429.429,0,0,0-.175.01l.018-.1-.016-.006L4.449,6.6l-.066.111c-.012.029-.035.092.008.1h.032ZM5.523,5.345s.067-.053.067,0a.349.349,0,0,1-.063.134s-.021.026-.033.026,0-.092.031-.155ZM5,5.989s-.075.09,0,.1l.163-.161a.107.107,0,0,0-.03-.022A.621.621,0,0,0,5,5.992ZM18.069,20.234l-.66.312-.437.221s-.017.009-.006.015,0,.012,0,.012c-.165.08-.526.208-.526.208s-.033.011-.031,0,.039-.021.039-.021.074-.028.055-.042a1.087,1.087,0,0,0-.235.059l-.563.172-.535.143-.839.175-.084.012s.1-.037-.08-.042a3.949,3.949,0,0,0-.7.056c-.243.034-.229.063-.229.063s-.008.03.138.027.1.009.1.009c-.271.039-.817.046-.817.046h.268l.354-.006.374-.048c.1-.021-.018-.021-.018-.021h-.146s-.151,0-.011-.031a4.617,4.617,0,0,1,.465-.049c.161-.018.1.02.1.02h-.008s0,.018.1.013a12.247,12.247,0,0,0,1.375-.29l.8-.244s.031-.011.013,0a.413.413,0,0,1-.09.039s-.116.059.164-.021l.039-.011.707-.3c.006-.006.025-.028,0-.02s0-.013.036-.026.441-.226.654-.313l.23-.134Z" transform="translate(-3.013 -3.672)" fill="#232323" opacity="0.1"/>
    <path id="Path_36447" d="M.351,30l.021.191.208.23c.209.218.278.081.278.081a.448.448,0,0,0,.018-.114c-.008.042-.041.078-.153-.011a2.07,2.07,0,0,1-.209-.2l-.2-.217.009.013-.041.1a.852.852,0,0,0,.052.073Z" transform="translate(-0.195 -20.673)" fill="url(#linear-gradient-23)"/>
    <path id="Path_36448" d="M2.1,30.436v-.015l.008.053a1.091,1.091,0,0,0,.023.146,1.031,1.031,0,0,0-.028-.185Z" transform="translate(-1.443 -20.994)" fill="url(#linear-gradient-24)"/>
    <path id="Path_36449" d="M20.706,17.5l.056.061a.1.1,0,0,1,.127.009l-.075-.1c-.074.016-.213.05-.435.119,0,0-.263.116-.309.3a.592.592,0,0,0,.021.17l.178.324a.816.816,0,0,1,.048.549.549.549,0,0,1-.349.358c-.118.034-.185,0-.222-.094a3.538,3.538,0,0,1-.085-.455c-.055-.291-.127-.428-.237-.461s-.255.091-.34.158-.47.419-.47.419a6.986,6.986,0,0,1-1.117.783,10.638,10.638,0,0,1-1.5.665,3.116,3.116,0,0,1-.686.194c-.133-.018-.1-.14-.058-.209A2.336,2.336,0,0,0,15.4,20a.308.308,0,0,0-.07-.382c-.109-.061-.243-.091-.685.018a2.492,2.492,0,0,0-.746.282,1.239,1.239,0,0,0-.358.334c-.052.094-.109.191.024.306a2.565,2.565,0,0,0,.3.2c.155.109.179.125.188.285a.326.326,0,0,1-.148.261,4.105,4.105,0,0,1-1.284.54,11.5,11.5,0,0,1-1.329.125,7.146,7.146,0,0,0-1.047.107,7.828,7.828,0,0,0-1.505.361l-.61.23c-.154.07-.073.173-.04.2s.231.209.291.264.285.249.021.41a2.582,2.582,0,0,1-.7.246,2.314,2.314,0,0,1-.8.046.417.417,0,0,1-.282-.264c-.061-.14,0-.246.154-.346a.19.19,0,0,0,.091-.233.879.879,0,0,0-.929-.376L4.5,22.751a2.347,2.347,0,0,1-1.165-.1c-.282-.088-.583-.3-.613-.486a.245.245,0,0,1-.008-.059,1.069,1.069,0,0,1,.035-.347,1.176,1.176,0,0,0-.016-.342V21.4a.666.666,0,0,0-.519-.4c-.185-.03-.191.167-.191.167v.008a.083.083,0,0,1,.086-.06.619.619,0,0,1,.541.341.568.568,0,0,1,0,.288,1,1,0,0,0,0,.446.727.727,0,0,0,.285.383,1.94,1.94,0,0,0,.918.323,2.783,2.783,0,0,0,.5,0l.148-.149.026.13.7-.076a4.773,4.773,0,0,1,1.128-.059.52.52,0,0,1,.4.284.092.092,0,0,1-.049.1.558.558,0,0,0-.184.173.383.383,0,0,0,.031.4.735.735,0,0,0,.676.279,7.741,7.741,0,0,0,.879-.191c.25-.065.471-.188.5-.385s-.3-.447-.3-.447l-.177-.146c-.02-.027.019-.038.019-.038a2.036,2.036,0,0,0,.264-.081,6.088,6.088,0,0,1,.652-.237c.355-.112,1.091-.243,1.091-.243l.913-.106.119-.137.1.122.24-.012a6.542,6.542,0,0,0,1.408-.19,3.662,3.662,0,0,0,.966-.443.5.5,0,0,0,.271-.381c.033-.252-.265-.42-.265-.42a1.836,1.836,0,0,1-.287-.181.082.082,0,0,1,0-.109,1.041,1.041,0,0,1,.564-.458,3.345,3.345,0,0,1,.9-.235c.18-.02.243.046.267.077a.189.189,0,0,1,0,.16,2.178,2.178,0,0,1-.125.271.458.458,0,0,0-.062.315c.038.079.164.115.323.086a5.767,5.767,0,0,0,.95-.3l.991-.458.017-.142.142.058a5.258,5.258,0,0,0,.78-.512l.81-.708a.416.416,0,0,1,.254-.142c.081,0,.143.062.192.279s.059.4.083.5.056.229.181.254a.529.529,0,0,0,.358-.139.625.625,0,0,0,.171-.464,1.314,1.314,0,0,0-.146-.608l-.093-.152c-.017-.023-.03-.046,0-.1a.534.534,0,0,1,.206-.225.929.929,0,0,1,.219-.077.569.569,0,0,0,.123-.052Z" transform="translate(-1.393 -12.063)" opacity="0.78" fill="url(#linear-gradient-25)"/>
    <g id="Group_31535" transform="translate(0.148 2.261)">
      <path id="Path_36450" d="M.556,11.28l-.01.046a.061.061,0,0,1,.033-.014.3.3,0,0,1,.122.031,1.845,1.845,0,0,0,.319.139.286.286,0,0,0,.234-.057.741.741,0,0,0,.148-.143.415.415,0,0,1-.266.116.688.688,0,0,1-.276-.114.241.241,0,0,0-.334.02l-.048.11v.007a.346.346,0,0,1,.042-.068Zm.941-.143.03-.069a.582.582,0,0,0,.024-.107,1.294,1.294,0,0,1-.043.142.289.289,0,0,1-.008.034Zm.082-.643c-.007.083-.007.192-.007.292l.01-.182v-.111Zm.255-2.4-.056.085a.223.223,0,0,0,.047-.011.572.572,0,0,1,.216.023.613.613,0,0,0,.4-.1A.746.746,0,0,0,2.554,8a.673.673,0,0,1-.415.114.591.591,0,0,0-.26-.01c-.057-.006-.057-.021-.053-.061a.023.023,0,0,1,.006-.018A.519.519,0,0,1,1.9,7.9l-.133.075-.067.11c-.012.029-.035.092.008.1a.164.164,0,0,0,.032,0Zm1.733-.251a1.5,1.5,0,0,1-.485.117c-.085-.021-.016-.148.008-.188A.552.552,0,0,1,3.138,7.7L3.3,7.433l.009-.02c.013-.035.023-.1-.092-.116a.5.5,0,0,0-.314.12.441.441,0,0,0-.163.275l.022-.061a.414.414,0,0,1,.215-.249.372.372,0,0,1,.161-.034c.1,0,.076.069.076.069a.633.633,0,0,1-.114.178.741.741,0,0,0-.13.233s-.062.14.037.188c0,0,.046.028.183-.018a7.313,7.313,0,0,1,.863-.206l.193-.1a6.645,6.645,0,0,0-.68.154ZM17.873,19.355ZM17.92,19.3ZM17.9,19.321Zm-.552.513-.032.034-.188.2-.047.052h.006a.253.253,0,0,0,.115-.042.092.092,0,0,1-.035.014c-.034,0,.084-.1.084-.1l.188-.219c.074-.1.027-.091.027-.091a.277.277,0,0,0-.077.024s.033.045-.039.134ZM17.887,19.339Zm-3.446,1.377a1.854,1.854,0,0,1,.662-.154s.119.011-.012.138-.173.227.077.146l.048-.017c-.1.028-.143.028-.128.006a.591.591,0,0,1,.09-.089.273.273,0,0,0,.078-.156s.025-.114-.312-.042a2.594,2.594,0,0,0-.5.167ZM14.3,20.783ZM17.38,19.7h-.008Zm-1.9,1.028a7.907,7.907,0,0,0,.977-.485,10.5,10.5,0,0,1-.977.485Zm1.791-.967.015-.009Zm.8-.631,0,0Zm-.036.038v0Zm.017-.018.006-.006ZM17.933,19.286Zm-3.824,1.6H14.1ZM18.018,19.186ZM17.966,19.248ZM18,19.212ZM17.949,19.267ZM17.983,19.232Zm-3.762,1.59h-.005ZM14.264,20.8Zm-.144.079h-.006ZM14.251,20.808ZM14.278,20.794ZM14.259,20.8ZM14.3,20.785ZM14.289,20.79ZM14.243,20.812ZM14.3,20.786ZM14.29,20.788ZM14.272,20.8ZM14.231,20.818Zm-.063.032-.01.006ZM14.3,20.783Zm-.155.082h-.006Zm-.011.007h-.006Zm.023-.014H14.15ZM14.21,20.828Zm3.88-1.712.008-.008ZM14.2,20.834h-.006ZM14.189,20.84Zm-.011.006h-.006Zm4.052-1.882-.011.012Zm-.016.017-.012.013Zm.027-.029-.006.006ZM18.1,19.1l.012-.012Zm.1-.1-.008.009L18.2,19Zm.06-.063-.006.006ZM18.294,18.9ZM18.283,18.908Zm-.927.808h-.008Zm.916-.8-.006.006Zm-.969.826-.01.006ZM9.629,22.624Z" transform="translate(-0.479 -7.296)" fill="#232323" opacity="0.1"/>
      <path id="Path_36451" d="M21.039,48.723ZM21.051,48.723ZM21.026,48.723ZM21.014,48.724Zm7.765-2.9h-.007Zm-.012.007h-.008Zm-.013.007h-.008Zm.041-.021.011-.006Zm-.045.282-.037.029Zm.873-.985-.012.013Zm-12.477,2.83h-.011Zm8.363-.931H25.5ZM20.609,48.5Zm-3.535-.582h.011Zm-.024-.007.021.007Zm.06.019-.024-.008Z" transform="translate(-11.914 -33.394)" fill="#232323" opacity="0.1"/>
      <path id="Path_36452" d="M29.7,45.22l.008-.008ZM17.287,47.983l.023.008ZM29.718,45.2l.008-.008Zm.016-.014.011-.012Zm-12.46,2.793h0Zm8.392-.938.011-.007ZM20.848,48.551Zm4.815-1.508-.009.006Zm-4.8,1.511h-.01Zm.014,0h-.009Zm-.081-.012h-.02Zm.035,0h-.012ZM20.814,48.542ZM20.772,48.542Zm-3.507-.569h-.011ZM21.05,48.755ZM21.045,48.753ZM21.054,48.756ZM21.063,48.759ZM21.059,48.757ZM21.039,48.751Zm-.146-.192h-.011ZM20.926,48.568ZM21.371,48.751Z" transform="translate(-12.054 -33.437)" fill="#232323" opacity="0.1"/>
      <path id="Path_36453" d="M28.413,56.054H28.4ZM28.628,56.257ZM28.639,56.258ZM28.132,56.029ZM28.619,56.259Zm-.184-.2s.031,0,.011.066.012.088.092.115c-.015-.008-.014-.015-.014-.015a.069.069,0,0,1,.015-.042c.017-.027,0-.072-.057-.1a.22.22,0,0,0-.053-.02ZM28.648,56.26ZM28.575,56.254Z" transform="translate(-19.563 -40.928)" fill="#232323" opacity="0.1"/>
      <path id="Path_36454" d="M20.885,54.934ZM20.856,54.93ZM20.862,54.931ZM20.869,54.932Zm-.172-.2h-.008ZM17.2,54.2ZM17.206,54.2ZM17.19,54.194ZM20.49,54.708ZM17.21,54.208Zm-.275-.094.022.006Zm.022.006h.011Z" transform="translate(-11.838 -39.606)" fill="#232323" opacity="0.1"/>
      <path id="Path_36455" d="M17.007,54.166Zm-.034-.013h-.006Zm-.185,0-.006-.006a.2.2,0,0,1-.067-.084h.01c-.056-.015-.1-.021-.093,0s.025.03.052.048l.1.054Zm.2,0h0Zm-.023-.008h-.008ZM17.011,54.163Zm-.118-.042h-.009ZM20.258,54.664ZM20.232,54.668Zm-3.316-.535-.021-.007Z" transform="translate(-11.628 -39.565)" fill="#232323" opacity="0.1"/>
      <path id="Path_36456" d="M17.581,54.318h-.007Zm-.02-.007h-.008Z" transform="translate(-12.262 -39.74)" fill="#232323" opacity="0.1"/>
      <path id="Path_36457" d="M17.614,52.269h-.008Zm-.019-.007h-.009ZM25.677,51.725ZM25.827,51.666ZM25.822,51.669ZM25.816,51.672ZM25.809,51.675ZM25.755,51.7ZM25.75,51.7ZM25.8,51.678ZM25.735,51.706ZM25.729,51.708ZM25.742,51.7ZM21.58,53ZM25.724,51.71Zm.1-.37.008-.006Z" transform="translate(-12.284 -37.688)" fill="#232323" opacity="0.1"/>
      <path id="Path_36458" d="M34.462,50.959h.007Zm-.011.008h.006Zm0,.286c.039.012.021.033-.017.054l.017-.006s.154-.085.089-.125-.219-.054-.119-.188c-.086.066-.147.141-.1.2,0,0,.023.037.125.069ZM34.386,51.331ZM34.4,51.325ZM34.393,51.328ZM34.372,51.337ZM34.366,51.339Zm.074-.364h.007ZM30.055,52.659ZM30.084,52.657ZM30.069,52.657Zm.321-.217a.794.794,0,0,0,.325.055.408.408,0,0,1,.091.007c0,.007.007.011-.014.02.011,0,.154-.049.092-.076l-.015-.006h-.195l-.073-.011h-.036a.168.168,0,0,1-.127-.062c-.021-.039.089-.062.089-.062l.373-.063a1.922,1.922,0,0,0-.54.122c-.042.066.036.1.036.1ZM34.273,51.371ZM34.274,51.371ZM30.16,52.65ZM30.138,52.652ZM30.121,52.654ZM30.1,52.655ZM34.3,51.361ZM34.3,51.363ZM34.313,51.358ZM34.288,51.366ZM34.309,51.36ZM34.277,51.37ZM34.278,51.37ZM34.711,50.818ZM34.287,51.366ZM34.284,51.368Z" transform="translate(-20.887 -37.332)" fill="#232323" opacity="0.1"/>
    </g>
    <path id="Path_36459" d="M4.461,42.343l-.027-.026Z" transform="translate(-3.057 -29.204)" fill="url(#linear-gradient-26)"/>
    <path id="Path_36460" d="M21.781,34.338l.134.021a8.529,8.529,0,0,0,.752-.695,2.77,2.77,0,0,0,.368-.458c.043-.074.055-.069.053-.034a.213.213,0,0,0-.007-.139c-.018-.034-.074.056-.161.168a5.608,5.608,0,0,1-1.128,1.131,11.424,11.424,0,0,1-1.572,1.1,1.548,1.548,0,0,1-.761.13c-.242-.053,0-.3.053-.525s.012-.307-.043-.351-.178-.075-.416-.021a3.8,3.8,0,0,0-1.327.643c-.373.361.093.509.2.56,0,0,.152.065.14.13s-.1.121-.143.152a4.688,4.688,0,0,1-1.619.537c-.786.124-.634.05-1.389.125a9.129,9.129,0,0,0-1.569.283c-.606.143-.962.3-1.041.457-.065.13.093.214.193.271s.277.152.218.252-.317.251-.948.271-.888-.065-1-.2-.015-.258.021-.379c0,0,.074-.159.031-.236a.293.293,0,0,0-.25-.108c-.107-.008-.631-.031-1.038-.053a10.116,10.116,0,0,1-1.675-.18,2.927,2.927,0,0,1-.718-.245l-.049-.03a.123.123,0,0,1-.049-.041c-.08-.084-.009-.146-.036-.227a.845.845,0,0,0-.174-.292l-.14-.139-.05-.042c-.249-.2-.277-.223-.382-.227s-.046.174-.025.242a.587.587,0,0,0,.047.1.267.267,0,0,1-.05-.178c.028-.066.06-.06.06-.06s.026-.01.116.058a2.532,2.532,0,0,1,.391.331.363.363,0,0,1,.094.23.292.292,0,0,0,.088.23c.108.12.337.333,1.14.457h.012l.037-.107.111.13,1.081.11,1.163.032c.247,0,.2.13.2.13a.523.523,0,0,1-.044.126.459.459,0,0,0-.028.377s.114.277.852.3a2.856,2.856,0,0,0,1.1-.134c.451-.185.044-.443.044-.443l-.22-.144A.092.092,0,0,1,12.4,37.6a.235.235,0,0,1,.11-.1,5.09,5.09,0,0,1,1.043-.335,6.964,6.964,0,0,1,1.281-.23h.012l.063-.127.164.108.494-.033a8.373,8.373,0,0,0,1.143-.157,4.927,4.927,0,0,0,1.088-.379c.335-.174.351-.3.351-.3s.064-.092-.076-.194-.2-.074-.325-.2.108-.315.108-.315.12-.168.782-.423.774-.17.808-.142.038.119.024.181-.1.283-.14.4-.062.273.118.313a1.3,1.3,0,0,0,.667-.086,6.849,6.849,0,0,0,1.66-1.121h.006Z" transform="translate(-4.273 -22.792)" fill="url(#linear-gradient-27)"/>
    <path id="Path_36461" d="M61.3,28.822a4.138,4.138,0,0,0-.281.68l-.011.064a.776.776,0,0,0-.011.2.349.349,0,0,0,.021.073l.011.026a.068.068,0,0,1,.007.022.84.84,0,0,1-.052.239.767.767,0,0,1-.047.105l-.015.027a.579.579,0,0,1-.312.3.088.088,0,0,1-.108-.075.3.3,0,0,0,.056.187c.079.086.3-.155.3-.155a.979.979,0,0,0,.187-.4c.079-.365.036-.437.036-.437a.209.209,0,0,1-.018-.166,3.413,3.413,0,0,1,.385-.78l.1-.109-.041-.107a.867.867,0,0,0-.075.088l-.135.218Z" transform="translate(-41.753 -19.68)" fill="url(#linear-gradient-28)"/>
    <path id="Path_36462" d="M5.118,42.93a.887.887,0,0,1-.091-.069L4.8,42.65l-.115-.107-.134-.125.021.07.01.017A1.854,1.854,0,0,0,5,42.947c.3.236.3.141.3.141a.224.224,0,0,0-.058-.163L5.2,42.873s.2.288-.087.056Z" transform="translate(-3.139 -29.273)" fill="url(#linear-gradient-29)"/>
    <path id="Path_36463" d="M6.456,43.555l.063.1a1.038,1.038,0,0,1-.063-.1Z" transform="translate(-4.455 -30.058)" fill="url(#linear-gradient-30)"/>
    <path id="Path_36464" d="M60.5,33.705a1.411,1.411,0,0,0,.047-.207,1.051,1.051,0,0,0-.066.424A1,1,0,0,1,60.5,33.7Z" transform="translate(-41.737 -23.118)" fill="url(#linear-gradient-31)"/>
    <path id="Path_36465" d="M30.115.746l.141.014.513-.15.369-.124A1.884,1.884,0,0,1,31.46.407a2.03,2.03,0,0,1,.332-.025A.173.173,0,0,1,31.9.4a.226.226,0,0,0,.048.052.648.648,0,0,0,.578.39c.432.022.439-.213.4-.285A.594.594,0,0,0,32.75.394a1.219,1.219,0,0,1-.212-.165c-.037-.053.007-.069.02-.073l.53-.119L32.983,0s-.021.026-.153.06a2.609,2.609,0,0,1-.339.061c-.1.013-.1.046-.1.046l-.017.027c-.005.015-.013.063.073.125a2.653,2.653,0,0,1,.28.2c.052.056.114.152,0,.221a.33.33,0,0,1-.152.051A.917.917,0,0,1,32.456.8h-.03a.446.446,0,0,1-.208-.059A.446.446,0,0,1,32.039.53a.44.44,0,0,0-.1-.129.926.926,0,0,0-.547-.029,4.144,4.144,0,0,0-.569.158c-.052.02-.315.107-.449.142l-.32.091-.886.261-.359.09a.788.788,0,0,1-.427-.026c-.058-.024-.051-.1-.051-.1V.765a.157.157,0,0,0-.07-.119.733.733,0,0,0-.31-.056,1.819,1.819,0,0,0-.407.026A.644.644,0,0,0,27.2.8a.286.286,0,0,0-.094.221V1.06a.39.39,0,0,0,.168.143c.2.1-.221.261-.221.261a3.724,3.724,0,0,1-.429.151,4.064,4.064,0,0,1-.716.15l.132.05a3.915,3.915,0,0,0,1.39-.509s.122-.057,0-.171a1.133,1.133,0,0,0-.17-.147s-.08-.043,0-.15a.528.528,0,0,1,.263-.182A1.721,1.721,0,0,1,28.1.638s.1.008.089.079l-.015.2a.219.219,0,0,0,.078.164.52.52,0,0,0,.214.088,1.352,1.352,0,0,0,.553-.042L30.071.81Z" transform="translate(-17.88)" fill="#232323" opacity="0.1"/>
    <path id="Path_36466" d="M20.556,7.077l.053.095H20.6a8.408,8.408,0,0,1-.83.272c-.052.015-.033.046-.033.046s.192.215.192.215a.363.363,0,0,1,.1.447.571.571,0,0,1-.553.218.628.628,0,0,1-.531-.4.819.819,0,0,1-.047-.21c0-.064-.053-.062-.053-.062a1.448,1.448,0,0,0-.561.212,5.452,5.452,0,0,1-.677.381l-.445.182-.188-.034.018.094h-.012l-.881.3a3.08,3.08,0,0,1-.71.156,1.123,1.123,0,0,1-.441-.052.246.246,0,0,1-.183-.275,3.049,3.049,0,0,1,.121-.381c.027-.108-.133-.125-.133-.125a1.951,1.951,0,0,0-.71.058,1.805,1.805,0,0,0-.494.226c-.178.1-.168.186-.168.186a.222.222,0,0,0,.107.169.8.8,0,0,0,.338.125c.129.027.154.06.154.06.21.174.081.347.009.473-.123.217-.715.321-.715.321l-1.522.283-.17-.09-.054.12a14.073,14.073,0,0,0-2.152.416.419.419,0,0,0-.266.176c-.021.023.015.033.015.033a.266.266,0,0,1,.126.086.456.456,0,0,1,0,.6,1.222,1.222,0,0,1-.542.326,1.757,1.757,0,0,1-.793.066.542.542,0,0,1-.47-.465A.505.505,0,0,1,7.583,11l.125-.13A.419.419,0,0,0,7.79,10.8c.015-.033-.079-.045-.079-.045a6.324,6.324,0,0,0-1.132.026l-.7.1-.043-.094-.106.121-.607.1a1.475,1.475,0,0,1-.5-.006s-.259-.077-.288-.244a.816.816,0,0,1,.1-.423c.025-.059.1-.182.1-.182a.155.155,0,0,0,.013-.066.251.251,0,0,0-.045-.1.179.179,0,0,0-.172-.074.285.285,0,0,0-.222.071A.1.1,0,0,0,4.084,10,.121.121,0,0,1,4.1,9.974a.334.334,0,0,1,.272-.136.3.3,0,0,1,.2.044c.14.16.022.359-.068.537a.542.542,0,0,0-.045.094l-.017.044a.228.228,0,0,0,.13.323,1.377,1.377,0,0,0,.83-.006l.7-.142a6.245,6.245,0,0,1,1.742-.083s.252.071.064.26-.336.315-.293.462.246.37.709.312l.215-.032A1.421,1.421,0,0,0,9.1,11.4s.189-.14.152-.317a.322.322,0,0,0-.2-.231.163.163,0,0,1-.027-.24s.027-.134.5-.256a18.505,18.505,0,0,1,2.053-.387,15.015,15.015,0,0,0,2.118-.4.429.429,0,0,0,.3-.332c0-.059.014-.161-.221-.212a.861.861,0,0,1-.378-.16.3.3,0,0,1-.106-.248c0-.154.313-.339.66-.457A1.992,1.992,0,0,1,14.72,8.1c.379.033.182.382.182.382-.015.063-.185.347.1.422a2.26,2.26,0,0,0,1.008-.13l.912-.315L17.1,8.4a4.273,4.273,0,0,0,.736-.327l.417-.252a1.957,1.957,0,0,1,.35-.157c.087-.012.315-.067.345.15a.534.534,0,0,0,.272.442.654.654,0,0,0,.631-.045.252.252,0,0,0,.07-.37l-.011-.017a.708.708,0,0,0-.1-.125l-.143-.16c-.058-.085.01-.135.082-.162s.457-.148.457-.148a.942.942,0,0,0,.4-.192c.087-.081-.037-.261-.047-.275l.119.05.078.1s.044.1.011.155a.287.287,0,0,1-.106.077Z" transform="translate(-2.818 -4.664)" opacity="0.3" fill="url(#linear-gradient-32)"/>
    <g id="Group_31536" transform="translate(1.951 1.767)">
      <path id="Path_36467" d="M34.1,57.455c-.007-.008-.008-.006,0-.013a.135.135,0,0,0,.023-.027,2.512,2.512,0,0,0-.416.015l-.376.065.059.029a1.481,1.481,0,0,1,.2-.035l.246-.025.188-.012c.031,0,.012.02.012.02s-.015.026.071.024a1.519,1.519,0,0,0,.256-.036s-.22.046-.263-.006Z" transform="translate(-24.95 -41.389)" fill="#232323" opacity="0.1"/>
      <path id="Path_36468" d="M14.863,21.848s.029.052-.568.077a3.967,3.967,0,0,0,.644-.039c.215-.035-.075-.038-.075-.038ZM6.82,5.738v.025l.021.022c.007.007.064-.1.037-.083a.241.241,0,0,1-.032.045.064.064,0,0,1-.017.015c-.011.007-.012,0-.013-.022Zm-.49.514s-.075.09,0,.1l.1-.1a.2.2,0,0,0,.027-.077.692.692,0,0,0-.13.079Z" transform="translate(-6.297 -5.701)" fill="#232323" opacity="0.1"/>
    </g>
    <path id="Path_36469" d="M11.21,11.031c.239.029.292-.026.3-.033a5.4,5.4,0,0,0,.557-.04,3.779,3.779,0,0,0,.693-.173,1.334,1.334,0,0,0,.408-.23,1.521,1.521,0,0,1-.206-.218.217.217,0,0,1,0-.2.9.9,0,0,1,.456-.319.967.967,0,0,1,.458-.1.283.283,0,0,1,.2.088.806.806,0,0,1,.126.2.252.252,0,0,1-.022.122l-.03.054a.314.314,0,0,0,.073,0,3.709,3.709,0,0,0,.519-.1l.663-.189,1.052-.333c.1-.026.264-.085.264-.085l0,.011a.544.544,0,0,1,.076.247V9.715s0,.059-.136.159a.417.417,0,0,1-.326.086l-.154-.009-.14.008a.6.6,0,0,0-.238.079c-.351.207.142,1.806.142,1.806a18.589,18.589,0,0,0-2.053.387c-.469.122-.5.256-.5.256a.163.163,0,0,0,.027.24.323.323,0,0,1,.2.232c.037.177-.152.317-.152.317a1.3,1.3,0,0,1-.564.246c-.338.058-.466.068-.667-.091-.177-.14-.058-.362.06-.447a.566.566,0,0,0,.192-.217.129.129,0,0,0,.006-.073l-.113-.1c-.39-.259-1.922.012-1.922.012A1.7,1.7,0,0,1,10.413,12a.978.978,0,0,1,.056-.341l.011-.032a2.045,2.045,0,0,1,.222-.474l.265-.068.241-.051Z" transform="translate(-7.184 -6.534)" fill="#393939"/>
    <path id="Path_36470" d="M17.014,9.992l-.757.244-.133.031a.436.436,0,0,0-.1.048,9.474,9.474,0,0,1-1.252.359c-.612.121-.579-.07-.527-.161s.161-.216-.037-.244a.745.745,0,0,0-.43.086c-.082.037-.615.265-.244.438,0,0,.277.125-.073.341a3.05,3.05,0,0,1-1.042.345s-.11.012-.366.021a3.2,3.2,0,0,0-.8.128,1.77,1.77,0,0,0-.534.207l.037-.1.039-.09A3.446,3.446,0,0,1,11.9,11.38a3.759,3.759,0,0,0,.918-.121,1.578,1.578,0,0,0,.57-.226c.037-.024.15-.093.1-.125a1.113,1.113,0,0,1-.174-.142c-.042-.05-.076-.073-.031-.2.069-.2.427-.319.427-.319a1.053,1.053,0,0,1,.454-.1c.254,0,.25.146.25.146a.24.24,0,0,1-.052.161s-.1.113-.01.127a2.48,2.48,0,0,0,1.066-.2l1.572-.508a.437.437,0,0,0,.023.121Z" transform="translate(-7.395 -6.811)" fill="url(#linear-gradient-33)"/>
    <path id="Path_36471" d="M13.547,10.55a1.334,1.334,0,0,1-.408.23,3.779,3.779,0,0,1-.693.173l-.54.041H11.89a.279.279,0,0,1-.142.041,1.177,1.177,0,0,1-.156-.007l-.506.12-.065.1-.058.116a3.446,3.446,0,0,1,1.112-.268,3.743,3.743,0,0,0,.918-.121,1.578,1.578,0,0,0,.57-.226c.037-.024.15-.093.1-.125a1.113,1.113,0,0,1-.174-.142c-.042-.05-.076-.073-.031-.2.069-.2.427-.319.427-.319a1.058,1.058,0,0,1,.454-.1c.254,0,.25.146.25.146a.239.239,0,0,1-.052.161s-.1.113-.01.128a2.48,2.48,0,0,0,1.066-.2l1.572-.508a.959.959,0,0,0-.058-.127l-.264.085-1.052.333-.663.189-.519.1h-.073a.232.232,0,0,1,.03-.054.252.252,0,0,0,.022-.122.8.8,0,0,0-.126-.2.283.283,0,0,0-.2-.088.962.962,0,0,0-.458.1.9.9,0,0,0-.456.319.221.221,0,0,0,0,.2,1.518,1.518,0,0,0,.206.218" transform="translate(-7.566 -6.529)" fill="url(#linear-gradient-34)"/>
    <path id="Path_36472" d="M13.036,16.124a.369.369,0,0,1,.033-.183c.046-.119.177-.116.265-.1a.3.3,0,0,0,.286-.024c.121-.082.091-.308.009-.554a1.064,1.064,0,0,1-.064-.414l-.118-.126-.046.135a3.257,3.257,0,0,0,.161.731c.033.1.058.156-.143.1a.33.33,0,0,0-.3.024.427.427,0,0,0-.21.42Z" transform="translate(-8.91 -10.162)" opacity="0.2" fill="url(#linear-gradient-35)"/>
    <path id="Path_36473" d="M16.393,21a1.426,1.426,0,0,0-.178-.535.512.512,0,0,0-.1.135.934.934,0,0,1,.092.3.906.906,0,0,0,.085.054.33.33,0,0,0,.1.041Zm1.1-.729a.507.507,0,0,0-.073.454.5.5,0,0,0,.114-.132.281.281,0,0,1,.027-.2.353.353,0,0,0-.067-.124Z" transform="translate(-11.121 -13.989)" fill="#141414" opacity="0.5"/>
    <path id="Path_36474" d="M12.957,16.166a.344.344,0,0,1,.176-.354c.084-.061.258,0,.258,0s.132.042.2-.02,0-.285-.042-.413a2.176,2.176,0,0,1-.087-.44.487.487,0,0,0-.024-.153l-.04.117a3.257,3.257,0,0,0,.161.731c.033.1.058.156-.143.1a.33.33,0,0,0-.3.024.428.428,0,0,0-.21.42l.051,0Z" transform="translate(-8.91 -10.201)" opacity="0.35" fill="url(#linear-gradient-36)"/>
    <path id="Path_36475" d="M16.221,20.556a1.12,1.12,0,0,1,.143.411.356.356,0,0,0,.1.042,1.426,1.426,0,0,0-.178-.535.333.333,0,0,0-.067.079Zm1.345-.271a.507.507,0,0,0-.073.454.689.689,0,0,0,.051-.048v-.01a.394.394,0,0,1,.055-.343.171.171,0,0,0-.037-.053Z" transform="translate(-11.195 -13.999)" fill="#505050" opacity="0.3"/>
    <g id="Group_31537" transform="translate(0.693 0.702)">
      <path id="Path_36476" d="M5.511,2.266h.031v.015a.977.977,0,0,0-.185.215c-.048.064-.114.12-.161.184l-.262.37a1.41,1.41,0,0,0-.223.339h.008a.284.284,0,0,1,.167-.031l.008.038c-.054.079-.071.2-.146.262a.3.3,0,0,1-.125.031V3.682a.864.864,0,0,0,.116-.216c-.008-.006-.007,0-.021-.007a.44.44,0,0,1-.185.046L4.525,3.5a.562.562,0,0,0,.092-.146,1.953,1.953,0,0,0,.208-.308H4.8a1.421,1.421,0,0,1-.285.092l-.008-.021c.041-.052.062-.116.1-.167a1.438,1.438,0,0,0,.1-.125C4.7,2.813,4.7,2.816,4.69,2.8a.412.412,0,0,1,.192-.092v.008a1.261,1.261,0,0,0-.223.313h.015c.053-.041.184-.037.231-.077a.7.7,0,0,0,.069-.108L5.2,2.561c.046-.062.135-.117.162-.193-.02-.011-.017,0-.021-.031.045-.026.14-.042.177-.069Zm6.218.985a.475.475,0,0,1,.246.031c.006.009.006.013.008.031a.11.11,0,0,0,.062.154c.06-.04.153-.032.223-.061a.454.454,0,0,0,.125-.1.578.578,0,0,1,.271.108h.007c-.065.144,0,.309-.039.477a1.168,1.168,0,0,1-.417.67c-.051.038-.086.111-.161.125V4.677a1.471,1.471,0,0,0,.377-.77A1.11,1.11,0,0,0,12.4,3.5c-.012-.017-.026-.02-.054-.021a.771.771,0,0,1-.178.046l-.393.125c-.051.017-.179.03-.192.077.035.029.047.088.069.131.044.084.114.134.116.262a.265.265,0,0,1-.084.008l-.116-.038c-.074-.121-.111-.261-.192-.369-.023-.031-.087-.021-.108-.054a.3.3,0,0,1,.162-.054c.027,0,.072.025.108.016a2.03,2.03,0,0,0,.3-.1c.006-.008,0,0,.008-.015-.046-.051-.042-.152-.131-.161-.015-.009-.041,0-.046-.008s-.011,0-.008-.015h.008c.013-.041.035-.045.061-.07Zm1.393.262c.092,0,.208,0,.216.085-.052.034-.051.085-.077.146-.012.029-.04.057-.054.085-.006.012-.011.007,0,.015s.021.007.031.031,0,.033,0,.054a.715.715,0,0,0,.046.125,1.241,1.241,0,0,1,.154.385.1.1,0,0,1-.061.021c-.039-.029-.1-.036-.116-.085V4.313a1.369,1.369,0,0,0-.108-.239c-.018-.035-.018-.082-.054-.1a1,1,0,0,1-.377.308V4.274h.008c.038-.058.1-.092.146-.147a.876.876,0,0,0,.239-.57.049.049,0,0,1-.039-.03.11.11,0,0,0,.046-.015ZM3.887,5.9l-.008-.008c-.008-.008-.015,0-.021.008-.056.029-.15.277-.262.208a.115.115,0,0,1-.1-.033.482.482,0,0,1,.178-.238A1.976,1.976,0,0,0,3.7,5.482l-.021-.007c-.027-.009-.049.033-.069.054a1.058,1.058,0,0,0-.167.185,1.283,1.283,0,0,0-.313.021H3.111c.019-.05.167-.213.125-.285l-.008-.021c-.14,0-.31.25-.354.354a.76.76,0,0,1-.054.154v.008l.313-.039c.042-.008.1.01.125-.007h.108L3.42,5.83a1.656,1.656,0,0,0,.2-.215h.021V5.72a.621.621,0,0,0-.177.215V6c-.042.171.043.258.192.246.1-.09.258-.167.238-.346Zm-.9-.146H2.943a.244.244,0,0,1,.208-.185v.038l-.108.139a.1.1,0,0,0-.054.008Zm16.575.038-.092-.208c-.058-.112-.119-.275-.284-.277a.337.337,0,0,0-.108.115c-.151.343.16.731.3.916a.569.569,0,0,0,.185.177c-.018.268-.246.355-.492.246a1.16,1.16,0,0,1-.423-.385c-.037-.048-.094-.089-.131-.139a1.019,1.019,0,0,0-.1-.139V6.09H18.4a1.576,1.576,0,0,0,.1.231,1.526,1.526,0,0,0,.546.685c.118.084.313.215.485.092.3-.214.152-1.009.031-1.307Zm-.021.37c-.02.02-.1-.084-.125-.1-.086-.086-.258-.238-.161-.385h.038a.882.882,0,0,1,.192.261,1.94,1.94,0,0,0,.061.208c0,.013,0,.007-.008.015Zm-4.881.423c.016,0,.015,0,.021.008s0,0,.008.015,0,.025,0,.046c-.212.052-.146.258-.193.47-.035.157-.027.345-.061.5V7.7l-.1.785a.1.1,0,0,1-.054.015c-.109-.167-.279-.3-.4-.459-.039-.051-.09-.147-.154-.167a1.7,1.7,0,0,1-.061.277c-.051.184-.074.366-.116.546a.1.1,0,0,1-.061.015c-.058-.093-.143-.168-.208-.254l-.516-.639c-.039-.052-.1-.095-.139-.146-.089-.118-.2-.292-.354-.339a.605.605,0,0,0-.185,0c-.011-.02-.021-.024-.021-.054l.021-.008c.059-.042.161-.032.239-.054a3.925,3.925,0,0,1,.446-.139l.008.021c.014.02.011.021.007.046a.165.165,0,0,0-.125.092.1.1,0,0,0-.015.069l.564.685a3.119,3.119,0,0,1,.308.37c.006-.008,0,0,.008-.015.031-.049.022-.13.038-.192a2.054,2.054,0,0,0,.077-.4.748.748,0,0,1-.139-.162c-.075-.1-.194-.185-.271-.284a.546.546,0,0,0-.208-.192.835.835,0,0,0-.162-.008V7.094a.07.07,0,0,1-.008-.038h.008V7.047a5.484,5.484,0,0,0,.6-.154.091.091,0,0,1,.021.062c-.063.024-.134.046-.139.131a.94.94,0,0,1,.054.085l.085.077a1.9,1.9,0,0,1,.208.239H13.7V7.471c.033-.049.022-.137.038-.2.052-.207.093-.354-.177-.339l-.008-.021c-.006-.009-.006-.013-.008-.031a1.363,1.363,0,0,1,.246-.054,2.583,2.583,0,0,1,.293-.092l.007.021a.065.065,0,0,1,.008.039.357.357,0,0,0-.146.092.828.828,0,0,0-.077.271,2.331,2.331,0,0,0-.085.438.87.87,0,0,1,.139.162c.068.09.17.163.239.254a.405.405,0,0,0,.108.125V8.122c.035-.057.014-.207.031-.284.049-.223.029-.482.077-.71a.715.715,0,0,0-.008-.292c-.039-.075-.12-.041-.208-.069l-.008-.046.021-.008c.045-.029.108-.016.167-.031a1.148,1.148,0,0,0,.3-.092ZM3.235,9.168c-.207-.011-.382-.126-.584-.146a4.973,4.973,0,0,0-.031.523c.014.01.013.015.031.021a.038.038,0,0,0,.021.008c.032-.052.126-.209.192-.215a.875.875,0,0,1,.039.861.221.221,0,0,1-.254.116c-.376-.1-.349-.844-.346-1.323h.015V9.02c.041.041.024.183.021.261.029.051.007.187.021.254a.923.923,0,0,0,.2.493c.036.033.129.09.192.046.147-.039.2-.317.13-.477-.078.083-.11.2-.262.215A.093.093,0,0,0,2.582,9.8c-.135-.21-.028-.536-.021-.808l-.323-.1.015-.146a.441.441,0,0,1,.108.039c.125.046.26.075.385.115.079.026.175.015.177-.085-.042-.042-.069-.092-.13-.116l-.231-.038a.33.33,0,0,1-.177-.393.558.558,0,0,1,.061-.154h.008v.008c.017.013.019.021.021.046-.057.043-.042.126-.031.2.033.025.055.063.1.077l.262.046c.156.063.221.241.192.47h.008v.008a.8.8,0,0,1,.231.061c.006.009.006.013.008.031a.229.229,0,0,0-.015.107Zm17.137,2.009-.008-.723h-.007c-.037.053-.108.08-.146.13-.017.022-.03.055-.054.069l-.046.008c-.062-.038-.15-.02-.154-.116.006-.008,0,0,.008-.015a.994.994,0,0,0,.577-.362.616.616,0,0,0,.167-.208.74.74,0,0,0-.016-.246V9.623c-.024-.112-.02-.25-.046-.362l-.008-.1c-.024-.07-.115-.084-.131-.154,0-.024.011-.034.031-.054a.477.477,0,0,1,.13.015,3.1,3.1,0,0,1,.069.516c.021.087.012.2.03.292V9.9c.026.12-.012.278.015.408a1.251,1.251,0,0,1,0,.408v.131c-.02.093-.025.209-.046.292h-.015v-.046a1.522,1.522,0,0,1,0-.3l-.007-.739h-.008v.015c-.1.091-.168.228-.271.323a3.518,3.518,0,0,1-.046.785h-.02ZM7.724,10.9a1.4,1.4,0,0,0,.307-.054c.184-.045.35-.014.346-.246l.054-.007v.015c.021.033.012.079.021.125a1.436,1.436,0,0,1,.061.313c-.063.042-.185.026-.271.046-.114.027-.239.031-.362.062a1.123,1.123,0,0,1-.239.039L7.6,10.747a.686.686,0,0,0,.271-.816.774.774,0,0,0-.407-.577A.56.56,0,0,0,7.108,9.3a.653.653,0,0,0-.493.477,1.174,1.174,0,0,0,.167.877.516.516,0,0,0,.192.146c.042.017.109.012.131.046l.116.423-.808.139V11.4H6.4l-.085-.447H6.33a.065.065,0,0,1,.038-.007.15.15,0,0,0,.077.125c.068.064.363-.008.454-.031.045-.011.091,0,.125-.021.006-.008,0,0,.008-.015-.011-.018-.011-.052-.021-.069v-.007a.782.782,0,0,1-.723-.592.854.854,0,0,1-.008-.47.972.972,0,0,1,.739-.646.969.969,0,0,1,.369-.046,1.92,1.92,0,0,1,.331.069.843.843,0,0,1,.477.493,1.58,1.58,0,0,1,.031.177.722.722,0,0,1-.008.323.81.81,0,0,1-.331.477,1.676,1.676,0,0,0-.167.092v.1ZM20.518,9.44c-.018-.042-.1-.172-.177-.125h-.015c0-.013,0-.007.008-.015a.123.123,0,0,0-.015-.069l-.046-.007c-.007.006,0,0-.015.007,0,.046.022.048.021.1a.6.6,0,0,0-.139.616.369.369,0,0,0,.084.139c.017.012.026.008.039.021.255.022.358-.417.254-.67Zm-.115.508c-.015.017-.045.023-.062.038-.161-.012-.174-.306-.116-.446a.414.414,0,0,1,.077-.1c.016,0,.015,0,.021-.008a.162.162,0,0,1,.108.031.527.527,0,0,1-.03.485Zm-5.641,3.423-.007-.046c.082-.034.225-.068.254-.154.053-.063,0-.314-.021-.393l-.228-.962c-.035-.114-.038-.286-.146-.323-.069-.053-.238.036-.271.015a.079.079,0,0,1-.015-.046h.008v-.008a.929.929,0,0,0,.192-.061l.339-.1a2.1,2.1,0,0,1,.4-.139l.007.054c-.086.032-.236.078-.246.185-.029.042.017.247.031.292.073.235.117.5.185.739a1.189,1.189,0,0,0,.061.284V12.7a1.982,1.982,0,0,0,.17-.331l.354-.746A1.767,1.767,0,0,0,16,11.215c-.042-.055-.031-.145-.1-.17-.063-.053-.253.032-.262.021l-.015-.008v-.046a.557.557,0,0,0,.161-.062l.462-.167a1.05,1.05,0,0,1,.246-.1c0,.021.013.036.007.046-.033.04-.1.054-.146.085a.665.665,0,0,0-.077.085,1.311,1.311,0,0,0,.085.5c.068.239.1.487.161.723.032.121.044.393.131.446s.2-.024.254-.038l.008.054-.654.271-.208.069a.126.126,0,0,1-.015-.046c.083-.031.212-.083.246-.161a.5.5,0,0,0-.015-.285c-.055-.2-.076-.413-.131-.608l-.069-.292c-.012-.046,0-.109-.039-.131a1.65,1.65,0,0,1-.162.361l-.361.769a1.415,1.415,0,0,0-.177.362l.039.123.046.039a.85.85,0,0,0,.271-.046l.008.054-.6.2a1.833,1.833,0,0,1-.334.108Zm5.617-.146a.39.39,0,0,0-.085-.008,1.06,1.06,0,0,1-.1.054,1.392,1.392,0,0,0-.271.284c-.056.078-.1.164-.154.246-.022.036-.026.078-.054.108v.015a.428.428,0,0,0,.154-.084l.362-.238c.057-.042.1-.107.161-.147a.393.393,0,0,0-.015-.231ZM20.2,13.5c-.046.034-.091.082-.139.116a1,1,0,0,0-.125.077h-.008a.778.778,0,0,1,.223-.261c.033-.024.074-.03.108-.054h.03a.046.046,0,0,0,.015.015c-.007.059-.069.079-.108.108ZM3.843,14.542a1,1,0,0,0-.092-.239c-.068-.165-.121-.34-.178-.508l-.085-.285a.5.5,0,0,0-.039-.139V13.35c.052.021.132.017.177.046h.039a.449.449,0,0,0-.039-.139c-.023-.038-.172-.038-.215-.069a1.09,1.09,0,0,1-.161-.254,1.776,1.776,0,0,0-.418-.477.432.432,0,0,0-.3-.131l-.054.039a.68.68,0,0,0,.115.508v.015a.233.233,0,0,1-.1-.054H2.486a.281.281,0,0,0,.031.131c.009.038.07.069.108.077a5.01,5.01,0,0,0,.185.593l.146.431c.03.069.1.12.125.192H3.1a1.568,1.568,0,0,0-.077-.185c-.071-.17-.125-.351-.185-.523l-.1-.331a.5.5,0,0,0-.031-.116v0a.543.543,0,0,1,.125.054c.09.039.175.054.271.092a.943.943,0,0,0,.239.077,1.065,1.065,0,0,0,.085.3v.021c-.117-.081-.115-.195-.324-.177a.158.158,0,0,1-.038.03.263.263,0,0,0,0,.178c.05.126.209.387.339.423.05.036.125-.008.146-.046.047.025.057.132.077.185a.552.552,0,0,0,.2.3v.008h.016Zm-.493-1.37a.738.738,0,0,1-.216-.062l-.484-.193c-.018-.07-.148-.319-.077-.407l.015-.021c.015,0,.015,0,.021-.008.237.029.475.317.592.477a.853.853,0,0,0,.146.2v.015Zm.125.669-.069.085a.59.59,0,0,0-.062.038c-.132,0-.137-.134-.192-.215,0-.076.03-.076.061-.116.018,0,.022,0,.031-.007.119,0,.147.054.216.1a.272.272,0,0,1,.015.115Zm4.163-.215c.111,0,.276.1.277.208a1.072,1.072,0,0,0-.292.346.5.5,0,0,0-.108.177c.076.037.136.112.215.139v-.008a1.722,1.722,0,0,0,.2-.369c.011-.045-.027-.08-.015-.108s0-.006.015-.015c.076-.048.28.1.285.167a1.2,1.2,0,0,0-.377.423c-.056.077-.167.153-.2.246h.021a.689.689,0,0,1,.17-.046,1.518,1.518,0,0,1,.254-.085V14.68a.287.287,0,0,1-.124-.131h.008v-.008a.786.786,0,0,1,.4.208l.008.131-.021.007c-.045.024-.173-.1-.2-.13l-.308.154c.008.006,0,0,.015.008.043.041.1.055.139.108l.039.185a1.062,1.062,0,0,1,.092.5H8.078a.626.626,0,0,1-.131-.2c-.017-.056.007-.125-.008-.192a.762.762,0,0,0-.146-.369.615.615,0,0,0-.239.146.257.257,0,0,1-.192-.231.112.112,0,0,1,.031-.008.131.131,0,0,0,.077.015c.063-.1.191-.181.215-.308a1.361,1.361,0,0,1-.446-.246V14.3a.261.261,0,0,1,.077-.007.254.254,0,0,0,.116.015.7.7,0,0,0,.092-.208,2.17,2.17,0,0,0,.131-.362c.009-.042-.015-.068-.015-.116Zm12.589.131a.086.086,0,0,1-.021-.031H20.16a1.41,1.41,0,0,1-.161.092c-.078.055-.148.128-.223.185a.462.462,0,0,0-.108.085c-.039.059-.031.156-.077.208v.031c.061-.022.09-.094.139-.13s.11-.1.167-.147c.037-.026.08-.041.115-.069A.083.083,0,0,1,20.05,14a1.15,1.15,0,0,1-.17.477c-.018.042-.023.107-.054.138-.015.015-.045.018-.061.031l-.154.17c-.049.067-.071.156-.123.223a.1.1,0,0,0,.007.054.145.145,0,0,0,.031.015,2.079,2.079,0,0,0,.277-.285,3.314,3.314,0,0,0,.285-.6.981.981,0,0,0,.138-.454Zm-.608,1.185v.007h-.008c.013-.092.084-.118.116-.185h.015a.257.257,0,0,1-.125.178Zm-11.5.123c.091.018.342.126.346.223.015.022,0,.048-.007.069a.14.14,0,0,1-.039.008c-.039.018-.074-.027-.1-.046-.052-.039-.215-.187-.2-.254Z" transform="translate(-2.238 -2.266)" fill="#232323" opacity="0.72"/>
      <path id="Path_36477" d="M13.043,15.954c-.046.013-.1.042-.146.054l-.108.007c-.012-.125-.074-.222-.077-.354a.835.835,0,0,0,.338-.061.093.093,0,0,0-.021-.062.469.469,0,0,0-.308.023.07.07,0,0,1-.038-.007c-.043-.054-.023-.167-.061-.223V15.3c.083-.018.218-.032.262-.092.006-.008,0,0,.007-.015a.093.093,0,0,1-.015-.024.371.371,0,0,0-.277.031c-.033-.1.007-.187-.1-.216.021-.042.1-.038.146-.054a1.492,1.492,0,0,0,.223-.092c0-.013,0-.008.008-.015,0-.039-.015-.037-.031-.062a.324.324,0,0,0-.262.062h-.015a.536.536,0,0,1,.077-.185c.022-.031.062-.027.077-.069h.008v-.008l-.046-.061c-.036-.025-.088-.028-.125-.054a.3.3,0,0,0-.131.015c0,.03.017.048.021.069a.784.784,0,0,1-.085.362.792.792,0,0,1-.377.108.336.336,0,0,1-.085-.046c-.006-.008,0,0-.008-.015.109-.1.188-.331.339-.377l.008-.038c-.037-.039-.221-.231-.313-.17l-.021.007c0,.066.033.115.015.185a1.69,1.69,0,0,1-.185.417c-.042.068-.135.142-.139.239.126-.012.156-.142.254-.178l.085.077a.822.822,0,0,1,.054.231l.108.5.016.246c.021.076.082.2.161.223.013.006.024,0,.038-.008s.012-.063.031-.092c.043-.031.12-.021.177-.039.157-.042.341-.039.516-.077.083-.018.219.031.285-.007l.021-.008c0-.1-.2-.144-.3-.115Zm-.97-.877a.542.542,0,0,1,.239-.039c.083.038.052.158.1.231a.512.512,0,0,1-.262.1c-.011-.084-.024-.248-.077-.292Zm.1.377a.862.862,0,0,0,.254-.085h.008a.762.762,0,0,0,.062.246c-.028.068-.2.062-.262.1a.688.688,0,0,1-.061-.262Zm.431.6a1.364,1.364,0,0,1-.293.046,2.231,2.231,0,0,1-.069-.323,1.967,1.967,0,0,0,.277-.062,1.132,1.132,0,0,0,.085.324v.015Zm-1.5-.246c.1.06.1.3.069.431a.1.1,0,0,1-.077.021c-.1-.157-.082-.191-.015-.354.012-.031.011-.074.021-.1Zm8.426,1.747.069-.346.077-.57c.021-.1.034-.283-.03-.331a.281.281,0,0,0-.2-.007.8.8,0,0,1-.446,0c-.165-.111.015-.472.177-.477a.223.223,0,0,0,.054.069c.233.017.422-.094.647-.039a.393.393,0,0,1,.062.1,1.471,1.471,0,0,1-.008.4c-.023.1-.006.206-.03.313-.038.167-.042.362-.085.523a1.119,1.119,0,0,1-.021.154.336.336,0,0,1-.262.208Zm-10.15.808c-.014-.079-.1-.124-.154-.17a3.756,3.756,0,0,0-.459-.407c-.086-.054-.21-.045-.246-.146h.021a.1.1,0,0,0,.054.008c0-.1-.073-.128-.116-.185-.1-.126-.234-.322-.446-.323a.083.083,0,0,0-.015.039c.051.054.078.132.139.177s.155.094.185.177H8.313a1.681,1.681,0,0,0-.161-.125.972.972,0,0,1-.185-.215c-.021-.03-.08-.089-.061-.131s.037-.033.085-.031c.063.044.183.064.254.108a1.214,1.214,0,0,1,.459.469c.016.042-.01.083-.008.1a2.365,2.365,0,0,0,.27.161l.3.231c.025.022.043.057.069.077.072.054.2.144.208.254-.08.048-.213-.016-.285-.054a2.474,2.474,0,0,1-.531-.385c-.051-.047-.138-.1-.13-.185h.031c.018.026.048.032.069.054s.021.049.039.069a1.752,1.752,0,0,0,.393.323.465.465,0,0,0,.245.108Zm4.987.615a.849.849,0,0,0-.285-.292,2.824,2.824,0,0,0-1.639-.523c-.032.02-.1,0-.139.015a.432.432,0,0,0-.131.069c0,.189.281.291.438.331a.382.382,0,0,0,.231-.039c.042-.16-.151-.183-.239-.262h-.015V18.27a2.078,2.078,0,0,1,1.37.393.682.682,0,0,1,.223.254.156.156,0,0,1,0,.131c-.031.084-.133.078-.231.1a.84.84,0,0,1-.639-.178c-.021.037.009.094-.021.131-.034.093-.153.069-.262.092a.915.915,0,0,1-.564-.125c-.029-.02-.05-.055-.077-.077a.124.124,0,0,0-.008-.039.341.341,0,0,0,.046-.054.511.511,0,0,1,.462.116c0,.016,0,.015-.008.021-.015.029-.048.033-.092.031v.015a.264.264,0,0,0,.161-.038L12.95,19a.513.513,0,0,0-.077-.085.564.564,0,0,0-.531-.03.2.2,0,0,0,.108.215,1.091,1.091,0,0,0,.408.2c.056.016.107,0,.167.015a.524.524,0,0,0,.208,0c.1-.025.235-.128.125-.246v-.007a1.5,1.5,0,0,1,.161.108.969.969,0,0,0,.616.092c.109-.024.222-.024.253-.125.035-.054-.013-.13-.03-.161Zm-1.709-.647c.027.018.043.056.069.077a.065.065,0,0,1-.008.039c-.05.136-.334.035-.4-.016-.021-.016-.03-.048-.046-.069,0-.016,0-.015.008-.021.021-.059.081-.042.13-.069a.449.449,0,0,1,.246.061Zm7.064.077H19.8v.015c.006.009.006.013.008.031-.1.1-.19.386-.331.423v-.021a.961.961,0,0,0,.231-.346h-.015c-.036-.023-.1.012-.125.021a.658.658,0,0,0-.239.162c0,.025.015.041.008.046a.186.186,0,0,1-.021.021c-.013,0-.007,0-.015-.007-.029-.01-.03-.015-.031-.054.037-.033.06-.084.1-.115a1.415,1.415,0,0,1,.161-.1c.058-.031.142-.036.193-.077Zm-.539.57c-.046.041-.157.045-.208.084H18.96c.02-.029.056-.041.077-.069s.021-.042.039-.062c0-.016,0-.015-.008-.021V18.9a1.153,1.153,0,0,0-.715.254c-.03.026-.048.065-.077.092a.139.139,0,0,0,.007.046c.136.009.392-.074.423-.185.006,0,0,0,0-.008v-.015a.417.417,0,0,0-.277.069h-.007a.775.775,0,0,1,.338-.177c.033-.011.107-.029.139-.008l.021.008a.334.334,0,0,1-.2.185v.015a1.965,1.965,0,0,0,.331-.125,1.251,1.251,0,0,0,.216-.077,1.008,1.008,0,0,0,.208-.292c-.178.028-.193.2-.3.3Zm-.608.154v.021c-.015.01-.025.031-.039.038-.04.023-.093.021-.131.046-.018,0-.022,0-.03-.008H18.36c.021-.066.148-.1.208-.1Zm-3.77.677.569.021-.007.021c.059.006.043.033.077.054a.936.936,0,0,0,.231.084v.016h-.054a.087.087,0,0,1-.046.007c0-.024.013-.01-.007-.021-.073-.055-.215-.02-.3,0-.054.013-.116,0-.146.031-.008.007,0,0-.007.008h.021a1.415,1.415,0,0,1,.426-.03v.015H15.5c-.04.025-.107,0-.161.015a1.348,1.348,0,0,1-.292.031l-.008-.015a.068.068,0,0,0,.023-.031A.122.122,0,0,1,15,20.008c-.006-.008,0,0-.008-.015l.125-.021c-.008-.006,0,0-.015-.008a.706.706,0,0,0-.324.021h.015c.03.018.11.011.139.021v.007H14.92v.008a1.833,1.833,0,0,0-.192-.031.079.079,0,0,1-.015-.039.094.094,0,0,1,.054-.015c.017-.011.042,0,.069-.008a.667.667,0,0,1,.223-.021v.015a.41.41,0,0,0,.307.007l-.007-.007L15.22,19.9v-.015l.021-.008c.021-.013.064-.009.085-.021-.213,0-.442-.006-.647.008v.008h.008c.062.039.209-.026.292,0v.015h-.015a.616.616,0,0,1-.369,0c-.006-.008,0,0-.008-.015a.647.647,0,0,1,.116-.046c.031-.008.068,0,.092-.015ZM7.72,5.682a.748.748,0,0,0-.177-.015,1.08,1.08,0,0,1-.077.167l-.146.354a1.674,1.674,0,0,1-.125.33v.015c.081-.015.136-.1.185-.146a1.214,1.214,0,0,0,.369-.662.2.2,0,0,1-.031-.046Zm-.146.308c-.036.058-.055.115-.092.167s-.09.088-.125.139H7.348a.687.687,0,0,1,.062-.154,3.2,3.2,0,0,1,.13-.313.12.12,0,0,1,.069.015c.021.01.006,0,.015.015.016.039-.035.1-.054.131ZM21.228,3.628c-.08-.081-.142-.183-.223-.262V3.358a.921.921,0,0,0-.2.167c-.049-.018-.076-.071-.116-.1A.731.731,0,0,0,20.2,3.2c-.029.022-.071.021-.108.038a.491.491,0,0,0-.254.239.558.558,0,0,0,.038.377,2.459,2.459,0,0,0,.308.47.652.652,0,0,0,.354.285c.188.046.276-.172.346-.254s.23-.1.285-.215a.233.233,0,0,0-.008-.154,1.442,1.442,0,0,0-.277-.362c0-.046.026-.048.046-.077.048.024.066.092.1.131s.106.077.154.125a.2.2,0,0,0,.154-.054h.008c-.021-.051-.086-.087-.125-.125Zm-.438.831c-.136.032-.2-.057-.277-.131a3.474,3.474,0,0,1-.446-.631c-.048-.077-.172-.22-.108-.331h.03c.039.059.1.1.147.154.115.152.256.286.369.438l.215.277a.675.675,0,0,0,.108.146.24.24,0,0,1-.039.077Zm.115-.546c.062.083.147.134.146.284-.024.023-.03.042-.069.054-.008.006,0,0-.015.008a6.041,6.041,0,0,0-.392-.5c-.041-.055-.1-.1-.146-.154-.071-.093-.155-.168-.231-.254a.32.32,0,0,0-.061-.069c.007-.017.006-.011.015-.021.13,0,.193.089.271.146a2.328,2.328,0,0,1,.485.508Z" transform="translate(-5.659 -2.912)" fill="#232323" opacity="0.72"/>
    </g>
  </g>
</svg>
