<svg xmlns="http://www.w3.org/2000/svg" xmlns:xlink="http://www.w3.org/1999/xlink" width="13.761" height="20" viewBox="0 0 13.761 20">
  <defs>
    <clipPath id="clip-path">
      <rect id="Rectangle_3346" data-name="Rectangle 3346" width="13.762" height="20" fill="#fff"/>
    </clipPath>
  </defs>
  <g id="Group_2132" data-name="Group 2132" transform="translate(0 0)">
    <g id="Group_2131" data-name="Group 2131" transform="translate(0 0)" clip-path="url(#clip-path)">
      <path id="Path_4214" data-name="Path 4214" d="M15.51,18.14v.092a.4.4,0,0,0,.007-.092Zm0,0v.092a.4.4,0,0,0,.007-.092Zm0,0v.092a.4.4,0,0,0,.007-.092Z" transform="translate(-4.502 -5.266)" fill="#fff"/>
      <path id="Path_4215" data-name="Path 4215" d="M12.108,3.279A7.7,7.7,0,0,0,8.169,2.193V0H5.543V2.229A7.23,7.23,0,0,0,2.179,3.236,3.72,3.72,0,0,0,.546,6.572v.121h2.52V6.572a2.214,2.214,0,0,1,.412-1.384,2.325,2.325,0,0,1,1.249-.745A9.6,9.6,0,0,1,7.1,4.2,8.06,8.06,0,0,1,9.4,4.457a2.2,2.2,0,0,1,1.221.788A2.542,2.542,0,0,1,11,6.714V8.559H7.388a17.262,17.262,0,0,0-4.116.454A6.39,6.39,0,0,0,2.236,9.4,3.726,3.726,0,0,0,.795,10.5,4.283,4.283,0,0,0,0,13.2a4.034,4.034,0,0,0,1.526,3.371A6.594,6.594,0,0,0,5.543,17.75V20H8.169V17.672A13.664,13.664,0,0,0,10.49,17.3a5.768,5.768,0,0,0,.561-.185h2.711V6.728a3.887,3.887,0,0,0-1.654-3.449m-1.093,9.6a.4.4,0,0,1-.007.092,2.157,2.157,0,0,1-.1.646l-.007.035a2.394,2.394,0,0,1-1.05,1.341,6.48,6.48,0,0,1-3.428.752,4.547,4.547,0,0,1-2.669-.674,2.208,2.208,0,0,1-.923-1.909,4.539,4.539,0,0,1,.021-.454A2.285,2.285,0,0,1,3.3,11.59a2.875,2.875,0,0,1,1.533-.859,12,12,0,0,1,2.874-.277h3.307Z" transform="translate(0 0)" fill="#fff"/>
    </g>
  </g>
</svg>
