<svg width="14" height="20" viewBox="0 0 14 20" fill="none" xmlns="http://www.w3.org/2000/svg">
<g clip-path="url(#clip0_109_328)">
<mask id="mask0_109_328" style="mask-type:luminance" maskUnits="userSpaceOnUse" x="0" y="0" width="14" height="20">
<path d="M13.762 0H0V20H13.762V0Z" fill="white"/>
</mask>
<g mask="url(#mask0_109_328)">
<path d="M11.0088 12.874V12.966C11.0147 12.9357 11.017 12.9049 11.0158 12.874H11.0088ZM11.0088 12.874V12.966C11.0147 12.9357 11.017 12.9049 11.0158 12.874H11.0088ZM11.0088 12.874V12.966C11.0147 12.9357 11.017 12.9049 11.0158 12.874H11.0088Z" fill="#5C5C5C"/>
<path d="M12.1084 3.279C10.9172 2.56888 9.55628 2.19367 8.16944 2.193V0H5.54344V2.229C4.35639 2.28312 3.20098 2.62899 2.17944 3.236C1.63882 3.60023 1.2034 4.10012 0.916801 4.68561C0.630201 5.2711 0.502483 5.92161 0.546441 6.572V6.693H3.06644V6.572C3.04524 6.07759 3.19029 5.59032 3.47844 5.188C3.8044 4.8125 4.24215 4.55138 4.72744 4.443C5.50526 4.26366 6.30242 4.18203 7.10044 4.2C7.87548 4.17458 8.65013 4.26114 9.40044 4.457C9.88495 4.57378 10.3154 4.85161 10.6214 5.245C10.8944 5.68467 11.0266 6.19717 11.0004 6.714V8.559H7.38844C6.00319 8.54463 4.62125 8.69705 3.27244 9.013C2.91657 9.11182 2.56994 9.2413 2.23644 9.4C1.67287 9.64244 1.17789 10.0203 0.795441 10.5C0.233843 11.2847 -0.046291 12.2361 0.000441363 13.2C-0.0326196 13.8429 0.0886533 14.4843 0.354128 15.0708C0.619602 15.6572 1.02157 16.1716 1.52644 16.571C2.70183 17.3899 4.11192 17.8038 5.54344 17.75V20H8.16944V17.672C8.95236 17.6149 9.7289 17.4904 10.4904 17.3C10.6805 17.248 10.8677 17.1862 11.0514 17.115H13.7624V6.728C13.8075 6.05929 13.6789 5.39029 13.3891 4.78597C13.0992 4.18164 12.6581 3.66251 12.1084 3.279ZM11.0154 12.879C11.0167 12.9098 11.0143 12.9407 11.0084 12.971C11.0081 13.1902 10.9744 13.408 10.9084 13.617L10.9014 13.652C10.7277 14.2126 10.354 14.6898 9.85144 14.993C8.7997 15.5542 7.61353 15.8144 6.42344 15.745C5.4855 15.8015 4.5531 15.566 3.75444 15.071C3.45276 14.8558 3.21009 14.5682 3.04879 14.2345C2.88748 13.9009 2.81274 13.5321 2.83144 13.162C2.83086 13.0104 2.83786 12.8589 2.85244 12.708C2.8991 12.302 3.05381 11.9159 3.30044 11.59C3.70927 11.1507 4.24531 10.8503 4.83344 10.731C5.7768 10.5233 6.74178 10.4303 7.70744 10.454H11.0144L11.0154 12.879Z" fill="#5C5C5C"/>
</g>
</g>
<defs>
<clipPath id="clip0_109_328">
<rect width="13.761" height="20" fill="white"/>
</clipPath>
</defs>
</svg>
