<svg xmlns="http://www.w3.org/2000/svg" width="20" height="20" viewBox="0 0 20 20">
  <g id="attach_file_black_24dp" transform="translate(0)">
    <path id="Path_337" data-name="Path 337" d="M0,0H20V20H0Z" transform="translate(0)" fill="none"/>
    <path id="Path_338" data-name="Path 338" d="M14.917,5.167V14.75a3.333,3.333,0,0,1-6.667,0V4.333a2.083,2.083,0,0,1,4.167,0v8.75a.833.833,0,1,1-1.667,0V5.167H9.5v7.917a2.083,2.083,0,1,0,4.167,0V4.333A3.333,3.333,0,0,0,7,4.333V14.75a4.583,4.583,0,0,0,9.167,0V5.167Z" transform="translate(-1.167 -0.167)" fill="#0074d3"/>
  </g>
</svg>
