<svg id="Group_766" data-name="Group 766" xmlns="http://www.w3.org/2000/svg" xmlns:xlink="http://www.w3.org/1999/xlink" width="53.755" height="47.573" viewBox="0 0 53.755 47.573">
  <defs>
    <linearGradient id="linear-gradient" x1="0.311" y1="1" x2="0.311" y2="0.013" gradientUnits="objectBoundingBox">
      <stop offset="0" stop-color="#12b4fd"/>
      <stop offset="1" stop-color="#85e9ff"/>
    </linearGradient>
    <linearGradient id="linear-gradient-2" x1="0.311" y1="1" x2="0.311" y2="0.013" gradientUnits="objectBoundingBox">
      <stop offset="0" stop-color="#0078d4"/>
      <stop offset="1" stop-color="#00b1ff"/>
    </linearGradient>
    <clipPath id="clip-path">
      <rect id="Rectangle_1331" data-name="Rectangle 1331" width="53.755" height="47.573" fill="none"/>
    </clipPath>
    <clipPath id="clip-path-2">
      <path id="Path_2536" data-name="Path 2536" d="M5.83,0Q4.623,0,3.438.058A3.646,3.646,0,0,0,0,3.715V39.048A3.657,3.657,0,0,0,3.835,42.7q.989-.044,2-.045a45.374,45.374,0,0,1,21.047,4.922V4.9A45.46,45.46,0,0,0,5.83,0Z" stroke="rgba(0,0,0,0)" stroke-width="1" fill="url(#linear-gradient)"/>
    </clipPath>
    <clipPath id="clip-path-3">
      <path id="Path_2537" data-name="Path 2537" d="M141.43,0a45.46,45.46,0,0,0-21.047,4.9V47.573a45.374,45.374,0,0,1,21.047-4.922q1.007,0,2,.045a3.657,3.657,0,0,0,3.835-3.648V3.715A3.646,3.646,0,0,0,143.823.058Q142.637,0,141.43,0Z" transform="translate(-120.383)" stroke="rgba(0,0,0,0)" stroke-width="1" fill="url(#linear-gradient-2)"/>
    </clipPath>
    <clipPath id="clip-path-5">
      <rect id="Rectangle_1328" data-name="Rectangle 1328" width="12.853" height="13.355" fill="none"/>
    </clipPath>
    <clipPath id="clip-path-6">
      <rect id="Rectangle_1329" data-name="Rectangle 1329" width="10.239" height="13.355" fill="none"/>
    </clipPath>
  </defs>
  <g id="Group_765" data-name="Group 765" clip-path="url(#clip-path)">
    <g id="Group_754" data-name="Group 754">
      <g id="Group_753" data-name="Group 753" clip-path="url(#clip-path-2)">
        <rect id="Rectangle_1326" data-name="Rectangle 1326" width="26.878" height="47.573" stroke="rgba(0,0,0,0)" stroke-width="1" fill="url(#linear-gradient)"/>
      </g>
    </g>
    <g id="Group_756" data-name="Group 756" transform="translate(26.878)">
      <g id="Group_755" data-name="Group 755" clip-path="url(#clip-path-3)">
        <rect id="Rectangle_1327" data-name="Rectangle 1327" width="26.878" height="47.573" stroke="rgba(0,0,0,0)" stroke-width="1" fill="url(#linear-gradient-2)"/>
      </g>
    </g>
    <g id="Group_764" data-name="Group 764">
      <g id="Group_763" data-name="Group 763" clip-path="url(#clip-path)">
        <g id="Group_759" data-name="Group 759" transform="translate(6.827 15.594)" opacity="0.7">
          <g id="Group_758" data-name="Group 758">
            <g id="Group_757" data-name="Group 757" clip-path="url(#clip-path-5)">
              <path id="Path_2538" data-name="Path 2538" d="M30.576,83.2l4.611-13.355h3.638l4.6,13.355H40.4l-.992-3.046H34.593L33.6,83.2ZM38.7,77.952,37.058,72.9h-.1L35.31,77.952Z" transform="translate(-30.576 -69.846)" fill="#fff"/>
            </g>
          </g>
        </g>
        <g id="Group_762" data-name="Group 762" transform="translate(34.465 15.594)" opacity="0.7">
          <g id="Group_761" data-name="Group 761">
            <g id="Group_760" data-name="Group 760" clip-path="url(#clip-path-6)">
              <path id="Path_2539" data-name="Path 2539" d="M154.382,81.526l6.664-9.352h-6.678V69.846h10.225v1.676l-6.67,9.352h6.684V83.2H154.382Z" transform="translate(-154.368 -69.846)" fill="#fff"/>
            </g>
          </g>
        </g>
      </g>
    </g>
  </g>
</svg>
