<svg xmlns="http://www.w3.org/2000/svg" xmlns:xlink="http://www.w3.org/1999/xlink" width="67.135" height="66.278" viewBox="0 0 67.135 66.278">
  <defs>
    <linearGradient id="linear-gradient" x1="0.656" y1="0.969" x2="0.666" y2="0.011" gradientUnits="objectBoundingBox">
      <stop offset="0" stop-color="#12b4fd"/>
      <stop offset="1" stop-color="#85e9ff"/>
    </linearGradient>
    <linearGradient id="linear-gradient-2" x1="0.311" y1="1" x2="0.311" y2="0.013" gradientUnits="objectBoundingBox">
      <stop offset="0" stop-color="#0078d4"/>
      <stop offset="1" stop-color="#00b1ff"/>
    </linearGradient>
    <linearGradient id="linear-gradient-3" x1="0.5" x2="0.5" y2="1" gradientUnits="objectBoundingBox">
      <stop offset="0" stop-color="#f44f5a"/>
      <stop offset="1" stop-color="#e72635"/>
    </linearGradient>
    <clipPath id="clip-path">
      <path id="Path_2540" data-name="Path 2540" d="M247.312,432.248a1.741,1.741,0,0,0-1.741,1.741v16.167a1.741,1.741,0,0,0,1.741,1.741h3.482v4.062l4.468-4.062H265.88a1.741,1.741,0,0,0,1.741-1.741V433.989a1.741,1.741,0,0,0-1.741-1.741Z" transform="translate(-245.571 -432.248)" stroke="rgba(0,0,0,0)" stroke-width="1" fill="url(#linear-gradient)"/>
    </clipPath>
    <clipPath id="clip-path-2">
      <path id="Path_2543" data-name="Path 2543" d="M20.309,177.7a1.741,1.741,0,0,1,1.741,1.741v16.169a1.741,1.741,0,0,1-1.741,1.741H16.828v4.062l-4.468-4.062H1.741A1.741,1.741,0,0,1,0,195.612V179.443A1.741,1.741,0,0,1,1.741,177.7Z" transform="translate(0 -177.702)" fill="none"/>
    </clipPath>
    <clipPath id="clip-path-3">
      <rect id="Rectangle_1334" data-name="Rectangle 1334" width="29.04" height="30.831" fill="none"/>
    </clipPath>
    <clipPath id="clip-path-4">
      <rect id="Rectangle_1334-2" data-name="Rectangle 1334" width="28.935" height="30.831" fill="none"/>
    </clipPath>
    <linearGradient id="linear-gradient-5" x1="0.32" x2="0.314" y2="1" gradientUnits="objectBoundingBox">
      <stop offset="0" stop-color="#ebe8e6"/>
      <stop offset="1" stop-color="#ceccca"/>
    </linearGradient>
    <clipPath id="clip-path-5">
      <path id="Path_2543-2" data-name="Path 2543" d="M2.531,177.7A2.531,2.531,0,0,0,0,180.233v23.5a2.531,2.531,0,0,0,2.531,2.531H7.592v5.905l6.5-5.905H29.525a2.531,2.531,0,0,0,2.531-2.531v-23.5a2.531,2.531,0,0,0-2.531-2.531Z" transform="translate(0 -177.702)" fill="none"/>
    </clipPath>
    <clipPath id="clip-path-6">
      <rect id="Rectangle_1334-3" data-name="Rectangle 1334" width="41.806" height="44.954" fill="none"/>
    </clipPath>
    <clipPath id="clip-path-8">
      <path id="Path_2544" data-name="Path 2544" d="M260.519,0a3.3,3.3,0,0,0-3.3,3.3V33.953a3.3,3.3,0,0,0,3.3,3.3h20.133l8.471,7.7v-7.7h6.6a3.3,3.3,0,0,0,3.3-3.3V3.3a3.3,3.3,0,0,0-3.3-3.3Z" transform="translate(-257.218)" stroke="rgba(0,0,0,0)" stroke-width="1" fill="url(#linear-gradient-2)"/>
    </clipPath>
    <clipPath id="clip-path-9">
      <rect id="Rectangle_1338" data-name="Rectangle 1338" width="19.921" height="21.147" fill="none"/>
    </clipPath>
    <clipPath id="clip-path-10">
      <rect id="Rectangle_1339" data-name="Rectangle 1339" width="13.64" height="12.184" fill="url(#linear-gradient-3)"/>
    </clipPath>
  </defs>
  <g id="Group_791" data-name="Group 791" transform="translate(3689.237 -11814)">
    <g id="Group_784" data-name="Group 784" transform="translate(-3665.055 11856.565)">
      <g id="Group_767" data-name="Group 767" clip-path="url(#clip-path)">
        <rect id="Rectangle_1332" data-name="Rectangle 1332" width="22.05" height="23.71" transform="translate(0 0)" stroke="rgba(0,0,0,0)" stroke-width="1" fill="url(#linear-gradient)"/>
      </g>
    </g>
    <g id="Group_785" data-name="Group 785" transform="translate(-3665.055 11856.565)">
      <g id="Group_774" data-name="Group 774" transform="translate(0)" clip-path="url(#clip-path-2)">
        <g id="Group_778" data-name="Group 778" transform="translate(-20.017 -20.948)" opacity="0.2">
          <g id="Group_772" data-name="Group 772" transform="translate(0 0)" opacity="0.43">
            <g id="Group_771" data-name="Group 771" clip-path="url(#clip-path-3)">
              <path id="Path_2542" data-name="Path 2542" d="M275.966,7H251.512a2.278,2.278,0,0,0-2.293,2.264V30.285a2.278,2.278,0,0,0,2.293,2.264H256.1v5.282l5.884-5.282h13.985a2.278,2.278,0,0,0,2.293-2.264V9.264A2.278,2.278,0,0,0,275.966,7" transform="translate(-249.219 -7)" fill="#231f20"/>
            </g>
          </g>
        </g>
        <g id="Group_773" data-name="Group 773" transform="translate(-20.54 -21.47)" opacity="0.2">
          <g id="Group_772-2" data-name="Group 772" transform="translate(0 0)" opacity="0.43">
            <g id="Group_771-2" data-name="Group 771" clip-path="url(#clip-path-4)">
              <path id="Path_2542-2" data-name="Path 2542" d="M275.87,7H251.5a2.274,2.274,0,0,0-2.284,2.264V30.285a2.274,2.274,0,0,0,2.284,2.264h4.569v5.282l5.863-5.282H275.87a2.274,2.274,0,0,0,2.284-2.264V9.264A2.274,2.274,0,0,0,275.87,7" transform="translate(-249.219 -7)" fill="#231f20"/>
            </g>
          </g>
        </g>
      </g>
    </g>
    <rect id="Rectangle_1340" data-name="Rectangle 1340" width="67.135" height="66.275" transform="translate(-3689.237 11814)" fill="none"/>
    <path id="Path_2547" data-name="Path 2547" d="M2.531,177.7A2.531,2.531,0,0,0,0,180.233v23.5a2.531,2.531,0,0,0,2.531,2.531H7.592v5.905l6.5-5.905H29.525a2.531,2.531,0,0,0,2.531-2.531v-23.5a2.531,2.531,0,0,0-2.531-2.531Z" transform="translate(-3689.237 11653.798)" fill="url(#linear-gradient-5)"/>
    <g id="Group_786" data-name="Group 786" transform="translate(-3689.237 11831.5)">
      <g id="Group_774-2" data-name="Group 774" clip-path="url(#clip-path-5)">
        <g id="Group_778-2" data-name="Group 778" transform="translate(23.779 -16.048)" opacity="0.2">
          <g id="Group_772-3" data-name="Group 772" transform="translate(0 0)" opacity="0.43">
            <g id="Group_771-3" data-name="Group 771" clip-path="url(#clip-path-6)">
              <path id="Path_2542-3" data-name="Path 2542" d="M252.519,7h35.205a3.3,3.3,0,0,1,3.3,3.3V40.953a3.3,3.3,0,0,1-3.3,3.3h-6.6v7.7l-8.471-7.7H252.519a3.3,3.3,0,0,1-3.3-3.3V10.3a3.3,3.3,0,0,1,3.3-3.3" transform="translate(-249.219 -7)" fill="#231f20"/>
            </g>
          </g>
        </g>
        <g id="Group_773-2" data-name="Group 773" transform="translate(24.541 -16.81)" opacity="0.2">
          <g id="Group_772-4" data-name="Group 772" transform="translate(0 0)" opacity="0.43">
            <g id="Group_771-4" data-name="Group 771" clip-path="url(#clip-path-6)">
              <path id="Path_2542-4" data-name="Path 2542" d="M252.519,7h35.205a3.3,3.3,0,0,1,3.3,3.3V40.953a3.3,3.3,0,0,1-3.3,3.3h-6.6v7.7l-8.471-7.7H252.519a3.3,3.3,0,0,1-3.3-3.3V10.3a3.3,3.3,0,0,1,3.3-3.3" transform="translate(-249.219 -7)" fill="#231f20"/>
            </g>
          </g>
        </g>
      </g>
    </g>
    <g id="Group_787" data-name="Group 787" transform="translate(-3663.908 11814)">
      <g id="Group_776" data-name="Group 776" clip-path="url(#clip-path-8)">
        <rect id="Rectangle_1335" data-name="Rectangle 1335" width="41.806" height="44.954" transform="translate(0)" stroke="rgba(0,0,0,0)" stroke-width="1" fill="url(#linear-gradient-2)"/>
      </g>
    </g>
    <g id="Group_789" data-name="Group 789" transform="translate(-3652.966 11820.926)">
      <g id="Group_780" data-name="Group 780" clip-path="url(#clip-path-9)">
        <path id="Path_2545" data-name="Path 2545" d="M53.08,19.057c2.395.016,2.462,2.09,5.779,2.09h4.662a2.382,2.382,0,0,0,2.5-1.381C66.252,19,66,18.8,66.155,18.3c.132-.425,1.4-.717,1.268-1.925-.055-.523-.426-1.277-.243-1.763.21-.557.811-1.051.811-1.706,0-1.123-.58-1.1-.811-2.028-.12-.485.549-1.226-.187-2.451-.424-.707-1.1-.792-2.41-.792h-3.1a.582.582,0,0,1-.6-.772,16.175,16.175,0,0,0,.6-3.759c.022-1.661-.5-3.1-1.572-3.1-1.817,0-.9,2.653-2.858,5.654a7.7,7.7,0,0,1-3.97,3Z" transform="translate(-48.071)" fill="#fff"/>
        <rect id="Rectangle_1337" data-name="Rectangle 1337" width="3.499" height="13.295" transform="translate(0 7.853)" fill="#0465ac"/>
      </g>
    </g>
    <g id="Group_788" data-name="Group 788" transform="translate(-3681.553 11841.045)">
      <g id="Group_782" data-name="Group 782" clip-path="url(#clip-path-10)">
        <path id="Path_2546" data-name="Path 2546" d="M13.639,3.619c-.041,2.1-1.668,5.026-6.232,8.371a.982.982,0,0,1-1.175,0C1.668,8.644.042,5.721,0,3.619a3.53,3.53,0,0,1,.6-2.11A3.43,3.43,0,0,1,2.2.269a4.484,4.484,0,0,1,4.5.887.192.192,0,0,0,.249,0,4.484,4.484,0,0,1,4.5-.887,3.43,3.43,0,0,1,1.593,1.239,3.53,3.53,0,0,1,.6,2.11" transform="translate(0 0)" fill="url(#linear-gradient-3)"/>
      </g>
    </g>
    <path id="icons8-twitter" d="M10.57,6.639a4.362,4.362,0,0,1-1.253.344,2.186,2.186,0,0,0,.959-1.206,4.379,4.379,0,0,1-1.385.528A2.182,2.182,0,0,0,5.176,8.294,6.192,6.192,0,0,1,.681,6.016a2.185,2.185,0,0,0,.675,2.913,2.179,2.179,0,0,1-.988-.273v.027a2.184,2.184,0,0,0,1.749,2.139,2.182,2.182,0,0,1-.574.076,2.1,2.1,0,0,1-.411-.04,2.186,2.186,0,0,0,2.037,1.515,4.371,4.371,0,0,1-2.708.933,4.29,4.29,0,0,1-.519-.031,6.161,6.161,0,0,0,3.342.98,6.162,6.162,0,0,0,6.2-6.2c0-.094,0-.19-.006-.282A4.433,4.433,0,0,0,10.57,6.639Z" transform="translate(-3659.286 11856.683)" fill="#fff"/>
  </g>
</svg>
