<svg id="Group_820" data-name="Group 820" xmlns="http://www.w3.org/2000/svg" xmlns:xlink="http://www.w3.org/1999/xlink" width="54.821" height="50.467" viewBox="0 0 54.821 50.467">
  <defs>
    <linearGradient id="linear-gradient" x1="0.627" y1="0.978" x2="0.389" y2="0.005" gradientUnits="objectBoundingBox">
      <stop offset="0" stop-color="#85e9ff"/>
      <stop offset="1" stop-color="#12b4fd"/>
    </linearGradient>
    <linearGradient id="linear-gradient-2" x1="0.299" y1="0.198" x2="-0.47" y2="0.35" gradientUnits="objectBoundingBox">
      <stop offset="0" stop-color="#0077d2"/>
      <stop offset="1" stop-color="#0b59a2"/>
    </linearGradient>
    <clipPath id="clip-path">
      <rect id="Rectangle_1352" data-name="Rectangle 1352" width="54.821" height="50.467" fill="none"/>
    </clipPath>
    <clipPath id="clip-path-2">
      <path id="Path_2548" data-name="Path 2548" d="M0,38.467V67.79a2.557,2.557,0,0,0,2.55,2.55h45.9A2.557,2.557,0,0,0,51,67.79V38.467Z" transform="translate(0 -38.467)" fill="url(#linear-gradient)"/>
    </clipPath>
    <clipPath id="clip-path-3">
      <path id="Path_2549" data-name="Path 2549" d="M2.55,0A2.557,2.557,0,0,0,0,2.55V8.924H51V2.55A2.557,2.557,0,0,0,48.446,0Z" transform="translate(0 0)" fill="url(#linear-gradient-2)"/>
    </clipPath>
    <linearGradient id="linear-gradient-4" x1="0.787" y1="1.016" x2="0.202" y2="0.036" xlink:href="#linear-gradient-2"/>
    <clipPath id="clip-path-5">
      <rect id="Rectangle_1343" data-name="Rectangle 1343" width="3.825" height="3.825" fill="none"/>
    </clipPath>
    <clipPath id="clip-path-8">
      <rect id="Rectangle_1346" data-name="Rectangle 1346" width="22.948" height="16.317" fill="none"/>
    </clipPath>
    <clipPath id="clip-path-9">
      <rect id="Rectangle_1347" data-name="Rectangle 1347" width="22.311" height="15.544" fill="none"/>
    </clipPath>
    <clipPath id="clip-path-10">
      <path id="Path_2555" data-name="Path 2555" d="M139.14,114.6a3.924,3.924,0,0,1-3.619-2.412,12.723,12.723,0,0,0-5.148,2.981,3.923,3.923,0,0,1-3.619,6.266,12.386,12.386,0,0,0,0,5.946,3.923,3.923,0,0,1,3.62,6.266,12.709,12.709,0,0,0,5.148,2.981,3.922,3.922,0,0,1,7.239,0,12.72,12.72,0,0,0,5.148-2.981,3.923,3.923,0,0,1,3.619-6.266,12.385,12.385,0,0,0,0-5.946,3.923,3.923,0,0,1-3.62-6.266,12.71,12.71,0,0,0-5.148-2.981,3.922,3.922,0,0,1-3.619,2.412" transform="translate(-126.392 -112.187)" fill="none"/>
    </clipPath>
    <linearGradient id="linear-gradient-5" x1="-0.691" y1="0.846" x2="-0.685" y2="0.846" gradientUnits="objectBoundingBox">
      <stop offset="0" stop-color="#889097"/>
      <stop offset="0.331" stop-color="#848c94"/>
      <stop offset="0.669" stop-color="#78828b"/>
      <stop offset="1" stop-color="#64717c"/>
    </linearGradient>
    <clipPath id="clip-path-11">
      <path id="Path_2556" data-name="Path 2556" d="M153.868,143.757a6.375,6.375,0,1,0,6.375-6.375,6.375,6.375,0,0,0-6.375,6.375" transform="translate(-153.868 -137.382)" fill="none"/>
    </clipPath>
    <linearGradient id="linear-gradient-6" x1="-1.833" y1="1.178" x2="-1.821" y2="1.178" gradientUnits="objectBoundingBox">
      <stop offset="0" stop-color="#fff"/>
      <stop offset="0.242" stop-color="#f2f2f2"/>
      <stop offset="1" stop-color="#ccc"/>
    </linearGradient>
    <clipPath id="clip-path-12">
      <path id="Path_2557" data-name="Path 2557" d="M164.859,152.2a3.825,3.825,0,1,0,3.825-3.825,3.825,3.825,0,0,0-3.825,3.825" transform="translate(-164.859 -148.373)" fill="none"/>
    </clipPath>
    <linearGradient id="linear-gradient-7" x1="-3.389" y1="1.63" x2="-3.368" y2="1.63" gradientUnits="objectBoundingBox">
      <stop offset="0" stop-color="#0d61a9"/>
      <stop offset="0.363" stop-color="#0e5fa4"/>
      <stop offset="0.78" stop-color="#135796"/>
      <stop offset="1" stop-color="#16528c"/>
    </linearGradient>
  </defs>
  <g id="Group_819" data-name="Group 819" clip-path="url(#clip-path)">
    <g id="Group_793" data-name="Group 793" transform="translate(0 8.924)">
      <g id="Group_792" data-name="Group 792" clip-path="url(#clip-path-2)">
        <rect id="Rectangle_1341" data-name="Rectangle 1341" width="58.597" height="58.597" transform="translate(-15.936 15.936) rotate(-45)" fill="url(#linear-gradient)"/>
      </g>
    </g>
    <g id="Group_795" data-name="Group 795" transform="translate(0 0)">
      <g id="Group_794" data-name="Group 794" clip-path="url(#clip-path-3)">
        <rect id="Rectangle_1342" data-name="Rectangle 1342" width="18.906" height="51.752" transform="translate(-1.743 8.57) rotate(-78.507)" fill="url(#linear-gradient-4)"/>
      </g>
    </g>
    <g id="Group_812" data-name="Group 812">
      <g id="Group_811" data-name="Group 811" clip-path="url(#clip-path)">
        <g id="Group_798" data-name="Group 798" transform="translate(2.55 2.55)" opacity="0.8">
          <g id="Group_797" data-name="Group 797">
            <g id="Group_796" data-name="Group 796" clip-path="url(#clip-path-5)">
              <path id="Path_2550" data-name="Path 2550" d="M12.9,10.991A1.912,1.912,0,1,1,10.991,12.9,1.913,1.913,0,0,1,12.9,10.991" transform="translate(-10.991 -10.991)" fill="#f1f2f2"/>
            </g>
          </g>
        </g>
        <g id="Group_801" data-name="Group 801" transform="translate(8.924 2.55)" opacity="0.8">
          <g id="Group_800" data-name="Group 800">
            <g id="Group_799" data-name="Group 799" clip-path="url(#clip-path-5)">
              <path id="Path_2551" data-name="Path 2551" d="M40.379,10.991A1.912,1.912,0,1,1,38.467,12.9a1.913,1.913,0,0,1,1.912-1.912" transform="translate(-38.467 -10.991)" fill="#f1f2f2"/>
            </g>
          </g>
        </g>
        <g id="Group_804" data-name="Group 804" transform="translate(15.299 2.55)" opacity="0.8">
          <g id="Group_803" data-name="Group 803">
            <g id="Group_802" data-name="Group 802" clip-path="url(#clip-path-5)">
              <path id="Path_2552" data-name="Path 2552" d="M67.856,10.991A1.912,1.912,0,1,1,65.944,12.9a1.913,1.913,0,0,1,1.912-1.912" transform="translate(-65.944 -10.991)" fill="#f1f2f2"/>
            </g>
          </g>
        </g>
        <g id="Group_807" data-name="Group 807" transform="translate(28.048 24.48)" opacity="0.05" style="mix-blend-mode: normal;isolation: isolate">
          <g id="Group_806" data-name="Group 806">
            <g id="Group_805" data-name="Group 805" clip-path="url(#clip-path-8)">
              <path id="Path_2553" data-name="Path 2553" d="M143.845,119.283v-10.77a14.03,14.03,0,0,0-4.946-2.672l-1.1-.324-.441,1.056a2.646,2.646,0,0,1-4.885,0l-.443-1.056-1.1.325a14.079,14.079,0,0,0-5.663,3.279l-.828.787.691.908a2.648,2.648,0,0,1-2.112,4.252,2.427,2.427,0,0,1-.332-.022l-1.134-.143-.265,1.113a13,13,0,0,0-.13,5.819h20.131a2.558,2.558,0,0,0,2.55-2.55" transform="translate(-120.896 -105.515)"/>
            </g>
          </g>
        </g>
        <g id="Group_810" data-name="Group 810" transform="translate(28.686 25.253)" opacity="0.07" style="mix-blend-mode: normal;isolation: isolate">
          <g id="Group_809" data-name="Group 809">
            <g id="Group_808" data-name="Group 808" clip-path="url(#clip-path-9)">
              <path id="Path_2554" data-name="Path 2554" d="M145.956,121.845v-5.527a3.234,3.234,0,0,1,0-2.691v-1.721a13.4,13.4,0,0,0-5.127-2.893l-.548-.162-.22.528a3.283,3.283,0,0,1-6.061,0l-.221-.528-.548.162a13.429,13.429,0,0,0-5.406,3.13l-.414.394.345.454a3.286,3.286,0,0,1-2.62,5.274,3.2,3.2,0,0,1-.412-.027l-.567-.071-.132.557a13.459,13.459,0,0,0-.38,3.121,13.223,13.223,0,0,0,.277,2.55h19.484a2.558,2.558,0,0,0,2.55-2.55" transform="translate(-123.645 -108.851)"/>
            </g>
          </g>
        </g>
      </g>
    </g>
    <g id="Group_814" data-name="Group 814" transform="translate(29.323 26.027)">
      <g id="Group_813" data-name="Group 813" clip-path="url(#clip-path-10)">
        <rect id="Rectangle_1349" data-name="Rectangle 1349" width="35.312" height="35.312" transform="translate(-12.22 12.22) rotate(-45)" fill="url(#linear-gradient-5)"/>
      </g>
    </g>
    <g id="Group_816" data-name="Group 816" transform="translate(35.697 31.872)">
      <g id="Group_815" data-name="Group 815" clip-path="url(#clip-path-11)">
        <rect id="Rectangle_1350" data-name="Rectangle 1350" width="18.03" height="18.03" transform="matrix(0.707, -0.707, 0.707, 0.707, -6.375, 6.375)" fill="url(#linear-gradient-6)"/>
      </g>
    </g>
    <g id="Group_818" data-name="Group 818" transform="translate(38.247 34.422)">
      <g id="Group_817" data-name="Group 817" clip-path="url(#clip-path-12)">
        <rect id="Rectangle_1351" data-name="Rectangle 1351" width="10.818" height="10.818" transform="translate(-3.825 3.825) rotate(-45)" fill="url(#linear-gradient-7)"/>
      </g>
    </g>
  </g>
</svg>
