<svg xmlns="http://www.w3.org/2000/svg" width="24" height="18" viewBox="0 0 24 18">
  <path id="person_add_FILL0_wght600_GRAD0_opsz48" d="M20.226,17.743V14.371H16.854V12.619h3.372V9.247H22v3.372H25.35v1.752H22v3.372ZM10.217,15.885a4.182,4.182,0,0,1-4.354-4.354A4.184,4.184,0,0,1,10.217,7.15,4.205,4.205,0,0,1,14.6,11.531a4.217,4.217,0,0,1-1.235,3.133,4.286,4.286,0,0,1-3.146,1.221ZM1.35,25.15V22.256a3.419,3.419,0,0,1,.531-1.872,3.3,3.3,0,0,1,1.487-1.261,19.634,19.634,0,0,1,3.6-1.261,14.935,14.935,0,0,1,6.5,0,19.634,19.634,0,0,1,3.6,1.261,3.414,3.414,0,0,1,1.5,1.248,3.339,3.339,0,0,1,.544,1.885V25.15Zm2.1-2.1h13.54v-.743a1.47,1.47,0,0,0-.239-.783,1.311,1.311,0,0,0-.637-.544,14.441,14.441,0,0,0-3.08-1.115,13.823,13.823,0,0,0-2.814-.265,14.074,14.074,0,0,0-2.814.265A14.257,14.257,0,0,0,4.3,20.982a1.244,1.244,0,0,0-.624.544,1.532,1.532,0,0,0-.226.783Zm6.77-9.292a2.194,2.194,0,0,0,1.619-.637,2.161,2.161,0,0,0,.637-1.593A2.183,2.183,0,0,0,11.837,9.9a2.219,2.219,0,0,0-1.619-.624A2.219,2.219,0,0,0,8.6,9.9,2.15,2.15,0,0,0,7.961,11.5a2.18,2.18,0,0,0,2.257,2.257ZM10.217,11.531ZM10.217,23.053Z" transform="translate(-1.35 -7.15)" fill="#575b61"/>
</svg>
