<svg xmlns="http://www.w3.org/2000/svg" width="17.17" height="20" viewBox="0 0 17.17 20">
  <path id="content_copy_FILL0_wght600_GRAD0_opsz48_2_" data-name="content_copy_FILL0_wght600_GRAD0_opsz48 (2)" d="M6.663,22.75A1.893,1.893,0,0,1,4.8,20.887V6.783H6.663v14.1H17.725V22.75Zm3.3-3.278a1.892,1.892,0,0,1-1.887-1.887V4.613A1.79,1.79,0,0,1,8.633,3.3,1.817,1.817,0,0,1,9.965,2.75H20.107a1.79,1.79,0,0,1,1.309.554,1.79,1.79,0,0,1,.554,1.309V17.585a1.817,1.817,0,0,1-.554,1.333,1.79,1.79,0,0,1-1.309.554Zm0-1.887H20.107V4.613H9.965Zm0,0v0Z" transform="translate(-4.8 -2.75)" fill="#575b61"/>
</svg>
