<svg xmlns="http://www.w3.org/2000/svg" width="16.36" height="18.107" viewBox="0 0 16.36 18.107">
  <path id="event_FILL0_wght600_GRAD0_opsz48" d="M16.025,17.994a2.089,2.089,0,1,1,1.507-.612A2.048,2.048,0,0,1,16.025,17.994Zm-9,3.364A1.753,1.753,0,0,1,5.3,19.632V6.308a1.683,1.683,0,0,1,.513-1.234,1.658,1.658,0,0,1,1.212-.513H8.336V3.25H9.974V4.561h6.99V3.25H18.6V4.561h1.311A1.753,1.753,0,0,1,21.66,6.308V19.632a1.658,1.658,0,0,1-.513,1.212,1.683,1.683,0,0,1-1.234.513Zm0-1.726H19.912V10.349H7.026Zm0-10.594H19.912V6.308H7.026Zm0,0v0Z" transform="translate(-5.3 -3.25)" fill="#5f6368"/>
</svg>
