<svg xmlns="http://www.w3.org/2000/svg" width="18.087" height="20" viewBox="0 0 18.087 20">
  <path id="share_FILL0_wght600_GRAD0_opsz48" d="M20.362,23.35a2.946,2.946,0,0,1-2.179-.908,2.978,2.978,0,0,1-.9-2.167,2.845,2.845,0,0,1,.036-.412,2.735,2.735,0,0,1,.109-.46L10.6,15.432a3.325,3.325,0,0,1-.993.714,2.718,2.718,0,0,1-1.186.278A3.059,3.059,0,0,1,5.35,13.35a3.059,3.059,0,0,1,3.075-3.075,2.885,2.885,0,0,1,1.162.242A3.5,3.5,0,0,1,10.6,11.2l6.828-3.923a1.686,1.686,0,0,1-.109-.412,3.02,3.02,0,0,1,.86-2.615,3.075,3.075,0,0,1,5.254,2.179A3.059,3.059,0,0,1,20.362,9.5a3.586,3.586,0,0,1-1.186-.194,2.216,2.216,0,0,1-.944-.63L11.379,12.43a1.8,1.8,0,0,1,.1.472q.024.278.024.448a3.235,3.235,0,0,1-.024.375,2.126,2.126,0,0,1-.1.424L18.231,18a2.978,2.978,0,0,1,.92-.581,3.174,3.174,0,0,1,1.211-.218,3.082,3.082,0,0,1,2.179,5.254,2.966,2.966,0,0,1-2.179.9Zm0-15.617A1.282,1.282,0,0,0,21.67,6.425a1.308,1.308,0,1,0-2.615,0,1.282,1.282,0,0,0,1.308,1.308ZM8.425,14.658a1.282,1.282,0,1,0-.932-.375,1.266,1.266,0,0,0,.932.375Zm11.937,6.925a1.282,1.282,0,1,0-.932-.375A1.266,1.266,0,0,0,20.362,21.582ZM20.362,6.425ZM8.425,13.35ZM20.362,20.275Z" transform="translate(-5.35 -3.35)" fill="#575b61"/>
</svg>
