<svg xmlns="http://www.w3.org/2000/svg" xmlns:xlink="http://www.w3.org/1999/xlink" width="52" height="42" viewBox="0 0 52 42"><defs><style>.a{fill:rgba(81,180,255,0.23);}.b{mix-blend-mode:darken;isolation:isolate;}.c{fill:#9ad3ff;}.d{fill:url(#a);}.e{fill:#fff;}</style><linearGradient id="a" x1="0.766" y1="1" x2="0.766" y2="0.007" gradientUnits="objectBoundingBox"><stop offset="0" stop-color="#0078d4"/><stop offset="1" stop-color="#00b1ff"/></linearGradient></defs><g transform="translate(-1027 -305)"><rect class="a" width="24" height="24" rx="4" transform="translate(1027 305)"/><rect class="a" width="15" height="14" rx="3" transform="translate(1064 333)"/><g transform="translate(1033.444 311.914)"><g class="b" transform="translate(0 0)"><path class="c" d="M3,25.5a3,3,0,0,1-3-3V5.15A5.121,5.121,0,0,1,5.092,0H7.707a12.606,12.606,0,0,1,6.113,1.582l3.087,1.709H31.37a3,3,0,0,1,3,3V22.5a3,3,0,0,1-3,3Z" transform="translate(2.148 0)"/><rect class="d" width="38.667" height="24.704" rx="4" transform="translate(0 6.167)"/></g><g transform="translate(14.321 12.173)"><rect class="e" width="3" height="8" transform="translate(3.234 3.914)"/><path class="e" d="M5,0l5,4H0Z" transform="translate(0.235 -0.086)"/></g></g></g></svg>