<svg width="13" height="14" viewBox="0 0 13 14" fill="none" xmlns="http://www.w3.org/2000/svg">
<g clip-path="url(#clip0_3501_756)">
<path d="M2.3866 13.9363C2.00386 13.9303 1.63849 13.7755 1.36782 13.5049C1.09715 13.2342 0.942409 12.8688 0.936348 12.4861V2.20369H0V0.734271H3.8926V0H9.08911V0.734271H13V2.20369H12.0637V12.4861C12.0576 12.8688 11.9029 13.2342 11.6322 13.5049C11.3615 13.7755 10.9961 13.9303 10.6134 13.9363H2.3866ZM10.6125 2.20369H2.3866V12.4861H10.6125V2.20369ZM4.29675 10.9801H5.56409V3.65394H4.29675V10.9801ZM7.43243 10.9801H8.71806V3.65394H7.43678L7.43243 10.9801Z" fill="#5F6368"/>
</g>
<defs>
<clipPath id="clip0_3501_756">
<rect width="13" height="13.9363" fill="white"/>
</clipPath>
</defs>
</svg>
