<svg xmlns="http://www.w3.org/2000/svg" xmlns:xlink="http://www.w3.org/1999/xlink" width="52" height="42" viewBox="0 0 52 42">
  <defs>
    <linearGradient id="linear-gradient" x1="0.766" y1="1" x2="0.766" y2="0.007" gradientUnits="objectBoundingBox">
      <stop offset="0" stop-color="#0078d4"/>
      <stop offset="1" stop-color="#00b1ff"/>
    </linearGradient>
  </defs>
  <g id="Group_835" data-name="Group 835" transform="translate(0.03)">
    <rect id="Rectangle_468" data-name="Rectangle 468" width="24" height="24" rx="4" transform="translate(-0.03)" fill="rgba(81,180,255,0.23)"/>
    <rect id="Rectangle_469" data-name="Rectangle 469" width="15" height="14" rx="3" transform="translate(36.97 28)" fill="rgba(81,180,255,0.23)"/>
    <g id="Group_176" data-name="Group 176" transform="translate(5.629 6.914)">
      <g id="Group_4" data-name="Group 4" transform="translate(0 0)" style="mix-blend-mode: darken;isolation: isolate">
        <path id="Rectangle_Copy_2" data-name="Rectangle Copy 2" d="M3,25.5a3,3,0,0,1-3-3V5.15A5.121,5.121,0,0,1,5.092,0H7.707a12.606,12.606,0,0,1,6.113,1.582l3.087,1.709H31.37a3,3,0,0,1,3,3V22.5a3,3,0,0,1-3,3Z" transform="translate(2.148)" fill="#9ad3ff"/>
        <rect id="Rectangle" width="38.667" height="24.704" rx="4" transform="translate(0 6.167)" fill="url(#linear-gradient)"/>
      </g>
      <g id="Group_175" data-name="Group 175" transform="translate(15.371 12.086)">
        <rect id="Rectangle_467" data-name="Rectangle 467" width="3" height="8" transform="translate(2.969 4)" fill="#fff"/>
        <path id="Polygon_1" data-name="Polygon 1" d="M5,0l5,4H0Z" transform="translate(-0.031 0)" fill="#fff"/>
      </g>
    </g>
  </g>
</svg>
