<svg width="20" height="18" viewBox="0 0 20 18" fill="none" xmlns="http://www.w3.org/2000/svg">
<path d="M9.54132 17.3396C9.27192 17.1277 9.02497 16.9259 8.77989 16.7461C7.2514 15.6286 5.47223 15.0096 3.53216 14.7519C2.7146 14.6433 1.88394 14.6043 1.05703 14.5568C0.385395 14.5195 0 14.1939 0 13.6055C0 9.41687 0 5.22824 0 1.04131C0 0.463043 0.405974 0.0899671 1.03084 0.101838C2.41526 0.127275 3.77911 0.274809 5.09806 0.676714C6.84356 1.20919 8.29347 2.08762 9.30372 3.47648C9.43281 3.65454 9.52822 3.89025 9.5301 4.10053C9.54319 8.474 9.53945 12.8475 9.53945 17.2209C9.53945 17.2447 9.53945 17.2752 9.53945 17.3413L9.54132 17.3396Z" fill="#007FFF"/>
<path d="M10.4745 17.443V17.109C10.4745 12.8932 10.4876 8.67913 10.4595 4.46507C10.4558 3.83423 10.6934 3.35432 11.1124 2.89137C12.4351 1.43298 14.1825 0.629171 16.1955 0.274749C17.0973 0.115344 18.0252 0.0695567 18.9457 0.00342054C19.5649 -0.0406703 19.9971 0.345972 19.9971 0.90389C20.0008 5.17391 20.0008 9.44394 19.9971 13.7123C19.9971 14.2634 19.593 14.6127 18.9438 14.6229C17.6398 14.6416 16.3546 14.7755 15.0955 15.0876C13.4117 15.5047 11.9038 16.2051 10.6522 17.3158C10.6111 17.3515 10.5624 17.3803 10.4745 17.4447V17.443Z" fill="#007FFF"/>
</svg>
