<svg width="20" height="20" viewBox="0 0 20 20" fill="none" xmlns="http://www.w3.org/2000/svg">
<path d="M15.833 6.666L12.5 9.999H15C15 10.6556 14.8707 11.3058 14.6194 11.9124C14.3681 12.519 13.9998 13.0702 13.5355 13.5345C13.0712 13.9988 12.5201 14.3671 11.9134 14.6184C11.3068 14.8697 10.6566 14.999 10 14.999C9.18595 15.0018 8.38405 14.8014 7.66701 14.416L6.45001 15.633C7.45725 16.2712 8.61747 16.6271 9.80933 16.6634C11.0012 16.6997 12.1809 16.4152 13.2252 15.8394C14.2694 15.2637 15.1398 14.418 15.7452 13.3907C16.3507 12.3635 16.6691 11.1924 16.667 10H19.167L15.833 6.666ZM5.00001 10C5.00001 8.67392 5.52679 7.40215 6.46447 6.46447C7.40216 5.52678 8.67393 5 10 5C10.8141 4.99719 11.616 5.19758 12.333 5.583L13.55 4.366C12.5427 3.72773 11.3824 3.37184 10.1904 3.33557C8.99848 3.29929 7.81867 3.58396 6.77441 4.1598C5.73015 4.73564 4.8598 5.5815 4.2544 6.6089C3.64899 7.6363 3.33077 8.8075 3.33301 10H0.833008L4.16601 13.333L7.49901 10H5.00001Z" fill="#1A73E8"/>
</svg>
