<svg width="22" height="22" viewBox="0 0 22 22" fill="none" xmlns="http://www.w3.org/2000/svg">
<path d="M11 1.83301C9.18695 1.83301 7.41461 2.37064 5.9071 3.37793C4.39959 4.38521 3.22464 5.8169 2.53081 7.49195C1.83698 9.167 1.65544 11.0102 2.00915 12.7884C2.36286 14.5666 3.23594 16.2 4.51796 17.4821C5.79999 18.7641 7.4334 19.6372 9.21162 19.9909C10.9898 20.3446 12.833 20.163 14.5081 19.4692C16.1831 18.7754 17.6148 17.6004 18.6221 16.0929C19.6294 14.5854 20.167 12.8131 20.167 11C20.1662 8.56901 19.2002 6.23781 17.4812 4.51884C15.7622 2.79986 13.431 1.8338 11 1.83301V1.83301ZM11 18.333C9.54968 18.333 8.13192 17.9029 6.92602 17.0972C5.72011 16.2914 4.78022 15.1462 4.2252 13.8062C3.67019 12.4663 3.52497 10.9919 3.80791 9.56941C4.09086 8.14695 4.78926 6.84033 5.8148 5.81479C6.84034 4.78926 8.14695 4.09085 9.56941 3.80791C10.9919 3.52496 12.4663 3.67018 13.8062 4.2252C15.1462 4.78022 16.2914 5.72011 17.0972 6.92601C17.9029 8.13192 18.333 9.54968 18.333 11C18.3304 12.944 17.5569 14.8077 16.1823 16.1823C14.8077 17.5569 12.944 18.3304 11 18.333V18.333ZM15.207 6.94801L9.16601 12.989L6.79201 10.624L5.50001 11.916L9.16601 15.583L16.499 8.25001L15.207 6.94801Z" fill="#1A73E8"/>
</svg>
