<svg width="16" height="16" viewBox="0 0 16 16" fill="none" xmlns="http://www.w3.org/2000/svg">
<path d="M14.6667 2H4.66667C4.20667 2 3.84667 2.23333 3.60667 2.58667L0 8L3.60667 13.4067C3.84667 13.76 4.20667 14 4.66667 14H14.6667C15.4 14 16 13.4 16 12.6667V3.33333C16 2.6 15.4 2 14.6667 2ZM14.6667 12.6667H4.71333L1.6 8L4.70667 3.33333H14.6667V12.6667ZM6.94 11.3333L9.33333 8.94L11.7267 11.3333L12.6667 10.3933L10.2733 8L12.6667 5.60667L11.7267 4.66667L9.33333 7.06L6.94 4.66667L6 5.60667L8.39333 8L6 10.3933L6.94 11.3333Z" fill="#1A73E8"/>
</svg>
