<svg id="Group_723" data-name="Group 723" xmlns="http://www.w3.org/2000/svg" xmlns:xlink="http://www.w3.org/1999/xlink" width="69.558" height="69.68" viewBox="0 0 69.558 69.68">
  <defs>
    <clipPath id="clip-path">
      <rect id="Rectangle_1109" data-name="Rectangle 1109" width="69.558" height="69.68" fill="none"/>
    </clipPath>
    <clipPath id="clip-path-2">
      <path id="Path_2458" data-name="Path 2458" d="M34.718,0A34.67,34.67,0,0,0,22.356,2.3,8.622,8.622,0,0,1,23.1,5.807a8.709,8.709,0,0,1-8.71,8.71A11.567,11.567,0,0,1,9.7,23.8a8.621,8.621,0,0,1,1.791,5.238,8.711,8.711,0,0,1-8.71,8.71A8.579,8.579,0,0,1,0,37.247,34.821,34.821,0,1,0,34.718,0Z" fill="none"/>
    </clipPath>
    <linearGradient id="linear-gradient" y1="1" x2="0.626" y2="0.228" gradientUnits="objectBoundingBox">
      <stop offset="0" stop-color="#0078d4"/>
      <stop offset="1" stop-color="#00b1ff"/>
    </linearGradient>
    <clipPath id="clip-path-4">
      <rect id="Rectangle_1107" data-name="Rectangle 1107" width="43.55" height="40.648" fill="none"/>
    </clipPath>
  </defs>
  <g id="Group_717" data-name="Group 717" clip-path="url(#clip-path)">
    <g id="Group_711" data-name="Group 711">
      <g id="Group_710" data-name="Group 710" clip-path="url(#clip-path-2)">
        <rect id="Rectangle_1106" data-name="Rectangle 1106" width="69.558" height="69.68" transform="translate(0 0)" fill="url(#linear-gradient)"/>
      </g>
    </g>
    <g id="Group_716" data-name="Group 716">
      <g id="Group_715" data-name="Group 715" clip-path="url(#clip-path)">
        <path id="Path_2459" data-name="Path 2459" d="M16.861,8.452A1.452,1.452,0,1,1,15.41,7a1.452,1.452,0,0,1,1.452,1.452" transform="translate(26.567 13.323)" fill="#fff"/>
        <path id="Path_2460" data-name="Path 2460" d="M16.765,5.9a2.9,2.9,0,1,1-2.9-2.9,2.9,2.9,0,0,1,2.9,2.9" transform="translate(20.857 5.71)" fill="#fff"/>
        <path id="Path_2461" data-name="Path 2461" d="M15.765,18.9a2.9,2.9,0,1,1-2.9-2.9,2.9,2.9,0,0,1,2.9,2.9" transform="translate(18.953 30.453)" fill="#fff"/>
        <path id="Path_2462" data-name="Path 2462" d="M20.765,13.9a2.9,2.9,0,1,1-2.9-2.9,2.9,2.9,0,0,1,2.9,2.9" transform="translate(28.47 20.937)" fill="#fff"/>
        <path id="Path_2463" data-name="Path 2463" d="M13.765,12.9a2.9,2.9,0,1,1-2.9-2.9,2.9,2.9,0,0,1,2.9,2.9" transform="translate(15.147 19.033)" fill="#fff"/>
        <path id="Path_2464" data-name="Path 2464" d="M16.861,17.452A1.452,1.452,0,1,1,15.41,16a1.452,1.452,0,0,1,1.452,1.452" transform="translate(26.567 30.453)" fill="#fff"/>
        <path id="Path_2465" data-name="Path 2465" d="M20.861,8.452A1.452,1.452,0,1,1,19.41,7a1.452,1.452,0,0,1,1.452,1.452" transform="translate(34.18 13.323)" fill="#fff"/>
        <path id="Path_2466" data-name="Path 2466" d="M13.861,13.452A1.452,1.452,0,1,1,12.41,12a1.452,1.452,0,0,1,1.452,1.452" transform="translate(20.857 22.84)" fill="#fff"/>
        <path id="Path_2467" data-name="Path 2467" d="M11.765,8.9A2.9,2.9,0,1,1,8.861,6a2.9,2.9,0,0,1,2.9,2.9" transform="translate(11.34 11.42)" fill="#fff"/>
        <path id="Path_2468" data-name="Path 2468" d="M20.861,15.452A1.452,1.452,0,1,1,19.41,14a1.452,1.452,0,0,1,1.452,1.452" transform="translate(34.18 26.646)" fill="#fff"/>
        <path id="Path_2469" data-name="Path 2469" d="M6.861,15.452A1.452,1.452,0,1,1,5.41,14a1.452,1.452,0,0,1,1.452,1.452" transform="translate(7.533 26.646)" fill="#fff"/>
        <g id="Group_714" data-name="Group 714" transform="translate(23.105 26.128)" opacity="0.48">
          <g id="Group_713" data-name="Group 713">
            <g id="Group_712" data-name="Group 712" clip-path="url(#clip-path-4)">
              <path id="Path_2470" data-name="Path 2470" d="M19.571,49.647A31.949,31.949,0,0,1,9.99,48.184a2.9,2.9,0,1,1,1.742-5.54A26.15,26.15,0,0,0,45.7,17.71a26.365,26.365,0,0,0-.525-5.232,2.9,2.9,0,0,1,5.693-1.15,32.233,32.233,0,0,1,.639,6.381A31.974,31.974,0,0,1,19.571,49.647" transform="translate(-7.959 -8.999)" fill="#0269a8"/>
            </g>
          </g>
        </g>
      </g>
    </g>
  </g>
</svg>
