<svg width="19" height="19" viewBox="0 0 19 19" fill="none" xmlns="http://www.w3.org/2000/svg">
<path d="M3.22799 0.833008C2.81204 0.835125 2.41395 1.00233 2.12123 1.29785C1.82852 1.59338 1.66513 1.99305 1.66699 2.40901V13.439H3.22799V2.40901H12.597V0.833008H3.22799ZM14.939 3.98501H6.35099C5.93521 3.98712 5.53728 4.15419 5.24459 4.4495C4.9519 4.74481 4.7884 5.14423 4.78999 5.56001V16.59C4.78813 17.006 4.95152 17.4056 5.24423 17.7012C5.53695 17.9967 5.93504 18.1639 6.35099 18.166H11.472C11.1076 17.6933 10.8299 17.1597 10.652 16.59H6.35199V5.56001H14.94V9.84601C15.1505 9.83428 15.3615 9.83428 15.572 9.84601C15.8824 9.83329 16.1934 9.84903 16.501 9.89301V5.56001C16.5026 5.14406 16.3389 4.74449 16.046 4.44915C15.7531 4.15381 15.3549 3.98686 14.939 3.98501V3.98501Z" fill="#C3C4C6"/>
<path d="M14.833 19L19 14.834L14.833 10.667V13.167H11.5V16.5H14.833V19Z" fill="#C3C4C6"/>
</svg>
