<svg xmlns="http://www.w3.org/2000/svg" width="14.594" height="17" viewBox="0 0 14.594 17">
  <path id="content_copy_FILL0_wght600_GRAD0_opsz48" d="M6.384,19.75A1.609,1.609,0,0,1,4.8,18.166V6.178H6.384V18.166h9.4V19.75ZM9.19,16.963a1.608,1.608,0,0,1-1.6-1.6V4.334a1.521,1.521,0,0,1,.471-1.113A1.544,1.544,0,0,1,9.19,2.75h8.62a1.521,1.521,0,0,1,1.113.471,1.521,1.521,0,0,1,.471,1.113V15.36a1.544,1.544,0,0,1-.471,1.133,1.521,1.521,0,0,1-1.113.471Zm0-1.6h8.62V4.334H9.19Zm0,0v0Z" transform="translate(-4.8 -2.75)" fill="#5f6368"/>
</svg>
