<svg xmlns="http://www.w3.org/2000/svg" width="19" height="19" viewBox="0 0 19 19"><defs><style>.a{fill:none;}.b{fill:#5f6368;}</style></defs><path class="a" d="M0,0H19V19H0Z"/><path class="b" d="M3.561,1A1.569,1.569,0,0,0,2,2.576v11.03H3.561V2.576H12.93V1ZM15.272,4.152H6.684A1.569,1.569,0,0,0,5.123,5.727v11.03a1.569,1.569,0,0,0,1.561,1.576h5.121a5.043,5.043,0,0,1-.82-1.576h-4.3V5.727h8.588v4.286a5.679,5.679,0,0,1,.632,0,5.091,5.091,0,0,1,.929.047V5.727A1.569,1.569,0,0,0,15.272,4.152Z" transform="translate(-0.333 -0.167)"/><path class="b" d="M18.333,22.333,22.5,18.167,18.333,14v2.5H15v3.333h3.333Z" transform="translate(-3.5 -3.333)"/></svg>