<svg width="26" height="26" viewBox="0 0 26 26" fill="none" xmlns="http://www.w3.org/2000/svg">
<path d="M2.88889 26C2.09444 26 1.41436 25.7172 0.848611 25.1514C0.282866 24.5856 0 23.9056 0 23.1111V2.88889C0 2.09444 0.282866 1.41436 0.848611 0.848611C1.41436 0.282866 2.09444 0 2.88889 0H23.1111C23.9056 0 24.5856 0.282866 25.1514 0.848611C25.7172 1.41436 26 2.09444 26 2.88889V23.1111C26 23.9056 25.7172 24.5856 25.1514 25.1514C24.5856 25.7172 23.9056 26 23.1111 26H2.88889ZM4.33333 20.2222H21.6667L16.25 13L11.9167 18.7778L8.66667 14.4444L4.33333 20.2222Z" fill="#007FFF"/>
<path d="M18.7776 10.1108C20.3731 10.1108 21.6664 8.81739 21.6664 7.2219C21.6664 5.62641 20.3731 4.33301 18.7776 4.33301C17.1821 4.33301 15.8887 5.62641 15.8887 7.2219C15.8887 8.81739 17.1821 10.1108 18.7776 10.1108Z" fill="white"/>
</svg>
