<svg width="20" height="20" viewBox="0 0 20 20" fill="none" xmlns="http://www.w3.org/2000/svg">
<path d="M4.16701 15.325H16.742V1.66701H4.24201C3.97907 1.66595 3.71852 1.71696 3.47539 1.81709C3.23226 1.91723 3.01136 2.06451 2.82544 2.25044C2.63951 2.43636 2.49223 2.65726 2.39209 2.90039C2.29196 3.14352 2.24095 3.40407 2.24201 3.66701V16.384C2.23761 16.6392 2.28422 16.8927 2.37909 17.1296C2.47396 17.3665 2.61518 17.5821 2.79448 17.7638C2.97378 17.9454 3.18755 18.0894 3.42323 18.1873C3.65892 18.2852 3.91179 18.3351 4.16701 18.334H16.667V16.667H4.16701C4.13388 16.6681 4.10087 16.6624 4.07004 16.6503C4.0392 16.6381 4.01119 16.6197 3.98775 16.5963C3.96431 16.5728 3.94594 16.5448 3.93377 16.514C3.9216 16.4831 3.91589 16.4501 3.91701 16.417V15.584C3.91475 15.5502 3.9196 15.5163 3.93126 15.4846C3.94292 15.4528 3.96111 15.4238 3.98468 15.3995C4.00824 15.3751 4.03664 15.356 4.06805 15.3434C4.09946 15.3307 4.13317 15.3248 4.16701 15.326V15.325ZM3.93401 3.70001C3.93401 3.61169 3.96909 3.52699 4.03154 3.46454C4.09399 3.40209 4.17869 3.36701 4.26701 3.36701H15.1V13.659H3.93401V3.70001Z" fill="#C3C4C6"/>
<path d="M7.75801 4.483H6.66601L4.55801 10.166H5.83301L6.21601 8.991H8.24101L8.64101 10.166H9.88801L7.75801 4.483ZM6.50801 8.05L7.21601 5.917L7.93301 8.05H6.50801Z" fill="#C3C4C6"/>
<path d="M14.223 11.425V12.375H9.883V11.675L12.7 7.62499H9.89999V6.67499H14.167V7.34999L11.358 11.425H14.223Z" fill="#C3C4C6"/>
</svg>
