<svg width="20" height="20" viewBox="0 0 20 20" fill="none" xmlns="http://www.w3.org/2000/svg">
<path d="M4.167 15.325H16.742V1.66701H4.242C3.97906 1.66595 3.71851 1.71696 3.47538 1.81709C3.23225 1.91723 3.01135 2.06451 2.82543 2.25044C2.6395 2.43636 2.49222 2.65726 2.39208 2.90039C2.29195 3.14352 2.24094 3.40407 2.242 3.66701V16.384C2.2376 16.6392 2.28421 16.8927 2.37908 17.1296C2.47395 17.3665 2.61517 17.5821 2.79447 17.7638C2.97377 17.9454 3.18754 18.0894 3.42322 18.1873C3.65891 18.2852 3.91178 18.3351 4.167 18.334H16.667V16.667H4.167C4.13387 16.6681 4.10086 16.6624 4.07003 16.6503C4.03919 16.6381 4.01118 16.6197 3.98774 16.5963C3.9643 16.5728 3.94593 16.5448 3.93376 16.514C3.92159 16.4831 3.91588 16.4501 3.917 16.417V15.584C3.91474 15.5502 3.91959 15.5163 3.93125 15.4846C3.94291 15.4528 3.9611 15.4238 3.98467 15.3995C4.00823 15.3751 4.03663 15.356 4.06804 15.3434C4.09945 15.3307 4.13316 15.3248 4.167 15.326V15.325ZM3.934 3.70001C3.934 3.61169 3.96908 3.52699 4.03153 3.46454C4.09398 3.40209 4.17868 3.36701 4.267 3.36701H15.1V13.659H3.934V3.70001Z" fill="#5F6368"/>
<path d="M7.758 4.483H6.666L4.558 10.166H5.833L6.216 8.991H8.241L8.641 10.166H9.888L7.758 4.483ZM6.508 8.05L7.216 5.917L7.933 8.05H6.508Z" fill="#5F6368"/>
<path d="M14.223 11.425V12.375H9.883V11.675L12.7 7.62499H9.9V6.67499H14.167V7.34999L11.358 11.425H14.223Z" fill="#5F6368"/>
</svg>
