<svg xmlns="http://www.w3.org/2000/svg" width="20" height="20" viewBox="0 0 20 20"><defs><style>.a{fill:none;}.b{fill:#5f6368;}</style></defs><g transform="translate(-0.384 -0.384)"><rect class="a" width="20" height="20" transform="translate(0.384 0.384)"/><g transform="translate(2.077 2.163)"><path class="b" d="M10.274,5.7,2.4,13.574v3.288H5.688l7.874-7.874ZM5,15.045H4.131v-.779l6.144-6.144.779.779Z" transform="translate(-2.4 -2.931)"/><path class="b" d="M17.359,5.961a.836.836,0,0,0,0-1.211l-1.99-1.99a.786.786,0,0,0-.606-.26.935.935,0,0,0-.606.26L12.6,4.317l3.288,3.288Z" transform="translate(-3.774 -2.5)"/><path class="b" d="M13.934,17.832l-2.423-2.509L10.3,16.534l3.634,3.721,6.144-6.144L18.867,12.9Z" transform="translate(-3.464 -3.901)"/></g></g></svg>