<svg width="20" height="20" viewBox="0 0 20 20" fill="none" xmlns="http://www.w3.org/2000/svg">
<path d="M9.56699 4.54797L1.69299 12.422V15.71H4.98099L12.855 7.83597L9.56699 4.54797ZM4.29299 13.893H3.42399V13.114L9.56799 6.96997L10.347 7.74897L4.29299 13.893Z" fill="#1A73E8"/>
<path d="M15.278 5.23999C15.36 5.1619 15.4253 5.06797 15.4699 4.96388C15.5146 4.8598 15.5376 4.74773 15.5376 4.63449C15.5376 4.52124 15.5146 4.40917 15.4699 4.30509C15.4253 4.201 15.36 4.10707 15.278 4.02899L13.288 2.03899C13.2118 1.95434 13.1182 1.88725 13.0136 1.84236C12.9089 1.79747 12.7958 1.77585 12.682 1.77899C12.4551 1.78918 12.2397 1.8816 12.076 2.03899L10.519 3.59599L13.807 6.88399L15.278 5.23999Z" fill="#1A73E8"/>
<path d="M12.163 15.71L9.73999 13.201L8.52899 14.412L12.163 18.133L18.307 11.989L17.096 10.778L12.163 15.71Z" fill="#1A73E8"/>
</svg>
