<svg xmlns="http://www.w3.org/2000/svg" width="20" height="20" viewBox="0 0 20 20"><defs><style>.a{fill:none;}.b{fill:#5f6368;}</style></defs><path class="a" d="M0,0H20V20H0Z"/><path class="a" d="M12.862,5.55,5.25,12.91l1.726,1.67H8.487L15.34,7.941Zm0,0L5.25,12.91l1.726,1.67H8.487L15.34,7.941Zm0,0L5.25,12.91l1.726,1.67H8.487L15.34,7.941Zm0,0L5.25,12.91l1.726,1.67H8.487L15.34,7.941Zm0,0L5.25,12.91l1.726,1.67H8.487L15.34,7.941Z"/><path class="b" d="M17.88,7.594,12.863,2.72,2.12,13.158,5.637,16.58H16.684V15.028H10.231Zm-9.9,7.434H6.3l-1.882-1.87,8.446-8.242,2.72,2.677Z" transform="translate(-1)"/></svg>