<svg xmlns="http://www.w3.org/2000/svg" width="16" height="16" viewBox="0 0 16 16">
  <path id="error_FILL1_wght700_GRAD0_opsz48" d="M10.741,14.94a1.024,1.024,0,0,0,.743-.282.975.975,0,0,0,.291-.733,1.038,1.038,0,0,0-.291-.752,1.067,1.067,0,0,0-1.485,0,1.038,1.038,0,0,0-.291.752.975.975,0,0,0,.291.733A1.024,1.024,0,0,0,10.741,14.94Zm-.827-3.328h1.767V6.535H9.913Zm.827,7.088a7.859,7.859,0,0,1-3.112-.62A7.984,7.984,0,0,1,3.37,13.83a7.839,7.839,0,0,1-.62-3.121A7.918,7.918,0,0,1,5.081,5.041,8.235,8.235,0,0,1,7.62,3.33a7.737,7.737,0,0,1,3.121-.63,7.8,7.8,0,0,1,3.13.63A8.009,8.009,0,0,1,18.12,7.579a7.8,7.8,0,0,1,.63,3.13,7.737,7.737,0,0,1-.63,3.121,8.034,8.034,0,0,1-4.249,4.24A7.8,7.8,0,0,1,10.741,18.7Z" transform="translate(-2.75 -2.7)" fill="#ffc021"/>
</svg>
