<svg width="20" height="20" viewBox="0 0 20 20" fill="none" xmlns="http://www.w3.org/2000/svg">
<path d="M9.16599 5C10.2715 5.00012 11.332 5.43763 12.116 6.217L9.99999 8.333H15V3.333L13.292 5.041C12.527 4.27532 11.564 3.73778 10.5107 3.48861C9.45749 3.23943 8.35566 3.28848 7.32872 3.63024C6.30177 3.972 5.39028 4.59298 4.69638 5.42359C4.00248 6.2542 3.55358 7.26164 3.39999 8.333H5.08299C5.27522 7.39201 5.78659 6.54631 6.5306 5.93897C7.2746 5.33162 8.20557 4.99993 9.16599 5ZM13.866 12.617C14.4342 11.8472 14.801 10.9476 14.933 10H13.25C13.0986 10.7375 12.7505 11.4202 12.2426 11.976C11.7347 12.5317 11.086 12.9397 10.3651 13.1566C9.64416 13.3736 8.87799 13.3916 8.14773 13.2086C7.41747 13.0255 6.75033 12.6483 6.21699 12.117L8.33299 10H3.33299V15L5.04099 13.292C6.02616 14.278 7.33211 14.8781 8.72191 14.9836C10.1117 15.0891 11.4933 14.6929 12.616 13.867L16.666 17.909L17.908 16.667L13.866 12.617Z" fill="#C3C4C6"/>
</svg>
