<svg xmlns="http://www.w3.org/2000/svg" width="20" height="20" viewBox="0 0 20 20"><defs><style>.a{fill:none;}.b{fill:#1a73e8;}</style></defs><path class="a" d="M0,0H20V20H0Z"/><path class="b" d="M9.833,5.667a4.185,4.185,0,0,1,2.95,1.217L10.667,9h5V4L13.959,5.708A5.828,5.828,0,0,0,4.067,9H5.75A4.167,4.167,0,0,1,9.833,5.667Zm4.7,7.617A5.741,5.741,0,0,0,15.6,10.667H13.917a4.173,4.173,0,0,1-7.033,2.117L9,10.667H4v5l1.708-1.708a5.827,5.827,0,0,0,7.575.575l4.05,4.042,1.242-1.242-4.042-4.05Z" transform="translate(-0.667 -0.667)"/></svg>