<svg xmlns="http://www.w3.org/2000/svg" width="18.397" height="14" viewBox="0 0 18.397 14">
  <path id="folder_open_FILL0_wght600_GRAD0_opsz48" d="M4.939,20.95a1.569,1.569,0,0,1-1.141-.5,1.569,1.569,0,0,1-.5-1.141V8.609a1.592,1.592,0,0,1,.5-1.161,1.569,1.569,0,0,1,1.141-.5h5.6l1.369,1.369h6.927a1.7,1.7,0,0,1,1.659,1.659H11.2L9.813,8.609H4.939V19.353l2.116-8.13H21.7L19.54,19.477a1.974,1.974,0,0,1-.726,1.13,2.3,2.3,0,0,1-1.327.342ZM6.7,19.311H17.86l1.576-6.45H8.278Zm0,0,1.576-6.45ZM4.939,9.978v0Z" transform="translate(-3.3 -6.95)" fill="#5f6368"/>
</svg>
