<svg xmlns="http://www.w3.org/2000/svg" width="16.17" height="15.996" viewBox="0 0 16.17 15.996">
  <path id="settings_FILL0_wght600_GRAD0_opsz48" d="M9.128,19.246l-.405-2.508a4.726,4.726,0,0,1-.666-.318A3.99,3.99,0,0,1,7.449,16L5.1,17.1,3.05,13.477l2.161-1.563a1.478,1.478,0,0,1-.048-.328q-.01-.193-.01-.328t.01-.328a1.478,1.478,0,0,1,.048-.328L3.05,9.019,5.1,5.43,7.469,6.511a3.724,3.724,0,0,1,.6-.405,3.536,3.536,0,0,1,.656-.289L9.128,3.25h4.013L13.547,5.8a6.356,6.356,0,0,1,.666.3,2.725,2.725,0,0,1,.608.415L17.174,5.43,19.22,9.019l-2.161,1.544q.019.154.039.347t.019.347a3.243,3.243,0,0,1-.019.338q-.019.183-.039.338l2.161,1.544L17.174,17.1,14.8,16a5.178,5.178,0,0,1-.589.425,2.675,2.675,0,0,1-.666.309l-.405,2.508Zm1.987-5.48a2.5,2.5,0,0,0,2.508-2.508,2.5,2.5,0,0,0-2.508-2.508,2.5,2.5,0,0,0-2.508,2.508,2.5,2.5,0,0,0,2.508,2.508Zm0-1.158a1.293,1.293,0,0,1-.965-.4,1.375,1.375,0,0,1,0-1.91,1.354,1.354,0,1,1,.965,2.306ZM11.135,11.258Zm-.753,6.464h1.505l.27-2.161a4.8,4.8,0,0,0,1.245-.482,4.457,4.457,0,0,0,1.052-.81l2.045.888.675-1.254L15.38,12.589q.077-.328.125-.656a4.637,4.637,0,0,0,.048-.675,5.778,5.778,0,0,0-.039-.675,3.963,3.963,0,0,0-.135-.656l1.794-1.312L16.5,7.36l-2.045.888a4.3,4.3,0,0,0-1.023-.878,3.033,3.033,0,0,0-1.274-.434l-.27-2.142H10.382l-.27,2.142A3.694,3.694,0,0,0,8.848,7.4,4.617,4.617,0,0,0,7.8,8.248L5.771,7.36,5.1,8.614,6.871,9.907q-.077.347-.125.675a4.637,4.637,0,0,0-.048.675,4.838,4.838,0,0,0,.048.685q.048.338.125.666L5.1,13.9l.675,1.254L7.8,14.268a5.092,5.092,0,0,0,1.071.82,4.61,4.61,0,0,0,1.245.492Z" transform="translate(-3.05 -3.25)" fill="#8e9295"/>
</svg>
