<svg width="20" height="20" viewBox="0 0 20 20" fill="none" xmlns="http://www.w3.org/2000/svg">
<path d="M4 14.2916V17H6.70803L14.6952 9.01174L11.9872 6.30335L4 14.2916ZM6.10836 15.5552H5.44457V14.8905L11.9872 8.347L12.6518 9.01174L6.10836 15.5552ZM16.7888 5.89947L15.099 4.20943C14.9635 4.07526 14.7806 4 14.5899 4C14.3992 4 14.2163 4.07526 14.0808 4.20943L12.7593 5.53113L15.4673 8.23953L16.7888 6.91783C16.8558 6.85101 16.9089 6.77165 16.9451 6.68427C16.9813 6.5969 17 6.50324 17 6.40865C17 6.31406 16.9813 6.2204 16.9451 6.13303C16.9089 6.04565 16.8558 5.96629 16.7888 5.89947Z" fill="#5F6368"/>
</svg>
