<svg width="17" height="18" viewBox="0 0 17 18" fill="none" xmlns="http://www.w3.org/2000/svg">
<g clip-path="url(#clip0_835_2)">
<path d="M1.8799 2.27099V15.723H8.0349C8.0749 15.977 8.1789 16.255 8.3459 16.555C8.5129 16.856 8.6899 17.107 8.8769 17.307H1.8799C1.4529 17.307 1.0819 17.15 0.767898 16.836C0.452899 16.522 0.295898 16.151 0.295898 15.723V2.27099C0.295898 1.82999 0.452899 1.45199 0.767898 1.13799C1.0819 0.823992 1.4529 0.666992 1.8799 0.666992H12.1049C12.5459 0.666992 12.9229 0.823992 13.2369 1.13799C13.5519 1.45199 13.7089 1.82999 13.7089 2.27099V9.00699C13.4679 8.95399 13.2009 8.91999 12.9069 8.90699C12.6129 8.89399 12.3449 8.91399 12.1049 8.96699V2.27099M3.5839 2.27099H5.5089H7.4339H3.5839ZM8.0349 2.27099H1.8799H3.5839H5.5089H7.4339H12.1049H8.8569H7.7339H7.8249H8.0349Z" fill="#5F6368"/>
<path d="M12.1042 17.327V14.923H9.7002V13.32H12.1042V10.916H13.7072V13.32H16.1112V14.923H13.7072V17.327H12.1042Z" fill="#5F6368"/>
<path d="M7.7608 4.03418H6.2098L3.2168 12.1022H5.0278L5.5708 10.4342H8.4468L9.0138 12.1022H10.7848L7.7608 4.03418ZM5.9858 9.09818L6.9908 6.07018L8.0088 9.09818H5.9858Z" fill="#5F6368"/>
</g>
<defs>
<clipPath id="clip0_835_2">
<rect width="17" height="18" fill="white"/>
</clipPath>
</defs>
</svg>
