<svg xmlns="http://www.w3.org/2000/svg" width="18" height="18" viewBox="0 0 18 18">
  <g id="groups_black_24dp" transform="translate(0.137 0.137)">
    <rect id="Rectangle_715" data-name="Rectangle 715" width="18" height="18" transform="translate(-0.137 -0.137)" fill="none"/>
    <g id="Group_254" data-name="Group 254" transform="translate(0 4.431)">
      <path id="Path_411" data-name="Path 411" d="M2.954,11.17A1.477,1.477,0,1,0,1.477,9.693,1.481,1.481,0,0,0,2.954,11.17Zm.835.812a5.157,5.157,0,0,0-.835-.074A5.133,5.133,0,0,0,.9,12.337,1.485,1.485,0,0,0,0,13.7v1.16H3.324V13.674A3.323,3.323,0,0,1,3.789,11.982Zm10.983-.812a1.477,1.477,0,1,0-1.477-1.477A1.481,1.481,0,0,0,14.771,11.17ZM17.726,13.7a1.485,1.485,0,0,0-.9-1.366,5.021,5.021,0,0,0-2.888-.355,3.323,3.323,0,0,1,.465,1.691v1.189h3.324ZM11.994,11.65a7.713,7.713,0,0,0-3.132-.665,7.837,7.837,0,0,0-3.132.665,2.207,2.207,0,0,0-1.3,2.024v1.189h8.863V13.674A2.207,2.207,0,0,0,11.994,11.65ZM8.863,6a2.216,2.216,0,1,0,2.216,2.216A2.213,2.213,0,0,0,8.863,6Z" transform="translate(0 -6)" fill="#0078d4"/>
    </g>
  </g>
</svg>
