<svg width="20" height="20" viewBox="0 0 20 20" fill="none" xmlns="http://www.w3.org/2000/svg">
<path d="M9.167 15H10.834V13.334H9.167V15ZM10 1.66699C8.35188 1.66699 6.74078 2.15571 5.37043 3.07136C4.00007 3.987 2.93201 5.28843 2.30131 6.81109C1.6706 8.33375 1.50558 10.0092 1.82711 11.6257C2.14864 13.2421 2.94228 14.7269 4.10768 15.8923C5.27307 17.0577 6.75786 17.8513 8.37431 18.1729C9.99075 18.4944 11.6662 18.3294 13.1889 17.6987C14.7116 17.068 16.013 15.9999 16.9286 14.6296C17.8443 13.2592 18.333 11.6481 18.333 9.99999C18.3322 7.79019 17.454 5.67112 15.8914 4.10855C14.3289 2.54598 12.2098 1.66779 10 1.66699V1.66699ZM10 16.667C8.68139 16.667 7.39239 16.276 6.29601 15.5434C5.19963 14.8108 4.3451 13.7696 3.84049 12.5513C3.33588 11.3331 3.20385 9.9926 3.4611 8.69932C3.71835 7.40605 4.35332 6.21811 5.28572 5.28571C6.21811 4.35331 7.40606 3.71834 8.69933 3.4611C9.9926 3.20385 11.3331 3.33588 12.5513 3.84049C13.7696 4.3451 14.8108 5.19962 15.5434 6.29601C16.276 7.39239 16.667 8.68138 16.667 9.99999C16.6646 11.7675 15.9614 13.4619 14.7116 14.7116C13.4619 15.9614 11.7675 16.6646 10 16.667V16.667ZM10 4.99999C9.56218 4.99986 9.12863 5.08601 8.72413 5.25353C8.31962 5.42104 7.9521 5.66664 7.64256 5.97627C7.33303 6.2859 7.08754 6.65349 6.92015 7.05805C6.75276 7.4626 6.66673 7.89618 6.667 8.33399H8.334C8.34465 7.89908 8.5249 7.48556 8.83627 7.18172C9.14764 6.87789 9.56545 6.70782 10.0005 6.70782C10.4355 6.70782 10.8534 6.87789 11.1647 7.18172C11.4761 7.48556 11.6563 7.89908 11.667 8.33399C11.667 10.001 9.167 9.79199 9.167 12.501H10.834C10.834 10.626 13.334 10.418 13.334 8.33399C13.3343 7.89609 13.2482 7.46243 13.0807 7.05781C12.9133 6.6532 12.6677 6.28555 12.3581 5.97591C12.0484 5.66627 11.6808 5.4207 11.2762 5.25324C10.8716 5.08579 10.4379 4.99973 10 4.99999Z" fill="white"/>
</svg>
