<svg id="how_to_reg_black_24dp" xmlns="http://www.w3.org/2000/svg" width="20" height="20" viewBox="0 0 20 20">
  <path id="Path_2490" data-name="Path 2490" d="M0,0H20V20H0Z" fill="none"/>
  <path id="Path_2491" data-name="Path 2491" d="M9.667,10.667A3.333,3.333,0,1,0,6.333,7.333,3.332,3.332,0,0,0,9.667,10.667Zm0-5A1.667,1.667,0,1,1,8,7.333,1.672,1.672,0,0,1,9.667,5.667Zm-5,10c.167-.525,2.142-1.4,4.133-1.617l1.7-1.667a7.784,7.784,0,0,0-.833-.05C7.442,12.333,3,13.45,3,15.667v1.667h7.5L8.833,15.667Zm13-4.583-4.275,4.308-1.725-1.733L10.5,14.833l2.892,2.917,5.442-5.492Z" transform="translate(-0.5 -0.667)" fill="#474848"/>
</svg>
