<svg width="20" height="20" viewBox="0 0 20 20" fill="none" xmlns="http://www.w3.org/2000/svg">
<rect width="20" height="20" fill="white"/>
<line x1="5.5" y1="5.16667" x2="13" y2="5.16667" stroke="#5F6368" stroke-width="1.16667"/>
<line x1="5.5" y1="7.66667" x2="10.5" y2="7.66667" stroke="#5F6368" stroke-width="1.16667"/>
<line x1="5.5" y1="10.1657" x2="8" y2="10.1657" stroke="#5F6368" stroke-width="1.16667"/>
<path d="M10.1235 15.75C9.88012 15.75 9.67368 15.6653 9.50421 15.4958C9.33474 15.3263 9.25 15.1199 9.25 14.8765V10.3735C9.25 10.1301 9.33474 9.92368 9.50421 9.75421C9.67368 9.58474 9.88012 9.5 10.1235 9.5H14.6265C14.8699 9.5 15.0763 9.58474 15.2458 9.75421C15.4153 9.92368 15.5 10.1301 15.5 10.3735V14.8765C15.5 15.1199 15.4153 15.3263 15.2458 15.4958C15.0763 15.6653 14.8699 15.75 14.6265 15.75H10.1235ZM10.1235 14.8765H14.6265V10.3735H10.1235V14.8765ZM10.3181 14.329H14.4319L13.1167 12.5318L12.1278 13.8503L11.3861 12.8615L10.3181 14.329ZM11.2213 12.0729C11.3884 12.0729 11.5305 12.0144 11.6474 11.8974C11.7644 11.7805 11.8229 11.6384 11.8229 11.4713C11.8229 11.3042 11.7644 11.1622 11.6474 11.0452C11.5305 10.9282 11.3884 10.8697 11.2213 10.8697C11.0542 10.8697 10.9122 10.9282 10.7952 11.0452C10.6782 11.1622 10.6197 11.3042 10.6197 11.4713C10.6197 11.6384 10.6782 11.7805 10.7952 11.8974C10.9122 12.0144 11.0542 12.0729 11.2213 12.0729Z" fill="black"/>
<path d="M3.58333 2.58333H13.3333C15.5885 2.58333 17.4167 4.4115 17.4167 6.66667V17.6667H3.58333V2.58333Z" stroke="#737474" stroke-width="1.16667"/>
</svg>
