<svg width="17" height="17" viewBox="0 0 17 17" fill="none" xmlns="http://www.w3.org/2000/svg">
<path d="M9.35 5.95L7.65 5.95L7.65 4.25L9.35 4.25L9.35 5.95ZM9.35 12.75H7.65L7.65 7.65L9.35 7.65L9.35 12.75ZM8.5085 17C13.2005 17 17 13.192 17 8.5C17 3.808 13.2005 -4.76837e-07 8.5085 -4.76837e-07C3.808 -4.76837e-07 -4.76837e-07 3.808 -4.76837e-07 8.5C-4.76837e-07 13.192 3.808 17 8.5085 17ZM8.5 1.7C12.257 1.7 15.3 4.743 15.3 8.5C15.3 12.257 12.257 15.3 8.5 15.3C4.743 15.3 1.7 12.257 1.7 8.5C1.7 4.743 4.743 1.7 8.5 1.7Z" fill="#7F7F7F"/>
</svg>
