<svg xmlns="http://www.w3.org/2000/svg" xmlns:xlink="http://www.w3.org/1999/xlink" width="83.898" height="107.159" viewBox="0 0 83.898 107.159">
  <defs>
    <clipPath id="clip-path">
      <rect id="Rectangle_1115" data-name="Rectangle 1115" width="54.989" height="59.458" fill="none"/>
    </clipPath>
    <linearGradient id="linear-gradient" y1="0.5" x2="1" y2="0.5" gradientUnits="objectBoundingBox">
      <stop offset="0" stop-color="#0078d4"/>
      <stop offset="1" stop-color="#00b1ff"/>
    </linearGradient>
  </defs>
  <g id="Group_367" data-name="Group 367" transform="translate(-128.777 -20.287)">
    <g id="Group_711" data-name="Group 711" transform="translate(157.685 20.287)">
      <g id="Group_710" data-name="Group 710" transform="translate(0)" clip-path="url(#clip-path)">
        <path id="Path_2481" data-name="Path 2481" d="M44.448,213.553a.932.932,0,0,1-.574-.2c-.024-.018-.589-.46-1.475-1.287a.937.937,0,0,1,1.279-1.37c.818.763,1.342,1.173,1.347,1.177a.937.937,0,0,1-.577,1.677" transform="translate(-30.827 -154.094)" fill="#fff"/>
        <path id="Path_2482" data-name="Path 2482" d="M9.445,73.954a.935.935,0,0,1-.708-.322c-.837-.963-1.633-1.969-2.366-2.99a.937.937,0,1,1,1.523-1.093c.7.974,1.458,1.934,2.258,2.853a.937.937,0,0,1-.707,1.552M4.982,67.671a.937.937,0,0,1-.816-.476,34.875,34.875,0,0,1-1.7-3.428.937.937,0,1,1,1.723-.739A33.087,33.087,0,0,0,5.8,66.272a.938.938,0,0,1-.815,1.4m21.166-2.905a.938.938,0,0,1-.231-.029A7.1,7.1,0,0,1,22.707,63c-.137-.132-.276-.28-.415-.439a.937.937,0,0,1,1.414-1.231c.1.119.207.229.3.324a5.23,5.23,0,0,0,2.365,1.263.937.937,0,0,1-.229,1.846m3.953-.005a.937.937,0,0,1-.218-1.849,7.919,7.919,0,0,0,2.986-1.424.937.937,0,1,1,1.14,1.488,9.78,9.78,0,0,1-3.689,1.758.923.923,0,0,1-.219.026M1.992,60.576a.938.938,0,0,1-.9-.684,29.433,29.433,0,0,1-.8-3.761.937.937,0,0,1,1.855-.268,27.559,27.559,0,0,0,.749,3.521.938.938,0,0,1-.9,1.191m34-.434a.938.938,0,0,1-.825-1.381,10.886,10.886,0,0,0,1.1-3.233.937.937,0,1,1,1.844.332,12.753,12.753,0,0,1-1.289,3.788.937.937,0,0,1-.826.494m-15.071-.649a.938.938,0,0,1-.852-.544,24.163,24.163,0,0,1-1.33-3.639.937.937,0,1,1,1.806-.5,22.262,22.262,0,0,0,1.226,3.355.938.938,0,0,1-.85,1.331M.937,52.957h0A.937.937,0,0,1,0,52.018a28.594,28.594,0,0,1,.272-3.839.937.937,0,0,1,1.857.258,26.646,26.646,0,0,0-.254,3.586.937.937,0,0,1-.937.935m36.449-.3a.938.938,0,0,1-.935-.881,22.99,22.99,0,0,0-.419-3.142c-.026-.128-.054-.257-.084-.385a.937.937,0,0,1,1.826-.425q.051.219.1.44a24.916,24.916,0,0,1,.453,3.4.937.937,0,0,1-.88.992l-.057,0m-18.494-.578a.937.937,0,0,1-.931-.841,23.317,23.317,0,0,1-.125-2.395c0-.5.017-1,.049-1.485a.937.937,0,0,1,1.87.126c-.03.446-.045.9-.045,1.359a21.546,21.546,0,0,0,.115,2.2.937.937,0,0,1-.836,1.029.917.917,0,0,1-.1.005M2.023,45.342a.937.937,0,0,1-.9-1.2,18.512,18.512,0,0,1,1.472-3.628.937.937,0,1,1,1.648.892,16.628,16.628,0,0,0-1.321,3.26.938.938,0,0,1-.9.675m33.418-.084a.937.937,0,0,1-.825-.491,16.527,16.527,0,0,0-2.005-2.891.937.937,0,1,1,1.421-1.222,18.391,18.391,0,0,1,2.232,3.221.938.938,0,0,1-.823,1.384m-15.966-.83a.938.938,0,0,1-.905-1.183A20.437,20.437,0,0,1,19.946,39.6a.937.937,0,0,1,1.682.827,18.521,18.521,0,0,0-1.25,3.311.938.938,0,0,1-.9.692m10.957-4.975a.933.933,0,0,1-.578-.2,22.1,22.1,0,0,0-2.981-1.966.937.937,0,1,1,.9-1.642,24,24,0,0,1,3.234,2.134.937.937,0,0,1-.579,1.674M5.77,38.692A.937.937,0,0,1,5.1,37.1a14.2,14.2,0,0,1,3.155-2.416.937.937,0,1,1,.921,1.633,12.309,12.309,0,0,0-2.739,2.1.934.934,0,0,1-.669.28m17.12-1.124a.937.937,0,0,1-.744-1.506q.225-.295.464-.586a21.95,21.95,0,0,0-2.691-.653.937.937,0,1,1,.325-1.846,24.009,24.009,0,0,1,3.728.975q.375-.386.771-.758a.937.937,0,0,1,1.286,1.364A22.151,22.151,0,0,0,23.635,37.2a.935.935,0,0,1-.745.368M12.421,34.989a.937.937,0,0,1-.22-1.848,18.188,18.188,0,0,1,3.889-.494h.02a.937.937,0,0,1,.02,1.874,16.312,16.312,0,0,0-3.487.442.939.939,0,0,1-.221.027M28.484,32.3a.937.937,0,0,1-.538-1.7A34.68,34.68,0,0,1,31.2,28.586a.937.937,0,0,1,.9,1.645,32.69,32.69,0,0,0-3.078,1.9.932.932,0,0,1-.537.169m6.756-3.691a.937.937,0,0,1-.369-1.8c1.123-.48,2.315-.936,3.541-1.356a.937.937,0,1,1,.608,1.773c-1.183.406-2.331.845-3.412,1.307a.938.938,0,0,1-.368.076" transform="translate(0 -18.602)" fill="#d3d5d7"/>
        <path id="Path_2483" data-name="Path 2483" d="M156.479,21.6a.937.937,0,0,1-.244-1.842c.6-.162,1.218-.32,1.841-.471a.937.937,0,1,1,.441,1.822c-.607.147-1.21.3-1.792.459a.949.949,0,0,1-.245.033" transform="translate(-113.892 -14.099)" fill="#fff"/>
        <path id="Path_2484" data-name="Path 2484" d="M178.412,4.145S177.822.565,175.986.1a2.151,2.151,0,0,0-2.917,1.87c.075,1.014,2.015,2.3,3.316,2.909s2,.3,2.027-.732" transform="translate(-131.108 1.174)" fill="#d3d5d7"/>
        <path id="Path_2485" data-name="Path 2485" d="M175.5,13.1s5.094-2.61,7.578-1.01,2.02,4.083.673,4.925-4.968-.126-7.072-1.01-2.442-1.937-1.179-2.9" transform="translate(-132.244 -6.579)"/>
        <path id="Path_2486" data-name="Path 2486" d="M190.845,24.645s2.867,2.481,2.282,4.372a2.248,2.248,0,0,1-3.259,1.578c-.863-.62-.952-3.053-.782-4.544s.826-1.945,1.759-1.406" transform="translate(-141.798 -15.198)" fill="#d3d5d7"/>
      </g>
    </g>
    <path id="Path_903" data-name="Path 903" d="M189.64,145.142H134.79a6.013,6.013,0,0,0-6.013,6.013v45.266a2.432,2.432,0,0,1,2.331-2.429v-.005h58.533a6.013,6.013,0,0,0,6.012-6.013V151.155A6.013,6.013,0,0,0,189.64,145.142Z" transform="translate(0 -71.409)" fill="url(#linear-gradient)"/>
    <g id="Group_366" data-name="Group 366" transform="translate(133.27 76.342)" opacity="0.5">
      <path id="Path_904" data-name="Path 904" d="M198.428,198.49h-3.936a.652.652,0,1,1,0-1.3h3.91a.664.664,0,0,1,.665.652A.641.641,0,0,1,198.428,198.49Zm-7.846,0h-3.91a.652.652,0,1,1,0-1.3h3.91a.652.652,0,1,1,0,1.3Zm-7.82,0h-3.91a.652.652,0,0,1,0-1.3h3.91a.652.652,0,1,1,0,1.3Zm-7.82,0h-3.91a.652.652,0,1,1,0-1.3h3.91a.652.652,0,1,1,0,1.3Zm-7.82,0h-3.91a.652.652,0,0,1,0-1.3h3.91a.652.652,0,1,1,0,1.3Zm-7.819,0h-3.91a.652.652,0,1,1,0-1.3h3.91a.652.652,0,1,1,0,1.3Zm-7.82,0h-3.91a.652.652,0,1,1,0-1.3h3.91a.652.652,0,1,1,0,1.3Zm50.6-1.2a.652.652,0,0,1-.386-1.179,5.633,5.633,0,0,0,2.021-2.788.652.652,0,1,1,1.241.4,6.948,6.948,0,0,1-2.492,3.439A.648.648,0,0,1,202.082,197.291Zm2.559-6.991a.652.652,0,0,1-.652-.652v-3.91a.652.652,0,1,1,1.3,0v3.91A.652.652,0,0,1,204.64,190.3Zm0-23.459a.652.652,0,0,1-.652-.652v-3.91a.652.652,0,1,1,1.3,0v3.91A.652.652,0,0,1,204.64,166.84Zm-.894-7.656a.652.652,0,0,1-.559-.315,5.646,5.646,0,0,0-2.6-2.259.652.652,0,1,1,.511-1.2,6.96,6.96,0,0,1,3.206,2.784.652.652,0,0,1-.558.99ZM197,156.167h-3.91a.652.652,0,1,1,0-1.3H197a.652.652,0,0,1,0,1.3Zm-7.82,0h-3.91a.652.652,0,0,1,0-1.3h3.91a.652.652,0,0,1,0,1.3Zm-7.82,0h-3.91a.652.652,0,0,1,0-1.3h3.91a.652.652,0,1,1,0,1.3Zm-7.82,0h-3.91a.652.652,0,1,1,0-1.3h3.91a.652.652,0,1,1,0,1.3Zm-7.82,0h-3.91a.652.652,0,0,1,0-1.3h3.91a.652.652,0,0,1,0,1.3Zm-7.82,0h-3.91a.652.652,0,0,1,0-1.3h3.91a.652.652,0,0,1,0,1.3Zm-7.819,0h-3.91a.652.652,0,0,1,0-1.3h3.91a.652.652,0,0,1,0,1.3Z" transform="translate(-145.519 -154.863)" fill="#fff"/>
    </g>
    <path id="Path_905" data-name="Path 905" d="M336.812,212.037H323.929a4.573,4.573,0,0,0-4.573,4.571V220.4a4.574,4.574,0,0,0,4.573,4.573h12.882a2.451,2.451,0,0,0,2.45-2.45v-8.038A2.451,2.451,0,0,0,336.812,212.037Zm-9.028,8.908a3.06,3.06,0,1,1,3.06-3.06A3.061,3.061,0,0,1,327.783,220.945Z" transform="translate(-139.43 -120.35)" fill="#0076bf"/>
    <path id="Path_906" data-name="Path 906" d="M189.641,310.748H131.108v.005a2.42,2.42,0,0,0-1.014.271,2.451,2.451,0,0,0-.225.132l-.038.025a2.488,2.488,0,0,0-.239.188l-.032.03a2.447,2.447,0,0,0-.188.194l-.033.038a2.469,2.469,0,0,0-.18.245l-.018.031a2.429,2.429,0,0,0-.128.237c-.009.02-.019.04-.028.06a2.372,2.372,0,0,0-.106.285c0,.009,0,.019-.007.028a2.4,2.4,0,0,0-.059.272c0,.026-.008.053-.012.079a2.419,2.419,0,0,0,2.412,2.748h54.942a9.5,9.5,0,0,0,9.5-9.5v-1.382A6.012,6.012,0,0,1,189.641,310.748Z" transform="translate(0 -188.17)" fill="#0066a5"/>
  </g>
</svg>
