<svg width="20" height="20" viewBox="0 0 20 20" fill="none" xmlns="http://www.w3.org/2000/svg">
<path d="M3.434 4.91601H5.128V7.45901H13.602V4.91601H15.297V9.15301H16.992V4.91601C16.9907 4.46688 16.8117 4.03651 16.4941 3.71893C16.1765 3.40134 15.7461 3.22233 15.297 3.22101H11.755C11.5814 2.72576 11.2583 2.29667 10.8302 1.9931C10.4021 1.68952 9.89029 1.52646 9.3655 1.52646C8.84071 1.52646 8.32889 1.68952 7.90081 1.9931C7.47274 2.29667 7.14957 2.72576 6.976 3.22101H3.434C2.98486 3.22233 2.5545 3.40134 2.23691 3.71893C1.91932 4.03651 1.74032 4.46688 1.739 4.91601V16.78C1.74032 17.2292 1.91932 17.6595 2.23691 17.9771C2.5545 18.2947 2.98486 18.4737 3.434 18.475H8.518V16.78H3.434V4.91601ZM9.366 3.22101C9.53352 3.22101 9.69728 3.27069 9.83657 3.36376C9.97585 3.45683 10.0844 3.58911 10.1485 3.74388C10.2126 3.89865 10.2294 4.06895 10.1967 4.23326C10.164 4.39756 10.0834 4.54848 9.96492 4.66693C9.84646 4.78539 9.69554 4.86606 9.53124 4.89874C9.36694 4.93142 9.19663 4.91465 9.04187 4.85054C8.8871 4.78643 8.75481 4.67787 8.66174 4.53858C8.56867 4.39929 8.519 4.23553 8.519 4.06801C8.52005 3.84396 8.60952 3.62939 8.76795 3.47096C8.92638 3.31254 9.14095 3.22307 9.365 3.22201L9.366 3.22101Z" fill="white"/>
<path d="M16.992 10.424L12.34 15.085L9.789 12.543L8.518 13.813L12.34 17.624L18.263 11.692L16.992 10.424Z" fill="white"/>
</svg>
