<svg xmlns="http://www.w3.org/2000/svg" width="20.001" height="20.001" viewBox="0 0 20.001 20.001"><defs><style>.a{fill:none;}.b{fill:#5f6368;}</style></defs><g transform="translate(-0.369 -0.369)"><g transform="translate(0.369 0.369)"><rect class="a" width="20.001" height="20.001"/></g><g transform="translate(2.108 1.896)"><path class="b" d="M4.695,4.389H6.389V6.932h8.474V4.389h1.695V8.626h1.695V4.389a1.7,1.7,0,0,0-1.695-1.695H13.016a2.532,2.532,0,0,0-4.779,0H4.695A1.7,1.7,0,0,0,3,4.389V16.253a1.7,1.7,0,0,0,1.695,1.695H9.779V16.253H4.695Zm5.932-1.695a.847.847,0,1,1-.847.847A.85.85,0,0,1,10.626,2.695Z" transform="translate(-3 -1)"/><path class="b" d="M19.474,11.5l-4.652,4.661-2.551-2.542L11,14.889,14.822,18.7l5.923-5.932Z" transform="translate(-4.221 -2.603)"/></g></g></svg>