<svg width="20" height="20" viewBox="0 0 20 20" fill="none" xmlns="http://www.w3.org/2000/svg">
<path d="M16.667 5.83268V14.166H3.33366V5.83268H16.667ZM16.667 4.16602H3.33366C2.41699 4.16602 1.67533 4.91602 1.67533 5.83268L1.66699 14.166C1.66699 15.0827 2.41699 15.8327 3.33366 15.8327H16.667C17.5837 15.8327 18.3337 15.0827 18.3337 14.166V5.83268C18.3337 4.91602 17.5837 4.16602 16.667 4.16602ZM9.16699 6.66602H10.8337V8.33268H9.16699V6.66602ZM9.16699 9.16602H10.8337V10.8327H9.16699V9.16602ZM6.66699 6.66602H8.33366V8.33268H6.66699V6.66602ZM6.66699 9.16602H8.33366V10.8327H6.66699V9.16602ZM4.16699 9.16602H5.83366V10.8327H4.16699V9.16602ZM4.16699 6.66602H5.83366V8.33268H4.16699V6.66602ZM6.66699 11.666H13.3337V13.3327H6.66699V11.666ZM11.667 9.16602H13.3337V10.8327H11.667V9.16602ZM11.667 6.66602H13.3337V8.33268H11.667V6.66602ZM14.167 9.16602H15.8337V10.8327H14.167V9.16602ZM14.167 6.66602H15.8337V8.33268H14.167V6.66602Z" fill="#1A73E8"/>
</svg>
