<svg xmlns="http://www.w3.org/2000/svg" width="18.146" height="11.216" viewBox="0 0 18.146 11.216">
  <g id="Group_1345" data-name="Group 1345" transform="translate(-1.154 -4.307)">
    <path id="Path_2921" data-name="Path 2921" d="M20.915,15.988l-4.229,4.25-1.375-1.375,1.883-1.908H13.052a5.2,5.2,0,0,0-1.675.25A4.287,4.287,0,0,0,9.7,18.538a8.032,8.032,0,0,1-3.187,2.521,10.564,10.564,0,0,1-3.742.521v-2a6.819,6.819,0,0,0,2.962-.363,5.089,5.089,0,0,0,2.446-1.967,3.852,3.852,0,0,1,.646-.658c.158-.125.321-.25.5-.379.1-.071.192-.142.3-.212a.2.2,0,0,1,.037-.025c-.3-.208-.583-.413-.833-.612a3.852,3.852,0,0,1-.646-.658,5.089,5.089,0,0,0-2.446-1.967,6.819,6.819,0,0,0-2.962-.363v-2a10.564,10.564,0,0,1,3.742.521A8.032,8.032,0,0,1,9.7,13.409a4.287,4.287,0,0,0,1.679,1.333,5.2,5.2,0,0,0,1.675.25h4.125l-1.867-1.883,1.375-1.371Z" transform="translate(-1.615 -6.059)" fill="#5f6368"/>
  </g>
</svg>
