<svg xmlns="http://www.w3.org/2000/svg" xmlns:xlink="http://www.w3.org/1999/xlink" width="148.055" height="26.49" viewBox="0 0 148.055 26.49"><defs><linearGradient id="a" x1="0.066" y1="0.066" x2="0.934" y2="0.934" gradientUnits="objectBoundingBox"><stop offset="0" stop-color="#0cc6ed"/><stop offset="1" stop-color="#1d8bdb"/></linearGradient><linearGradient id="b" x1="0.064" y1="0.087" x2="0.894" y2="0.903" xlink:href="#a"/><linearGradient id="c" x1="0.026" y1="-0.027" x2="0.991" y2="1.01" xlink:href="#a"/><linearGradient id="d" x1="-0.834" y1="0.189" x2="1.868" y2="0.803" xlink:href="#a"/></defs><g transform="translate(-1679.44 -60.678)"><g transform="translate(1712.646 66.897)"><path d="M1984.677,127.839l-.619-1.628h-5.273l-.619,1.663a5.82,5.82,0,0,1-.619,1.314.984.984,0,0,1-.84.341,1.231,1.231,0,0,1-.876-.363,1.11,1.11,0,0,1-.38-.823,1.833,1.833,0,0,1,.089-.549q.088-.283.292-.787l3.318-8.422.34-.872a4.409,4.409,0,0,1,.425-.845,1.725,1.725,0,0,1,.593-.544,1.817,1.817,0,0,1,.907-.208,1.837,1.837,0,0,1,.916.208,1.759,1.759,0,0,1,.593.535,3.755,3.755,0,0,1,.38.7q.155.376.394,1l3.389,8.369a4.212,4.212,0,0,1,.4,1.389,1.15,1.15,0,0,1-.376.827,1.235,1.235,0,0,1-.907.376,1.175,1.175,0,0,1-.531-.111,1.084,1.084,0,0,1-.372-.3,2.77,2.77,0,0,1-.323-.584Q1984.8,128.14,1984.677,127.839Zm-5.2-3.6h3.875l-1.955-5.352Z" transform="translate(-1975.45 -116.117)" fill="#5c5c5c"/><path d="M2099.622,119.426a1.273,1.273,0,0,1-.862-.31,1.2,1.2,0,0,1,.009-1.721,1.233,1.233,0,0,1,.854-.332,1.266,1.266,0,0,1,.832.3,1.073,1.073,0,0,1,.363.876,1.1,1.1,0,0,1-.354.871A1.223,1.223,0,0,1,2099.622,119.426Zm1.194,2.495v6.98a1.561,1.561,0,0,1-.345,1.1,1.144,1.144,0,0,1-.876.372,1.092,1.092,0,0,1-.863-.38,1.607,1.607,0,0,1-.332-1.088v-6.91a1.552,1.552,0,0,1,.332-1.079,1.115,1.115,0,0,1,.863-.363,1.158,1.158,0,0,1,.876.363A1.407,1.407,0,0,1,2100.816,121.921Z" transform="translate(-2084.608 -116.958)" fill="#5c5c5c"/><path d="M2142.171,128.061V117.586a1.63,1.63,0,0,1,.323-1.1,1.1,1.1,0,0,1,.871-.372,1.143,1.143,0,0,1,.885.367,1.583,1.583,0,0,1,.336,1.1v10.475a1.569,1.569,0,0,1-.341,1.1,1.147,1.147,0,0,1-.88.367,1.091,1.091,0,0,1-.863-.38A1.606,1.606,0,0,1,2142.171,128.061Z" transform="translate(-2123.468 -116.117)" fill="#5c5c5c"/><path d="M2187.914,156.454a7.466,7.466,0,0,1-1.694,1.022,4.737,4.737,0,0,1-1.836.341,3.479,3.479,0,0,1-1.632-.367,2.683,2.683,0,0,1-1.083-1,2.58,2.58,0,0,1-.381-1.363,2.439,2.439,0,0,1,.628-1.69,3.14,3.14,0,0,1,1.725-.938q.23-.053,1.141-.239t1.562-.341q.65-.155,1.411-.376a2.523,2.523,0,0,0-.385-1.4,1.721,1.721,0,0,0-1.411-.447,2.941,2.941,0,0,0-1.385.257,2.253,2.253,0,0,0-.8.77,8.137,8.137,0,0,1-.469.677.769.769,0,0,1-.588.164,1.029,1.029,0,0,1-.7-.261.849.849,0,0,1-.3-.668,2.042,2.042,0,0,1,.451-1.239,3.225,3.225,0,0,1,1.407-.991,6.338,6.338,0,0,1,2.38-.389,6.735,6.735,0,0,1,2.5.376,2.329,2.329,0,0,1,1.288,1.19,5.211,5.211,0,0,1,.376,2.159q0,.849,0,1.442t-.013,1.318a4.856,4.856,0,0,0,.226,1.42,4.473,4.473,0,0,1,.226.951.89.89,0,0,1-.35.677,1.171,1.171,0,0,1-.792.305,1.067,1.067,0,0,1-.734-.349A5.167,5.167,0,0,1,2187.914,156.454Zm-.159-3.495a12.161,12.161,0,0,1-1.544.411q-1.013.217-1.4.318a1.907,1.907,0,0,0-.743.4,1.019,1.019,0,0,0-.354.827,1.224,1.224,0,0,0,.416.933,1.538,1.538,0,0,0,1.088.385,2.831,2.831,0,0,0,1.323-.314,2.1,2.1,0,0,0,.889-.809,3.7,3.7,0,0,0,.327-1.8Z" transform="translate(-2158.198 -144.405)" fill="#5c5c5c"/><path d="M2273.548,158.258l.221-.54-2.973-7.484a2.8,2.8,0,0,1-.274-.938,1.1,1.1,0,0,1,.159-.575,1.183,1.183,0,0,1,.438-.425,1.152,1.152,0,0,1,.579-.159.948.948,0,0,1,.787.332,3.06,3.06,0,0,1,.469.951l2.044,5.945,1.937-5.529a9.547,9.547,0,0,1,.416-1.053,1.239,1.239,0,0,1,.394-.513,1.094,1.094,0,0,1,.588-.133,1.036,1.036,0,0,1,.526.146,1.017,1.017,0,0,1,.389.394,1.061,1.061,0,0,1,.137.522q-.036.168-.115.478t-.195.628l-3.149,8.245a9.654,9.654,0,0,1-.8,1.707,2.624,2.624,0,0,1-1.031.951,3.793,3.793,0,0,1-1.73.332,4.208,4.208,0,0,1-1.593-.23.839.839,0,0,1-.531-.841.817.817,0,0,1,.252-.641,1.09,1.09,0,0,1,.748-.226,1.38,1.38,0,0,1,.38.053,1.8,1.8,0,0,0,.4.053,1.437,1.437,0,0,0,.655-.124,1.145,1.145,0,0,0,.429-.429A6.619,6.619,0,0,0,2273.548,158.258Z" transform="translate(-2237.178 -144.545)" fill="#5c5c5c"/><path d="M2368.988,154.8a2.8,2.8,0,0,1-1.924,2.791,6.446,6.446,0,0,1-2.314.367,5.642,5.642,0,0,1-2.229-.4,3.248,3.248,0,0,1-1.371-1,2,2,0,0,1-.442-1.2.929.929,0,0,1,.283-.681.971.971,0,0,1,.717-.283.837.837,0,0,1,.584.186,2.033,2.033,0,0,1,.389.522,2.645,2.645,0,0,0,.889.964,2.683,2.683,0,0,0,1.411.318,2.038,2.038,0,0,0,1.19-.323.909.909,0,0,0,.465-.739,1.006,1.006,0,0,0-.482-.929,5.966,5.966,0,0,0-1.588-.557,13.146,13.146,0,0,1-2.031-.65,3.341,3.341,0,0,1-1.252-.9,2.057,2.057,0,0,1-.469-1.371,2.418,2.418,0,0,1,.433-1.371,2.973,2.973,0,0,1,1.278-1.031,4.9,4.9,0,0,1,2.04-.385,6.708,6.708,0,0,1,1.685.195,4.207,4.207,0,0,1,1.248.522,2.58,2.58,0,0,1,.761.725,1.421,1.421,0,0,1,.261.779.9.9,0,0,1-.279.681,1.1,1.1,0,0,1-.792.265.97.97,0,0,1-.633-.212,4.172,4.172,0,0,1-.6-.637,2.18,2.18,0,0,0-.646-.566,2.034,2.034,0,0,0-1.008-.212,1.975,1.975,0,0,0-1.088.279.813.813,0,0,0-.434.694.752.752,0,0,0,.319.624,2.64,2.64,0,0,0,.858.4q.539.159,1.486.389a7.965,7.965,0,0,1,1.836.655,3.056,3.056,0,0,1,1.079.9A1.991,1.991,0,0,1,2368.988,154.8Z" transform="translate(-2317.49 -144.545)" fill="#5c5c5c"/><path d="M2454.716,156.454a7.47,7.47,0,0,1-1.694,1.022,4.739,4.739,0,0,1-1.836.341,3.477,3.477,0,0,1-1.632-.367,2.682,2.682,0,0,1-1.084-1,2.58,2.58,0,0,1-.381-1.363,2.44,2.44,0,0,1,.628-1.69,3.141,3.141,0,0,1,1.725-.938q.23-.053,1.141-.239t1.562-.341q.65-.155,1.411-.376a2.517,2.517,0,0,0-.385-1.4,1.721,1.721,0,0,0-1.411-.447,2.942,2.942,0,0,0-1.385.257,2.248,2.248,0,0,0-.8.77,8.059,8.059,0,0,1-.469.677.769.769,0,0,1-.588.164,1.028,1.028,0,0,1-.7-.261.849.849,0,0,1-.3-.668,2.043,2.043,0,0,1,.451-1.239,3.227,3.227,0,0,1,1.406-.991,6.341,6.341,0,0,1,2.38-.389,6.738,6.738,0,0,1,2.5.376,2.328,2.328,0,0,1,1.287,1.19,5.207,5.207,0,0,1,.376,2.159q0,.849,0,1.442t-.013,1.318a4.856,4.856,0,0,0,.225,1.42,4.466,4.466,0,0,1,.226.951.89.89,0,0,1-.349.677,1.172,1.172,0,0,1-.792.305,1.069,1.069,0,0,1-.734-.349A5.176,5.176,0,0,1,2454.716,156.454Zm-.159-3.495a12.143,12.143,0,0,1-1.544.411q-1.013.217-1.4.318a1.909,1.909,0,0,0-.743.4,1.02,1.02,0,0,0-.354.827,1.225,1.225,0,0,0,.416.933,1.539,1.539,0,0,0,1.088.385,2.828,2.828,0,0,0,1.323-.314,2.1,2.1,0,0,0,.889-.809,3.7,3.7,0,0,0,.327-1.8Z" transform="translate(-2395.069 -144.405)" fill="#5c5c5c"/></g><g transform="translate(1679.44 60.678)"><path d="M1700.011,60.678H1685.36a5.936,5.936,0,0,0-5.92,5.919V81.248a5.937,5.937,0,0,0,5.92,5.92h14.652a5.937,5.937,0,0,0,5.919-5.92V66.6A5.936,5.936,0,0,0,1700.011,60.678Zm-3.572,14.57c0,3.318-1.707,4.931-5.216,4.931h-1.863c-3.51,0-5.216-1.18-5.216-3.605s1.706-3.605,5.216-3.605h5.029V72.6c0-1.978-1.095-3.022-3.166-3.022h-3.366a2,2,0,0,1-1.832-1.908h5.2c3.509,0,5.216,1.612,5.216,4.93Zm4.292,4.929a2.385,2.385,0,0,1-2.052-2.542V71.143h.146a2.123,2.123,0,0,1,1.906,2.284Zm0-10.6H1700a1.489,1.489,0,0,1-1.324-1.608v-.3h.831a1.374,1.374,0,0,1,1.221,1.485Z" transform="translate(-1679.44 -60.678)" fill="url(#a)"/><path d="M1733.666,127.908v2.651c0,3.318-1.707,4.931-5.216,4.931h-1.863c-3.51,0-5.216-1.18-5.216-3.605s1.706-3.605,5.216-3.605h5.029v-.371c0-1.978-1.095-3.022-3.166-3.022h-3.366a2,2,0,0,1-1.832-1.908h5.2C1731.959,122.978,1733.666,124.59,1733.666,127.908Z" transform="translate(-1716.667 -115.989)" fill="url(#b)"/><path d="M1853,124.463v.423h-.728a1.489,1.489,0,0,1-1.324-1.608v-.3h.831A1.374,1.374,0,0,1,1853,124.463Z" transform="translate(-1831.71 -115.989)" fill="url(#c)"/><path d="M1853,156.252V163a2.385,2.385,0,0,1-2.052-2.542v-6.492h.146A2.123,2.123,0,0,1,1853,156.252Z" transform="translate(-1831.71 -143.503)" fill="url(#d)"/><g transform="translate(4.704 6.989)"><g transform="translate(14.536)"><path d="M1853,124.463v.423h-.728a1.489,1.489,0,0,1-1.324-1.608v-.3h.831A1.374,1.374,0,0,1,1853,124.463Z" transform="translate(-1850.95 -122.978)" fill="#fff"/></g><g transform="translate(14.536 3.476)"><path d="M1853,156.252V163a2.385,2.385,0,0,1-2.052-2.542v-6.492h.146A2.123,2.123,0,0,1,1853,156.252Z" transform="translate(-1850.95 -153.968)" fill="#fff"/></g><path d="M1728.45,122.978h-5.2a2,2,0,0,0,1.832,1.908h3.366c2.071,0,3.166,1.044,3.166,3.022v.371h-5.029c-3.51,0-5.216,1.179-5.216,3.605s1.706,3.605,5.216,3.605h1.863c3.509,0,5.216-1.613,5.216-4.931v-2.651C1733.666,124.59,1731.959,122.978,1728.45,122.978Zm3.166,7.581c0,1.978-1.095,3.022-3.166,3.022h-1.863c-2.1,0-3.164-.57-3.164-1.7s1.064-1.7,3.164-1.7h5.029Z" transform="translate(-1721.37 -122.978)" fill="#fff"/></g></g><g transform="translate(1783.117 66.536)"><g transform="translate(0 0.707)"><path d="M2611.765,131.17v1h-8.1V119.2h8.061V120.2h-6.889v4.785h6.03v1h-6.03v5.176Z" transform="translate(-2603.66 -119.198)" fill="#878787"/></g><g transform="translate(9.472 0)"><path d="M2694.758,112.9v5.28a3.382,3.382,0,0,0-2.916-1.438,3.259,3.259,0,0,0-2.738,1.341,5.84,5.84,0,0,0-1,3.58v.125a5.872,5.872,0,0,0,1.022,3.623,3.249,3.249,0,0,0,2.7,1.35,3.485,3.485,0,0,0,2.955-1.371l.042,1.194h1.074V112.9Zm-2.738,12.855a2.349,2.349,0,0,1-2.037-1.04,4.977,4.977,0,0,1-.727-2.866,5.329,5.329,0,0,1,.736-3.07,2.376,2.376,0,0,1,2.046-1.031,2.8,2.8,0,0,1,2.72,1.834v4.479A2.823,2.823,0,0,1,2692.02,125.753Z" transform="translate(-2688.1 -112.898)" fill="#878787"/></g><g transform="translate(19.911 0.54)"><path d="M2782.695,118.463a.729.729,0,0,1-.211.531.761.761,0,0,1-.565.215.749.749,0,0,1-.562-.215.739.739,0,0,1-.207-.531.755.755,0,0,1,.207-.535.737.737,0,0,1,.562-.22.751.751,0,0,1,.565.22A.743.743,0,0,1,2782.695,118.463Z" transform="translate(-2781.15 -117.708)" fill="#878787"/><rect width="1.146" height="9.663" transform="translate(0.186 3.48)" fill="#878787"/></g><g transform="translate(22.859 1.567)"><path d="M2812.491,139l-.029.01a3.513,3.513,0,0,1-1.148.151,1.936,1.936,0,0,1-1.618-.65,3.026,3.026,0,0,1-.5-1.889v-6.35h-1.762v-.951h1.762v-2.452h1.147v2.452h1.983v.951h-1.983v6.348a1.975,1.975,0,0,0,.279,1.163,1.083,1.083,0,0,0,.927.372,6.567,6.567,0,0,0,.853-.087l.046-.007Z" transform="translate(-2807.43 -126.868)" fill="#878787"/></g><g transform="translate(29.1 3.842)"><path d="M2870.51,148.5a4,4,0,0,0-3.13-1.355,4.063,4.063,0,0,0-3.769,2.361,5.691,5.691,0,0,0-.541,2.506v.212a5.225,5.225,0,0,0,1.2,3.583,4,4,0,0,0,3.126,1.355,4.2,4.2,0,0,0,2.245-.608,4.059,4.059,0,0,0,1.525-1.731,5.743,5.743,0,0,0,.54-2.52v-.221A5.232,5.232,0,0,0,2870.51,148.5Zm-3.112,7.684a2.826,2.826,0,0,1-2.3-1.087,4.332,4.332,0,0,1-.881-2.793v-.194a4.482,4.482,0,0,1,.885-2.883,2.8,2.8,0,0,1,2.278-1.095,2.894,2.894,0,0,1,1.658.492,3.245,3.245,0,0,1,1.127,1.394,4.855,4.855,0,0,1,.4,1.993v.2a4.466,4.466,0,0,1-.881,2.882A2.816,2.816,0,0,1,2867.4,156.187Z" transform="translate(-2863.07 -147.148)" fill="#878787"/></g><g transform="translate(39.84 3.842)"><path d="M2963.348,147.278l-.028,1.042-.048-.009a3.965,3.965,0,0,0-.71-.062,2.562,2.562,0,0,0-1.651.544,3.012,3.012,0,0,0-.962,1.581v6.614h-1.138v-9.663h1.12l.016,1.4a2.846,2.846,0,0,1,2.661-1.574,1.8,1.8,0,0,1,.717.119Z" transform="translate(-2958.81 -147.148)" fill="#878787"/></g></g></g></svg>