<svg width="191" height="27" viewBox="0 0 191 27" fill="none" xmlns="http://www.w3.org/2000/svg">
<path fill-rule="evenodd" clip-rule="evenodd" d="M5.91265 26.46H20.5472C22.114 26.4555 23.6153 25.8312 24.7231 24.7233C25.831 23.6154 26.4554 22.1141 26.4598 20.5473V5.91268C26.4554 4.34592 25.831 2.84459 24.7231 1.73672C23.6153 0.628838 22.114 0.00446293 20.5472 0H5.91265C4.34589 0.00446293 2.84458 0.628838 1.7367 1.73672C0.628834 2.84459 0.0044629 4.34592 0 5.91268V20.548C0.00465684 22.1147 0.629114 23.6158 1.73696 24.7235C2.84481 25.8313 4.34602 26.4555 5.91265 26.46ZM19.2218 8.88201V8.46062H19.224C19.1927 8.1029 19.3028 7.74716 19.5307 7.46971C19.7587 7.19226 20.0863 7.01522 20.4433 6.97656H21.2728V7.27735C21.306 7.66483 21.186 8.04987 20.9385 8.34986C20.691 8.64985 20.3358 8.8409 19.9491 8.88201H19.2218ZM19.2192 12.7351V19.4773C19.8196 19.3943 20.3658 19.0855 20.7464 18.6138C21.1271 18.1421 21.3136 17.5431 21.2681 16.9387V10.4531H21.121C20.5684 10.5082 20.0594 10.7778 19.7036 11.2041C19.3477 11.6304 19.1732 12.1793 19.2178 12.7329L19.2192 12.7351ZM6.57574 6.97877H11.7684L11.7662 6.97656C15.2712 6.97656 16.9766 8.58858 16.9766 11.9038V14.5513C16.9766 17.8672 15.2719 19.4785 11.7662 19.4785H9.90565C6.39924 19.4785 4.69531 18.3019 4.69531 15.875C4.69531 13.4482 6.39924 12.2715 9.90565 12.2715H14.9307V11.9038C14.9307 9.92776 13.8371 8.88421 11.7684 8.88421H8.40543C7.92092 8.84337 7.4679 8.62738 7.13113 8.27666C6.79435 7.92595 6.59691 7.46453 6.57574 6.97877ZM11.7662 17.5709C13.8356 17.5709 14.9285 16.5273 14.9285 14.5513V14.1806H9.90565C7.80681 14.1806 6.74341 14.7506 6.74341 15.8757C6.74341 17.0009 7.80754 17.5709 9.90565 17.5709H11.7662Z" fill="white"/>
<path d="M42.3816 17.9227L41.7631 16.2967H36.4962L35.8777 17.958C35.7271 18.4194 35.5193 18.8602 35.2592 19.27C35.1568 19.3899 35.027 19.4835 34.8809 19.5427C34.7347 19.602 34.5764 19.6252 34.4194 19.6105C34.2568 19.6109 34.0958 19.579 33.9455 19.5168C33.7953 19.4546 33.6589 19.3632 33.5443 19.2479C33.4266 19.1453 33.3319 19.0191 33.2664 18.8774C33.2009 18.7357 33.166 18.5818 33.1641 18.4257C33.1655 18.2397 33.1952 18.0549 33.2523 17.8779C33.3111 17.6896 33.4092 17.4273 33.5465 17.091L36.8602 8.67789L37.2007 7.80717C37.3115 7.51137 37.4538 7.22833 37.625 6.96292C37.7768 6.73769 37.9797 6.55148 38.217 6.41945C38.4959 6.27289 38.8082 6.20142 39.123 6.21207C39.4408 6.20093 39.756 6.27238 40.0379 6.41945C40.2734 6.55015 40.4759 6.73303 40.6299 6.95409C40.7812 7.17402 40.9087 7.40946 41.0101 7.65641C41.113 7.90694 41.2442 8.2413 41.4035 8.6595L44.7864 17.0189C44.998 17.4551 45.1327 17.9246 45.1842 18.4066C45.1811 18.5627 45.1461 18.7165 45.0815 18.8586C45.0169 19.0007 44.924 19.1282 44.8084 19.2332C44.6911 19.3545 44.5502 19.4504 44.3944 19.515C44.2385 19.5796 44.0711 19.6116 43.9024 19.609C43.7195 19.614 43.538 19.5762 43.3722 19.4987C43.2289 19.4268 43.1033 19.3241 43.0045 19.1979C42.8737 19.0173 42.7653 18.8214 42.6817 18.6147C42.5669 18.3529 42.4689 18.1218 42.3875 17.9212L42.3816 17.9227ZM37.1874 14.3273H41.0579L39.1047 8.98088L37.1874 14.3273Z" fill="white"/>
<path d="M48.1625 8.6803C47.8468 8.68759 47.5396 8.57724 47.3006 8.37069C47.1865 8.25829 47.0961 8.12419 47.0346 7.97628C46.9731 7.82838 46.9419 7.66967 46.9427 7.50951C46.9435 7.34934 46.9764 7.19096 47.0394 7.04369C47.1024 6.89643 47.1942 6.76326 47.3095 6.65204C47.5407 6.43609 47.8461 6.31733 48.1625 6.32037C48.4664 6.31763 48.7612 6.4244 48.9928 6.62115C49.1163 6.72948 49.2132 6.86474 49.276 7.01648C49.3389 7.16822 49.366 7.33239 49.3554 7.49629C49.3642 7.65852 49.337 7.82069 49.2759 7.97121C49.2147 8.12173 49.1211 8.25688 49.0016 8.36701C48.7717 8.57412 48.4719 8.68634 48.1625 8.68104V8.6803ZM49.3554 11.1733V18.1457C49.3842 18.5416 49.2608 18.9335 49.0105 19.2415C48.8995 19.362 48.7639 19.4571 48.6129 19.5206C48.4619 19.584 48.299 19.6142 48.1353 19.6092C47.9724 19.6143 47.8103 19.5828 47.6612 19.517C47.512 19.4512 47.3795 19.3528 47.2734 19.229C47.0339 18.9193 46.916 18.5327 46.9418 18.1421V11.2432C46.9129 10.8549 47.0314 10.47 47.2734 10.1651C47.3822 10.0458 47.5157 9.95161 47.6645 9.88901C47.8133 9.82641 47.974 9.7969 48.1353 9.80253C48.2985 9.79774 48.4609 9.82757 48.6117 9.89006C48.7626 9.95255 48.8985 10.0463 49.0105 10.1651C49.2534 10.4426 49.3772 10.8045 49.3554 11.1726" fill="white"/>
<path d="M51.8516 18.1446V7.68342C51.8233 7.29116 51.938 6.90191 52.1745 6.58766C52.2829 6.46519 52.4174 6.36859 52.5681 6.30495C52.7188 6.24132 52.8818 6.21228 53.0452 6.21996C53.2101 6.21384 53.3744 6.24355 53.5268 6.30703C53.6791 6.37051 53.8159 6.46625 53.9277 6.58766C54.1745 6.89998 54.2945 7.29388 54.2638 7.69077V18.1446C54.2948 18.5422 54.173 18.9367 53.9233 19.2477C53.8114 19.369 53.6745 19.4646 53.5222 19.5281C53.3699 19.5916 53.2057 19.6213 53.0408 19.6154C52.8778 19.6206 52.7158 19.5891 52.5667 19.5233C52.4175 19.4575 52.285 19.359 52.1789 19.2352C51.9394 18.9255 51.8214 18.5389 51.8472 18.1483" fill="white"/>
<path d="M62.8537 18.247C62.3376 18.6607 61.7688 19.0039 61.1623 19.2678C60.5796 19.5018 59.9561 19.6176 59.3282 19.6082C58.7629 19.6202 58.2033 19.4939 57.6978 19.2405C57.2514 19.0164 56.8765 18.672 56.6153 18.2463C56.3643 17.8368 56.2326 17.3653 56.2351 16.885C56.22 16.2617 56.4445 15.6563 56.8624 15.1936C57.3218 14.7051 57.9257 14.3768 58.5855 14.2567C58.7384 14.2214 59.1184 14.1417 59.7253 14.0177C60.3323 13.8936 60.8522 13.7804 61.2851 13.6779C61.718 13.575 62.1879 13.4497 62.6949 13.3021C62.7064 12.8087 62.5727 12.3228 62.3103 11.9048C62.1233 11.7302 61.8997 11.5996 61.6558 11.5223C61.4119 11.4451 61.1539 11.4233 60.9005 11.4584C60.4255 11.4304 59.9508 11.5182 59.5172 11.7144C59.1921 11.9002 58.9186 12.1644 58.7215 12.4829C58.5768 12.7159 58.4204 12.9414 58.2531 13.1587C58.1713 13.2247 58.077 13.2732 57.9758 13.3013C57.8746 13.3294 57.7688 13.3364 57.6647 13.322C57.4063 13.3265 57.1555 13.2335 56.9624 13.0616C56.8669 12.9793 56.7909 12.8767 56.7401 12.7613C56.6892 12.646 56.6647 12.5207 56.6683 12.3946C56.6778 11.9438 56.8363 11.5089 57.1191 11.1577C57.4893 10.7066 57.975 10.3645 58.5244 10.1678C59.2847 9.88711 60.0918 9.75504 60.902 9.77878C61.7517 9.7449 62.6001 9.87242 63.4024 10.1546C63.9693 10.3682 64.4304 10.7946 64.6878 11.343C64.9646 12.0269 65.0927 12.762 65.0636 13.4992C65.0636 14.065 65.0622 14.5452 65.0592 14.9399C65.0563 15.3345 65.0519 15.7733 65.046 16.2563C65.0502 16.7377 65.1261 17.2158 65.271 17.6749C65.3805 17.9824 65.4559 18.301 65.496 18.625C65.4914 18.7565 65.4576 18.8853 65.3972 19.0021C65.3368 19.119 65.2513 19.221 65.1467 19.3008C64.9304 19.498 64.6481 19.6069 64.3554 19.606C64.0737 19.5914 63.8093 19.4658 63.62 19.2567C63.3232 18.9523 63.0651 18.6124 62.8515 18.2448L62.8537 18.247ZM62.6927 14.7538C62.1875 14.9246 61.6716 15.062 61.1483 15.1649C60.4737 15.309 60.008 15.4149 59.7511 15.4826C59.4772 15.5583 59.2237 15.6942 59.0091 15.8805C58.8908 15.982 58.7974 16.1094 58.7361 16.2527C58.6748 16.396 58.6471 16.5514 58.6553 16.7071C58.6533 16.8833 58.6894 17.0578 58.7611 17.2187C58.8328 17.3797 58.9385 17.5232 59.0708 17.6396C59.3695 17.904 59.7593 18.0419 60.1578 18.0242C60.618 18.0288 61.0724 17.921 61.4815 17.7102C61.8503 17.5331 62.1591 17.2518 62.3699 16.9012C62.6285 16.3374 62.741 15.7175 62.6971 15.0987L62.6927 14.7538Z" fill="white"/>
<path d="M69.5006 19.9099L69.7212 19.3708L66.7517 11.8947C66.6063 11.6008 66.5137 11.2837 66.4781 10.9578C66.477 10.7553 66.5319 10.5565 66.6369 10.3834C66.7433 10.2062 66.8941 10.06 67.0745 9.95907C67.25 9.8559 67.4497 9.80109 67.6532 9.80022C67.8011 9.7901 67.9493 9.81483 68.0858 9.87244C68.2224 9.93005 68.3435 10.0189 68.4394 10.1319C68.6496 10.4189 68.8082 10.7405 68.9079 11.082L70.9494 17.0205L72.8849 11.4975C73.0025 11.1391 73.1412 10.7879 73.3004 10.4459C73.3836 10.2424 73.5194 10.0648 73.6939 9.93112C73.8737 9.83262 74.0775 9.78674 74.2822 9.79875C74.4675 9.79981 74.649 9.85061 74.808 9.94583C74.9715 10.0386 75.1061 10.1748 75.1971 10.3393C75.2867 10.4984 75.3338 10.678 75.3338 10.8607C75.3103 10.973 75.272 11.132 75.2191 11.338C75.1661 11.5439 75.1014 11.753 75.025 11.9653L71.8789 20.2018C71.6699 20.7949 71.4034 21.3661 71.0832 21.9073C70.8326 22.3116 70.4767 22.6401 70.0536 22.8574C69.5118 23.102 68.92 23.2156 68.3262 23.1891C67.7861 23.2157 67.246 23.1378 66.7355 22.9596C66.5691 22.8944 66.428 22.7778 66.3326 22.6267C66.2372 22.4756 66.1926 22.298 66.2052 22.1198C66.1979 22.0011 66.2166 21.8823 66.2601 21.7717C66.3035 21.661 66.3707 21.5612 66.4568 21.4792C66.6693 21.3146 66.9351 21.2345 67.2032 21.2542C67.3318 21.254 67.4598 21.2718 67.5834 21.3072C67.7136 21.3395 67.8471 21.3573 67.9813 21.3601C68.2059 21.3707 68.4298 21.3284 68.635 21.2366C68.8138 21.1347 68.9619 20.9866 69.0638 20.8078C69.2321 20.5203 69.3784 20.2203 69.5013 19.9106" fill="white"/>
<path d="M84.6071 16.4512C84.6354 17.0621 84.4628 17.6654 84.1156 18.1689C83.7684 18.6724 83.2658 19.0483 82.6848 19.2391C81.9435 19.5018 81.1604 19.6264 80.3742 19.6068C79.6126 19.626 78.8551 19.4907 78.1473 19.2089C77.6107 19.0046 77.138 18.6615 76.7773 18.2147C76.5037 17.8743 76.3487 17.4539 76.336 17.0174C76.3342 16.8907 76.3584 16.765 76.4071 16.648C76.4558 16.531 76.528 16.4252 76.6192 16.3372C76.7128 16.2437 76.8246 16.1703 76.9477 16.1216C77.0707 16.0729 77.2025 16.0499 77.3347 16.054C77.5456 16.0398 77.7539 16.1061 77.9179 16.2394C78.0747 16.3912 78.206 16.5672 78.3069 16.7608C78.5176 17.1513 78.8231 17.4825 79.1953 17.7242C79.6272 17.9574 80.1148 18.0676 80.605 18.0426C81.025 18.0602 81.4402 17.9474 81.7935 17.7197C81.9262 17.6458 82.0382 17.5397 82.1193 17.4112C82.2004 17.2827 82.2479 17.136 82.2575 16.9843C82.2702 16.8003 82.2319 16.6164 82.147 16.4527C82.062 16.289 81.9336 16.1518 81.7758 16.0562C81.276 15.7967 80.7419 15.6092 80.1895 15.4995C79.497 15.3383 78.8187 15.1211 78.1613 14.8502C77.6804 14.6525 77.2524 14.3453 76.9111 13.953C76.5939 13.5683 76.4274 13.0813 76.4427 12.5829C76.4447 12.0928 76.5958 11.615 76.8758 11.2128C77.1963 10.7566 77.6387 10.3998 78.1525 10.1833C78.7962 9.91096 79.4908 9.77981 80.1895 9.79865C80.7566 9.79184 81.3223 9.85707 81.8729 9.9928C82.3138 10.0983 82.7347 10.2743 83.1194 10.5142C83.4197 10.7009 83.6783 10.9475 83.8791 11.2386C84.0405 11.4664 84.131 11.7368 84.1394 12.0159C84.1436 12.1425 84.121 12.2685 84.0731 12.3857C84.0252 12.503 83.9531 12.6088 83.8614 12.6962C83.6425 12.8846 83.3584 12.9797 83.0702 12.9609C82.8412 12.9672 82.6174 12.8921 82.4384 12.7491C82.2179 12.5586 82.018 12.3453 81.842 12.113C81.6665 11.8837 81.4474 11.6914 81.1971 11.5475C80.885 11.3916 80.538 11.3186 80.1895 11.3357C79.8079 11.3214 79.4303 11.4182 79.1026 11.6144C78.9753 11.6811 78.8681 11.7805 78.792 11.9024C78.7159 12.0242 78.6736 12.1642 78.6695 12.3079C78.668 12.4297 78.6962 12.5501 78.7517 12.6587C78.8072 12.7672 78.8883 12.8606 78.9879 12.9308C79.2471 13.1155 79.5376 13.2518 79.8454 13.333C80.2048 13.4389 80.6997 13.5686 81.3302 13.7221C81.9658 13.864 82.5815 14.0836 83.1635 14.3758C83.5877 14.5871 83.9568 14.8943 84.2416 15.273C84.4859 15.6163 84.6147 16.0284 84.6093 16.4497" fill="white"/>
<path d="M92.7443 18.247C92.2282 18.6607 91.6595 19.0039 91.0529 19.2677C90.4702 19.5018 89.8467 19.6175 89.2188 19.6082C88.6535 19.6201 88.0939 19.4939 87.5884 19.2405C87.1421 19.0164 86.7671 18.672 86.5059 18.2463C86.2549 17.8368 86.1232 17.3653 86.1257 16.885C86.1107 16.2617 86.3352 15.6564 86.753 15.1936C87.2125 14.7051 87.8163 14.3768 88.476 14.2567C88.629 14.2214 89.009 14.1417 89.6159 14.0177C90.2229 13.8936 90.7428 13.7804 91.1757 13.6779C91.6086 13.575 92.0786 13.4497 92.5855 13.3021C92.597 12.8087 92.4633 12.3228 92.2009 11.9048C92.0139 11.7302 91.7903 11.5996 91.5464 11.5223C91.3026 11.4451 91.0445 11.4233 90.7911 11.4584C90.3161 11.4304 89.8414 11.5182 89.4078 11.7144C89.0827 11.9002 88.8091 12.1644 88.6121 12.4829C88.4674 12.7159 88.3111 12.9414 88.1437 13.1587C88.062 13.2247 87.9676 13.2732 87.8664 13.3013C87.7652 13.3294 87.6594 13.3364 87.5554 13.322C87.2969 13.3264 87.0461 13.2335 86.853 13.0616C86.7575 12.9793 86.6816 12.8767 86.6307 12.7613C86.5798 12.6459 86.5552 12.5207 86.5589 12.3946C86.5683 11.9438 86.7269 11.5089 87.0097 11.1577C87.3799 10.7066 87.8656 10.3645 88.415 10.1678C89.1751 9.88718 89.982 9.75511 90.7918 9.77877C91.6415 9.74492 92.49 9.87243 93.2922 10.1546C93.8591 10.3682 94.3203 10.7946 94.5777 11.343C94.8545 12.0269 94.9826 12.7619 94.9535 13.4992C94.9535 14.065 94.952 14.5452 94.9491 14.9399C94.9461 15.3345 94.9417 15.7733 94.9358 16.2562C94.9401 16.7377 95.0159 17.2158 95.1609 17.6749C95.2703 17.9824 95.3458 18.301 95.3859 18.625C95.3813 18.7565 95.3476 18.8853 95.2872 19.0022C95.2268 19.119 95.1412 19.221 95.0366 19.3008C94.8203 19.498 94.538 19.6068 94.2453 19.606C93.9636 19.5914 93.6992 19.4658 93.5099 19.2567C93.2128 18.9523 92.9545 18.6125 92.7407 18.2448L92.7443 18.247ZM92.5818 14.7538C92.0766 14.9246 91.5607 15.0619 91.0375 15.1649C90.3629 15.309 89.8971 15.4149 89.6402 15.4826C89.3663 15.5583 89.1128 15.6942 88.8982 15.8805C88.78 15.982 88.6866 16.1093 88.6252 16.2526C88.5639 16.3959 88.5363 16.5514 88.5445 16.7071C88.5424 16.8832 88.5785 17.0578 88.6502 17.2187C88.722 17.3797 88.8276 17.5232 88.96 17.6396C89.2586 17.9039 89.6484 18.0419 90.0469 18.0242C90.5071 18.0288 90.9615 17.921 91.3706 17.7102C91.7394 17.5331 92.0482 17.2518 92.259 16.9012C92.5176 16.3374 92.6301 15.7175 92.5862 15.0987L92.5818 14.7538Z" fill="white"/>
<path d="M111.125 6.71094V7.85498H106.712V19.8109H105.4V7.85498H101V6.71094H111.125Z" fill="white"/>
<path d="M116.741 9.99343L116.71 11.1625L116.581 11.1385C116.349 11.098 116.115 11.0783 115.88 11.0795C115.3 11.0621 114.732 11.2489 114.275 11.6074C113.809 12.0071 113.481 12.5437 113.339 13.1405V19.8075H112.062V10.0155H113.32L113.333 11.2274C113.601 10.785 113.983 10.4227 114.438 10.1784C114.894 9.93401 115.407 9.81662 115.924 9.83853C116.177 9.82836 116.431 9.87047 116.668 9.96243L116.741 9.99343Z" fill="white"/>
<path d="M125.199 19.5496C124.978 18.8949 124.882 18.2047 124.916 17.5146V12.9846C124.929 12.5499 124.848 12.1176 124.677 11.7177C124.506 11.3179 124.25 10.9602 123.926 10.6696C123.19 10.0851 122.265 9.79049 121.326 9.84164C120.361 9.81285 119.416 10.1161 118.648 10.7006C118.315 10.9336 118.041 11.2421 117.85 11.601C117.659 11.9599 117.555 12.359 117.548 12.7656V12.8765L118.833 12.8866V12.7746C118.836 12.523 118.899 12.2759 119.018 12.054C119.136 11.8322 119.307 11.6423 119.515 11.5006C120.024 11.1257 120.644 10.9346 121.276 10.9586C121.914 10.9135 122.546 11.113 123.043 11.5166C123.246 11.7148 123.404 11.9538 123.508 12.218C123.611 12.4821 123.657 12.7652 123.643 13.0485V14.0246H121.836C120.675 13.9602 119.522 14.2511 118.531 14.8586C118.151 15.1077 117.84 15.4496 117.628 15.852C117.417 16.2544 117.311 16.7041 117.321 17.1587C117.313 17.5413 117.388 17.9211 117.542 18.2716C117.695 18.622 117.924 18.9346 118.211 19.1876C118.851 19.7365 119.676 20.0224 120.519 19.9876C121.165 19.9908 121.804 19.8544 122.392 19.5876C122.879 19.3696 123.314 19.0521 123.671 18.6556C123.69 19.0239 123.754 19.3883 123.863 19.7406L123.889 19.8145H125.212V19.5736L125.199 19.5496ZM120.639 18.8266C120.101 18.851 119.574 18.6726 119.161 18.3266C118.98 18.1731 118.836 17.981 118.74 17.7645C118.643 17.548 118.596 17.3127 118.602 17.0756C118.597 16.7806 118.672 16.4897 118.82 16.2345C118.968 15.9792 119.183 15.7695 119.442 15.6276C120.182 15.2246 121.017 15.0303 121.859 15.0656H123.64V17.0346C123.394 17.5762 122.988 18.0296 122.477 18.3346C121.922 18.667 121.285 18.8372 120.638 18.8256L120.639 18.8266Z" fill="white"/>
<path d="M134.948 13.4155V19.8066H133.672V13.4066C133.717 12.7524 133.534 12.1027 133.154 11.5686C132.943 11.3571 132.687 11.1949 132.406 11.0932C132.125 10.9916 131.825 10.9531 131.528 10.9806C130.92 10.9746 130.33 11.1832 129.861 11.5695C129.36 11.9888 128.988 12.5395 128.784 13.1595V19.8055H127.508V10.0135H128.737L128.767 11.4016C129.079 10.9593 129.483 10.589 129.951 10.3155C130.508 9.99564 131.141 9.83029 131.784 9.83651C132.222 9.80363 132.662 9.86771 133.072 10.0241C133.483 10.1805 133.854 10.4255 134.159 10.7415C134.731 11.5109 135.011 12.4587 134.948 13.4155Z" fill="white"/>
<path d="M144.471 17.2135C144.48 17.6093 144.392 18.0012 144.213 18.3546C144.035 18.708 143.772 19.012 143.448 19.2395C142.679 19.7655 141.76 20.0277 140.83 19.9866C139.836 20.0299 138.856 19.7364 138.05 19.1536C137.712 18.9097 137.438 18.5886 137.25 18.2169C137.062 17.8453 136.965 17.434 136.969 17.0175V16.9055H138.246L138.253 17.0055C138.26 17.2744 138.331 17.5378 138.459 17.7746C138.587 18.0113 138.768 18.2147 138.989 18.3685C139.535 18.7241 140.179 18.899 140.83 18.8685C141.438 18.8968 142.04 18.7342 142.551 18.4036C142.744 18.2832 142.904 18.1156 143.015 17.9165C143.126 17.7174 143.184 17.4934 143.185 17.2655C143.191 17.0364 143.141 16.8093 143.038 16.6043C142.936 16.3993 142.784 16.2227 142.597 16.0905C142.035 15.72 141.4 15.4724 140.736 15.3635C140.046 15.2355 139.375 15.0242 138.736 14.7345C138.302 14.537 137.928 14.2299 137.65 13.8435C137.403 13.4622 137.277 13.0148 137.29 12.5606C137.287 12.1789 137.375 11.8019 137.547 11.4613C137.719 11.1207 137.971 10.8263 138.28 10.6026C139 10.0737 139.879 9.80494 140.772 9.84047C141.72 9.79563 142.654 10.0847 143.412 10.6575C143.735 10.9133 143.995 11.2409 144.17 11.6142C144.345 11.9874 144.431 12.3963 144.421 12.8085V12.9205H143.136V12.8085C143.139 12.5533 143.08 12.3012 142.965 12.0734C142.85 11.8456 142.682 11.6487 142.475 11.4995C141.986 11.1322 141.386 10.944 140.775 10.9666C140.205 10.9386 139.641 11.0938 139.165 11.4096C138.982 11.5319 138.832 11.6982 138.729 11.8933C138.627 12.0885 138.575 12.3062 138.579 12.5265C138.568 12.723 138.607 12.919 138.69 13.0971C138.774 13.2751 138.901 13.4295 139.059 13.5465C139.637 13.8927 140.273 14.1299 140.937 14.2465C141.668 14.396 142.378 14.6342 143.051 14.9556C143.481 15.1695 143.85 15.4899 144.122 15.8865C144.365 16.2854 144.486 16.7466 144.471 17.2135V17.2135Z" fill="white"/>
<path d="M154.15 15.0979V14.3978C154.215 13.1997 153.842 12.0189 153.102 11.0748C152.749 10.6695 152.311 10.3487 151.817 10.1361C151.324 9.92353 150.79 9.82463 150.254 9.8468C149.494 9.84599 148.752 10.0727 148.123 10.4978C147.461 10.9415 146.932 11.5572 146.594 12.2788C146.222 13.0713 146.035 13.9383 146.047 14.8138V15.1938C146.035 16.0471 146.228 16.8909 146.608 17.6549C146.961 18.3651 147.508 18.9614 148.185 19.3759C148.867 19.7888 149.652 20.0025 150.45 19.9928C151.13 20.0244 151.806 19.8815 152.415 19.5774C153.024 19.2733 153.545 18.8184 153.929 18.2559L153.989 18.1669L153.153 17.5319L153.084 17.6178C152.784 18.0217 152.393 18.3502 151.943 18.5769C151.488 18.7834 150.992 18.8858 150.493 18.8768C150.061 18.8838 149.634 18.7935 149.242 18.6128C148.851 18.4321 148.505 18.1655 148.23 17.8329C147.614 17.0948 147.292 16.1557 147.323 15.1948V15.1039L154.15 15.0979ZM150.25 10.9679C150.603 10.9568 150.953 11.0254 151.276 11.1686C151.598 11.3118 151.884 11.5258 152.112 11.7948C152.609 12.4097 152.877 13.1781 152.872 13.9689H147.372C147.455 13.1664 147.787 12.4099 148.321 11.8048C148.564 11.5354 148.863 11.3214 149.196 11.177C149.53 11.0326 149.89 10.9613 150.254 10.9679H150.25Z" fill="white"/>
<path d="M162.212 6.00293V11.1379C161.875 10.7126 161.441 10.3733 160.947 10.1473C160.453 9.92142 159.913 9.81541 159.37 9.83801C158.829 9.82106 158.292 9.93666 157.805 10.1749C157.319 10.4132 156.898 10.7668 156.579 11.205C155.855 12.2679 155.498 13.5384 155.562 14.823V14.946C155.496 16.2476 155.859 17.5349 156.598 18.609C156.911 19.0441 157.326 19.3966 157.806 19.6361C158.285 19.8756 158.816 19.995 159.353 19.984C159.897 20.0109 160.441 19.9125 160.942 19.6965C161.442 19.4805 161.887 19.1527 162.241 18.738L162.278 19.807H163.489V6L162.212 6.00293ZM159.547 18.843C159.159 18.8603 158.772 18.7763 158.425 18.5995C158.079 18.4226 157.784 18.1589 157.569 17.834C157.051 16.9865 156.802 16.0019 156.855 15.01C156.785 13.9518 157.037 12.8971 157.578 11.985C157.797 11.6624 158.094 11.401 158.442 11.226C158.789 11.0509 159.176 10.9679 159.566 10.985C160.138 10.9619 160.703 11.1216 161.179 11.441C161.655 11.7605 162.017 12.2232 162.212 12.762V17.2059C161.991 17.7198 161.616 18.1527 161.139 18.4457C160.663 18.7386 160.107 18.8775 159.548 18.843H159.547Z" fill="white"/>
<path d="M167.669 7.36386C167.671 7.47116 167.651 7.57782 167.612 7.67746C167.572 7.7771 167.512 7.86764 167.437 7.94382C167.356 8.02284 167.26 8.08455 167.154 8.12497C167.048 8.16539 166.935 8.18363 166.823 8.1788C166.71 8.18418 166.597 8.16591 166.491 8.12509C166.386 8.08427 166.29 8.02188 166.211 7.94186C166.136 7.86515 166.078 7.77442 166.039 7.67502C166.001 7.57562 165.982 7.46956 165.985 7.36288C165.98 7.14716 166.061 6.93835 166.21 6.78183C166.289 6.70058 166.385 6.63701 166.49 6.59531C166.596 6.5536 166.709 6.53476 166.823 6.53989C166.936 6.53497 167.05 6.5538 167.156 6.59531C167.261 6.63681 167.358 6.70004 167.438 6.78085C167.513 6.85793 167.572 6.94909 167.611 7.04916C167.651 7.14924 167.671 7.25624 167.669 7.36386V7.36386Z" fill="white"/>
<path d="M167.457 10.0156H166.172V19.8076H167.457V10.0156Z" fill="white"/>
<path d="M174.129 19.8043L174.051 19.8323C173.672 19.9486 173.277 20.0013 172.881 19.9883C172.569 20.0145 172.255 19.9672 171.964 19.85C171.674 19.7327 171.415 19.5489 171.209 19.3134C170.827 18.7451 170.644 18.0663 170.69 17.3833V11.1093H168.93V10.0193H170.69V7.57031H171.975V10.0193H173.956V11.1093H171.975V17.3813C171.946 17.7729 172.039 18.1637 172.241 18.5002C172.347 18.6242 172.481 18.7203 172.633 18.7803C172.785 18.8402 172.949 18.8623 173.111 18.8444C173.393 18.8334 173.674 18.804 173.952 18.7563L174.074 18.7383L174.129 19.8043Z" fill="white"/>
<path d="M182.724 11.2151C182.328 10.7654 181.838 10.4088 181.288 10.1707C180.739 9.93268 180.143 9.819 179.545 9.83798C178.741 9.82657 177.951 10.046 177.269 10.4701C176.594 10.8992 176.055 11.5117 175.716 12.236C175.344 13.0284 175.157 13.8949 175.17 14.77V14.983C175.108 16.3009 175.543 17.5941 176.387 18.608C176.782 19.0571 177.272 19.4133 177.82 19.6513C178.369 19.8894 178.964 20.0034 179.562 19.9851C180.364 19.9982 181.154 19.7842 181.841 19.368C182.517 18.9442 183.055 18.3336 183.391 17.6101C183.764 16.8134 183.951 15.9425 183.938 15.0631V14.841C183.998 13.5234 183.566 12.2305 182.724 11.2151V11.2151ZM179.562 18.867C179.131 18.878 178.704 18.7879 178.315 18.604C177.926 18.4201 177.585 18.1475 177.32 17.8081C176.721 17.0211 176.416 16.0499 176.456 15.062V14.862C176.408 13.8451 176.715 12.8432 177.324 12.0271C177.585 11.6876 177.921 11.4141 178.307 11.2286C178.693 11.0431 179.117 10.9508 179.545 10.9591C180.12 10.9505 180.684 11.1179 181.162 11.439C181.649 11.7817 182.03 12.2543 182.262 12.8031C182.532 13.4216 182.668 14.0901 182.662 14.765V14.9651C182.71 15.9815 182.405 16.9834 181.798 17.8C181.535 18.1406 181.195 18.4147 180.807 18.6001C180.419 18.7854 179.992 18.8768 179.562 18.867V18.867Z" fill="white"/>
<path d="M190.57 9.99339L190.538 11.1625L190.409 11.1384C190.177 11.0978 189.943 11.0781 189.709 11.0795C189.128 11.0624 188.56 11.2491 188.103 11.6074C187.638 12.0077 187.31 12.544 187.167 13.1405V19.8075H185.891V10.0155H187.148L187.163 11.2274C187.43 10.7851 187.812 10.4229 188.267 10.1786C188.722 9.93422 189.235 9.81676 189.752 9.83849C190.006 9.82841 190.259 9.87051 190.497 9.96239L190.57 9.99339Z" fill="white"/>
</svg>
