<svg width="225" height="26" viewBox="0 0 225 26" fill="none" xmlns="http://www.w3.org/2000/svg">
<g clip-path="url(#clip0_76_119)">
<path d="M129.904 3.78125V18H128.049V3.78125H129.904ZM134.475 3.78125V5.32422H123.488V3.78125H134.475ZM137.375 9.09375V18H135.568V7.43359H137.326L137.375 9.09375ZM140.676 7.375L140.666 9.05469C140.516 9.02214 140.373 9.0026 140.236 8.99609C140.106 8.98307 139.956 8.97656 139.787 8.97656C139.37 8.97656 139.003 9.04167 138.684 9.17188C138.365 9.30208 138.094 9.48438 137.873 9.71875C137.652 9.95312 137.476 10.2331 137.346 10.5586C137.222 10.8776 137.141 11.2292 137.102 11.6133L136.594 11.9062C136.594 11.2682 136.656 10.6693 136.779 10.1094C136.91 9.54948 137.108 9.05469 137.375 8.625C137.642 8.1888 137.98 7.85026 138.391 7.60938C138.807 7.36198 139.302 7.23828 139.875 7.23828C140.005 7.23828 140.155 7.25456 140.324 7.28711C140.493 7.31315 140.611 7.34245 140.676 7.375ZM148.186 16.1934V10.7539C148.186 10.3372 148.101 9.97591 147.932 9.66992C147.769 9.35742 147.521 9.11654 147.189 8.94727C146.857 8.77799 146.447 8.69336 145.959 8.69336C145.503 8.69336 145.103 8.77148 144.758 8.92773C144.419 9.08398 144.152 9.28906 143.957 9.54297C143.768 9.79688 143.674 10.0703 143.674 10.3633H141.867C141.867 9.98568 141.965 9.61133 142.16 9.24023C142.355 8.86914 142.635 8.53385 143 8.23438C143.371 7.92839 143.814 7.6875 144.328 7.51172C144.849 7.32943 145.428 7.23828 146.066 7.23828C146.835 7.23828 147.512 7.36849 148.098 7.62891C148.69 7.88932 149.152 8.2832 149.484 8.81055C149.823 9.33138 149.992 9.98568 149.992 10.7734V15.6953C149.992 16.0469 150.021 16.4212 150.08 16.8184C150.145 17.2155 150.24 17.5573 150.363 17.8438V18H148.479C148.387 17.7917 148.316 17.515 148.264 17.1699C148.212 16.8184 148.186 16.4928 148.186 16.1934ZM148.498 11.5938L148.518 12.8633H146.691C146.177 12.8633 145.718 12.9056 145.314 12.9902C144.911 13.0684 144.572 13.1888 144.299 13.3516C144.025 13.5143 143.817 13.7194 143.674 13.9668C143.531 14.2077 143.459 14.4909 143.459 14.8164C143.459 15.1484 143.534 15.4512 143.684 15.7246C143.833 15.998 144.058 16.2161 144.357 16.3789C144.663 16.5352 145.038 16.6133 145.48 16.6133C146.034 16.6133 146.522 16.4961 146.945 16.2617C147.368 16.0273 147.704 15.7409 147.951 15.4023C148.205 15.0638 148.342 14.735 148.361 14.416L149.133 15.2852C149.087 15.5586 148.964 15.8613 148.762 16.1934C148.56 16.5254 148.29 16.8444 147.951 17.1504C147.619 17.4499 147.222 17.7005 146.76 17.9023C146.304 18.0977 145.79 18.1953 145.217 18.1953C144.501 18.1953 143.872 18.0553 143.332 17.7754C142.798 17.4954 142.382 17.1211 142.082 16.6523C141.789 16.1771 141.643 15.6465 141.643 15.0605C141.643 14.4941 141.753 13.9961 141.975 13.5664C142.196 13.1302 142.515 12.7689 142.932 12.4824C143.348 12.1895 143.85 11.9681 144.436 11.8184C145.021 11.6686 145.676 11.5938 146.398 11.5938H148.498ZM154.641 9.68945V18H152.834V7.43359H154.543L154.641 9.68945ZM154.211 12.3164L153.459 12.2871C153.465 11.5645 153.573 10.8971 153.781 10.2852C153.99 9.66667 154.283 9.12956 154.66 8.67383C155.038 8.2181 155.487 7.86654 156.008 7.61914C156.535 7.36523 157.118 7.23828 157.756 7.23828C158.277 7.23828 158.745 7.3099 159.162 7.45312C159.579 7.58984 159.934 7.8112 160.227 8.11719C160.526 8.42318 160.754 8.82031 160.91 9.30859C161.066 9.79036 161.145 10.3796 161.145 11.0762V18H159.328V11.0566C159.328 10.5033 159.247 10.0605 159.084 9.72852C158.921 9.38997 158.684 9.14583 158.371 8.99609C158.059 8.83984 157.674 8.76172 157.219 8.76172C156.77 8.76172 156.359 8.85612 155.988 9.04492C155.624 9.23372 155.308 9.49414 155.041 9.82617C154.781 10.1582 154.576 10.5391 154.426 10.9688C154.283 11.3919 154.211 11.8411 154.211 12.3164ZM170.041 15.1973C170.041 14.9368 169.982 14.696 169.865 14.4746C169.755 14.2467 169.523 14.0417 169.172 13.8594C168.827 13.6706 168.306 13.5078 167.609 13.3711C167.023 13.2474 166.493 13.1009 166.018 12.9316C165.549 12.7624 165.148 12.5573 164.816 12.3164C164.491 12.0755 164.24 11.7923 164.064 11.4668C163.889 11.1413 163.801 10.7604 163.801 10.3242C163.801 9.90755 163.892 9.51367 164.074 9.14258C164.263 8.77148 164.527 8.44271 164.865 8.15625C165.21 7.86979 165.624 7.64518 166.105 7.48242C166.587 7.31966 167.124 7.23828 167.717 7.23828C168.563 7.23828 169.286 7.38802 169.885 7.6875C170.484 7.98698 170.943 8.38737 171.262 8.88867C171.581 9.38346 171.74 9.93359 171.74 10.5391H169.934C169.934 10.2461 169.846 9.96289 169.67 9.68945C169.501 9.40951 169.25 9.17839 168.918 8.99609C168.592 8.8138 168.192 8.72266 167.717 8.72266C167.215 8.72266 166.809 8.80078 166.496 8.95703C166.19 9.10677 165.965 9.29883 165.822 9.5332C165.686 9.76758 165.617 10.015 165.617 10.2754C165.617 10.4707 165.65 10.6465 165.715 10.8027C165.786 10.9525 165.91 11.0924 166.086 11.2227C166.262 11.3464 166.509 11.4635 166.828 11.5742C167.147 11.6849 167.554 11.7956 168.049 11.9062C168.915 12.1016 169.628 12.3359 170.188 12.6094C170.747 12.8828 171.164 13.2181 171.438 13.6152C171.711 14.0124 171.848 14.4941 171.848 15.0605C171.848 15.5228 171.75 15.946 171.555 16.3301C171.366 16.7142 171.089 17.0462 170.725 17.3262C170.367 17.5996 169.937 17.8145 169.436 17.9707C168.941 18.1204 168.384 18.1953 167.766 18.1953C166.835 18.1953 166.047 18.0293 165.402 17.6973C164.758 17.3652 164.27 16.9355 163.938 16.4082C163.605 15.8809 163.439 15.3242 163.439 14.7383H165.256C165.282 15.2331 165.425 15.627 165.686 15.9199C165.946 16.2064 166.265 16.4115 166.643 16.5352C167.02 16.6523 167.395 16.7109 167.766 16.7109C168.26 16.7109 168.674 16.6458 169.006 16.5156C169.344 16.3854 169.602 16.2064 169.777 15.9785C169.953 15.7507 170.041 15.4902 170.041 15.1973ZM178.605 18.1953C177.87 18.1953 177.202 18.0716 176.604 17.8242C176.011 17.5703 175.5 17.2155 175.07 16.7598C174.647 16.304 174.322 15.7637 174.094 15.1387C173.866 14.5137 173.752 13.8301 173.752 13.0879V12.6777C173.752 11.8184 173.879 11.0534 174.133 10.3828C174.387 9.70573 174.732 9.13281 175.168 8.66406C175.604 8.19531 176.099 7.84049 176.652 7.59961C177.206 7.35872 177.779 7.23828 178.371 7.23828C179.126 7.23828 179.777 7.36849 180.324 7.62891C180.878 7.88932 181.33 8.25391 181.682 8.72266C182.033 9.1849 182.294 9.73177 182.463 10.3633C182.632 10.9883 182.717 11.6719 182.717 12.4141V13.2246H174.826V11.75H180.91V11.6133C180.884 11.1445 180.786 10.6888 180.617 10.2461C180.454 9.80339 180.194 9.4388 179.836 9.15234C179.478 8.86589 178.99 8.72266 178.371 8.72266C177.961 8.72266 177.583 8.81055 177.238 8.98633C176.893 9.1556 176.597 9.40951 176.35 9.74805C176.102 10.0866 175.91 10.5 175.773 10.9883C175.637 11.4766 175.568 12.0397 175.568 12.6777V13.0879C175.568 13.5892 175.637 14.0612 175.773 14.5039C175.917 14.9401 176.122 15.3242 176.389 15.6562C176.662 15.9883 176.991 16.2487 177.375 16.4375C177.766 16.6263 178.208 16.7207 178.703 16.7207C179.341 16.7207 179.882 16.5905 180.324 16.3301C180.767 16.0697 181.154 15.7214 181.486 15.2852L182.58 16.1543C182.352 16.4993 182.062 16.8281 181.711 17.1406C181.359 17.4531 180.926 17.707 180.412 17.9023C179.904 18.0977 179.302 18.1953 178.605 18.1953ZM191.486 15.9492V3H193.303V18H191.643L191.486 15.9492ZM184.377 12.834V12.6289C184.377 11.8216 184.475 11.0892 184.67 10.4316C184.872 9.76758 185.155 9.19792 185.52 8.72266C185.891 8.2474 186.33 7.88281 186.838 7.62891C187.352 7.36849 187.925 7.23828 188.557 7.23828C189.221 7.23828 189.8 7.35547 190.295 7.58984C190.796 7.81771 191.219 8.15299 191.564 8.5957C191.916 9.0319 192.193 9.55924 192.395 10.1777C192.596 10.7962 192.736 11.4961 192.814 12.2773V13.1758C192.743 13.9505 192.603 14.6471 192.395 15.2656C192.193 15.8841 191.916 16.4115 191.564 16.8477C191.219 17.2839 190.796 17.6191 190.295 17.8535C189.794 18.0814 189.208 18.1953 188.537 18.1953C187.919 18.1953 187.352 18.0618 186.838 17.7949C186.33 17.528 185.891 17.1536 185.52 16.6719C185.155 16.1901 184.872 15.6237 184.67 14.9727C184.475 14.3151 184.377 13.6022 184.377 12.834ZM186.193 12.6289V12.834C186.193 13.3613 186.245 13.8561 186.35 14.3184C186.46 14.7806 186.63 15.1875 186.857 15.5391C187.085 15.8906 187.375 16.1673 187.727 16.3691C188.078 16.5645 188.498 16.6621 188.986 16.6621C189.585 16.6621 190.077 16.5352 190.461 16.2812C190.852 16.0273 191.164 15.6921 191.398 15.2754C191.633 14.8587 191.815 14.4062 191.945 13.918V11.5645C191.867 11.2064 191.753 10.8613 191.604 10.5293C191.46 10.1908 191.271 9.89128 191.037 9.63086C190.809 9.36393 190.526 9.15234 190.188 8.99609C189.855 8.83984 189.462 8.76172 189.006 8.76172C188.511 8.76172 188.085 8.86589 187.727 9.07422C187.375 9.27604 187.085 9.55599 186.857 9.91406C186.63 10.2656 186.46 10.6758 186.35 11.1445C186.245 11.6068 186.193 12.1016 186.193 12.6289ZM198.078 7.43359V18H196.262V7.43359H198.078ZM196.125 4.63086C196.125 4.33789 196.213 4.09049 196.389 3.88867C196.571 3.68685 196.838 3.58594 197.189 3.58594C197.535 3.58594 197.798 3.68685 197.98 3.88867C198.169 4.09049 198.264 4.33789 198.264 4.63086C198.264 4.91081 198.169 5.15169 197.98 5.35352C197.798 5.54883 197.535 5.64648 197.189 5.64648C196.838 5.64648 196.571 5.54883 196.389 5.35352C196.213 5.15169 196.125 4.91081 196.125 4.63086ZM205.402 7.43359V8.82031H199.689V7.43359H205.402ZM201.623 4.86523H203.43V15.3828C203.43 15.7409 203.485 16.0111 203.596 16.1934C203.706 16.3757 203.85 16.4961 204.025 16.5547C204.201 16.6133 204.39 16.6426 204.592 16.6426C204.742 16.6426 204.898 16.6296 205.061 16.6035C205.23 16.571 205.357 16.5449 205.441 16.5254L205.451 18C205.308 18.0456 205.119 18.0879 204.885 18.127C204.657 18.1725 204.38 18.1953 204.055 18.1953C203.612 18.1953 203.205 18.1074 202.834 17.9316C202.463 17.7559 202.167 17.4629 201.945 17.0527C201.73 16.6361 201.623 16.0762 201.623 15.373V4.86523ZM206.848 12.834V12.6094C206.848 11.8477 206.958 11.1413 207.18 10.4902C207.401 9.83268 207.72 9.26302 208.137 8.78125C208.553 8.29297 209.058 7.91536 209.65 7.64844C210.243 7.375 210.907 7.23828 211.643 7.23828C212.385 7.23828 213.052 7.375 213.645 7.64844C214.243 7.91536 214.751 8.29297 215.168 8.78125C215.591 9.26302 215.913 9.83268 216.135 10.4902C216.356 11.1413 216.467 11.8477 216.467 12.6094V12.834C216.467 13.5957 216.356 14.3021 216.135 14.9531C215.913 15.6042 215.591 16.1738 215.168 16.6621C214.751 17.1439 214.247 17.5215 213.654 17.7949C213.068 18.0618 212.404 18.1953 211.662 18.1953C210.92 18.1953 210.253 18.0618 209.66 17.7949C209.068 17.5215 208.56 17.1439 208.137 16.6621C207.72 16.1738 207.401 15.6042 207.18 14.9531C206.958 14.3021 206.848 13.5957 206.848 12.834ZM208.654 12.6094V12.834C208.654 13.3613 208.716 13.8594 208.84 14.3281C208.964 14.7904 209.149 15.2005 209.396 15.5586C209.65 15.9167 209.966 16.1999 210.344 16.4082C210.721 16.61 211.161 16.7109 211.662 16.7109C212.157 16.7109 212.59 16.61 212.961 16.4082C213.339 16.1999 213.651 15.9167 213.898 15.5586C214.146 15.2005 214.331 14.7904 214.455 14.3281C214.585 13.8594 214.65 13.3613 214.65 12.834V12.6094C214.65 12.0885 214.585 11.597 214.455 11.1348C214.331 10.666 214.143 10.2526 213.889 9.89453C213.641 9.52995 213.329 9.24349 212.951 9.03516C212.58 8.82682 212.144 8.72266 211.643 8.72266C211.148 8.72266 210.712 8.82682 210.334 9.03516C209.963 9.24349 209.65 9.52995 209.396 9.89453C209.149 10.2526 208.964 10.666 208.84 11.1348C208.716 11.597 208.654 12.0885 208.654 12.6094ZM220.539 9.09375V18H218.732V7.43359H220.49L220.539 9.09375ZM223.84 7.375L223.83 9.05469C223.68 9.02214 223.537 9.0026 223.4 8.99609C223.27 8.98307 223.12 8.97656 222.951 8.97656C222.535 8.97656 222.167 9.04167 221.848 9.17188C221.529 9.30208 221.258 9.48438 221.037 9.71875C220.816 9.95312 220.64 10.2331 220.51 10.5586C220.386 10.8776 220.305 11.2292 220.266 11.6133L219.758 11.9062C219.758 11.2682 219.82 10.6693 219.943 10.1094C220.074 9.54948 220.272 9.05469 220.539 8.625C220.806 8.1888 221.145 7.85026 221.555 7.60938C221.971 7.36198 222.466 7.23828 223.039 7.23828C223.169 7.23828 223.319 7.25456 223.488 7.28711C223.658 7.31315 223.775 7.34245 223.84 7.375Z" fill="#2A343F"/>
<path d="M50.8459 15.8288L50.1182 13.9088H43.9204L43.1928 15.8703C43.0157 16.4152 42.7714 16.9356 42.4652 17.4194C42.3447 17.5609 42.1921 17.6712 42.0202 17.7411C41.8484 17.8111 41.6623 17.8384 41.4777 17.8211C41.2863 17.8216 41.0968 17.7842 40.92 17.7107C40.7432 17.6372 40.5827 17.5293 40.4477 17.3933C40.3089 17.2725 40.1973 17.1235 40.12 16.9562C40.0429 16.7888 40.002 16.607 40 16.4226C40.0017 16.2029 40.0367 15.9847 40.1039 15.7755C40.1733 15.5535 40.2879 15.2438 40.4477 14.8463L44.3457 4.91333L44.7461 3.88577C44.8765 3.5365 45.044 3.20231 45.2457 2.88903C45.4243 2.62279 45.6632 2.40269 45.9427 2.24666C46.2699 2.07393 46.6361 1.98939 47.0057 2.00132C47.3796 1.9882 47.7504 2.07274 48.0818 2.24666C48.3593 2.40092 48.5977 2.61708 48.7787 2.87839C48.957 3.13817 49.107 3.41626 49.2264 3.70799C49.3477 4.00351 49.502 4.39856 49.6894 4.89318L53.6725 14.7634C53.9229 15.278 54.0828 15.832 54.145 16.4013C54.1412 16.5855 54.1001 16.7669 54.0241 16.9346C53.9482 17.1023 53.839 17.2527 53.7032 17.3767C53.5655 17.5194 53.4001 17.6323 53.2172 17.7085C53.0345 17.7848 52.8381 17.8227 52.6401 17.82C52.4249 17.8259 52.2113 17.7812 52.0164 17.6896C51.8462 17.6052 51.6969 17.4837 51.5794 17.334C51.4257 17.1207 51.2984 16.8896 51.2002 16.6456C51.0617 16.3381 50.9435 16.0659 50.8459 15.8288ZM44.7307 11.5823H49.2855L46.9868 5.27007L44.7307 11.5823Z" fill="#5D626A"/>
<path d="M57.6472 4.91416C57.2759 4.92286 56.9148 4.79274 56.6338 4.54912C56.5002 4.41603 56.3942 4.25757 56.3224 4.08301C56.2505 3.90844 56.214 3.72125 56.2149 3.53237C56.216 3.34349 56.2544 3.15669 56.3282 2.98289C56.4019 2.80909 56.5094 2.65174 56.6444 2.52007C56.9166 2.26524 57.2761 2.12522 57.6485 2.12898C58.006 2.12589 58.3528 2.25208 58.6253 2.48452C58.7705 2.61249 58.8845 2.77226 58.9584 2.95146C59.0324 3.13065 59.0643 3.32448 59.0517 3.51801C59.062 3.70942 59.03 3.90076 58.9582 4.07837C58.8862 4.25598 58.7763 4.4155 58.6359 4.54557C58.3647 4.78958 58.0114 4.92131 57.6472 4.91416ZM59.0504 7.85697V16.0893C59.0847 16.5567 58.9399 17.0196 58.6454 17.3835C58.5151 17.5265 58.3558 17.6397 58.178 17.7153C58.0002 17.7911 57.8084 17.8275 57.6154 17.822C57.4237 17.8279 57.2331 17.7906 57.0577 17.7128C56.8823 17.6351 56.7265 17.519 56.6018 17.3728C56.3203 17.007 56.1817 16.5505 56.2121 16.0893V7.93993C56.178 7.48162 56.3171 7.0271 56.6018 6.66704C56.7298 6.52636 56.8867 6.41531 57.0617 6.34135C57.2367 6.26752 57.4256 6.23267 57.6154 6.23919C57.8074 6.2335 57.9984 6.2687 58.176 6.34242C58.3535 6.41614 58.5136 6.52683 58.6454 6.66704C58.9308 6.99498 59.0763 7.42236 59.0504 7.85697Z" fill="#5D626A"/>
<path d="M61.9836 16.0902V3.73592C61.95 3.27271 62.0848 2.81297 62.3628 2.44169C62.4899 2.29642 62.648 2.1816 62.8253 2.10571C63.0025 2.02982 63.1943 1.99479 63.3868 2.00317C63.581 1.99563 63.7744 2.03038 63.9539 2.10506C64.1334 2.17974 64.2945 2.29257 64.4263 2.43575C64.7172 2.80474 64.8586 3.27038 64.822 3.73946V16.0939C64.8589 16.5637 64.7157 17.0299 64.4217 17.3976C64.2902 17.5399 64.1298 17.6523 63.9512 17.727C63.7726 17.8015 63.5802 17.8367 63.3868 17.8302C63.1954 17.8362 63.0048 17.799 62.8295 17.7215C62.6541 17.644 62.4982 17.5281 62.3734 17.3822C62.09 17.0141 61.9512 16.5543 61.9836 16.0902Z" fill="#5D626A"/>
<path d="M74.9302 16.2121C74.3225 16.7005 73.6529 17.106 72.9387 17.4174C72.253 17.6937 71.5195 17.8302 70.7806 17.8192C70.1156 17.8337 69.4572 17.6852 68.8624 17.3866C68.3373 17.1222 67.8963 16.7157 67.589 16.2132C67.2936 15.7298 67.1385 15.1733 67.1413 14.6062C67.1249 13.8718 67.389 13.1589 67.8796 12.6139C68.4205 12.0372 69.1313 11.6496 69.9077 11.5081C70.0881 11.4661 70.5354 11.3722 71.2496 11.226C71.9639 11.0799 72.5757 10.9458 73.0852 10.8242C73.5948 10.7025 74.1459 10.5549 74.7389 10.381C74.7541 9.79527 74.5968 9.21809 74.2865 8.72173C74.0671 8.51622 73.8049 8.36226 73.5188 8.27112C73.2328 8.17986 72.9301 8.15367 72.6328 8.19432C72.0738 8.16126 71.5152 8.26496 71.0051 8.49654C70.6227 8.71616 70.3012 9.02822 70.0696 9.4044C69.8991 9.67936 69.715 9.94555 69.5179 10.202C69.4219 10.28 69.3109 10.3374 69.1918 10.3706C69.0727 10.4037 68.9482 10.4122 68.8257 10.3952C68.5214 10.4007 68.226 10.2906 67.9989 10.0869C67.886 9.99 67.7961 9.86887 67.7358 9.73257C67.6756 9.59616 67.6464 9.44801 67.6504 9.29891C67.6617 8.76677 67.8482 8.25334 68.1808 7.83877C68.6164 7.30614 69.188 6.90235 69.8345 6.67017C70.729 6.33903 71.6786 6.18342 72.6316 6.21151C73.632 6.17109 74.6308 6.32149 75.5752 6.65477C76.2424 6.90697 76.7853 7.41044 77.0883 8.05803C77.414 8.86549 77.5646 9.73329 77.5301 10.6038C77.5301 11.2714 77.5301 11.8383 77.5301 12.3045C77.5301 12.7707 77.525 13.2891 77.5147 13.8595C77.5197 14.4278 77.6089 14.9922 77.7793 15.5341C77.9081 15.8971 77.9968 16.273 78.0439 16.6554C78.0386 16.8107 77.999 16.9629 77.9279 17.1011C77.8568 17.2393 77.756 17.3598 77.6328 17.4541C77.3777 17.6849 77.0457 17.8119 76.702 17.8097C76.3713 17.7919 76.061 17.6437 75.8386 17.3973C75.4887 17.0409 75.1836 16.6429 74.9302 16.2121ZM74.7436 12.0899C74.15 12.2912 73.544 12.4532 72.9293 12.5748C72.1355 12.7454 71.5842 12.8706 71.2756 12.9505C70.953 13.0411 70.6547 13.2032 70.4027 13.4245C70.2636 13.5444 70.1539 13.6946 70.0818 13.8638C70.0098 14.0329 69.9773 14.2162 69.9869 14.4C69.9845 14.608 70.0269 14.8141 70.1114 15.004C70.1958 15.1941 70.3201 15.3636 70.4759 15.501C70.8274 15.8132 71.2862 15.9759 71.7551 15.9549C72.2957 15.9598 72.8292 15.8324 73.3096 15.5838C73.7435 15.3752 74.1069 15.0435 74.355 14.6298C74.6602 13.9626 74.7927 13.2288 74.7401 12.4965L74.7436 12.0899Z" fill="#5D626A"/>
<path d="M82.7512 18.178L83.011 17.5416L79.5171 8.71439C79.3458 8.36761 79.2367 7.9932 79.1946 7.60849C79.1935 7.36956 79.2586 7.13489 79.3824 6.93069C79.5075 6.72126 79.6851 6.54846 79.8974 6.42935C80.1039 6.30704 80.3392 6.24197 80.579 6.24091C80.7529 6.22894 80.9272 6.25798 81.0879 6.326C81.2485 6.39392 81.391 6.49869 81.5038 6.63202C81.7513 6.97063 81.938 7.35012 82.0555 7.7532L84.4581 14.7646L86.7354 8.24612C86.8739 7.82278 87.0371 7.40808 87.2245 7.00417C87.3226 6.76464 87.4824 6.55558 87.6875 6.39842C87.8987 6.28239 88.138 6.22823 88.3785 6.24209C88.5963 6.24269 88.8102 6.30206 88.9975 6.41383C89.1896 6.52346 89.3478 6.68429 89.4546 6.87842C89.5603 7.06615 89.6161 7.27806 89.6164 7.49365C89.5881 7.62556 89.5428 7.81318 89.4806 8.05661C89.4183 8.29993 89.3419 8.54681 89.2514 8.79735L85.5495 18.5218C85.3039 19.2224 84.9906 19.8972 84.6139 20.5365C84.3193 21.0135 83.9008 21.4012 83.4033 21.6578C82.7655 21.9463 82.0692 22.0802 81.3704 22.0488C80.7347 22.0801 80.099 21.988 79.4981 21.7774C79.3026 21.7005 79.1366 21.5629 79.0244 21.3846C78.9123 21.2064 78.8597 20.9968 78.8745 20.7866C78.866 20.6465 78.888 20.5063 78.9392 20.3757C78.9905 20.2451 79.0695 20.1271 79.171 20.0304C79.4209 19.8356 79.7341 19.7406 80.0498 19.7639C80.2012 19.7636 80.3518 19.7847 80.4975 19.8266C80.6521 19.8652 80.8106 19.8864 80.97 19.8895C81.2341 19.9019 81.4975 19.852 81.7389 19.7436C81.9493 19.6234 82.1235 19.4486 82.2433 19.2375C82.4389 18.8977 82.6088 18.5436 82.7512 18.178Z" fill="#5D626A"/>
<path d="M100.535 14.096C100.568 14.8174 100.365 15.5299 99.9563 16.1245C99.5478 16.7192 98.9564 17.1631 98.2726 17.3884C97.4009 17.6978 96.4801 17.8445 95.5558 17.8211C94.6592 17.8425 93.7675 17.6812 92.9347 17.3469C92.3036 17.1059 91.7476 16.7009 91.3236 16.1736C91.0016 15.7716 90.8191 15.2752 90.8038 14.7597C90.8016 14.6101 90.8302 14.4615 90.8875 14.3233C90.9448 14.1851 91.0297 14.0601 91.1369 13.9561C91.2471 13.8458 91.3787 13.7592 91.5235 13.7017C91.6684 13.6442 91.8234 13.617 91.979 13.6219C92.2272 13.6053 92.4724 13.6837 92.6653 13.8412C92.8497 14.0207 93.0041 14.2288 93.1225 14.4575C93.3704 14.9187 93.7298 15.31 94.1679 15.5952C94.6745 15.8696 95.2465 15.9996 95.8215 15.9709C96.314 15.9923 96.8013 15.8607 97.2166 15.5941C97.3734 15.5068 97.5056 15.3812 97.6011 15.2289C97.6964 15.0766 97.7519 14.9026 97.7622 14.7229C97.7771 14.5058 97.7321 14.2887 97.632 14.0955C97.532 13.9023 97.3809 13.7405 97.1953 13.6278C96.6073 13.3212 95.9789 13.0998 95.3289 12.9701C94.5142 12.7797 93.7163 12.5232 92.943 12.2032C92.377 11.9702 91.8729 11.6079 91.4712 11.145C91.0977 10.6907 90.9016 10.1157 90.9196 9.52709C90.9221 8.94837 91.1001 8.3841 91.4299 7.90931C91.8069 7.37053 92.3276 6.94908 92.9324 6.69332C93.6898 6.37201 94.5069 6.21723 95.3289 6.23939C95.9963 6.23157 96.6619 6.30884 97.3098 6.46932C97.8288 6.594 98.3242 6.80211 98.777 7.08561C99.1304 7.30617 99.4348 7.59749 99.6712 7.94143C99.8615 8.21059 99.9682 8.53 99.9783 8.85983C99.9829 9.00928 99.9562 9.15814 99.8998 9.29657C99.8435 9.435 99.7587 9.56004 99.651 9.66351C99.3935 9.88585 99.0594 9.9982 98.7203 9.97628C98.451 9.98374 98.1877 9.89509 97.9773 9.7262C97.7177 9.50114 97.4826 9.24928 97.2757 8.9748C97.069 8.7041 96.8109 8.47726 96.5162 8.30754C96.1501 8.12419 95.7434 8.03814 95.3349 8.05746C94.8859 8.0404 94.4414 8.15453 94.0556 8.38588C93.9062 8.46493 93.7804 8.5825 93.6909 8.72626C93.6015 8.87014 93.5517 9.03524 93.5466 9.20472C93.5446 9.34872 93.5777 9.49106 93.643 9.6193C93.7082 9.74754 93.8036 9.85788 93.921 9.94072C94.226 10.1586 94.5677 10.3193 94.9298 10.4148C95.3527 10.5404 95.935 10.6934 96.6768 10.8736C97.425 11.0413 98.1498 11.3008 98.8349 11.6462C99.3338 11.8956 99.768 12.2579 100.103 12.7046C100.39 13.1109 100.541 13.5981 100.535 14.096Z" fill="#5D626A"/>
<path d="M110.113 16.212C109.505 16.7007 108.835 17.106 108.121 17.4175C107.436 17.6938 106.702 17.8303 105.963 17.8193C105.298 17.8337 104.64 17.6852 104.045 17.3867C103.52 17.1221 103.079 16.7156 102.772 16.2132C102.476 15.7298 102.321 15.1732 102.324 14.6062C102.308 13.8719 102.572 13.159 103.062 12.6138C103.603 12.0371 104.314 11.6495 105.09 11.508C105.271 11.4662 105.718 11.3722 106.432 11.2261C107.146 11.0798 107.758 10.9459 108.268 10.8242C108.777 10.7025 109.329 10.5548 109.921 10.381C109.937 9.7952 109.78 9.2179 109.469 8.72166C109.25 8.51627 108.987 8.36231 108.701 8.27105C108.415 8.17991 108.113 8.1536 107.815 8.19426C107.256 8.16131 106.698 8.26501 106.188 8.49648C105.805 8.71633 105.484 9.02839 105.252 9.40433C105.082 9.67941 104.898 9.9456 104.7 10.2021C104.605 10.2798 104.494 10.3371 104.375 10.3704C104.256 10.4036 104.132 10.412 104.01 10.3951C103.705 10.4005 103.41 10.2905 103.183 10.087C103.07 9.98993 102.98 9.86892 102.92 9.73251C102.859 9.59621 102.83 9.44794 102.834 9.29885C102.845 8.76682 103.032 8.2534 103.365 7.8387C103.8 7.30631 104.372 6.9024 105.018 6.67011C105.913 6.33908 106.862 6.18335 107.815 6.21144C108.815 6.17126 109.814 6.32166 110.758 6.6547C111.425 6.90703 111.968 7.41037 112.271 8.05796C112.596 8.86554 112.747 9.73334 112.713 10.6037C112.713 11.2715 112.713 11.8383 112.713 12.3045C112.713 12.7707 112.707 13.289 112.697 13.8594C112.703 14.4279 112.792 14.9922 112.963 15.5341C113.092 15.897 113.18 16.2731 113.228 16.6554C113.222 16.8108 113.183 16.963 113.112 17.1012C113.041 17.2392 112.94 17.3598 112.817 17.4541C112.561 17.685 112.229 17.8119 111.886 17.8098C111.555 17.7919 111.245 17.6436 111.022 17.3972C110.672 17.0411 110.366 16.643 110.113 16.212ZM109.926 12.09C109.333 12.2912 108.727 12.4532 108.112 12.5748C107.318 12.7455 106.767 12.8706 106.458 12.9504C106.135 13.041 105.837 13.203 105.584 13.4245C105.445 13.5444 105.335 13.6947 105.263 13.8638C105.191 14.0328 105.159 14.2163 105.168 14.3999C105.166 14.608 105.208 14.8141 105.293 15.0041C105.377 15.1942 105.502 15.3637 105.657 15.501C106.009 15.8131 106.468 15.9758 106.936 15.955C107.477 15.9597 108.011 15.8323 108.491 15.5839C108.925 15.3752 109.288 15.0434 109.536 14.6298C109.842 13.9626 109.974 13.2288 109.921 12.4965L109.926 12.09Z" fill="#5D626A"/>
<path d="M31.6465 0.00292969C31.6465 4.9468 27.6318 8.96444 22.685 8.96444H-0.000244141C-0.000244141 4.02057 4.01442 0.00292969 8.96127 0.00292969H31.6465Z" fill="#0673F7"/>
<path d="M15.3418 8.96152L19.428 0H11.0472H8.70333C1.04927 2.11455 0.00390625 8.96152 0.00390625 8.96152H8.08386H15.3418Z" fill="url(#paint0_radial_76_119)"/>
<path d="M19.3526 26H12.3001C11.773 26 11.3471 25.5741 11.3471 25.047V8.96152C11.3471 4.01765 15.3617 0 20.3086 0V25.047C20.3086 25.5741 19.8827 26 19.3556 26H19.3526Z" fill="#0673F7"/>
</g>
<defs>
<radialGradient id="paint0_radial_76_119" cx="0" cy="0" r="1" gradientUnits="userSpaceOnUse" gradientTransform="translate(18.9217 8.86621) rotate(180) scale(16.3594 16.3595)">
<stop offset="0.33" stop-color="#004AB3"/>
<stop offset="0.78" stop-color="#0673F7"/>
</radialGradient>
<clipPath id="clip0_76_119">
<rect width="225" height="26" fill="white"/>
</clipPath>
</defs>
</svg>
