<svg xmlns="http://www.w3.org/2000/svg" xmlns:xlink="http://www.w3.org/1999/xlink" width="26.507" height="26.459" viewBox="0 0 26.507 26.459"><defs><style>.a{fill:url(#a);}</style><linearGradient id="a" x1="0.267" y1="0.065" x2="1.375" y2="2.249" gradientUnits="objectBoundingBox"><stop offset="0" stop-color="#0cc6ed"/><stop offset="1" stop-color="#1d8bdb"/></linearGradient></defs><g transform="translate(0 0)"><path class="a" d="M318.2,1614.93h5.032v.372c0,1.979-1.1,3.024-3.168,3.024H318.2c-2.1,0-3.168-.571-3.168-1.7S316.1,1614.93,318.2,1614.93Z" transform="translate(-308.271 -1600.752)"/><path class="a" d="M265.264,1467.05H250.6a5.935,5.935,0,0,0-5.923,5.912V1487.6a5.935,5.935,0,0,0,5.923,5.912h14.661a5.935,5.935,0,0,0,5.923-5.912v-14.634A5.935,5.935,0,0,0,265.264,1467.05ZM261.69,1481.6c0,3.315-1.708,4.926-5.22,4.926h-1.864c-3.513,0-5.22-1.178-5.22-3.6s1.706-3.6,5.22-3.6h5.031v-.37c0-1.976-1.1-3.02-3.168-3.02H253.1a2,2,0,0,1-1.833-1.9h5.2c3.512,0,5.22,1.609,5.22,4.925Zm4.295,4.923a2.382,2.382,0,0,1-2.052-2.538V1477.5h.146a2.122,2.122,0,0,1,1.906,2.281Zm0-10.59h-.728a1.486,1.486,0,0,1-1.324-1.6v-.3h.831a1.373,1.373,0,0,1,1.221,1.484Z" transform="translate(-244.68 -1467.05)"/></g></svg>