<svg width="19" height="22" viewBox="0 0 19 22" fill="none" xmlns="http://www.w3.org/2000/svg">
<path d="M1.65 22C1.21 22 0.825 21.835 0.495 21.505C0.165 21.175 0 20.79 0 20.35V3.7675H1.65V20.35H14.685V22H1.65ZM4.95 18.7C4.51 18.7 4.125 18.535 3.795 18.205C3.465 17.875 3.3 17.49 3.3 17.05V1.65C3.3 1.21 3.465 0.825 3.795 0.495C4.125 0.165 4.51 0 4.95 0H17.05C17.49 0 17.875 0.165 18.205 0.495C18.535 0.825 18.7 1.21 18.7 1.65V17.05C18.7 17.49 18.535 17.875 18.205 18.205C17.875 18.535 17.49 18.7 17.05 18.7H4.95ZM4.95 17.05H17.05V1.65H4.95V17.05ZM4.95 17.05V1.65V17.05Z" fill="#3C4043"/>
</svg>
