<svg width="20" height="20" viewBox="0 0 20 20" fill="none" xmlns="http://www.w3.org/2000/svg">
<path d="M10.833 9.16699H9.166V11.667H6.666V13.334H9.166V15.834H10.833V13.334H13.333V11.667H10.833V9.16699ZM11.666 1.66699H5C4.55828 1.66831 4.13504 1.84436 3.82271 2.1567C3.51037 2.46904 3.33431 2.89228 3.333 3.33399V16.667C3.3322 17.1078 3.50634 17.5309 3.81719 17.8434C4.12804 18.156 4.5502 18.3324 4.991 18.334H15C15.4415 18.3324 15.8645 18.1562 16.1766 17.8439C16.4888 17.5316 16.6647 17.1085 16.666 16.667V6.66699L11.666 1.66699ZM14.999 16.667H4.999V3.33399H10.833V7.49999H15L14.999 16.667Z" fill="#1A73E8"/>
</svg>
