<svg width="20" height="20" viewBox="0 0 20 20" fill="none" xmlns="http://www.w3.org/2000/svg">
<path d="M2 14.141H4.96231C4.36193 13.6186 3.8856 12.972 3.56726 12.2472C3.23577 11.4843 3.06976 10.6615 3.0798 9.83156C3.06215 8.76759 3.35288 7.72075 3.9178 6.81439C4.47879 5.92876 5.27569 5.2124 6.22138 4.74364C7.24339 4.25426 8.36454 4 9.50049 4C10.6364 4 11.7576 4.25426 12.7796 4.74364C13.725 5.21247 14.5216 5.92883 15.0822 6.81439C15.6478 7.72056 15.9393 8.7674 15.9223 9.83156C15.932 10.6625 15.7624 11.4859 15.4247 12.2472C15.1025 12.9678 14.6299 13.6131 14.0377 14.141H17V16H10.9051V14.2752C11.7519 13.8735 12.4691 13.2479 12.9771 12.4679C13.4526 11.7244 13.7022 10.8619 13.6962 9.98265C13.7114 9.24073 13.5253 8.50827 13.1573 7.86117C12.8069 7.25635 12.2905 6.7616 11.6676 6.43371C11.0004 6.0877 10.2556 5.91332 9.50203 5.9267C8.74497 5.91382 7.99668 6.08813 7.32534 6.43371C6.70047 6.75856 6.18366 7.25408 5.83665 7.86117C5.47357 8.50987 5.29042 9.24171 5.30579 9.98265C5.29767 10.8672 5.5473 11.7354 6.02496 12.4838C6.53087 13.2611 7.24914 13.8815 8.09689 14.2733V15.9981H2V14.141Z" fill="#1A73E8"/>
</svg>
