<svg width="16" height="15" viewBox="0 0 16 15" fill="none" xmlns="http://www.w3.org/2000/svg">
<path d="M0 11.8746V14.9996H3.125L12.342 5.78265L9.217 2.65765L0 11.8746ZM2.433 13.3326H1.667V12.5656L9.217 5.01565L9.984 5.78265L2.433 13.3326ZM14.758 2.19165L12.808 0.241646C12.6517 0.0868406 12.4405 0 12.2205 0C12.0005 0 11.7893 0.0868406 11.633 0.241646L10.108 1.76665L13.233 4.89165L14.758 3.36665C14.8353 3.28955 14.8965 3.19798 14.9384 3.09717C14.9802 2.99636 15.0017 2.88829 15.0017 2.77915C15.0017 2.67001 14.9802 2.56194 14.9384 2.46113C14.8965 2.36031 14.8353 2.26874 14.758 2.19165V2.19165Z" fill="#474848"/>
</svg>
