<svg xmlns="http://www.w3.org/2000/svg" width="8" height="8" viewBox="0 0 8 8"><defs><style>.a{fill:#fff;}.b,.c{stroke:none;}.c{fill:#707070;}</style></defs><g transform="translate(14434 -3359)"><g class="a" transform="translate(-14434 3359)"><path class="b" d="M 4.500400066375732 7.500100135803223 L 3.49970006942749 7.500100135803223 L 3.49970006942749 5.000400066375732 L 3.49970006942749 4.500400066375732 L 2.99970006942749 4.500400066375732 L 0.5000000596046448 4.500400066375732 L 0.5000000596046448 3.49970006942749 L 2.99970006942749 3.49970006942749 L 3.49970006942749 3.49970006942749 L 3.49970006942749 2.99970006942749 L 3.49970006942749 0.5000000596046448 L 4.500400066375732 0.5000000596046448 L 4.500400066375732 2.99970006942749 L 4.500400066375732 3.49970006942749 L 5.000400066375732 3.49970006942749 L 7.500100135803223 3.49970006942749 L 7.500100135803223 4.500400066375732 L 5.000400066375732 4.500400066375732 L 4.500400066375732 4.500400066375732 L 4.500400066375732 5.000400066375732 L 4.500400066375732 7.500100135803223 Z"/><path class="c" d="M 4.000400066375732 7.000100135803223 L 4.000400066375732 5.000400066375732 L 4.000400066375732 4.000400066375732 L 5.000400066375732 4.000400066375732 L 7.000100135803223 4.000400066375732 L 7.000100135803223 3.99970006942749 L 5.000400066375732 3.99970006942749 L 4.000400066375732 3.99970006942749 L 4.000400066375732 2.99970006942749 L 4.000400066375732 1.00000011920929 L 3.99970006942749 1.00000011920929 L 3.99970006942749 2.99970006942749 L 3.99970006942749 3.99970006942749 L 2.99970006942749 3.99970006942749 L 1.00000011920929 3.99970006942749 L 1.00000011920929 4.000400066375732 L 2.99970006942749 4.000400066375732 L 3.99970006942749 4.000400066375732 L 3.99970006942749 5.000400066375732 L 3.99970006942749 7.000100135803223 L 4.000400066375732 7.000100135803223 M 5.000400066375732 8.000100135803223 L 2.99970006942749 8.000100135803223 L 2.99970006942749 5.000400066375732 L 6.790160966829717e-08 5.000400066375732 L 6.790160966829717e-08 2.99970006942749 L 2.99970006942749 2.99970006942749 L 2.99970006942749 6.790160966829717e-08 L 5.000400066375732 6.790160966829717e-08 L 5.000400066375732 2.99970006942749 L 8.000100135803223 2.99970006942749 L 8.000100135803223 5.000400066375732 L 5.000400066375732 5.000400066375732 L 5.000400066375732 8.000100135803223 Z"/></g></g></svg>