<svg width="18" height="16" viewBox="0 0 18 16" fill="none" xmlns="http://www.w3.org/2000/svg">
<path d="M9 2.96606C12.1009 2.96606 14.8664 4.74569 16.2164 7.56136C15.7336 8.58068 15.0545 9.45796 14.2445 10.1681L15.3982 11.3462C16.5355 10.3185 17.4355 9.03185 18 7.56136C16.5845 3.89347 13.0909 1.29504 9 1.29504C7.96091 1.29504 6.96273 1.46214 6.02182 1.77128L7.37182 3.14987C7.90364 3.04125 8.44364 2.96606 9 2.96606ZM8.12455 3.91854L9.81818 5.64804C10.2845 5.85692 10.6609 6.24125 10.8655 6.71749L12.5591 8.447C12.6245 8.16293 12.6736 7.86214 12.6736 7.553C12.6818 5.48094 11.0291 3.80157 9 3.80157C8.69727 3.80157 8.41091 3.84334 8.12455 3.91854ZM0.826364 1.18642L3.01909 3.42559C1.68545 4.49504 0.63 5.91541 0 7.56136C1.41545 11.2292 4.90909 13.8277 9 13.8277C10.2436 13.8277 11.4382 13.5854 12.5345 13.1426L15.3327 16L16.4864 14.8219L1.98 0L0.826364 1.18642ZM6.96273 7.45274L9.09818 9.63342C9.06545 9.64178 9.03273 9.65013 9 9.65013C7.87091 9.65013 6.95455 8.71436 6.95455 7.56136C6.95455 7.51958 6.96273 7.49452 6.96273 7.45274V7.45274ZM4.18091 4.61201L5.61273 6.07415C5.42455 6.53368 5.31818 7.03499 5.31818 7.56136C5.31818 9.63342 6.97091 11.3211 9 11.3211C9.51545 11.3211 10.0064 11.2125 10.4482 11.0204L11.25 11.8392C10.53 12.0397 9.77727 12.1567 9 12.1567C5.89909 12.1567 3.13364 10.377 1.78364 7.56136C2.35636 6.36658 3.19091 5.38068 4.18091 4.61201Z" fill="#747474"/>
</svg>
