<svg width="18" height="13" viewBox="0 0 18 13" fill="none" xmlns="http://www.w3.org/2000/svg">
<path d="M9 1.73333C12.1009 1.73333 14.8664 3.57933 16.2164 6.5C14.8664 9.42067 12.1009 11.2667 9 11.2667C5.89909 11.2667 3.13364 9.42067 1.78364 6.5C3.13364 3.57933 5.89909 1.73333 9 1.73333ZM9 0C4.90909 0 1.41545 2.69533 0 6.5C1.41545 10.3047 4.90909 13 9 13C13.0909 13 16.5845 10.3047 18 6.5C16.5845 2.69533 13.0909 0 9 0ZM9 4.33333C10.1291 4.33333 11.0455 5.304 11.0455 6.5C11.0455 7.696 10.1291 8.66667 9 8.66667C7.87091 8.66667 6.95455 7.696 6.95455 6.5C6.95455 5.304 7.87091 4.33333 9 4.33333ZM9 2.6C6.97091 2.6 5.31818 4.35067 5.31818 6.5C5.31818 8.64933 6.97091 10.4 9 10.4C11.0291 10.4 12.6818 8.64933 12.6818 6.5C12.6818 4.35067 11.0291 2.6 9 2.6Z" fill="#747474"/>
</svg>
