<svg xmlns="http://www.w3.org/2000/svg" width="22.976" height="17" viewBox="0 0 22.976 17">
  <path id="cached_FILL0_wght600_GRAD0_opsz48" d="M13.212,24.6a8.2,8.2,0,0,1-5.95-2.486,7.985,7.985,0,0,1-2.524-5.886V15.044L2.858,16.95,1.75,15.817l4.018-4.044,4.044,4.044L8.679,16.95,6.8,15.044v1.133a6.086,6.086,0,0,0,1.893,4.495,6.213,6.213,0,0,0,4.52,1.867,7.481,7.481,0,0,0,1.494-.142,5.531,5.531,0,0,0,1.288-.425l1.442,1.442a7.38,7.38,0,0,1-2.035.9,8.413,8.413,0,0,1-2.189.283Zm7.5-4.224-4.044-4.044L17.8,15.2l1.88,1.88V16.023a6.078,6.078,0,0,0-1.906-4.482,6.234,6.234,0,0,0-4.533-1.88,6.879,6.879,0,0,0-1.494.155,8.73,8.73,0,0,0-1.288.386L9.014,8.759a7.489,7.489,0,0,1,2.048-.889,8.639,8.639,0,0,1,2.177-.27,8.18,8.18,0,0,1,5.95,2.5A8.026,8.026,0,0,1,21.712,16V17.13l1.88-1.906,1.133,1.108Z" transform="translate(-1.75 -7.6)" fill="#5f6368"/>
</svg>
