<svg id="schedule_black_24dp" xmlns="http://www.w3.org/2000/svg" width="18" height="18" viewBox="0 0 18 18">
  <path id="Path_2492" data-name="Path 2492" d="M0,0H18V18H0Z" fill="none"/>
  <path id="Path_2493" data-name="Path 2493" d="M9.492,2A7.5,7.5,0,1,0,17,9.5,7.5,7.5,0,0,0,9.492,2ZM9.5,15.5a6,6,0,1,1,6-6A6,6,0,0,1,9.5,15.5ZM9.335,5.75H9.29a.538.538,0,0,0-.54.54V9.83a.743.743,0,0,0,.368.645l3.113,1.868a.536.536,0,1,0,.547-.922L9.875,9.7V6.29a.538.538,0,0,0-.54-.54Z" transform="translate(-0.5 -0.5)" fill="#5f6368"/>
</svg>
