<svg xmlns="http://www.w3.org/2000/svg" width="20" height="20" viewBox="0 0 20 20"><defs><style>.a{fill:none;}.b{fill:#5f6368;}</style></defs><rect class="a" width="20" height="20"/><g transform="translate(1.456 2.826)"><path class="b" d="M14.9,12.719h-.685l-.257-.257a5.359,5.359,0,0,0,1.37-3.6A5.574,5.574,0,0,0,4.2,8.437H5.912a3.864,3.864,0,1,1,3.853,4.281.772.772,0,0,1-.428-.086v1.712h.428a5.359,5.359,0,0,0,3.6-1.37l.257.257v.685L17.9,18.2l1.284-1.284Z" transform="translate(-2.059 -3.3)"/><g transform="translate(0 6.593)"><path class="b" d="M7.351,12.284H1.7V11H7.351Zm0,2.826H1.7V13.826H7.351Z" transform="translate(-1.7 -11)"/></g></g></svg>