<svg width="20" height="20" viewBox="0 0 20 20" fill="none" xmlns="http://www.w3.org/2000/svg">
<path d="M14.297 12.245H13.612L13.355 11.988C14.242 10.9993 14.7303 9.71631 14.725 8.38799C14.7135 6.95428 14.15 5.58012 13.1516 4.55112C12.1532 3.52212 10.7966 2.91743 9.36391 2.86271C7.93119 2.80799 6.53248 3.30746 5.45848 4.25731C4.38449 5.20715 3.71781 6.53433 3.597 7.96299H5.309C5.38951 7.2214 5.68295 6.51896 6.1539 5.94048C6.62486 5.36199 7.25319 4.9322 7.96305 4.70297C8.67291 4.47375 9.43394 4.45489 10.1543 4.64869C10.8746 4.84248 11.5235 5.24064 12.0225 5.79509C12.5215 6.34955 12.8494 7.0366 12.9665 7.77329C13.0836 8.50999 12.985 9.26485 12.6826 9.94673C12.3801 10.6286 11.8867 11.2084 11.262 11.616C10.6373 12.0237 9.90795 12.2418 9.162 12.244C9.01403 12.2571 8.86542 12.2272 8.734 12.158V13.87H9.162C10.4903 13.8753 11.7733 13.387 12.762 12.5L13.019 12.757V13.442L17.297 17.726L18.581 16.442L14.297 12.245Z" fill="#1A73E8"/>
<path d="M7.107 10.703H1.456V9.41901H7.107V10.703ZM7.107 13.529H1.456V12.245H7.107V13.529Z" fill="#1A73E8"/>
</svg>
