<svg xmlns="http://www.w3.org/2000/svg" width="20" height="20" viewBox="0 0 20 20"><defs><style>.a{fill:none;}.b{fill:#5f6368;}</style></defs><path class="a" d="M0,0H20V20H0Z"/><path class="b" d="M15.9,10.784A6.278,6.278,0,0,0,15.957,10a6.278,6.278,0,0,0-.056-.784L17.578,7.9a.406.406,0,0,0,.1-.512L16.085,4.616a.4.4,0,0,0-.35-.2.369.369,0,0,0-.135.024l-1.978.8a5.794,5.794,0,0,0-1.343-.784l-.3-2.12A.388.388,0,0,0,11.588,2H8.411a.388.388,0,0,0-.389.336l-.3,2.12a6.093,6.093,0,0,0-1.343.784L4.4,4.44a.447.447,0,0,0-.143-.024.393.393,0,0,0-.342.2L2.326,7.384a.4.4,0,0,0,.1.512L4.1,9.216A6.388,6.388,0,0,0,4.042,10a6.388,6.388,0,0,0,.056.784L2.421,12.1a.406.406,0,0,0-.1.512l1.589,2.768a.4.4,0,0,0,.35.2A.369.369,0,0,0,4.4,15.56l1.978-.8a5.794,5.794,0,0,0,1.343.784l.3,2.12A.388.388,0,0,0,8.411,18h3.178a.388.388,0,0,0,.389-.336l.3-2.12a6.093,6.093,0,0,0,1.343-.784l1.978.8a.447.447,0,0,0,.143.024.393.393,0,0,0,.342-.2l1.589-2.768a.406.406,0,0,0-.1-.512ZM14.329,9.416a4.3,4.3,0,0,1,.04.584c0,.168-.016.344-.04.584l-.111.9.707.56.858.672-.556.968-1.009-.408-.826-.336-.715.544a4.645,4.645,0,0,1-.993.584l-.842.344-.127.9-.159,1.08H9.443l-.151-1.08-.127-.9-.842-.344a4.5,4.5,0,0,1-.977-.568l-.723-.56-.842.344L4.772,13.7l-.556-.968.858-.672.707-.56-.111-.9c-.024-.248-.04-.432-.04-.592s.016-.344.04-.584l.111-.9-.707-.56L4.216,7.28l.556-.968,1.009.408.826.336.715-.544a4.645,4.645,0,0,1,.993-.584l.842-.344.127-.9L9.443,3.6h1.1L10.7,4.68l.127.9.842.344a4.5,4.5,0,0,1,.977.568l.723.56.842-.344L15.219,6.3l.556.968-.85.68-.707.56.111.9ZM10,6.8A3.2,3.2,0,1,0,13.177,10,3.188,3.188,0,0,0,10,6.8Zm0,4.8A1.6,1.6,0,1,1,11.588,10,1.6,1.6,0,0,1,10,11.6Z" transform="translate(0.002)"/></svg>