<svg xmlns="http://www.w3.org/2000/svg" width="18.541" height="18.015" viewBox="0 0 18.541 18.015">
  <g id="Group_1344" data-name="Group 1344" transform="translate(-0.986 -1.249)">
    <path id="Path_2919" data-name="Path 2919" d="M20.671,23.26c-.1.072-.195.144-.3.216.1-.055.2-.131.318-.216Z" transform="translate(-11.652 -13.317)" fill="#5f6368"/>
    <path id="Path_2920" data-name="Path 2920" d="M16.364,12.115l4.3,4.323-4.3,4.323-1.4-1.4,1.886-1.907a10.712,10.712,0,0,1-3.835-.53,8.17,8.17,0,0,1-3.242-2.564A4.36,4.36,0,0,0,8.066,13a5.293,5.293,0,0,0-1.7-.254H2.125v-2H6.363a5.293,5.293,0,0,0,1.7-.254A4.36,4.36,0,0,0,9.774,9.144,8.17,8.17,0,0,1,13.016,6.58a10.712,10.712,0,0,1,3.835-.53L14.966,4.143l1.4-1.4,4.3,4.323-4.3,4.323L14.966,10l1.886-1.907a6.935,6.935,0,0,0-3.043.369,5.176,5.176,0,0,0-2.488,2,3.917,3.917,0,0,1-.657.67c-.161.127-.326.254-.509.386-.1.072-.195.144-.3.216a.2.2,0,0,1-.038.025c.309.212.593.42.848.623a3.917,3.917,0,0,1,.657.67,5.176,5.176,0,0,0,2.488,2,6.935,6.935,0,0,0,3.043.369l-1.886-1.907Z" transform="translate(-1.139 -1.496)" fill="#5f6368"/>
  </g>
</svg>
