<svg xmlns="http://www.w3.org/2000/svg" xmlns:xlink="http://www.w3.org/1999/xlink" width="11" height="14.913" viewBox="0 0 11 14.913">
  <defs>
    <clipPath id="clip-path">
      <rect id="Rectangle_1481" data-name="Rectangle 1481" width="11" height="14.913" transform="translate(0 0)" fill="#5f6368"/>
    </clipPath>
  </defs>
  <g id="Group_1185" data-name="Group 1185" transform="translate(0 0)">
    <g id="Group_1184" data-name="Group 1184" transform="translate(0 0)" clip-path="url(#clip-path)">
      <path id="Path_2605" data-name="Path 2605" d="M2.187,10.637c.377,1.689,1.538,2.575,3.562,2.581,2.153.006,3.018-.978,3.022-2.291,0-1.4-.707-2.164-3.534-2.852C1.718,7.215.573,5.99.578,3.965.585,1.738,2.237-.008,5.514,0c3.532.009,4.971,2.026,5.164,3.974L8.491,3.969C8.255,2.752,7.509,1.707,5.438,1.7c-1.674,0-2.626.738-2.63,2.055,0,1.3.776,1.811,3.281,2.42C10.242,7.192,11.005,8.8,11,10.7c-.007,2.4-1.8,4.227-5.4,4.217C1.94,14.9.3,12.938,0,10.631Z" transform="translate(0 -0.001)" fill="#5f6368"/>
    </g>
  </g>
</svg>
