<svg xmlns="http://www.w3.org/2000/svg" width="22" height="22" viewBox="0 0 22 22"><defs><style>.a{fill:none;}.b{fill:#5f6368;}</style></defs><path class="a" d="M0,0H22V22H0Z"/><path class="b" d="M11.881,13.981l-2.328-2.3.028-.027a16.059,16.059,0,0,0,3.4-5.986h2.686V3.833H9.25V2H7.417V3.833H1V5.658H11.239a14.4,14.4,0,0,1-2.906,4.913A14.341,14.341,0,0,1,6.216,7.5H4.383a16.1,16.1,0,0,0,2.732,4.18l-4.666,4.6,1.3,1.3L8.333,13l2.851,2.851.7-1.87Zm5.161-4.648H15.208l-4.125,11h1.833l1.027-2.75H18.3l1.036,2.75h1.833Zm-2.4,6.417,1.485-3.969L17.61,15.75H14.64Z" transform="translate(-0.083 -0.167)"/></svg>