<svg xmlns="http://www.w3.org/2000/svg" width="47.195" height="42.107" viewBox="0 0 47.195 42.107">
  <g id="Group_735" data-name="Group 735" transform="translate(-1041.902 -346.447)">
    <path id="warning_black_24dp" d="M7.424,46.1H44.709a4.95,4.95,0,0,0,4.283-7.427L30.349,6.462a4.949,4.949,0,0,0-8.566,0L3.14,38.672A4.95,4.95,0,0,0,7.424,46.1Zm18.643-17.33a2.483,2.483,0,0,1-2.476-2.476V21.341a2.476,2.476,0,0,1,4.952,0v4.952A2.483,2.483,0,0,1,26.066,28.769Zm2.476,9.9H23.59V33.72h4.952Z" transform="translate(1039.434 342.454)" fill="red"/>
    <path id="warning_black_24dp-2" data-name="warning_black_24dp" d="M26.066,28.769a2.483,2.483,0,0,1-2.476-2.476V21.341a2.476,2.476,0,0,1,4.952,0v4.952A2.483,2.483,0,0,1,26.066,28.769Zm2.476,9.9H23.59V33.72h4.952Z" transform="translate(1039.434 342.454)" fill="#fff"/>
  </g>
</svg>
