<svg xmlns="http://www.w3.org/2000/svg" width="16" height="16" viewBox="0 0 16 16">
  <g id="Group_2246" data-name="Group 2246" transform="translate(-1800 -324)">
    <rect id="Rectangle_67" data-name="Rectangle 67" width="16" height="16" rx="2" transform="translate(1800 324)" fill="#ff4766"/>
    <path id="priority_high_FILL1_wght600_GRAD0_opsz48" d="M398.228,207.494A1.236,1.236,0,0,1,397,206.262a1.168,1.168,0,0,1,.364-.866,1.2,1.2,0,0,1,.87-.358,1.17,1.17,0,0,1,.863.362,1.194,1.194,0,0,1,.358.87,1.225,1.225,0,0,1-1.226,1.224Zm-1.129-3.935v-7.343h2.255v7.343Z" transform="translate(1409.773 130.145)" fill="#fff"/>
  </g>
</svg>
