<svg xmlns="http://www.w3.org/2000/svg" xmlns:xlink="http://www.w3.org/1999/xlink" width="76" height="62" viewBox="0 0 76 62">
  <defs>
    <linearGradient id="linear-gradient" x1="0.766" y1="1" x2="0.766" y2="0.007" gradientUnits="objectBoundingBox">
      <stop offset="0" stop-color="#0078d4"/>
      <stop offset="1" stop-color="#00b1ff"/>
    </linearGradient>
  </defs>
  <g id="Group_835" data-name="Group 835" transform="translate(-0.469 -0.038)">
    <rect id="Rectangle_468" data-name="Rectangle 468" width="35" height="35" rx="4" transform="translate(0.469 0.038)" fill="rgba(81,180,255,0.23)"/>
    <rect id="Rectangle_469" data-name="Rectangle 469" width="21" height="21" rx="3" transform="translate(55.469 41.038)" fill="rgba(81,180,255,0.23)"/>
    <g id="Group_176" data-name="Group 176" transform="translate(8.35 10.18)">
      <g id="Group_4" data-name="Group 4" transform="translate(0 0)" style="mix-blend-mode: darken;isolation: isolate">
        <path id="Rectangle_Copy_2" data-name="Rectangle Copy 2" d="M3,37.76a3,3,0,0,1-3-3V7.626A7.584,7.584,0,0,1,7.54,0h3.871a18.675,18.675,0,0,1,9.052,2.343l4.571,2.531h22.86a3,3,0,0,1,3,3V34.76a3,3,0,0,1-3,3Z" transform="translate(3.181)" fill="#9ad3ff"/>
        <rect id="Rectangle" width="57.256" height="36.58" rx="4" transform="translate(0 9.132)" fill="url(#linear-gradient)"/>
      </g>
      <g id="Group_175" data-name="Group 175" transform="translate(23.119 18.233)">
        <rect id="Rectangle_467" data-name="Rectangle 467" width="5" height="12" transform="translate(4 5.626)" fill="#fff"/>
        <path id="Polygon_1" data-name="Polygon 1" d="M7,0l7,6H0Z" transform="translate(0 -0.374)" fill="#fff"/>
      </g>
    </g>
  </g>
</svg>
