<svg xmlns="http://www.w3.org/2000/svg" width="30" height="30" viewBox="0 0 30 30"><defs><style>.a{fill:#fff;stroke:#dfdfdf;}.b{fill-rule:evenodd;}.c{stroke:none;}.d{fill:none;}</style></defs><g transform="translate(-27 -477.053)"><g class="a" transform="translate(27 477.053)"><rect class="c" width="30" height="30" rx="2"/><rect class="d" x="0.5" y="0.5" width="29" height="29" rx="1.5"/></g><path class="b" d="M26.326,28.2a.312.312,0,0,1-.064.189.182.182,0,0,1-.142.084,1.8,1.8,0,0,0-1.032.406A3.8,3.8,0,0,0,24.26,30.2l-4.351,9.806c-.029.091-.108.137-.239.137a.268.268,0,0,1-.239-.137l-2.44-5.1-2.806,5.1a.268.268,0,0,1-.239.137.243.243,0,0,1-.248-.137L9.42,30.2a3.39,3.39,0,0,0-.845-1.275,2.316,2.316,0,0,0-1.236-.449.165.165,0,0,1-.128-.073.247.247,0,0,1-.061-.165c0-.16.046-.239.137-.239q.572,0,1.2.051.579.053,1.091.052t1.229-.052Q11.544,28,12.117,28c.091,0,.137.079.137.239s-.029.238-.084.238a1.7,1.7,0,0,0-.9.29.775.775,0,0,0-.329.649,1.315,1.315,0,0,0,.137.511l3.533,7.979,2.005-3.788L14.746,30.2a5.1,5.1,0,0,0-.828-1.353,1.663,1.663,0,0,0-.982-.371.148.148,0,0,1-.115-.073.261.261,0,0,1-.056-.165c0-.16.039-.239.12-.239a10.007,10.007,0,0,1,1.049.051,8.583,8.583,0,0,0,.982.052q.511,0,1.083-.052Q16.589,28,17.16,28c.091,0,.137.079.137.239s-.027.238-.084.238q-1.143.078-1.143.649a2.071,2.071,0,0,0,.265.793l1.236,2.51,1.229-2.3a1.852,1.852,0,0,0,.256-.82q0-.784-1.143-.837c-.069,0-.1-.079-.1-.238a.287.287,0,0,1,.051-.162c.035-.052.069-.078.1-.078q.41,0,1.007.051c.381.035.695.052.939.052.175,0,.435-.015.776-.044.432-.039.794-.059,1.084-.059.067,0,.1.067.1.2q0,.273-.187.273a2.146,2.146,0,0,0-1.071.368A4.691,4.691,0,0,0,19.6,30.2l-1.639,3.031,2.219,4.522,3.277-7.62a2.061,2.061,0,0,0,.17-.767q0-.837-1.143-.889c-.069,0-.1-.079-.1-.238s.051-.239.153-.239q.417,0,.99.051c.352.035.649.052.887.052a8.219,8.219,0,0,0,.87-.052c.342-.034.649-.051.923-.051C26.285,28,26.326,28.067,26.326,28.2Z" transform="translate(25.262 458.981)"/></g></svg>