<svg xmlns="http://www.w3.org/2000/svg" xmlns:xlink="http://www.w3.org/1999/xlink" width="42.529" height="41.943" viewBox="0 0 42.529 41.943">
  <defs>
    <clipPath id="clip-path">
      <rect id="Rectangle_3212" data-name="Rectangle 3212" width="42.529" height="41.943" fill="none"/>
    </clipPath>
    <clipPath id="clip-path-3">
      <rect id="Rectangle_3209" data-name="Rectangle 3209" width="17.653" height="21.985" fill="none"/>
    </clipPath>
    <clipPath id="clip-path-4">
      <rect id="Rectangle_3210" data-name="Rectangle 3210" width="17.485" height="11.634" fill="none"/>
    </clipPath>
  </defs>
  <g id="Group_1833" data-name="Group 1833" transform="translate(0 -7)">
    <g id="Group_1832" data-name="Group 1832" transform="translate(0 7)" clip-path="url(#clip-path)">
      <g id="Group_1831" data-name="Group 1831">
        <g id="Group_1830" data-name="Group 1830" clip-path="url(#clip-path)">
          <path id="Path_4076" data-name="Path 4076" d="M3.512,41.943a3.368,3.368,0,0,1-2.453-1.059A3.365,3.365,0,0,1,0,38.431V3.512A3.365,3.365,0,0,1,1.059,1.059,3.368,3.368,0,0,1,3.512,0h17.2a3.665,3.665,0,0,1,2.531,1.033l9.4,9.4a3.665,3.665,0,0,1,1.033,2.532V38.431a3.621,3.621,0,0,1-3.512,3.512Z" transform="translate(0 0)" fill="#00be72"/>
          <g id="Group_1826" data-name="Group 1826" transform="translate(24.876 19.914)" style="mix-blend-mode: multiply;isolation: isolate">
            <g id="Group_1825" data-name="Group 1825">
              <g id="Group_1824" data-name="Group 1824" clip-path="url(#clip-path-3)">
                <path id="Path_4077" data-name="Path 4077" d="M35.505,48.934a1.9,1.9,0,0,1-1.841-1.841V28.79a1.9,1.9,0,0,1,1.841-1.841h9.016a1.917,1.917,0,0,1,1.327.542l4.927,4.927a1.926,1.926,0,0,1,.542,1.327V47.093a1.9,1.9,0,0,1-1.841,1.841Z" transform="translate(-33.665 -26.949)" fill="#ffc746"/>
              </g>
            </g>
          </g>
          <g id="Group_1829" data-name="Group 1829" transform="translate(6.574 14.411)">
            <g id="Group_1828" data-name="Group 1828">
              <g id="Group_1827" data-name="Group 1827" clip-path="url(#clip-path-4)">
                <path id="Path_4078" data-name="Path 4078" d="M8.9,31.135h9.565v-2.8H8.9Zm0-8.833H26.382V19.5H8.9Z" transform="translate(-8.896 -19.502)" fill="#fff"/>
              </g>
            </g>
          </g>
        </g>
      </g>
    </g>
  </g>
</svg>
