<svg xmlns="http://www.w3.org/2000/svg" xmlns:xlink="http://www.w3.org/1999/xlink" width="50.371" height="37.702" viewBox="0 0 50.371 37.702">
  <defs>
    <clipPath id="clip-path">
      <rect id="Rectangle_3327" data-name="Rectangle 3327" width="50.371" height="37.702" fill="none"/>
    </clipPath>
    <clipPath id="clip-path-3">
      <rect id="Rectangle_3324" data-name="Rectangle 3324" width="28.337" height="28.337" fill="none"/>
    </clipPath>
    <clipPath id="clip-path-4">
      <rect id="Rectangle_3325" data-name="Rectangle 3325" width="14.905" height="21.827" fill="none"/>
    </clipPath>
  </defs>
  <g id="Group_2082" data-name="Group 2082" transform="translate(0 0)">
    <g id="Group_2081" data-name="Group 2081" transform="translate(0 0)" clip-path="url(#clip-path)">
      <g id="Group_2080" data-name="Group 2080" transform="translate(0 0)">
        <g id="Group_2079" data-name="Group 2079" clip-path="url(#clip-path)">
          <path id="Path_4201" data-name="Path 4201" d="M32.8,37.7H4.146A4.146,4.146,0,0,1,0,33.556V4.146A4.146,4.146,0,0,1,4.146,0H32.8a4.146,4.146,0,0,1,4.146,4.146v29.41A4.146,4.146,0,0,1,32.8,37.7" transform="translate(0 0)" fill="#24ccfc"/>
          <path id="Path_4202" data-name="Path 4202" d="M6.7,23.57H18.7V20.923H6.7Zm0-8.35H27V12.573H6.7Zm0,16.941H18.443V29.514H6.7Z" transform="translate(-2.022 -3.791)" fill="#fff"/>
          <g id="Group_2075" data-name="Group 2075" transform="translate(22.034 0.038)" style="mix-blend-mode: multiply;isolation: isolate">
            <g id="Group_2074" data-name="Group 2074">
              <g id="Group_2073" data-name="Group 2073" clip-path="url(#clip-path-3)">
                <path id="Path_4203" data-name="Path 4203" d="M38.461,28.391l-6.9-.051-.015-6.864L52.254.77a2.445,2.445,0,0,1,3.457,0l3.457,3.457a2.444,2.444,0,0,1,0,3.457Z" transform="translate(-31.547 -0.054)" fill="#2079f3"/>
              </g>
            </g>
          </g>
          <g id="Group_2078" data-name="Group 2078" transform="translate(22.036 6.55)" opacity="0.5" style="mix-blend-mode: multiply;isolation: isolate">
            <g id="Group_2077" data-name="Group 2077">
              <g id="Group_2076" data-name="Group 2076" clip-path="url(#clip-path-4)">
                <path id="Path_4204" data-name="Path 4204" d="M46.455,9.377V23.214l-7.99,7.99-6.9-.056-.014-6.859Z" transform="translate(-31.55 -9.377)" fill="#2079f3"/>
              </g>
            </g>
          </g>
        </g>
      </g>
    </g>
  </g>
</svg>
