<svg id="Translate_files-menu" data-name="Translate files-menu" xmlns="http://www.w3.org/2000/svg" xmlns:xlink="http://www.w3.org/1999/xlink" width="19.103" height="18.84" viewBox="0 0 19.103 18.84">
  <defs>
    <clipPath id="clip-path">
      <rect id="Rectangle_3212" data-name="Rectangle 3212" width="19.103" height="18.84" fill="none"/>
    </clipPath>
    <clipPath id="clip-path-3">
      <rect id="Rectangle_3209" data-name="Rectangle 3209" width="7.929" height="9.875" fill="none"/>
    </clipPath>
    <clipPath id="clip-path-4">
      <rect id="Rectangle_3210" data-name="Rectangle 3210" width="7.854" height="5.226" fill="none"/>
    </clipPath>
  </defs>
  <g id="Group_1832" data-name="Group 1832" transform="translate(0 0)" clip-path="url(#clip-path)">
    <g id="Group_1831" data-name="Group 1831">
      <g id="Group_1830" data-name="Group 1830" clip-path="url(#clip-path)">
        <path id="Path_4076" data-name="Path 4076" d="M1.578,18.84a1.513,1.513,0,0,1-1.1-.476A1.511,1.511,0,0,1,0,17.262V1.578A1.511,1.511,0,0,1,.476.476,1.513,1.513,0,0,1,1.578,0H9.3a1.646,1.646,0,0,1,1.137.464l4.223,4.223a1.646,1.646,0,0,1,.464,1.137V17.262A1.626,1.626,0,0,1,13.55,18.84Z" transform="translate(0 0)" fill="#00be72"/>
        <g id="Group_1826" data-name="Group 1826" transform="translate(11.174 8.945)" style="mix-blend-mode: multiply;isolation: isolate">
          <g id="Group_1825" data-name="Group 1825">
            <g id="Group_1824" data-name="Group 1824" clip-path="url(#clip-path-3)">
              <path id="Path_4077" data-name="Path 4077" d="M34.491,36.824A.853.853,0,0,1,33.664,36V27.776a.853.853,0,0,1,.827-.827h4.05a.861.861,0,0,1,.6.243l2.213,2.213a.865.865,0,0,1,.243.6v6a.852.852,0,0,1-.827.827Z" transform="translate(-33.664 -26.949)" fill="#ffc746"/>
            </g>
          </g>
        </g>
        <g id="Group_1829" data-name="Group 1829" transform="translate(2.953 6.473)">
          <g id="Group_1828" data-name="Group 1828">
            <g id="Group_1827" data-name="Group 1827" clip-path="url(#clip-path-4)">
              <path id="Path_4078" data-name="Path 4078" d="M8.9,24.727h4.3V23.47H8.9Zm0-3.968H16.75V19.5H8.9Z" transform="translate(-8.896 -19.502)" fill="#fff"/>
            </g>
          </g>
        </g>
      </g>
    </g>
  </g>
</svg>
