<svg xmlns="http://www.w3.org/2000/svg" xmlns:xlink="http://www.w3.org/1999/xlink" viewBox="0 0 512.45 512.19"><defs><style>.cls-1{fill:none;}.cls-2{clip-path:url(#clip-path);}.cls-3{fill:#eee;}.cls-3,.cls-4,.cls-5,.cls-6{fill-rule:evenodd;}.cls-4{fill:#dc171d;}.cls-5{fill:#012a87;}.cls-6{fill:#fff;}</style><clipPath id="clip-path" transform="translate(0.22 0.1)"><circle class="cls-1" cx="256" cy="256" r="256"/></clipPath></defs><g id="Layer_2" data-name="Layer 2"><g id="Layer_1-2" data-name="Layer 1"><g class="cls-2"><path class="cls-3" d="M-.22-.1H512.22V512.1H-.22Z" transform="translate(0.22 0.1)"/><path class="cls-4" d="M167.3-.1H344.7V512.1H167.3Z" transform="translate(0.22 0.1)"/><path class="cls-5" d="M-.22,167.3H512.22V344.7H-.22Z" transform="translate(0.22 0.1)"/><path id="a" class="cls-6" d="M225.3,337.31l-13.78-11.09-13.71,10.64,5.44-16.4-13.77-11.09H206l5.8-16.41,5.27,16.41h16.73l-13.27,11.09Z" transform="translate(0.22 0.1)"/><path id="a-2" data-name="a" class="cls-6" d="M314,337.31l-13.78-11.09-13.71,10.64,5.44-16.4-13.78-11.09h16.56l5.8-16.41,5.27,16.41h16.72l-13.26,11.09Z" transform="translate(0.22 0.1)"/><path id="a-3" data-name="a" class="cls-6" d="M225.3,219,211.52,208l-13.71,10.64,5.44-16.41-13.77-11.09H206l5.8-16.41,5.27,16.41h16.73l-13.27,11.09Z" transform="translate(0.22 0.1)"/><path id="a-4" data-name="a" class="cls-6" d="M310.45,219,296.67,208,283,218.59l5.44-16.41-13.77-11.09h16.55l5.8-16.41,5.27,16.41H319l-13.27,11.09Z" transform="translate(0.22 0.1)"/><path id="a-5" data-name="a" class="cls-6" d="M151.33,278.17l-13.79-11.08-13.7,10.64,5.44-16.41L115.5,250.23h16.55l5.8-16.41,5.27,16.41h16.73l-13.26,11.09Z" transform="translate(0.22 0.1)"/><path id="a-6" data-name="a" class="cls-6" d="M387.92,278.18l-13.78-11.09-13.71,10.64,5.44-16.41-13.78-11.08h16.56l5.8-16.41,5.27,16.41h16.72l-13.26,11.08Z" transform="translate(0.22 0.1)"/></g></g></g></svg>